/* XPM */
static char *CONE[] = {
/* columns rows colors chars-per-pixel */
"64 64 13 1 ",
"  c #181817",
". c #D36101",
"X c #DB6602",
"o c #DC650C",
"O c #F07002",
"+ c #E87D26",
"@ c #E8812A",
"# c #E28033",
"$ c #DDDFDB",
"% c #F5EFE8",
"& c #EEF4F4",
"* c #ECF5F8",
"= c None",
/* pixels */
"================================================================",
"================================================================",
"================================================================",
"================================================================",
"================================================================",
"================================================================",
"================================================================",
"================================================================",
"================================================================",
"================================================================",
"================================================================",
"================================================================",
"===============================  ===============================",
"===============================  ===============================",
"=============================  OO  =============================",
"=============================  OO  =============================",
"===========================  OOOOOO  ===========================",
"===========================  OOOOOO  ===========================",
"=====================      @@OOOOOO@@      =====================",
"=====================      @@OOOOOO@@      =====================",
"===================  ......%%OOOOOO%%......  ===================",
"===================  ......%%OOOOOO%%......  ===================",
"=================  ..OO**OO%%@@OO@@%%OO**OO..  =================",
"=================  ..OO**OO%%@@OO@@%%OO**OO..  =================",
"===============  ..XX**@@OO&&**@@**&&OO@@**XX..  ===============",
"===============  ..XX**@@OO&&**@@**&&OO@@**XX..  ===============",
"===============  ..XX**@@OO++******++OO@@**XX..  ===============",
"===============  ..XX**@@OO++******++OO@@**XX..  ===============",
"===============  ..XX**@@OOOO++**++OOOO@@**XX..  ===============",
"===============  ..XX**@@OOOO++**++OOOO@@**XX..  ===============",
"===============  ..XX****@@OOOOOOOOOO@@****XX..  ===============",
"===============  ..XX****@@OOOOOOOOOO@@****XX..  ===============",
"===============  ..XX$$**@@@@OOOOOOOO@@**$$XX..  ===============",
"===============  ..XX$$**@@@@OOOOOOOO@@**$$XX..  ===============",
"===============  ..XX$$$$**@@@@O++@@***$$$$XX..  ===============",
"===============  ..XX$$$$**@@@@O++@@***$$$$XX..  ===============",
"===============  ..XX++$$$$**********$$$$++XX..  ===============",
"===============  ..XX++$$$$**********$$$$++XX..  ===============",
"===============  ..XXXX++$$$$******$$$$++XXXX..  ===============",
"===============  ..XXXX++$$$$******$$$$++XXXX..  ===============",
"===============  ....XXXX++++$$$$$$##++XXXX....  ===============",
"===============  ....XXXX++++$$$$$$##++XXXX....  ===============",
"===============  ......XXXXXXooXXooXXXXXX......  ===============",
"===============  ......XXXXXXooXXooXXXXXX......  ===============",
"===============  ...........XXXXXXXX...........  ===============",
"===============  ...........XXXXXXXX...........  ===============",
"=================  ..........................  =================",
"=================  ..........................  =================",
"===================    ..................    ===================",
"===================    ..................    ===================",
"=======================                  =======================",
"=======================                  =======================",
"================================================================",
"================================================================",
"================================================================",
"================================================================",
"================================================================",
"================================================================",
"================================================================",
"================================================================",
"================================================================",
"================================================================",
"================================================================",
"================================================================"
};
