/* XPM */
static char *DUCK[] = {
/* columns rows colors chars-per-pixel */
"64 64 93 2 ",
"   c #0A0D18",
".  c #0F1117",
"X  c #0A1618",
"o  c #121317",
"O  c #181816",
"+  c #201E16",
"@  c #3F1C12",
"#  c #1E2016",
"$  c #232115",
"%  c #352F14",
"&  c #3C3513",
"*  c #3E3813",
"=  c #141722",
"-  c #32333B",
";  c #431612",
":  c #421B12",
">  c #491C11",
",  c #6C1E0D",
"<  c #463D0F",
"1  c #453C12",
"2  c #483F12",
"3  c #473F1C",
"4  c #71220D",
"5  c #474211",
"6  c #4B4111",
"7  c #514611",
"8  c #72460D",
"9  c #73490D",
"0  c #64550F",
"q  c #715F0E",
"w  c #74620D",
"e  c #79670D",
"r  c #7B680D",
"t  c #434037",
"y  c #746A3D",
"u  c #323441",
"i  c #737066",
"p  c #707177",
"a  c #932609",
"s  c #B52505",
"d  c #B42905",
"f  c #B92805",
"g  c #C42B04",
"h  c #DC2D01",
"j  c #E12F01",
"k  c #EF2F00",
"l  c #F22E00",
"z  c #EE3100",
"x  c #F23100",
"c  c #947B0A",
"v  c #997F0A",
"b  c #C95304",
"n  c #F85B00",
"m  c #9D8309",
"M  c #A28609",
"N  c #A48808",
"B  c #C19F04",
"V  c #C3A205",
"C  c #C8A605",
"Z  c #CBA905",
"A  c #D2A604",
"S  c #D2AE04",
"D  c #D4B104",
"F  c #D8B303",
"G  c #D2B013",
"H  c #F0AC01",
"J  c #FFAF00",
"K  c #C1A730",
"L  c #EFC501",
"P  c #F1C601",
"I  c #F2C901",
"U  c #FED200",
"Y  c #FFD900",
"T  c #FFD50D",
"R  c #FDD72C",
"E  c #FFDA2C",
"W  c #F0CD30",
"Q  c #FEDB3C",
"!  c #EED35C",
"~  c #8C8D97",
"^  c #BBB28E",
"/  c #CFC395",
"(  c #CCC39F",
")  c #FBE587",
"_  c #FDE78C",
"`  c #FFEA8E",
"'  c #CEC4A0",
"]  c #F7EABB",
"[  c #FAEDBD",
"{  c #C8C7D1",
"}  c #C9C9D2",
"|  c #E5E4F0",
" . c None",
/* pixels */
" . . . . . . . . . . . . . . . . . . . . . . . . . . . . . . . . . . . . . . . . . . . . . . . . . . . . . . . . . . . . . . . .",
" . . . . . . . . . . . . . . . . . . . . . . . . . . . . . . . . . . . . . . . . . . . . . . . . . . . . . . . . . . . . . . . .",
" . . . . . . . . . . . . . . . . . . . . . . . . . . . . . . . . . . . . . . . . . . . . . . . . . . . . . . . . . . . . . . . .",
" . . . . . . . . . . . . . . . . . . . . . . . . . . . . . . . . . . . . . . . . . . . . . . . . . . . . . . . . . . . . . . . .",
" . . . . . . . . . . . . . . . . . . . . . . . . . . . . . . . . . . . . . . . . . . . . . . . . . . . . . . . . . . . . . . . .",
" . . . . . . . . . . . . . . . . . . . . . . . . . . . . . . . . . . . . . . . . . . . . . . . . . . . . . . . . . . . . . . . .",
" . . . . . . . . . . . . . . . . . . . . . . . . . . . . . . . . . . . . . . . . . . . . . . . . . . . . . . . . . . . . . . . .",
" . . . . . . . . . . . . . . . . . . . . . . . . . . . . . . . . . . . . . . . . . . . . . . . . . . . . . . . . . . . . . . . .",
" . . . . . . . . . . . . . . . . . . . . . . . . . . . . . . . . . . . . . . . . . . . . . . . . . . . . . . . . . . . . . . . .",
" . . . . . . . . . . . . . . . . . . . . . . . . . . . . . . . . . . . . . . . . . . . . . . . . . . . . . . . . . . . . . . . .",
" . . . . . . . . . . . . . . . . . . . . . . . . . .O o o o . . . . . o O O  . . . . . . . . . . . . . . . . . . . . . . . . . .",
" . . . . . . . . . . . . . . . . . . . . . . . . . .o $ 1 6 7 6 7 7 6 1 $ o  . . . . . . . . . . . . . . . . . . . . . . . . . .",
" . . . . . . . . . . . . . . . . . . . .O O o . o . . & m V V V V V C v &   . . . o o O  . . . . . . . . . . . . . . . . . . . .",
" . . . . . . . . . . . . . . . . . . . .o $ * 6 6 6 6 e D Y Y U Y Y Y D e 2 2 7 6 1 $ o  . . . . . . . . . . . . . . . . . . . .",
" . . . . . . . . . . . . . . . . . .O o . & m V C C V D J Y U U U U U P S V V V C v & . o O  . . . . . . . . . . . . . . . . . .",
" . . . . . . . . . . . . . . . . . .o + & r D Y Y U U U U I U U U U U U Y U Y Y Y D r & + O  . . . . . . . . . . . . . . . . . .",
" . . . . . . . . . . . . . . . .O o . & v F I Y U U U U U U U U U U I U U U U U Y I F v & o o O  . . . . . . . . . . . . . . . .",
" . . . . . . . . . . . . . . . .o $ & e D Y U U I U U U U U I U U U U U U U U U U U Y D r & + o  . . . . . . . . . . . . . . . .",
" . . . . . . . . . . . . . .O o . & v F P U U U U U U U U U U U I U U U U U U U U U U P F v & . o O  . . . . . . . . . . . . . .",
" . . . . . . . . . . . . . .. + & r F Y U U U U U I U U U I U U U U I U U U U U U U U U Y D r & + o  . . . . . . . . . . . . . .",
" . . . . . . . . . . . .. .   & v F P U U U U U U U U U U U U U U I U U U U U I U I U U U P F v 1     o  . . . . . . . . . . . .",
" . . . . . . . . . . . .6 6 6 e D U U U U U I U U U U I U U U U U U U U U I U U U U U U U U U D e 2 6 2  . . . . . . . . . . . .",
" . . . . . . . . . .  1 M V V D P U U U U I U U U U U U U U U U I U U U U U U U U U U I I U U P D V C M 1    . . . . . . . . . .",
" . . . . . . . . . .1 e D Y U U U U I U U U U U U U U U U U U U U U U U U U U U I U U U U U U U U Y Y S e 1  . . . . . . . . . .",
" . . . . . . . .  1 m D P U U U U U U U U U I U U U U U U U Y U U U U U U U U U U U U U U U U U U U Y P D m 1    . . . . . . . .",
" . . . . . . . .1 e D Y U U U U U U U U U U U U U P S B B V V V B B C B V S L U U U I U U U U I U U U Y Y D w 2  . . . . . . . .",
" . . . . . .. 6 m F I Y U U U U U U U U U U U U Y D w 1 2 2 6 2 2 2 2 2 1 e D Y U U U U U I U U U U Y Y Y I D m 2 o  . . . . . .",
" . . . . . .. 6 C I D S L U U U U U U I U U U I D N 0 2 2 2 2 2 2 2 2 2 1 0 N D L U U U U U U U U L Z V V F U V 6 o  . . . . . .",
" . . . . . .. 7 C F e w S U U U U U U U U U Y D w 0 M V V V V V V V V V V N 0 w D Y U U I U U U U S w 1 6 r F C 7 .  . . . . . .",
" . . . . . .o 7 C C 2 1 V U U U U U U U U P D m 0 q S Y Y Y U U U Y U U Y S w 0 M S I U U U U U U S w % O 6 Z C 7 o  . . . . . .",
" . . . . . .o 7 C C 6 5 V U U U U U U Y U D w 0 M S I U U U U U U U U U U I S m 0 w S U U U U U U P D c % 6 C C 7 o  . . . . . .",
" . . . . . .. 7 C C 6 6 V U U U I U U H D M 0 q S Y U U U U U U U U U U U U Y D q 0 M D P U U U U U Y V 6 6 C C 7 .  . . . . . .",
" . . . . . .o 7 C C 6 6 V Y U U U U Y D w 0 N D P U U U U U U U U U U U I U U P D m 0 w S Y U U U U U V 6 6 C C 7 o  . . . . . .",
" . . . . . .. 7 C C 6 6 V U U U U P D N 0 w Z Y U U U U U U U Y U U U U U U U U Y D w 0 N D I U U U Y V 6 6 C C 7 .  . . . . . .",
" . . . . . .. 7 C C 6 6 V U U U U S w 0 M D I U U U U I U U Y Y U U U U U U U U U I D N 0 e Z U U U U V 5 6 C C 7 .  . . . . . .",
" . . . . . .o 7 C C 6 6 V U Y U Y V 1 2 V Y U U U U U U U L F N V S I U U I U U U U U V 2 1 V U U U U V 6 6 C C 7 o  . . . . . .",
" . . . . . .o 7 C C 6 6 V U U U U B 2 2 C U U U U I U U Y D w 1 1 e D U U U U U U U U V 1 1 V Y U U U V 6 6 C C 7 .  . . . . . .",
" . . . . . .. 7 C C 6 6 V U U U Y B 2 2 V U U U U U U P D N 0 5 1 0 N S P U U U U U Y V 6 5 V U U Y U V 6 6 C Z 7 o  . . . . . .",
" . . . . . .. 7 Z C 6 6 V U U U Y B 2 6 B U U U U U U A q 0 N C V N 0 q A U U U U U U B 6 6 V U U U Y V 6 6 Z C 7 o  . . . . . .",
" . . . . . .. 1 m m 1 6 C Y Y U U V 6 2 B U U U U U U Z q q S Y Y S q q Z U U U U U U V 6 2 C U U U Y C 6 & m m 1 o  . . . . . .",
" . . . . . .O $ 1 & + 6 C U U U Y B 2 2 B U U U U U U H S S L U U P Z S L U U U U U U B 6 6 V U U U Y V 6 + * 1 $ O  . . . . . .",
" . . . . . .O O o o o 1 m F I U Y B 2 2 B T E Q Q R T U Y Y U U U U U U U T R Q Q R T B 1 1 B U U I F m 2 . . o o O  . . . . . .",
" . . . . . . . . . .o $ & e D U Y B 3 < V E ) ] [ _ R U U U U I U U U U U R _ [ ] ) R B < 1 V U Y D e & $ o  . . . . . . . . . .",
" . . . . . . . . . .O o   6 C Y Y S q q S Q ] | { ( ! E T U U U U U U T E ! ( } | ] Q S w e S Y Y V 6 . . O  . . . . . . . . . .",
" . . . . . . . . . . . .. 6 C Y U L S S L Q [ { p i ' ` R U U U U U U E ` ' i p { [ Q P S S P U Y V 6 .  . . . . . . . . . . . .",
" . . . . . . . . . . . .o 1 m D I Y U U U R _ ^ t - ~ / W U U U U U U W / ~ - t ^ _ E U U U U I D M 5 o  . . . . . . . . . . . .",
" . . . . . . . . . . . . . .1 e D Y Y U U T E K 3 = u y G U U U I U U G y u = 3 K E T U U Y Y D w 1  . . . . . . . . . . . . . .",
" . . . . . . . . . . . . . .  1 m D I U U U U D e 6 < w S Y Y U U U Y D w < 5 r D U U U U I D m 2    . . . . . . . . . . . . . .",
" . . . . . . . . . . . . . . . .1 w D Y U U Y I D V V S I Y U Y Y Y U P D V V D I Y U Y Y D w 1  . . . . . . . . . . . . . . . .",
" . . . . . . . . . . . . . . . .  1 m D I I D A H J J H Z V V V V V V A H J J H A S P I D m 2    . . . . . . . . . . . . . . . .",
" . . . . . . . . . . . . . . . . . .2 r F F e 8 b n n b 9 5 5 5 5 5 5 8 b n n b 8 w D F e 1  . . . . . . . . . . . . . . . . . .",
" . . . . . . . . . . . . . . . . . .  5 M m & @ s l x f , ; : ; > : @ , g k l f ; * m M 2    . . . . . . . . . . . . . . . . . .",
" . . . . . . . . . . . . . . . . . . . .6 * $ > f l z h g d d d d d d f h z x f > # * 6  . . . . . . . . . . . . . . . . . . . .",
" . . . . . . . . . . . . . . . . . . . .. . o : a g j z z z z z z z z z z j g a : o X .  . . . . . . . . . . . . . . . . . . . .",
" . . . . . . . . . . . . . . . . . . . . . . . .: 4 g x z z z z z z z z x g 4 :  . . . . . . . . . . . . . . . . . . . . . . . .",
" . . . . . . . . . . . . . . . . . . . . . . . .X : a g j z z z z z z j g a : X  . . . . . . . . . . . . . . . . . . . . . . . .",
" . . . . . . . . . . . . . . . . . . . . . . . . . .% 4 g x z z z x x g 4 :  . . . . . . . . . . . . . . . . . . . . . . . . . .",
" . . . . . . . . . . . . . . . . . . . . . . . . . .. : a d d d d d d a : X  . . . . . . . . . . . . . . . . . . . . . . . . . .",
" . . . . . . . . . . . . . . . . . . . . . . . . . . . .> > > > > > > :  . . . . . . . . . . . . . . . . . . . . . . . . . . . .",
" . . . . . . . . . . . . . . . . . . . . . . . . . . . .X # X # o o o o  . . . . . . . . . . . . . . . . . . . . . . . . . . . .",
" . . . . . . . . . . . . . . . . . . . . . . . . . . . . . . . . . . . . . . . . . . . . . . . . . . . . . . . . . . . . . . . .",
" . . . . . . . . . . . . . . . . . . . . . . . . . . . . . . . . . . . . . . . . . . . . . . . . . . . . . . . . . . . . . . . .",
" . . . . . . . . . . . . . . . . . . . . . . . . . . . . . . . . . . . . . . . . . . . . . . . . . . . . . . . . . . . . . . . .",
" . . . . . . . . . . . . . . . . . . . . . . . . . . . . . . . . . . . . . . . . . . . . . . . . . . . . . . . . . . . . . . . ."
};
