/* XPM */
static char *FLOOR[] = {
/* columns rows colors chars-per-pixel */
"64 64 6 1 ",
"  c gray18",
". c gray22",
"X c #4E4E4E",
"o c gray39",
"O c gray43",
"+ c gray49",
/* pixels */
"................................................................",
".OOOOOOOOOOOOOOOOOOOOOOOOOOOOOOOOOOOOOOOOOOOOOOOOOOOOOOOOOOOOOO.",
".XXXXXXXXXXXXXXXXXXXXXXXXXXXXXXXXXXXXXXXXXXXXXXXXXXXXXXXXXXXXXO.",
".XXXXXXXXXXXXXXXXXXXXXXXXXXXXXXXXXXXXXXXXXXXXXXXXXXXXXXXXXXXXXO.",
".XXXXXXXXXXXXXXXXXXXXXXXXXXXXXXXXXXXXXXXXXXXXXXXXXXXXXXXXXXXXXO.",
".XXXX XXXXXXXXXXXXXXXXXXXXXXXoXXXXXXXXXXXXXXXXXXXXXXXXXXXXXXXXO.",
".XXXX XXXXXXXXXXXXXXXXXXXXXXXoXXXXXXXXXXXXXXXXXXXXXXXXXXXXXXXXO.",
".XXXX XXXXXXXXXXXXXXXXXXXXXXXoXXXXXXXXXXXXXXXXXXXXXXXXXXXXXXXXO.",
".XXXX XXXXXXXXXXXXXXXXXXXXXXXoXXXXXXXXXXXXXXXXXXXXXXXXXXXXXXXXO.",
".XXXX XXXXXX+XXXXXXXXXXXXXXXXoXXXXXXXXXXXXXXXXXXXXXX+XXXXXXXXXO.",
".XXXX XXXXXX+XXXXXXXXXXXXXXXXoXXXXXXXXXXXXXXXXXXXXXX+XXXXXXXXXO.",
".XXXX XXXXXX+XXXXXXXXXXXXXXXXoXXXXXXXXXXXXXXXXXXXXXX+XXXXXXXXXO.",
".XXXXXXXXXXX+XXXXXXXXXXXXXXXXoXXXXXXXXXXXXXXXXXXXXXX+XXXXXXXXXO.",
".XXXXXXXXXXX+XXXXXXXXXXXXXXXXXXXXXXXXXXXXXXXXXXXXXXX+XXXXXXXXXO.",
".XXXXXXXXXXX+XXXXXXXXXXXXXXXXXXXXXXXXXXXXXXXXXXXXXXX+XXXXXXXXXO.",
".XXXXXXXXXXX+XXXXXXXXXXXXXXXXXXXXXXXXXXXXXXXXXXXXXXX+XXXXXXXXXO.",
".XXXXXXXXXXX+XXXXXXXXXXXXXXXXXXXXXXXXXXXXXXXXXXXXXXXXXXXXXXXXXO.",
".XXXXXXXXXXXXXXXXXXXXXXXXXXXXXXXXXXXXXXXXXXoXXXXXXXXXXXXXXXXXXO.",
".XXXXXXXXXXXXXXXXXXXXXXXXXXXXXXXXXXXXXXXXXXoXXXXXXXXXXXXXXXXXXO.",
".XXXXXXXXXXXXXXXXXXXXXXXXXXXXXXXXXXXXXXXXXXoXXXXXXXXXXXXXXXXXXO.",
".XXXXXXXXXXXXXXXXXXXXXXXXXXXXXXXXXXXXXXXXXXoXXXXXXXXXXXXXXXXXXO.",
".XXXXXXXXXXXXXXXXXXXXXXXXXXXXX+XXXXXXXXXXXXoXXXXXXXXXXXXXXXXXXO.",
".XXXXXXXXXXXXXXXXXXXXXXXXXXXXX+XXXXXXXXXXXXoXXXXXXXXXXXXXXXXXXO.",
".XXXXXXXXXXXXXXXXXXXXXXXXXXXXX+XXXXXXXXXXXXoXXXXXXXXXXXXXXXXXXO.",
".XXXXXXXXXXXXXXXXXXXXXXXXXXXXX+XXXXXXXXXXXXoXXXXXXXXXXXXXXXXXXO.",
".XXXXXXXXXXXXXXXXXXXXXXXXXXXXX+XXXXXXXXXXXXXXXXXXXXXXXXXXXXXXXO.",
".XXXXXXXXXXXXXXXXXXXXXXXXXXXXX+XXXXXXXXXXXXXXXXXXXXXXXXXXXXXXXO.",
".XXXXXXXXXXXXXXXXX.XXXXXXXXXXX+XXXXXXXXXXXXXXXXXXXXXXXXXXXXXXXO.",
".XXXXXXXoXXXXXXXXX.XXXXXXXXXXX+XXXXXXXXXXXXXXXXXXXXXXXoXXXXXXXO.",
".XXXXXXXoXXXXXXXXX.XXXXXXXXXXX+XXXXXXXXXXXXXXXXXXXXXXXoXXXXXXXO.",
".XXXXXXXoXXXXXXXXX.XXXXXXXXXXXXXXXXXXXXXXXXXXXXXXXXXXXoXXXXXXXO.",
".XXXXXXXoXXXXXXXXX.XXXXXXXXXXXXXXXXXXXXXXXXXXXXXXXXXXXoXXXXXXXO.",
".XXXXXXXoXXXXXXXXX.XXXXXXXXXXXXXXXXXXXX.XXXXXXXXXXXXXXoXXXXXXXO.",
".XXXXXXXoXXXXXXXXXXXXXXXXXXXXXXXXXXXXXX.XXXXXXXXXXXXXXXXXXXXXXO.",
".XXXXXXXoXXXXXXXXXXXXXXXXXXXXXXXXXXXXXX.XXXXXXXXXXXXXXXXXXXXXXO.",
".XXXXXXXoXXXXXXXXXXXXXXXXXXXXXXXXXXXXXX.XXXXXXXXXXXXXXXXXXXXXXO.",
".XXXXXXXXXXXXXXXXXXXXXXXXXXXXXXXXXXXXXX.XXXXXXXX+XXXXXXXXXXXXXO.",
".XXXXXXXXXXXXXXXXXXXXXXXXXXXXXXXXXXXXXX.XXXXXXXX+XXXXXXXXXXXXXO.",
".XXXXXXXXXXXXXXXXXXXXXXXXXXXXXXXXXXXXXX.XXXXXXXX+XXXXXXXXXXXXXO.",
".XXXXXXXXXXXXXXXXXXXXXXXXXXXXXXXXXXXXXX.XXXXXXXX+XXXXXXXXXXXXXO.",
".XXXXXXXXXXXXXXXXXXXXXXXXXXXXXXXXXXXXXXXXXXXXXXX+XXXXXXXXXXXXXO.",
".XXXXXXXXXXXXXXXXXXXXXXXXXXXXXXXXXXXXXXXXXXXXXXX+XXXXXXXXXXXXXO.",
".XXXXXXXXX+XXXXXXXXXXXXXXXXXXXXXXXXXXXXXXXXXXXXX+XXXXXXXXXXXXXO.",
".XXXXXXXXX+XXXXXXXXXXXXXXXXXXXXXXXXXXXXXXXXXXXXX+XXXXXXXXXXXXXO.",
".XXXXXXXXX+XXXXXXXXXXXXXXXXXXXXXXXXXXXXXXXXXXXXXXXXXXXXXXXXXXXO.",
".XXXXXXXXX+XXXXXXXXXXX.XXXXXXXXXXXXXXXXXXXXXXXXXXXXXXXXXXXXXXXO.",
".XXXXXXXXXXXXXXXXXXXXX.XXXXXXXXXXXXXXXXXXXXXXXXXXXXXXXXXXXXXXXO.",
".XXXXXXXXXXXXXXXXXXXXX.XXXXXXXXXXXXXXXXXXXXXXXXXXXXXXXX.XXXXXXO.",
".XXXXXXXXXXXXXXXXXXXXX.XXXXXXXXXXXXXXXXXXXXXXXXXXXXXXXX.XXXXXXO.",
".XXXXXXXXXXXXXXXXXXXXX.XXXXXXXXXXoXXXXXXXXXXXXXXXXXXXXX.XXXXXXO.",
".XXXXXXXXXXXXXXXXXXXXX.XXXXXXXXXXoXXXXXXXXXXXXXXXXXXXXX.XXXXXXO.",
".XXXXXXXXXXXXXXXXXXXXXXXXXXXXXXXXoXXXXXXXXXXXXXXXXXXXXX.XXXXXXO.",
".XXXXXXXXXXXXXXXXXXXXXXXXXXXXXXXXoXXXXXXXXXXXXXXXXXXXXX.XXXXXXO.",
".XXX XXXXXXXXXXXXXXXXXXXXXXXXXXXXoXXXXXXXXXXXXXXXXXXXXX.XXXXXXO.",
".XXX XXXXXXXXXXXXXXXXXXXXXXXXXXXXoXXXXXXXXXXXXXXXXXXXXX.XXXXXXO.",
".XXX XXXXXXXXXXXXXXXXXXXXXXXXXXXXoXXXXXXXXXXXXXXXXXXXXX.XXXXXXO.",
".XXX XXXXXXXXXXXXXXXXXXXXXXXXXXXXXXXXXXXXXXXXXXXXXXXXXXXXXXXXXO.",
".XXX XXXXXXXXXXXXXXXXXXXXXXXXXXXXXXXXXXXXXXXXXXXXXXXXXXXXXXXXXO.",
".XXX XXXXXXXXXXXXXXXXXXXXXXXXXXXXXXXXXXXXXXXXXXXXXXXXXXXXXXXXXO.",
".XXX XXXXXXXXXXXXXXXXXXXXXXXXXXXXXXXXXXXXXXXXXXXXXXXXXXXXXXXXXO.",
".XXX XXXXXXXXXXXXXXXXXXXXXXXXXXXXXXXXXXXXXXXXXXXXXXXXXXXXXXXXXO.",
".XXXXXXXXXXXXXXXXXXXXXXXXXXXXXXXXXXXXXXXXXXXXXXXXXXXXXXXXXXXXXO.",
".XXXXXXXXXXXXXXXXXXXXXXXXXXXXXXXXXXXXXXXXXXXXXXXXXXXXXXXXXXXXXO.",
"................................................................"
};
