/* XPM */
static char *PC_LEFT[] = {
/* columns rows colors chars-per-pixel */
"64 64 9 1 ",
"  c gray7",
". c #24221F",
"X c gray19",
"o c gray24",
"O c gray49",
"+ c gray61",
"@ c gray63",
"# c gray74",
"$ c gray87",
/* pixels */
"OOOOOOOOOOOOOOOOOOOOOOOOOOOOOOOOOOOOOOOOOOOOOOOOOOOOOOOOOOOOOOOO",
"O$$$$$$$$$$$$$$$$$$$$$$$$$$$$$$$$$$$$$$$$$$$$$$$$$$$$$$$$$$$$$$O",
"O$$$$$$$$$$$$$$$$$$$$$$$$$$$$$$$$$$$$$$$$$$$$$$$$$$$$$$$$$$$$$$O",
"O$$$$$$$$$$$$$$$$$$$$$$$$$$$$$$$$$$$$$$$$$$$$$$$$$$$$$$$$$$$$$$O",
"O$$$$$$$$$$$$$$$$$$$$$$$$$$$$$$$$$$$$$$$$$$$$$$$$$$$$$$$$$$$$$$O",
"O$$$$$$$$$$$$$$$$$$$$$$$$$$$$$$$$$$$$$$$$$$$$$$$$$$$$$$$$$$$$$$O",
"O$$$$$$$$$$$$$$$$$$$$$$$$$$$$$$$$$$$$$$$$$$$$$$$$$$$$$$$$$$$$$$O",
"O$$$$$$$$$$$$$$$$$$$$$$$$$$$$$$$$$$$$$$$$$$$$$$$$$$$$$$$$$$$$$$O",
"O$$$$$$$$$$$$$$$$$$$$$$$$$$$$$$$$$$$$$$$$$$$$$$$$$$$$$$$$$$$$$$O",
"O$$$$$$$$$$$$$$$$$$$$$$$$$$$$$$$$$$$$$$$$$$$$$$$$$$$$$$$$$$$$$$O",
"O$$$$$$$  $$$$$$$$$$$$$$$$$$$$$$$$$$$$$$$$$$$$$$$$$$$$$$$$$$$$$O",
"O$$$$$$$    $$$$$$$$$$$$$$$$$$$$$$$$$$$$$$$$$$$$$$$$$$$$$$$$$$$O",
"O$$$$$$$     $$$$$$$$$$$                     $$$$$$$$$$$$$$$$$$O",
"O$$$$$$$  X X $$$$$$$$$ +++ ................. $$$$$$$$$$$$$$$$$O",
"O$$$$$$$      $$$$$$$$$ +++ ................. $$$$$$$$$$$$$$$$$O",
"O$$$$$$$   X  $$$$$$$$$ +++ ................o $$$$$$$$$$$$$$$$$O",
"O$$$$$$$  X   $$$$$$$$$ +++ ................o $$$$$$$$$$$$$$$$$O",
"O$$$$$$$    X $$$$$$$$$ +++ ...o.o..........o $$$$$$$$$$$$$$$$$O",
"O$$$$$$$   X  $$$$$$$$$ +++ ..ooo...........o $$$$$$$$$$$$$$$$$O",
"O$$$$$$$  X   $$$$$$$$$ +++ .o.o............o $$$$$$$$$$$$$$$$$O",
"O$$$$$$$    X $$$$$$$$$ +++ ................o $$$$$$$$$$$$$$$$$O",
"O$$$$$$$   X  $$  $$$$$ +++ ................o $$$$$$$$$$$$$$$$$O",
"O$$$$$$$  X   $ ++ $$$$ +++ ................o $$$$$$$$$$$$$$$$$O",
"O$$$$$$$    X $ ++ $$$$ +++ ................o $$$$$$$$$$$$$$$$$O",
"O$$$$$$$   X  $ ++ $$$$ +++ ................o $$$$$$$$$$$$$$$$$O",
"O$$$$$$$  X   $ ++ $$$$ +++ ................o $$$$$$$$$$$$$$$$$O",
"O$$$$$$$    X $ +++ $$$ +++ ................o $$$$$$$$$$$$$$$$$O",
"O$$$$$$$   X  $ ++++    +++ ................o $$$$$$$$$$$$$$$$$O",
"O$$$$$$$  X   $ ++++@@@ +++ ................o $$$$$$$$$$$$$$$$$O",
"O$$$$$$$    X $ +++++++ +++ ............o...o $$$$$$$$$$$$$$$$$O",
"O$$$$$$$   X  $ +++++++ +++ ........o..oo...o $$$$$$$$$$$$$$$$$O",
"O$$$$$$$  X   $ +++++++ + + .......o..o.....o $$$$$$$$$$$$$$$$$O",
"O$$$$$$$    X $ +++++++ +++ ......o.......... $$$$$$$$$$$$$$$$$O",
"O$$$$$$$   X  $ +++++++ +++ ................. $$$$$$$$$$$$$$$$$O",
"O$$$$$$$  X   $ ++++### +++ ................. $$$$$$$$$$$$$$$$$O",
"O$$$$$$$    X $ +++#    +++ ................o $$$$$$$$$$$$$$$$$O",
"O$$$$$$$   X  $ ++# $$$ +++ ................o $$$$$$$$$$$$$$$$$O",
"O$$$$$$$  X   $ +# $$$$ +++ ................o $$$$$$$$$$$$$$$$$O",
"O$$$$$$$    X $ +# $$$$ +++ ................o $$$$$$$$$$$$$$$$$O",
"O$$$$$$$   X  $ +# $$$$ +++ ................o $$$$$$$$$$$$$$$$$O",
"O$$$$$$$  X   $ ## $$$$ +++ ............o.... $$$$$$$$$$$$$$$$$O",
"O$$$$$$$    X $$  $$$$  +++ ..........oo..... $$$$$$$$$$$$$$$$$O",
"O$$$$$$$   X   $$$$$  $ +++ .........oo...... $$$$$$$$$$$$$$$$$O",
"O$$$$$$$      $ $$$ $$$ +++ ........o.......o $$$$$$$$$$$$$$$$$O",
"O$$$$$$$$   X $$   $$$$ +++ ................o $$$$$$$$$$$$$$$$$O",
"O$$$$$$$$$    $$$$$$$$$ +++ ................o $$$$$$$$$$$$$$$$$O",
"O$$$$$$$$$$$  $$$$$$$$$ +++ ................o $$$$$$$$$$$$$$$$$O",
"O$$$$$$$$$$$$$$$$$$$$$$ +++ ................o $$$$$$$$$$$$$$$$$O",
"O$$$$$$$$$$$$$$$$$$$$$$ +++ ................. $$$$$$$$$$$$$$$$$O",
"O$$$$$$$$$$$$$$$$$$$$$$ ### ................. $$$$$$$$$$$$$$$$$O",
"O$$$$$$$$$$$$$$$$$$$$$$$                     $$$$$$$$$$$$$$$$$$O",
"O$$$$$$$$$$$$$$$$$$$$$$$$$$$$$$$$$$$$$$$$$$$$$$$$$$$$$$$$$$$$$$O",
"O$$$$$$$$$$$$$$$$$$$$$$$$$$$$$$$$$$$$$$$$$$$$$$$$$$$$$$$$$$$$$$O",
"O$$$$$$$$$$$$$$$$$$$$$$$$$$$$$$$$$$$$$$$$$$$$$$$$$$$$$$$$$$$$$$O",
"O$$$$$$$$$$$$$$$$$$$$$$$$$$$$$$$$$$$$$$$$$$$$$$$$$$$$$$$$$$$$$$O",
"O$$$$$$$$$$$$$$$$$$$$$$$$$$$$$$$$$$$$$$$$$$$$$$$$$$$$$$$$$$$$$$O",
"O$$$$$$$$$$$$$$$$$$$$$$$$$$$$$$$$$$$$$$$$$$$$$$$$$$$$$$$$$$$$$$O",
"O$$$$$$$$$$$$$$$$$$$$$$$$$$$$$$$$$$$$$$$$$$$$$$$$$$$$$$$$$$$$$$O",
"O$$$$$$$$$$$$$$$$$$$$$$$$$$$$$$$$$$$$$$$$$$$$$$$$$$$$$$$$$$$$$$O",
"O$$$$$$$$$$$$$$$$$$$$$$$$$$$$$$$$$$$$$$$$$$$$$$$$$$$$$$$$$$$$$$O",
"O$$$$$$$$$$$$$$$$$$$$$$$$$$$$$$$$$$$$$$$$$$$$$$$$$$$$$$$$$$$$$$O",
"O$$$$$$$$$$$$$$$$$$$$$$$$$$$$$$$$$$$$$$$$$$$$$$$$$$$$$$$$$$$$$$O",
"O$$$$$$$$$$$$$$$$$$$$$$$$$$$$$$$$$$$$$$$$$$$$$$$$$$$$$$$$$$$$$$O",
"OOOOOOOOOOOOOOOOOOOOOOOOOOOOOOOOOOOOOOOOOOOOOOOOOOOOOOOOOOOOOOOO"
};
