/* XPM */
static char *PC_RIGTH[] = {
/* columns rows colors chars-per-pixel */
"64 64 9 1 ",
"  c gray7",
". c #24221F",
"X c gray19",
"o c gray24",
"O c gray49",
"+ c gray61",
"@ c gray63",
"# c gray74",
"$ c gray87",
/* pixels */
"OOOOOOOOOOOOOOOOOOOOOOOOOOOOOOOOOOOOOOOOOOOOOOOOOOOOOOOOOOOOOOOO",
"O$$$$$$$$$$$$$$$$$$$$$$$$$$$$$$$$$$$$$$$$$$$$$$$$$$$$$$$$$$$$$$O",
"O$$$$$$$$$$$$$$$$$$$$$$$$$$$$$$$$$$$$$$$$$$$$$$$$$$$$$$$$$$$$$$O",
"O$$$$$$$$$$$$$$$$$$$$$$$$$$$$$$$$$$$$$$$$$$$$$$$$$$$$$$$$$$$$$$O",
"O$$$$$$$$$$$$$$$$$$$$$$$$$$$$$$$$$$$$$$$$$$$$$$$$$$$$$$$$$$$$$$O",
"O$$$$$$$$$$$$$$$$$$$$$$$$$$$$$$$$$$$$$$$$$$$$$$$$$$$$$$$$$$$$$$O",
"O$$$$$$$$$$$$$$$$$$$$$$$$$$$$$$$$$$$$$$$$$$$$$$$$$$$$$$$$$$$$$$O",
"O$$$$$$$$$$$$$$$$$$$$$$$$$$$$$$$$$$$$$$$$$$$$$$$$$$$$$$$$$$$$$$O",
"O$$$$$$$$$$$$$$$$$$$$$$$$$$$$$$$$$$$$$$$$$$$$$$$$$$$$$$$$$$$$$$O",
"O$$$$$$$$$$$$$$$$$$$$$$$$$$$$$$$$$$$$$$$$$$$$$$$$$$$$$$$$$$$$$$O",
"O$$$$$$$$$$$$$$$$$$$$$$$$$$$$$$$$$$$$$$$$$$$$$$$$$$$$$$$$$$$$$$O",
"O$$$$$$$$$$$$$$$$$$$$$$$$$$$$$$$$$$$$$$$$$$$$$$$$$$$$$$$$$$$$$$O",
"O$$$$$$$$$$$$$$$$$$$$$$$$$$$$$$$$$$$$$$$$$$$$$$$$$$$$$$$$$$$$$$O",
"O$$$$$$$$$$$$$$$$$$                     $$$$$$$$$$$$$$$$$$$$$$$O",
"O$$$$$$$$$$$$$$$$$ ................. ### $$$$$$$$$$$$$$$$$$$$$$O",
"O$$$$$$$$$$$$$$$$$ ................. +++ $$$$$$$$$$$$$$$$$$$$$$O",
"O$$$$$$$$$$$$$$$$$ o................ +++ $$$$$$$$$$$$$$$$$$$$$$O",
"O$$$$$$$$$$$$$$$$$ o................ +++ $$$$$$$$$  $$$$$$$$$$$O",
"O$$$$$$$$$$$$$$$$$ o................ +++ $$$$$$$$$    $$$$$$$$$O",
"O$$$$$$$$$$$$$$$$$ o................ +++ $$$$   $$ X   $$$$$$$$O",
"O$$$$$$$$$$$$$$$$$ o.......o........ +++ $$$ $$$ $      $$$$$$$O",
"O$$$$$$$$$$$$$$$$$ ......oo......... +++ $  $$$$$   X   $$$$$$$O",
"O$$$$$$$$$$$$$$$$$ .....oo.......... +++  $$$$  $$ X    $$$$$$$O",
"O$$$$$$$$$$$$$$$$$ ....o............ +++ $$$$ ## $   X  $$$$$$$O",
"O$$$$$$$$$$$$$$$$$ o................ +++ $$$$ #+ $  X   $$$$$$$O",
"O$$$$$$$$$$$$$$$$$ o................ +++ $$$$ #+ $ X    $$$$$$$O",
"O$$$$$$$$$$$$$$$$$ o................ +++ $$$$ #+ $   X  $$$$$$$O",
"O$$$$$$$$$$$$$$$$$ o................ +++ $$$ #++ $  X   $$$$$$$O",
"O$$$$$$$$$$$$$$$$$ o................ +++    #+++ $ X    $$$$$$$O",
"O$$$$$$$$$$$$$$$$$ ................. +++ ###++++ $   X  $$$$$$$O",
"O$$$$$$$$$$$$$$$$$ ................. +++ +++++++ $  X   $$$$$$$O",
"O$$$$$$$$$$$$$$$$$ ..........o...... +++ +++++++ $ X    $$$$$$$O",
"O$$$$$$$$$$$$$$$$$ o.....o..o....... + + +++++++ $   X  $$$$$$$O",
"O$$$$$$$$$$$$$$$$$ o...oo..o........ +++ +++++++ $  X   $$$$$$$O",
"O$$$$$$$$$$$$$$$$$ o...o............ +++ +++++++ $ X    $$$$$$$O",
"O$$$$$$$$$$$$$$$$$ o................ +++ @@@++++ $   X  $$$$$$$O",
"O$$$$$$$$$$$$$$$$$ o................ +++    ++++ $  X   $$$$$$$O",
"O$$$$$$$$$$$$$$$$$ o................ +++ $$$ +++ $ X    $$$$$$$O",
"O$$$$$$$$$$$$$$$$$ o................ +++ $$$$ ++ $   X  $$$$$$$O",
"O$$$$$$$$$$$$$$$$$ o................ +++ $$$$ ++ $  X   $$$$$$$O",
"O$$$$$$$$$$$$$$$$$ o................ +++ $$$$ ++ $ X    $$$$$$$O",
"O$$$$$$$$$$$$$$$$$ o................ +++ $$$$ ++ $   X  $$$$$$$O",
"O$$$$$$$$$$$$$$$$$ o................ +++ $$$$$  $$  X   $$$$$$$O",
"O$$$$$$$$$$$$$$$$$ o................ +++ $$$$$$$$$ X    $$$$$$$O",
"O$$$$$$$$$$$$$$$$$ o............o.o. +++ $$$$$$$$$   X  $$$$$$$O",
"O$$$$$$$$$$$$$$$$$ o...........ooo.. +++ $$$$$$$$$  X   $$$$$$$O",
"O$$$$$$$$$$$$$$$$$ o..........o.o... +++ $$$$$$$$$ X    $$$$$$$O",
"O$$$$$$$$$$$$$$$$$ o................ +++ $$$$$$$$$   X  $$$$$$$O",
"O$$$$$$$$$$$$$$$$$ o................ +++ $$$$$$$$$  X   $$$$$$$O",
"O$$$$$$$$$$$$$$$$$ ................. +++ $$$$$$$$$      $$$$$$$O",
"O$$$$$$$$$$$$$$$$$ ................. +++ $$$$$$$$$ X X  $$$$$$$O",
"O$$$$$$$$$$$$$$$$$$                     $$$$$$$$$$$     $$$$$$$O",
"O$$$$$$$$$$$$$$$$$$$$$$$$$$$$$$$$$$$$$$$$$$$$$$$$$$$    $$$$$$$O",
"O$$$$$$$$$$$$$$$$$$$$$$$$$$$$$$$$$$$$$$$$$$$$$$$$$$$$$  $$$$$$$O",
"O$$$$$$$$$$$$$$$$$$$$$$$$$$$$$$$$$$$$$$$$$$$$$$$$$$$$$$$$$$$$$$O",
"O$$$$$$$$$$$$$$$$$$$$$$$$$$$$$$$$$$$$$$$$$$$$$$$$$$$$$$$$$$$$$$O",
"O$$$$$$$$$$$$$$$$$$$$$$$$$$$$$$$$$$$$$$$$$$$$$$$$$$$$$$$$$$$$$$O",
"O$$$$$$$$$$$$$$$$$$$$$$$$$$$$$$$$$$$$$$$$$$$$$$$$$$$$$$$$$$$$$$O",
"O$$$$$$$$$$$$$$$$$$$$$$$$$$$$$$$$$$$$$$$$$$$$$$$$$$$$$$$$$$$$$$O",
"O$$$$$$$$$$$$$$$$$$$$$$$$$$$$$$$$$$$$$$$$$$$$$$$$$$$$$$$$$$$$$$O",
"O$$$$$$$$$$$$$$$$$$$$$$$$$$$$$$$$$$$$$$$$$$$$$$$$$$$$$$$$$$$$$$O",
"O$$$$$$$$$$$$$$$$$$$$$$$$$$$$$$$$$$$$$$$$$$$$$$$$$$$$$$$$$$$$$$O",
"O$$$$$$$$$$$$$$$$$$$$$$$$$$$$$$$$$$$$$$$$$$$$$$$$$$$$$$$$$$$$$$O",
"OOOOOOOOOOOOOOOOOOOOOOOOOOOOOOOOOOOOOOOOOOOOOOOOOOOOOOOOOOOOOOOO"
};
