/* XPM */
static char *PC_UP[] = {
/* columns rows colors chars-per-pixel */
"64 64 9 1 ",
"  c gray7",
". c #24221F",
"X c gray19",
"o c gray24",
"O c gray49",
"+ c gray61",
"@ c gray63",
"# c gray74",
"$ c gray87",
/* pixels */
"OOOOOOOOOOOOOOOOOOOOOOOOOOOOOOOOOOOOOOOOOOOOOOOOOOOOOOOOOOOOOOOO",
"O$$$$$$$$$$$$$$$$$$$$$$$$$$$$$$$$$$$$$$$$$$$$$$$$$$$$$$$$$$$$$$O",
"O$$$$$$$$$$$$$$$$$$$$$$$$$$$$$$$$$$$$$$$$$$$$$$$$$$$$$$$$$$$$$$O",
"O$$$$$$$$$$$$$$$$$$$$$$$$$$$$$$$$$$$$$$$$$$$$$$$$$$$$$$$$$$$$$$O",
"O$$$$$$$$$$$$$$$$$$$$$$$$$$$$$$$$$$$$$$$$$$$$$$$$$$$$$$$$$$$$$$O",
"O$$$$$$$$$$$$$$$$$$$$$$$$$$$$$$$$$$$$$$$$$$$$$$$$$$$$$$$$$$$$$$O",
"O$$$$$$$$$$$$$$$$$$$$$$$$$$$$$$$$$$$$$$$$$$$$$$$$$$$$$$$$$$$$$$O",
"O$$$$$$$$$$$$$$$$$$$$$$$$$$$$$$$$$$$$$$$$$$$$$$$$$$$$$$$$$$$$$$O",
"O$$$$$$$$$$$$$$$$$$$                                  $$$$$$$$$O",
"O$$$$$$$$$$$$$$$$$$                                   $$$$$$$$$O",
"O$$$$$$$$$$$$$$$$$     X  X  X  X  X  X  X  X  X  X  $$$$$$$$$$O",
"O$$$$$$$$$$$$$$$$$   X  X  X  X  X  X  X  X  X  X    $$$$$$$$$$O",
"O$$$$$$$$$$$$$$$$  X  X  X  X  X  X  X  X  X  X   X $$$$$$$$$$$O",
"O$$$$$$$$$$$$$$$$                                  $$$$$$$$$$$$O",
"O$$$$$$$$$$$$$$$$$$$$ $$$$$$$$$$$$$$$$$$$$$$$$$$$$$$$$$$$$$$$$$O",
"O$$$$$$$$$$$$$$$$$$$ $$                   $$$$$$$$$$$$$$$$$$$$$O",
"O$$$$$$$$$$$$$$$$$$ $$ #++++++++++++++++++ $$$$$$$$$$$$$$$$$$$$O",
"O$$$$$$$$$$$$$$$$$$ $$ ####+++++++++++++++ $$$$$$$$$$$$$$$$$$$$O",
"O$$$$$$$$$$$$$$$$$$ $$$    #++++++++++    $$$$$$$$$$$$$$$$$$$$$O",
"O$$$$$$$$$$$$$$$$$$$ $$$$$$ #++++++++ $$$$$$$$$$$$$$$$$$$$$$$$$O",
"O$$$$$$$$$$$$$$$$$$$$ $$$$$$ #+++++@ $$$$$$$$$$$$$$$$$$$$$$$$$$O",
"O$$$$$$$$$$$$$$$$$$$$ $$$$$$ #+++++@ $$$$$$$$$$$$$$$$$$$$$$$$$$O",
"O$$$$$$$$$$$$$$$$$$$$$ $$$$$ #+++++@ $$$$$$$$$$$$$$$$$$$$$$$$$$O",
"O$$$$$$$$$$$$$                                     $$$$$$$$$$$$O",
"O$$$$$$$$$$$$ #++++++++++++++++++++++++++++++++++++ $$$$$$$$$$$O",
"O$$$$$$$$$$$$ #+++++++++++++++++ ++++++++++++++++++ $$$$$$$$$$$O",
"O$$$$$$$$$$$$ #++++++++++++++++++++++++++++++++++++ $$$$$$$$$$$O",
"O$$$$$$$$$$$$                                       $$$$$$$$$$$O",
"O$$$$$$$$$$$$ ..................................... $$$$$$$$$$$O",
"O$$$$$$$$$$$$ ..............................o...... $$$$$$$$$$$O",
"O$$$$$$$$$$$$ ...............................o..... $$$$$$$$$$$O",
"O$$$$$$$$$$$$ ..............................ooo.... $$$$$$$$$$$O",
"O$$$$$$$$$$$$ ...............................o..... $$$$$$$$$$$O",
"O$$$$$$$$$$$$ ................................o.... $$$$$$$$$$$O",
"O$$$$$$$$$$$$ .................o................... $$$$$$$$$$$O",
"O$$$$$$$$$$$$ ..................o.................. $$$$$$$$$$$O",
"O$$$$$$$$$$$$ ......o............o................. $$$$$$$$$$$O",
"O$$$$$$$$$$$$ .......o............................. $$$$$$$$$$$O",
"O$$$$$$$$$$$$ .......oo.........o.................. $$$$$$$$$$$O",
"O$$$$$$$$$$$$ ........o..........o................. $$$$$$$$$$$O",
"O$$$$$$$$$$$$ .........o.........oo................ $$$$$$$$$$$O",
"O$$$$$$$$$$$$ ..................................... $$$$$$$$$$$O",
"O$$$$$$$$$$$$ ..................................... $$$$$$$$$$$O",
"O$$$$$$$$$$$$ ..................................... $$$$$$$$$$$O",
"O$$$$$$$$$$$$ ..ooooo...ooooo...ooooooooooooooooo.. $$$$$$$$$$$O",
"O$$$$$$$$$$$$$                                     $$$$$$$$$$$$O",
"O$$$$$$$$$$$$$$$$$$$$$$$$$$$$$$$$$$$$$$$$$$$$$$$$$$$$$$$$$$$$$$O",
"O$$$$$$$$$$$$$$$$$$$$$$$$$$$$$$$$$$$$$$$$$$$$$$$$$$$$$$$$$$$$$$O",
"O$$$$$$$$$$$$$$$$$$$$$$$$$$$$$$$$$$$$$$$$$$$$$$$$$$$$$$$$$$$$$$O",
"O$$$$$$$$$$$$$$$$$$$$$$$$$$$$$$$$$$$$$$$$$$$$$$$$$$$$$$$$$$$$$$O",
"O$$$$$$$$$$$$$$$$$$$$$$$$$$$$$$$$$$$$$$$$$$$$$$$$$$$$$$$$$$$$$$O",
"O$$$$$$$$$$$$$$$$$$$$$$$$$$$$$$$$$$$$$$$$$$$$$$$$$$$$$$$$$$$$$$O",
"O$$$$$$$$$$$$$$$$$$$$$$$$$$$$$$$$$$$$$$$$$$$$$$$$$$$$$$$$$$$$$$O",
"O$$$$$$$$$$$$$$$$$$$$$$$$$$$$$$$$$$$$$$$$$$$$$$$$$$$$$$$$$$$$$$O",
"O$$$$$$$$$$$$$$$$$$$$$$$$$$$$$$$$$$$$$$$$$$$$$$$$$$$$$$$$$$$$$$O",
"O$$$$$$$$$$$$$$$$$$$$$$$$$$$$$$$$$$$$$$$$$$$$$$$$$$$$$$$$$$$$$$O",
"O$$$$$$$$$$$$$$$$$$$$$$$$$$$$$$$$$$$$$$$$$$$$$$$$$$$$$$$$$$$$$$O",
"O$$$$$$$$$$$$$$$$$$$$$$$$$$$$$$$$$$$$$$$$$$$$$$$$$$$$$$$$$$$$$$O",
"O$$$$$$$$$$$$$$$$$$$$$$$$$$$$$$$$$$$$$$$$$$$$$$$$$$$$$$$$$$$$$$O",
"O$$$$$$$$$$$$$$$$$$$$$$$$$$$$$$$$$$$$$$$$$$$$$$$$$$$$$$$$$$$$$$O",
"O$$$$$$$$$$$$$$$$$$$$$$$$$$$$$$$$$$$$$$$$$$$$$$$$$$$$$$$$$$$$$$O",
"O$$$$$$$$$$$$$$$$$$$$$$$$$$$$$$$$$$$$$$$$$$$$$$$$$$$$$$$$$$$$$$O",
"O$$$$$$$$$$$$$$$$$$$$$$$$$$$$$$$$$$$$$$$$$$$$$$$$$$$$$$$$$$$$$$O",
"OOOOOOOOOOOOOOOOOOOOOOOOOOOOOOOOOOOOOOOOOOOOOOOOOOOOOOOOOOOOOOOO"
};
