/* XPM */
static char *STAIRS2[] = {
/* columns rows colors chars-per-pixel */
"64 64 7 1 ",
"  c black",
". c gray22",
"X c #504D2E",
"o c #59574E",
"O c #626262",
"+ c #827E63",
"@ c gray74",
/* pixels */
"@@@@@@@@@@@@@@@@@@@@@@@@@@@@@@@@@@@@@@@@@@@@@@@@@@@@@@@@@@@@@@@@",
"@..............................................................@",
"@..............................................................@",
"@..............................................................@",
"@..............................................................@",
"@..............................................................@",
"@..............................................................@",
"@..............................................................@",
"@..............................................................@",
"@..............................................................@",
"@..............................................................@",
"@..............................................................@",
"@...........................................O..........oooooooo.",
"@............................O.........................XXXXXXXX.",
"@......................................................XXXXXXXX.",
"@......................................................XXXXXXXX.",
"@......................................................XX+XXXXX.",
"@......................................................XX++XXXX.",
"@......................................................XXXXXXXX.",
"@...........................................ooooooooo..XXXXXX+X.",
"@..............O............................XXXXXXXXX..XXXXX++X.",
"@...........................................XXXX+XXXX..XXXX++XX.",
"@...........................................XXX++XXXX..XXXX+XXX.",
"@...........................................XXX+XXXXX..XXXXXXXX.",
"@...............O...........................XXXXXXXXX..XXXXXXXX.",
"@...........................................XXXXXXXXX..X+XXXXXX.",
"@.................................oooooooo..XXXXXXXXX..X++XXXXX.",
"@.................................XXXXXXXX..XX+XXXXXX..X++XXXXX.",
"@.................................XXXXXXXX..X++XX++XX..XXXXXXXX.",
"@.................................XXXXXXXX..XXXXX++XX..XXXXXXXX.",
"@.................................XXXXXXXX..XXXX++XXX..XXXXX+XX.",
"@.................................XXXXXXX+..XXXXXXXXX..XXXX++XX.",
"@.................................XXXXX+++..XXXXXXXXX..XXXX+XXX.",
"@......................ooooooooo..XXXXX+++..XXXXXXXXX..XXXX+XXX.",
"@......................XXXXXXXXX..XXXXXXXX..XX+XXXXXX..XXXXXXXX.",
"@......................XXXXXX+XX..XXX+XXXX..XXXXXXX++..XXXXXXXX.",
"@......................XXXXXXXXX..XX++XXXX..XXXXXXX+X..XXXXXXXX.",
"@......................XXXXXXXXX..XX++XXXX..XXXXXXXXX..XXX+XXXX.",
"@......................XXX+XXXXX..XXXXXXXX..XXXXXXXXX..XXX+XXXX.",
"@......................XX++XXXXX..XXXXXXXX..XXXXXXXXX..XX+XXXXX.",
".......................XX++XXXX+..XXXXXXXX..XXXX++XXX..XX+XXXXX.",
".                    ..XXXXXXX++..XXXX+XXX..XXX++XXXX..XXXXXX+X.",
".                    ..XXXXXXX++..XXX+++XX..XXX++XXXX..XXXXXX+X.",
".                    ..XXXXXXXXX..XXX+XXXX..XXXXXXXXX..XXXXX++X.",
".               .    ..XXXXXXXXX..XXXXXXXX..XXXXXXXXX..XXXXX+XX.",
".               .    ..XXXXXXXXX..XXXXXXXX..XXXXXXXXX..XXXXXXXX.",
".   O           .    ..XXXXXXXXX..XXXXXXXX..XXXXXXXXX..XXXXXXXX.",
".   O           .    ..XXXX++XXX..XXXX+++X..XXXXXXXXX..XXXXXXXX.",
".   O           .    ..XXX+++XXX..XXXXX++X..XXXXXXXXX..XXXXXXXX.",
".   O                ..XXX++XXXX..XXXXXXXX..XXXXXXXXX..XXXX+XXX.",
".        .           ..XXXXXXXXX..XXXXXXXX..XXXXXXXXX..XXX++XXX.",
".        .           ..XXXXXXXXX..XXX+XXXX..XXXX+XXXX..XXX++XXX.",
".        .           ..XXXXXXXXX..XX++XXXX..XXX+++XXX..XXXX+XXX.",
".        .           ..XXXXXXX++..XX++XXXX..XXXX++XXX..XXXXXXXX.",
".        .           ..XXXXXXX++..XXXXXX+X..XXXX+XXXX..XXXXXXXX.",
".        .           ..XXXXXX+++..XXXXXX++..XXXXXXXXX..XXXXXXXX.",
".        .       O   ..XXXXXXX+X..XXXXX++X..XXXXXXXXX..XX+XXXXX.",
".        .       O   ..XX+XXXXXX..XXXXX++X..XXXXXX++X..XX+XXX+X.",
".                O   ..X++XXXXXX..XXXXXXXX..XXXXXX+XX..XX+XX++X.",
".                O   ..XXXXXXXXX..XXXXXXXX..XXXXX++XX..XXXXX+XX.",
".                O   ..XXXXXXXXX..XXXXXXXX..XXXXXXXXX..XXXXXXXX.",
".                    ..XXXXXXXXX..XXXXXXXX..XXXXXXXXX..XXXXXXXX.",
".                    ..XXXXXXXXX..XXXXXXXX..XXXXXXXXX..XXXXXXXX.",
"................................................................"
};
