/* XPM */
static char *STAIRS[] = {
/* columns rows colors chars-per-pixel */
"64 64 11 1 ",
"  c gray22",
". c #4E4E4E",
"X c #626262",
"o c #898779",
"O c #8D8D8D",
"+ c #ADAA93",
"@ c #A5A5A5",
"# c gray74",
"$ c #CBC7AC",
"% c #CBCBCB",
"& c gray90",
/* pixels */
"################################################################",
"#&&&&&&&&&&&&&&&&&&&&&&&&&&&&&&&&&&&&&&&&&&&&&&&&&&&&&&&&&&&&&&#",
"#&&&&&&&&&&&&&&&&&&&&&&&&&&&&&&&&&&&&&&&&&&&&O&&&&&&&&&&&&&&&&&#",
"#&&&&&&&O&&&&&&O&&&&&&&&&&&O&&&&&&&&&&&&&&&&&&&&&&&&&&&&&&&&&&&#",
"#&&&&&&&&&&&&&&&&&&&&&&&&&&&&&&&&&&&&&&&&&&&&&&&&&&&&&&&&&&&&&&#",
"#&&&&&&&&&&&&&&&&&&&&&&&&&&&&&&&&&&&&&&&&&&&&&&&&&&&&&&&&&O&&&&#",
"#&&&&&&&&&&&&&&&&&&&&&&&&&&&&&O&&&&&&&&&&&&&&&&&&&&&&&&&&&&&&&&#",
"#&&&&&&&&&&&&&&&&&&&&&&&&&&&&&&&&&&&&&&&&&&&&&&&&&&&&&&&&&&&&&&#",
"#&&&&&&&&&&&&&&&&&&&&&&&&&&&&&&&&&&&&&&&&&&&&&&&&&&&&&&&&&&&&&&#",
"#&&&&&&&&&&@&&&&&&&&&&&&&&&&&&&&&&&&&&&&&&&&&&&&&&&&&&&&&&&&&&&#",
"#&&&&&&&&&&&&&&&&&&&&&&&&&&&&&&&&&&&&&&&&&&&&&&&&&&&&&&&&&&&&&&#",
"#&&&&&&&&&&&&&&&&&&&O&&&&&&&&&&&&&&&O&&&&&&&&&&&&&&&&&&&&&&&&&&#",
"#&&&&&&&&&&&&&&&&&&&&&&&&&&&&&&&&&&&&&&&&&&&%&&&&&&&&  oooooooo ",
"#&&&&&&&&&&&&&&&&&&&&&&&&&&&&%&&&&&&&&&&&&&&&&&&&&&&&  $$$$$$$$ ",
"#&&&&&&&&&&&&&&&&&&&&&&&&&&&&&&&&&&&&&&&&&&&&&&&&&&&&  $$$$$$$$ ",
"#&&&&&&&&&&&&&&&&&&&&&&&&&&&&&&&&&&&&&&&&&&&&&&&&&&&&  $$$$$$$$ ",
"#&&&&&&&&&&&&&&&&&&&&&&&&&&&&&&&&&&&&&&&&&&&&&&&&&&&&  $$+$$$$$ ",
"#&&&&&&&&&&&&&&&&O&&&&&&&&&&&&&&&&&&&&&&&&&&&&&&&&&&&  $$++$$$$ ",
"#&&&&&&&O&&&&&&&&&&&&&&&&&&&&&&&&&&&&&&&&&&&&&&&&&&&&  $$$$$$$$ ",
"#&&&&&&&&&&&&&&&&&&&&&&&&&&&&&&&&&&&&&&&&&  ooooooooo  $$$$$$+$ ",
"#&&&&&&&&&&&&&&&&&&&&&&&&&&&&&&&&&&&&&O&&&  $$$$$$$$$  $$$$$++$ ",
"#&&&&&&&&&&&&&&&&&&&&&&&&&&&&&&&&&&&&&&&&&  $$$$+$$$$  $$$$++$$ ",
"#&&&&&&&&&&&&&&&&&&&&&&&&O&&&&&&&&&&&&&&&&  $$$++$$$$  $$$$+$$$ ",
"#&&&&&&&&&&&&&&&&&&&&&&&&&&&&&&&&&&&&&&&&&  $$$+$$$$$  $$$$$$$$ ",
"#&&&&&&&&&&&&&&&%&&&&&&&&&&&&&&&&&&&&&&&&&  $$$$$$$$$  $$$$$$$$ ",
"#&&&&&&&&&&&&&&&&&&&&&&&&&&&&&&&&&&&&&&&&&  $$$$$$$$$  $+$$$$$$ ",
"#&&&&&&@&&&&&&&&&&&&&&&&&&&&&&&&  oooooooo  $$$$$$$$$  $++$$$$$ ",
"#&&&&&&&&&&&&&&&&&&&&&&&&&&@&&&&  $$$$$$$$  $$+$$$$$$  $++$$$$$ ",
"#&&&&&&&&&&&&&&&&&&&&&&&&&&&&&&&  $$$$$$$$  $++$$++$$  $$$$$$$$ ",
"#&&&&&&&&&&&&&&&&&&&&&&&&&&&&&&&  $$$$$$$$  $$$$$++$$  $$$$$$$$ ",
"#&&&&&&&&&&&&&&&&&&&&&&&&&&&&&&&  $$$$$$$$  $$$$++$$$  $$$$$+$$ ",
"#&&&&&&&&&&&&&&&&&&&&&&&&&&&&&&&  $$$$$$$+  $$$$$$$$$  $$$$++$$ ",
"#&&&&&&&O&&&&&&&&&&&&&&&&&&&&&&&  $$$$$+++  $$$$$$$$$  $$$$+$$$ ",
"#&&&&&&&&&&&&&&O&&&&&  ooooooooo  $$$$$+++  $$$$$$$$$  $$$$+$$$ ",
"#&&&&&&&&&&&&&&&&&&&&  $$$$$$$$$  $$$$$$$$  $$+$$$$$$  $$$$$$$$ ",
"#&&&&&&&&&&&&&&&&&&&&  $$$$$$+$$  $$$+$$$$  $$$$$$$++  $$$$$$$$ ",
"#&&&&&&&&&&&&&&&&&&&&  $$$$$$$$$  $$++$$$$  $$$$$$$+$  $$$$$$$$ ",
"#&&&&&&&&&&&&&&&&&&&&  $$$$$$$$$  $$++$$$$  $$$$$$$$$  $$$+$$$$ ",
"#&&&&&&&&&&&&&&&&&&&&  $$$+$$$$$  $$$$$$$$  $$$$$$$$$  $$$+$$$$ ",
"#&&&&&&&&&&&&&&&&&&&&  $$++$$$$$  $$$$$$$$  $$$$$$$$$  $$+$$$$$ ",
"                       $$++$$$$+  $$$$$$$$  $$$$++$$$  $$+$$$$$ ",
" ....................  $$$$$$$++  $$$$+$$$  $$$++$$$$  $$$$$$+$ ",
" ....................  $$$$$$$++  $$$+++$$  $$$++$$$$  $$$$$$+$ ",
" ....................  $$$$$$$$$  $$$+$$$$  $$$$$$$$$  $$$$$++$ ",
" ...............O....  $$$$$$$$$  $$$$$$$$  $$$$$$$$$  $$$$$+$$ ",
" ...............O....  $$$$$$$$$  $$$$$$$$  $$$$$$$$$  $$$$$$$$ ",
" ...X...........O....  $$$$$$$$$  $$$$$$$$  $$$$$$$$$  $$$$$$$$ ",
" ...X...........O....  $$$$++$$$  $$$$+++$  $$$$$$$$$  $$$$$$$$ ",
" ...X...........O....  $$$+++$$$  $$$$$++$  $$$$$$$$$  $$$$$$$$ ",
" ...X................  $$$++$$$$  $$$$$$$$  $$$$$$$$$  $$$$+$$$ ",
" ........ ...........  $$$$$$$$$  $$$$$$$$  $$$$$$$$$  $$$++$$$ ",
" ........ ...........  $$$$$$$$$  $$$+$$$$  $$$$+$$$$  $$$++$$$ ",
" ........ ...........  $$$$$$$$$  $$++$$$$  $$$+++$$$  $$$$+$$$ ",
" ........ ...........  $$$$$$$++  $$++$$$$  $$$$++$$$  $$$$$$$$ ",
" ........ ...........  $$$$$$$++  $$$$$$+$  $$$$+$$$$  $$$$$$$$ ",
" ........ ...........  $$$$$$+++  $$$$$$++  $$$$$$$$$  $$$$$$$$ ",
" ........ .......X...  $$$$$$$+$  $$$$$++$  $$$$$$$$$  $$+$$$$$ ",
" ........ .......X...  $$+$$$$$$  $$$$$++$  $$$$$$++$  $$+$$$+$ ",
" ................X...  $++$$$$$$  $$$$$$$$  $$$$$$+$$  $$+$$++$ ",
" ................X...  $$$$$$$$$  $$$$$$$$  $$$$$++$$  $$$$$+$$ ",
" ................X...  $$$$$$$$$  $$$$$$$$  $$$$$$$$$  $$$$$$$$ ",
" ....................  $$$$$$$$$  $$$$$$$$  $$$$$$$$$  $$$$$$$$ ",
" ....................  $$$$$$$$$  $$$$$$$$  $$$$$$$$$  $$$$$$$$ ",
"                                                                "
};
