/* XPM */
static char * tile000_xpm[] = {
"64 64 22 1",
" 	c None",
".	c #FFFFFF",
"+	c #0D530B",
"@	c #008040",
"#	c #1DC014",
"$	c #906020",
"%	c #E8C850",
"&	c #F8F0E0",
"*	c #282828",
"=	c #D0A030",
"-	c #F8D090",
";	c #D0A060",
">	c #A06838",
",	c #303070",
"'	c #7090D0",
")	c #5060A0",
"!	c #A0C0E0",
"~	c #804000",
"{	c #B46916",
"]	c #BB822B",
"^	c #703030",
"/	c #FFFFFF",
"                                                                ",
"                                                                ",
"                                                                ",
"                                                                ",
"                                                                ",
"                                                                ",
"                                                                ",
"                                                                ",
"                                                                ",
"                                                                ",
"                                                                ",
"                        +++++++++++                             ",
"                        ++++++++++++                            ",
"                       +@@@@@@@@@@@@+                           ",
"                     ++@@@@@#####@@@@+                          ",
"                     ++@@@@@#####@@@@++                         ",
"                    ++++@@@#######@@@@++                        ",
"                    $=%$+++@@@#@@####@++                        ",
"                    $%%$];!@@@#@@@##@@++                        ",
"                    $=%$%-&+++@++@##@@++                        ",
"                  $$%]$*==%=%%+++@@@@@++                        ",
"                    ]$$-]]=%%==$+@@@@@++                        ",
"                    $^$-]]=%==%$+@@@@@++                        ",
"                     *^;-;$=]$=^***+@@++                        ",
"                   $%=]*&-*^$$%---;>@@++                        ",
"                   $=]];&!*;;]=---;>@@++                        ",
"                    $^)&&!*&-;$;;;*+@@++                        ",
"                     *>-&&&-;;$^**+@@@++                        ",
"                      ^;---;;]^,,)!;@@++                        ",
"                       *---;]>*,)'&!^@++                        ",
"                       +@@+***@+*,'!&+++                        ",
"                     ++#+,),@####@,'!,*+                        ",
"                     ++#@,),@####>^)!,*+                        ",
"                     ++@,)'###@*>->)'*                          ",
"                     ++*,,)#@@*$>;-;>*                          ",
"                     ))+,,)#@@*^>;-;>*                          ",
"                     !!+*,,+****^;-;>                           ",
"                     ~$@,,)@@@+)'!!!&)                          ",
"                     ~$#))'@@#@,));;;'                          ",
"                     ~~#))'@@#@**~{{{'                          ",
"                     ~~*'),')@#+*~]]]~                          ",
"                     **,'')))',*^]]]]*                          ",
"                     **,''),'!>,^]]]]*                          ",
"                       *-;>*;-;),{]]{*                          ",
"                       *>];*>;-;>****                           ",
"                      )''';)'!&!'),**                           ",
"                     ))!!')'!!&!!',,                            ",
"                       ~{{~~{{]]]{~^*                           ",
"                    *~~~~~~^^${{{~~^****                        ",
"                    *~~~~~~*^${{{~~^****                        ",
"                  **~{{]]]{~{]]]]{~~~****                       ",
"                  ****^^^^^]]]]]]]{$~****                       ",
"                   ********>>>>>>>$$^****                       ",
"                    ********************                        ",
"                       **************                           ",
"                                                                ",
"                                                                ",
"                                                                ",
"                                                                ",
"                                                                ",
"                                                                ",
"                                                                ",
"                                                                ",
"                                                                "};
