/* XPM */
static char *result[] = {
/* columns rows colors chars-per-pixel */
"64 74 176 2 ",
"   c #010101",
".  c #0A0603",
"X  c #0D0905",
"o  c #030609",
"O  c #05090C",
"+  c #0A0C0C",
"@  c #120C06",
"#  c #120E09",
"$  c #15110C",
"%  c #1B130B",
"&  c #151006",
"*  c #060D13",
"=  c #0B0E12",
"-  c #0D1113",
";  c #0A131B",
":  c #131414",
">  c #121619",
",  c #14191C",
"<  c #1A1C1C",
"1  c #1E1913",
"2  c #21170D",
"3  c #24190E",
"4  c #281C0F",
"5  c #231B12",
"6  c #2A1E11",
"7  c #211F18",
"8  c #2C2013",
"9  c #28221B",
"0  c #332516",
"q  c #34291B",
"w  c #3D2C1B",
"e  c #382817",
"r  c #0B1622",
"t  c #0D1925",
"y  c #0E1B2B",
"u  c #121C24",
"i  c #191E20",
"p  c #111E2D",
"a  c #0F1E30",
"s  c #101E31",
"d  c #14212D",
"f  c #1D252A",
"g  c #1D262B",
"h  c #132334",
"j  c #192632",
"k  c #1C2A36",
"l  c #13253A",
"z  c #15293E",
"x  c #1C2D3B",
"c  c #1E303E",
"v  c #252421",
"b  c #2A2927",
"n  c #322C24",
"m  c #39342B",
"M  c #363129",
"N  c #242E35",
"B  c #23313C",
"V  c #2A343A",
"C  c #3B3831",
"Z  c #422F1C",
"A  c #44311E",
"S  c #463423",
"D  c #4A3622",
"F  c #4D3924",
"G  c #483C2E",
"H  c #523D27",
"J  c #503D29",
"K  c #433C32",
"L  c #5A442C",
"P  c #57412B",
"I  c #484238",
"U  c #5E4A34",
"Y  c #5C4A36",
"T  c #634D35",
"R  c #6C553C",
"E  c #6F583E",
"W  c #70593F",
"Q  c #152A43",
"!  c #162E4A",
"~  c #182E49",
"^  c #1C3148",
"/  c #193353",
"(  c #1D3A5C",
")  c #213343",
"_  c #263A4C",
"`  c #293B4A",
"'  c #253D53",
"]  c #1E3E65",
"[  c #38444B",
"{  c #2D455A",
"}  c #2E485E",
"|  c #2B4257",
" . c #3C505D",
".. c #1F436C",
"X. c #21436B",
"o. c #334E65",
"O. c #31506C",
"+. c #234771",
"@. c #284E7B",
"#. c #264A77",
"$. c #3B5A74",
"%. c #3C5D7A",
"&. c #5C5446",
"*. c #58554D",
"=. c #4A565C",
"-. c #6D5A42",
";. c #735C42",
":. c #776047",
">. c #786247",
",. c #7B644A",
"<. c #7E684D",
"1. c #6C6254",
"2. c #726A5B",
"3. c #4E5C64",
"4. c #4F6069",
"5. c #52636C",
"6. c #4B6375",
"7. c #516270",
"8. c #806A4E",
"9. c #836E53",
"0. c #8C7459",
"q. c #917B5F",
"w. c #937E61",
"e. c #827969",
"r. c #8D8371",
"t. c #968E7C",
"y. c #B09A7E",
"u. c #A99476",
"i. c #2C5484",
"p. c #2E598B",
"a. c #315C8E",
"s. c #325E94",
"d. c #35649D",
"f. c #326197",
"g. c #3667A3",
"h. c #3769A2",
"j. c #396BA5",
"k. c #396CA8",
"l. c #556D80",
"z. c #567287",
"x. c #4C7191",
"c. c #597E9B",
"v. c #557996",
"b. c #647E8F",
"n. c #637983",
"m. c #637E90",
"M. c #5B809E",
"N. c #6D8898",
"B. c #5984A6",
"V. c #628CAC",
"C. c #618DB1",
"Z. c #7197B2",
"A. c #74A6CD",
"S. c #A69F8E",
"D. c #B49E80",
"F. c #ADA392",
"G. c #B9A586",
"H. c #84A3B3",
"J. c #87A8BA",
"K. c #91B3BE",
"L. c #C1BCAA",
"P. c #C9C3B2",
"I. c #95B7C6",
"U. c #80B4DE",
"Y. c #9DC2D4",
"T. c #A3C7D9",
"R. c #88C1EC",
"E. c #A6CCE0",
"W. c #B6DDEE",
"Q. c #BDE6F7",
"!. c #D8D5C5",
"~. c #E8E4D2",
"^. c #C0ECFD",
"/. c #F2F1E0",
"(. c #FCFBF1",
"). c None",
/* pixels */
").).).).).).).).).).).).).).).).).).).).).).).).).).).).).).).).).).).).).).).).).).).).).).).).).).).).).).).).).).).).).).).).",
").).).).).).).).).).).).).).).).).).).).).).).).).).).).).).).).).).).).).).).).).).).).).).).).).).).).).).).).).).).).).).).).",
").).).).).).).).).).).).).).).).).).).).).).).).).).).).).).).).).).).).).).).).).).).).).).).).).).).).).).).).).).).).).).).).",
").).).).).).).).).).).).).).).).).).).).).).).).).).).).).).).).).).o > i - ).).).).).).).).).).).).).).).).).).).).).).).).).).",
").).).).).).).).).).).).).).).).).).).).).).).).).).).).).).).).).f 5.5.=.b ).).).).).).).).).).).).).).).).).).).).).).).).).).",
").).).).).).).).).).).).).).).).).).).).).).).).).).).).).).).).).> 3.I.T.n.).).).).).).).).).).).).).).).).).).).).).).).).).).",
").).).).).).).).).).).).).).).).).).).).).).).).).).).).).).).).).N [ [ [ 5.).).).).).).).).).).).).).).).).).).).).).).).).).).",
").).).).).).).).).).).).).).).).).).).).).).).).).).).).).).).).).p Q t t t O ).).).).).).).).).).).).).).).).).).).).).).).).).",
").).).).).).).).).).).).).).).).).).).).).).).).).).).).).).).).o / i.g.f...* ).).).).).).).).).).).).).).).).).).).).).).).).).",
").).).).).).).).).).).).).).).).).).).).).).).).).).).).).).).).  ! / / ] Q   ).).).).).).).).).).).).).).).).).).).).).).).).).",
").).).).).).).).).).).).).).).).).).).).).).).).).).).).).).).).O ] f.h.g...).).).).).).).).).).).).).).).).).).).).).).).).).).",
").).).).).).).).).).).).).).).).).).).).).).).).).).).).).).).).; X.h.k.k.] y ).).).).).).).).).).).).).).).).).).).).).).).).).",
").).).).).).).).).).).).).).).).).).).).).).).).).).).).).).).).; ( g.k.f.] r ).).).).).).).).).).).).).).).).).).).).).).).).).",
").).).).).).).).).).).).).).).).).).).).).).).).).).).).).).).).; / p.i.i.+.r ).).).).).).).).).).).).).).).).).).).).).).).).).",
").).).).).).).).).).).).).).).).).).).).).).).).).).).).).).).).* a +.a.i...* ).).).).).).).).).).).).).).).).).).).).).).).).).",
").).).).).).).).).).).).).).).).).).).).).).).).).).).).).).).).).r +.k.g.i.Q ).).).).).).).).).).).).).).).).).).).).).).).).).",
").).).).).).).).).).).).).).).).).).).).).).).).).).).).).).).).).h s.k.k.h.#.t ).).).).).).).).).).).).).).).).).).).).).).).).",
").).).).).).).).).).).).).).).).).).).).).).).).).).).).).).).).).Q d.k.k.h.i./ ).).).).).).).).).).).).).).).).).).).).).).).).",
").).).).).).).).).).).).).).).).).).).).).).).).).).).).).).).).).! d.k.k.h.a.] ).).).).).).).).).).).).).).).).).).).).).).).).",
").).).).).).).).).).).).).).).).).).).).).).).).).).).).).).).).r ! f.k.k.k.a.] ).).).).).).).).).).).).).).).).).).).).).).).).",
").).).).).).).).).).).).).).).).).).).).).).).).).).).).).).).; t ! #.h.k.h.@.] ).).).).).).).).).).).).).).).).).).).).).).).).",
").).).).).).).).).).).).).).).).).).).).).).).).).).).).).).).r y ! ] X.+.i.@.( O ).).).).).).).).).).).).).).).).).).).).).).).",
").).).).).).).).).).).).).).).).).).).).).).).).).).).).).; ; ; a a y y l ! ..Q   ).).).).).).).).).).).).).).).).).).).).).).).",
").).).).).).).).).).).).).).).).).).).).).).).).).).).t a t p o ; t t a y t l ;   ).).).).).).).).).).).).).).).).).).).).).).).",
").).).).).).).).).).).).).).).).).).).).).).).).).).* t ; r u d h h p ; t p s O ).).).).).).).).).).).).).).).).).).).).).).).).",
").).).).).).).).).).).).).).).)..   ).).).).).).).+ x j ) o.%.B.x.$._ u h ; *   ).).).).).).).).).).).).).).).).).).).).).).).).",
").).).).).).).).).).).).).).  3 w 4 @   ).).).).  j ) ; = p k _ k k j u ) _   X ).).).).).).).).).).).).).).).).).).).).).).).).",
").).).).).).).).).).).).).).@ S R D 0 3   ).).    c u + - u ) | } o.| x d ; . 1 . ).).).).).).).).).).).).).).).).).).).).).).).",
").).).).).).).).).).).).).).# A ;.W J e %         * k o.$.C.A.R.U.C.v.o._ B o % 3 $ ).).).).).).).).).).).).).).).).).).).).).).",
").).).).).).).).).).).).).).# Z H W H e & 2 2 2 $ i %.%.$.| o.$.o._ k ; = | i 3 3 3 # ).).).).).).).).).).).).).).).).).).).).).",
").).).).).).).).).).).).).).# 4 Z ;.T e A A 3 & 2 ) : X O % G Y -.M 0 6 X = x % 3 3 % 3 & ).).).).).).).).).).).).).).).).).).).",
").).).).).).).).).).).).).% # 3 0 F w L F e 2 4 % } % % + X % @ X X + X % X } $ 4 3 % 6 4 .   ).).).).).).).).).).).).).).).).).",
").).).).).).).).).).).).).= 2 2 $ w F ;.A 8 A D v { . u X . X X X X o @ . X { $ 6 e 4 2 3 4 @   ).).).).).).).).).).).).).).).).",
").).).).).).).).).).).).: 1.-.% . Z :.<.0 U L A _ j $ : $ n # &.m n 1 X     } i Z A Z 4 Z Z 0 2   ).).).).).).).).).).).).).).).",
").).).).).).).).).).).).2.L.2.7   0 P 8.;.,.;.S %.- + 5 . m     X C I n .   B N Z H D A A F A e %   ).).).).).).).).).).).).).).",
").).).).).).).).).).).).+ S.e.I   # % w ;.8.q.K c.+ $ b , O       O o m 4 . c [ L >.W A R T F H w @ ).).).).).).).).).).).).).).",
").).).).).).).).).).).).).m 7 ).).    . ,.u.G.3.V.. 5 -             -   # . , 6.L R R T ;.E T P F 6   ).).).).).).).).).).).).).",
").).).).).).).).).).).).).).).).).).;   ,.w.D.7.M.. $ +     f >         $ $ g v.R 9.>.E ,.>.R F F S X ).).).).).).).).).).).).).",
").).).).).).).).).).).).).).).).).).s   1 :.,.3.c.. 9       > ^ -       > # N c.q.y.q.R ,.9.R A D A @ ).).).).).).).).).).).).).",
").).).).).).).).).).).).).).).).).).y X.  % 6 V z.X v       O t p         . ^ 6.r.q.W F P w % 0 Y 6 ).).).).).).).).).).).).).).",
").).).).).).).).).).).).).).).).).).t ( d.o   u ) X <   o     t t           , M G w 1 . X $ % % # X ).).).).).).).).).).).).).).",
").).).).).).).).).).).).).).).).).).t Q @.s.a.; o   -   =   = x y t O                 2 0 e A 0 $ ).).).).).).).).).).).).).).).",
").).).).).).).).).).).).).).).).).).r y l ~ ~ l ; o +   ; * r _ h ;         ).).).).6 F U J A 8 ).).).).).).).).).).).).).).).).",
").).).).).).).).).).).).).).).).).).).y s s s p p ; >   u u j O.p O o     ).).).).. F -.:.Y 0 ).).).).).).).).).).).).).).).).).",
").).).).).).).).).).).).).).).).).).).; ~ s.i.Q Q r =   , u ^ { ' t o *     ).).v 9 8 9.U 0 ).).).).).).).).).).).).).).).).).).",
").).).).).).).).).).).).).).).).).).).).h ( ' i.s ; +   j x k g z h h O     1.t.P.r.K q # ).).).).).).).).).).).).).).).).).).).",
").).).).).).).).).).).).).).).).).).).).* y a a B V           = t * o     ).F.L.~./.F.K ).).).).).).).).).).).).).).).).).).).).",
").).).).).).).).).).).).).).).).).).).).O 6.m.m.6.`     = O : ; O         ).).!.(.!.*.).).).).).).).).).).).).).).).).).).).).).",
").).).).).).).).).).).).).).).).).).).).  6.I.Z.N.N ).).- i > : =       ).).).).).).).).).).).).).).).).).).).).).).).).).).).).",
").).).).).).).).).).).).).).).).).).).).o H.K.W.K.i ).).  .       ).).).).).).).).).).).).).).).).).).).).).).).).).).).).).).).",
").).).).).).).).).).).).).).).).).).).).  W.E.^.H.N ).).).).).).).).).).).).).).).).).).).).).).).).).).).).).).).).).).).).).).",
").).).).).).).).).).).).).).).).).).).).  T.Y.Q.z.V ).).).).).).).).).).).).).).).).).).).).).).).).).).).).).).).).).).).).).).",
").).).).).).).).).).).).).).).).).).).).).f H.b. .).).).).).).).).).).).).).).).).).).).).).).).).).).).).).).).).).).).).).).).",
").).).).).).).).).).).).).).).).).).).).).    o ).).).).).).).).).).).).).).).).).).).).).).).).).).).).).).).).).).).).).).).).",
").).).).).).).).).).).).).).).).).).).).).).).).).).).).).).).).).).).).).).).).).).).).).).).).).).).).).).).).).).).).).).).).",
").).).).).).).).).).).).).).).).).).).).).).).).).).).).).).).).).).).).).).).).).).).).).).).).).).).).).).).).).).).).).).).).",
").).).).).).).).).).).).).).).).).).).).).).).).).).).).).).).).).).).).).).).).).).).).).).).).).).).).).).).).).).).).).).).).",
").).).).).).).).).).).).).).).).).).).).).).).).).).).).).).).).).).).).).).).).).).).).).).).).).).).).).).).).).).).).).).).).",
").).).).).).).).).).).).).).).).).).).).).).).).).).).).).).).).).).).).).).).).).).).).).).).).).).).).).).).).).).).).).).).).",
").).).).).).).).).).).).).).).).).).).).).).).).).).).).).).).).).).).).).).).).).).).).).).).).).).).).).).).).).).).).).).).).",
").).).).).).).).).).).).).).).).).).).).).).).).).).).).).).).).).).).).).).).).).).).).).).).).).).).).).).).).).).).).).).).).",
").).).).).).).).).).).).).).).).).).).).).).).).).).).).).).).).).).).).).).).).).).).).).).).).).).).).).).).).).).).).).).).).",
").).).).).).).).).).).).).).).).).).).).).).).).).).).).).).).).).).).).).).).).).).).).).).).).).).).).).).).).).).).).).).).).",
").).).).).).).).).).).).).).).).).).).).).).).).).).).).).).).).).).).).).).).).).).).).).).).).).).).).).).).).).).).).).).).).",
").).).).).).).).).).).).).).).).).).).).).).).).).).).).).).).).).).).).).).).).).).).).).).).).).).).).).).).).).).).).).).).).",
").).).).).).).).).).).).).).).).).).).).).).).).).).).).).).).).).).).).).).).).).).).).).).).).).).).).).).).).).).).).).).).).",
").).).).).).).).).).).).).).).).).).).).).).).).).).).).).).).).).).).).).).).).).).).).).).).).).).).).).).).).).).).).).).).).",
").).).).).).).).).).).).).).).).).).).).).).).).).).).).).).).).).).).).).).).).).).).).).).).).).).).).).).).).).).).).).).).).",
").).).).).).).).).).).).).).).).).).).).).).).).).).).).).).).).).).).).).).).).).).).).).).).).).).).).).).).).).).).).).).).).",
").).).).).).).).).).).).).).).).).).).).).).).).).).).).).).).).).).).).).).).).).).).).).).).).).).).).).).).).).).).).).).).).",
").).).).).).).).).).).).).).).).).).).).).).).).).).).).).).).).).).).).).).).).).).).).).).).).).).).).).).).).).).).).).).).).",
").).).).).).).).).).).).).).).).).).).).).).).).).).).).).).).).).).).).).).).).).).).).).).).).).).).).).).).).).).).).).).).).",
").).).).).).).).).).).).).).).).).).).).).).).).).).).).).).).).).).).).).).).).).).).).).).).).).).).).).).).).).).).).).).).).",
").).).).).).).).).).).).).).).).).).).).).).).).).).).).).).).).).).).).).).).).).).).).).).).).).).).).).).).).).).).).).).).)."
};
