/* XPM */
static char *result[] = {
/* columns rows colors chars-per-pixel */
"64 74 187 2 ",
"   c #010201",
".  c #0A0603",
"X  c #0D0905",
"o  c #04070A",
"O  c #06090C",
"+  c #0B0C0C",
"@  c #130D07",
"#  c #130E09",
"$  c #190E07",
"%  c #16110B",
"&  c #1B130B",
"*  c #070D12",
"=  c #0B0F11",
"-  c #080F19",
";  c #0C1115",
":  c #0B131B",
">  c #07111B",
",  c #141413",
"<  c #1C1915",
"1  c #11171B",
"2  c #15191C",
"3  c #181B1D",
"4  c #1A1613",
"5  c #21170D",
"6  c #241A0E",
"7  c #281D0F",
"8  c #251B10",
"9  c #2A1E11",
"0  c #2D2114",
"q  c #29241D",
"w  c #26221E",
"e  c #332415",
"r  c #362B1C",
"t  c #3B2B1A",
"y  c #392817",
"u  c #0B1623",
"i  c #0C1826",
"p  c #0E1C2C",
"a  c #131C23",
"s  c #101E2E",
"d  c #0F1E31",
"f  c #101F31",
"g  c #15212C",
"h  c #1B242C",
"j  c #1A2226",
"k  c #132334",
"l  c #192631",
"z  c #1C2A35",
"x  c #14263C",
"c  c #16293D",
"v  c #1C2C3B",
"b  c #262829",
"n  c #3C3124",
"m  c #3B362D",
"M  c #222C33",
"N  c #24313C",
"B  c #2C353A",
"V  c #3E3A33",
"C  c #412F1C",
"Z  c #45331D",
"A  c #48331F",
"S  c #463521",
"D  c #4A3723",
"F  c #4D3924",
"G  c #4B3B29",
"H  c #443829",
"J  c #513B26",
"K  c #523E29",
"L  c #433D34",
"P  c #55412C",
"I  c #5C462F",
"U  c #5F4C36",
"Y  c #534637",
"T  c #47433B",
"R  c #624C34",
"E  c #634F39",
"W  c #66523B",
"Q  c #6B553C",
"!  c #6E583E",
"~  c #685137",
"^  c #152740",
"/  c #162B44",
"(  c #1B2E43",
")  c #192F4A",
"_  c #152D48",
"`  c #1B3146",
"'  c #1A324E",
"]  c #1B3553",
"[  c #1D3959",
"{  c #213444",
"}  c #233749",
"|  c #253A4C",
" . c #2A3B4A",
".. c #2C3842",
"X. c #293F52",
"o. c #1F3E63",
"O. c #30414D",
"+. c #2A4155",
"@. c #2D455A",
"#. c #2B455C",
"$. c #384A58",
"%. c #23446A",
"&. c #2D4860",
"*. c #324D65",
"=. c #37536A",
"-. c #264772",
";. c #264975",
":. c #294F7C",
">. c #284C77",
",. c #2A507D",
"<. c #395771",
"1. c #3D5B73",
"2. c #3D617D",
"3. c #4B4D4A",
"4. c #5A5041",
"5. c #48585F",
"6. c #675640",
"7. c #735D44",
"8. c #6B5E50",
"9. c #776046",
"0. c #7C654B",
"q. c #7F684D",
"w. c #776249",
"e. c #6E6351",
"r. c #756C5C",
"t. c #485E6C",
"y. c #455865",
"u. c #455F74",
"i. c #52626B",
"p. c #546977",
"a. c #756F60",
"s. c #7D7463",
"d. c #80694D",
"f. c #836C50",
"g. c #8B765A",
"h. c #8F795E",
"j. c #877257",
"k. c #957E63",
"l. c #9A8468",
"z. c #978165",
"x. c #8F8777",
"c. c #928A7A",
"v. c #A18B6F",
"b. c #A38D70",
"n. c #AF997B",
"m. c #A99476",
"M. c #2C5485",
"N. c #2F5A8E",
"B. c #305B8D",
"V. c #315E94",
"C. c #35649C",
"Z. c #3767A0",
"A. c #3768A1",
"S. c #386AA6",
"D. c #466784",
"F. c #4E7494",
"G. c #517694",
"H. c #557C9B",
"J. c #617A8A",
"K. c #5D88AB",
"L. c #628DAE",
"P. c #7B95A0",
"I. c #638EB0",
"U. c #6894B7",
"Y. c #73A3C9",
"T. c #929287",
"R. c #B29D80",
"E. c #A59C8A",
"W. c #A8A495",
"Q. c #B6AF9D",
"!. c #86A6B7",
"~. c #B8B3A0",
"^. c #C0BAA9",
"/. c #99BDCE",
"(. c #91B4C7",
"). c #99BDD0",
"_. c #83B8E3",
"`. c #A4CADA",
"'. c #8EC9F5",
"]. c #AED5E7",
"[. c #BCE5F8",
"{. c #D7D7C9",
"}. c #F3F0DE",
"|. c #EBE9D6",
" X c #CBF3FD",
".X c #F4F2E2",
"XX c None",
/* pixels */
"XXXXXXXXXXXXXXXXXXXXXXXXXXXXXXXXXXXXXXXXXXXXXXXXXXXXXXXXXXXXXXXXXXXXXXXXXXXXXXXXXXXXXXXXXXXXXXXXXXXXXXXXXXXXXXXXXXXXXXXXXXXXXXXX",
"XXXXXXXXXXXXXXXXXXXXXXXXXXXXXXXXXXXXXXXXXXXXXXXXXXXXXXXXXXXXXXXXXXXXXXXXXXXXXXXXXXXXXXXXXXXXXXXXXXXXXXXXXXXXXXXXXXXXXXXXXXXXXXXX",
"XXXXXXXXXXXXXXXXXXXXXXXXXXXXXXXXXXXXXXXXXXXXXXXXXXXXXXXXXXXXXXXXXXXXXXXXXXXXXXXXXXXXXXXXXXXXXXXXXXXXXXXXXXXXXXXXXXXXXXXXXXXXXXXX",
"XXXXXXXXXXXXXXXXXXXXXXXXXXXXXXXXXXXXXXXXXXXXXXXXXXXXXXXXXXXXXXXXXXXXXXXXXXXXXXXXXXXXXXXXXXXXXXXXXXXXXXXXXXXXXXXXXXXXXXXXXXXXXXXX",
"XXXXXXXXXXXXXXXXXXXXXXXXXXXXXXXXXXXXXXXXXXXXXXXXXXXXXXXXXXXXXXXXXXXXXXXXXXXXXXXXXXXXXXXXXXXXXXXXXXXXXXXXXXXXXXXXXXXXXXXXXXXXXXXX",
"XXXXXXXXXXXXXXXXXXXXXXXXXXXXXXXXXXXXXXXXXXXXXXXXXXXXXXXXXXXXXXXXXXXXXXXXXXXXXXXXXXXXXXXXXXXXXXXXXXXXXXXXXXXXXXXXXXXXXXXXXXXXXXXX",
"XXXXXXXXXXXXXXXXXXXXXXXXXXXXXXXXXXXXXXXXXXXXXXXXXXXXXXXXXXXXXXXXXXXXXXXXXXXXXXXXXXXXXXXXXXXXXXXXXXXXXXXXXXXXXXXXXXXXXXXXXXXXXXXX",
"XXXXXXXXXXXXXXXXXXXXXXXXXXXXXXXXXXXXXXXXXXXXXXXXXXXXXXXXXXXXXXXXXXXXXXXXXXXXXXXXXXXXXXXXXXXXXXXXXXXXXXXXXXXXXXXXXXXXXXXXXXXXXXXX",
"XXXXXXXXXXXXXXXXXXXXXXXXXXXXXXXXXXXXXXXXXXXXXXXXXXXXXXXXXXXXXXXXXXXXXXXXXXXXXXXXXXXXXXXXXXXXXXXXXXXXXXXXXXXXXXXXXXXXXXXXXXXXXXXX",
"XXXXXXXXXXXXXXXXXXXXXXXXXXXXXXXXXXXXXXXXXXXXXXXXXXXXXXXXXXXXXXXXXXXXXXXXXXXXXXXXXXXXXXXXXXXXXXXXXXXXXXXXXXXXXXXXXXXXXXXXXXXXXXXX",
"XXXXXXXXXXXXXXXXXXXXXXXXXXXXXXXXXXXXXXXXXXXXXXXXXXXXXXXXXXXXXXXXXXXXXXXXXXXXXXXXXXXXXXXXXXXXXXXXXXXXXXXXXXXXXXXXXXXXXXXXXXXXXXXX",
"XXXXXXXXXXXXXXXXXXXXXXXXXXXXXXXXXXXXXXXXXXXXXXXXXXXXXXXXXXXXXXXXXXXXXXXXXXXXXXXXXXXXXXXXXXXXXXXXXXXXXXXXXXXXXXXXXXXXXXXXXXXXXXXX",
"XXXXXXXXXXXXXXXXXXXXXXXXXXXXXXXXXXXXXXXXXXXXXXXXXXXXXXXXXXXXXXXXXXXXXXXXXXXXXXXXXXXXXXXXXXXXXXXXXXXXXXXXXXXXXXXXXXXXXXXXXXXXXXXX",
"XXXXXXXXXXXXXXXXXXXXXXXXXXXXXXXXXXXXXXXXXXXXXXXXXXXXXXXXXXXXXXXXXXXXXXXXXXh  .o   XXXXXXXXXXXXXXXXXXXXXXXXXXXXXXXXXXXXXXXXXXXXXX",
"XXXXXXXXXXXXXXXXXXXXXXXXXXXXXXXXXXXXXXXXXXXXXXXXXXXXXXXXXXXXXXXXXXXXXXXXl y.`.].i.  XXXXXXXXXXXXXXXXXXXXXXXXXXXXXXXXXXXXXXXXXXXX",
"XXXXXXXXXXXXXXXXXXXXXXXXXXXXXXXXXXXXXXXXXXXXXXXXXXXXXXXXXXXXXXXXXXXXXXXX..!. X/.).  XXXXXXXXXXXXXXXXXXXXXXXXXXXXXXXXXXXXXXXXXXXX",
"XXXXXXXXXXXXXXXXXXXXXXXXXXXXXXXXXXXXXXXXXXXXXXXXXXXXXXXXXXXXXXXXXXXXXXXXN (. X[./.  XXXXXXXXXXXXXXXXXXXXXXXXXXXXXXXXXXXXXXXXXXXX",
"XXXXXXXXXXXXXXXXXXXXXXXXXXXXXXXXXXXXXXXXXXXXXXXXXXXXXXXXXXXXXXXXXXXXXXXXM !.(.J.y.  XXXXXXXXXXXXXXXXXXXXXXXXXXXXXXXXXXXXXXXXXXXX",
"XXXXXXXXXXXXXXXXXXXXXXXXXXXXXXXXXXXXXXXXXXXXXXXXXXXXXXXXXXXXXXXXXXXXXXXX$.p.(.`.t.. XXXXXXXXXXXXXXXXXXXXXXXXXXXXXXXXXXXXXXXXXXXX",
"XXXXXXXXXXXXXXXXXXXXXXXXXXXXXXXXXXXXXXXXXXXXXXXXXXXXXXXXXXXXXXXXXXXXXXXXt.t. .h $.  XXXXXXXXXXXXXXXXXXXXXXXXXXXXXXXXXXXXXXXXXXXX",
"XXXXXXXXXXXXXXXXXXXXXXXXXXXXXXXXXXXXXXXXXXXXXXXXXXXXXXXXXXXXXXXXXXXXXX  a u %.o.^ i XXXXXXXXXXXXXXXXXXXXXXXXXXXXXXXXXXXXXXXXXXXX",
"XXXXXXXXXXXXXXXXXXXXXXXXXXXXXXXXXXXXXXXXXXXXXXXXXXXXXXXXXXXXXXXXXXXXXX* s ] ] -.-.^ O XXXXXXXXXXXXXXXXXXXXXXXXXXXXXXXXXXXXXXXXXX",
"XXXXXXXXXXXXXXXXXXXXXXXXXXXXXXXXXXXXXXXX~.{.W.XXXXXXXXXXXXXXXXXXXXXXXX* i f ^ %.%.x i XXXXXXXXXXXXXXXXXXXXXXXXXXXXXXXXXXXXXXXXXX",
"XXXXXXXXXXXXXXXXXXXXXXXXXXXXXXXXXXXXm E..X.X.XT.XXXXXXXXXXXX            > p p p p i p XXXXXXXXXXXXXXXXXXXXXXXXXXXXXXXXXXXXXXXXXX",
"XXXXXXXXXXXXXXXXXXXXXXXXXXXXXXXXXX, L 8.Q.|.W.x.XXXXXXXX      O + = 1 + p p ] %.%.' f u XXXXXXXXXXXXXXXXXXXXXXXXXXXXXXXXXXXXXXXX",
"XXXXXXXXXXXXXXXXXXXXXXXXXXXXXXXXX e 6.Y s.c.a.XXXXXXXX        ; 3 1 + 1 O / ,.A.A.M.) u XXXXXXXXXXXXXXXXXXXXXXXXXXXXXXXXXXXXXXXX",
"XXXXXXXXXXXXXXXXXXXXXXXXXXXXXXX r h.z.H q XXXXXXXXXXXX      o : +   o     [ C.A.Z.C.[ i XXXXXXXXXXXXXXXXXXXXXXXXXXXXXXXXXXXXXXXX",
"XXXXXXXXXXXXXXXXXXXXXXXXXXXX  9 E h.7.G XXXXXXXXXXXX    o p k v j : ; *   [ C.A.A.A.%.i XXXXXXXXXXXXXXXXXXXXXXXXXXXXXXXXXXXXXXXX",
"XXXXXXXXXXXXXXXXXXXXXXXXXXXX$ t U U G e XXXXXXXXXXXX    i * - `  .| a 1   ( N.C.C.C.%.i XXXXXXXXXXXXXXXXXXXXXXXXXXXXXXXXXXXXXXXX",
"XXXXXXXXXXXXXXXXXXXXXXXXXX  7 H W P G XXXXXXXXXXXXXX      * 1 ` &.v ` ;   a ] :.C.S.:.u XXXXXXXXXXXXXXXXXXXXXXXXXXXXXXXXXXXXXXXX",
"XXXXXXXXXXXXXXXXXXXXXXXXXX  & 0 n r X XXXXXXXXXXXXXX          k #.g   :   ; * x ' %.%.u XXXXXXXXXXXXXXXXXXXXXXXXXXXXXXXXXXXXXXXX",
"XXXXXXXXXXXXXXXXXXXXXXXX  & 7 7 7 8 X @                   * s c x O . a   ;   - k [ x u XXXXXXXXXXXXXXXXXXXXXXXXXXXXXXXXXXXXXXXX",
"XXXXXXXXXXXXXXXXXXXXXXXXX 0 t Z 6 & e 9 t P E r b O           g :     =   2 . v : x ' > XXXXXXXXXXXXXXXXXXXXXXXXXXXXXXXXXXXXXXXX",
"XXXXXXXXXXXXXXXXXXXXXXXX. C S S F 0.z.9.w.z.b.z.u.:           c : o       q . G.3 < v > XXXXXXXXXXXXXXXXXXXXXXXXXXXXXXXXXXXXXXXX",
"XXXXXXXXXXXXXXXXXXXXXXXX  t D J ~ l.g.! q.b.b.g.L., X =       a g O       w . U.V F 9   XXXXXXXXXXXXXXXXXXXXXXXXXXXXXXXXXXXXXXXX",
"XXXXXXXXXXXXXXXXXXXXXXXX  & F J R ! q.Q f.l.l.9.K., & ,       o z j     ; & . U.3.j.K %   XXXXXXXXXXXXXXXXXXXXXXXXXXXXXXXXXXXXXX",
"XXXXXXXXXXXXXXXXXXXXXXXXXXX t J J R Q ~ R ~ Q P H.+ # X O               # # . Y.3.R.w.6.6 XXXXXXXXXXXXXXXXXXXXXXXXXXXXXXXXXXXXXX",
"XXXXXXXXXXXXXXXXXXXXXXXXXX  & e A F Z P ! ~ Q P =.,   n + a o       + a m , ; K.Y n.n.h.6.  XXXXXXXXXXXXXXXXXXXXXXXXXXXXXXXXXXXX",
"XXXXXXXXXXXXXXXXXXXXXXXXXXXX  6 y A t A P P R t +.1 . & m 8 +       < o 4 . 2 1.W m.n.m.f.. XXXXXXXXXXXXXXXXXXXXXXXXXXXXXXXXXXXX",
"XXXXXXXXXXXXXXXXXXXXXXXXXXXXXX  & 0 6 7 A t A y M N     4 L T L 3.+ m & , , { B 7.h.m.j.! .   XXXXXXXXXXXXXXXXXXXXXXXXXXXXXXXXXX",
"XXXXXXXXXXXXXXXXXXXXXXXXXXXXXXXX  & 7 & 0 6 e 9 2  ..   X X X & & @ . @ a X @.9 w.q.0.0.! 5 %   XXXXXXXXXXXXXXXXXXXXXXXXXXXXXXXX",
"XXXXXXXXXXXXXXXXXXXXXXXXXXXXXXXXXX. 0 & & 7 6 6 2 #.X @ X .     . X . + & + $.9 6.I W R f.Q t   XXXXXXXXXXXXXXXXXXXXXXXXXXXXXXXX",
"XXXXXXXXXXXXXXXXXXXXXXXXXXXXXXXXXXXX6 6 @ 5 8 6 # X.+ & 9 9 n Y H n $ . 5 3 N 5 e A t 8 7.d.Z . % XXXXXXXXXXXXXXXXXXXXXXXXXXXXXX",
"XXXXXXXXXXXXXXXXXXXXXXXXXXXXXXXXXXXXXXXXXX6 6 8 & { a . + ; a B N h g  .{ *.3 6 7 # 0 R 7.D t . & XXXXXXXXXXXXXXXXXXXXXXXXXXXXXX",
"XXXXXXXXXXXXXXXXXXXXXXXXXXXXXXXXXXXXXXXXXXXX6 6 6 O =.*.*.F.U._.'.Y.K.2.*.| o   % y J A K y C @ & XXXXXXXXXXXXXXXXXXXXXXXXXXXXXX",
"XXXXXXXXXXXXXXXXXXXXXXXXXXXXXXXXXXXXXXXXXXXXXXXX&   o * #.D.H.F.D.1.} z : : g   & 6 e 0 K K I 6 & XXXXXXXXXXXXXXXXXXXXXXXXXXXXXX",
"XXXXXXXXXXXXXXXXXXXXXXXXXXXXXXXXXXXXXXXXXXXXXXXX= * { v s g a * a a O o O { l   XXX . e t S Z e & XXXXXXXXXXXXXXXXXXXXXXXXXXXXXX",
"XXXXXXXXXXXXXXXXXXXXXXXXXXXXXXXXXXXXXXXXXXXXXXXX> * l v a | <.G.H.<.@.| v { *   XXXX5 e A F E t & XXXXXXXXXXXXXXXXXXXXXXXXXXXXXX",
"XXXXXXXXXXXXXXXXXXXXXXXXXXXXXXXXXXXXXXXXXXXXXXXX> s u i - v | X.X.{ a : : : XXXXXXXXXX& y S K 9 # XXXXXXXXXXXXXXXXXXXXXXXXXXXXXX",
"XXXXXXXXXXXXXXXXXXXXXXXXXXXXXXXXXXXXXXXXXXXXXXXX> f i i d i i O   u i k i XXXXXXXXXXXX$ 0 9 5 # XXXXXXXXXXXXXXXXXXXXXXXXXXXXXXXX",
"XXXXXXXXXXXXXXXXXXXXXXXXXXXXXXXXXXXXXXXXXXXXXXXXi s s f i i i d O > i XXXXXXXXXXXXXXXXXXe.r.4.XXXXXXXXXXXXXXXXXXXXXXXXXXXXXXXXXX",
"XXXXXXXXXXXXXXXXXXXXXXXXXXXXXXXXXXXXXXXXXXXXXXXXp i f s d d d p * XXXXXXXXXXXXXXXXXXXXXXT.~.s.XXXXXXXXXXXXXXXXXXXXXXXXXXXXXXXXXX",
"XXXXXXXXXXXXXXXXXXXXXXXXXXXXXXXXXXXXXXXXXXXXXXXXi p p s p s d i XXXXXXXXXXXXXXXXXXXXXXXXXXXXXXXXXXXXXXXXXXXXXXXXXXXXXXXXXXXXXXXX",
"XXXXXXXXXXXXXXXXXXXXXXXXXXXXXXXXXXXXXXXXXXXXXXXXf f k s s i p > XXXXXXXXXXXXXXXXXXXXXXXXXXXXXXXXXXXXXXXXXXXXXXXXXXXXXXXXXXXXXXXX",
"XXXXXXXXXXXXXXXXXXXXXXXXXXXXXXXXXXXXXXXXXXXXXXXX> f ) ] k s p O XXXXXXXXXXXXXXXXXXXXXXXXXXXXXXXXXXXXXXXXXXXXXXXXXXXXXXXXXXXXXXXX",
"XXXXXXXXXXXXXXXXXXXXXXXXXXXXXXXXXXXXXXXXXXXXXXXX* x M.V.;./ f   XXXXXXXXXXXXXXXXXXXXXXXXXXXXXXXXXXXXXXXXXXXXXXXXXXXXXXXXXXXXXXXX",
"XXXXXXXXXXXXXXXXXXXXXXXXXXXXXXXXXXXXXXXXXXXXXXXXXX) Z.A.C.>.x XXXXXXXXXXXXXXXXXXXXXXXXXXXXXXXXXXXXXXXXXXXXXXXXXXXXXXXXXXXXXXXXXX",
"XXXXXXXXXXXXXXXXXXXXXXXXXXXXXXXXXXXXXXXXXXXXXXXXXXo.M.C.A.>.i XXXXXXXXXXXXXXXXXXXXXXXXXXXXXXXXXXXXXXXXXXXXXXXXXXXXXXXXXXXXXXXXXX",
"XXXXXXXXXXXXXXXXXXXXXXXXXXXXXXXXXXXXXXXXXXXXXXXXXXo.;.N.S.:.] XXXXXXXXXXXXXXXXXXXXXXXXXXXXXXXXXXXXXXXXXXXXXXXXXXXXXXXXXXXXXXXXXX",
"XXXXXXXXXXXXXXXXXXXXXXXXXXXXXXXXXXXXXXXXXXXXXXXXXXXXo.>.M.;._ XXXXXXXXXXXXXXXXXXXXXXXXXXXXXXXXXXXXXXXXXXXXXXXXXXXXXXXXXXXXXXXXXX",
"XXXXXXXXXXXXXXXXXXXXXXXXXXXXXXXXXXXXXXXXXXXXXXXXXXXXO ;.N.V._ XXXXXXXXXXXXXXXXXXXXXXXXXXXXXXXXXXXXXXXXXXXXXXXXXXXXXXXXXXXXXXXXXX",
"XXXXXXXXXXXXXXXXXXXXXXXXXXXXXXXXXXXXXXXXXXXXXXXXXXXXXXM  .D...XXXXXXXXXXXXXXXXXXXXXXXXXXXXXXXXXXXXXXXXXXXXXXXXXXXXXXXXXXXXXXXXXX",
"XXXXXXXXXXXXXXXXXXXXXXXXXXXXXXXXXXXXXXXXXXXXXXXXXXXXXXy.P.i.B XXXXXXXXXXXXXXXXXXXXXXXXXXXXXXXXXXXXXXXXXXXXXXXXXXXXXXXXXXXXXXXXXX",
"XXXXXXXXXXXXXXXXXXXXXXXXXXXXXXXXXXXXXXXXXXXXXXXXXXXXXXb XXXXXXXXXXXXXXXXXXXXXXXXXXXXXXXXXXXXXXXXXXXXXXXXXXXXXXXXXXXXXXXXXXXXXXXX",
"XXXXXXXXXXXXXXXXXXXXXXXXXXXXXXXXXXXXXXXXXXXXXXXXXXXXXXXXXXXXXXXXXXXXXXXXXXXXXXXXXXXXXXXXXXXXXXXXXXXXXXXXXXXXXXXXXXXXXXXXXXXXXXXX",
"XXXXXXXXXXXXXXXXXXXXXXXXXXXXXXXXXXXXXXXXXXXXXXXXXXXXXXXXXXXXXXXXXXXXXXXXXXXXXXXXXXXXXXXXXXXXXXXXXXXXXXXXXXXXXXXXXXXXXXXXXXXXXXXX",
"XXXXXXXXXXXXXXXXXXXXXXXXXXXXXXXXXXXXXXXXXXXXXXXXXXXXXXXXXXXXXXXXXXXXXXXXXXXXXXXXXXXXXXXXXXXXXXXXXXXXXXXXXXXXXXXXXXXXXXXXXXXXXXXX",
"XXXXXXXXXXXXXXXXXXXXXXXXXXXXXXXXXXXXXXXXXXXXXXXXXXXXXXXXXXXXXXXXXXXXXXXXXXXXXXXXXXXXXXXXXXXXXXXXXXXXXXXXXXXXXXXXXXXXXXXXXXXXXXXX",
"XXXXXXXXXXXXXXXXXXXXXXXXXXXXXXXXXXXXXXXXXXXXXXXXXXXXXXXXXXXXXXXXXXXXXXXXXXXXXXXXXXXXXXXXXXXXXXXXXXXXXXXXXXXXXXXXXXXXXXXXXXXXXXXX",
"XXXXXXXXXXXXXXXXXXXXXXXXXXXXXXXXXXXXXXXXXXXXXXXXXXXXXXXXXXXXXXXXXXXXXXXXXXXXXXXXXXXXXXXXXXXXXXXXXXXXXXXXXXXXXXXXXXXXXXXXXXXXXXXX",
"XXXXXXXXXXXXXXXXXXXXXXXXXXXXXXXXXXXXXXXXXXXXXXXXXXXXXXXXXXXXXXXXXXXXXXXXXXXXXXXXXXXXXXXXXXXXXXXXXXXXXXXXXXXXXXXXXXXXXXXXXXXXXXXX",
"XXXXXXXXXXXXXXXXXXXXXXXXXXXXXXXXXXXXXXXXXXXXXXXXXXXXXXXXXXXXXXXXXXXXXXXXXXXXXXXXXXXXXXXXXXXXXXXXXXXXXXXXXXXXXXXXXXXXXXXXXXXXXXXX",
"XXXXXXXXXXXXXXXXXXXXXXXXXXXXXXXXXXXXXXXXXXXXXXXXXXXXXXXXXXXXXXXXXXXXXXXXXXXXXXXXXXXXXXXXXXXXXXXXXXXXXXXXXXXXXXXXXXXXXXXXXXXXXXXX",
"XXXXXXXXXXXXXXXXXXXXXXXXXXXXXXXXXXXXXXXXXXXXXXXXXXXXXXXXXXXXXXXXXXXXXXXXXXXXXXXXXXXXXXXXXXXXXXXXXXXXXXXXXXXXXXXXXXXXXXXXXXXXXXXX"
};
