/* XPM */
static char *result[] = {
/* columns rows colors chars-per-pixel */
"74 64 176 2 ",
"   c #010101",
".  c #0A0603",
"X  c #0D0905",
"o  c #030609",
"O  c #05090C",
"+  c #0A0C0C",
"@  c #120C06",
"#  c #120E09",
"$  c #15110C",
"%  c #1B130B",
"&  c #151006",
"*  c #060D13",
"=  c #0B0E12",
"-  c #0D1113",
";  c #0A131B",
":  c #131414",
">  c #121619",
",  c #14191C",
"<  c #1A1C1C",
"1  c #1E1913",
"2  c #21170D",
"3  c #24190E",
"4  c #281C0F",
"5  c #231B12",
"6  c #2A1E11",
"7  c #211F18",
"8  c #2C2013",
"9  c #28221B",
"0  c #332516",
"q  c #34291B",
"w  c #3D2C1B",
"e  c #382817",
"r  c #0B1622",
"t  c #0D1925",
"y  c #0E1B2B",
"u  c #121C24",
"i  c #191E20",
"p  c #111E2D",
"a  c #0F1E30",
"s  c #101E31",
"d  c #14212D",
"f  c #1D252A",
"g  c #1D262B",
"h  c #132334",
"j  c #192632",
"k  c #1C2A36",
"l  c #13253A",
"z  c #15293E",
"x  c #1C2D3B",
"c  c #1E303E",
"v  c #252421",
"b  c #2A2927",
"n  c #322C24",
"m  c #39342B",
"M  c #363129",
"N  c #242E35",
"B  c #23313C",
"V  c #2A343A",
"C  c #3B3831",
"Z  c #422F1C",
"A  c #44311E",
"S  c #463423",
"D  c #4A3622",
"F  c #4D3924",
"G  c #483C2E",
"H  c #523D27",
"J  c #503D29",
"K  c #433C32",
"L  c #5A442C",
"P  c #57412B",
"I  c #484238",
"U  c #5E4A34",
"Y  c #5C4A36",
"T  c #634D35",
"R  c #6C553C",
"E  c #6F583E",
"W  c #70593F",
"Q  c #152A43",
"!  c #162E4A",
"~  c #182E49",
"^  c #1C3148",
"/  c #193353",
"(  c #1D3A5C",
")  c #213343",
"_  c #263A4C",
"`  c #293B4A",
"'  c #253D53",
"]  c #1E3E65",
"[  c #38444B",
"{  c #2D455A",
"}  c #2E485E",
"|  c #2B4257",
" . c #3C505D",
".. c #1F436C",
"X. c #21436B",
"o. c #334E65",
"O. c #31506C",
"+. c #234771",
"@. c #284E7B",
"#. c #264A77",
"$. c #3B5A74",
"%. c #3C5D7A",
"&. c #5C5446",
"*. c #58554D",
"=. c #4A565C",
"-. c #6D5A42",
";. c #735C42",
":. c #776047",
">. c #786247",
",. c #7B644A",
"<. c #7E684D",
"1. c #6C6254",
"2. c #726A5B",
"3. c #4E5C64",
"4. c #4F6069",
"5. c #52636C",
"6. c #4B6375",
"7. c #516270",
"8. c #806A4E",
"9. c #836E53",
"0. c #8C7459",
"q. c #917B5F",
"w. c #937E61",
"e. c #827969",
"r. c #8D8371",
"t. c #968E7C",
"y. c #B09A7E",
"u. c #A99476",
"i. c #2C5484",
"p. c #2E598B",
"a. c #315C8E",
"s. c #325E94",
"d. c #35649D",
"f. c #326197",
"g. c #3667A3",
"h. c #3769A2",
"j. c #396BA5",
"k. c #396CA8",
"l. c #556D80",
"z. c #567287",
"x. c #4C7191",
"c. c #597E9B",
"v. c #557996",
"b. c #647E8F",
"n. c #637983",
"m. c #637E90",
"M. c #5B809E",
"N. c #6D8898",
"B. c #5984A6",
"V. c #628CAC",
"C. c #618DB1",
"Z. c #7197B2",
"A. c #74A6CD",
"S. c #A69F8E",
"D. c #B49E80",
"F. c #ADA392",
"G. c #B9A586",
"H. c #84A3B3",
"J. c #87A8BA",
"K. c #91B3BE",
"L. c #C1BCAA",
"P. c #C9C3B2",
"I. c #95B7C6",
"U. c #80B4DE",
"Y. c #9DC2D4",
"T. c #A3C7D9",
"R. c #88C1EC",
"E. c #A6CCE0",
"W. c #B6DDEE",
"Q. c #BDE6F7",
"!. c #D8D5C5",
"~. c #E8E4D2",
"^. c #C0ECFD",
"/. c #F2F1E0",
"(. c #FCFBF1",
"). c None",
/* pixels */
").).).).).).).).).).).).).).).).).).).).).).).).).).).).).).).).).).).).).).).).).).).).).).).).).).).).).).).).).).).).).).).).).).).).).).).).).).",
").).).).).).).).).).).).).).).).).).).).).).).).).).).).).).).).).).).).).).).).).).).).).).).).).).).).).).).).).).).).).).).).).).).).).).).).).).",
").).).).).).).).).).).).).).).).).).).).).).).).).).).).).).).).).).).).).).).).).).).).).).).).).).).).).).).).).).).).).).).).).).).).).).).).).).",
").).).).).).).).).).).).).).).).).).).).).).).).).).).).).).).).).).).).).).).).).).).).).).).).).).).).).).).).).).).).).).).).).).).).).).).).).).",
").).).).).).).).).).).).).).).).).).).).).).).).).).).).).).).).).).).).).).).).).).).).).).).).).).).).).).).).).).).).).).).).).).).).).).).).).).",
").).).).).).).).).).).).).).).).).).).).).).).).).).).).).).).).).).).).).).).).).).).).).).).).).).).).).).).).).).).).).).).).).).).).).).).).).).",
").).).).).).).).).).).).).).).).).).).).).).).).).).).).).).).).).).).).).).).).).).).).).).).).).).).).).).).).).).).).).).).).).).).).).).).).).).",
").).).).).).).).).).).).).).).).).).).).).).).).).).).).).).).).).).).).).).).).).).).).).).).).).).).).).).).).).).).).).).).).).).).).).).).).).).",
").).).).).).).).).).).).).).).).).).).).).).).).).).).).).).).).).).).).).).).).).).).).).).).).).).).).).).).).).).).).).).).).).).).).).).).).).).",
").).).).).).).).).).).).).).).).).).).).).).).).).).).).).).).).).).).).).).).).).).).).).).).).).).).).).).).).).).).).).).).).).).).).).).).).).).",
").).).).).).).).).).).).).).).).).).).).).).).).).).).).).).).).).).).).).).).).).).).).).).).).).).).).).).).).).).).).).).).).).).).).).).).).).).",
").).).).).).).).).).).).).).).).).).).).).).).).).).).).).).).).).).).).).).).).).).).).).).).).).).).).).).).).).).).).).).).).).).).).).).).).).).",
").).).).).).).).).).).).).).).).).).).).).).).).).).).).).).).).).).).).).).).).).).).).).).).).).).).).).).).).).).).).).).).).).).).).).).).).).).",
").).).).).).).).).).).).).).).).).).).).).).).).).).).).).).).).).).).).  X X ).).).).).).).).).).).).).).).).).).).).).).).).).).).).).).).).).).).",
").).).).).).).).).).).).).).).).).).).).).).).).).).).).).).).).).).  @ 6 S A 6 X ).).).).).).).).).).).).).).).).).).).).).).).).).).).).).).).).).",
").).).).).).).).).).).).).).).).).).).).).).).).).).).).).).).).).  % w J F D L # $ ).).).).).).).).).).).).).).).).).).).).).).).).).).).).).).).).",
").).).).).).).).).).).).).).).).).).).).).).).).).).).).).).).).  2 0 P J F A 0 % e 8 ).).).).).).).).).).).).).).).).).).).).).).).).).).).).).).).",
").).).).).).).).).).).).).).).).).).).).).).).).).).).).).).).  @ 0 A A T R R % % w A 0 ).).).).).).).).).).).).).).).).).).).).).).).).).).).).).).",
").).).).).).).).).).).).).).).).).).).).).).).).).).).).).).).. 8 w F T W ,.9.w $ e J U 0 ).).).).).).).).).).).).).).).).).).).).).).).).).).).).).",
").).).).).).).).).).).).).).).).).).).).).).).).).).).).).).& 4 3 Z F R ;.,.,.H X e U :.U # ).).).).).).).).).).).).).).).).).).).).).).).).).).).).",
").).).).).).).).).).).).).).).).).).).).).).).).).).).).).).4 6 2 4 A D T E R F . % F E 9.n K ).).).).).).).).).).).).).).).).).).).).).).).).).).).",
").).).).).).).).).).).).).).).).).).).).).).).).).).).).).# % % 4 w D E R :.q.;.1   8 F 6 K F.*.).).).).).).).).).).).).).).).).).).).).).).).).).).",
").).).).).).).).).).).).).).).).).).).).).).).).).).).).% 2 3 3 e A H >.R 9.y.q.w   ).. 9 r./.!.).).).).).).).).).).).).).).).).).).).).).).).).).).",
").).).).).).).).).).).).).).).).).).).).).O     ).).).. 3 3 3 4 8 e A P L R w.w.J   ).).9 P.~.(.).).).).).).).).).).).).).).).).).).).).).).).).).).",
").).).).).).).).).).).).).).).).t ( ] ] ] ( Q ; O   X % % 3 % $ : 7 N [ 6.v.c.6.M   ).).).S.L.!.).).).).).).).).).).).).).).).).).).).).).).).).).).",
").).).).).).).O *   ).y y r * Q #.i.s.p.@.@...h a *   o . u c { { } B k t f N B ,   ).).).1.F.).).).).).).).).).).).).).).).).).).).).).).).).).).).",
").).).= b n.5.t ..Q ..] ] ....i.d.h.j.j.h.i.! y p r ' , ^ | - X @   . . o % # o       ).    ).).).).).).).).).).).).).).).).).).).).).).).).).).).).",
").).).< =.T.[ t f.] g.j.f.i.i.k.k.k.k.k.k.#.l t t d ) u _ = X %     . 4 # # ,                   ).).).).).).).).).).).).).).).).).).).).).).).).).).",
").).)., 5.K.[ p g./ g.k.k.i.p.k.k.k.k.k.g.X.a y r u u x o.> 8 X X X n m                 * O       ).).).).).).).).).).).).).).).).).).).).).).).).).",
").).).o 5.5.[ z i./ d.j.g.i.+.+.s.d.d.s.#...a t y _ j | v.k 8 X . < I X -         O   o o h o     ).).).).).).).).).).).).).).).).).).).).).).).).).",
").).).).f > N p / ! ] ..] / a t h Q ! ! ! Q y t j $.k o.C._ M X X n m O           t ; O r h *     ).).).).).).).).).).).).).).).).).).).).).).).).).",
").).).).).).).).o   O * * ; * ).).).).r t y a ; j x.j } U.o.-.X X m o       - p t y h p ' z t O =   ).).).).).).).).).).).).).).).).).).).).).).).).",
").).).).).).).).).).).).).).).).).).).).; t ;   d B.` | R.$.T X @ &.      > c t p z _ O.{ N = > >   ).).).).).).).).).).).).).).).).).).).).).).).).",
").).).).).).).).).).).).).).).).).).).).).).; a u %.k ) A.O.G % X X       f ; O   = r j ^ k   ; >   ).).).).).).).).).).).).).).).).).).).).).).).).",
").).).).).).).).).).).).).).).).).).).).).).; y r o.u u C.{ % X . n m +             * r , z   X i   ).).).).).).).).).).).).).).).).).).).).).).).).",
").).).).).).).).).).).).).).).).).).).).).).).h - ) = ; $.$.O + X $   <         o - - u > j   * -   ).).).).).).).).).).).).).).).).).).).).).).).).",
").).).).).).).).).).).).).).).).).).).).).).).r t j ; * o.%.. % u $ 5 n - -         o           ).).).).).).).).).).).).).).).).).).).).).).).).).).",
").).).).).).).).).).).).).).).).).).).).).).).).* x ) u k %.: % . : + $ 5 # v v , $ + > = X     ).).).).).).).).).).).).).).).).).).).).).).).).).).",
").).).).).).).).).).).).).).).).).).).).).).).).).O k x = i B { { j = + o . . X X o o ; ; ; B ` N d N ` ).).).).).).).).).).).).).).).).).).).).).).",
").).).).).).).).).).).).).).).).).).).).).).).).).).      & 2 % 9 ' $.c.V.c.c.z.) o ; y Q h k l.N.J.H.7.=.).).).).).).).).).).).).).).).).).).).).).",
").).).).).).).).).).).).).).).).).).).).).).).).).).).    % % 4 D D D C 3.5.*.V p ; h s z @.s m.Z.W.Q.Q.b.o ).).).).).).).).).).).).).).).).).).).).",
").).).).).).).).).).).).).).).).).).).).).).).).).).).).  2 2 % A L ;.q.G.y.<.8   a.~ s a.( y m.I.I.E.Y.H.  ).).).).).).).).).).).).).).).).).).).).",
").).).).).).).).).).).).).).).).).).).).).).).).).).).).  % A e 6 U ;.9.u.r.:.% O s./ p s.( y 6.7.J.W.T.f   ).).).).).).).).).).).).).).).).).).).).",
").).).).).).).).).).).).).).).).).).).).).).).).).).).  % % A H D 0 ;.;.,.<.%   d.@.h p ~ h * O   o     ).).).).).).).).).).).).).).).).).).).).).).",
").).).).).).).).).).).).).).).).).).).).).).).).).).. 2 e e e L ;.8.8.q .     X.( Q y p ; ).).).).).).).).).).).).).).).).).).).).).).).).).).).).).",
").).).).).).).).).).).).).).).).).).).).).).).).).).@ 0 P H T w J ;.L $   ; l y t r r ).).).).).).).).).).).).).).).).).).).).).).).).).).).).).).).",
").).).).).).).).).).).).).).).).).).).).).).).).).  4 D ;.W W F Z Z 0 #   ).).).).).).).).).).).).).).).).).).).).).).).).).).).).).).).).).).).).).",
").).).).).).).).).).).).).).).).).).).).).).).).).  w R ;.H Z 0 # .     ).).).).).).).).).).).).).).).).).).).).).).).).).).).).).).).).).).).).).).",
").).).).).).).).).).).).).).).).).).).).).).).).).).5 S D Z 6 3 % > 9 I ).).).).).).).).).).).).).).).).).).).).).).).).).).).).).).).).).).).).).).",
").).).).).).).).).).).).).).).).).).).).).).).).).).  X @ # @ @ 5 -.2.2.9 ).).).).).).).).).).).).).).).).).).).).).).).).).).).).).).).).).).).).).",
").).).).).).).).).).).).).).).).).).).).).).).).).).).).).).).% $ 1.L.F.m ).).).).).).).).).).).).).).).).).).).).).).).).).).).).).).).).).).).).).",
").).).).).).).).).).).).).).).).).).).).).).).).).).).).).).).).).: 2.X ).).).).).).).).).).).).).).).).).).).).).).).).).).).).).).).).).).).).).).",
").).).).).).).).).).).).).).).).).).).).).).).).).).).).).).).).).).).).).).).).).).).).).).).).).).).).).).).).).).).).).).).).).).).).).).).).).).",
").).).).).).).).).).).).).).).).).).).).).).).).).).).).).).).).).).).).).).).).).).).).).).).).).).).).).).).).).).).).).).).).).).).).).).).).).).",
").).).).).).).).).).).).).).).).).).).).).).).).).).).).).).).).).).).).).).).).).).).).).).).).).).).).).).).).).).).).).).).).).).).).).).).).).).",
").).).).).).).).).).).).).).).).).).).).).).).).).).).).).).).).).).).).).).).).).).).).).).).).).).).).).).).).).).).).).).).).).).).).).).).).).).",
").).).).).).).).).).).).).).).).).).).).).).).).).).).).).).).).).).).).).).).).).).).).).).).).).).).).).).).).).).).).).).).).).).).).).).).).).).",
").).).).).).).).).).).).).).).).).).).).).).).).).).).).).).).).).).).).).).).).).).).).).).).).).).).).).).).).).).).).).).).).).).).).).).).).).).",
").).).).).).).).).).).).).).).).).).).).).).).).).).).).).).).).).).).).).).).).).).).).).).).).).).).).).).).).).).).).).).).).).).).).).).).).).).",
").).).).).).).).).).).).).).).).).).).).).).).).).).).).).).).).).).).).).).).).).).).).).).).).).).).).).).).).).).).).).).).).).).).).).).).).).).",
").).).).).).).).).).).).).).).).).).).).).).).).).).).).).).).).).).).).).).).).).).).).).).).).).).).).).).).).).).).).).).).).).).).).).).).).).).",
").).).).).).).).).).).).).).).).).).).).).).).).).).).).).).).).).).).).).).).).).).).).).).).).).).).).).).).).).).).).).).).).).).).).).).).).).).",
").).).).).).).).).).).).).).).).).).).).).).).).).).).).).).).).).).).).).).).).).).).).).).).).).).).).).).).).).).).).).).).).).).).).).).).).).).",
").).).).).).).).).).).).).).).).).).).).).).).).).).).).).).).).).).).).).).).).).).).).).).).).).).).).).).).).).).).).).).).).).).).).).).).).).)."
};
