/* XPM */
static char *result[] = {
/* columns rows colors chars-per-pixel */
"64 74 176 2 ",
"   c #010101",
".  c #0A0603",
"X  c #0D0905",
"o  c #030609",
"O  c #05090C",
"+  c #0A0C0C",
"@  c #120C06",
"#  c #120E09",
"$  c #15110C",
"%  c #1B130B",
"&  c #151006",
"*  c #060D13",
"=  c #0B0E12",
"-  c #0D1113",
";  c #0A131B",
":  c #131414",
">  c #121619",
",  c #14191C",
"<  c #1A1C1C",
"1  c #1E1913",
"2  c #21170D",
"3  c #24190E",
"4  c #281C0F",
"5  c #231B12",
"6  c #2A1E11",
"7  c #211F18",
"8  c #2C2013",
"9  c #28221B",
"0  c #332516",
"q  c #34291B",
"w  c #3D2C1B",
"e  c #382817",
"r  c #0B1622",
"t  c #0D1925",
"y  c #0E1B2B",
"u  c #121C24",
"i  c #191E20",
"p  c #111E2D",
"a  c #0F1E30",
"s  c #101E31",
"d  c #14212D",
"f  c #1D252A",
"g  c #1D262B",
"h  c #132334",
"j  c #192632",
"k  c #1C2A36",
"l  c #13253A",
"z  c #15293E",
"x  c #1C2D3B",
"c  c #1E303E",
"v  c #252421",
"b  c #2A2927",
"n  c #322C24",
"m  c #39342B",
"M  c #363129",
"N  c #242E35",
"B  c #23313C",
"V  c #2A343A",
"C  c #3B3831",
"Z  c #422F1C",
"A  c #44311E",
"S  c #463423",
"D  c #4A3622",
"F  c #4D3924",
"G  c #483C2E",
"H  c #523D27",
"J  c #503D29",
"K  c #433C32",
"L  c #5A442C",
"P  c #57412B",
"I  c #484238",
"U  c #5E4A34",
"Y  c #5C4A36",
"T  c #634D35",
"R  c #6C553C",
"E  c #6F583E",
"W  c #70593F",
"Q  c #152A43",
"!  c #162E4A",
"~  c #182E49",
"^  c #1C3148",
"/  c #193353",
"(  c #1D3A5C",
")  c #213343",
"_  c #263A4C",
"`  c #293B4A",
"'  c #253D53",
"]  c #1E3E65",
"[  c #38444B",
"{  c #2D455A",
"}  c #2E485E",
"|  c #2B4257",
" . c #3C505D",
".. c #1F436C",
"X. c #21436B",
"o. c #334E65",
"O. c #31506C",
"+. c #234771",
"@. c #284E7B",
"#. c #264A77",
"$. c #3B5A74",
"%. c #3C5D7A",
"&. c #5C5446",
"*. c #58554D",
"=. c #4A565C",
"-. c #6D5A42",
";. c #735C42",
":. c #776047",
">. c #786247",
",. c #7B644A",
"<. c #7E684D",
"1. c #6C6254",
"2. c #726A5B",
"3. c #4E5C64",
"4. c #4F6069",
"5. c #52636C",
"6. c #4B6375",
"7. c #516270",
"8. c #806A4E",
"9. c #836E53",
"0. c #8C7459",
"q. c #917B5F",
"w. c #937E61",
"e. c #827969",
"r. c #8D8371",
"t. c #968E7C",
"y. c #B09A7E",
"u. c #A99476",
"i. c #2C5484",
"p. c #2E598B",
"a. c #315C8E",
"s. c #325E94",
"d. c #35649D",
"f. c #326197",
"g. c #3667A3",
"h. c #3769A2",
"j. c #396BA5",
"k. c #396CA8",
"l. c #556D80",
"z. c #567287",
"x. c #4C7191",
"c. c #597E9B",
"v. c #557996",
"b. c #647E8F",
"n. c #637983",
"m. c #637E90",
"M. c #5B809E",
"N. c #6D8898",
"B. c #5984A6",
"V. c #628CAC",
"C. c #618DB1",
"Z. c #7197B2",
"A. c #74A6CD",
"S. c #A69F8E",
"D. c #B49E80",
"F. c #ADA392",
"G. c #B9A586",
"H. c #84A3B3",
"J. c #87A8BA",
"K. c #91B3BE",
"L. c #C1BCAA",
"P. c #C9C3B2",
"I. c #95B7C6",
"U. c #80B4DE",
"Y. c #9DC2D4",
"T. c #A3C7D9",
"R. c #88C1EC",
"E. c #A6CCE0",
"W. c #B6DDEE",
"Q. c #BDE6F7",
"!. c #D8D5C5",
"~. c #E8E4D2",
"^. c #C0ECFD",
"/. c #F2F1E0",
"(. c #FCFBF1",
"). c None",
/* pixels */
").).).).).).).).).).).).).).).).).).).).).).).).).).).).).).).).).).).).).).).).).).).).).).).).).).).).).).).).).).).).).).).).",
").).).).).).).).).).).).).).).).).).).).).).).).).).).).).).).).).).).).).).).).).).).).).).).).).).).).).).).).).).).).).).).).",
").).).).).).).).).).).).).).).).).).).).).).).).).).).).).).).).).).).).).).).).).).).).).).).).).).).).).).).).).).).).).).).).",
").).).).).).).).).).).).).).).).).).).).).).).).).).).).).).).).).).).).).).).).).).).).).).).).).).).).).).).).).).).).).).).).",
").).).).).).).).).).).).).).).).).).).).).).).).).).).).).).).).).).).).).).).).).).).).).).).).).).).).).).).).).).).).).).).).",
").).).).).).).).).).).).).).).).).).).).).).).).).).).).).).).).).).).).).).).).).).).).).).).).).).).).).).).).).).).).).).).).",
").).).).).).).).).).).).).).).).).).).).).).).).).).).).).).).).).).).).).).).).).).).).).).).).).).).).).).).).).).).).).).).).",
").).).).).).).).).).).).).).).).).).).).).).).).).).).).).).).).).).).).).).).).).).).).).).).).).).).).).).).).).).).).).).).).",
").).).).).).).).).).).).).).).).).).).).).).).).).).).).).).).).).).).).).).).).).).).).).).).).).).).).).).).).).).).).).).).).",
").).).).).).).).).).).).).).).).).).).).).).).).).).).).).).).).).).).).).).).).).).).).).).).).).).).).).).).).).).).).).).).).",
").).).).).).).).).).).).).).).).).).).).).).).).).).).).).).).).).).).).).).).).).).).).).).).).).).).).).).).).).).).).).).).).",
").).).).).).).).).).).).).).).).).).).).).).).).).).).).).).).).).).).).).).).).).).).).).).).).).).).).).).).).).).).).).).).).",
").).).).).).).).).).).).).).).).).).).).).).).).).).).).).).).).).).).).).).).).).).).).).).).).).).).).).).).).).).).).).).).).",
").).).).).).).).).).).).).).).).).).).).).).).).).).).).).).).).).).).).).).).).).).).).).).).).).).).).).).).).).).).).).).).).",
").).).).).).).).).).).).).).).).).).).).).).).).).).).).).).).).).).).).).).).).).).).).).).).).).).).).).).).).).).).).).).).).",
").).).).).).).).).).).).).).).).).).).).).).).).).).).).).).).).).).).).).).).).).).).).).).).).).).).).).).).).).).).).).).).).",
").).).).).).).).).).).).).).).).).).).).).).).).).).).).).).).).).).).).).).).).).).).).).).).).).).).).).).).).).).).).).).).).",
").).).).).).).).).).).).).).).).).).).).).).).).).).).).).).).).).).).).).).).).).).).).).).).).).).).).).).).).).).).).).).).).",
").).).).).).).).).).).).).).).).).).).).).).).).).).).).).).).).).).).).).).).).).).).).).).).).).).).).).).).).).).).).).).).).",
").).).).).).).).).).).).).).).).).).).).).).).).).).).).).).).).).).).).).).).).).).).).).).).).).).).).).).).).).).).).).).).).",
").).).).).).).).).).).).).).).).).).).).).).).).).).).).).).).).).).).).).).).).o     ).).).).).).).).).).).).).).).).).).).).).",
").).).).).).).).).).).).).).).).).).).).).).).).).).).).).).).).).).).).).).). .b.H.f ).).).).).).).).).).).).).).).).).).).).).",
").).).).).).).).).).).).).).).).).).).).).).).).).).).).).).).).).).).).).).V z.Q.Y.T.  ).).).).).).).).).).).).).).).).).).).).",
").).).).).).).).).).).).).).).).).).).).).).).).).).).).).).).).).).).).).).N J.Q.E.W.  ).).).).).).).).).).).).).).).).).).).).",
").).).).).).).).).).).).).).).).).).).).).).).).).).).).).).).          ).).i J.W.K.J.. ).).).).).).).).).).).).).).).).).).).).",
").).).).).).).).).).).).).).).).).).).).).).).).).).).).      = : > i - ).).N N.Z.I.7.  ).).).).).).).).).).).).).).).).).).).).",
").).).).).).).).).).).).).).).).).).).).).*.!.(.!.).).        O - > O *     ` l.m.b.6.o ).).).).).).).).).).).).).).).).).).).).",
").).).).).).).).).).).).).).).).).).).).K F./.~.L.F.).    o * t =           B k a y s * ).).).).).).).).).).).).).).).).).).).).",
").).).).).).).).).).).).).).).).).).).@ q K r.P.t.1.    O h h z N k x j   + * h @.] ' l ).).).).).).).).).).).).).).).).).).).).",
").).).).).).).).).).).).).).).).).).0 U 9.8 9 v ).).    * o r ' | ^ t ,   = r Q l p.s.! ; ).).).).).).).).).).).).).).).).).).).",
").).).).).).).).).).).).).).).).).0 Y :.-.F . ).).).).    o O d O.h t t   > ; y s h a a y ).).).).).).).).).).).).).).).).).).).",
").).).).).).).).).).).).).).).).8 A J U D 8 ).).).).        ; h _ , = ;   + . ; l ~ ! h y r ).).).).).).).).).).).).).).).).).).",
").).).).).).).).).).).).).).).$ 0 S e 0 2                 O t y z -   =   - o o ; a.s.#.Q t ).).).).).).).).).).).).).).).).).).",
").).).).).).).).).).).).).).. @ % % % . . 1 w H M ,           t t     o   < X ) i   O d.( t ).).).).).).).).).).).).).).).).).).",
").).).).).).).).).).).).).).6 Y 0 % Z H F ;.w.w.6.^ .         p t O       v X x.V 0 %   X.a ).).).).).).).).).).).).).).).).).).",
").).).).).).).).).).).).).X S D w R 9.>.R q.y.w.c.N # >       - c ,       v . c.=.,.:.1   h ).).).).).).).).).).).).).).).).).).",
").).).).).).).).).).).).).X A F H R ,.<.W ;.9.R v.f % # o       > f     + # . c.7.D.w.,.  ; ).).).).).).).).).).).).).).).).).).",
").).).).).).).).).).).).).  6 J H T R ;.T R R L 6.u . +   -           o : 5 . V.3.G.u.<..     ).).7 m ).).).).).).).).).).).).).",
").).).).).).).).).).).).).).@ w P A T R D -.>.P [ B   6 m . O       + < b $ + c.C q.9.;.0 % #   I e.S.+ ).).).).).).).).).).).).",
").).).).).).).).).).).).).).  % e A H D Z D H Z N B   . b I C X     m   5 = - $.S ;.>.;.<.L 0   5 2.L.2.).).).).).).).).).).).).",
").).).).).).).).).).).).).).).  % 0 e A 6 w A w < }     @ 7 n m &.# n # $ : j ` D L U 0 9.;.Z . % &.1.: ).).).).).).).).).).).).",
").).).).).).).).).).).).).).).).  @ 8 3 % 6 e 8 : { @   X . X X X X X X u X | v D A 6 S ;.F w # 2 2 % ).).).).).).).).).).).).).",
").).).).).).).).).).).).).).).).).  . 4 4 2 3 3 $ { X % X # X X @ % X + % % } % 4 % e H L Z F 0 5 @ % ).).).).).).).).).).).).).",
").).).).).).).).).).).).).).).).).).).& 3 % 3 3 % c = X 6 8 M -.Y G % X X : ) % % 3 A Z e T W Z 6 # ).).).).).).).).).).).).).).",
").).).).).).).).).).).).).).).).).).).).).& 3 3 5 i | = , k _ } $.O.{ $.%.%.< $ % 3 % % e H W H Z @ ).).).).).).).).).).).).).).",
").).).).).).).).).).).).).).).).).).).).).).% 3 % . ^ _ o.v.C.U.R.A.C.$.o.k =         % e P W ;.S @ ).).).).).).).).).).).).).).",
").).).).).).).).).).).).).).).).).).).).).).).. % . , u c | o.} | ) u ; O u c     ).).  2 0 D R S @ ).).).).).).).).).).).).).).",
").).).).).).).).).).).).).).).).).).).).).).).).X o _ ) u h k k ` k u = ; ) j   ).).).).  @ 4 w 3   ).).).).).).).).).).).).).).",
").).).).).).).).).).).).).).).).).).).).).).).).  * ; d t _ $.x.B.%.o.) h x + ).).).).).).).    ).).).).).).).).).).).).).).).).",
").).).).).).).).).).).).).).).).).).).).).).).).* a y t r y h j d u r ; t = ).).).).).).).).).).).).).).).).).).).).).).).).).).",
").).).).).).).).).).).).).).).).).).).).).).).  ; l y y a t t ; o s y y t ).).).).).).).).).).).).).).).).).).).).).).).).).).).",
").).).).).).).).).).).).).).).).).).).).).).).  Q ..! h y a y y ; ; ; ).).).).).).).).).).).).).).).).).).).).).).).).).).).).).",
").).).).).).).).).).).).).).).).).).).).).).).O ( @.i.#.X.] ! y r ).).).).).).).).).).).).).).).).).).).).).).).).).).).).).).).",
").).).).).).).).).).).).).).).).).).).).).).).).] @.h.k.h.#.! t ; ).).).).).).).).).).).).).).).).).).).).).).).).).).).).).).).",
").).).).).).).).).).).).).).).).).).).).).).).).] p.k.k.k.f.! r ).).).).).).).).).).).).).).).).).).).).).).).).).).).).).).).).",
").).).).).).).).).).).).).).).).).).).).).).).).] a.j.k.k.d.! ).).).).).).).).).).).).).).).).).).).).).).).).).).).).).).).).).",
").).).).).).).).).).).).).).).).).).).).).).).).( i.j.k.k.g.Q ).).).).).).).).).).).).).).).).).).).).).).).).).).).).).).).).).",
").).).).).).).).).).).).).).).).).).).).).).).).r #.d.k.k.a.h ).).).).).).).).).).).).).).).).).).).).).).).).).).).).).).).).).",
").).).).).).).).).).).).).).).).).).).).).).).).).Q i.g.k.+.r ).).).).).).).).).).).).).).).).).).).).).).).).).).).).).).).).).",
").).).).).).).).).).).).).).).).).).).).).).).).).* ..i.p.+.a ; ).).).).).).).).).).).).).).).).).).).).).).).).).).).).).).).).",
").).).).).).).).).).).).).).).).).).).).).).).).).; ..i.i.i./ ; ).).).).).).).).).).).).).).).).).).).).).).).).).).).).).).).).",
").).).).).).).).).).).).).).).).).).).).).).).).).y ..f.k.g.( ; ).).).).).).).).).).).).).).).).).).).).).).).).).).).).).).).).",
").).).).).).).).).).).).).).).).).).).).).).).).).t ] k.k.j...* ).).).).).).).).).).).).).).).).).).).).).).).).).).).).).).).).",
").).).).).).).).).).).).).).).).).).).).).).).).).)...g.g.d.] O ).).).).).).).).).).).).).).).).).).).).).).).).).).).).).).).).",
").).).).).).).).).).).).).).).).).).).).).).).).).  Q ] ! / !   ).).).).).).).).).).).).).).).).).).).).).).).).).).).).).).).).",
").).).).).).).).).).).).).).).).).).).).).).).).).* ..d.g.i./ O ).).).).).).).).).).).).).).).).).).).).).).).).).).).).).).).).",
").).).).).).).).).).).).).).).).).).).).).).).).).O r r t h y ).).).).).).).).).).).).).).).).).).).).).).).).).).).).).).).).).",
").).).).).).).).).).).).).).).).).).).).).).).).).).5.[ [ =.N ).).).).).).).).).).).).).).).).).).).).).).).).).).).).).).).).).",
").).).).).).).).).).).).).).).).).).).).).).).).).).n.T.I.3., ).).).).).).).).).).).).).).).).).).).).).).).).).).).).).).).).).",
").).).).).).).).).).).).).).).).).).).).).).).).).).N =.5.3.f ).).).).).).).).).).).).).).).).).).).).).).).).).).).).).).).).).",
").).).).).).).).).).).).).).).).).).).).).).).).).).= i , . ).).).).).).).).).).).).).).).).).).).).).).).).).).).).).).).).).).",
").).).).).).).).).).).).).).).).).).).).).).).).).).).).).).).).).).).).).).).).).).).).).).).).).).).).).).).).).).).).).).).).",
").).).).).).).).).).).).).).).).).).).).).).).).).).).).).).).).).).).).).).).).).).).).).).).).).).).).).).).).).).).).).).).).",
").).).).).).).).).).).).).).).).).).).).).).).).).).).).).).).).).).).).).).).).).).).).).).).).).).).).).).).).).).).).).).).)."
};
