/* XPM */
static char *result[] = {
/* columns rows colors chars-per-pixel */
"74 64 167 2 ",
"   c #020202",
".  c #0A0703",
"X  c #0D0905",
"o  c #04060A",
"O  c #05090D",
"+  c #0B0B0B",
"@  c #120D07",
"#  c #140E09",
"$  c #181007",
"%  c #16110B",
"&  c #1B140B",
"*  c #060D14",
"=  c #0A0E12",
"-  c #0B1014",
";  c #0A131C",
":  c #0E181F",
">  c #131415",
",  c #1A1611",
"<  c #1E1A15",
"1  c #12161A",
"2  c #14191C",
"3  c #1A1C1B",
"4  c #21160C",
"5  c #241A0E",
"6  c #291D0F",
"7  c #241B12",
"8  c #2A1E12",
"9  c #221F1C",
"0  c #2D241C",
"q  c #2D2011",
"w  c #332415",
"e  c #372817",
"r  c #35291A",
"t  c #3C2C1A",
"y  c #0A1521",
"u  c #0D1925",
"i  c #0E1C2C",
"p  c #121B24",
"a  c #1B1F22",
"s  c #15222D",
"d  c #1A242E",
"f  c #1D2427",
"g  c #122233",
"h  c #192633",
"j  c #1B2935",
"k  c #14273D",
"l  c #1B2C3B",
"z  c #2B2B29",
"x  c #3A332A",
"c  c #36322C",
"v  c #252D32",
"b  c #393831",
"n  c #412F1C",
"m  c #44321E",
"M  c #48341F",
"N  c #463522",
"B  c #4B3621",
"V  c #4D3924",
"C  c #443A2D",
"Z  c #4C3E2D",
"A  c #40362B",
"S  c #513C25",
"D  c #443F37",
"F  c #3E403F",
"G  c #56402A",
"H  c #5A452D",
"J  c #5D482F",
"K  c #4D453A",
"L  c #5E4B35",
"P  c #634D36",
"I  c #664F38",
"U  c #645039",
"Y  c #6B543C",
"T  c #6E583F",
"R  c #70593E",
"E  c #152B44",
"W  c #192E46",
"Q  c #1F3141",
"!  c #1A334C",
"~  c #193454",
"^  c #1B3759",
"/  c #1B395B",
"(  c #223544",
")  c #21374A",
"_  c #253B4E",
"`  c #2A3D4D",
"'  c #253847",
"]  c #293E51",
"[  c #1D3D63",
"{  c #203F65",
"}  c #2B4155",
"|  c #2F485D",
" . c #3E4B52",
".. c #394B58",
"X. c #21426B",
"o. c #324C62",
"O. c #314F68",
"+. c #34526D",
"@. c #365066",
"#. c #244A74",
"$. c #264D7A",
"%. c #284F7D",
"&. c #3B5A75",
"*. c #3E607E",
"=. c #43545D",
"-. c #49585F",
";. c #735C44",
":. c #7B644A",
">. c #7A6449",
",. c #6B6457",
"<. c #495B67",
"1. c #425D73",
"2. c #4F616B",
"3. c #53666E",
"4. c #4C657A",
"5. c #536C7E",
"6. c #566871",
"7. c #78756C",
"8. c #63787F",
"9. c #826A4F",
"0. c #816A50",
"q. c #897256",
"w. c #8A7459",
"e. c #837A6A",
"r. c #9E886C",
"t. c #828178",
"y. c #99927F",
"u. c #A18B6E",
"i. c #A38E72",
"p. c #A89377",
"a. c #B29B7D",
"s. c #2C5585",
"d. c #2E598C",
"f. c #305B8F",
"g. c #325F95",
"h. c #34649B",
"j. c #346196",
"k. c #3767A1",
"l. c #396DA8",
"z. c #486A87",
"x. c #4B708E",
"c. c #5B778B",
"v. c #517695",
"b. c #547A99",
"n. c #637A86",
"m. c #728B96",
"M. c #5B86AA",
"N. c #7E9AA6",
"B. c #7E9DAE",
"V. c #628DB0",
"C. c #6896BC",
"Z. c #6D9EC4",
"A. c #6EA1C6",
"S. c #74A8D1",
"D. c #9C9381",
"F. c #A49E8D",
"G. c #AEA694",
"H. c #C2BDAB",
"J. c #CEC7B5",
"K. c #98BCCC",
"L. c #A4CBDD",
"P. c #A8CDD6",
"I. c #BBE4F8",
"U. c #E4E4D3",
"Y. c #F2F1DF",
"T. c #FDFAE8",
"R. c None",
/* pixels */
"R.R.R.R.R.R.R.R.R.R.R.R.R.R.R.R.R.R.R.R.R.R.R.R.R.R.R.R.R.R.R.R.R.R.R.R.R.R.R.R.R.R.R.R.R.R.R.R.R.R.R.R.R.R.R.R.R.R.R.R.R.R.R.R.R.R.R.R.R.R.R.R.R.R.",
"R.R.R.R.R.R.R.R.R.R.R.R.R.R.R.R.R.R.R.R.R.R.R.R.R.R.R.R.R.R.R.R.R.R.R.R.R.R.R.R.R.R.R.R.R.R.R.R.R.R.R.R.R.R.R.R.R.R.R.R.R.R.R.R.R.R.R.R.R.R.R.R.R.R.",
"R.R.R.R.R.R.R.R.R.R.R.R.R.R.R.R.R.R.R.R.R.R.R.R.R.R.R.R.R.R.R.R.R.R.R.R.R.R.R.R.R.R.R.R.R.R.R.R.R.R.R.R.R.R.R.R.R.R.R.R.R.R.R.R.R.R.R.R.R.R.R.R.R.R.",
"R.R.R.R.R.R.R.R.R.R.R.R.R.R.R.R.R.R.R.R.R.R.R.R.R.R.R.R.R.R.R.R.R.R.R.R.R.R.R.R.R.R.R.R.R.R.R.R.R.R.R.R.R.R.R.R.R.R.R.R.R.R.R.R.R.R.R.R.R.R.R.R.R.R.",
"R.R.R.R.R.R.R.R.R.R.R.R.R.R.R.R.R.R.R.R.R.R.R.R.R.R.R.R.R.R.R.R.R.R.R.R.R.R.R.R.R.R.R.R.R.R.R.R.R.R.R.R.R.R.R.R.R.R.R.R.R.R.R.R.R.R.R.R.R.R.R.R.R.R.",
"R.R.R.R.R.R.R.R.R.R.R.R.R.R.R.R.R.R.R.R.R.R.R.R.R.R.R.R.R.R.R.R.R.R.R.R.R.R.R.R.R.R.R.R.R.R.R.R.R.R.R.R.R.R.R.R.R.R.R.R.R.R.R.R.R.R.R.R.R.R.R.R.R.R.",
"R.R.R.R.R.R.R.R.R.R.R.R.R.R.R.R.R.R.R.R.R.R.R.R.R.R.R.R.R.R.R.R.R.R.R.R.R.R.R.R.R.R.R.R.R.R.R.R.R.R.R.R.R.R.R.R.R.R.R.R.R.R.R.R.R.R.R.R.R.R.R.R.R.R.",
"R.R.R.R.R.R.R.R.R.R.R.R.R.R.R.R.R.R.R.R.R.R.R.R.R.R.R.R.R.R.R.R.R.R.R.R.R.R.R.R.R.R.R.R.R.R.R.R.R.R.R.R.R.R.R.R.R.R.R.R.R.R.R.R.R.R.R.R.R.R.R.R.R.R.",
"R.R.R.R.R.R.R.R.R.R.R.R.R.R.R.R.R.R.R.R.R.R.R.R.R.R.R.R.R.R.R.R.R.R.R.R.R.R.R.R.R.R.R.R.R.R.R.R.R.R.R.R.R.R.R.R.R.R.R.R.R.R.R.R.R.R.R.R.R.R.R.R.R.R.",
"R.R.R.R.R.R.R.R.R.R.R.R.R.R.R.R.R.R.R.R.R.R.R.R.R.R.R.R.R.R.R.R.R.R.R.R.R.R.R.R.R.R.R.R.R.R.R.R.R.R.R.R.R.R.R.R.R.R.R.R.R.R.R.R.R.R.R.R.R.R.R.R.R.R.",
"R.R.R.R.R.R.R.R.R.R.R.R.R.R.R.R.R.R.R.R.R.R.R.R.R.R.R.R.R.R.R.R.R.R.R.R.R.R.R.R.R.R.R.R.R.R.R.R.R.R.R.R.R.R.R.R.R.R.R.R.R.R.R.R.R.R.R.R.R.R.R.R.R.R.",
"R.R.R.R.R.R.R.R.R.R.R.R.R.R.R.R.R.R.R.R.R.R.R.R.R.R.R.R.R.R.R.R.R.R.R.    R.R.R.R.R.R.R.R.R.R.R.R.R.R.R.R.R.R.R.R.R.R.R.R.R.R.R.R.R.R.R.R.R.R.R.R.R.",
"R.R.R.R.R.R.R.R.R.R.R.R.R.R.R.R.R.R.R.R.R.R.R.R.R.R.R.R.R.R.R.R.R.% w B t %   R.R.R.R.R.R.R.R.R.R.R.R.R.R.R.R.R.R.R.R.R.R.R.R.R.R.R.R.R.R.R.R.R.R.R.",
"R.R.R.R.R.R.R.R.R.R.R.R.R.R.R.R.R.R.R.R.R.R.R.R.R.R.R.R.R.R.R.R.@ 5 P N V m 6 . R.R.R.R.R.R.R.R.R.R.R.R.R.R.R.R.R.R.R.R.R.R.R.R.R.R.R.R.R.R.R.R.R.R.",
"R.R.R.R.R.R.R.R.R.R.R.R.R.R.R.R.R.R.R.R.R.R.R.R.R.R.R.R.R.R.R.X q 6 m M S G N 6 X R.R.R.R.R.R.R.R.R.R.R.R.R.R.R.R.R.R.R.R.R.R.R.R.R.R.R.R.R.R.R.R.R.",
"R.R.R.R.R.R.R.R.R.R.R.R.R.R.R.R.R.R.R.R.R.R.R.R.R.R.R.R.R.R.R.r t , e T U H m t 7 . R.R.R.R.R.R.R.R.R.R.R.R.R.R.R.R.R.R.R.R.R.R.R.R.R.R.R.R.R.R.R.R.",
"R.R.R.R.R.R.R.R.R.R.R.R.R.R.R.R.R.R.R.R.R.R.R.R.R.R.R.R.R.R.% U n 4 H q.;.I G B w &   R.R.R.R.R.R.R.R.R.R.R.R.R.R.R.R.R.R.R.R.R.R.R.R.R.R.R.R.R.R.R.",
"R.R.R.R.R.R.R.R.R.R.R.R.R.R.R.R.R.R.R.R.R.R.R.R.R.R.R.R.R.9 7 ;.t & Y 9.9.Y J M w 6 & R.R.R.R.R.R.R.R.R.R.R.R.R.R.R.R.R.R.R.R.R.R.R.R.R.R.R.R.R.R.R.",
"R.R.R.R.R.R.R.R.R.R.R.R.R.R.R.R.R.R.R.R.R.R.R.R.R.R.R.R.0 ,.r ;.7 4 J R R I B n 4 7 8 & R.R.R.R.R.R.R.R.R.R.R.R.R.R.R.R.R.R.R.R.R.R.R.R.R.R.R.R.R.R.",
"R.R.R.R.R.R.R.R.R.R.R.R.R.R.R.R.R.R.R.R.R.R.R.R.R.R.R.R.H.G.x & % N :.:.>.I H n w 4 & & R.R.R.R.R.R.R.R.R.R.R.R.R.R.R.R.R.R.R.R.R.R.R.R.R.R.R.R.R.R.",
"R.R.R.R.R.R.R.R.R.R.R.R.R.R.R.R.R.R.R.R.R.R.R.R.R.R.R.7.T.Y.D.% . P i.u.;.Y ;.V m q 5 5 & . R.R.R.R.R.R.R.R.R.R.R.R.R.R.R.R.R.R.R.R.R.R.R.R.R.R.R.R.",
"R.R.R.R.R.R.R.R.R.R.R.R.R.R.R.R.R.R.R.R.R.R.R.R.R.R.R.t.T.J.F.R.# >.a.r.Y U S M w 6 5 5 5 &   R.R.R.    o R.R.R.R.R.R.R.R.R.R.R.R.R.R.R.R.R.R.R.R.R.",
"R.R.R.R.R.R.R.R.R.R.R.R.R.R.R.R.R.R.R.R.R.R.R.R.R.R.R.R.U.G.e.  $ =.5.c.5. .z 9 # # & 4 8 5 &     * ; E ^ ! o R.R.R.R.R.R.R.R.R.R.R.R.R.R.R.R.R.R.R.",
"R.R.R.R.R.R.R.R.R.R.R.R.R.R.R.R.R.R.R.R.R.R.R.R.R.R.R.R.R.R.R.  . l o.| ` ( ] ] | ] _ d X . . O * i E X.X.s.[ i y i o   * o O O R.R.R.R.R.R.R.R.R.R.",
"R.R.R.R.R.R.R.R.R.R.R.R.R.R.R.R.R.R.R.R.R.R.R.R.R.R.R.R.o   R.      . @ @   .     = a h o.o s h * ; i ~ #.f.j.%.X.[ / i [ = <.=.v R.R.R.R.R.R.R.R.R.",
"R.R.R.R.R.R.R.R.R.R.R.R.R.R.R.R.R.R.R.R.R.R.R.R.R.R.    o             > # , @ . . . & . ' y s ( y * y i [ s.g.h.$.d.d.[ k.R.2.N.6.R.R.R.R.R.R.R.R.R.",
"R.R.R.R.R.R.R.R.R.R.R.R.R.R.R.R.R.R.R.R.R.R.R.R.        *               o < K <   X & X } } h h ; * ; i E [ g.l.d.s.d.^ l.R.6.m.n.R.R.R.R.R.R.R.R.R.",
"R.R.R.R.R.R.R.R.R.R.R.R.R.R.R.R.R.R.R.R.R.R.R.R.      O g                 1 X x X . 7 % o.x.j d Q * * u E s.h.s.#.g.d.^ h.o <.=.=.R.R.R.R.R.R.R.R.R.",
"R.R.R.R.R.R.R.R.R.R.R.R.R.R.R.R.R.R.R.R.R.R.R.R.      y ; s o s O             ,., . , , z.Z.l } o.; ; E / ~ k i E X.[ ^ [ u -.2 f R.R.R.R.R.R.R.R.R.",
"R.R.R.R.R.R.R.R.R.R.R.R.R.R.R.R.R.R.R.R.R.R.R.R.  + O l s ! * h O ; ; o       3 7   r x M.A.p @.&.* i i u *     ; ; O o o   R.R.R.R.R.R.R.R.R.R.R.R.",
"R.R.R.R.R.R.R.R.R.R.R.R.R.R.R.R.R.R.R.R.R.R.R.  o 2 = p h O.+.! g s s l       b A . 8 C S.Z.u x.z.o o ; y R.R.R.R.R.R.R.R.R.R.R.R.R.R.R.R.R.R.R.R.R.",
"R.R.R.R.R.R.R.R.R.R.R.R.R.R.R.R.R.R.R.R.R.R.R.  o 2 + + } Q l * * o * d >     o # . r 9 C.V.p o.O.* i ; R.R.R.R.R.R.R.R.R.R.R.R.R.R.R.R.R.R.R.R.R.R.",
"R.R.R.R.R.R.R.R.R.R.R.R.R.R.R.R.R.R.R.R.R.R.R.  + 1 O   ) Q O *         o   o D # . & # b.v.= ` } ; u R.R.R.R.R.R.R.R.R.R.R.R.R.R.R.R.R.R.R.R.R.R.R.",
"R.R.R.R.R.R.R.R.R.R.R.R.R.R.R.R.R.R.R.R.R.R.R.R.O 1 o   l s : + o         + - & @ + @ > j.O.O j s u u R.R.R.R.R.R.R.R.R.R.R.R.R.R.R.R.R.R.R.R.R.R.R.",
"R.R.R.R.R.R.R.R.R.R.R.R.R.R.R.R.R.R.R.R.R.R.R.R.- p         + + +       + 3 % & > 1 & 1 4.` * j : g y R.R.R.R.R.R.R.R.R.R.R.R.R.R.R.R.R.R.R.R.R.R.R.",
"R.R.R.R.R.R.R.R.R.R.R.R.R.R.R.R.R.R.R.R.R.R.R.R.R.R.    O 1 o o + 1 f 3 X x X p % @ 5 s O.: s l p * R.R.R.R.R.R.R.R.R.R.R.R.R.R.R.R.R.R.R.R.R.R.R.R.",
"R.R.R.R.R.R.R.R.R.R.R.R.R.R.R.R.R.R.R.R.R.R.R.R.R.R.R.R.    O o X $ X X %   X X p ] &._ + ; ] h R.R.R.R.R.R.R.R.R.R.R.R.R.R.R.R.R.R.R.R.R.R.R.R.R.R.",
"R.R.R.R.R.R.R.R.R.R.R.R.R.R.R.R.R.R.R.R.R.R.R.R.R.R.R.R.R.<.n.  = } &.4.z.b.v.x.) , & 5 . o     R.R.R.R.R.R.R.R.R.R.R.R.R.R.R.R.R.R.R.R.R.R.R.R.R.R.",
"R.R.R.R.R.R.R.R.R.R.R.R.R.R.R.R.R.R.R.R.R.R.R.R.R.R.R.R.  c.I.P.; l =.6.4...c N M t 5 %     R.R.R.R.R.R.R.R.R.R.R.R.R.R.R.R.R.R.R.R.R.R.R.R.R.R.R.R.",
"R.R.R.R.R.R.R.R.R.R.R.R.R.R.R.R.R.R.R.R.R.R.R.R.R.R.R.R.  2.L.L.8.@ M e.i.p.:.Y S e 8 X R.R.R.R.R.R.R.R.R.R.R.R.R.R.R.R.R.R.R.R.R.R.R.R.R.R.R.R.R.R.",
"R.R.R.R.R.R.R.R.R.R.R.R.R.R.R.R.R.R.R.R.R.R.R.R.R.R.R.R.R.= B.K.N.  V q.p.i.:.L G V w & X R.R.R.R.R.R.R.R.R.R.R.R.R.R.R.R.R.R.R.R.R.R.R.R.R.R.R.R.R.",
"R.R.R.R.R.R.R.R.R.R.R.R.R.R.R.R.R.R.R.R.R.R.R.R.R.R.R.R.R.R.    o   . q.p.p.p.;.Y B m w 5 R.R.R.R.R.R.R.R.R.R.R.R.R.R.R.R.R.R.R.R.R.R.R.R.R.R.R.R.R.",
"R.R.R.R.R.R.R.R.R.R.R.R.R.R.R.R.R.R.R.R.R.R.R.R.R.R.R.R.R.R.R.R.R.R.R.Z p.p.p.p.p.R U S 8   R.R.R.R.R.R.R.R.R.R.R.R.R.R.R.R.R.R.R.R.R.R.R.R.R.R.R.R.",
"R.R.R.R.R.R.R.R.R.R.R.R.R.R.R.R.R.R.R.R.R.R.R.R.R.R.R.R.R.R.R.R.R.R.R.Z Y Y q.q.p.q.R R n # R.R.R.R.R.R.R.R.R.R.R.R.R.R.R.R.R.R.R.R.R.R.R.R.R.R.R.R.",
"R.R.R.R.R.R.R.R.R.R.R.R.R.R.R.R.R.R.R.R.R.R.R.R.R.R.R.R.R.R.R.R.R.R.R.o   q ;.q.q.H I I I 4 R.R.R.R.R.R.R.R.R.R.R.R.R.R.R.R.R.R.R.R.R.R.R.R.R.R.R.R.",
"R.R.R.R.R.R.R.R.R.R.R.R.R.R.R.R.R.R.R.R.R.R.R.R.R.R.R.R.R.R.R.R.R.R.R.D.7 X Y ;.P t I t $ R.R.R.R.R.R.R.R.R.R.R.R.R.R.R.R.R.R.R.R.R.R.R.R.R.R.R.R.R.",
"R.R.R.R.R.R.R.R.R.R.R.R.R.R.R.R.R.R.R.R.R.R.R.R.R.R.R.R.R.R.R.R.R.R.R.< F.z & 4 @ @ & @ R.R.R.R.R.R.R.R.R.R.R.R.R.R.R.R.R.R.R.R.R.R.R.R.R.R.R.R.R.R.",
"R.R.R.R.R.R.R.R.R.R.R.R.R.R.R.R.R.R.R.R.R.R.R.R.R.R.R.R.R.R.R.R.R.R.R.R.R.% X R.R.R.R.R.R.R.R.R.R.R.R.R.R.R.R.R.R.R.R.R.R.R.R.R.R.R.R.R.R.R.R.R.R.R.",
"R.R.R.R.R.R.R.R.R.R.R.R.R.R.R.R.R.R.R.R.R.R.R.R.R.R.R.R.R.R.R.R.R.R.R.R.R.R.R.R.R.R.R.R.R.R.R.R.R.R.R.R.R.R.R.R.R.R.R.R.R.R.R.R.R.R.R.R.R.R.R.R.R.R.",
"R.R.R.R.R.R.R.R.R.R.R.R.R.R.R.R.R.R.R.R.R.R.R.R.R.R.R.R.R.R.R.R.R.R.R.R.R.R.R.R.R.R.R.R.R.R.R.R.R.R.R.R.R.R.R.R.R.R.R.R.R.R.R.R.R.R.R.R.R.R.R.R.R.R.",
"R.R.R.R.R.R.R.R.R.R.R.R.R.R.R.R.R.R.R.R.R.R.R.R.R.R.R.R.R.R.R.R.R.R.R.R.R.R.R.R.R.R.R.R.R.R.R.R.R.R.R.R.R.R.R.R.R.R.R.R.R.R.R.R.R.R.R.R.R.R.R.R.R.R.",
"R.R.R.R.R.R.R.R.R.R.R.R.R.R.R.R.R.R.R.R.R.R.R.R.R.R.R.R.R.R.R.R.R.R.R.R.R.R.R.R.R.R.R.R.R.R.R.R.R.R.R.R.R.R.R.R.R.R.R.R.R.R.R.R.R.R.R.R.R.R.R.R.R.R.",
"R.R.R.R.R.R.R.R.R.R.R.R.R.R.R.R.R.R.R.R.R.R.R.R.R.R.R.R.R.R.R.R.R.R.R.R.R.R.R.R.R.R.R.R.R.R.R.R.R.R.R.R.R.R.R.R.R.R.R.R.R.R.R.R.R.R.R.R.R.R.R.R.R.R.",
"R.R.R.R.R.R.R.R.R.R.R.R.R.R.R.R.R.R.R.R.R.R.R.R.R.R.R.R.R.R.R.R.R.R.R.R.R.R.R.R.R.R.R.R.R.R.R.R.R.R.R.R.R.R.R.R.R.R.R.R.R.R.R.R.R.R.R.R.R.R.R.R.R.R.",
"R.R.R.R.R.R.R.R.R.R.R.R.R.R.R.R.R.R.R.R.R.R.R.R.R.R.R.R.R.R.R.R.R.R.R.R.R.R.R.R.R.R.R.R.R.R.R.R.R.R.R.R.R.R.R.R.R.R.R.R.R.R.R.R.R.R.R.R.R.R.R.R.R.R.",
"R.R.R.R.R.R.R.R.R.R.R.R.R.R.R.R.R.R.R.R.R.R.R.R.R.R.R.R.R.R.R.R.R.R.R.R.R.R.R.R.R.R.R.R.R.R.R.R.R.R.R.R.R.R.R.R.R.R.R.R.R.R.R.R.R.R.R.R.R.R.R.R.R.R.",
"R.R.R.R.R.R.R.R.R.R.R.R.R.R.R.R.R.R.R.R.R.R.R.R.R.R.R.R.R.R.R.R.R.R.R.R.R.R.R.R.R.R.R.R.R.R.R.R.R.R.R.R.R.R.R.R.R.R.R.R.R.R.R.R.R.R.R.R.R.R.R.R.R.R.",
"R.R.R.R.R.R.R.R.R.R.R.R.R.R.R.R.R.R.R.R.R.R.R.R.R.R.R.R.R.R.R.R.R.R.R.R.R.R.R.R.R.R.R.R.R.R.R.R.R.R.R.R.R.R.R.R.R.R.R.R.R.R.R.R.R.R.R.R.R.R.R.R.R.R.",
"R.R.R.R.R.R.R.R.R.R.R.R.R.R.R.R.R.R.R.R.R.R.R.R.R.R.R.R.R.R.R.R.R.R.R.R.R.R.R.R.R.R.R.R.R.R.R.R.R.R.R.R.R.R.R.R.R.R.R.R.R.R.R.R.R.R.R.R.R.R.R.R.R.R.",
"R.R.R.R.R.R.R.R.R.R.R.R.R.R.R.R.R.R.R.R.R.R.R.R.R.R.R.R.R.R.R.R.R.R.R.R.R.R.R.R.R.R.R.R.R.R.R.R.R.R.R.R.R.R.R.R.R.R.R.R.R.R.R.R.R.R.R.R.R.R.R.R.R.R.",
"R.R.R.R.R.R.R.R.R.R.R.R.R.R.R.R.R.R.R.R.R.R.R.R.R.R.R.R.R.R.R.R.R.R.R.R.R.R.R.R.R.R.R.R.R.R.R.R.R.R.R.R.R.R.R.R.R.R.R.R.R.R.R.R.R.R.R.R.R.R.R.R.R.R.",
"R.R.R.R.R.R.R.R.R.R.R.R.R.R.R.R.R.R.R.R.R.R.R.R.R.R.R.R.R.R.R.R.R.R.R.R.R.R.R.R.R.R.R.R.R.R.R.R.R.R.R.R.R.R.R.R.R.R.R.R.R.R.R.R.R.R.R.R.R.R.R.R.R.R.",
"R.R.R.R.R.R.R.R.R.R.R.R.R.R.R.R.R.R.R.R.R.R.R.R.R.R.R.R.R.R.R.R.R.R.R.R.R.R.R.R.R.R.R.R.R.R.R.R.R.R.R.R.R.R.R.R.R.R.R.R.R.R.R.R.R.R.R.R.R.R.R.R.R.R.",
"R.R.R.R.R.R.R.R.R.R.R.R.R.R.R.R.R.R.R.R.R.R.R.R.R.R.R.R.R.R.R.R.R.R.R.R.R.R.R.R.R.R.R.R.R.R.R.R.R.R.R.R.R.R.R.R.R.R.R.R.R.R.R.R.R.R.R.R.R.R.R.R.R.R."
};
