/* XPM */
static char *result[] = {
/* columns rows colors chars-per-pixel */
"64 74 187 2 ",
"   c #010201",
".  c #0A0603",
"X  c #0D0905",
"o  c #04070A",
"O  c #06090C",
"+  c #0B0C0C",
"@  c #130D07",
"#  c #130E09",
"$  c #190E07",
"%  c #16110B",
"&  c #1B130B",
"*  c #070D12",
"=  c #0B0F11",
"-  c #080F19",
";  c #0C1115",
":  c #0B131B",
">  c #07111B",
",  c #141413",
"<  c #1C1915",
"1  c #11171B",
"2  c #15191C",
"3  c #181B1D",
"4  c #1A1613",
"5  c #21170D",
"6  c #241A0E",
"7  c #281D0F",
"8  c #251B10",
"9  c #2A1E11",
"0  c #2D2114",
"q  c #29241D",
"w  c #26221E",
"e  c #332415",
"r  c #362B1C",
"t  c #3B2B1A",
"y  c #392817",
"u  c #0B1623",
"i  c #0C1826",
"p  c #0E1C2C",
"a  c #131C23",
"s  c #101E2E",
"d  c #0F1E31",
"f  c #101F31",
"g  c #15212C",
"h  c #1B242C",
"j  c #1A2226",
"k  c #132334",
"l  c #192631",
"z  c #1C2A35",
"x  c #14263C",
"c  c #16293D",
"v  c #1C2C3B",
"b  c #262829",
"n  c #3C3124",
"m  c #3B362D",
"M  c #222C33",
"N  c #24313C",
"B  c #2C353A",
"V  c #3E3A33",
"C  c #412F1C",
"Z  c #45331D",
"A  c #48331F",
"S  c #463521",
"D  c #4A3723",
"F  c #4D3924",
"G  c #4B3B29",
"H  c #443829",
"J  c #513B26",
"K  c #523E29",
"L  c #433D34",
"P  c #55412C",
"I  c #5C462F",
"U  c #5F4C36",
"Y  c #534637",
"T  c #47433B",
"R  c #624C34",
"E  c #634F39",
"W  c #66523B",
"Q  c #6B553C",
"!  c #6E583E",
"~  c #685137",
"^  c #152740",
"/  c #162B44",
"(  c #1B2E43",
")  c #192F4A",
"_  c #152D48",
"`  c #1B3146",
"'  c #1A324E",
"]  c #1B3553",
"[  c #1D3959",
"{  c #213444",
"}  c #233749",
"|  c #253A4C",
" . c #2A3B4A",
".. c #2C3842",
"X. c #293F52",
"o. c #1F3E63",
"O. c #30414D",
"+. c #2A4155",
"@. c #2D455A",
"#. c #2B455C",
"$. c #384A58",
"%. c #23446A",
"&. c #2D4860",
"*. c #324D65",
"=. c #37536A",
"-. c #264772",
";. c #264975",
":. c #294F7C",
">. c #284C77",
",. c #2A507D",
"<. c #395771",
"1. c #3D5B73",
"2. c #3D617D",
"3. c #4B4D4A",
"4. c #5A5041",
"5. c #48585F",
"6. c #675640",
"7. c #735D44",
"8. c #6B5E50",
"9. c #776046",
"0. c #7C654B",
"q. c #7F684D",
"w. c #776249",
"e. c #6E6351",
"r. c #756C5C",
"t. c #485E6C",
"y. c #455865",
"u. c #455F74",
"i. c #52626B",
"p. c #546977",
"a. c #756F60",
"s. c #7D7463",
"d. c #80694D",
"f. c #836C50",
"g. c #8B765A",
"h. c #8F795E",
"j. c #877257",
"k. c #957E63",
"l. c #9A8468",
"z. c #978165",
"x. c #8F8777",
"c. c #928A7A",
"v. c #A18B6F",
"b. c #A38D70",
"n. c #AF997B",
"m. c #A99476",
"M. c #2C5485",
"N. c #2F5A8E",
"B. c #305B8D",
"V. c #315E94",
"C. c #35649C",
"Z. c #3767A0",
"A. c #3768A1",
"S. c #386AA6",
"D. c #466784",
"F. c #4E7494",
"G. c #517694",
"H. c #557C9B",
"J. c #617A8A",
"K. c #5D88AB",
"L. c #628DAE",
"P. c #7B95A0",
"I. c #638EB0",
"U. c #6894B7",
"Y. c #73A3C9",
"T. c #929287",
"R. c #B29D80",
"E. c #A59C8A",
"W. c #A8A495",
"Q. c #B6AF9D",
"!. c #86A6B7",
"~. c #B8B3A0",
"^. c #C0BAA9",
"/. c #99BDCE",
"(. c #91B4C7",
"). c #99BDD0",
"_. c #83B8E3",
"`. c #A4CADA",
"'. c #8EC9F5",
"]. c #AED5E7",
"[. c #BCE5F8",
"{. c #D7D7C9",
"}. c #F3F0DE",
"|. c #EBE9D6",
" X c #CBF3FD",
".X c #F4F2E2",
"XX c None",
/* pixels */
"XXXXXXXXXXXXXXXXXXXXXXXXXXXXXXXXXXXXXXXXXXXXXXXXXXXXXXXXXXXXXXXXXXXXXXXXXXXXXXXXXXXXXXXXXXXXXXXXXXXXXXXXXXXXXXXXXXXXXXXXXXXXXXXX",
"XXXXXXXXXXXXXXXXXXXXXXXXXXXXXXXXXXXXXXXXXXXXXXXXXXXXXXXXXXXXXXXXXXXXXXXXXXXXXXXXXXXXXXXXXXXXXXXXXXXXXXXXXXXXXXXXXXXXXXXXXXXXXXXX",
"XXXXXXXXXXXXXXXXXXXXXXXXXXXXXXXXXXXXXXXXXXXXXXXXXXXXXXXXXXXXXXXXXXXXXXXXXXXXXXXXXXXXXXXXXXXXXXXXXXXXXXXXXXXXXXXXXXXXXXXXXXXXXXXX",
"XXXXXXXXXXXXXXXXXXXXXXXXXXXXXXXXXXXXXXXXXXXXXXXXXXXXXXXXXXXXXXXXXXXXXXXXXXXXXXXXXXXXXXXXXXXXXXXXXXXXXXXXXXXXXXXXXXXXXXXXXXXXXXXX",
"XXXXXXXXXXXXXXXXXXXXXXXXXXXXXXXXXXXXXXXXXXXXXXXXXXXXXXXXXXXXXXXXXXXXXXXXXXXXXXXXXXXXXXXXXXXXXXXXXXXXXXXXXXXXXXXXXXXXXXXXXXXXXXXX",
"XXXXXXXXXXXXXXXXXXXXXXXXXXXXXXXXXXXXXXXXXXXXXXXXXXXXXXXXXXXXXXXXXXXXXXXXXXXXXXXXXXXXXXXXXXXXXXXXXXXXXXXXXXXXXXXXXXXXXXXXXXXXXXXX",
"XXXXXXXXXXXXXXXXXXXXXXXXXXXXXXXXXXXXXXXXXXXXXXXXXXXXXXXXXXXXXXXXXXXXXXXXXXXXXXXXXXXXXXXXXXXXXXXXXXXXXXXXXXXXXXXXXXXXXXXXXXXXXXXX",
"XXXXXXXXXXXXXXXXXXXXXXXXXXXXXXXXXXXXXXXXXXXXXXXXXXXXXXXXXXXXXXXXXXXXXXXXXXXXXXXXXXXXXXXXXXXXXXXXXXXXXXXXXXXXXXXXXXXXXXXXXXXXXXXX",
"XXXXXXXXXXXXXXXXXXXXXXXXXXXXXXXXXXXXXXXXXXXXXXXXXXXXXXXXXXXXXXXXXXXXXXXXXXXXXXXXXXXXXXXXXXXXXXXXXXXXXXXXXXXXXXXXXXXXXXXXXXXXXXXX",
"XXXXXXXXXXXXXXXXXXXXXXXXXXXXXXXXXXXXXXXXXXXXXXXXXXXXXXXXXXXXXXXXXXXXXXXXXXXXXXXXXXXXXXXXXXXXXXXXXXXXXXXXXXXXXXXXXXXXXXXXXXXXXXXX",
"XXXXXXXXXXXXXXXXXXXXXXXXXXXXXXXXXXXXXXXXXXXXXXXXXXXXXXXXXXXXXXXXXXXXXXXXb XXXXXXXXXXXXXXXXXXXXXXXXXXXXXXXXXXXXXXXXXXXXXXXXXXXXXX",
"XXXXXXXXXXXXXXXXXXXXXXXXXXXXXXXXXXXXXXXXXXXXXXXXXXXXXXXXXXXXXXXXXXB i.P.y.XXXXXXXXXXXXXXXXXXXXXXXXXXXXXXXXXXXXXXXXXXXXXXXXXXXXXX",
"XXXXXXXXXXXXXXXXXXXXXXXXXXXXXXXXXXXXXXXXXXXXXXXXXXXXXXXXXXXXXXXXXX..D.} b XXXXXXXXXXXXXXXXXXXXXXXXXXXXXXXXXXXXXXXXXXXXXXXXXXXXXX",
"XXXXXXXXXXXXXXXXXXXXXXXXXXXXXXXXXXXXXXXXXXXXXXXXXXXXXXXXXXXXXXXXXX_ V.N.;.O XXXXXXXXXXXXXXXXXXXXXXXXXXXXXXXXXXXXXXXXXXXXXXXXXXXX",
"XXXXXXXXXXXXXXXXXXXXXXXXXXXXXXXXXXXXXXXXXXXXXXXXXXXXXXXXXXXXXXXXXX/ ;.M.>.o.XXXXXXXXXXXXXXXXXXXXXXXXXXXXXXXXXXXXXXXXXXXXXXXXXXXX",
"XXXXXXXXXXXXXXXXXXXXXXXXXXXXXXXXXXXXXXXXXXXXXXXXXXXXXXXXXXXXXXXXXX] M.A.N.;.o.XXXXXXXXXXXXXXXXXXXXXXXXXXXXXXXXXXXXXXXXXXXXXXXXXX",
"XXXXXXXXXXXXXXXXXXXXXXXXXXXXXXXXXXXXXXXXXXXXXXXXXXXXXXXXXXXXXXXXXXi >.C.C.M.o.XXXXXXXXXXXXXXXXXXXXXXXXXXXXXXXXXXXXXXXXXXXXXXXXXX",
"XXXXXXXXXXXXXXXXXXXXXXXXXXXXXXXXXXXXXXXXXXXXXXXXXXXXXXXXXXXXXXXXXXx >.C.A.Z.) XXXXXXXXXXXXXXXXXXXXXXXXXXXXXXXXXXXXXXXXXXXXXXXXXX",
"XXXXXXXXXXXXXXXXXXXXXXXXXXXXXXXXXXXXXXXXXXXXXXXXXXXXXXXXXXXXXXXXo f / ;.V.M.x - XXXXXXXXXXXXXXXXXXXXXXXXXXXXXXXXXXXXXXXXXXXXXXXX",
"XXXXXXXXXXXXXXXXXXXXXXXXXXXXXXXXXXXXXXXXXXXXXXXXXXXXXXXXXXXXXXXXo p p k ] ) f > XXXXXXXXXXXXXXXXXXXXXXXXXXXXXXXXXXXXXXXXXXXXXXXX",
"XXXXXXXXXXXXXXXXXXXXXXXXXXXXXXXXXXXXXXXXXXXXXXXXXXXXXXXXXXXXXXXX> p p s p k f f XXXXXXXXXXXXXXXXXXXXXXXXXXXXXXXXXXXXXXXXXXXXXXXX",
"XXXXXXXXXXXXXXXXXXXXXXXXXXXXXXXXXXXXXXXXXXXXXXXXXXXXXXXXXXXXXXXXi d p p s p p i XXXXXXXXXXXXXXXXXXXXXXXXXXXXXXXXXXXXXXXXXXXXXXXX",
"XXXXXXXXXXXXXXXXXXXXXXXXXXXXXXXXXXj.^.c.XXXXXXXXXXXXXXXXXXXXXX- p d f f s d s i XXXXXXXXXXXXXXXXXXXXXXXXXXXXXXXXXXXXXXXXXXXXXXXX",
"XXXXXXXXXXXXXXXXXXXXXXXXXXXXXXXXXX4.r.e.XXXXXXXXXXXXXXXXXXu - o d i i i d p p i XXXXXXXXXXXXXXXXXXXXXXXXXXXXXXXXXXXXXXXXXXXXXXXX",
"XXXXXXXXXXXXXXXXXXXXXXXXXXXXXXXX# 8 9 q $ XXXXXXXXXXXXi k u u o * u u p i p d > XXXXXXXXXXXXXXXXXXXXXXXXXXXXXXXXXXXXXXXXXXXXXXXX",
"XXXXXXXXXXXXXXXXXXXXXXXXXXXXXX% 9 G S y & XXXXXXXXXX: : 1 s {  .X.| v > i i s > XXXXXXXXXXXXXXXXXXXXXXXXXXXXXXXXXXXXXXXXXXXXXXXX",
"XXXXXXXXXXXXXXXXXXXXXXXXXXXXXX% t E G S e 5 XXXX  * { z } #.<.H.G.<.X.a v l * > XXXXXXXXXXXXXXXXXXXXXXXXXXXXXXXXXXXXXXXXXXXXXXXX",
"XXXXXXXXXXXXXXXXXXXXXXXXXXXXXX& e Z S t e . X XX  l } O o * a a * a s h v { = = XXXXXXXXXXXXXXXXXXXXXXXXXXXXXXXXXXXXXXXXXXXXXXXX",
"XXXXXXXXXXXXXXXXXXXXXXXXXXXXXX& 6 I K K 0 e 7 %   g 1 : z } <.D.F.H.D.#.* o   & XXXXXXXXXXXXXXXXXXXXXXXXXXXXXXXXXXXXXXXXXXXXXXXX",
"XXXXXXXXXXXXXXXXXXXXXXXXXXXXXX& @ C y P A J y $   o } *.2.K.Y.'._.I.G.*.*.=.o 6 6 6 XXXXXXXXXXXXXXXXXXXXXXXXXXXXXXXXXXXXXXXXXXXX",
"XXXXXXXXXXXXXXXXXXXXXXXXXXXXXX& . t S 7.R e $ 6 6 3 *.}  .g h N ..a : X o a } & 6 6 6 XXXXXXXXXXXXXXXXXXXXXXXXXXXXXXXXXXXXXXXXXX",
"XXXXXXXXXXXXXXXXXXXXXXXXXXXXXX% . Z d.7.6 t A e 5 N 3 & . % S H Y r 9 9 & + X.@ 7 6 5 # & 6 XXXXXXXXXXXXXXXXXXXXXXXXXXXXXXXXXXXX",
"XXXXXXXXXXXXXXXXXXXXXXXXXXXXXXXX. y W f.R ~ I 6.0 @.@ & + X X X     . . # X +.4 6 6 6 5 6 9 . XXXXXXXXXXXXXXXXXXXXXXXXXXXXXXXXXX",
"XXXXXXXXXXXXXXXXXXXXXXXXXXXXXXXX  % 5 ! 0.0.q.w.q @.. a X X @ $ & X . o o X  .a 7 e 7 9 5 6 5   XXXXXXXXXXXXXXXXXXXXXXXXXXXXXXXX",
"XXXXXXXXXXXXXXXXXXXXXXXXXXXXXXXXXX  o ! g.m.g.7.B ` % , % m + 3.L T L 4 .   v M y A t D 8 6 e & . XXXXXXXXXXXXXXXXXXXXXXXXXXXXXX",
"XXXXXXXXXXXXXXXXXXXXXXXXXXXXXXXXXXXX. f.m.n.m.6.1.2 o < o <       + 9 m & . 1 O.C R K F A t A e 5   XXXXXXXXXXXXXXXXXXXXXXXXXXXX",
"XXXXXXXXXXXXXXXXXXXXXXXXXXXXXXXXXXXX  6.h.m.n.Y L.+ % m 3 +       o 1 + n o ; =.K ! ~ ! K S D S e &   XXXXXXXXXXXXXXXXXXXXXXXXXX",
"XXXXXXXXXXXXXXXXXXXXXXXXXXXXXXXXXXXXXX6 Q 0.n.3.Y.X $ ;     o       . O . @ + H.K 6.Q R ~ ~ R J K t . XXXXXXXXXXXXXXXXXXXXXXXXXX",
"XXXXXXXXXXXXXXXXXXXXXXXXXXXXXXXXXXXXXX  % P j.3.U.  & ;     j M o       1 & % I.w.b.l.f.! d.! R K D 5   XXXXXXXXXXXXXXXXXXXXXXXX",
"XXXXXXXXXXXXXXXXXXXXXXXXXXXXXXXXXXXXXXXX  9 K L U.. w       O s a       + X 1 I.j.b.b.d.! g.l.~ J S t   XXXXXXXXXXXXXXXXXXXXXXXX",
"XXXXXXXXXXXXXXXXXXXXXXXXXXXXXXXXXXXXXXXX- v 4 3 G.X q       o ; x           : u.h.b.k.w.7.k.0.K A S C . XXXXXXXXXXXXXXXXXXXXXXXX",
"XXXXXXXXXXXXXXXXXXXXXXXXXXXXXXXXXXXXXXXX: ) x > v o 3   +   o : g   o       O b t R I t 9 e & 8 Z t 0 X XXXXXXXXXXXXXXXXXXXXXXXX",
"XXXXXXXXXXXXXXXXXXXXXXXXXXXXXXXXXXXXXXXXu x [ k *   ;   a o O c c s *             .     @ . 9 8 7 6 % . XXXXXXXXXXXXXXXXXXXXXXXX",
"XXXXXXXXXXXXXXXXXXXXXXXXXXXXXXXXXXXXXXXXu %.%.] x ; =   : o g X.k           XXXXXXXXXXXXXXX r t 0 &   XXXXXXXXXXXXXXXXXXXXXXXXXX",
"XXXXXXXXXXXXXXXXXXXXXXXXXXXXXXXXXXXXXXXXu >.S.C.>.] a   ; ` v &.` : *       XXXXXXXXXXXXXXG Y E D 7   XXXXXXXXXXXXXXXXXXXXXXXXXX",
"XXXXXXXXXXXXXXXXXXXXXXXXXXXXXXXXXXXXXXXXu %.Z.C.A.B.)   1 i |  .` ; * i     XXXXXXXXXXXXe G U U t % XXXXXXXXXXXXXXXXXXXXXXXXXXXX",
"XXXXXXXXXXXXXXXXXXXXXXXXXXXXXXXXXXXXXXXXi %.Z.Z.C.C.[   * ; 1 j v k p o     XXXXXXXXXXXXG 7.h.E 7   XXXXXXXXXXXXXXXXXXXXXXXXXXXX",
"XXXXXXXXXXXXXXXXXXXXXXXXXXXXXXXXXXXXXXXXi ] C.A.A.C.[     o   + : o       XXXXXXXXXXXXq G z.h.t X XXXXXXXXXXXXXXXXXXXXXXXXXXXXXX",
"XXXXXXXXXXXXXXXXXXXXXXXXXXXXXXXXXXXXXXXXi ) M.Z.Z.,./ O : + 1 3 + o       XXXXXXXXr.c.s.Y W e X XXXXXXXXXXXXXXXXXXXXXXXXXXXXXXXX",
"XXXXXXXXXXXXXXXXXXXXXXXXXXXXXXXXXXXXXXXXu s ] %.%.] f i + 1 = + O       XXXXXXXXx.W.|.Q.e.L , XXXXXXXXXXXXXXXXXXXXXXXXXXXXXXXXXX",
"XXXXXXXXXXXXXXXXXXXXXXXXXXXXXXXXXXXXXXXXXXi p p s s s - o           XXXXXXXXXXXXT..X}..XT.L XXXXXXXXXXXXXXXXXXXXXXXXXXXXXXXXXXXX",
"XXXXXXXXXXXXXXXXXXXXXXXXXXXXXXXXXXXXXXXXXXu x %.%./ f i * XXXXXXXXXXXXXXXXXXXXXXXXW.{.~.XXXXXXXXXXXXXXXXXXXXXXXXXXXXXXXXXXXXXXXX",
"XXXXXXXXXXXXXXXXXXXXXXXXXXXXXXXXXXXXXXXXXXO x -.%.[ ' s + XXXXXXXXXXXXXXXXXXXXXXXXXXXXXXXXXXXXXXXXXXXXXXXXXXXXXXXXXXXXXXXXXXXXXX",
"XXXXXXXXXXXXXXXXXXXXXXXXXXXXXXXXXXXXXXXXXXXXi / o.%.u s   XXXXXXXXXXXXXXXXXXXXXXXXXXXXXXXXXXXXXXXXXXXXXXXXXXXXXXXXXXXXXXXXXXXXXX",
"XXXXXXXXXXXXXXXXXXXXXXXXXXXXXXXXXXXXXXXXXXXXo O.h  .y.u.XXXXXXXXXXXXXXXXXXXXXXXXXXXXXXXXXXXXXXXXXXXXXXXXXXXXXXXXXXXXXXXXXXXXXXXX",
"XXXXXXXXXXXXXXXXXXXXXXXXXXXXXXXXXXXXXXXXXXXX  t.`.(.p.$.XXXXXXXXXXXXXXXXXXXXXXXXXXXXXXXXXXXXXXXXXXXXXXXXXXXXXXXXXXXXXXXXXXXXXXXX",
"XXXXXXXXXXXXXXXXXXXXXXXXXXXXXXXXXXXXXXXXXXXX  y.J.(.!.M XXXXXXXXXXXXXXXXXXXXXXXXXXXXXXXXXXXXXXXXXXXXXXXXXXXXXXXXXXXXXXXXXXXXXXXX",
"XXXXXXXXXXXXXXXXXXXXXXXXXXXXXXXXXXXXXXXXXXXXo /.[. X(.N XXXXXXXXXXXXXXXXXXXXXXXXXXXXXXXXXXXXXXXXXXXXXXXXXXXXXXXXXXXXXXXXXXXXXXXX",
"XXXXXXXXXXXXXXXXXXXXXXXXXXXXXXXXXXXXXXXXXXXX  )./. X!.B XXXXXXXXXXXXXXXXXXXXXXXXXXXXXXXXXXXXXXXXXXXXXXXXXXXXXXXXXXXXXXXXXXXXXXXX",
"XXXXXXXXXXXXXXXXXXXXXXXXXXXXXXXXXXXXXXXXXXXX  i.].`.t.l XXXXXXXXXXXXXXXXXXXXXXXXXXXXXXXXXXXXXXXXXXXXXXXXXXXXXXXXXXXXXXXXXXXXXXXX",
"XXXXXXXXXXXXXXXXXXXXXXXXXXXXXXXXXXXXXXXXXXXXXX  o  .h XXXXXXXXXXXXXXXXXXXXXXXXXXXXXXXXXXXXXXXXXXXXXXXXXXXXXXXXXXXXXXXXXXXXXXXXXX",
"XXXXXXXXXXXXXXXXXXXXXXXXXXXXXXXXXXXXXXXXXXXXXXXXXXXXXXXXXXXXXXXXXXXXXXXXXXXXXXXXXXXXXXXXXXXXXXXXXXXXXXXXXXXXXXXXXXXXXXXXXXXXXXXX",
"XXXXXXXXXXXXXXXXXXXXXXXXXXXXXXXXXXXXXXXXXXXXXXXXXXXXXXXXXXXXXXXXXXXXXXXXXXXXXXXXXXXXXXXXXXXXXXXXXXXXXXXXXXXXXXXXXXXXXXXXXXXXXXXX",
"XXXXXXXXXXXXXXXXXXXXXXXXXXXXXXXXXXXXXXXXXXXXXXXXXXXXXXXXXXXXXXXXXXXXXXXXXXXXXXXXXXXXXXXXXXXXXXXXXXXXXXXXXXXXXXXXXXXXXXXXXXXXXXXX",
"XXXXXXXXXXXXXXXXXXXXXXXXXXXXXXXXXXXXXXXXXXXXXXXXXXXXXXXXXXXXXXXXXXXXXXXXXXXXXXXXXXXXXXXXXXXXXXXXXXXXXXXXXXXXXXXXXXXXXXXXXXXXXXXX",
"XXXXXXXXXXXXXXXXXXXXXXXXXXXXXXXXXXXXXXXXXXXXXXXXXXXXXXXXXXXXXXXXXXXXXXXXXXXXXXXXXXXXXXXXXXXXXXXXXXXXXXXXXXXXXXXXXXXXXXXXXXXXXXXX",
"XXXXXXXXXXXXXXXXXXXXXXXXXXXXXXXXXXXXXXXXXXXXXXXXXXXXXXXXXXXXXXXXXXXXXXXXXXXXXXXXXXXXXXXXXXXXXXXXXXXXXXXXXXXXXXXXXXXXXXXXXXXXXXXX",
"XXXXXXXXXXXXXXXXXXXXXXXXXXXXXXXXXXXXXXXXXXXXXXXXXXXXXXXXXXXXXXXXXXXXXXXXXXXXXXXXXXXXXXXXXXXXXXXXXXXXXXXXXXXXXXXXXXXXXXXXXXXXXXXX",
"XXXXXXXXXXXXXXXXXXXXXXXXXXXXXXXXXXXXXXXXXXXXXXXXXXXXXXXXXXXXXXXXXXXXXXXXXXXXXXXXXXXXXXXXXXXXXXXXXXXXXXXXXXXXXXXXXXXXXXXXXXXXXXXX",
"XXXXXXXXXXXXXXXXXXXXXXXXXXXXXXXXXXXXXXXXXXXXXXXXXXXXXXXXXXXXXXXXXXXXXXXXXXXXXXXXXXXXXXXXXXXXXXXXXXXXXXXXXXXXXXXXXXXXXXXXXXXXXXXX",
"XXXXXXXXXXXXXXXXXXXXXXXXXXXXXXXXXXXXXXXXXXXXXXXXXXXXXXXXXXXXXXXXXXXXXXXXXXXXXXXXXXXXXXXXXXXXXXXXXXXXXXXXXXXXXXXXXXXXXXXXXXXXXXXX",
"XXXXXXXXXXXXXXXXXXXXXXXXXXXXXXXXXXXXXXXXXXXXXXXXXXXXXXXXXXXXXXXXXXXXXXXXXXXXXXXXXXXXXXXXXXXXXXXXXXXXXXXXXXXXXXXXXXXXXXXXXXXXXXXX",
"XXXXXXXXXXXXXXXXXXXXXXXXXXXXXXXXXXXXXXXXXXXXXXXXXXXXXXXXXXXXXXXXXXXXXXXXXXXXXXXXXXXXXXXXXXXXXXXXXXXXXXXXXXXXXXXXXXXXXXXXXXXXXXXX",
"XXXXXXXXXXXXXXXXXXXXXXXXXXXXXXXXXXXXXXXXXXXXXXXXXXXXXXXXXXXXXXXXXXXXXXXXXXXXXXXXXXXXXXXXXXXXXXXXXXXXXXXXXXXXXXXXXXXXXXXXXXXXXXXX"
};
