/* XPM */
static char *look_left[] = {
/* columns rows colors chars-per-pixel */
"64 64 13 1 ",
"  c black",
". c #010101",
"X c #2A2A2A",
"o c #680000",
"O c #5B2E2E",
"+ c gray29",
"@ c red",
"# c #C73535",
"$ c #FF5700",
"% c #A25050",
"& c #FFB100",
"* c #08F89F",
"= c None",
/* pixels */
"================================================================",
"================================================================",
"================================================================",
"================================================================",
"==========================&======$XX============================",
"==========================$=====X$.X.===========================",
"=========================&X====OO&.XX===========================",
"=========================&X===OOX&X$X.==========================",
"=========================&X.=.XX&OX%$X==========================",
"==========================$X..&&OO$%...X========================",
"==========================X$O@$XO&$....XX=======================",
"===========================XOX@$&Xo.@..XXX======================",
"============================XXX@@@.@@@#.X#======================",
"=============================@@@.*.@@&.OX#======================",
"==========================XXX=.oo...$.OO$=$XX===================",
"=========================XXXXX@@@o@..XO&=@&XXX==================",
"=========================XXXXXX@o@..X$&@.@&XXX==================",
"=========================XXXX@@@@..oo.@@.@o$##==================",
"==========================XXXoooX.o@o@@@@.oo@===================",
"==========================XX@@@@o@.o@@@@@@..====================",
"========================XXX@ooXX@@@..@@@@.@@@@@=================",
"========$$=============XXXX@@@@@@@oo@.@@.@@..oo=================",
"========$$X============XXXX@@@@@@ooo@..@.@.@@@@@================",
"=========$XXX=====oo===XXXXX@o..@ooo.....o@@&&$%@===============",
"===========XXXX===oo=====XX.o.XX..o@.==...@&==..%===============",
"=============XXXXooo...====...@@o..X===...$..===================",
"===============XXoo...........XX...====......@@@================",
"================ooo..oo......@@@o..X=====...@@@@@===============",
"================oo...ooooo...XXXX..%X=====..@@@@@===============",
"================oo....ooooo.......%XXX====...@@@@===============",
"================oo==..==oo@.%..%.XXX@@@====...@@o===============",
"================o========@@.XXXX...@@@$@====....o===============",
"========================@@o..XXX..@@@$@@@@===@@@.===============",
"=======================@@@oX..X...@@@@@@@@@oo@@..===============",
"=======================@@@.X.....X@@@.....@ooo..oooo$%==========",
"========================.oXXX..X%X@..@@@@o=ooo.XXooo$%==========",
"=======================@@.XXX..X%%.@@@@@@@===XXXX=%%%===========",
"======================@@@.XX....%%X@@@@@@@@=XX.XXX==============",
"======================.@o.XX....%%XX@@oooo@@==XXXX==============",
"=======================...XX....X%XXX@....o@=X..X===============",
"=========================........XXX.......@=X=X.===============",
"=========================.....XX=.......=======X================",
"======================o..oo..X..=.@...@@========================",
"======================o@@oo..X..==@@@@@@X=======================",
"======================o@@oo...XX==@@@@@@XX======================",
"=======================..oo......=@....@@X======================",
"=====================o@@o.o......=..@@@.@X======================",
"=====================o@@oo.......=@@@@@@.X======================",
"=====================o@@ooo+.....=@@@@@@@=======================",
"=====================o++ooo+.....=@@XXX@@=======================",
"=====================++++oo+.....=@XXXXX@=======================",
"=====================++++++++...====X%XX========================",
"=====================++++++++...++==X%XX========================",
"=====================+++++++oo..+===.@@o========================",
"=====================+++++++oo..++==.@@o========================",
"=====================++++++oooo.o++=o@@oo=======================",
"======================+++++..oo.o+++ooXXX=======================",
"=======================+XXXX..X.o+++XX%%%X======================",
"========================......X..=++XX.X.X======================",
"================================================================",
"================================================================",
"================================================================",
"================================================================",
"================================================================"
};
