/* XPM */
static char *look_back[] = {
/* columns rows colors chars-per-pixel */
"64 64 9 1 ",
"  c #010101",
". c #2A2A2A",
"X c #680000",
"o c gray29",
"O c red",
"+ c #C73535",
"@ c #FF5700",
"# c #A25050",
"$ c None",
/* pixels */
"$$$$$$$$$$$$$$$$$$$$$$$$$$$$$$$$$$$$$$$$$$$$$$$$$$$$$$$$$$$$$$$$",
"$$$$$$$$$$$$$$$$$$$$$$$$$$$$$$$$$$$$$$$$$$$$$$$$$$$$$$$$$$$$$$$$",
"$$$$$$$$$$$$$$$$$$$$$$$$$$$$$$$$$$$$$$$$$$$$$$$$$$$$$$$$$$$$$$$$",
"$$$$$$$$$$$$$$$$$$$$$$$$$$@@$$$$$$$$@@$$$$$$$$$$$$$$$$$$$$$$$$$$",
"$$$$$$$$$$$$$$$$$$$$$$$$$$@@$$$$$$$$@@$$$$$$$$$$$$$$$$$$$$$$$$$$",
"$$$$$$$$$$$$$$$$$$$$$$$$$$@@$$OOOO$$@@$$$$$$$$$$$$$$$$$$$$$$$$$$",
"$$$$$$$$$$$$$$$$$$$$$$$$$$$@@OOOOOO@@$$$$$$$$$$$$$$$$$$$$$$$$$$$",
"$$$$$$$$$$$$$$$$$$$$$$$$$$$XOOOOOOOOX$$$$$$$$$$$$$$$$$$$$$$$$$$$",
"$$$$$$$$$$$$$$$$$$$$$$$$$$XOOOOOOOOOOX$$$$$$$$$$$$$$$$$$$$$$$$$$",
"$$$$$$$$$$$$$$$$$$$$$$$$$OOOOOOOOOOOOOO$$$$$$$$$$$$$$$$$$$$$$$$$",
"$$$$$$$$$$$$$$$$$$$$$$$$$OXOOOOOOOOOOXO$$$$$$$$$$$$$$$$$$$$$$$$$",
"$$$$$$$$$$$$$$$$$$$$$$$$$OXOOOOOOOOOOXO$$$$$$$$$$$$$$$$$$$$$$$$$",
"$$$$$$$$$$$$$$$$$$$$$$$$OOXOOOOOOOOOOXOO$$$$$$$$$$$$$$$$$$$$$$$$",
"$$$$$$$$$$$$$$$$$$$$$$$XOXXOOOOOOOOOOXXOX$$$$$$$$$$$$$$$$$$$$$$$",
"$$$$$$$$$$$$$$$$$$$..@$OOXXXOOOOOOOOXXXOO$@..$$$$$$$$$$$$$$$$$$$",
"$$$$$$$$$$$$$$$$$$...@@+X  XOOOOOOOOX  X+@@...$$$$$$$$$$$$$$$$$$",
"$$$$$$$$$$$$$$$$$$...@OOO  XXOOOOOOXX  OOO@...$$$$$$$$$$$$$$$$$$",
"$$$$$$$$$$$$$$$$$$++OOOOOO XOXOOOOXOX OOOOOO++$$$$$$$$$$$$$$$$$$",
"$$$$$$$$$$$$$$$$$$$OOOOOOOOOOOXXXXOOOOOOOOOOO$$$$$$$$$$$$$$$$$$$",
"$$$$$$$$$$$$$$$$$$$XXXOOOXOOOOOOOOOOOXOOOOXXX$$$$$$$$$$$$$$$$$$$",
"$$$$$$$$$$$$$$$$$OOOOOXOOOOOOOOOOOOOOOOOOXOOOOO$$$$$$$$$$$$$$$$$",
"$$$$$$$$$$$$$$$$$XXXXOOXOXOOOOOOOOOOOOXOXOOXXXX$$$$$$$$$$$$$$$$$",
"$$$$$$$$$$$$$$$$OOOOOXOXX..OOOOOOOOOO..XXOXOOOOO$$$$$$$$$$$$$$$$",
"$$$$$$$$$$$$$$$O@@@@OOX   XXOOOOOOOOXX   XOO@@@@O$$$$$$$$$$$$$$$",
"$$$$$$$$$$$$$$$@  $$@O   $.XXOOOOOOXX.$   O@  $$@$$$$$$$$$$$$$$$",
"$$$$$$$$$$$$$$$$$$$  @   $ XXXOOOOXXX $$  @   $$$$$$$$$$$$$$$$$$",
"$$$$$$$$$$$$$$$$$OOX     $XXXOOOOOOXXX$$$   OOO$$$$$$$$$$$$$$$$$",
"$$$$$$$$$$$$$$$$OOOX   $$$XXXOOOOOOXXX$$$  OOOO$$$$$$$$$$$$$$$$$",
"$$$$$$$$$$$$$$$OOOXX  $$$$XXXOOOOOOXXX$$$  XOOO$$$$$$$$$$$$$$$$$",
"$$$$$$$$$$$$$$OOOXX   $$$$. #OOOOOO# .$$$  XOOO$$$$$$$$$$$$$$$$$",
"$$$$$$$$$$$$$$OOXX   $$$@OOO.OOOOOO OOO@$X  XO$$$$$$$$$$$$$$$$$$",
"$$$$$$$$$$$$$$OXX   $$$OO@OOO OOOO OOO@OO XX X$$$$$$$$$$$$$$$$$$",
"$$$$$$$$$$$$$$X   O$$$OO@OOOOO OO OOOOO@OOX##$$$$$$$$$$$$$$$$$$$",
"$$$$$$$$$$$$$$$  OO$$OOOOOOOOO OO OOOOOOOOO##$$$$$$$$$$$$$$$$$$$",
"$$$$$$$$$$$$$$$$  $$$OXXXXXOOO.OO.OOOXXXXXOX$$$$$$$$$$$$$$$$$$$$",
"$$$$$$$$$$$$$$$.. $$OXXOOOOXXO.OO.OXXOOOOOXO$$$$$$$$$$$$$$$$$$$$",
"$$$$$$$$$$$$$$$....$$OOOOOOOOXOOOOXOOOOOOOO$$$$$$$$$$$$$$$$$$$$$",
"$$$$$$$$$$$$$$... ..OOOOOOOOO.OOOO.OOOOOOOOO$$$$$$$$$$$$$$$$$$$$",
"$$$$$$$$$$$$$$....$$OOXXXXOO.OOOOOO.OOXXXXOO$$$$$$$$$$$$$$$$$$$$",
"$$$$$$$$$$$$$$$.  .$OX    O..OOOOOO..O    XO$$$$$$$$$$$$$$$$$$$$",
"$$$$$$$$$$$$$$$ .$.$O$$     .OOOOOO.     $$O$$$$$$$$$$$$$$$$$$$$",
"$$$$$$$$$$$$$$$$.$$$$$$$       $$       $$$$$$$$$$$$$$$$$$$$$$$$",
"$$$$$$$$$$$$$$$$$$$$$$$$X    X $$ X    X$$$$$$$$$$$$$$$$$$$$$$$$",
"$$$$$$$$$$$$$$$$$$$$$$$.X    X$$$$X    X.$$$$$$$$$$$$$$$$$$$$$$$",
"$$$$$$$$$$$$$$$$$$$$$$..X    X$$$$X    X..$$$$$$$$$$$$$$$$$$$$$$",
"$$$$$$$$$$$$$$$$$$$$$$.XX    X$$$$X    XX.$$$$$$$$$$$$$$$$$$$$$$",
"$$$$$$$$$$$$$$$$$$$$oo.X      $$$$      X.$$$$$$$$$$$$$$$$$$$$$$",
"$$$$$$$$$$$$$$$$$$$ooo.      X$$$$X      .$$$$$$$$$$$$$$$$$$$$$$",
"$$$$$$$$$$$$$$$$$$oooooX     X$$$$X     X$$$$$$$$$$$$$$$$$$$$$$$",
"$$$$$$$$$$$$$$$$$ooooooX ... X$$$$X ... X$$$$$$$$$$$$$$$$$$$$$$$",
"$$$$$$$$$$$$$$$$$ooooooX.....X$$$$X.....X$$$$$$$$$$$$$$$$$$$$$$$",
"$$$$$$$$$$$$$$$$$ooooooo....o$$$$$$$....$$$$$$$$$$$$$$$$$$$$$$$$",
"$$$$$$$$$$$$$$$$$ooooooo....oo$$$$$$....$$$$$$$$$$$$$$$$$$$$$$$$",
"$$$$$$$$$$$$$$$$$oooooooX   ooo$$$$$   X$$$$$$$$$$$$$$$$$$$$$$$$",
"$$$$$$$$$$$$$$$$$$ooooooX   oooo$$$$   X$$$$$$$$$$$$$$$$$$$$$$$$",
"$$$$$$$$$$$$$$$$$$oooooXX  Xooooo$$$X  XX$$$$$$$$$$$$$$$$$$$$$$$",
"$$$$$$$$$$$$$$$$$$ooooo...XX$ooooo$$XX...$$$$$$$$$$$$$$$$$$$$$$$",
"$$$$$$$$$$$$$$$$$$$$oo......$$$ooooo......$$$$$$$$$$$$$$$$$$$$$$",
"$$$$$$$$$$$$$$$$$$$$$o      $$$$$ooo      $$$$$$$$$$$$$$$$$$$$$$",
"$$$$$$$$$$$$$$$$$$$$$$$$$$$$$$$$$$$$$$$$$$$$$$$$$$$$$$$$$$$$$$$$",
"$$$$$$$$$$$$$$$$$$$$$$$$$$$$$$$$$$$$$$$$$$$$$$$$$$$$$$$$$$$$$$$$",
"$$$$$$$$$$$$$$$$$$$$$$$$$$$$$$$$$$$$$$$$$$$$$$$$$$$$$$$$$$$$$$$$",
"$$$$$$$$$$$$$$$$$$$$$$$$$$$$$$$$$$$$$$$$$$$$$$$$$$$$$$$$$$$$$$$$",
"$$$$$$$$$$$$$$$$$$$$$$$$$$$$$$$$$$$$$$$$$$$$$$$$$$$$$$$$$$$$$$$$"
};
