/* XPM */
static char *walk_right_1[] = {
/* columns rows colors chars-per-pixel */
"64 64 13 1 ",
"  c black",
". c #010101",
"X c #2A2A2A",
"o c #680000",
"O c #5B2E2E",
"+ c gray29",
"@ c red",
"# c #C73535",
"$ c #FF5700",
"% c #A25050",
"& c #FFB100",
"* c #08F89F",
"= c None",
/* pixels */
"================================================================",
"================================================================",
"================================================================",
"================================================================",
"============================XX$======&==========================",
"===========================.X.$X=====$==========================",
"===========================XX.&OO====X&=========================",
"==========================.X$X&XOO===X&=========================",
"==========================X$%XO&XX.=.X&=========================",
"========================X...%$OO&&..X$==========================",
"=======================XX....$&O$OOO$X==========================",
"======================XXX..@.oX&$@OOX===========================",
"======================#X.#@@@.@@@XXX============================",
"========================X.&@@.*.@@@=============================",
"========================%##$...oo.=XXX==========================",
"======================XXX&X..@o@@@XXXXX=========================",
"=====================XXXXX&Xo.@o@XXXXXX=========================",
"=====================%XXX&@@oo.@@@@XXX==========================",
"======================##$o@@@o@ooooXX===========================",
"=======================@...@.@o@@@@@XXX=========================",
"======================@@@@@.@@@@XXXo@XXX========================",
"=====================@oooo@@o@@@@@@@@XXX========================",
"=====================@@@@@o@oo@@@@@@@XXX==============$$========",
"=====================@@@@@@o.oo@..o@XXXX=============X$$========",
"=====================%%%%@@.@...XX.o.XX=====oo=====XXX$=========",
"=====================%ooo%@...o@@@...X======oo===XXXX===========",
"====================@o@@@o%=...XXX..X====...oooXXXX=============",
"===================@@@@@@@===.o@@@...........ooXX===============",
"===================@@@@@@===...XXXX......oo..ooo================",
"===================@@@@@@==XX%........ooooo...oo================",
"===================....o==@@@@@@.%.%.ooooo....oo================",
"===================.o.===@@$$$$@@XXX.@oo==..==oo================",
"===================o@o===@$$@@$@@@X..o@========o================",
"==========%$ooooooo@@@ooo@$@$@@@oo@.X.o@========================",
"==========%$ooooooo...ooo@$@@@@o@@o@X.o@========================",
"==========%%%======...===@$$@@o@@@@o@Xo@========================",
"===================XXXX==@@@@o@@@@@@o.o@========================",
"===================....==X@@o@@@@@@@@o@=========================",
"===================XXXX==XX@o@@@@ooo@@==========================",
"=========================.XXo@@@ooXXo@==========================",
"=========================..X.@@ooXXXXX==========================",
"==========================.Xoo@oXXXXXX==========================",
"==========================..Xo@oXXX@@X@=========================",
"==========================..XXo.XXXo@@@=========================",
"==========================XX.oX.=.Xo@@@=========================",
"=========================....oo==.Xo@..=========================",
"====================++++....o@o==.Xo@@@@========================",
"===================+++++...o@@@==.Xo@@@@========================",
"==================+++++...o@@@o===oo@@@@========================",
"==================+++++.....@oo===o@@XX@========================",
"==================+++++.....o=====o@XXX=========================",
"==================+++++.....+======XXXX=========================",
"================+++++++..oo++======XXX==========================",
"==================++++o.oo+++======ooo==========================",
"==================++++o.o+++++=====ooo==========================",
"==================+++o.ooo+++++====oo..=========================",
"==================+++o.X...+++++===.....========================",
"===================++.X...XXX++++=X.X.XXXXX=====================",
"=====================+X......==+++..X......=====================",
"================================================================",
"================================================================",
"================================================================",
"================================================================",
"================================================================"
};
