/* XPM */
static char *walk_front_1[] = {
/* columns rows colors chars-per-pixel */
"64 64 13 1 ",
"  c black",
". c #010101",
"X c #2A2A2A",
"o c #680000",
"O c gray29",
"+ c red",
"@ c #C73535",
"# c #FF5700",
"$ c #A25050",
"% c #FFB100",
"& c #08F89F",
"* c #A4A4A4",
"= c None",
/* pixels */
"================================================================",
"================================================================",
"================================================================",
"=========================##========##===========================",
"=========================#%========%#===========================",
"=========================#%==++++==%#===========================",
"==========================#%++++++%#============================",
"==========================o#%++++%#o============================",
"=========================o+@#%%%%#@+o===========================",
"========================+++..#$$#..+++==========================",
"========================+o.++.##.++.o+==========================",
"========================+o.+&o..o&+.o++=========================",
"========================+o.++o++o++.o+++========================",
"=======================oooo+++oo+++ooo++o=======================",
"===================XX#=+o..o++..++o..oo++=#XX===================",
"==================XXX%@@..o.o*..*o.o..oo@@%XXX==================",
"==================XXX%+...oo.o++o.oo..o+o+%XXX==================",
"==================@@#o+.+.o++.++.++o.++++oo#@@==================",
"===================+oo.+++++++ooo+++++++++oo+===================",
"====================..++++++++++++++++++++o.====================",
"=================+++++.+++o++oXXX+++oo+++o+++++=================",
"=================oo..++.+oo+++++++++oXo+o++..oo=================",
"================+++++.+.oX+++++++++ooXXo.+.+++++================",
"===============+$#%%++o...oo+++++++oXo...o++%%#$+===============",
"===============$....%+...=XooXX..XXoXX=...+%..==$===============",
"================.....#..==.XX++++..XX.==..#...o=================",
"================++++...===o..........o===..+++o=================",
"===============+++++..====o..++++++..o===.+++++=================",
"==============++++++.=====o...XXXX...o===.+++++=================",
"==============+++++.======X.$..XX..$.X===.+++++=================",
"==============+++++.=====#+++..$XX$.+++=oooo++==================",
"==============++++..====#+#+++.....++++#o##o+===================",
"==============++++.===+++#+++++...++++++o##o+===================",
"===============++..==+++++++++++..++++++oooo====================",
"================XXXX=+++.....+++.X+++....++=====================",
"================XXXX=++.+++++.++$X+..++++.+=====================",
"================XXXX=+.+++++++.+$$.+++++++X+====================",
"======================+++++++++$$$X++++++++o====================",
"=====================+++ooooo+++$$XX++oooo++====================",
"=====================++o...XXo++X$XXX+....o+====================",
"=====================+o.....XXo+.XXX.....=======================",
"======================++....+..==.......========================",
"======================+++++++..==.++....+=======================",
"======================+++++++.====+++++++=======================",
"======================++++++++====+++++++X======================",
"======================+.....++====++....+X======================",
"======================X+++++.+====...+++.X======================",
"===================OOO+++++++=====+++++++X======================",
"==================OOOO+++++++=====+++++++=======================",
"=================OOOOO++XXXX+=====++XXX++=======================",
"================OOOOOO+OXXXX+=====+XXXXX+=======================",
"================OOOOOOOOXX$XO=======X$XX========================",
"================OOOOOOOOXX$XOO======X$XX========================",
"=================OOOOOOOo++.OO======.++o========================",
"==================OOOOOOo++.OOO=====.++o========================",
"===================OOOooo++oOOOOO===o++ooo======================",
"===================OOOXXXXoo==OOOOO=.ooXXXX=====================",
"====================OXX$$$XX====OOOO.XX$$$XX====================",
"=====================XX.X.XX======OO.X.X.XXX====================",
"================================================================",
"================================================================",
"================================================================",
"================================================================",
"================================================================"
};
