/* XPM */
static char *walk_right_0[] = {
/* columns rows colors chars-per-pixel */
"64 64 14 1 ",
"  c black",
". c #010101",
"X c #2A2A2A",
"o c #680000",
"O c #5B2E2E",
"+ c gray29",
"@ c #505050",
"# c red",
"$ c #C73535",
"% c #FF5700",
"& c #A25050",
"* c #FFB100",
"= c #08F89F",
"- c None",
/* pixels */
"----------------------------------------------------------------",
"----------------------------------------------------------------",
"----------------------------------------------------------------",
"----------------------------------------------------------------",
"-----------------------------XX%------*-------------------------",
"----------------------------.X.%X-----%-------------------------",
"----------------------------XX.*OO----X*------------------------",
"---------------------------.X%X*XOO---X*------------------------",
"---------------------------X%&XO*XX.-.X*------------------------",
"-------------------------X...&%OO**..X%-------------------------",
"------------------------XX....%*OX%*%%X-------------------------",
"-----------------------XXX..#.oX*%#XOX--------------------------",
"-----------------------$X.$###.###XXX---------------------------",
"-----------------------$XO.*##.=.###----------------------------",
"---------------------X%%$OO.%...oo.-XXX-------------------------",
"--------------------XXX%**O%..#o###XXXXX------------------------",
"-------------------XXXX*##*.o..#o#XXXXXX------------------------",
"-------------------$$$$####oo#..####XXXX------------------------",
"--------------------#oo#####o.ooooooXXX-------------------------",
"---------------------.######Xoo######X--------------------------",
"--------------------##.####..o###Xooo#XX--------------%%--------",
"-------------------%###.##.#ooo#######XXX------------X%%--------",
"-------------------*%##...#.#oo######XXXX---oo-----XXX%---------",
"-------------------**%o.##&&.#oo#o##XXXXX---oo---XXXX-----------",
"--------------------*%.##&###.o.XX.o.XX--...oooXXXX-------------",
"---------------------%##&##oo..oo##..........ooXX---------------",
"----------------------#&##o.#$..XX.......oo..ooo----------------",
"-----------------------&#o.###.oo##...ooooo...oo----------------",
"------------------------#o.####.XXX..ooooo....oo----------------",
"-------------------------..#####.....ooo--..--oo----------------",
"-------------------------#..####...&.#o--------o----------------",
"------------------------%##..####.XX.##-------------------------",
"-----------------------%####..###....o##------------------------",
"----------------------#######.....XX.oo##-----------------------",
"-------------------ooo###......X.XXX..oo#-----------------------",
"----------&%oooooooooo##.######&XXX..X..------------------------",
"-----------&%%oooooooo#.########....XXo##-----------------------",
"------------&&&&------.##########...XXoo##----------------------",
"----------------------##ooooooo##...XX..o##---------------------",
"----------------------#o.......o#...XXX..o#---------------------",
"----------------------#.....XXXX--o........---------------------",
"------------------------.......----oXX.....---------------------",
"------------------------X#...#.-----..X.oo.o--------------------",
"-----------------------X######-------..X.o##o-------------------",
"-----------------------X######-------o.X..o#o-------------------",
"------------------------#.....-------oX..o..--------------------",
"-----------------+++++--..####------o.....o##-------------------",
"----------------+++++++.######------o....o##o-------------------",
"----------------++++++XX######-----o....o##oo-------------------",
"---------------++++++XXX##XXX------o...oo-oo--------------------",
"--------------+++++oXXXX##X+-------....-------------------------",
"-------------+-+++oXXoXXXX+++------...--------------------------",
"---------------++oXXooX++++++------...--------------------------",
"---------------+..ooo++++++++-----...o--------------------------",
"---------------+.Xooo++++++++-----o.oo--------------------------",
"----------------X...++++++++++---o.oooo-------------------------",
"-----------------....+-----+++++-o.oX..-------------------------",
"------------------.XXXX------++++..X..XXXX---@------------------",
"-------------------....--------+++.X......----------------------",
"----------------------------------------------------------------",
"----------------------------------------------------------------",
"----------------------------------------------------------------",
"----------------------------------------------------------------",
"----------------------------------------------------------------"
};
