/* XPM */
static char *walk_left_1[] = {
/* columns rows colors chars-per-pixel */
"64 64 13 1 ",
"  c black",
". c #010101",
"X c #2A2A2A",
"o c #680000",
"O c #5B2E2E",
"+ c gray29",
"@ c red",
"# c #C73535",
"$ c #FF5700",
"% c #A25050",
"& c #FFB100",
"* c #08F89F",
"= c None",
/* pixels */
"================================================================",
"================================================================",
"================================================================",
"================================================================",
"==========================&======$XX============================",
"==========================$=====X$.X.===========================",
"=========================&X====OO&.XX===========================",
"=========================&X===OOX&X$X.==========================",
"=========================&X.=.XX&OX%$X==========================",
"==========================$X..&&OO$%...X========================",
"==========================X$OOO$O&$....XX=======================",
"===========================XOO@$&Xo.@..XXX======================",
"============================XXX@@@.@@@#.X#======================",
"=============================@@@.*.@@&.X========================",
"==========================XXX=.oo...$##%========================",
"=========================XXXXX@@@o@..X&XXX======================",
"=========================XXXXXX@o@.oX&XXXXX=====================",
"==========================XXX@@@@.oo@@&XXX%=====================",
"===========================XXoooo@o@@@o$##======================",
"=========================XXX@@@@@o@.@...@=======================",
"========================XXX@oXXX@@@@.@@@@@======================",
"========================XXX@@@@@@@@o@@oooo@=====================",
"========$$==============XXX@@@@@@@oo@o@@@@@=====================",
"========$$X=============XXXX@o..@oo.o@@@@@@=====================",
"=========$XXX=====oo=====XX.o.XX...@.@@%%%%=====================",
"===========XXXX===oo======X...@@@o...@%ooo%=====================",
"=============XXXXooo...====X..XXX...=%o@@@o@====================",
"===============XXoo...........@@@o.===@@@@@@@===================",
"================ooo..oo......XXXX...===@@@@@@===================",
"================oo...ooooo........%XX==@@@@@@===================",
"================oo....ooooo.%.%.@@@@@@==o....===================",
"================oo==..==oo@.XXX@@$$$$@@===.o.===================",
"================o========@o..X@@@$@@$$@===o@o===================",
"========================@o.X.@oo@@@$@$@ooo@@@ooooooo$%==========",
"========================@o.X@o@@o@@@@$@ooo...ooooooo$%==========",
"========================@oX@o@@@@o@@$$@===...======%%%==========",
"========================@o.o@@@@@@o@@@@==XXXX===================",
"=========================@o@@@@@@@@o@@X==....===================",
"==========================@@ooo@@@@o@XX==XXXX===================",
"==========================@oXXoo@@@oX=.=========================",
"==========================XXXXXoo@@.X..=========================",
"==========================XXXXXXo@ooX.==========================",
"=========================@X@@XXXo@oX..==========================",
"=========================@@@oXXX.oXX..==========================",
"=========================@@@oX.=.Xo.XX==========================",
"=========================..@oX.==oo....=========================",
"=====================+++@@@@oX.==o@o....========================",
"====================++++@@@@oX.==@@@o...========================",
"===================+++++@@@@oo===o@@@o...=======================",
"===================+++++@XX@@o===oo@.....=======================",
"===================++++++XXX@o=====o.....=======================",
"===================++++++XXXX+++====.....=======================",
"===================+++++++XXX++======oo..=======================",
"====================++++++ooo+========oo.o======================",
"====================++++++ooo++========o.o======================",
"=====================++++..oo+++======ooo.o=====================",
"======================++.....++++====...X.o=====================",
"=====================XXXXX.X.X+++++XXX...X.=====================",
"=====================......X..===++......X======================",
"================================================================",
"================================================================",
"================================================================",
"================================================================",
"================================================================"
};
