/* XPM */
static char *walk_left_0[] = {
/* columns rows colors chars-per-pixel */
"64 64 14 1 ",
"  c black",
". c #010101",
"X c #2A2A2A",
"o c #680000",
"O c #5B2E2E",
"+ c gray29",
"@ c #505050",
"# c red",
"$ c #C73535",
"% c #FF5700",
"& c #A25050",
"* c #FFB100",
"= c #08F89F",
"- c None",
/* pixels */
"----------------------------------------------------------------",
"----------------------------------------------------------------",
"----------------------------------------------------------------",
"----------------------------------------------------------------",
"-------------------------*------%XX-----------------------------",
"-------------------------%-----X%.X.----------------------------",
"------------------------*X----OO*.XX----------------------------",
"------------------------*X---OOX*X%X.---------------------------",
"------------------------*X.-.XX*OX&%X---------------------------",
"-------------------------%X..**OO%&...X-------------------------",
"-------------------------X%%*%XO*%....XX------------------------",
"--------------------------XOX#%*Xo.#..XXX-----------------------",
"---------------------------XXX###.###$.X$-----------------------",
"----------------------------###.=.##*.OX$-----------------------",
"-------------------------XXX-.oo...%.OO$%%X---------------------",
"------------------------XXXXX###o#..%O**%XXX--------------------",
"------------------------XXXXXX#o#..o.*##*XXXX-------------------",
"------------------------XXXX####..#oo####$$$$-------------------",
"-------------------------XXXoooooo.o#####oo#--------------------",
"--------------------------X######ooX######.---------------------",
"--------%%--------------XX#oooX###o..####.##--------------------",
"--------%%X------------XXX#######ooo#.##.###%-------------------",
"---------%XXX-----oo---XXXX######oo#.#...##%*-------------------",
"-----------XXXX---oo---XXXXX##o#oo#.&&##.o%**-------------------",
"-------------XXXXooo...--XX.o.XX.o.###&##.%*--------------------",
"---------------XXoo..........##oo..oo##&##%---------------------",
"----------------ooo..oo.......XX..$#.o##&#----------------------",
"----------------oo...ooooo...##oo.###.o#&-----------------------",
"----------------oo....ooooo..XXX.####.o#------------------------",
"----------------oo--..--ooo.....#####..-------------------------",
"----------------o--------o#.&...####..#-------------------------",
"-------------------------##.XX.####..##%------------------------",
"------------------------##o....###..####%-----------------------",
"-----------------------##oo.XX.....#######----------------------",
"-----------------------#oo..XXX.X......###ooo-------------------",
"------------------------..X..XXX&######.##oooooooooo%&----------",
"-----------------------##oXX....########.#oooooooo%%&-----------",
"----------------------##ooXX...##########.------&&&&------------",
"---------------------##o..XX...##ooooooo##----------------------",
"---------------------#o..XXX...#o.......o#----------------------",
"---------------------........o--XXXX.....#----------------------",
"---------------------.....XXo----.......------------------------",
"--------------------o.oo.X..-----.#...#X------------------------",
"-------------------o##o.X..-------######X-----------------------",
"-------------------o#o..X.o-------######X-----------------------",
"--------------------..o..Xo-------.....#------------------------",
"-------------------##o.....o------####..------------------------",
"-------------------o##o....o------######.-----------------------",
"-------------------oo##o....o-----######XX----------------------",
"-------------------+oo+oo...o++----XXX##XXX---------------------",
"-------------------++++++....+++++---X##XXXXo-------------------",
"-------------------+++++++...++++++---XXXXoXXo------------------",
"-------------------+++++++...+++++-------XooXXo-----------------",
"-------------------+++++++o...+++++--------ooo..----------------",
"--------------------++++++oo.o++++++-------oooX.----------------",
"---------------------++++oooo.o++++++-------...X----------------",
"----------------------+++..Xo.o--++++++----....-----------------",
"------------------@---XXXX..X..----+++++-XXXX.------------------",
"----------------------......X.-------++++....-------------------",
"----------------------------------------------------------------",
"----------------------------------------------------------------",
"----------------------------------------------------------------",
"----------------------------------------------------------------",
"----------------------------------------------------------------"
};
