/* XPM */
static char *exit1[] = {
/* columns rows colors chars-per-pixel */
"64 64 157 2 ",
"   c #010001",
".  c #0A0201",
"X  c #040900",
"o  c #0F0E00",
"O  c #040209",
"+  c #0B0708",
"@  c #0D0909",
"#  c #130500",
"$  c #140A02",
"%  c #1A0C00",
"&  c #140E0D",
"*  c #1D1204",
"=  c #1E140A",
"-  c #200E02",
";  c #231303",
":  c #281202",
">  c #201C00",
",  c #2C1B03",
"<  c #21140A",
"1  c #25190B",
"2  c #2B1D0B",
"3  c #381A00",
"4  c #301C0C",
"5  c #291B10",
"6  c #262200",
"7  c #2D210D",
"8  c #302006",
"9  c #3D2101",
"0  c #33240B",
"q  c #3D250B",
"w  c #38280E",
"e  c #2E2110",
"r  c #332211",
"t  c #352814",
"y  c #3C2C15",
"u  c #35281F",
"i  c #3C2A19",
"p  c #432402",
"a  c #492400",
"s  c #4A2B06",
"d  c #452B0A",
"f  c #4C2E0A",
"g  c #502F0C",
"h  c #40300F",
"j  c #4D310E",
"k  c #53320D",
"l  c #422712",
"z  c #442E15",
"x  c #492F14",
"c  c #432E1A",
"v  c #4A3015",
"b  c #4B341B",
"n  c #4D3B1D",
"m  c #553411",
"M  c #5A3B14",
"N  c #53391E",
"B  c #5D3C1C",
"V  c #433322",
"C  c #493421",
"Z  c #4E3E27",
"A  c #4B3B29",
"S  c #553B20",
"D  c #63421C",
"F  c #5B4126",
"G  c #5B4923",
"H  c #54452E",
"J  c #5C432A",
"K  c #5E572B",
"L  c #4F4138",
"P  c #5E4B3D",
"I  c #664620",
"U  c #6B4A25",
"Y  c #664B2D",
"T  c #6D4C29",
"R  c #714F2C",
"E  c #775225",
"W  c #72512C",
"Q  c #664F30",
"!  c #635437",
"~  c #6C5234",
"^  c #625A35",
"/  c #6C5B35",
"(  c #64533C",
")  c #6B523B",
"_  c #6E593E",
"`  c #765631",
"'  c #785631",
"]  c #7B5935",
"[  c #735C3B",
"{  c #7D5E3B",
"}  c #75623C",
"|  c #7C653D",
" . c #756B38",
".. c #5D5757",
"X. c #6A5543",
"o. c #665946",
"O. c #6E5B43",
"+. c #6E5F4A",
"@. c #715642",
"#. c #725B42",
"$. c #7A5E42",
"%. c #715C49",
"&. c #6C5E55",
"*. c #746145",
"=. c #7C6243",
"-. c #74634C",
";. c #7B664C",
":. c #7E694C",
">. c #756651",
",. c #7E6755",
"<. c #7E6A54",
"1. c #7E6958",
"2. c #805E3A",
"3. c #816037",
"4. c #83633C",
"5. c #89673A",
"6. c #8B6A3F",
"7. c #83743E",
"8. c #826644",
"9. c #836B43",
"0. c #8B6B44",
"q. c #82664A",
"w. c #846A4B",
"e. c #8B6D4C",
"r. c #916F4A",
"t. c #877044",
"y. c #8D7344",
"u. c #8D714B",
"i. c #917746",
"p. c #93724E",
"a. c #947B4C",
"s. c #846D52",
"d. c #8A6F54",
"f. c #847150",
"g. c #8C7354",
"h. c #8C715C",
"j. c #947553",
"k. c #987653",
"l. c #977954",
"z. c #9B7A55",
"x. c #93755A",
"c. c #957A5C",
"v. c #9C7C5B",
"b. c #A07F5C",
"n. c #8E7C66",
"m. c #907560",
"M. c #947A60",
"N. c #9B7C61",
"B. c #857A74",
"V. c #9E805C",
"C. c #A3825E",
"Z. c #9D8875",
"A. c #A38562",
"S. c #A88764",
"D. c #A2876A",
"F. c #B18F6A",
"G. c #AC8F71",
/* pixels */
"3 s 3.a.7.7. .K > o . X X X X X X X   X   X X X   X X   X   X   X X O X X X   X X   X   X X O X X X X X X X X X 6 ^ /  .z.4.a p ",
"=.z.5.i.i.| } ! ; .   O O O                 O                                                     X         . . * H *.f.y.0.E 6.",
"$.2.6.a.t.7.G 8 % .   O O     X                   X                                             O             . * t *.=.u.0.5.3.",
"q.e.e.9.t.| f.0 $ . O O O                                                                           X       .   % * *.=.w.p.0.3.",
"s.e.q.u.| / 6 0 $ #   O O                                                                       O   X         . $ 2 , _ 9.9.e.{ ",
") d./ [ } h w 2 # .   O O O                                                                     O   O O   X . . % 1 r z s.~ =.{ ",
"q l b N n w 2 1 . . O O O                                                                         O         .   . = ; 2 b z l p ",
"r c i y y t * % . .   O     O X                                                                                 $ o * r t c z q ",
"- r i t e 2 * .       O O     O                                                                   O   O O     .   . $ ; 5 i 4 - ",
"# = 1 < % % . . .     .   O O                                                                   O   O             . . $ 1 5 ; % ",
". . $ #   . .             O   O                                                                   O   O   O   .   . . . # $ # # ",
". . . .                     O                                                                 O   O O   O     . .     . . . . # ",
"  . .       O           O   O                                                                   O O   O     O O O .   .     . # ",
"        O O   O           O O O                                                                   O   O O               O     . ",
"    O O O O O             O   O                                                                   O O O   O   O O O O O O   O . ",
".   O   O O O O             O                                                                   O   O   O   O   O     O O O   . ",
"            O                                                                                                               O . ",
"                                                                                                                                ",
"                                                                                                                    O         . ",
"                                                                                                                                ",
"                                                                                                                          O     ",
"                                                                                                                      .   X   . ",
"                                                                                                                              . ",
"                                                                                                                                ",
"                                                                                                                              . ",
".                                                                                                                             . ",
"                                                                                                                              . ",
"                                                                                                                                ",
"                                                                                                                              . ",
"                                                                                                                              . ",
"                                                                                                                          .   . ",
"                                                                                                                                ",
"                                                                                                                              . ",
"    O O       X                                                                                 O             .   . .           ",
"  O                   X                                                                         O                             . ",
"    O O         X                                                                               X       O                     . ",
"      O                 X                                                                                                 O     ",
"                                                                                                            O     O   O         ",
"                                                                                                      X   O     O             . ",
"                                                                                                        X O O   O             . ",
"  X   O + . +                                                                                         O       O     +       . . ",
"+           @ O                                                                                     X     O             . . . . ",
". . .   .   +             O                                                                             O                 # # . ",
"+   @ +     + X                                                                                   .     O       + . . . # # % - ",
"  . & . & +           O       O                                                                         O           O # - - : : ",
".   +   +     +             O                                                                                     . = u P X.@.@.",
"..& $   .   +           O                                                                                 O     . & u X.s.h.x.h.",
"B.&.L # # . . #           O O                                                                       .           $ 2 A %.h.m.x.v.",
"D.D.s.$.$.#.! % $ #     +     O                                                                 X .         . . 7 %.Q q.x.z.N.x.",
"n.m 2.b.S.A.[ s.; #   . .                                                                       O   . O     . % b ) 8.{ k.0.z.l.",
"M.0.b.b.C.l.=.*.A *   . .   O                                                                     . O .     o ; ( s.D.| 2.F.z.e.",
"q.0.z.b.A.k.g.,.H *         O                                                                       O       $ ; o.w.c.A.] W ] r.",
"x g k.b.b.8.q.%.; $ . . .     O                                                                 .       . . $ $ n.J G.j.b.F.T { ",
"S m z.] ' ' / @.# .   .                                                                         .           . # ; s.x.v.p.' k.T ",
"S B 2.p.S.j.h.>.% #       O O                                                                   O .     . . . % y =.` A.k.' ] ~ ",
"x D 0.z.b.b.c.s.# . .     + .                                                                       O .     . % _ Q { T 4.] a d ",
"x T p.z.b.N.m.s.# . .                     .                               O                       .   .   . . o.*.g.x.4.T I k p ",
"x I r.k.N.N.s.C # #       O .         O                                   X                     O O       . $ +.;.c.V.0.0.W j p ",
"x U 0.p.k.x.@.c # #     O                                                                 O               . = >.;.c.l.3.6.D 9 p ",
"N D B 2.e.e.S 4 # .   .         .                                               O X       X               o 1 -.:.c.l.4.` m s v ",
"F D B U T S l : # .   .     .                                         .   O   X                 O       . . 2 ( ;.e.l.0.D k j j ",
"S g m R 0.$.) 4 # .     O           O                                                   .                 . 1 Z :.8.a.0.D s f d ",
"x g D r.N.x.m.X.# .   .                                                             .           O         . % 0 _ | V.a.| p s d ",
"v g M b.A.N.h.,.# .   . . . . . .   .   .   .   .       .         .   .       . .         .     .   .   . . $ ; x Y A.z.l.9 9 q "
};
