/* XPM */
static char *floor2[] = {
/* columns rows colors chars-per-pixel */
"64 64 67 1 ",
"  c #362D25",
". c #382F26",
"X c #393027",
"o c #3C342B",
"O c #3D392E",
"+ c #40372E",
"@ c #41382F",
"# c #443C33",
"$ c #483F36",
"% c #474137",
"& c #494037",
"* c #474338",
"= c #4C443B",
"- c #4E493E",
"; c #50473E",
": c #51483F",
"> c #544C43",
", c #584F46",
"< c #565046",
"1 c #595047",
"2 c #5C544B",
"3 c #5E594E",
"4 c #60574E",
"5 c #61584F",
"6 c #645C53",
"7 c #685F56",
"8 c #676056",
"9 c #696057",
"0 c #6C635A",
"q c #70675E",
"w c #71685F",
"e c #746B62",
"r c #786F66",
"t c #7A6F6A",
"y c #797067",
"u c #7D746A",
"i c #80776E",
"p c #81786F",
"a c #807570",
"s c #857C73",
"d c #887F76",
"f c #878076",
"g c #898077",
"h c #8C837A",
"j c #90877E",
"k c #91887F",
"l c #958C83",
"z c #988F86",
"x c #998F88",
"c c #969086",
"v c #9A9087",
"b c #9C938A",
"n c #A0968D",
"m c #A2988F",
"M c #A59B92",
"N c #A99E95",
"B c #AAA097",
"V c #ADA39A",
"C c #B1A69D",
"Z c #B2A89F",
"A c #B5AAA1",
"S c #BAADA5",
"D c #BCB0A7",
"F c #BEB2AA",
"G c #C1B4AC",
"H c #C6BAB1",
"J c #D2C3BC",
/* pixels */
"lzbk0wnbbbbbzlbzxxzzblnh7kZCNmBNBNNNMNbbl4eGCmmNmmMMmNMNmMMNNnbb",
"zbbk0jxnbxbzzbzbzzxbxzkk5pAmbmnmmmMNbVbbz4jGNNMnnbbnlNnnzmMnbbbb",
"lbbd7llxbzlbnzzbbnbzkkkd;$ylvvvcvbbbnmbbl,mCNNNnbnzlxnnmMBNbbbbb",
"cbhe6nxzxzlzznkhsire064,##@:200wysyyhhhgt;mSmNmblnnxnnnMNnlzbbbb",
"lsu>>rshhgi774,&#&0ajjjlljskhgsure680622#;jAbNMbbbxnxxxbvvlvljkb",
"06>Oo&>254414,1=.2zACCACCZCCCCACVNMBnzhy#OrhMVbdddddjjhhgdssiryi",
"00euhllzxnjgllki$0NAVCCCVNCCAZBBCVAVAVVh,,200e227766422,1>>,64wr",
"mMmMMmbbnnnznlnze>lNmNNVBBBBBBMBMbMbMnbs25,26666777qqqqq> =yknBN",
"vbbmnnblvbnbvvvki:7lMnbbnbbbbnbnbmbbzhg6,uzcvbbbbclbbbbby=gMnbbb",
"lbnmbbbbvnnnblbvlp4rMMbbxzkkvvzkhdye551o>gmbbzbbbbzbbblb0,bbbbzb",
"lbbbbnbbbnnbvlvlzzq,qrspawqqerir00eryuy2*smbzznbbbbzzzlh6>zlbbvb",
"vbbbjknlbmvkkvvldr>+.+5ddjbNBVVVBMNMMmMl2dmbzzxxzbzbczllu1llbbbb",
"vbvvlblvnlzhjpyq7qii2,BGAVCCVMMMNNNNMMMb40dhdhjshbvbvvhvs2lbzbzv",
"kvvlbbvljdirq0epjvvna6MNNxBMMMMMVCNNmMMz6o$>>2>$,yhllzlhe>yvlzzz",
"vbbbbkdw5qyshkbvnvzbaaMMMMNNNMMMNNMNbMbns>uhhsq$#,240w6-+$kblzbb",
"ljpe97qrilvbblvvbvznpjMMNNNMMMMMMMbMbbbbl6xSAACzlMbldr6=#&vNNBBN",
"656wuhkvvvvvbkknbnbkwfBNNmmnnbbbnnnnvnnnk5zZCCCCCCCCAMVbs>lMbxdy",
"wphkbckvvbbbbvvbvvke*wZMbbbbvbnnMnNnvjsi7;dZCCCCVCCVAVCVm66q6226",
"kvvbbbbbvcvbvvvbvvk5+:mDSAMbldai6:776:::$@0BBBVmNCCCCblMb0o1eshl",
"bvbbbbbbvvvvbbbkkky:8*%qrq07665;+4nnnkkkjr4znnnnnnmMbzlbh22dlzzx",
"sjlbfwghfpywrw054:*%:58e7,dvmMVx67VMbnznnj6qgmmnnblhlbls6@260eys",
"1144-@##:wwyyuupfgjbBVZZVnZZZCCZj,knnxzzzj7#whjkjd0e0re02606#262",
"sggghr@%kZCVZZASZZZZZCZCCCCCCVZCM7rxkkjjdw;#100962$##6dlzbMbuhlh",
"bnnbbl2iAbBCZZZVCZBBCBBZZMNCMnAZN51yi6,60idskvvvlsd4&lnbbbbbzbbb",
"lvbbzz0jAmBCCCCVBCvbVNmBBNNBMzVVnr@$>6ukbnbbkbbbbbbf;dbvbbbxnbnb",
"jjbvzh6bCCCCCCCVVBbnnbbbbbbbnbbbbp;4knbbkvnbkbbvbbbf;ybbbbnzllbx",
"lzzzli,nVCCCCBNMnbbbbbbbbbbbbbbbld,ymbbbhvbbnnnvbbvh:hnvblzxbllb",
"lvvzly;6iBBnnMMmbbbbvbbbbnmmmbvky4@5vvnmbvbbkbbvvbkf-uvbbxbxzbll",
"lkguw,##2fbmMmkgjcbbbbnnmvkhhhu4#1q&dnnbbbbbbbvvkjfu@@20pjdjbkkz",
"2>44uldq2:,14544wygjhgpw4::>:=@XX&,@=yiryyeww95522:*++Xo@=&4qwrq",
"8&gbVSGSCmh0:&#+@%=:-@@;->242,0wq0wyyuui924:=@X:r5fkkjihkjdw470q",
"u:nBbNVCBmBVBvhdiipi%$dmbbbbzkbnnNBmmnnlbjvkhp<wVbmZCZCZZZCNbbmB",
"7$kSNMNVNnMNNNMNmNNM;qSNkNkkkNVkvlbbbnbbbbbzbb7wAVNANCCCCNNCNCCN",
"d:iSNBZNNNNMMMMNNMMk=6VkkkNNkkNMbvbbblbbbbbbbx04NSACCCmnCVCCCVVM",
"k,iCnVNnmMNMmnnmkmkg#;NNNMVkMkMklvbbkdbxxbzczz0yGCCCCCMMBBBNbnnb",
"j1iGnnnnbnnnknnnkmkk,;VkkMkMkMMkzblbzknzczxxzz9wCVBCMvnnbbknvbbv",
"i;9MVnnMbknnnknkMkkk;#kMMkkkkMkkzbmlbbnblllclf-3nNMMnvvnvvznzdjj",
"@:16hkknCCVVNhiisi04#oiNkNkNkMkNkgbbvjgvmmbhu8XO:467sjjdhhddi241",
"@66@=474qiqq62$;;ihhhi;7iCSCNkkjw4601>,1531263506,#+;:,>44,:$+++",
"jdpi114:;$#+$dkkmSCCCCgi1pksq7517wig6X&180yylMVVZnwie:.+qpsddwdj",
"knnndjvkkkh0,VCCCCCCVVBCk4;wihkjlbnvw2lBBgMMAVBVCmbCM9+,kNnnvvnn",
"vvvnndvmkkni>kCVVMNCMVCCNi0kMkmkzbvp6lVVBbZAAAVNVCCCd$:hnnvbvbnv",
"knvbnvnnnnkd,kCCMknkMCMmk0hkkhhkkku4hACVZMmVCVVAVVBb4$rvvvvbvvzv",
"kvvvknmkknMk2kAVkjmNkkjdw;570276<=#wVCZCmbbbbbMbbmny@1jkjvvzzzkz",
"kvkkvnvknnnk,6iii:274,1257qihkkks2 0NVCVbbbbbbbblbh>:jnkdxlzzzzz",
"vvvvvvnkknkk1@$74isdsdkkmNkNkkMNly@=gCCmbmbbbbzbvh6o0xnkzllzzvzz",
"knkvvvkvMkkj50kkjkkNMmkNmkNkkkkkks:=bMnnMBMMbhusu1X.$wiirwshjjjj",
"4qisjksdkkkj2iNmkmNkkkmkmkkmkmkkzle-hnkugluw6,>*&==&++++@@=:>,45",
"ir7$@==18eup20bbkjkkkkjkkkkkkkkhjgi;:2:&@#=,59ihjckhpq$@7pgdgsup",
"kns=>e6ppw>:&:661;569699wq9i65675:&o%:6eiikVMnmCmbbbbl54hmbbnbbb",
"znkw9mvnmmljhhdyiq2=94fjggpii7pfw95+=kCmkNNkkmkkbbvkbb7:snblbbbv",
"kznk4vbbvbbbbvbbNkk,,kkMkCkkBkkknkh:%yCVkMMkMkMkbbbbnx62jblbchzb",
"kxbl0pbvblblllbbNkk50BBkkBkNkNNkkkkro0NkMkNkkMMNmvbzlj:;eshhkzvz",
"ddrs07kjkmbnnblbkkkq8kkkBkNkkkkNknhr@5NkkMNknkkmbvzjp0=4224420uk",
":4::&$:==7qwiddsgkf1;fkBkkNNNNkkmkkj2&hmNkkmMmnkzzzje>dMnbjur6<-",
"hMMnjkkd2&4wqq0086:O:kBkkNkkkkkNkmkki@qNNMkkkkMNMnjp2eNCVCCVVVh$",
"MVVBBNmmsynnbbvvkk5X1kkkkBkkkNkkMkkkj;:fjgMmnksigu8<o8kkjjlxbbh,",
"8rphlcvlr4gblkhghheo=fjkkkkkkkkknkjhf2o=:7ssir6;;=@#@&;*>,260ee>",
"6666:,42=$,57760q5:1:21:3:2406560q777+&51:##7kCnlhsuyy06eeeee0ee",
"kslk2@4ygkgrklzvkkkkkge:O6fkkhfq29641=;10w+=kDZAZGHFZCBBNVNNNNMn",
"bmNMi8nbbbnkbblnkNkNkBkk;kCNCVNNkmMmnkkh2&&0kZCMNBVVCAZVNNNMNNNM",
"bNMNgumvlznnbnzgNkNkNkNk;fABNNNNVNNmkCNVk:4ZJJSNMmmBbNBBVVNMNVNN",
"bMMbysnbbbbnnblgkNkkkNBk5kVNNNNNNNBNMNMNN96BJMMnmNBNcNNNSVNmhAMM",
"bbbh4pnbbbbbbbbnNkNkNkkk5kBBNmNNMSVNNBkMk6:nFMMnmNNNBCCDAMNMhVbb"
};
