/* XPM */
static char *floor4[] = {
/* columns rows colors chars-per-pixel */
"64 64 56 1 ",
"  c #151C2D",
". c #161E30",
"X c #191F30",
"o c #17202F",
"O c #18202E",
"+ c #172030",
"@ c #1C2535",
"# c #1F2937",
"$ c #1F2738",
"% c #1F2838",
"& c #202636",
"* c #202937",
"= c #202739",
"- c #232B3C",
"; c #282D3F",
": c #272E40",
"> c #282F41",
", c #273140",
"< c #2B3244",
"1 c #2F3548",
"2 c #2F384B",
"3 c #303547",
"4 c #313649",
"5 c #343A4D",
"6 c #383D4F",
"7 c #373D50",
"8 c #393E52",
"9 c #3C4155",
"0 c #3E4459",
"q c #404156",
"w c #42465A",
"e c #48475E",
"r c #44495D",
"t c #48495F",
"y c #464B61",
"u c #4A4D62",
"i c #4D4F68",
"p c #504F66",
"a c #4D5165",
"s c #4E5169",
"d c #515167",
"f c #54546C",
"g c #58556C",
"h c #57596F",
"j c #58586F",
"k c #575771",
"l c #595771",
"z c #575871",
"x c #5B5B73",
"c c #5F5D78",
"v c #615F77",
"b c #616176",
"n c #64627C",
"m c #68647F",
"M c #656580",
"N c #6C6984",
/* pixels */
"ir9907::ureq854-9uwpdr9yr5<iy0<=uy9709-;irwq854-qiqiptqyr44iy84$",
"u99095-$qyeq75=-drq8tuqqr8=8i9.>i99095-#queq56=-drq7yuq0r9=8i8.-",
"991<,<%#58990>=:88wyu9w95-5>5=>=994<,,%%5898q>--75wyyqqq5-5>5->:",
"-;$$--$@-::<1-$::4wr51,;:8w1;id4=:$$--$$-::14-=:,1er54>:-qe>:ui4",
"$8ryy9597>=--=>yw,::;385re8<yyq<@9ruy9565<---=:yw<:::484rrq<ey84",
"rcjdurrw871:=4xy95=4glgq8874uqy:0bfayrrr98<-=4xy95$4fggw9884uqr<",
"zaur0trww005$8krtw>>ipr68848eyr>hatt0urwq095@8kryw:<ipe78q<8rur:",
"ayw9tu0uyww8=>wwyu8-:58585:45q3qfyw0ttwyrrr8-:wwuy7-:77784-35q48",
"yy99swwuuw81*;9wryw<;*,1;@*-,:$sat99aw0uuw8,=:9wry01;-,<;$%-,:$s",
"9995at;,:-+-$<9990992;#$@4ufiq-y0099au,,,-@-$1q909994-=&@4uga0-r",
"95797:-,:1,4$1w90w0t0;;@8jrtu8,,95295,;;;1:4=<w9w00yq;-@8jrtu9::",
"0545<7998847-:w909afr<**gw59w9-%952215999748-:wq00agr,**gw59q9-=",
",5716w954:<<--9trya07;+1x459991,;5518w95<,,<--9ywta06:@1x5489854",
",-5,rr91;--$$+<70y097*$aw4579929,*5,rr9<;;=$@@,7wt095-$aw4588885",
"8<--<<*$;-%:99<;2ttw8+9d,17999ur9,--,,-$--%,9q<;5tyw6+8f:48989ur",
"u9<-&-4yu9wfdy9:9rwtw@r5,1999uuaa91-&-5ta9wddy9<9rryw@r5,<999auu",
"ry4;;fbh0wafyrw;390r9*9<,<90wyr0rt5*;fbhwwufuw0<,9wr9*9<1<90wyrw",
"91*$tnft90rar09<#391#@1;,,90wwrr01*@unfr9wrur09<%25<%@<,,,90wwyr",
"%@@5mhaw9rtw9222-;;#<1,%%%<90951#@O9nxa09wrw9522*;<%<<<*$$,90051",
",e05aw09wrry0992-#@abxs099<%<-+@,ww5aw99wrrr0992-#@abxs099<%,-++",
"nNy%<<<50yay9008;@0mfssawyw<$=8inNy-<<<2w0ur9099-@9Mksaaruw,%%0f",
"0i<+<<;557w0985>@1bdwwwr9999=ixrws< 1,,999r0995,@2bsr0ww9990%ax0",
"07 9fy<*<<,<<,:X;fr999097777:088w5 9hy<#,;;3<::$;fu990999255-w99",
",+9x0rr9:::;;:-=at995005212,%2-=, 9z0yy9,;;;-:-=uu995005214,%1-%",
"$smuir7yr0>1<:.8a959rr853>;;$=7<$dMyiy7yy0><2:@8p866ee851;,-@%7<",
"<cfy0780979yi1<i5530y983>;-@2fy1<vfy9780979yi<<u663weq741-%@5fr5",
":iy8999999r008<411,15472;;$@s821-iw09800890y97<211:44475;-#@s751",
"$8998271227877>:-#;;>>><;*4y7872=9999521227877>>;&::<:>>;#2a7975",
"$151<>:@$%-<22:$-,%<71::;%sw7977$1221>:$$$-:15:=-;%<74:>:=iy7977",
":$<><>$<yr87<-:Xua7wuw5:-ry72007=$>:>>$1yw07<-==uu7ruw5:=ry72007",
"$yi8iy$yzkkfwy1:55811<<$5w51809>$rs0ir$rcgkgw01:77714>>=7r21709,",
"7kw709:<siyr88y1@--->:-7,;:w097$7zr509>>puyrq8w1@---:::5>-:r097$",
"aw9907;:pwew855=8t9rieqiw1<frw3&iy9709-:ieqq844-8yqtprqiq41iy01$",
"a99095-&queq75$:frw9ri8qw0=8i9.>i89095-%qitq66=-fee8yu9qwq=8i8.:",
"094<,<-$4q888<=-680tyq085-4>5=:-892<>>%%5889q>=-59qty0qq5-5<7=>:",
"--$$--$$-::>4:$:,1ew53>::8r>:ii3=:$$%:$$-::<4-=:,2ww54>:-9r>:uu1",
"@7wyy0564>---=>yw<:>:185rr81tt91@9wty8775<---=>y0<:::485eeq>yyq<",
"ybhfyrrwq8<:$1cr94=5ggg09874y9r:wbhfuyww98<-=<cy05$4fggq9884yqe<",
"kauw0ywwq005@8grrw:>ppe78q<8etr<fiur0yyww995$8gwtw,<ipe780<8rur:",
"auw0uywuyww7-<0ruu8-:67784-46930ftw9yuwyrwr8-:wryy9%:77684;45q48",
"tu99u00uuw9<-:9wrtw1;*:3;@$-:;&dat99s00yaw9<=:00rr01;-,1-@%-:-=d",
"0099uy,,,%@$$<0800991--&$4ufuw-w0099ay<,;#@%@4q900991-=&$4ufd0-r",
"95599%-<;1,2$<w90w9r9;-O8xryt9:;92299**;,<,4=<w9w00y0;-+8xwuu9<:",
"0545<9997729-:w000afr<-*gw59w9;-9922<9997947-:wq90ugr<--gw59q8-=",
",55190992,<<-%9yrta06:@3j546999<-95290951,<<-=9yrtaw5:@3z5589854",
":;410r9<-;-@@@;90y096&$aw5595955;#41rt91;:$$$@,8wy098*@aw5588885",
"8<**<<#@--*,00;-9rtw6@6f<36999ur9,*-<<*#-;%,9q<:5ttw8+8d:48889ur",
"u91*#*5ta0wsat9;9rwt0@r5;<999uuut92*@*5tu90fiy9,9rwt9$y7,<999auu",
"yr5;;dbhw0afyrw<18wr9-9<<<900rrrry2;;fbhw0yfaww,,9wr9*91<,0w0rrr",
"0<-$ungr90tar092%15<-@1,,:9wwrrrw<*Oynfr00yaw09<%25<-@,;,,8wwwrr",
"-+@5mxdw9rrw922<-;:-<,,*#@<9005<#OO9mxa09wrr9522-;,*,1:-$$,80051",
",wr4uw98wrrr9995-%@acxsw90<%;-O@<rq9u099wrrr9995*#@scxsw90<-,*o@",
"nNy=<<150yay9999-@9Mgaauwa0<##0fnNt*1<<200uy9097-#0Mfsdaryw,#-9d",
"wp< <<:59900999;@1bfwwre9999%ax0wa<o<<,999r0995,$1bfrwrw9999-ujw",
"w5 9ky<=;;,1,;#+,gu999q85592-r99w4 9zy,#,;;<<>-$;gy079989575-w99",
":.9xwry7,;-;;;;#uy9770q5222;%2%*<o9z0yy9,;;;-:-=tu057w05214,#1--",
"@iMyyy7yy0,<2%@9a975rr861>:>$-5>$dMiyy8yy9,<1-@8p985re751;,-@%7,",
"<Msy0790999yy2<y5710t984>:-.5sr2,bfy9780979iy11u563weq71<--@9sy2",
":ir09999990999<211><4564>-$$i821;iw9999099w009,231,14475;;#@s722",
"=8909251229929,,:$::<:><,%5y8872$9999522227977>:;$;:<:>>;#2u7792",
"@<22<<-$$$-:17<%::$>7<:::=sr7987%<21>>:%$$-:15>=-:=<71:::$s07977",
":@<:<<$1yyq7<%%%yy7yir7:=ry929w7=$>:<>$1yw07<-==yu7riw7::yy72007",
"=yi8iw=wcggkw91-77721<<$2r21709>=ys0ir$rcgkkw04-778<2<<$7071809,",
"7ly809><dytrq9r2@::==%:2<::0097$7zw709>>dutrq8w4$-:=$:=5>::0097="
};
