/* XPM */
static char *grass3[] = {
/* columns rows colors chars-per-pixel */
"64 64 119 2 ",
"   c #000300",
".  c #030C01",
"X  c #0A0D04",
"o  c #0A0E09",
"O  c #051402",
"+  c #0A1405",
"@  c #061A03",
"#  c #0B1B05",
"$  c #0C150A",
"%  c #0D1B0A",
"&  c #131D06",
"*  c #11150C",
"=  c #121C0C",
"-  c #191C0E",
";  c #141D11",
":  c #1A1D13",
">  c #072004",
",  c #0C2106",
"<  c #0E220B",
"1  c #102007",
"2  c #13230D",
"3  c #19250E",
"4  c #152A0E",
"5  c #19290F",
"6  c #162311",
"7  c #1A2414",
"8  c #162B12",
"9  c #1B2B15",
"0  c #1D2519",
"q  c #1E2B19",
"w  c #123111",
"e  c #1C3216",
"r  c #1C3812",
"t  c #173219",
"y  c #1E321A",
"u  c #1F381A",
"i  c #212616",
"p  c #212D17",
"a  c #22251A",
"s  c #222C1C",
"d  c #282D1E",
"f  c #213016",
"g  c #23331D",
"h  c #28351E",
"j  c #243A1E",
"k  c #293A1E",
"l  c #252D21",
"z  c #2A2D22",
"x  c #263321",
"c  c #2A3424",
"v  c #253B22",
"b  c #2B3B25",
"n  c #2D3629",
"m  c #2E3B29",
"M  c #313527",
"N  c #313B27",
"B  c #32362B",
"V  c #323C2C",
"C  c #383A2E",
"Z  c #353E31",
"A  c #3A3D32",
"S  c #28441F",
"D  c #264122",
"F  c #2D4226",
"G  c #2B4A26",
"H  c #2E422A",
"J  c #304027",
"K  c #33422D",
"L  c #3A422D",
"P  c #344A2D",
"I  c #3A482F",
"U  c #32522E",
"Y  c #2F4530",
"T  c #364331",
"R  c #3B4434",
"E  c #364B32",
"W  c #3B4B35",
"Q  c #3D4638",
"!  c #3E4B3A",
"~  c #375335",
"^  c #3D5335",
"/  c #3E523A",
"(  c #404636",
")  c #414D36",
"_  c #42453A",
"`  c #424B3C",
"'  c #484C3D",
"]  c #415037",
"[  c #405937",
"{  c #43533D",
"}  c #48563D",
"|  c #44593D",
" . c #3F5440",
".. c #454E41",
"X. c #4A4E43",
"o. c #465341",
"O. c #4A5444",
"+. c #445A43",
"@. c #4B5A45",
"#. c #4C5648",
"$. c #4E5B49",
"%. c #505745",
"&. c #52554A",
"*. c #535B4C",
"=. c #575D51",
"-. c #5A5E52",
";. c #4D6246",
":. c #4F614A",
">. c #53614C",
",. c #566253",
"<. c #566952",
"1. c #5A6854",
"2. c #5C6759",
"3. c #5D685A",
"4. c #616E5C",
"5. c #676F60",
"6. c #6A6D62",
"7. c #677462",
"8. c #717469",
/* pixels */
"; q Z n 6 7 o.v , j 8 8 f @ F j W W j j i 7 m +.b h h b ! = 7 3 s ` T Q b l n  .z C A B M B 0 T n g % q g s h k P ^ 4 j E m b K ",
"s B ` ` ..6 % j j b F F W j k 9 e 3 2 O q = K 8 e P # # O q 8 2 I $ m m n 0 R Z B _ ..a : M R l T Q h q s b h j @ f 2 j < q W b ",
"s n d Q ` n I W 4 P < F 4 2 j 2 e F G P F k h e j f j - x # b H n # 7 T Z ; Z l C -.A a : : &.: T h T 7 K s h h 9 1 J j H x Q 2 ",
"b q % g m 6 2 | e # | J O 8 f + # 8 ] | e 2 K ~ D f G 9 2 # g K x 9 T T  .l Q A A X.z z A B A Q 2 m W 2 W 2 s k # 5 J j 8 W ] x ",
"I W I b y Q k F j v @ 4 < e % 4 ^ f e j e m 8 8 P @ 4 D 4 q # d 2 6 c K 0 + M : : z z z z s = ` T b m J N K > S w w D 9 H u 7 m ",
"b O.h { W m 9 P D w , S < , e e 4 j G > f P 7 8 8 j u ~ O # h b P b s = : _ B ( : B A B ' ` ` q m 2 N h & v u J k b 2 I E ^ + l ",
"q K = V K s W b j u w u H O 5 f 5 g e 4 P 8 y 9 O E u > P 2 j J 8 h 2 $ ' - i _ - X.C X.B - : - q = $ q = 2 % 8 f P j h F 8 H $ ",
"b 2 V b K x N 8 e v e e 1 5 # e b p j 5 g G j y v v u P w S J q e < C d & d &.( : z _ A ( M o o.o.q g K f h I 8 , 5 v < b b 8 6 ",
"x h + p I K 4 J ^ D e e 2 J k I I q x 5 j P D { H + j r S J P , 2 P 2 0 0 M ' C R M z B l C W @.g q + F G U ^ e j f F q 8 j s V ",
"W q K 7 } j 9 5 k 9 h 3 # 5 m 7 O.K ^ 9 G , v % q # 2 8 8 O j 8 F J m } 6 0 & R ' ( A i d W s 6 # 3 L P ~ 4 2 + 8 q % p 2 F j +.",
"2 x b K q J j N b 5 ] I L j P } 7 i = 3 I s 9 F v v < 2 m j b @ 2 b b = m $.0 0 V d m 7 = R { V q % 3 8 U j j x g 2 1.h b b b P ",
"R ` q x I 5 b j F I g ] L # b m b %.3 R b b m e ~ P # j 4 j 4 F # k W b T 7 6 V ( V s d { d x ` V s F 2 g e # I i 2 { i # V W g ",
"b + 8 9 { g k 4 J L 5 f 5 >.P 2 O.K l h V 8 c v b T 6 E u w F e j 2 b g % g E T x i V h - + h l K c v y & 3 ] 7 q g 6 x h x $ O.",
"7 N b 0 N 2 ] P 9 | [ b | # O.q O.A V q 0 ; ! 7 b 7 h > 5 F e @ j j s v b <.o n ` K x 0 s Q 9 2 9 T > @ & k } >.T $.O.#.,.c _ 7 ",
"! 6 h x R 5 W F 8 4 < < P b b 0 _ l Q n E Z n q = x T q O b 2 u F K 2 T g T n l d b q 2 2 + h b @ | e J b P @ = T Q Z c l O.$.V ",
"O.O.o.! } ) j f P w P b s 7 ` R ; _  .n o.o c 7 6 h = q W b @ 8 # j b E W +.v  .s q c c s b k f j j + 6 6 n + K <.V . A q + o B ",
"b 6 x q m I h F j 9 x x 6 T B l Z C Z = n Z Z q s 7 2 x 9 1 2 G # y H m m Y m o.$ # x . m 8 + k 2 e x + 7 = c f @.6 7 l : #.#.z ",
"! { V o g 3 b 8 H O 2 7.! m T ; : a #.Q ! Z 0 2.= O R ) O # P t 8 m @ P  .m O.m q x H v b ^ f f P 4 g ` 7 2 g 7 . s B o z A A _ ",
"B ( -._ d W N q # < 9 x 9 m A B a X.* B ..-.Q R = K W b O y y 8 t  .x T m m $.u % u j H E b j j x 2 # { 2 @.} h c l 7 A z ( X.: ",
"z a : z i = b b /  .x b W T Q Q ;   X.X.A A Z l m . V R V 9 # H % < u 6 x m 2 / @ Y E 2 < e # = q Q H K q E ! 7 0 5...B &.A : B ",
"z _ 0 A V ! b b x E 6 + v s A l c n A z C : A &.m T 9 x T E x 8 v ! @ o.q m W m t x 9 T y j m 8 o.s c O s V R @.A l : z B B X &.",
"&.z A M c V K + b K 2 y < b T l ..: _ Q A =._ 0 s h T g T q H H g m y m 9 x } H H W y O O b W 5 b = C 0 X V p c i -.a A z a C M ",
"A B M C 7 m d W % V ! v Y E Q ! n Z B 0 n _ _ -.B x ` b q H x / . 6 } < K m 6 v 9 . l q q 9 h h ; c z A ; A B a -.A a X.B z a : ",
"B i +.W ` ` ! = s T + T Z o.x ! T 0 l Q : -.B a a X A X.m x b K c % x ; x T x q = ] v u @ 0 W x o.% l V z A o z B 6.X.C X.&.: _ ",
"X.d K 8 ` c h c h O.s W h ; ; s 0 6 T = A Z : X.C A z C o ' b V T x s g x 6 = o.m 8 I W $.x 7 V  .T l 0 &.&.: : _ _ _ B B A X.B ",
"l &.m 0 8 q d % q s @ T b I x O.% x 6 Z A a B : B : z z c T T W q c q b q x o.x = b s 6 1.b { B l Z  .z A B C A z B B A B X._ B ",
"l O.q x q K g ` x { b R K 7 T c Q #. . .C B &.a _ X.X.Z V T 2 % x x s ` s 6 m T ! 6 n R ' s a M n _ C A o B A &.B A B _ _ B z B ",
"0 c Z ! m 0 o.Z B W O.n 7 + K T Z z X.z B A z ..o z - l x s ! g b b x x s h K 2 ] s s = m x ` B : a =..._ z _ * _ B M A _ M B : ",
"l B l ! x Y ; l O.` ` R q W I x * A ;  .z C C ; &.z : Q _ 6 q x # b 9 i T I q h h c n q M * * a z _ n ( : _ a : z z A z B A ..B ",
"A ..q n Q T o.R g V ` x x ` x y 0 m n  .X.z X.0 X.a a z M x q 6 K ( b V c m T b O V Q x : B z * X X.: B C : : _ B B z C _ : A ..",
"0 n Z $ 0 n 0 m T V s = x @.b ` m A l #.Z o l C C X.B X.7 n K b 2 s x O R s T 6 s 7 ; s $ B A z B B M B z A C a A C a z B B C C ",
"Q Z  .* 6 x m 6 Q O.s g s O.2 V m n x c 0 0 n C a X.M : = l x b b = x I K W x g s b m s s V _ A : X...B A _ -._ a z B B z B =.n ",
"Z 0 0 : n l l s = q ` T x ` 0 x B  .0  . .n c % Q b q Q ..6 g Z s h x T 4.! T x $ T R Q m q z R c n R ` Q T o.x s ` { A 0 X.s A ",
"0  .Z Q 8 n q l ! B = W V h V 7 X.n Z ; ! ! o.n { T s T =  .m < x g s x = 9 T b 6 x l s b d # ` B s + O.d ! c s R $.` #.O.Q l R ",
"o Z  . . .l R s l $.V s x 7 7 O.q ! 0 #.Z A 7 x # ! x n $ q t l V x x H m q m 6 0 b c W Q q m s s d T ! x + 6 ! $.V W c $ b T B ",
"0 n ; ; 0 l l #.#.! h V 7 n m V T T n 7 T ; Z Y x V q x m T b  .! O.Q o.! K 7 n s ; x 7 $.R ! W m x s s = 0 s s Z V Q g o.g # m ",
"$  .Z n n n Z =.V ` -.0 0 = c +.T x s x 8 n b m b ! s I x W +.8 q 0 Z 0 0 x T c ; q n l n T q x u 8 T K Q H O q @ c O h 2 x 9 T ",
"; Y Z < l ..0 Z A 8.( R i d o.T q >.0 T n y  .E m x 0 m m 9 l Z !  .Z c B X  .s Z m $.g ( 9 p x W +.9 x 6 h h g = W ` g W 7 % o.",
"% x l m 7  .; C X...a 6.z B q o.O.V l #.$.6 ! +.+ # N R 0 ; q n  .l l * ; n 0 o m c + V K V O 1.0 8 x 6 $ < @.K 3 W m 8 E E x m ",
"n x 6 x l n A z z A z : a M c X V % l q m H + s K T h = n T T x m l =. .Z Z *.0 T l V s 2 R = b H u y @.m H < 2 f P < v j g v 0 ",
"% c . q ..! l a A A V ' o M A c n 0 ; % Q T E m q @ g #.l ! #.E #.; Z l a z l z #. .z Q V s h K v / v y # e b w | 4 # U j # 8 R ",
"Y Y b x = x c * ! 6 s X.V a s q 0 3 W ! 7 m +.+ 7 E x  .; l 0 0 B : C ..A a B C a l R n K x 6 z 0 n 7 6 y ~ b p h g b # x u ^ ^ ",
"+.O 0 6 m N s 7 l ; ! q V $.o.2 { s T . T ; x % q x q ; T  .X...&...a -.&.z &.B : c 7 Z b q 8 s q 8 d s b + # q x T T b I I P ~ ",
"x q m b V 7 Z 0 6 @ x W g K / x s 8 8 % q H m ..$.; ; 7 Z : ; l _ 0 X._ &.z A B : Z 7 s q R $.R q m ( 7 p p 9 c + } b q K 8 p 3 ",
"O T h W h b x { T < m . x g * s h = d { Y 6 = { x Y 2.X.l B A A a 6.A : A B &.a $ Q ..= = +.j 2 2 8 W ! K W O # h K g j . & h * ",
"x K g h 7 9 0 % m T < V T B T s m 6 a x m q z T 6 n s 6 n o o l B C C B &.B B z Q W q % ! 9 P L 5 J 6 7 ! g j s 6 p R V 9 = 0 & ",
"% ] m h T q 8 x H @ 1.! I m B V Z l Q - V V x R Z o Z n c ..: X.* : X._ z : &._ ..: 7 T Y 7 2 8 ;.v K 7 g W b K *.2 x h s m s & ",
"6 b q 7 # m # < 6 b V m E g : s s B s . q ..7 c T #.x Q R l l X.l B z &.C _ _ A z s B m x K 0 K P t K b H g b V x 7 W 0 q m T 6 ",
"m J { $.O h K # x = s $.F $.= 7 Q   T @ s 6 c n c 2.Q c =...n A z a a X.a o A B ` 9 b x 7 7 g q j J < F L ] x q q h O.T m g o.{ ",
"` m K b q K K y v a = x P v 8 8 v y 9 m x x 7 $ n Q m 0 A A C ; z z _ X.&.a : z a o.x s q 2 *.6 k | $ 3 h b b g ` c { x c % = m ",
"a s V b K m 8 g ^ } . @ ] . f 9 9 x n m b 9 q z B =.0 #.C * B =.a z &.z B X.X._ A v = d h E y # b . 2 b = x T Z X = Q q W { K K ",
"3 ` V b g s & e ~ W b O W e p I = q K + m x #.l ; C X...* $ Z z A B C C z z M A a o.h q v g . 6 + y g 9 I x ` n ; Z l 6 h O.2 x ",
"O.c 0 H m W x ) e j | u j , f 1 2 q m . c m ! * ..A Q X.Q   X.= X.z A o z A : z _ K m m V v 9 # , H < E K + 0 ` a 0 Q ,.` Q 0 = ",
"d 0 c m x n q s I 8 4 j < ~ f 9 V 0 x - : Q B X.: _ Z l n 0 l 3._ a B z : a z B a d 9 H T 9 x 8 b q | g x s s ` V n ..l T R V X.",
"c x &.O.V V ` O.9 @ G 4 e ;.p h W ! Q 2 = *.n n C #.z #. .* ! X.A B z X.a ..R l c L E v 6 9 <.b Y y O b K N 3 B l ....z l A 0 A ",
"m + x O.7 9 + x 6 G + k j f b x V h K $.s x l . ..; Z l l 0  .n X.C _ X.l *.c o.s $ m x % f I } 2 h q 5 V N M %.7 n X.( &.B C : ",
"; T 0 + ` = b s 2 m 2 | q f h 9 N # x W K s 6 ; *...n  .m Q s = l l A n X.0 n l n q Q m 8 9 3 f 3 ^ f q K q x ` B s c #.o A a B ",
"Z 6 % T ! g m / x 8 p 5 W @ W V V x K V c O.% A B 0 0 Z ! n #.Q l Z B A ; 0 Z Z T x 9 g K q & 9 @ ] b g q T g u c h B A a z A z ",
"..Z A $ y :.m < I ` 7 9 W m s @.W W ] q x 6 ; A z 0 l c x R *.$ Z Q A * C n #.l  .c W W { K b m I 5 G < W V x +.x 6 ; - B B B ' ",
"; n o.V c m ` 7 H y P m e N = h b e K m 8 8 m ! 6 #.n Z R R 3 ` ..n l B l A l l 0 x Q Q x q b ` K = F | P q i b + m $ 0 B x m &.",
"Z x Z ; m E x s b K 5 D L 8 h W h 2 R ! t +.T . 8 q l x V o.d h B B B C _ A *.: X...m A q x d R : c 5 G @ b 7 g &.W q $.V q W V ",
"7 l 0 n m m 7 s = e I W f ~ u 4 / 2 8 8 b m v g o.l c l $.` i V z z _ _ : : _ .._ 0 z V B n 2 s 7 s I j 4 9 L 9 ] m 6 x W x 6 x ",
"a ; % t b 2 + + @., 2 f 5 ;.D K 4 # 9 8 +.v q O +.Z n x d $ Q A : C z B z o A B _ B &.: Q R 6 V o.h } E P O K 4 K 9 H 8 m n n 0 ",
" . . .$ m * h 8 v ^ m I 4 5 9 F u E m v j ; 7 y s 7 0 n _ ..; C B _ z : X.B l 0 z B z c B a q = 7 + 9 j e p ) e j W { T c x 6 8 "
};
