/* XPM */
static char * main_floor_xpm[] = {
"64 64 135 2",
"  	c #BFBFBF",
". 	c #B6B6B6",
"+ 	c #A2A2A2",
"@ 	c #9D9D9D",
"# 	c #A8A8A8",
"$ 	c #999999",
"% 	c #717171",
"& 	c #6D6D6D",
"* 	c #C1C1C1",
"= 	c #B3B3B3",
"- 	c #B2B2B2",
"; 	c #ABABAB",
"> 	c #9F9F9F",
", 	c #909090",
"' 	c #8A8A8A",
") 	c #737373",
"! 	c #BCBCBC",
"~ 	c #ADADAD",
"{ 	c #BDBDBD",
"] 	c #C6C6C6",
"^ 	c #B8B8B8",
"/ 	c #A6A6A6",
"( 	c #B7B7B7",
"_ 	c #939393",
": 	c #848484",
"< 	c #BABABA",
"[ 	c #A5A5A5",
"} 	c #838383",
"| 	c #595959",
"1 	c #BEBEBE",
"2 	c #B5B5B5",
"3 	c #9C9C9C",
"4 	c #9A9A9A",
"5 	c #6E6E6E",
"6 	c #BBBBBB",
"7 	c #AEAEAE",
"8 	c #B1B1B1",
"9 	c #919191",
"0 	c #A4A4A4",
"a 	c #5B5B5B",
"b 	c #A0A0A0",
"c 	c #9E9E9E",
"d 	c #656565",
"e 	c #646464",
"f 	c #989898",
"g 	c #929292",
"h 	c #666666",
"i 	c #A7A7A7",
"j 	c #ACACAC",
"k 	c #606060",
"l 	c #B9B9B9",
"m 	c #5D5D5D",
"n 	c #7B7B7B",
"o 	c #A9A9A9",
"p 	c #979797",
"q 	c #AAAAAA",
"r 	c #B4B4B4",
"s 	c #7A7A7A",
"t 	c #898989",
"u 	c #626262",
"v 	c #5F5F5F",
"w 	c #8E8E8E",
"x 	c #A1A1A1",
"y 	c #7D7D7D",
"z 	c #616161",
"A 	c #676767",
"B 	c #969696",
"C 	c #949494",
"D 	c #767676",
"E 	c #6C6C6C",
"F 	c #797979",
"G 	c #757575",
"H 	c #6B6B6B",
"I 	c #6F6F6F",
"J 	c #636363",
"K 	c #5E5E5E",
"L 	c #868686",
"M 	c #777777",
"N 	c #AFAFAF",
"O 	c #8B8B8B",
"P 	c #828282",
"Q 	c #727272",
"R 	c #585858",
"S 	c #5C5C5C",
"T 	c #9B9B9B",
"U 	c #686868",
"V 	c #818181",
"W 	c #747474",
"X 	c #787878",
"Y 	c #707070",
"Z 	c #858585",
"` 	c #A3A3A3",
" .	c #D2D2D2",
"..	c #CACACA",
"+.	c #C2C2C2",
"@.	c #B0B0B0",
"#.	c #6A6A6A",
"$.	c #D1D1D1",
"%.	c #888888",
"&.	c #696969",
"*.	c #CBCBCB",
"=.	c #C9C9C9",
"-.	c #7E7E7E",
";.	c #7F7F7F",
">.	c #D0D0D0",
",.	c #C8C8C8",
"'.	c #808080",
").	c #CECECE",
"!.	c #C3C3C3",
"~.	c #7C7C7C",
"{.	c #878787",
"].	c #CCCCCC",
"^.	c #C7C7C7",
"/.	c #C5C5C5",
"(.	c #8C8C8C",
"_.	c #C4C4C4",
":.	c #5A5A5A",
"<.	c #C0C0C0",
"[.	c #959595",
"}.	c #565656",
"|.	c #8F8F8F",
"1.	c #CFCFCF",
"2.	c #8D8D8D",
"3.	c #D6D6D6",
"4.	c #D9D9D9",
"5.	c #D8D8D8",
"6.	c #D3D3D3",
"7.	c #575757",
"8.	c #D7D7D7",
"9.	c #DADADA",
"0.	c #DBDBDB",
"a.	c #CDCDCD",
"b.	c #545454",
"c.	c #535353",
"d.	c #D5D5D5",
"  . + @ # $ % & * = - ; > , ' ) @ ! ~ { ] ^ / ( - _ : < ^ [ } | 1 2 + 3 # 4 % 5 * = - ; > , ' ) 3 6 7 { ] ^ / ( 8 9 } < ( 0 } a ",
"{ 0 b / c 9 d e # ^ - / f g e h * 7 ; 3 2 1 i i j # k [ l 0 m n { 0 b / c g d e o ( = / p g e d * 7 q 3 r 1 i i j # k [ ^ [ m s ",
"[ $ t s s n u v w x 0 0 + y z A b @ ; ^ l / / > B & C n $ A D E i f ' n F n u v w x 0 0 + y z A b @ ; l l / / > B & _ n f h G H ",
"I D E d J J K | 5 G % n L e z % M ' ~ N C O P D Q x q P F   ! ' 5 G E h J e m R 5 G Q n L e u Q M ' ~ N _ ' P M ) x q P F   { t ",
"S x 7 l 6 [ 9 T 9 n d 5 U J G 2 0 V W X Y O x g ( 7 @ Z r ~ o P m x 7 ^ 6 0 _ 3 g n h 5 U J G r ` V G X Y O x 9 ( 7 c Z r ~ o } ",
"~  ...+.l = @.j x p V #.u L $.2 / %.&.w ] *.=.[ ~ b x -.{ i r ;.7  ...+.l = 8 j + p P #.u L >.2 [ t #.w ] *.,.[ ~ b x y { i r '.",
").!.  ( j l = @.j [ x w J 3 ,.( . 7 ) ~.  +.2 T b 3 {.3 ; r 8 ~.].!.  . j l = @.j [ x w J T ^.( . 7 ) n 1 +.2 4 b 3 {.3 ; r 8 ~.",
"/.! 7 i ^ { j ^ . N q p E F ~ - { ^ 4 #.n B p g c t % t @ / (.i /.! 7 i ^ { j ( . N q p E F ~ - { ^ 4 #.~.B f g c t Y t c / (./ ",
"^ < 0 c /.@.o r ^ @.> -.U G 0 ; 2 . ; V 5 A s V #.z a A M Q S _.^ l 0 c /.N q = ^ @.> ;.U G ` ; 2 . ; V 5 A s '.#.u a h M Q S _.",
"o o @ $ 6 ^ } -.;.A R v m : x + # o b [ Z E k v :.t * =.* # & l o o @ $ 6 ^ } -.;.d | v S : ` + # o > [ Z H k v :.t * ..<.# 5 l ",
"b 9 g [.$ W % y X Z % g z : # ` # 7 i - [ &.h }.3 /.( ^ 6 c y F b 9 g [.f W % y F : % _ k : # ` # ~ i = [ &.h }.@ /.. ( 6 c ~.F ",
"o g t |.P > 3 f _ p {.|.5 X i q i #   ,.2 '.A K ].j p ` / x & m # g t |.P > 3 f _ p L |.& F i q i #   =.2 '.h K ].j p ` / x E S ",
"G , , L T # c C } s y X U z b . @.. _.o C ) a } 1.g 2.4 c + (.L D , |.Z T # c [.} n -.X A u b . @.. /.o [.) a : 1.9 (.4 > + (.L ",
"s E ' D ^ 2 c P I & u K K | ;.$ ~ ( ; + $ K a <.[ 9 2.@ $ 3 [._ F & O M ^ 2 > V I & u v K | '.$ ~ . q + $ m a <./ 9 (.3 4 3 [._ ",
"@ } h d X % & d U h v s 0 o P Q g < < ; f :.$ _.y L 4 > > [   = @ } h h M % & h U h k F 0 q V ) _ l l q $ :.$ _.-.{.T > b [ 1 = ",
"! @ ;.A S d O - * 0 N _.<.8 b G g 8 @.r # :.= , n s / + > <.^ ^ ! c ;.U a d O = <.[ @._.* - > G g @.N r o :.- , n n / x > <.l ^ ",
"= - g H & =.3.*.j j < ..6 - j ~.} > @.@.0 K / ~.y D o o ; r r r - - g H & =.3.*.j j < ..! - j y } > @.@.[ K / n y D o q q 2 r = ",
"i -.v z l 4.1.^ i o (   - ; 3 : z } 2.n A | {.5 5 & + q j 7 N ~ i -.k u l 5.1.^ / o (   - ; T Z u } w n A :.{.5 5 & x ; j 7 7 ~ ",
"d v k g 4.6._.8 ` @.- 8 b g t {.J H M A M '.F k v m ;.T i ` g Z d k k g 4. .!.8 + @.8 8 x g t {.J E M U M ;.F k v K ;.T # ` 9 Z ",
"&.@ = |.^ N q c ~ = 2 - ; T T w J k 7.  3.>.+.N ` [ '.U Y U v K #.@ r |.^ N q c 7 = r - q T T |.J v }.<.3.>.+.7 ` / ;.&.Y U K K ",
"8.9.- E , V V g i 2 ! l 0 ` @ [.J k c 0.a.] _.* 8 = N n k S 9 1 5.9.8 E , V P g i 2 ! l ` ` 3 [.u k c 0.a.^._.* @.- N n k S 9 { ",
"- _.'.b.n F F w (.4 8 ~ 0 > 9 W v P 8.=.( @.@.@.> 0 @ T 5 l { + - _.'.c.n F F w (.4 8 j 0 > 9 W k V 3.,.( @.@.8 > ` @ T & l { + ",
"/ g c.+ ] < } H -.y M X X ) d a Y *.l q B 0 0 3 B B g (.d N b / / 9 c.+ ] < V E ;.-.M F X ) h a Y ..^ q B 0 ` T B B g O h N b / ",
"n a c *.- r 7 b ~.Q H % Y & &.d < ( i 4 $ / # [.w L {.Q k w E Y s S c *.- r 7 b n Q E Q Y & &.d < ( # 4 $ / o B w L {.Q z |.E Y ",
"k < 5.* l ^ c - @.0 n {.: U :.> 1 0 f 9 = 8 @ , P % Y d v u _ '.k l 5.<.l ^ @ - @.0 ~.{.: U a > { ` $ 9 = 8 @ , P % Y e v J C ;.",
"F )...< q 4 > # ` 3 ` . - |.} l [.9 2.7 . i f {.F E e m , ] 7 O F 1...< q $ > # ` 3 ` ( - |.} < C 9 2.N 2 i f {.F E J m |.] 7 (.",
"5 !.@.i ` x ` b 3 $ @.j q @ F O Z V D V Z t [.t D e S c.+.B , L 5 _.@.i ` x ` b 3 $ @.j o 3 s O Z V D '.Z t [.t D d S c.+.[.|.{.",
"v 0 + 0 3 w 9 : %.L C T B g X Q #.v & s '.~.M D E e ' 1 ` f B 2.v [ + 0 3 w 9 : %.{.C T [.g X Q &.K & F ;.~.M D E e O { ` p B 2.",
"J V {.{.P F #.u e A 5 '.{.' D e v K K ) f : Q G % J _.~ f b 3 C e V {.{.} F #.J d A I ;.{.t D J v v K G f P Q G % u +.~ f x 3 C ",
"H m H & F H u y N N # f X I J K <.{ 3 l - 7 C I A = - > L # / _ E m #.E M E z y @.N # $ F 5 J m   { T l - ~ C Y A - = > %.# / _ ",
"J ( =.; /.2 &.@.>.a.*...- ; Z 5 _ p $ {._ '.M I 4 x $ } x # x G J . ,.q /.2 U @.>.].*...= ; Z I _ p $ {.C '.M 5 T b $ V + # x G ",
"B ,.= f ; x W n ,.<.6 2 i f j 2.z e #.v d 5 Y C M D I N ` [ p K p =.= f ; x W n ^.<.6 r o f ; 2.z d #.v d E Y C M D I @.` / p K ",
"1 . + c i 4 Q 5 <.= - q > , ' W 3 < 7 { /.^ i ( - g } < ^ 0 } :.  2 + @ o 4 Q & * = - ; > , ' ) T < 7 { /.l / ( 8 g } l ( 0 } :.",
"! 0 b / > g e e # ( = / p g e h <.~ ; @ 2 1 i i j # k i ^ 0 K s { ` b / > g e e # ( - i f g J d * ~ ; @ 2 1 i i ; i k / ^ [ K s ",
"/ f t n s n u K w x 0 0 + y z A x @ ; ^ l i i > B & C ~.$ U W E / f t n F ~.u v 2.x 0 0 + -.z A x @ ; l < / i > B & _ n $ h G E ",
"5 G & d J J m | I G % n Z e u % D ' ~ N C O P M ) x q P F * { t 5 D & d u e m R 5 G % n L e u % M ' 7 N _ ' P D Q x q P F <.! t ",
"m x ~ ^ ! [ g T g n d 5 U J D 2 0 '.G X I O x 9 . 7 c Z = ~ # } m x 7 ( 6 [ g T g ~.d & A J D 2 ` V G X I O b g ^ 7 c L r ~ q } ",
"j  ...+.< = @.; x p P #.u Z $.r [ t &.w /.*.=.[ ~ b x y 1 # r ;.~  ...* l = @.; x p V #.u L >.r [ t &.|.] *.,.[ ~ b x y 1 i r '.",
"a.+.  . j < = @.j / x w J 3 ,.( . 7 ) ~.  +.2 T b 3 {.3 ; 2 @.~.].!.  . j < = @.j [ x 2.J T ^.( . 7 W ~.1 +.. 4 > 3 {.3 ; r @.~.",
"/.! 7 i l { j ^ . N q p E F ~ - ! ^ 4 &.~.p p _ c t Y t @ / (.i /.! 7 i ^ { j ^ . N q p E F ~ - ! ^ 4 &.~.B f _ c t Y t @ / (./ ",
"( < 0 c /.N o r ^ 8 > -.U G ` ; 2 . q V 5 A F '.#.u a A X ) S _.^ < 0 > /.N q = ^ @.> ;.U D 0 ; 2 . ; V I A F '.#.u :.U X Q S _.",
"# o 3 $ 6 ^ } -.;.A | K S : + + # o b [ Z H z K :.t +.,.* i 5 l o o @ 4 ! ^ } ;.'.A R v S : + + # o b [ L H k K :.' * =.<.# 5 l ",
"b 9 g [.f G % y X : % g k : # ` # ~ i = [ &.h }.@ /.( ( 6 c y F b 9 g [.f W % y X Z % _ k : # ` # ~ i = [ &.h }.3 /.( . 6 c y X ",
"o g ' |.P > 3 $ C p {.|.5 F i q i # <.=.2 '.h K ].~ B ` / x E S # g t , P > 3 f _ p L |.5 F i q i # <.,.2 '.h K ].j p ` i x E m ",
"G , |.Z T # c [.} n y X U z b . 8 . /.o [.) a : 1.9 2.4 > + (.L G , |.Z T # c [.P n -.M A z b 2 @.. /.o [.) S } 1.9 w 4 > + O L ",
"F E O M l 2 > V Y E u v K R '.$ ~ . q ` $ K a <./ 9 (.3 $ 3 [._ s E O M ^ 2 > P Y & u v K | '.$ ~ ( ; + $ K a   / 9 2.@ $ 3 C _ ",
"@ } h h X % & h U d k F [ o P Q _ l < ; $ :.f !.-.L T > b 0 1 = @ } h h X Q & h U h v F 0 o P ) _ < l ; $ :.f _.y L T > > 0 1 = ",
"! @ ;.A a d O r * 0 N _.* - > W g @.@.r o a - , s s / x > <.l ( 6 c ;.U a d O - * [ @._.* 8 > W g @.@.r # a - |.s s [ x b <.l ( ",
"= - g H 5 =.8.*.j j < ..6 - j y } > @.@.[ K / n y G o q q 2 r = - - g H 5 =.3.*.j j < ..6 - j y } > @.N [ v / n -.G # q ; r r r ",
"i -.k z l 4.1.( / o (   - ; 3 : u } w n A | {.5 5 & x q j 7 N ~ i -.k u l 5.).^ / o (   - ; T Z u P 2.n A | {.5 5 5 x q j ~ N ~ ",
"d v k _ 4. .!.8 + @.- 8 b g ' %.J H X A D ;.s k v K ;.T i ` 9 : d v k _ 9. .!.8 ` @.8 8 x g ' {.J E X A M ;.X k v m ;.T i ` 9 Z ",
"#.@ r w ^ N q c ~ - r - ; T T w J v }.<.3.>.+.7 ` / '.&.Y U v v #.@ r |.^ 7 q c ~ = 2 8 ; 3 T w J k }.  d.>.+.7 0 / ;.&.Y U v K ",
"8.4.- E 9 P P g # . ! l ` ` @ [.u k > 0.a.^.!.<.@.= N n k m 9 { 8.9.- & , P P g i 2 ! l 0 + @ [.u k c 9.).] _.* @.= N s k S 9 { ",
"- _.'.b.n F s w 2.$ 8 j ` c 9 W k P 3.,.( N 8 8 > ` @ T 5 < { + - /.'.c.s X F w (.$ 8 ~ ` c 9 W v P 3.,.( N @.@.c 0 @ T 5 < { + ",
"i g c.+ ] < P H ;.y D F X ) h S I ..l q p ` ` 3 B B _ (.d N b / / g c.+ ^.< V H -.y M F F ) h S Y ..^ q B ` ` T [.B g (.d N b / ",
"s S @ *.- r 7 x ~.Q H Q I & &.e < ( i 4 $ / o [.w L %.Q k w & I s S @ ..8 r 7 x ~.Q H % Y & &.d < ( # 4 $ i o [.w L {.Q z |.E Y ",
"k < 4.* l ^ @ 8 8 0 n L : U a b 1 0 $ , r 8 @ , P Y Y d v J _ '.k < 8.* l ^ @ - @.0 s {.} U a > { ` $ 9 - 8 @ , P % Y e v u _ '.",
"F )...< q 4 c # ` 3 ` . - |.} < C 9 2.7 2 i f {.F E e S |./.~ (.F )...< q 4 c # ` @ ` ( - |.} l C 9 2.N . i f {.F H e S |.^.7 (.",
"5 _.@./ ` x ` x 3 f @.j q 3 s O Z V D '.Z t [.t D e S b.* B , {.5 !.@.i ` x 0 x 3 f @.j o @ s O Z V D V Z %.B %.D e m b.+.B , {.",
"v [ + 0 3 w 9 : {.{.C T B g X ) &.K & n '.~.M D E e ' { 0 p B 2.v 0 + [ 3 w , Z %.{.C 3 [.g F ) #.K & s '.~.M D E e O 1 ` p B 2.",
"J V {.{.P X H J d U 5 '.{.t G e K m K ) f } Q W % J +.~ p x 3 _ e V {.{.P X #.u d U 5 '.{.' W e K K m W p P Q W % J !.~ p x 3 C ",
"E m #.& X H u y N N # f X I e m <.1 3 l 8 7 C I A = = c {.# / _ H m #.E M H u -.@.N i f X I e m <.{ 3 < - 7 C I h r = > %.# / _ ",
"e ( =.; /.2 U @.>.]...=.- j Z 5 _ p $ %._ ;.M 5 T x 4 P x # x G J . ..; _.r &.N >.]...=.- ; Z 5 _ p $ {._ '.M 5 T x $ P + # x G ",
"p ,.= $ ; x ) n ,.<.< r i f j 2.u d E K d H Y [.D G I @.+ [ f v B ,.r 4 ; x ) n ,.<.6 2 # $ j w z d H K d E Y [.D G I N ` / p v "};
