/* XPM */
static char *tree3[] = {
/* columns rows colors chars-per-pixel */
"72 87 164 2 ",
"   c #21161E",
".  c #23181F",
"X  c #231721",
"o  c #251921",
"O  c #2D1C24",
"+  c #2A1D29",
"@  c #311E26",
"#  c #2F2026",
"$  c #2B222D",
"%  c #2F292E",
"&  c #332027",
"*  c #35232A",
"=  c #3C242B",
"-  c #312B2F",
";  c #3D292E",
":  c #2B2631",
">  c #2C2B34",
",  c #2D2F38",
"<  c #322631",
"1  c #312C33",
"2  c #2E333C",
"3  c #2F383E",
"4  c #333334",
"5  c #3B3336",
"6  c #363A34",
"7  c #3B3C35",
"8  c #32353C",
"9  c #3B343C",
"0  c #333B3E",
"q  c #3A3A3C",
"w  c #41272E",
"e  c #44282F",
"r  c #452B31",
"t  c #4A2C33",
"y  c #4B3035",
"u  c #41373F",
"i  c #4F3138",
"p  c #40393F",
"a  c #54353A",
"s  c #54383C",
"d  c #5A3B3E",
"f  c #394236",
"g  c #35433F",
"h  c #3A453B",
"j  c #3C4B3B",
"k  c #3E503D",
"l  c #454B3B",
"z  c #4C4D3E",
"x  c #42533D",
"c  c #48523F",
"v  c #44593E",
"b  c #485A3F",
"n  c #343C41",
"m  c #3A3E42",
"M  c #423A41",
"N  c #5D3F42",
"B  c #613F42",
"V  c #374241",
"C  c #3B4345",
"Z  c #3D4B43",
"A  c #3D4449",
"S  c #3F4848",
"D  c #3E5241",
"F  c #414345",
"G  c #484547",
"H  c #424C45",
"J  c #41444A",
"K  c #4B454B",
"L  c #444C4B",
"P  c #4B4A4D",
"I  c #574347",
"U  c #50474B",
"Y  c #534B4E",
"T  c #435444",
"R  c #455B44",
"E  c #4A5D46",
"W  c #46534A",
"Q  c #4A544C",
"!  c #475848",
"~  c #4C5C4A",
"^  c #535F40",
"/  c #4A4F52",
"(  c #504F50",
")  c #4C5353",
"_  c #4F5D50",
"`  c #555555",
"'  c #5D5557",
"]  c #525C54",
"[  c #545659",
"{  c #5A5659",
"}  c #565B5B",
"|  c #5B5B5C",
" . c #654445",
".. c #684546",
"X. c #6D4A4A",
"o. c #605357",
"O. c #675C5D",
"+. c #476143",
"@. c #4A6344",
"#. c #4E6944",
"$. c #4E6249",
"%. c #506345",
"&. c #586642",
"*. c #526B46",
"=. c #586B45",
"-. c #53644C",
";. c #54694A",
":. c #5A6E4B",
">. c #547046",
",. c #597447",
"<. c #577249",
"1. c #5B744B",
"2. c #5E794B",
"3. c #546351",
"4. c #5C6C54",
"5. c #5D615F",
"6. c #5D6B5A",
"7. c #5E7253",
"8. c #60764C",
"9. c #627C4B",
"0. c #606B5D",
"q. c #617653",
"w. c #637C52",
"e. c #687F53",
"r. c #6B7E5B",
"t. c #5B5E60",
"y. c #615F60",
"u. c #636464",
"i. c #656966",
"p. c #666768",
"a. c gray42",
"s. c #6B7464",
"d. c #65814C",
"f. c #69844D",
"g. c #6E8A4E",
"h. c #708C4F",
"j. c #668252",
"k. c #6B8654",
"l. c #6E8A54",
"z. c #6D8458",
"x. c #718E53",
"c. c #71865D",
"v. c #738C5A",
"b. c #788F5F",
"n. c #759254",
"m. c #799556",
"M. c #7C9957",
"N. c #729058",
"B. c #7A965A",
"V. c #7D9A5B",
"C. c #7A9260",
"Z. c #809D5B",
"A. c #84A25E",
"S. c #819C61",
"D. c #85A461",
"F. c #89A764",
"G. c #8CAC65",
"H. c #8FAD68",
"J. c #90AF66",
"K. c #90AF68",
"L. c #91B067",
"P. c #93B369",
"I. c #9ABA6D",
"U. c None",
/* pixels */
"U.U.U.U.U.U.U.U.U.U.U.U.U.U.U.U.U.U.U.U.U.U.U.U.U.U.U.U.U.U.U.U.U.U.U.U.U.U.U.U.U.U.U.U.U.U.U.U.U.U.U.U.U.U.U.U.U.U.U.U.U.U.U.U.U.U.U.U.U.U.U.U.",
"U.U.U.U.U.U.U.U.U.U.U.U.U.U.U.U.U.U.U.U.U.U.U.U.U.U.U.U.U.U.U.U.U.U.U.U.U.U.U.U.U.U.U.U.U.U.U.U.U.U.U.U.U.U.U.U.U.U.U.U.U.U.U.U.U.U.U.U.U.U.U.U.",
"U.U.U.U.U.U.U.U.U.U.U.U.U.U.U.U.U.U.U.U.U.U.U.U.U.U.U.U.U.U.U.U.U.U.U.U.U.U.U.U.U.U.U.U.U.U.U.U.U.U.U.U.U.U.U.U.U.U.U.U.U.U.U.U.U.U.U.U.U.U.U.U.",
"U.U.U.U.U.U.U.U.U.U.U.U.U.U.U.U.U.U.U.U.U.U.U.U.U.U.U.U.U.U.U.U.U.U.U.U.U.U.U.U.U.U.U.U.U.U.U.U.U.U.U.U.U.U.U.U.U.U.U.U.U.U.U.U.U.U.U.U.U.U.U.U.",
"U.U.U.U.U.U.U.U.U.U.U.U.U.U.U.U.U.U.U.U.U.U.U.U.U.U.U.U.U.U.U.U.U.U.U.U.U.U.U.U.U.U.U.U.U.U.U.U.U.U.U.U.U.U.U.U.U.U.U.U.U.U.U.U.U.U.U.U.U.U.U.U.",
"U.U.U.U.U.U.U.U.U.U.U.U.U.U.U.U.U.U.U.U.U.U.U.U.U.U.U.U.U.U.U.U.U.U.U.U.U.U.U.U.U.U.U.U.U.U.U.U.U.U.U.U.U.U.U.U.U.U.U.U.U.U.U.U.U.U.U.U.U.U.U.U.",
"U.U.U.U.U.U.U.U.U.U.U.U.U.U.U.U.U.U.U.U.U.U.U.U.U.U.U.U.U.U.U.U.U.U.U.U.U.U.U.U.U.U.U.U.U.U.U.U.U.U.U.U.U.U.U.U.U.U.U.U.U.U.U.U.U.U.U.U.U.U.U.U.",
"U.U.U.U.U.U.U.U.U.U.U.U.U.U.U.U.U.U.U.U.U.U.U.U.U.U.U.U.U.U.U.U.U.U.U.U.U.U.U.U.U.U.U.U.U.U.U.U.U.U.U.U.U.U.U.U.U.U.U.U.U.U.U.U.U.U.U.U.U.U.U.U.",
"U.U.U.U.U.U.U.U.U.U.U.U.U.U.U.U.U.U.U.U.U.U.U.U.U.U.U.U.U.U.U.U.U.U.U.U.U.U.U.U.U.U.U.U.U.U.U.U.U.U.U.U.U.U.U.U.U.U.U.U.U.U.U.U.U.U.U.U.U.U.U.U.",
"U.U.U.U.U.U.U.U.U.U.U.U.U.U.U.U.U.U.U.U.U.U.U.U.U.U.U.U.U.U.U.U.U.U.a.[ U.U.U.U.U.U.U.U.U.U.U.U.U.U.U.U.U.U.U.U.U.U.U.U.U.U.U.U.U.U.U.U.U.U.U.U.",
"U.U.U.U.U.U.U.U.U.U.U.U.U.U.U.U.U.U.U.U.U.U.U.U.U.U.U.U.U.U.U.U.U.U.t.m n U.U.U.U.U.U.U.U.U.U.U.U.U.U.U.U.U.U.U.U.U.U.U.U.U.U.U.U.U.U.U.U.U.U.U.",
"U.U.U.U.U.U.U.U.U.U.U.U.U.U.U.U.U.U.U.U.U.U.U.U.U.U.U.U.U.U.U.U.U.n n ! 3.U.U.U.U.U.U.U.U.U.U.U.U.U.U.U.U.U.U.U.U.U.U.U.U.U.U.U.U.U.U.U.U.U.U.U.",
"U.U.U.U.U.U.U.U.U.U.U.U.U.U.U.U.U.U.U.U.U.U.U.U.U.U.U.U.U.[ [ ] ! L V 1.f.R n / ) J ) / u.s.U.U.U.U.U.U.U.U.U.U.U.U.U.U.U.U.U.U.U.U.U.U.U.U.U.U.",
"U.U.U.U.U.U.U.U.U.U.U.U.U.U.U.U.U.U.U.U.U.U.U.U.U.U.U.U.} C S E 1.*.R ~ ~ R , : 8 S D L Q k.L C U.U.U.U.U.U.U.U.U.U.U.U.U.U.U.U.U.U.U.U.U.U.U.U.",
"U.U.U.U.U.U.U.U.U.U.U.U.U.U.U.U.U.U.U.U.U.U.U.U.U.A L L J 4 1 h @.@.2.@.L W 4 $ 2 D @.W Q _ L A L ! U.U.U.U.U.U.U.U.U.U.U.U.U.U.U.U.U.U.U.U.U.U.",
"U.U.U.U.U.U.U.U.U.U.U.U.U.U.U.U.U.U.U.U.U.U.U.U.t.m n Q L , + 4 R @.f.>.Q J , 2 2 V W L L m Q Q ! @.6.U.U.U.U.U.U.U.U.U.U.U.U.U.U.U.U.U.U.U.U.U.",
"U.U.U.U.U.U.U.U.U.U.U.U.U.U.U.U.U.U.U.U.U.U.3.3.1.<.+.7.k.L 2 V Q ;.d.#.L L 8 2 n Z W m V d.9.V -.9.#.U.U.U.U.U.U.U.U.U.U.U.U.U.U.U.U.U.U.U.U.U.",
"U.U.U.U.U.U.U.U.U.U.U.U.U.U.U.U.U.U.U.U.U.0.l.I.P.d.K.I.w.n R @.T Q 0 A L W E A m R +.Q W 9.l.2.T D A / U.U.U.U.U.U.U.U.U.U.U.U.U.U.U.U.U.U.U.U.",
"U.U.U.U.U.U.U.U.U.U.U.U.U.U.U.U.U.U.U.U.U.$.! c.F.1.G.P.Z g v #.$.m n L Q $ 8 m + g W 0 E @.R n C C 3 g u.U.U.U.U.U.U.U.U.U.U.U.U.U.U.U.U.U.U.U.",
"U.U.U.U.U.U.U.U.U.U.U.U.U.U.U.U.U.U.U.U.3.7.w.$.j.B.d.l.<.q , h ! n C J m , 8 2 + 2 n m @.d.T D D S T T E u.p.U.U.U.U.U.U.U.U.U.U.U.U.U.U.U.U.U.",
"U.U.U.U.U.U.U.U.U.U.U.U.U.U.U.U.U.U.U.U.U.s.2.#.j.C.#.N.g.&.$ 3 A n m n : + , , + 1 A L T E L n m j 2.@.3.i.i.U.U.U.U.U.U.U.U.U.U.U.U.U.U.U.U.U.",
"U.U.U.U.U.U.U.U.U.U.U.U.U.U.U.U.U.U.U.U.U.} D @.D Z +.@.d.x 2 V V A n , n > n , $ > q C , L m 2 > f ;.H i.U.U.U.U.U.U.U.U.U.U.U.U.U.U.U.U.U.U.U.",
"U.U.U.U.U.U.U.U.U.U.U.U.U.U.U.U.U.U.U.U.U.} Z @.D V +.@.d.l 2 g V n n : 2 > 2 2 $ > n C > Q V 2 > h ;.T p.U.U.U.U.U.U.U.U.U.U.U.U.U.U.U.U.U.U.U.",
"U.U.U.U.U.U.U.U.U.U.U.U.U.U.U.U.U.U.U.U.[ A V D g , 6 6 g 4 D j n C n $ : > 2 : $ $ > > : A n 2 4 h R H p.U.U.U.U.U.U.U.U.U.U.U.U.U.U.U.U.U.U.U.",
"U.U.U.U.U.U.U.U.U.U.U.U.U.U.U.U.U.) ) n n n n n > : X $ : n +.Z n n 2 h j 2 2 0 k h j 3 , 3 2 n A V S _ U.U.U.U.U.U.U.U.U.U.U.U.U.U.U.U.U.U.U.U.",
"U.U.U.U.U.U.U.U.U.U.U.U.U.U.U.+ J Q L 2 n n n , : X + + + X > 2 : $ $ j +.8 @.d.,.T R +.k % $ $ > 2 D @.a.U.U.U.U.U.U.U.U.U.U.U.U.U.U.U.U.U.U.U.",
"U.U.U.U.U.U.U.U.U.U.U.U.U.U.) 1 + T ! +.n n C 2 n $ + + + n n , $ $ + j h.@.2.h.g.@.2.g.#.g + + $ 2 D D 3 U.U.U.U.U.U.U.U.U.U.U.U.U.U.U.U.U.U.U.",
"U.U.U.U.U.U.U.U.U.U.U.U.U.U.J 4 f :.<.g.*.>.Z 2 , , + + + , n , : X n A E 0 >.n.G.m.M.d.@.g + + : > 2 m ) U.U.U.U.U.U.U.U.U.U.U.U.U.U.U.U.U.U.U.",
"U.U.U.U.U.U.U.U.U.U.U.U.U.U.) 9.g.#.#.9.F.v.D n n n n , > n 2 , j #.x.K.f Z m.J.N.d.n.2.+.n 2 > , $ $ 2 | U.U.U.U.U.U.U.U.U.U.U.U.U.U.U.U.U.U.U.",
"U.U.U.U.U.U.U.U.U.U.U.U.U.U.) E 9.*.*.8 R @.E A A A n n n , : , D d.J.F.w.M.m.M.l.7.D.I.<.n 2 2 > $ , , n n n U.U.U.U.U.U.U.U.U.U.U.U.U.U.U.U.U.",
"U.U.U.U.U.U.U.U.U.U.U.U.U.U.F h R Z D n 3 R @.E W C n n V n X : j >.N.*.I.P.M.P.B.T q.S.e.n n 8 > $ $ > A L W 3 L U.U.U.U.U.U.U.U.U.U.U.U.U.U.U.",
"U.U.U.U.U.U.U.U.U.U.U.U.U.8 : 9 R 1.1.;.Z Z 1.9.@.T D S n n : $ $ 6 R W z.M.2.F.B.;.Q 3.W n 8 2 q q h C n L L Z A ) U.U.U.U.U.U.U.U.U.U.U.U.U.U.",
"U.U.U.U.U.U.U.U.U.U.U.U.U.U.U.J 9.g.g.*.E ~ 9.2.E R +.Q C A , $ > $ - 1 n >.@.M.x.E ) L n $ $ 0 T L E S 0 L L +.n n U.U.U.U.U.U.U.U.U.U.U.U.U.U.",
"U.U.U.U.U.U.U.U.U.U.U.U.U.U.C n 9.#.*.+.+.! Q Q L L W L n n > $ h 4 $ + R +.T @.-.T J V 2 + 2 g R W E 2.@.@.@.9.7 $ U.U.U.U.U.U.U.U.U.U.U.U.U.U.",
"U.U.U.U.U.U.U.U.U.U.U.U.U.U.U.t.) C C Q W Z n n n 2 n 3 : 3 T Z 2.*.R 0 V +.j % 4 > 2 2 : $ k +.*.+.>.f.V.g.l.A.x T -.U.U.U.U.U.U.U.U.U.U.U.U.U.",
"U.U.U.U.U.U.U.U.U.U.U.U.U.U.U.U.L $ + $ L Q C : > n 2 2 $ - E ! #.T +.d.3 2 j , + + , 2 + j #.l.d.#.d.h.h.P.I.P.m.I.I.U.U.U.U.U.U.U.U.U.U.U.U.U.",
"U.U.U.U.U.U.U.U.U.U.U.U.U.U.U.U.U.< 1 - v $ + + : 2 + + $ 0 W @.$.T W 8.3 n , + + : 2 $ > @.! f.f.h.G.j.2.K.J.g.h.n.S.U.U.U.U.U.U.U.U.U.U.U.U.U.",
"U.U.U.U.U.U.U.U.U.U.U.U.U.U.U.U.5.s.s.,.@.x 7 6 0 $ + + $ g T L n T E T +.C : + : > , , 2 J L ! 9.A.I.c.3.l.l.N.G.U < K U.U.U.U.U.U.U.U.U.U.U.U.",
"U.U.U.U.U.U.U.U.U.U.U.U.U.U.] $.W 4.4.m.n ! 9.x.:.4 + : h v D Z V h j A A 2 0 > , $ $ $ $ g n Z f.M.P.;.S.K.K.G.A.Z.T Q U.U.U.U.U.U.U.U.U.U.U.U.",
"U.U.U.U.U.U.U.U.U.U.U.U.U.U.L R l.4.4.l.C 4.H.I.4.> + 2 4 V 2 2 > + $ V 2 Z E S T : 2 $ > k V j >.2.G.2.G.I.I.N.x.J.n.e.U.U.U.U.U.U.U.U.U.U.U.U.",
"U.U.U.U.U.U.U.U.U.U.U.} u.} 4.9.D.C.V.2.C.l.l.B.9.0 + : + > 2 2 $ $ l J Z R R -.8.7 : + 4 C g 2 k 2.x.>.M.k.j.@.,.M.B.7.} u.U.U.U.U.U.U.U.U.U.U.",
"U.U.U.U.U.U.U.U.U.U.| L L C *.1.l.A.A.K.L.l.n.7.j > + + : 2 2 2 : 8 H $.T 2.@.f.8.H m $ F J $ $ $ 7 b %.>.+.#.6 R ;.<.D L ) } U.U.U.U.U.U.U.U.U.",
"U.U.U.U.U.U.U.U.U.U.{ 2 2 n 3 1.g.d.2.>.h.x.7.0 : + + + > 1 J S A L V +.@.l.,.R x 2.S.u - H + + $ + ^ 7 % $ $ $ m Q W n D V ) U.U.U.U.U.U.U.U.U.",
"U.U.U.U.U.U.U.U.U.U.| j V L V 8.g.0 0 #.h.2.D 2 : + + + 2 : W J J S.4.~ @.f.<.P.x.9.h.P.+.+ + + + + + + + + + + 9 2 m ! +.V U.U.U.U.U.U.U.U.U.U.",
"U.U.U.U.U.U.U.U.U.U.] W 0 C V c 3 n m Q d.l > + + + + + $ $ 0 J ! v.V.G.V.g.k.F.I.z.;.L > + + + 4 b j m > $ + + : n L J n $ M U.U.U.U.U.U.U.U.U.",
"U.U.U.U.U.U.U.U.U.L ~ 9.#.@.Q H $ 2 2 2 2 + + > 2 : + + + $ 6 #.V.L.S.k.1.@.$.d.g.9.f.g.Q + + $ 6 v W W V 2 2 2 + 4 J n $ + U.U.U.U.U.U.U.U.U.U.",
"U.U.U.U.U.U.U.U.L Q 1.f.,.+.W 1 + $ $ , > + + > > : + : $ 0 R 1.v.1.+.D.I.Q v.C.8.1.8.g.f.5 O 4 W Q L *.@.0 3 2 $ > n 1 + U.U.U.U.U.U.U.U.U.U.U.",
"U.U.U.U.U.U.U.U.U.U.w.$.Z R T > + + + 1 $ > , , % $ + : > g Z -.Z T *.C.D.-.N.z.9.*.R *.&._ 5 6 $.;.-.9.$.C V 2 > 2 2 : + M U.U.U.U.U.U.U.U.U.U.",
"U.U.U.U.U.U.U.U.U.[ Q 8 D *.T 2 + 1 1 F C n C C S j $ + , v #.q.-.8.9.x.h.-.w.L %.9.Z 0 1 F 1 4 v 9.g.,.1.Q L S 1 > $ + + + 9 U.U.U.U.U.U.U.U.U.",
"U.U.U.U.U.U.U.U.U.` P 7 @.@.7 $ + 2 2 n n n W +.T W $ + , g Z Q :.h.f.f.-.( x.;.:.h.~ A > : + : h #.-.E *.n V R j + $ , $ + < p.U.U.U.U.U.U.U.U.",
"U.U.U.U.U.U.U.U.U.` ( 9 h h $ $ , 2 2 n T V Z @.Z A A + $ 2 n n %.Z.l W 8 1 E :.Q 7.] E x $ + : V R @.W g 2 2 % % + : 2 $ + U.U.U.U.U.U.U.U.U.U.",
"U.U.U.U.U.U.U.U.U.` ` ` F $ , : $ 8 2 S T m S Z h % + > > $ $ : $ @ > > m q 8 W E J $.R T > + + : j +.q > 2 2 > + + + + + K U.U.U.U.U.U.U.U.U.U.",
"U.U.U.U.U.U.U.U.U.[ ` ` ` [ q + + 9 9 n 8 1 L C : + + 2 2 + + : > + + + L L 7 +.f 4 R 0 2 + 2 > + + + + + 2 2 2 : + + + + U.U.U.U.U.U.U.U.U.U.U.",
"U.U.U.U.U.U.U.U.U.U.` ` ` ` u $ < : : o + > F 1 + + + + : + : 2 : + + m G C % j > > T +.$ + 2 2 : + + + + , , 2 $ + + + + + U.U.U.U.U.U.U.U.U.U.",
"U.U.U.U.U.U.U.U.U.U.` ` ` ` K M ( M M : : $ 1 O $ $ + + + + $ : + + + 1 + + + + + $ q C + : + > : + + + + + + + + + < $ U.U.U.U.U.U.U.U.U.U.U.U.",
"U.U.U.U.U.U.U.U.U.U.` ` [ ` ` ` ` y.t.n 8 1 $ + > , + + + + + + + + + + + + > : + + : , + , + + + + + + : + + + + 9 G M U.U.U.U.U.U.U.U.U.U.U.U.",
"U.U.U.U.U.U.U.U.U.U.U.` ` ] ` ` [ ` ` F n ( 9 + > : + + + + + + $ + + + > > m m + : + + + : + + + + + $ , > > , U.U.U.U.U.U.U.U.U.U.U.U.U.U.U.U.",
"U.U.U.U.U.U.U.U.U.U.U.U.[ ` ` ` ` ` [ ` P ` Y 1 $ * + + + + + : : + + + , , n 8 + > : + + + + + + + 1 M m , , 8 U.U.U.U.U.U.U.U.U.U.U.U.U.U.U.U.",
"U.U.U.U.U.U.U.U.U.U.U.U.U.` ` ` ` ` ` ` [ ` | o.{ { ` ` + + O + + + + + : + > $ + : : + + + + + + + < U.U.{ { { U.U.U.U.U.U.U.U.U.U.U.U.U.U.U.U.",
"U.U.U.U.U.U.U.U.U.U.U.U.U.U.` ` ` ` ` ` ` ` ` ] [ ` [ [ K X     o + X X X + + + + + + + + + + + 9 ' U.U.U.U.U.U.U.U.U.U.U.U.U.U.U.U.U.U.U.U.U.U.",
"U.U.U.U.U.U.U.U.U.U.U.U.U.U.U.` ` ` ` ` ` ` ` ` ` ` ` ` ( i w           X   + + + o X o + + + $ 9 U.U.U.U.U.U.U.U.U.U.U.U.U.U.U.U.U.U.U.U.U.U.U.",
"` U.U.U.U.U.U.U.U.U.U.U.U.U.U.U.U.U.U.U.` ` ` ` U.U.` ` ` ` I w @ @       X X X X   X   o U K K U.U.U.U.U.U.U.U.U.U.U.U.U.U.U.U.U.U.U.U.U.U.U.U.",
"U.U.U.U.U.U.U.U.U.U.U.U.U.U.U.U.U.U.U.U.U.U.U.U.U.U.U.` ` ` U r e t @   t r @         X U.U.U.U.U.U.U.U.U.U.U.U.U.U.U.U.U.U.U.U.U.U.U.U.U.U.U.U.",
"U.U.U.U.U.U.U.U.U.U.U.U.U.U.U.U.U.U.U.U.U.U.U.U.U.U.U.U.` ` | U w a t O w w e X       U.U.U.U.U.U.U.U.U.U.U.U.U.U.U.U.U.U.U.U.U.U.U.U.U.U.U.U.U.",
"U.U.U.U.U.U.U.U.U.U.U.U.U.U.U.U.U.U.U.U.U.U.U.U.U.U.U.U.U.` ` 5 r ..s t & . =   . . . U.U.U.U.U.U.U.U.U.U.U.U.U.U.U.U.U.U.U.U.U.U.U.U.U.U.U.U.U.",
"U.U.U.U.U.U.U.U.U.U.U.U.U.U.U.U.U.U.U.U.U.U.U.U.U.U.U.U.U.` Y 5 r ..d e & . *   . . . U.U.U.U.U.U.U.U.U.U.U.U.U.U.U.U.U.U.U.U.U.U.U.U.U.U.U.U.U.",
"U.U.U.U.U.U.U.U.U.U.U.U.U.U.U.U.U.U.U.U.U.U.U.U.U.U.U.U.` P - @ d X.= a &   O @ @ @ . w U.U.U.U.U.U.U.U.U.U.U.U.U.U.U.U.U.U.U.U.U.U.U.U.U.U.U.U.",
"U.U.U.U.U.U.U.U.U.U.U.U.U.U.U.U.U.U.U.U.U.U.U.U.U.U.U.` ` G   =  .d O @ = .   & e @   e U.U.U.U.U.U.U.U.U.U.U.U.U.U.U.U.U.U.U.U.U.U.U.U.U.U.U.U.",
"U.U.U.U.U.U.U.U.U.U.U.U.U.U.U.U.U.U.U.U.U.U.U.U.U.U.` ` u.' e a d r o =  .=   . @ @   e r o.U.U.U.U.U.U.U.U.U.U.U.U.U.U.U.U.U.U.U.U.U.U.U.U.U.U.",
"U.U.U.U.U.U.U.U.U.U.U.U.U.U.U.U.U.U.U.U.U.U.U.U.U.` ` ` i  .X.B *   . t X.r   & r @   @ @ t U.U.U.U.U.U.U.U.U.U.U.U.U.U.U.U.U.U.U.U.U.U.U.U.U.U.",
"U.U.U.U.U.U.U.U.U.U.U.U.U.U.U.U.U.U.U.U.U.U.U.U.U.s t t t t r *     r X.t r & ..X.t o       U.U.U.U.U.U.U.U.U.U.U.U.U.U.U.U.U.U.U.U.U.U.U.U.U.U.",
"U.U.U.U.U.U.U.U.U.U.U.U.U.U.U.U.U.U.U.U.U.U.U.U.U.-   t e         = t  .t r #  .X.i U.U.U.U.U.U.U.U.U.U.U.U.U.U.U.U.U.U.U.U.U.U.U.U.U.U.U.U.U.U.",
"U.U.U.U.U.U.U.U.U.U.U.U.U.U.U.U.U.U.U.U.U.U.U.U.U.U.U.1 1 1 - $ O i s d * r   *  .y r U.U.U.U.U.U.U.U.U.U.U.U.U.U.U.U.U.U.U.U.U.U.U.U.U.U.U.U.U.",
"U.U.U.U.U.U.U.U.U.U.U.U.U.U.U.U.U.U.U.U.U.U.U.U.U.U.U.U.U.O.O.Y s  .a O   = O X ; r = U.U.U.U.U.U.U.U.U.U.U.U.U.U.U.U.U.U.U.U.U.U.U.U.U.U.U.U.U.",
"U.U.U.U.U.U.U.U.U.U.U.U.U.U.U.U.U.U.U.U.U.U.U.U.U.U.U.U.U.U.U.U.N ..s X   U.e &         U.U.U.U.U.U.U.U.U.U.U.U.U.U.U.U.U.U.U.U.U.U.U.U.U.U.U.U.",
"U.U.U.U.U.U.U.U.U.U.U.U.U.U.U.U.U.U.U.U.U.U.U.U.U.U.U.U.U.U.U.U.U.B B @ o   U.U.U.U.U.U.U.U.U.U.U.U.U.U.U.U.U.U.U.U.U.U.U.U.U.U.U.U.U.U.U.U.U.U.",
"U.U.U.U.U.U.U.U.U.U.U.U.U.U.U.U.U.U.U.U.U.U.U.U.U.U.U.U.U.U.U.U.U.O.O.' ' ` U.U.U.U.U.U.U.U.U.U.U.U.U.U.U.U.U.U.U.U.U.U.U.U.U.U.U.U.U.U.U.U.U.U.",
"U.U.U.U.U.U.U.U.U.U.U.U.U.U.U.U.U.U.U.U.U.U.U.U.U.U.U.U.U.U.U.U.U.U.U.U.U.U.U.U.U.U.U.U.U.U.U.U.U.U.U.U.U.U.U.U.U.U.U.U.U.U.U.U.U.U.U.U.U.U.U.U.",
"U.U.U.U.U.U.U.U.U.U.U.U.U.U.U.U.U.U.U.U.U.U.U.U.U.U.U.U.U.U.U.U.U.U.U.U.U.U.U.U.U.U.U.U.U.U.U.U.U.U.U.U.U.U.U.U.U.U.U.U.U.U.U.U.U.U.U.U.U.U.U.U.",
"U.U.U.U.U.U.U.U.U.U.U.U.U.U.U.U.U.U.U.U.U.U.U.U.U.U.U.U.U.U.U.U.U.U.U.U.U.U.U.U.U.U.U.U.U.U.U.U.U.U.U.U.U.U.U.U.U.U.U.U.U.U.U.U.U.U.U.U.U.U.U.U.",
"U.U.U.U.U.U.U.U.U.U.U.U.U.U.U.U.U.U.U.U.U.U.U.U.U.U.U.U.U.U.U.U.U.U.U.U.U.U.U.U.U.U.U.U.U.U.U.U.U.U.U.U.U.U.U.U.U.U.U.U.U.U.U.U.U.U.U.U.U.U.U.U.",
"U.U.U.U.U.U.U.U.U.U.U.U.U.U.U.U.U.U.U.U.U.U.U.U.U.U.U.U.U.U.U.U.U.U.U.U.U.U.U.U.U.U.U.U.U.U.U.U.U.U.U.U.U.U.U.U.U.U.U.U.U.U.U.U.U.U.U.U.U.U.U.U.",
"U.U.U.U.U.U.U.U.U.U.U.U.U.U.U.U.U.U.U.U.U.U.U.U.U.U.U.U.U.U.U.U.U.U.U.U.U.U.U.U.U.U.U.U.U.U.U.U.U.U.U.U.U.U.U.U.U.U.U.U.U.U.U.U.U.U.U.U.U.U.U.U.",
"U.U.U.U.U.U.U.U.U.U.U.U.U.U.U.U.U.U.U.U.U.U.U.U.U.U.U.U.U.U.U.U.U.U.U.U.U.U.U.U.U.U.U.U.U.U.U.U.U.U.U.U.U.U.U.U.U.U.U.U.U.U.U.U.U.U.U.U.U.U.U.U.",
"U.U.U.U.U.U.U.U.U.U.U.U.U.U.U.U.U.U.U.U.U.U.U.U.U.U.U.U.U.U.U.U.U.U.U.U.U.U.U.U.U.U.U.U.U.U.U.U.U.U.U.U.U.U.U.U.U.U.U.U.U.U.U.U.U.U.U.U.U.U.U.U.",
"U.U.U.U.U.U.U.U.U.U.U.U.U.U.U.U.U.U.U.U.U.U.U.U.U.U.U.U.U.U.U.U.U.U.U.U.U.U.U.U.U.U.U.U.U.U.U.U.U.U.U.U.U.U.U.U.U.U.U.U.U.U.U.U.U.U.U.U.U.U.U.U.",
"U.U.U.U.U.U.U.U.U.U.U.U.U.U.U.U.U.U.U.U.U.U.U.U.U.U.U.U.U.U.U.U.U.U.U.U.U.U.U.U.U.U.U.U.U.U.U.U.U.U.U.U.U.U.U.U.U.U.U.U.U.U.U.U.U.U.U.U.U.U.U.U."
};
