/* XPM */
static char *tree_test[] = {
/* columns rows colors chars-per-pixel */
"64 36 96 2 ",
"   c #82585F",
".  c #865B62",
"X  c #895E66",
"o  c #856063",
"O  c #886067",
"+  c #8C6269",
"@  c #93656D",
"#  c #936D73",
"$  c #96777B",
"%  c #9C757C",
"&  c #97787D",
"*  c #99787D",
"=  c #75A42F",
"-  c #76BE22",
";  c #77A730",
":  c #7CC524",
">  c #7FC925",
",  c #82B53A",
"<  c #82CD26",
"1  c #87D426",
"2  c #88D527",
"3  c #8CD827",
"4  c #87D228",
"5  c #8AD629",
"6  c #8ED82A",
"7  c #93DB2C",
"8  c #99DE2F",
"9  c #95DA39",
"0  c #9BDD3C",
"q  c #83B741",
"w  c #85B941",
"e  c #89BD40",
"r  c #8DC244",
"t  c #97DA41",
"y  c #99DA46",
"u  c #9FDE49",
"i  c #A1DE49",
"p  c #A1DC55",
"a  c #AAE257",
"s  c #ACE359",
"d  c #AADF63",
"f  c #B9E571",
"g  c #BEEA76",
"h  c #C1EB7D",
"j  c #9D7D82",
"k  c #A07D83",
"l  c #9F8785",
"z  c #A28287",
"x  c #A6848A",
"c  c #A48B8C",
"v  c #A98E8C",
"b  c #AE8F95",
"n  c #AC9397",
"m  c #AF9E9A",
"M  c #B19997",
"N  c #B19298",
"B  c #B59FA3",
"V  c #B6A3A2",
"C  c #B9A4A1",
"Z  c #B6A8A3",
"A  c #BBACA7",
"S  c #BCA6AA",
"D  c #BEAEAA",
"F  c #C0ACAC",
"G  c #C6B1B5",
"H  c #C8B4B7",
"J  c #C6B6B9",
"K  c #C9B5B9",
"L  c #CBBABD",
"P  c #C2EA83",
"I  c #CAC0BA",
"U  c #CEBFC2",
"Y  c #D4C7C9",
"T  c #D7CACC",
"R  c #D8CDCF",
"E  c #DED6D8",
"W  c #E3DCDE",
"Q  c #E1EDCF",
"!  c #E1F0CB",
"~  c #E3EFD1",
"^  c #E8EFDF",
"/  c #E5F1D4",
"(  c #E7F1DA",
")  c #E8F0DF",
"_  c #E9E7E7",
"`  c #E9EDE5",
"'  c #EFEEEE",
"]  c #F0EEEF",
"[  c #EAF1E1",
"{  c #EFF1EC",
"}  c #F0F2EE",
"|  c #EFEFF0",
" . c #F0EFF1",
".. c #F3F3F3",
"X. c #F7F6F8",
"o. c #F8F8F8",
/* pixels */
"o.' o.' X.' X.......{ X.' X.' o._ o.' X.{ X.| ........' o.' o.' o.' X.' X.' ........| o.| o.' o.' o.' o.| X.| ........| o.' o._ ",
"' X.' X.' ..} ........' X.' X.' X.' X.{ ............' X.' X.' ..{ ..' X.{ X...........| ..| o.| ..| ..| ............| o.| o.| o.",
"X.' ..} ..............X.' X.' X.' X.' X.| ..........X.' X.' X.{ X.' X.' X.| ........| o.| ..| ..| o.| ..| ..| ........| ..| X.{ ",
"' X.' X.....| ....' ..| ..' X.{ X.} ....X...............} ..' X.{ X.{ X...............| X.| o.| ..| ....X.| ........{ ......| X.",
"..} ..| ....................{ X. .X.' } ` ^ ^ ^ ^ ^ ( P f g f g f h Q ^ ^ ^ ^ ^ ) ) ) [ ............| ................| ..| ..| ",
"{ X...................{ ..............( a y y y y y y 6 3 2 3 3 6 5 0 y y y y u u u t s / ....| ................| ............X.",
"..............| ........| ............! 0 1 5 1 1 2 2 5 7 7 5 5 5 5 5 2 2 2 1 7 7 6 2 9 ~ ......................................",
"....................................../ 0 2 5 < : 4 5 5 3 7 5 5 5 7 5 5 5 5 > - > 5 5 0 ~ X.........| ........| ..............| ",
"............{ ....| ......{ ..........~ 0 2 5 5 7 5 5 4 < 4 5 5 5 5 5 5 5 5 5 4 5 5 5 0 /  ...| ........................{ ....X.",
"X.| ..| ................| X.....' X...~ 9 5 5 6 7 5 5 4 > 4 5 5 5 5 5 5 4 4 5 5 5 5 4 9 Q X.| X.| X.| ..| ..| ....| ......| ..{ ",
"' ..{ X.| ............' ..' X.' ..} X.Q 0 5 5 5 5 5 5 5 5 5 5 5 5 5 5 5 : > 5 5 5 5 5 0 /  ...| X.{ ..| X.| ........| X.| ..| o.",
"o.| X.| ............| X.{ X.' X.' X.../ 0 5 5 5 5 5 4 5 5 5 5 5 5 5 5 5 4 5 5 5 5 5 5 0 Q o.| X.{ X.{ X...............| X.| X.' ",
"' X.' X.' ..........X.| X.' X.' X.{ X.Q 0 5 5 5 5 < - > 5 8 8 7 5 5 5 5 5 5 5 8 8 6 2 0 / ....| X.| o.| X.| ........| o.| ..| o.",
"X.' X.{ X...........{ ..' X.' X.' X.' / 0 5 7 8 6 4 4 4 5 5 5 5 5 5 5 6 7 5 5 5 6 5 2 0 Q o.| X.' ..| ..| ............| X.{ X.' ",
"` X.' X.' ..| ............' X.' X.' X.Q 9 2 1 1 1 5 5 4 2 2 2 4 5 1 1 6 7 3 2 1 3 1 1 9 /  .X.{ X.{ o.| ............| ..| X.{ o.",
"o.' X.' X.| ........| X.{ X.{ X.' X. .( d e w q w e ; , p p p e r ; r r p p r r r a p d ~ X.| X.| o.| ......| ......X.| ..| ..' ",
"' X.| X.| ........| ..| X.{ ..| X.{ X.' { C v v n A o c ^ } ` m Z c L F ` { Z F D { { [ ..| ..| ..| ..| X.{ ........| X.| ..| o.",
"X.{ ..| ................| X.....' X.....{ W F N Y V   z ^ W W n m A Y k c c * S G ........o.| X.| X.....| ........| ..........{ ",
"| ......| ............| ..| ..........| ..X.T # # + X + @ # # + + @ # @ X + + # S ........| ..| ..| ....................| ......",
"..........................................X.W H G G K G G % + @ @ @ @ x K G J G R ......................| ............| ........",
"....................| ..............................X...] x X + @ O + G ....X...................................................",
"| ..........| ............| ......| ...................._ x X X @ . $ ` ..........................| ............| ..............",
"X.| X.{ ..| ....................| X.........| ..........] x X @ @ . $ _ ............| ..| ........X.| ..| ....................| ",
"' X.| ....................| ..{ X.' ......| ........ .X._ x X X @ . $ | ....| ..........X.| ..| ..| X.| ................| ..| o.",
"o.| X.| ........| ..| ..| X.' X.' ..{ X.{ ............| ] x X X @ . * _ .. .........| o.| ..| ..| ..| X.| ..| ....| ..| o.| o.{ ",
"` X.' X.................X.{ X.' X.' X.{ X.| ........| X._ x X @ @ . $ ] ..............| o.| X.{ o.{ X.| X...............| ..| o.",
"o.' X.' X.| ..| ....| X.{ X.' X.' X.' X.| X.| .......... .x X + @ . * _ X. .........| ..| o.{ X.| ..' ..{ ............| ..| X.' ",
"` X.' X.| ........| X.{ ..' X.' X.' X.' ............{ X._ x X X # . $  .' ........| o.| ..| X.' o.| o.| o.| ........| o.| ..' X.",
"o.| X.{ X.| ............| X.' X.{ X.{ X.| ..| ....| ....' x X + @ . $ _ X...........| X.| X.{ o.| o.| ..| ............| o.| o.' ",
"' X.| ................| X.{ X.' X.' X.| ............| X._ x X + @ . $ } } ........| ......| ..| ..| o.| ................| ..| o.",
"X.| X.....| ............| ..| X.{ X.{ ................| ] x X + # . & _ ................| o.| o.| o.| ............| ......| ..| ",
"{ ..| ............| ........X.{ ..| ...................._ x X + @ . * _ .... .............| ..| ..| X.| ..| ....................",
"......{ ...... . ....... ............... ...} ........] L #   X @ . o J ................{ ..' ......| ............| ..........| ",
"......................................................W b j $ z x k $ x E ......| ..............................................",
" .......{ ........................ ...................] ' _ _ ' ' _ ] _ ' ......................................................",
"X.| X.' X. .............} ..} ..' X.' ............] ..} X...X.' .. .X. .X.| ............| X.' X.' X.{ ..| ........| ..| X.| ..' "
};
