/* XPM */
static char *tree_test2[] = {
/* columns rows colors chars-per-pixel */
"64 64 188 2 ",
"   c #1A100E",
".  c #2E1712",
"X  c #3A1E1A",
"o  c #331E1C",
"O  c #3F1F23",
"+  c #2A1D24",
"@  c #2B2E3D",
"#  c #472726",
"$  c #512925",
"%  c #59312B",
"&  c #49353B",
"*  c #593432",
"=  c #623930",
"-  c #267F3F",
";  c #71483E",
":  c #373041",
">  c #2D4559",
",  c #277F40",
"<  c #1E5B66",
"1  c #295A6C",
"2  c #22666A",
"3  c #206C6D",
"4  c #2B686B",
"5  c #236671",
"6  c #376377",
"7  c #297374",
"8  c #2A7C73",
"9  c #257675",
"0  c #58526C",
"q  c #249A36",
"w  c #24992F",
"e  c #2EA73E",
"r  c #24BB3C",
"t  c #2CBD3D",
"y  c #2BB835",
"u  c #32BE3E",
"i  c #479E39",
"p  c #5DB831",
"a  c #56AA35",
"s  c #65A83A",
"d  c #76BC3B",
"f  c #68B128",
"g  c #2FC13B",
"h  c #32C23C",
"j  c #37C43A",
"k  c #49CB3F",
"l  c #55C43C",
"z  c #78C836",
"x  c #1F8047",
"c  c #2B9D5D",
"v  c #38914E",
"b  c #2EAE4D",
"n  c #27AF45",
"m  c #2CB645",
"M  c #2FBC40",
"N  c #2DB249",
"B  c #26B640",
"V  c #32B946",
"C  c #26A157",
"Z  c #2CA655",
"A  c #2DAA51",
"S  c #2CA15A",
"D  c #29866C",
"F  c #298D6A",
"G  c #298F68",
"H  c #299466",
"J  c #2B9961",
"K  c #299169",
"L  c #298471",
"P  c #309670",
"I  c #2CA061",
"U  c #5A9C53",
"Y  c #489B56",
"T  c #679C5C",
"R  c #72985B",
"E  c #54A74D",
"W  c #55A150",
"Q  c #43B54B",
"!  c #6BB544",
"~  c #68A359",
"^  c #73A85C",
"/  c #75AF4B",
"(  c #479160",
")  c #689867",
"_  c #719C64",
"`  c #68A262",
"'  c #7DA063",
"]  c #33C240",
"[  c #3AC341",
"{  c #37CE43",
"}  c #2BC141",
"|  c #44C641",
" . c #48C741",
".. c #4DC942",
"X. c #54CB45",
"o. c #5DCF46",
"O. c #55C14F",
"+. c #49D447",
"@. c #43D346",
"#. c #5CD046",
"$. c #59D948",
"%. c #63D146",
"&. c #6DD448",
"*. c #6CD645",
"=. c #73D749",
"-. c #76D94B",
";. c #7BDA4A",
":. c #71D847",
">. c #7BE34B",
",. c #93CD3F",
"<. c #89AC7C",
"1. c #8BA465",
"2. c #84DD4C",
"3. c #8ADE4C",
"4. c #80DC45",
"5. c #87C040",
"6. c #8DE24D",
"7. c #84E04A",
"8. c #94E24E",
"9. c #9AE54F",
"0. c #95E451",
"q. c #9CE650",
"w. c #99EA52",
"e. c #A1E751",
"r. c #A4EA51",
"t. c #ABEB53",
"y. c #B3ED54",
"u. c #BAEF57",
"i. c #BAF559",
"p. c #ACF154",
"a. c #C3F159",
"s. c #CCF45A",
"d. c #C8F85A",
"f. c #D2F85C",
"g. c #4C6882",
"h. c #4B7081",
"j. c #5E6B90",
"k. c #6A6482",
"l. c #7E7BA4",
"z. c #827DA5",
"x. c #759C83",
"c. c #6C8497",
"v. c #7D95A2",
"b. c #7F81AA",
"n. c #9CB59A",
"m. c #8781AA",
"M. c #8F88B6",
"N. c #948CBB",
"B. c #9BAFA2",
"V. c #ACBEAA",
"C. c #A7BFAF",
"Z. c #A4C1A9",
"A. c #B7C3AB",
"S. c #BECBBF",
"D. c #C3CDBC",
"F. c #978DC0",
"G. c #988FC1",
"H. c #9D94C3",
"J. c #9F95C9",
"K. c #A097C5",
"L. c #A299C6",
"P. c #A49ACA",
"I. c #A79ED0",
"U. c #AAA1CC",
"Y. c #B2A8D4",
"T. c #BEB4D8",
"R. c #ADA4D6",
"E. c #B9C1CB",
"W. c #C8CEC6",
"Q. c #C8C9D7",
"!. c #D9DDD6",
"~. c #DCE2DF",
"^. c #CEC9E0",
"/. c #D8D5E6",
"(. c #E2DFEB",
"). c #DEE0E5",
"_. c #E6E3EE",
"`. c #EAEBEA",
"'. c #E5E6E9",
"]. c #EFF1ED",
"[. c #EDEBF2",
"{. c #E8E5F0",
"}. c #F0EFF4",
"|. c #F3F3F4",
" X c #FAF7FB",
".X c #FFFFFF",
"XX c #F9F8F7",
"oX c #F0F1EE",
/* pixels */
".X.X.X.X.X.X.X.X.X.X.X.X.X.X.X.X.X.X.X.X.X.X.X.X.X.X.X.X.X.X.X.X.X.X.X.X.X.X.X.X.X.X.X.X.X.X.X.X.X.X.X.X.X.X.X.X.X.X.X.X.X.X.X.X",
".X.X.X.X.X.X.X.X.X.X.X.X.X.X.X.X.X.X.X.X.X.X.X.X.X.X.X.X.X.X.X.X.X.X.X.X.X.X.X.X.X.X.X.X.X.X.X.X.X.X.X.X.X.X.X.X.X.X.X.X.X.X.X.X",
".X.X.X.X.X.X.X.X.X.X.X.X.X.X.X.X.X.X.X.X.X.X.X.X.X.X.X.X.X.X.X.X.X.X.X.X.X.X.X.X.X.X.X.X.X.X.X.X.X.X.X.X.X.X.X.X.X.X.X.X.X.X.X.X",
".X.X.X.X.X.X.X.X.X.X.X.X.X.X.X.X.X.X.X.X.X.X.X.X.X.X.X.X.X.X.X.X.X.X.X.X.X.X.X.X.X.X.X.X.X.X.X.X.X.X.X.X.X.X.X.X.X.X.X.X.X.X.X.X",
".X.X.X.X.X.X.X.X.X.X.X.X.X.X.X.X.X.X.X.X.X.X.X.X.X.X.X.X.X.X.X.X.X.X.X.X.X.X.X.X.X.X.X.X.X.X.X.X.X.X.X.X.X.X.X.X.X.X.X.X.X.X.X.X",
".X.X.X.X.X.X.X.X.X.X.X.X.X.X.X.X.X.X.X.X.X.X.X.X.X.X.X.X.X.X.X.X.X.X.X.X.X.X.X.X.X.X.X.X.X.X.X.X.X.X.X.X.X.X.X.X.X.X.X.X.X.X.X.X",
".X.X.X.X.X.X.X.X.X.X.X.X.X.X.X.X.X.X.X.X.X.X.X.X.X.X.X.X.X.X.X.X.X.X.X.X.X.X.X.X.X.X.X.X.X.X.X.X.X.X.X.X.X.X.X.X.X.X.X.X.X.X.X.X",
".X.X.X.X.X.X.X.X.X.X.X.X.X.X.X.X.X.X.X.X.X.X.X.X.X.X.X.X.X.X.X.X.X.X.X.X.X.X.X.X.X.X.X.X.X.X.X.X.X.X.X.X.X.X.X.X.X.X.X.X.X.X.X.X",
".X.X.X.X.X.X.X.X.X.X.X.X.X.X.X.X.X.X.X.X.X.X.X.X.X.X.X.X.X.X.X.X.X.X.X.X.X.X.X.X.X.X.X.X.X.X.X.X.X.X.X.X.X.X.X.X.X.X.X.X.X.X.X.X",
".X.X.X.X.X.X.X.X.X.X.X.X.X.X.X.X.X.X.X.X.X.X.X.X.X.X.X.X.X.X.X.X.X.X.X.X.X.X.X.X.X.X.X.X.X.X.X.X.X.X.X.X.X.X.X.X.X.X.X.X.X.X.X.X",
".X.X.X.X.X.X.X.X.X.X.X.X.X.X.X.X.X.X.X.X.X.X.X.X.X.X.X.X.X.X.X.X.X.X.X.X.X.X.X.X.X.X.X.X.X.X.X.X.X.X.X.X.X.X.X.X.X.X.X.X.X.X.X.X",
".X.X.X.X.X.X.X.X.X.X.X.X.X.X.X.X.X.X.X.X.X.X.X.X.X.X.X.X.X.X.X.X.X.X.X.X.X.X.X.X.X.X.X.X.X.X.X.X.X.X.X.X.X.X.X.X.X.X.X.X.X.X.X.X",
".X.X.X.X.X.X.X.X.X.X.X.X.X.X.X.X.X.X.X.X.X.X.X.X.X.X.X.X.X.X.XA.A..X.X.X.X.X.X.X.X.X.X.X.X.X.X.X.X.X.X.X.X.X.X.X.X.X.X.X.X.X.X.X",
".X.X.X.X.X.X.X.X.X.X.X.X.X.X.X.X.X.X.X.X.X.X.X.X.X.X.X.X.X.XZ.5.5.Z..X.X.X.X.X.X.X.X.X.X.X.X.X.X.X.X.X.X.X.X.X.X.X.X.X.X.X.X.X.X",
".X.X.X.X.X.X.X.X.X.X.X.X.X.X.X.X.X.X.X.X.X.X.X.X.X.X.X.X.X X/ a.t.T .X.X.X.X.X.X.X.X.X.X.X.X.X.X.X.X.X.X.X.X.X.X.X.X.X.X.X.X.X.X",
".X.X.X.X.X.X.X.X.X.X.X.X.X.X.X.X.X.X.X.X.X.X.X.X.X.X.X.XXXXX1.s.y.R .XXX.X.X.X.X.X.X.X.X.X.X.X.X.X.X.X.X.X.X.X.X.X.X.X.X.X.X.X.X",
".X.X.X.X.X.X.X.X.X.X.X.X.X.X.X.X.X.X.X.X.X.X.X.X.X.XXX.X.X~.~ s.u.E ~..X X X.X.X.X.X.X.X.X.X.X.X.X.X.X.X.X.X.X.X.X.X.X.X.X.X.X.X",
".X.X.X.X.X.X.X.X.X.X.X.X.X.X.X.X.X.X.X.X.X.X.X.X.X.X.XXXW.W 9.f.u.*.W W.XX.X.X.X.X.X.X.X.X.X.X.X.X.X.X.X.X.X.X.X.X.X.X.X.X.X.X.X",
".X.X.X.X.X.X.X.X.X.X.X.X.X.X.X.X.X.X.X.X.X.X.X.X.X.X!.R s t.f.s.u.9.7.a _ !..X.X.X.X.X.X.X.X.X.X.X.X.X.X.X.X.X.X.X.X.X.X.X.X.X.X",
".X.X.X.X.X.X.X.X.X.X.X.X.X.X.X.X.X.X.X.X.X.X.X.X.X.XV.f i.d.r.a.t.e.d.p.f Z..X.X.X.X.X.X.X.X.X.X.X.X.X.X.X.X.X.X.X.X.X.X.X.X.X.X",
".X.X.X.X.X.X.X.X.X.X.X.X.X.X.X.X.X.X.X.X.X.X.X.X X.X!./ e.8.;.t.e.-.6.r./ !..X X.X.X.X.X.X.X.X.X.X.X.X.X.X.X.X.X.X.X.X.X.X.X.X.X",
".X.X.X.X.X.X.X.X.X.X.X.X.X.X.X.X.X.X.X.X.X.X.X.X.X}.S.Q &.+.{ ;.;.*.*.:.! D.XX.X.X.X.X.X.X.X.X.X.X.X.X.X.X.X.X.X.X.X.X.X.X.X.X.X",
".X.X.X.X.X.X.X.X.X.X.X.X.X.X.X.X.X.X.X.X.X.X.X.XD.T d 6.+.$.0.=.=.e.6.;.6.a T D..X.X.X.X.X.X.X.X.X.X.X.X.X.X.X.X.X.X.X.X.X.X.X.X",
".X.X.X.X.X.X.X.X.X.X.X.X.X.X.X.X.X.X.X.X.X.X.X.XR 8.i.8.t.u.q.u.e.9.9.e.0.w.z R .X.X.X.X.X.X.X.X.X.X.X.X.X.X.X.X.X.X.X.X.X.X.X.X",
".X.X.X.X.X.X.X.X.X.X.X.X.X.X.X.X.X.X.X.X.X.X.X.X<.l +.&.3.q.q.s.9.8.8.-.$.&.l <..X.X.X.X.X.X.X.X.X.X.X.X.X.X.X.X.X.X.X.X.X.X.X.X",
".X.X.X.X.X.X.X.X.X.X.X.X.X.X.X.X.X.X.X.X.X.X.X.X!.i >.3.[ $.%.u.e.%.2.j +.r.s ~..X X.X.X.X.X.X.X.X.X.X.X.X.X.X.X.X.X.X.X.X.X.X.X",
".X.X.X.X.X.X.X.X.X.X.X.X.X.X.X.X.X.X.X.X.X.X.XoXn.! p.6.$.6.3.=.#.+.w.$.7.r.! n.]..X.X.X.X.X.X.X.X.X.X.X.X.X.X.X.X.X.X.X.X.X.X.X",
".X.X.X.X.X.X.X.X.X.X.X.X.X.X.X.X.X.X.X.X.X.X`.T d 0.q.w.e.a.y.2.{ >.9.e.w.0.6.p ~ ]..X.X.X.X.X.X.X.X.X.X.X.X.X.X.X.X.X.X.X.X.X.X",
".X.X.X.X.X.X.X.X.X.X.X.X.X.X.X.X.X.X.X.X.X.Xn.z d.:.e.t.8.y.q.q.9.9.w.8.9.3.;.p.p n..XXX.X.X.X.X.X.X.X.X.X.X.X.X.X.X.X.X.X.X.X.X",
".X.X.X.X.X.X.X.X.X.X.X.X.X.X.X.X.X.X.X.X.X.X|.^ %.;.s.r.r.t.0.e.9.9.9.9.9.9.;.*.~ XX.X.X.X.X.X.X.X.X.X.X.X.X.X.X.X.X.X.X.X.X.X.X",
".X.X.X.X.X.X.X.X.X.X.X.X.X.X.X.X.X.X.X.X X.X'.v g 0.f.2.0.a.=.a.q.&.r.-.7.t.;.r v '..X.X.X.X.X.X.X.X.X.X.X.X.X.X.X.X.X.X.X.X.X.X",
".X.X.X.X.X.X.X.X.X.X.X.X.X.X.X.X.X.X.X.XXXZ.^ j r [ w.o. .0.%.s.9.o.8.| #.8.[ B j ^ C.XX.X.X.X.X.X.X.X.X.X.X.X.X.X.X.X.X.X.X.X.X",
".X.X.X.X.X.X.X.X.X.X.X.X.X.X.X.X.X.X.X.X) d 4.] u X.[ t t t u 9.3.[ t t t [ X.u M 4.d ) .X.X.X.X.X.X.X.X.X.X.X.X.X.X.X.X.X.X.X.X",
".X.X.X.X.X.X.X.X.X.X.X.X.X.X.X.X.X.X.X XU >.[ X.3.r.o.| 3.&.u X.X.u &.3.| o.t.6.X.[ 7.U  X.X.X.X.X.X.X.X.X.X.X.X.X.X.X.X.X.X.X.X",
".X.X.X.X.X.X.X.X.X.X.X.X.X.X.X.X.X.X.X.XC.e r %.r.=.t ;.t.9.o.w.9.o.q.t.;.r &.9.o.r e C..X.X.X.X.X.X.X.X.X.X.X.X.X.X.X.X.X.X.X.X",
".X.X.X.X.X.X.X.X.X.X.X.X.X.X.X.X.X.X X.X`.( | X...M  .u 2.o.u 6.6.h X.&.[  .u t ..k Y _..X.X.X.X.X.X.X.X.X.X.X.X.X.X.X.X.X.X.X.X",
".X.X.X.X.X.X.X.X.X.X.X.X.X.X.X.X.X.X X.XB.q ;. .t -.=.r  .6.| [ X.| 3.[ r &.-.t ..>.w B..X.X.X.X.X.X.X.X.X.X.X.X.X.X.X.X.X.X.X.X",
".X.X.X.X.X.X.X.X.X.X.X.X.X.X.X.X.X.X|.x.v u t B u X.M h ;.2.t o.o.M o.| t u X.h B } t v x.oX.X.X.X.X.X.X.X.X.X.X.X.X.X.X.X.X.X.X",
".X.X.X.X.X.X.X.X.X.X.X.X.X.X.X.X.X.X`.q -.| n Q | r t N X.[ r #.=.r t t N t t t N N g } - `..X.X.X.X.X.X.X.X.X.X.X.X.X.X.X.X.X.X",
".X.X.X.X.X.X.X.X.X.X.X.X.X.X.X.X.X X.XB.e I Z 7. .B c O.7.b N g h N N h N c V h g A I q n..X X.X.X.X.X.X.X.X.X.X.X.X.X.X.X.X.X.X",
".X.X.X.X.X.X.X.X.X.X.X.X.X.X.X.X.X.X|.U n c J Q N H c ..j A N g u N A h g c K m m J c n U |..X.X.X.X.X.X.X.X.X.X.X.X.X.X.X.X.X.X",
".X.X.X.X.X.X.X.X.X.X.X.X.X.X.X.X.X.X X` y M H K Z c F C A H A M M Z H A S F c Z F K M y ` XX.X.X.X.X.X.X.X.X.X.X.X.X.X.X.X.X.X.X",
".X.X.X.X.X.X.X.X.X.X.X.X.X.X.X.X.XW.V.E t S K Z g g J F b A K S S F b b F J u u Z K S t E A.Q..X.X.X.X.X.X.X.X.X.X.X.X.X.X.X.X.X",
".X.X.X.X.X.X.X.X.X.X.X.X.X.X.X|.c.4 x S J F H m g A F b g N H M M H N g b F b h m K F J A x 4 c.|..X.X.X.X.X.X.X.X.X.X.X.X.X.X.X",
".X.X.X.X.X.X.X.X.X.X.X.X.X.X.X].1 9 P 8 L F K J Z K K Z u c J h g J c t Z K G Z J K G L 8 P 3 1 |..X.X.X.X.X.X.X.X.X.X.X.X.X.X.X",
".X.X.X.X.X.X.X.X.X.X.X.X.X.X.X.XQ.4 < 3 7 K K D D J F F H K K Z Z K K J F G H F D H K 7 3 1 1 E..X.X.X.X.X.X.X.X.X.X.X.X.X.X.X.X",
".X.X.X.X.X.X.X.X.X.X.X.X.X.X.X.X.X/.v.h.1 2 7 7 D G D D K D G F F K D G D L K D 7 7 2 1 6 v.'..X.X.X.X.X.X.X.X.X.X.X.X.X.X.X.X.X",
".X.X.X.X.X.X.X.X.X.X.X.X.X.X.X.X.X.X.X.XE.g.3 7 1 2 7 7 8 K D F F D K 8 7 2 3 1 7 3 g.E..X.X.X.X.X.X.X.X.X.X.X.X.X.X.X.X.X.X.X.X",
".X.X.X.X.X.X.X.X.X.X.X.X.X.X.X.X.X.X_./.T.H.6 6 z.j.g.5 7 L 7 G F 7 L 9 5 g.j.z.6 6 H.T.^._..X.X.X.X.X.X.X.X.X.X.X.X.X.X.X.X.X.X",
".X.X.X.X.X.X.X.X.X.X.X.X.X.X.X.X.X(.H.N.G.K.N.M.I.R.N.: > > : 4 4 : > > : G.R.P.M.N.K.H.H.H.(..X.X.X.X.X.X.X.X.X.X.X.X.X.X.X.X.X",
".X.X.X.X.X.X.X.X.X.X.X.X.X.X.X.X_.H.K.L.K.H.L.L.P.k.@ % O O $ & & $ O O % & k.P.P.K.H.K.L.H.H._..X.X.X.X.X.X.X.X.X.X.X.X.X.X.X.X",
".X.X.X.X.X.X.X.X.X.X.X.X.X.X.X.X{.K.H.K.K.K.H.P.m.  . X X O * = = * O o o .   z.P.H.L.H.L.H.L.{..X.X.X.X.X.X.X.X.X.X.X.X.X.X.X.X",
".X.X.X.X.X.X.X.X.X.X.X.X.X.X.X.X.X_.K.H.H.H.H.L.K.z.z.z.0 + X ; ; X + 0 z.z.z.G.P.H.H.H.G.L.{..X.X.X.X.X.X.X.X.X.X.X.X.X.X.X.X.X",
".X.X.X.X.X.X.X.X.X.X.X.X.X.X.X.X.X.X{./.Y.I.L.F.G.K.P.P.I.M.0 # # 0 N.I.P.P.K.G.N.P.U.Y./.{..X.X.X.X.X.X.X.X.X.X.X.X.X.X.X.X.X.X",
".X.X.X.X.X.X.X.X.X.X.X.X.X.X.X.X.X.X.X.X.X.X_.Q.^.Q.P.K.K.P.R.k.k.I.P.K.H.P.Q.^.Q._..X.X.X.X.X.X.X.X.X.X.X.X.X.X.X.X.X.X.X.X.X.X",
".X.X.X.X.X.X.X.X.X.X.X.X.X.X.X.X.X.X.X.X.X.X.X.X.X.X}.}.}.}.}. X X}.}.}.}.}..X.X.X.X.X.X.X.X.X.X.X.X.X.X.X.X.X.X.X.X.X.X.X.X.X.X",
".X.X.X.X.X.X.X.X.X.X.X.X.X.X.X.X.X.X.X.X.X.X.X.X X.X.X.X.X.X.X.X.X.X.X.X.X.X.X X.X.X.X.X.X.X.X.X.X.X.X.X.X.X.X.X.X.X.X.X.X.X.X.X",
".X.X.X.X.X.X.X.X.X.X.X.X.X.X.X.X.X.X.X.X.X.X.X.X.X.X.X.X.X.X.X.X.X.X.X.X.X.X.X.X.X.X.X.X.X.X.X.X.X.X.X.X.X.X.X.X.X.X.X.X.X.X.X.X",
".X.X.X.X.X.X.X.X.X.X.X.X.X.X.X.X.X.X.X.X.X.X.X.X.X.X.X.X.X.X.X.X.X.X.X.X.X.X.X.X.X.X.X.X.X.X.X.X.X.X.X.X.X.X.X.X.X.X.X.X.X.X.X.X",
".X.X.X.X.X.X.X.X.X.X.X.X.X.X.X.X.X.X.X.X.X.X.X.X.X.X.X.X.X.X.X.X.X.X.X.X.X.X.X.X.X.X.X.X.X.X.X.X.X.X.X.X.X.X.X.X.X.X.X.X.X.X.X.X",
".X.X.X.X.X.X.X.X.X.X.X.X.X.X.X.X.X.X.X.X.X.X.X.X.X.X.X.X.X.X.X.X.X.X.X.X.X.X.X.X.X.X.X.X.X.X.X.X.X.X.X.X.X.X.X.X.X.X.X.X.X.X.X.X",
".X.X.X.X.X.X.X.X.X.X.X.X.X.X.X.X.X.X.X.X.X.X.X.X.X.X.X.X.X.X.X.X.X.X.X.X.X.X.X.X.X.X.X.X.X.X.X.X.X.X.X.X.X.X.X.X.X.X.X.X.X.X.X.X",
".X.X.X.X.X.X.X.X.X.X.X.X.X.X.X.X.X.X.X.X.X.X.X.X.X.X.X.X.X.X.X.X.X.X.X.X.X.X.X.X.X.X.X.X.X.X.X.X.X.X.X.X.X.X.X.X.X.X.X.X.X.X.X.X",
".X.X.X.X.X.X.X.X.X.X.X.X.X.X.X.X.X.X.X.X.X.X.X.X.X.X.X.X.X.X.X.X.X.X.X.X.X.X.X.X.X.X.X.X.X.X.X.X.X.X.X.X.X.X.X.X.X.X.X.X.X.X.X.X"
};
