/* XPM */
static char *walls_to_cave[] = {
/* columns rows colors chars-per-pixel */
"59 64 194 2 ",
"   c #1C1A10",
".  c #191A1E",
"X  c #17171C",
"o  c #221E1D",
"O  c #2A251E",
"+  c #2E281E",
"@  c #252719",
"#  c #3A2F1F",
"$  c #322A1E",
"%  c #343F1D",
"&  c #1D1D22",
"*  c #211F22",
"=  c #1F2023",
"-  c #242426",
";  c #282625",
":  c #2B2825",
">  c #262628",
",  c #282729",
"<  c #2C2B2A",
"1  c #342D23",
"2  c #322D29",
"3  c #2D3221",
"4  c #353425",
"5  c #3C3526",
"6  c #36312C",
"7  c #3B352C",
"8  c #373C26",
"9  c #353330",
"0  c #3B3634",
"q  c #3E3A36",
"w  c #423826",
"e  c #40362C",
"r  c #433B2D",
"t  c #4A3D2F",
"y  c #453D32",
"u  c #413C38",
"i  c #3A4522",
"p  c #3F4C22",
"a  c #46452D",
"s  c #454A2A",
"d  c #474B2B",
"f  c #455228",
"g  c #474032",
"h  c #4C4334",
"j  c #4C4A36",
"k  c #45433D",
"l  c #4E463B",
"z  c #4F4D39",
"x  c #524736",
"c  c #534A36",
"v  c #544B3B",
"b  c #5A4E3C",
"n  c #534639",
"m  c #4D5233",
"M  c #515433",
"N  c #545C34",
"B  c #555339",
"V  c #5C523D",
"C  c #58593C",
"Z  c #60513D",
"A  c #645D3E",
"S  c #5B613B",
"D  c #586233",
"F  c #60603E",
"G  c #616A3E",
"H  c #687A3F",
"J  c #4D4940",
"K  c #534C41",
"L  c #5A4E40",
"P  c #5D5343",
"I  c #5D5B42",
"U  c #5C554A",
"Y  c #5F5848",
"T  c #565248",
"R  c #5F5A50",
"E  c #635542",
"W  c #645A45",
"Q  c #6A5B44",
"!  c #645B4B",
"~  c #6C5F4A",
"^  c #685F50",
"/  c #646544",
"(  c #6B6344",
")  c #656A42",
"_  c #6B6C45",
"`  c #6D624C",
"'  c #6D6C4B",
"]  c #73644D",
"[  c #78664B",
"{  c #736B4C",
"}  c #7A6A4D",
"|  c #6F704A",
" . c #73734D",
".. c #78704E",
"X. c #76784D",
"o. c #6D6454",
"O. c #726652",
"+. c #756A53",
"@. c #7B6C53",
"#. c #766B5A",
"$. c #7B6D59",
"%. c #757251",
"&. c #7A7254",
"*. c #777852",
"=. c #7E745C",
"-. c #7D7D5B",
";. c #7A7852",
":. c #7F7763",
">. c #826E54",
",. c #827155",
"<. c #84745B",
"1. c #8B765B",
"2. c #847B5C",
"3. c #8B7A5D",
"4. c #887856",
"5. c #937D5E",
"6. c #837662",
"7. c #887660",
"8. c #857962",
"9. c #8C7C63",
"0. c #847D6A",
"q. c #8B7E69",
"w. c #917E62",
"e. c #83825C",
"r. c #8B845E",
"t. c #95825F",
"y. c #98805E",
"u. c #8C8165",
"i. c #8F8C67",
"p. c #8D836A",
"a. c #898A6D",
"s. c #948264",
"d. c #9A8464",
"f. c #958866",
"g. c #9B8865",
"h. c #94846A",
"j. c #99866A",
"k. c #96886D",
"l. c #9C8A6D",
"z. c #8C8573",
"x. c #9C8D72",
"c. c #948D78",
"v. c #9D9174",
"b. c #9D927B",
"n. c #A28D6D",
"m. c #A18966",
"M. c #A4916E",
"N. c #AA936F",
"B. c #A28F71",
"V. c #A49274",
"C. c #AA9473",
"Z. c #A39977",
"A. c #AC9976",
"S. c #A59579",
"D. c #AB9779",
"F. c #A6997B",
"G. c #AD9B7C",
"H. c #B29B75",
"J. c #B29D7C",
"K. c #B99F7C",
"L. c #B09674",
"P. c #B5A17D",
"I. c #B9A27C",
"U. c #C0A57E",
"Y. c #9C9681",
"T. c #AD9E82",
"R. c #B09E80",
"E. c #ACA085",
"W. c #AAA088",
"Q. c #B5A383",
"!. c #BAA583",
"~. c #BCAA85",
"^. c #B4A68A",
"/. c #B6A98D",
"(. c #BDAB8B",
"). c #BDAE90",
"_. c #C0A784",
"`. c #C3AB85",
"'. c #C3AE8A",
"]. c #CAAF8B",
"[. c #C5B28D",
"{. c #CAB28C",
"}. c #C9B88B",
"|. c #D4B78D",
" X c #C4B292",
".X c #CAB692",
"XX c #CEB992",
"oX c #CFBD99",
"OX c #D3BC94",
"+X c #D3BE98",
"@X c #D9C39B",
"#X c #D6C39D",
"$X c #D0C0A1",
"%X c #D9C6A2",
/* pixels */
"- - - - - - - - - - - - - - - - - - - - - - - - > - - - - - - - - - - - - - - - - - - - - - - - - - - - - - - - - - - ",
"- - - - - - - - - - - - - - - - - - - - - > - & * > - - - - - - - - - - - - - - - - - - - - - - - - - - - - - - - - - ",
"- - - - - - - - - - - - - - - - - - - - > & - q 0 & - - - - - - - - - - - - - - - - - - - - - - - - - - - - - - - - - ",
"- - - - - - - - - - - - - - - - - - - - & U G.+X'.! - - - - - - - - - - - - - - - - - - - - - - - - - - - - - - - - - ",
"- - - - - - - - - - - - - - - - - - - & u OXOX@X!.P.o.. - - - - > > > > - - - - - - - - - - - - - - - - - - - - - - - ",
"- - - - - - - - - - - - - - - - - - > & 9.OXXX@XA.M.l.< - - - & . X & = - - - - - - - - - - - - - - - - - - - - - - - ",
"- - - - - - - - - - - - - - - - - - - > Q.{.OXOXM.g.A.l = - 9 U o.o.T 7 & - - - - - - - - - - - - - - - - - - - - - - ",
"- - - - - - - - - - - - - - - - - > & u {.{.#X[.l.s.f.j & < E.+XoX$X(.n.T & - - - - - - - - - - - - - - - - - - - - - ",
"- - - - - - - - - - - - - - - - - > . R XX{.%X~.l.i. .8 & k ).!.Q.W.).^.A.o.& - - - - - - - - - - - - - - - - - - - - ",
"- - - - - - - - - - - - - - - - - > . ! OX{.OX!.l.2.) 3 & ! E.R.!.T.).Q.9.<.: - - - - - - - - - - - - - - - - - - - - ",
"- - - - - - - - - - - - - - - - - > & u [.OX@XQ.s. .m 8 b.(.V.k.x.T.).(.3.{ < & - - - - - - - - - - - - - - - - - - - ",
"- - - - - - - - - - - - - - - - - > & l (.XXOXJ.8.W &.T. X^.h.w.s.T./.(.9.] 6 - - - - - - - - - - - - - - - - - - - - ",
"- - - - - - - - - - - - - - - - - > & :.Q.[.XXF.{ B F.F.S.G.k.9.k.T.^.!.V.<.7 - - - - - - - - - - - - - - - - - - - - ",
"- - - - - - - - - - - - - - - - - - - k.S.`.OXv.S S G.b.G.V.h.9.k.F./.R.C.k.7 - > - - - - - - - - - - - - - - - - - - ",
"- - - - - - - - - - - - - - - - > & J P.v.~.XXV.M | Q.S.V.S.9.8.x.b./.Q.B.3.7 - - - - - - - - - - - - - - - - - - - - ",
"- - - - - - - - - - - - - - - - - = q.P.Z.Q.{.k.a 2.F.k.b.(.x.*.c.b./.^.x.q.y - - > - - - - - - - - - - - - - - - - - ",
"- - - - - - - - - - - - - - - - - < S.A.S.Q.{.=./ q.l.x.v.Q.Q.u.a.Y. X!.x.k.a < , & = - - - - - - - - - - - - - - - - ",
"- - - - - - - - - - - - - - - , X J J.V.V.^.G.2.v.+.h.k.x.R.R.S.:.c.(.E.c.p.C 2.v.:., - - - - - - - - - - - - - - - - ",
"- - - - - - - - - - - - - - - & ! S.S.S.S.Q.f.F.R.` 8.h.j.R.R.!.0.z..X(.k.h.C b.I.XXk.& > - - - - - - - - - - - - - - ",
"- - - - - - - - - - - - - - * o..Xv.x.V.c.Z.n.#XG./ +.k.k.(.'.'.a.u. X{.T.q.P b.F.P.Q.0 = - - - - - - - - - - - - - - ",
"- - - - - - - - - - - - - - 9  X.X-.p.B.k.h.'.}.Q.' ' j.k.`.'.^.F.:.).(.XXx.L V.A.C.!.o.. > - - - - - - - - - - - - - ",
"- - - - - - - - - - - - - & u `.(.+.2.M.3.F.|.P.(.r.&.x.B.Q.{.!.G.=.(.!.[.h.x k.G.C.J.F.> - - - - - - - - - - - - - - ",
"- - - - - - - - - - - - - & l !.Q.*.I <.s.OX~.G.(.F.8.n.V.!.{.`.J.%.(.(..Xw.a +.G.A.H.J.2 - - - - - - - - - - - - - - ",
"- - - - - - - - - - - - - & U !.G.=.M M '.].T.F.(.F.l.V.V.P.XX`.(.O.T.(. X3.b  .u.A.J.J.< - - - - - - - - - - - - - - ",
"- - - - - - - - - - - - - & U '.T.8.G *.].U.F.G.R.B.h.j.g.V.oX}.P.` c.G.Q.$.V X.-.M.`.k.- - - - - - - - - - - - - - - ",
"- - - - - - - - - - - - - & L Q.F.8.S ;._.H.V.S.R.j.w.j.M.l.(.}.M.] 0.x.k.] B 2.4.F.}.&.& - - - - - - - - - - - - - - ",
"- - - - - - - - - - - - > & U K.Z.e.G e._.C.C.S.V.9.9.j.l.g.I.I.g.] 8.v.h.<.c f.s.l.'.s.; - - - - - - - - - - - - - - ",
"- - - - - - - - - - - - - & ! !.G.2.H r.!.s.n.B.B.9.q.l.l.Z.}.I.M.[ =.h.h.3.c V.n.s.R.c < - - - - - - - - - - - - - - ",
"- - - - - - - - - - - - > & O.K.P.2.S f.P.l.L.B.x.$.<.V.S.!.{.I.n.<.+.k.S.<.b k.B.V.j.Q 0 = - - - - - - - - - - - - - ",
"- - - - - - - - - - - - - & +.K.Q.r.) { J.C.B.B.9.6.j.J.S.(.I.H.H.<.O.h.S.+.b j.V.m.C.9.J & > - - - - - - - - - - - - ",
"- - - - - - - - - - - - > = 9.R.Q.f. .N M k.n.k.=.p.S.s.v.!.l.I.C.4.` 8.s.] Q h.D.s.D.f.T & > - - - - - - - - - - - - ",
"- - - - - - - - - - - > - - x.~.P.s. .S 8 4 h.j.$.7.s.j.=.n.I.K.N.,.( 2.l.<.,.9.D.1.J.s.T & > - - - - - - - - - - - - ",
"- - - - - - - - - - - - * > B.^.G.s.@.G f @ z k.=.9.s.V.=.H.H.L.n.,.( 3.s.,.,.8.V.] n.s.! * > - - - - - - - - - - - - ",
"- - - - - - - - - - - - - 2 9.F.V.9. .D D W ! 8.` <.s.v.,.H.I.I.N.,.] w.l.4.@.8.J.<.1.V.W * - - - - - - - - - - - - - ",
"- - - - - - - - - - - - * < <.S.u.&.D *.u.4.6.9.p.{ 2.l.] m._.J.n.<.] w.M.t.} 9.B.n.B.V.2 * > - - - - - - - - - - - - ",
"- - - - - - - - - - - - * 9 B.^.9.M  .G.l.Z.R.!.R.{ u.g.,.w.K.H.n.<.` w.L.s.@.w.h.g.!.] & - - - - - - - - - - - - - - ",
"- - - - - - - - - - - > * < x.V.S p  .G.!.R.b.D.h.O.9.l.1.y.U.H.F.1.] 1.L.l.>.3.l.N.C.1 - - - - - - - - - - - - - - - ",
"- - - - - - - - - - - - - > j.x./ S } 9.!.C.B.J.<.O.6.x.,.y.L.H.f.y.[ 4.m.A.] ,.C._.Q o - - - - - - - - - - - - - - - ",
"- - - - - - - - - - - - - - h.^.Z.| { 1.J.K.J.j.=.` 6.p.>.m.5.l.n.m.[ ,.C.C.] m.K.s.1 : - - - - - - - - - - - - - - - ",
"- - - - - - - - - - - - - * 9.H.P.C A 1.B.'.C.w.<.+.1.p.4.d.y.C.H.m.} } C.J.[ s.n.Z $ - - - - - - - - - - - - - - - - ",
"- - - - - - - - - - - - > * <.H.l.d A 5.d.D.w.d.<.=.w.w.@.5.y.L.K.n.>.[ g.1.Z >.@.w O - - - - - - - - - - - - - - - - ",
"- - - - - - - - - - - - > & $.J.h.d A 1.5.N.w.w.1.6.9.n.>.5.m.N.H.N.} _ 4.5.V <.r O - - - - - - - - - - - - - - - - - ",
"- - - - - - - - - - - - - & O.J.s.s F >.w.C.w.m.9.<.w.m.[ m.d.n.I.m.] A w.j.x j.t - - - - - - - - - - - - - - - - - - ",
"- - - - - - - - - - - - > & ! R.s.f ] >.1.N.w.n.w.w.j.s.Q Q 5.g.C.5.] B M.Z b q.E - - - - - - - - - - - - - - - - - - ",
"- - - - - - - - - - - - - & l x.9.i ] >.w.K.d.n.s.1.<.Q @.,.@.,.w.s.] 5 w w O.6.b * - - - - - - - - - - - - - - - - - ",
"- - - - - - - - - - - - - - 2 <.=.i @.@.w.D.w.j.m.@.x Q <.5.s.s.G.V.W a W ! O.$.e - - - - - - - - - - - - - - - - - - ",
"- - - - - - - - - - - - - - - W -.f ] @.w.L.d.n.j.b y ~ >.w.3.3.A.B.E c $.6.b h 2 - - - - - - - - - - - - - - - - - - ",
"- - - - - - - - - - - - - - - l <.i b #.7.D.j.w.@.Q o.W ~ 1.>.9.R.l.P V $.y + t 2 - - - - - - - - - - - - - - - - - - ",
"- - - - - - - - - - - - - - - 9 W % B +.<.S.9.! ] w.$.O.@.[ @.9.V.9.E 7 $ + t h - - - - - - - - - - - - - - - - - - - ",
"- - - - - - - - - - - - - - - - b a B W <.<.E K 9.1.{ U <.Q ` k.l.9.b   j P L y - - - - - - - - - - - - - - - - - - - ",
"- - - - - - - - - - - - - - - - : 6 0 r ` Q o.6.1.$.~ v +.` b j.x.9.l 4 ` P B 6 & > - - - - - - - - - - - - - - - - - ",
"- - - - - - - - - - - - - - - - - - * 2 P 6.=.:.<.` W z ! ` ! 9.h.8.y r ~ ( l ; - - - - - - - - - - - - - - - - - - - ",
"- - - - - - - - - - - - - - - - - - - ; E z.#.6.7.^ W v P ' $.Q <.h.x 7 Q ~ 6 - - - - - - - - - - - - - - - - - - - - ",
"- - - - - - - - - - - - - - - - - - - - l q.6.#.<.@.O.x I &.E b n +.n o 2 - - - - - - - - - - - - - - - - - - - - - - ",
"> - - - - - - - - - - - - - - - - - - - 6 <.h.$.O.O.e e ` P t r r e , - - - > - - - - - - - - - - - - - - - - - - - - ",
"- - - - - - - - - - - - - - - - - - - - ; ~ 7.>.P 6 e x Y 5 1 4 1 - - - - - - - - - - - - - - - - - - - - - - - - - - ",
"- - - - - - - - - - - - - - - - - - - - - 6 l b r +.@.B c r h 2 * > - - - - - - - - - - - - - - - - - - - - - - - - - ",
"- - - - - - - - - - - - - - - - - - - - - - & u <.9.u.' ~ ~ L - - - - - - - - - - - - - - - - - - - - - - - - - - - - ",
"- - - - - - - - - - - - - - - - - - - - - > - , O.@.u.&.] ] r & > - - - - - - - - - - - - - - - - - - - - - - - - - - ",
"- - - - - - - - - - - - - - - - - - - - - - - & K 9.h.w.<.V - - - - - - - - - - - - - - - - - - - - - - - - - - - - - ",
"- - - - - - - - - - - - - - - - - - - - - - - - - l b L l > - - - - - - - - - - - - - - - - - - - - - - - - - - - - - ",
"- - - - - - - - - - - - - - - - - - - - - - - - - - & & & - - - - - - - - - - - - - - - - - - - - - - - - - - - - - - ",
"- - - - - - - - - - - - - - - - - - - - - - - - - > > > - - - - - - - - - - - - - - - - - - - - - - - - - - - - - - - ",
"- - - - - - - - - - - - - - - - - - - - - - - - - - - - - - - - - - - - - - - - - - - - - - - - - - - - - - - > - - - "
};
