/* XPM */
static char *exit_to_cave[] = {
/* columns rows colors chars-per-pixel */
"48 64 214 2 ",
"   c #0E100A",
".  c #12140D",
"X  c #18140F",
"o  c #151611",
"O  c #161811",
"+  c #1B1B13",
"@  c #1A1711",
"#  c #211D17",
"$  c #1E2115",
"%  c #1F2018",
"&  c #212115",
"*  c #24251B",
"=  c #25291C",
"-  c #292A1D",
";  c #29271C",
":  c #2A351D",
">  c #27371B",
",  c #2C2C22",
"<  c #2E3225",
"1  c #2F3028",
"2  c #323425",
"3  c #353925",
"4  c #33362A",
"5  c #3B362B",
"6  c #353A2C",
"7  c #3A3D2D",
"8  c #393A25",
"9  c #3C3E31",
"0  c #373E31",
"q  c #332B23",
"w  c #413D2E",
"e  c #423E33",
"r  c #2D4B1C",
"t  c #2A431B",
"y  c #30501F",
"u  c #2E541C",
"i  c #3C432D",
"p  c #364A26",
"a  c #3B532A",
"s  c #3D4334",
"d  c #3E4539",
"f  c #364134",
"g  c #3B6126",
"h  c #42432D",
"j  c #424534",
"k  c #494435",
"l  c #454A35",
"z  c #4B4B37",
"x  c #424639",
"c  c #454B3C",
"v  c #4A4D3C",
"b  c #4C513D",
"n  c #485437",
"m  c #51533D",
"M  c #555A3D",
"N  c #5D5C3E",
"B  c #545638",
"V  c #415328",
"C  c #45662D",
"Z  c #486534",
"A  c #526B34",
"S  c #474E41",
"D  c #494F41",
"F  c #474440",
"G  c #4C5344",
"H  c #4E5648",
"J  c #485343",
"K  c #525643",
"L  c #545945",
"P  c #5A5C45",
"I  c #515648",
"U  c #535B4B",
"Y  c #5A5E4B",
"T  c #585745",
"R  c #555E51",
"E  c #585F51",
"W  c #625F41",
"Q  c #57604E",
"!  c #5C614C",
"~  c #5B6D4A",
"^  c #586446",
"/  c #576052",
"(  c #5B6353",
")  c #5E6658",
"_  c #5F685A",
"`  c #5F6957",
"'  c #597242",
"]  c #626345",
"[  c #62654C",
"{  c #69674B",
"}  c #66694D",
"|  c #696B4D",
" . c #706E4F",
".. c #667B49",
"X. c #70734E",
"o. c #636552",
"O. c #6A6753",
"+. c #656A54",
"@. c #6A6C54",
"#. c #62645B",
"$. c #646C5B",
"%. c #6B6E59",
"&. c #756F53",
"*. c #6D7155",
"=. c #6C725B",
"-. c #6E7952",
";. c #737455",
":. c #72755B",
">. c #75795D",
",. c #7A7C5D",
"<. c #797857",
"1. c #6C7263",
"2. c #677060",
"3. c #747A62",
"4. c #7B7E63",
"5. c #767B66",
"6. c #7D7A77",
"7. c #706B69",
"8. c #807E5E",
"9. c #837F7A",
"0. c #7A8758",
"q. c #7D8164",
"w. c #7C826A",
"e. c #7E8475",
"r. c #81805C",
"t. c #838463",
"y. c #898A65",
"u. c #83866B",
"i. c #858A6B",
"p. c #8A8C6B",
"a. c #888764",
"s. c #8F916D",
"d. c #92936D",
"f. c #97986B",
"g. c #818472",
"h. c #858B73",
"j. c #8B8E73",
"k. c #83857D",
"l. c #8D9273",
"z. c #8B9578",
"x. c #869977",
"c. c #929573",
"v. c #959972",
"b. c #9B9C75",
"n. c #91957C",
"m. c #969B7B",
"M. c #9A9C7C",
"N. c #98977A",
"B. c #938E66",
"V. c #A29F7A",
"C. c #9DA17D",
"Z. c #A3A37B",
"A. c #ACAC7E",
"S. c #8A8A84",
"D. c #8D9183",
"F. c #929585",
"G. c #95998F",
"H. c #979A88",
"J. c #989892",
"K. c #98AA85",
"L. c #9CA197",
"P. c #A3A482",
"I. c #ABAC84",
"U. c #ACAE8A",
"Y. c #A3A688",
"T. c #AEB28B",
"R. c #B6B78D",
"E. c #A3A69E",
"W. c #A8AB98",
"Q. c #ADB296",
"!. c #B6BA94",
"~. c #B7B99B",
"^. c #AAA8A5",
"/. c #AEB2AB",
"(. c #B3B4AD",
"). c #B7B9A7",
"_. c #B7B8B3",
"`. c #BABBB5",
"'. c #BCBCBA",
"]. c #B0ADAA",
"[. c #C1BEBC",
"{. c #BFC1BB",
"}. c #C2C79E",
"|. c #C7C8B5",
" X c #C2C2BE",
".X c #CCCDBC",
"XX c #C1C4B3",
"oX c #C5C6C2",
"OX c #C6C8C5",
"+X c #CBCCCA",
"@X c #CBCCC1",
"#X c #CED8C9",
"$X c #CFD1CC",
"%X c #D2D3C3",
"&X c #D4D5CD",
"*X c #D5D5D3",
"=X c #D8D7D6",
"-X c #DADCD4",
";X c #DCDCDB",
":X c #E0DFDE",
">X c #DEE4D3",
",X c #DEE2DB",
"<X c #E4E5DC",
"1X c #E6E6D6",
"2X c #E4E5E2",
"3X c #EAECE5",
"4X c #EDEDEC",
"5X c #E5EAE3",
"6X c #EFF0ED",
"7X c #F3F3EE",
"8X c #F2F2E7",
"9X c #F4F4F3",
"0X c #F8F9F7",
"qX c #FFFFFF",
/* pixels */
"qXqXqXqXqXqXqXqXqXqXqXqXqXqXqXqXqXqXqXqXqXqXqXqXqXqXqXqXqXqXqXqXqXqXqXqXqXqXqXqXqXqXqXqXqXqXqXqX",
"qXqXqXqXqXqXqXqXqXqXqXqXqXqXqXqXqXqXqXqXqXqXqXqXqXqXqXqXqXqXqXqXqXqXqXqXqXqXqXqXqXqXqXqXqXqXqXqX",
"qXqXqXqXqXqXqXqXqXqXqXqXqXqXqXqXqXqXqXqXqXqXqXqXqXqXqXqXqXqXqXqXqXqXqXqXqXqXqXqXqXqXqXqXqXqXqXqX",
"qXqXqXqXqXqXqXqXqXqXqXqXqXqXqXqXqXqXqXqXqXqXqXqXqXqXqXqXqXqXqXqXqXqXqXqXqXqXqXqXqXqXqXqXqXqXqXqX",
"qXqXqXqXqXqXqXqXqXqXqXqXqXqXqXqXqXqXqXqXqXqXqXqXqXqXqXqXqXqXqXqXqXqXqXqXqXqXqXqXqXqXqXqXqXqXqXqX",
"qXqXqXqXqXqXqXqXqXqXqXqXqXqXqXqXqXqXqXqXqXqXqXqX1X.X%X.X%X9XqXqXqXqXqXqXqXqXqXqXqXqXqXqXqXqXqXqX",
"qXqXqXqXqXqXqXqXqXqXqXqXqXqXqXqXqXqXqXqXqX0XqX|.y.s.q.t.d.Q.>X0XqXqXqXqXqXqXqXqXqXqXqXqXqXqXqXqX",
"qXqXqXqXqXqXqXqXqXqXqXqXqXqXqXqXqXqXqXqXqX0X6XH.<.i.m.p.M.c.p.).0XqXqXqXqXqXqXqXqXqXqXqXqXqXqXqX",
"qXqXqXqXqXqXqXqXqXqXqXqXqXqXqXqXqXqXqXqXqX0X,XM.,.d.C.h.e.w.e.2.2XqXqXqXqXqXqXqXqXqXqXqXqXqXqXqX",
"qXqXqXqXqXqXqXqXqXqXqXqXqXqXqXqXqXqXqXqXqX9X>XM.p.q.^ _ ` ` U $.0XqXqXqXqXqXqXqXqXqXqXqXqXqXqXqX",
"qXqXqXqXqXqXqXqXqXqXqXqXqXqXqXqXqXqXqXqXqX3X*Xl.p.>.+.+.! c x e.qXqXqXqXqXqXqXqXqXqXqXqXqXqXqXqX",
"qXqXqXqXqXqXqXqXqXqXqXqXqXqXqXqXqXqXqXqXqX7X|.p.4.>.o.` U S i G.qXqXqXqXqXqXqXqXqXqXqXqXqXqXqXqX",
"qXqXqXqXqXqXqXqXqXqXqXqXqXqXqXqXqXqXqX0X5X).v.3.:.%.[ D s U i /.qX0XqXqXqXqXqXqXqXqXqXqXqXqXqXqX",
"qXqXqXqXqXqXqXqXqXqXqXqXqXqXqXqXqXqXqX4Xu.d.M.} 0.:.l s ;.f.q.+XqXqXqXqXqXqXqXqXqXqXqXqXqXqXqXqX",
"qXqXqXqXqXqXqXqXqXqXqXqXqXqXqXqXqXqXqX'.t.<.s.>.s.m m r.f.A.u.G.qXqXqXqXqXqXqXqXqXqXqXqXqXqXqXqX",
"qXqXqXqXqXqXqXqXqXqXqXqXqXqXqXqXqXqX,XQ.-.-.p.y.t.] f.<.<.p.( ( 0XqXqXqXqXqXqXqXqXqXqXqXqXqXqXqX",
"qXqXqXqXqXqXqXqXqXqXqXqXqXqXqXqX0XqX(.;.M y.t.y.p.Z.I.b.l.L c b +XqXqXqXqXqXqXqXqXqXqXqXqXqXqXqX",
"qXqXqXqXqXqXqXqXqXqXqXqXqXqXqX3XqXqXu.A ..d.q.C.I.T.I.C.w.L l d /.qXqX;X{.qXqXqXqXqXqXqXqXqXqXqX",
"qXqXqXqXqXqXqXqXqXqXqXqXqXqX>XK.0X;Xa A A >.i.I.c.Z.K.:.L v s x $.;X Xo.! k.9XqXqXqXqXqXqXqXqXqX",
"qXqXqXqXqXqXqXqXqXqXqX0XqX,XC ~ K.x.n V M >.l.0.+.s.@.L M K 0 0 d G L ^ ! G ;XqXqXqXqXqXqXqXqXqX",
"qXqXqXqXqXqXqXqXqXqXqXqXqX#X~ r ~ m.^ b n | t.[ ! =.( K n K s 7 G ( l.H.%.S '.qXqXqXqXqXqXqXqXqX",
"qXqXqXqXqXqXqXqXqXqXqXqXqXK.g g a ..| ;.p.;.P l Q %.! b c s 7 J 3.Y.v.+.L F _ 5XqXqXqXqXqXqXqXqX",
"qXqXqXqXqXqXqXqXqXqXqXqXqXe.u g Z C -.a.b.I.[ 8 b ] ! l d 4 l ,.T.!.P i l H f /.qX0XqXqXqXqXqXqX",
"qXqXqXqXqXqXqXqX0X1X8XqXqX#X~ p a p ^ d.d.a.z < v ] [ 7 < J r.b.r.[ s 8 i d J W.qXqXqXqXqXqXqXqX",
"qXqXqXqXqXqXqXqXQ.X.h.qXqX<X' u > < M h.u.b i $ 2 N m | | | s.c.L & 7 j.t.p.M.I.C.Q.,XqXqXqXqXqX",
"qXqXqXqXqXqXqXqXL.h j 2XqX>X0.r > r ^ l.K 2 7 ] ] z h W ] :.z n < z Z.!.R.I.V.u.H i G.qXqXqXqXqX",
"qXqXqXqXqXqX0XqXF.7 3 %.8X}.0.r r u n 3.z <.Z.!.Z.b.d.d.N 3 8 h = v i.C.c.( 3.K Q S S OXqX0XqXqX",
"qXqXqXqXqXqXqXqXN.] M O.Y.v.o.* > > n %.;.,.U.U.M.i.I.Z.Z.| 2 w & j i.s.{ 3 :.U R K c e.qXqXqXqX",
"qXqXqXqXqX<X-X0Xc.[ z v :.[ 6 2 x J @.d.,.P 8.O.=.d.N.T.c.4.7 < @ m r.s.3.! ! U U J x / 6XqXqXqX",
"qXqXqXqX1Xd.{ Y.j.m l h j 6 6 6 K Y %.u.<.{ O.e h p.s.u.*.v 2 & @ B ] [ 1./ b Q U J 0 S (.qX0XqX",
"qXqXqX4X=.^ b z ;.z z h j V l H *.4.:.5.i.8.&.k z :.o.T Y v T w <.B.Z.@.` _ S L R U d d ) 6XqXqX",
"qXqXqX@X] Y z b v h h 2 [ i K Y z v 4.l.W u.V.%.m %.O.T T O.U.9.V.R.d.b ( #.c J ) U c x c L.qXqX",
"qXqXqXW.*.P l B 7 8 h B ;.e U z q X , %.p.P.U.Y e O.<.v 1 *.H.D k 8.!.u.L J G s %./ U J x 1.0XqX",
"qXqX<X,.,.P z b ] h z b.8.D e 5 j , # 1 j.n.O.v e O.O.t.<.W %.+.O.m 3.! b ( U 6 Q ( J c J d E.qX",
"qXqX{.0.,.q.L j P h j 3.>.I : - q + @ @ k I 9 7 4 v T 8.8.3.P i.&.P ! U U I L 6 x Q J s d H 1.,X",
"0XqX{.u.l.v.j j h 8 M O.v v - - + + O . , e K l j 9 K y.%.O.! Y D d K U U j 0.d 4 ! c 7 Y *.+.e.",
"qXqXW.y.Y.:.0 7 m B P Y v j * @ X 7 & + * = G j 3 i } y.;.} / x G c G ( S ! P.G = U f K } G / U ",
"qX4Xq.} p.+.s j [ z m v e 0 - + + 2 O O $ $ = G 2 < q.p.;.=.5.` c c U $.U o.l.( 4 c 4 s G b ( R ",
"qX_.{ x P [ x d z w z w 9 K < + + + . O O * + H 7 - l.u.| =.$.2.J j U _ U %.w.H d o.p.b x G U ( ",
"qXz.G c m :.K 2 , & w 5 i b - + + + O . . = O s b < c.q.*._ _ _ G 0 J ( K =.h.U 4 ! w.U l U R R ",
"7Xl.! m b Y 7 d 5 S.I # 5 x - % o o + + + #   j j < i.q.,./ U ( x 7 G H G +.l.! b S U H d G G R ",
".X*.;.m l U 0 < 4 9.7.#.j 2 q v l 2 # - 7 8 k f.P 7 u.u.:.Q H U 7 6 S c K :.w.H d H ( H c G H J ",
").] @.b b H < S.4X=X X0X*XE.Y d.c.,.m 2 * ; ,.!.O.s u.t.! L U U s 6 c d 4.Z.t.! U Q H H J l S b ",
"W.P =.b d d $ _.qX9X2X0XqXqX2XD.8.;. .{ m - m.m.K l q.>.=.=.U R c 2 0 d t.s.C.l.$.( J H d d L ( ",
"u.m +.l d d $ ^.qX0XqXqXqXqXqX0XG.| a.8.{ | M.>.L j :.>.@.) U c 7 4 < f %.4.u./ ( ( U s S ( $.R ",
"*X X) 4 3 6 J ,XqXqXqXqXqXqXqX0XqX+Xu.P N v.C.:.Y : [ @.o.U S x H 4 % s ! >.g.%.2./ S v o.K H / ",
"qXqX6X`.L._.9XqXqXqXqXqXqXqXqXqXqXqX9XD.:.y.i.t.I - h K l S x D ` f o 0 >.,.5.$.` J L *.J / R U ",
"qXqXqXqXqXqXqXqXqXqXqXqXqXqXqXqXqXqXqXqXW.| y.c.3 3 e I J G f D ^ d   b K.8.%.$.( S J Y J / / R ",
"qXqXqX0XqX0XqXqXqXqXqXqXqXqXqXqX%X~.0XqX4.;.a.P - K q z Y H 0 D H d O c u.*.%.$./ H s b J U / U ",
"qXqXqXqXqXqXqXqXqXqXqXqXqXqXqXqXn.b  X1X<.a.a.8 P T # 5 [ K 4 j G d + 0 U u.>.=.U G 4 l J H S #.",
"qXqXqXqXqXqXqXqXqXqXqXqXqXqXqX0Xq.K T @.P y.{ T M.I @ # m I , v s 2 , * P *.=.+./ ( f s s s )  X",
"qXqXqXqXqXqXqXqXqXqXqXqXqXqXqX<Xy.:.c v h L z +.%.x X @ x D , j b O.x c b *.p.( i.>.d d 2.+X9XqX",
"qXqXqXqXqXqXqXqXqXqXqXqXqX0X7X%Xs.O.G v q w m Y G x # @ 5 9 # 6 c.R.,. Xe.j @.( ( w.'.(.9XqXqX0X",
"qXqXqXqXqXqXqXqXqXqXqXqXqXXXM.j.p.+.G c D ; O.>.v I 9.e 5 * k 8.@.l.Y } -X+X:.c D.5XqXqXqXqXqXqX",
"qXqXqXqXqXqXqXqXqXqXqXqX0XF._ U 8.3.G j 7.F F ! 7 #.'.].9.S.^.Y R J G q.&XqX4X X0XqXqXqXqXqXqXqX",
"qXqXqXqXqXqXqXqXqXqXqXqX6Xw.K ( K.N.5.S.^.'.]._.6.J.[.*X[.'.;XOX4X X^.J.2XqXqXqXqXqXqXqXqXqXqXqX",
"qXqXqXqXqXqXqXqXqXqXqXqXqXJ.1.9XH.:.+X'.4X4XOX].oX$X=X4X4X+X;XqXqXqX9XoX4XqXqX0XqXqXqXqXqXqXqXqX",
"qXqXqXqXqXqXqXqXqXqXqXqXqX0X6XqXoXi.-X9XqX9X*X=X0X+X4XqXqX=X;XqXqXqX0X9XqXqXqXqXqXqXqXqXqXqXqXqX",
"qXqXqXqXqXqXqXqXqXqXqXqXqXqXqXqX<XF.6XqXqXqX0XqX2X'.0XqXqX6X0XqXqXqXqXqXqXqXqXqXqXqXqXqXqXqXqXqX",
"qXqXqXqXqXqXqXqXqXqXqXqXqXqXqXqXqXqXqXqXqXqXqXqX=X+X4XqXqXqXqXqXqXqXqXqXqXqXqXqXqXqXqXqXqXqXqXqX",
"qXqXqXqXqXqXqXqXqXqXqXqXqXqXqXqXqXqXqXqXqXqXqXqX9X4X0XqXqXqXqXqXqXqXqXqXqXqXqXqXqXqXqXqXqXqXqXqX",
"qXqXqXqXqXqXqXqXqXqXqXqXqXqXqXqXqXqXqXqXqXqXqXqXqXqXqXqXqXqXqXqXqXqXqXqXqXqXqXqXqXqXqXqXqXqXqXqX",
"qXqXqXqXqXqXqXqXqXqXqXqXqXqXqXqXqXqXqXqXqXqXqXqXqXqXqXqXqXqXqXqXqXqXqXqXqXqXqXqXqXqXqXqXqXqXqXqX",
"qXqXqXqXqXqXqXqXqXqXqXqXqXqXqXqXqXqXqXqXqXqXqXqXqXqXqXqXqXqXqXqXqXqXqXqXqXqXqXqXqXqXqXqXqXqXqXqX"
};
