/* XPM */
static char *tile003[] = {
/* columns rows colors chars-per-pixel */
"64 64 243 2 ",
"   c #040101",
".  c #0C0101",
"X  c #00020C",
"o  c #080907",
"O  c #130100",
"+  c #1B0200",
"@  c #1C0A02",
"#  c #190E0E",
"$  c #140A06",
"%  c #1A1108",
"&  c #020412",
"*  c #00001A",
"=  c #130F10",
"-  c #1D1312",
";  c #1B1818",
":  c #041006",
">  c #230100",
",  c #250C02",
"<  c #2B0D02",
"1  c #260704",
"2  c #23130D",
"3  c #2B140B",
"4  c #291104",
"5  c #351303",
"6  c #32140B",
"7  c #3A1808",
"8  c #241614",
"9  c #2B1612",
"0  c #241815",
"q  c #2C1A14",
"w  c #251C1A",
"e  c #2B1D1B",
"r  c #27161B",
"t  c #341B14",
"y  c #3B1D13",
"u  c #331D1B",
"i  c #361B18",
"p  c #320D00",
"a  c #2C211D",
"s  c #292B1E",
"d  c #33221C",
"f  c #3C251B",
"g  c #15142A",
"h  c #291B21",
"j  c #2C2222",
"k  c #2A2A26",
"l  c #342522",
"z  c #3C2623",
"x  c #3C2B25",
"c  c #3C2D2A",
"v  c #352929",
"b  c #3E322B",
"n  c #3A3124",
"m  c #332C36",
"M  c #2F3537",
"N  c #383633",
"B  c #2D2D36",
"V  c #401806",
"C  c #411E13",
"Z  c #43251C",
"A  c #422A1C",
"S  c #472715",
"D  c #48331A",
"F  c #5B3819",
"G  c #4B2712",
"H  c #432B24",
"J  c #4A2D24",
"K  c #432E2A",
"L  c #492E2A",
"P  c #452623",
"I  c #453225",
"U  c #4A3224",
"Y  c #44322C",
"T  c #4B332C",
"R  c #4B382C",
"E  c #563728",
"W  c #452D31",
"Q  c #443331",
"!  c #4B3532",
"~  c #4B3B34",
"^  c #4A3B3A",
"/  c #463C39",
"(  c #543C35",
")  c #523F3B",
"_  c #583A36",
"`  c #572F24",
"'  c #693E35",
"]  c #5B4115",
"[  c #5C432E",
"{  c #4D423E",
"}  c #54423C",
"|  c #5C433D",
" . c #5C493E",
".. c #594435",
"X. c #5D523E",
"o. c #63453D",
"O. c #6D463B",
"+. c #6C4B2A",
"@. c #3A3745",
"#. c #383451",
"$. c #483B4F",
"%. c #3D4377",
"&. c #4A4345",
"*. c #5C4642",
"=. c #5D4A44",
"-. c #5A4A48",
";. c #44415A",
":. c #595451",
">. c #614641",
",. c #634B45",
"<. c #634D4A",
"1. c #6A4B44",
"2. c #66534A",
"3. c #605551",
"4. c #75654B",
"5. c #514977",
"6. c #5A6566",
"7. c #626B6B",
"8. c #77736A",
"9. c #76617C",
"0. c #757773",
"q. c #6F6B68",
"w. c #614E6A",
"e. c #8C6B3A",
"r. c #986A3A",
"t. c #99723B",
"y. c #99632A",
"u. c #AA793D",
"i. c #947545",
"p. c #926D4D",
"a. c #AB774C",
"s. c #9D7D6E",
"d. c #AD833E",
"f. c #BD8437",
"g. c #B88729",
"h. c #C79235",
"j. c #9D8456",
"k. c #BC8A48",
"l. c #B89549",
"z. c #AD8659",
"x. c #B68857",
"c. c #BA9154",
"v. c #BA9558",
"b. c #AA8B68",
"n. c #B98D62",
"m. c #AD946F",
"M. c #B5956D",
"N. c #A98C7E",
"B. c #B48B78",
"V. c #AB927C",
"C. c #BD9B7C",
"Z. c #B89777",
"A. c #C28D46",
"S. c #C59549",
"D. c #C69757",
"F. c #C9904F",
"G. c #D5A75D",
"H. c #F4BF5F",
"J. c #C69566",
"K. c #C69E7A",
"L. c #DEB76D",
"P. c #C5A47C",
"I. c #DBB87A",
"U. c #D2A667",
"Y. c #E6BB6B",
"T. c #E5BB79",
"R. c #EAC67A",
"E. c #F6C875",
"W. c #5A5689",
"Q. c #5A5899",
"!. c #5C4D8E",
"~. c #665C86",
"^. c #695B99",
"/. c #6A628C",
"(. c #5E5BA2",
"). c #615CA4",
"_. c #8A8E8B",
"`. c #949997",
"'. c #8F9294",
"]. c #B68F8B",
"[. c #AE9185",
"{. c #BA9B83",
"}. c #B89989",
"|. c #B99D90",
" X c #A38F84",
".X c #BEA597",
"XX c #A09FAF",
"oX c #A7A7A5",
"OX c #C59B86",
"+X c #C8A388",
"@X c #D3A88E",
"#X c #C5A597",
"$X c #D6A998",
"%X c #CAB79D",
"&X c #D7BB93",
"*X c #E2BD8F",
"=X c #DABAA1",
"-X c #EBBFA4",
";X c #DBC599",
":X c #DDC289",
">X c #E5C284",
",X c #F3D194",
"<X c #DACAB0",
"1X c #ECCAA6",
"2X c #E9C9A9",
"3X c #F6CAAB",
"4X c #F8D2AD",
"5X c #EBCBB7",
"6X c #F3CCB4",
"7X c #FACCB3",
"8X c #FBCEBC",
"9X c #F4CBB8",
"0X c #E9D3BA",
"qX c #FCD1B5",
"wX c #F4D2BC",
"eX c #FBD3BB",
"rX c #F9D9B6",
"tX c #FAE0BB",
"yX c #DFCFC0",
"uX c #E5CBC4",
"iX c #FACEC2",
"pX c #ECD3C8",
"aX c #FDD3C2",
"sX c #F6D8C5",
"dX c #ECD7D6",
"fX c #FCDAD1",
"gX c #FBE7DB",
"hX c #FFF4D7",
"jX c #FDEDCA",
"kX c #F7EBE7",
"lX c #FEF3ED",
"zX c #FEFAEE",
"xX c #F9F8E7",
"cX c #F3EEF6",
"vX c #EDFEFE",
"bX c #F5F5F5",
"nX c #FDF5F4",
"mX c #FEFBF5",
"MX c #FCF7FA",
"NX c #F4FDFE",
"BX c #FEFEFE",
"VX c #F6F9F7",
"CX c #EFEFEF",
/* pixels */
"BXBXBXBXBXBXBXBXBXBXBXBXBXBXBXBXBXBXBXBXBXBXBXBXBXBXBXBXBXBXBXMXBXNXVXBXVXBXmXMXMXMXBXnXMXMXBXMXBXBXBXBXBXBXBXBXBXBXBXBXBXBXBXBX",
"BXBXBXBXBXBXBXBXBXBXBXBXBXBXBXBXBXBXNXBXBXBXBXBXVXVXBXMXbXCXBXBXBXBXVXbXmXBXmXBXBXnXBXBXcXBXMXBXBXBXBXBXBXBXBXBXBXBXBXBXBXBXBXBX",
"BXBXBXBXBXBXBXBXBXBXBXBXBXBXBXBXBXNXBXBXBXBXBXBXBXBXnXBXw s MXBXVXNXmXBXmXBXe 8 0 8 # j h j BXMXBXBXBXBXBXBXBXBXBXBXBXBXBXBXBXBX",
"BXBXBXBXBXBXBXBXBXBXBXBXBXBXBXBXBXBXBXBXBXBXBXBXBXbXBXmXw 0 MXmXVXMXBXmXMXnXw e e h v h r = MXBXBXBXBXBXBXBXBXBXBXBXBXBXBXBXBXBX",
"BXBXBXBXBXBXBXBXBXBXBXBXBXBXBXBXBXBXBXBXBXBXBXBXMXBXw w &.{ a j MXBXw # e e ~ -.} =.-./ # . BXBXBXBXBXBXBXBXBXBXBXBXBXBXBXBXBXBX",
"BXBXBXBXBXBXBXBXBXBXBXBXBXBXBXBXBXBXBXBXBXBXBXmXnXlXa a { } d e mXnX0 r e v ) -.$.<.^ Q #   BXMXBXBXBXBXBXBXBXBXBXBXBXBXBXBXBXBX",
"BXBXBXBXBXBXBXBXBXBXBXBXBXBXBXBXBXBXBXBXBXBXMXBXBXmXe e Y ~ ) ) d l Q Q *.*.-.<.) c 8 . BXnXMXmXBXBXBXBXBXBXBXBXBXBXBXBXBXBXBXBX",
"BXBXBXBXBXBXBXBXBXBXBXBXBXBXBXBXBXBXBXBXBXBXBXBXnXmXe t x R } 2.9 e K Q *.,.-.=.Y d O O nXMXmXMXBXBXBXBXBXBXBXBXBXBXBXBXMXBXBXBX",
"BXBXBXBXBXBXBXBXBXBXBXNXBXBXBXBXMXVXBXMXBXmXj 8 0 q R Y 3 6 P T 9 9 ,.>.>.<.9 9 . O 2 0 a # BXBXmXnXBXBXBXNXBXmXBXBXBXBXBXBXBXBX",
"BXBXBXBXBXBXBXBXBXMXBXMXBXBXVXBXBXVXMXBXkXBX# 0 e 2 K c q d T Y 9 9 $.,.,.*.t 9 + + 9 2 u l kXMXmXBXmXBXBXVXmXbXBXBXBXBXBXBXBXBX",
"BXBXBXBXBXBXBXBXBXBXBXBXBXMXBXMXBXmX0 - l d x Y Y K  .,._ _ E K ! L E L K ( ..<.~  .c c Q l d 2 w w MXmXmXBXBXBXBXBXBXBXBXMXMXBX",
"BXBXBXBXBXBXBXBXBXBXMXBXBXBXBXmXnXkXv - e e b Q I H | <.>.>.( P L T P P H I | =.=. .} R Y K e e 8 e nXBXVXzXBXbXBXBXBXBXBXBXBXBX",
"BXBXBXBXBXBXBXBXBXBXBXBXBXMXBXBX. $ q q K x K Y <.| >.*.o.>.| o._ 1.>.2.<.o.,. .2. .} } c Y K K e q .   BXmXBXBXBXBXBXBXBXBXBXBX",
"BXBXBXBXBXBXBXBXVXBXMXBXBXBXCXBX. @ 2 f x Y x H <.,.<.,.,.1.>.,.>.1.| o.} .. . .}  ...,.Y I Q K r q $ . mXBXnXNXBXBXNXBXBXBXBXBX",
"BXBXBXBXBXBXBXBXBXVXNXBXBXCX;   l c H z R z @ , 1 t P ! _ ,._ >.>.O.1.,.,.,. .X.I f d a @ O ! K Q Q x v .   BXbXBXNXBXBXBXBXBXBX",
"BXBXBXBXBXBXBXBXMXBXBXBXMXBX  o / Y ! Y K f + O 9 i J T | <.>.<.,.$.>.| | o... .f R 3 3 @ O P K Q b b v $   BXNXBXBXBXBXBXBXBXBX",
"BXBXBXBXBXBXBXBXBXBXBXMXBXMXBXMXBXnX. . 2 t A U T T Z H K K Y L W c ! H I H J U A U T E T P i r . . BXBXMXBXVXBXBXBXBXBXBXBXBXBX",
"BXBXBXBXBXBXBXBXNXBXBXBXBXBXBXBXBXBX. 8 3 t U A P Y I R Q H I H ^ ! ! W Y U J Z D U P P E T i 9 . . bXBXMXBXBXBXBXBXBXBXBXBXBXBX",
"BXBXBXBXBXBXBXBXBXBXMXMXMXBXMXbX    v a Y Y f R Y K Y I Y P R U 1 1 6 y P ( L L H ! Q L ! K x K b v O   BXBXbXBXBXBXBXBXBXBXBXBX",
"BXBXBXBXBXBXBXBXMXBXBXBXBXBXVXBXo = c ^ K H R H Q c Y H T ! U ` 7 S 5 C D Z ! P L ~ W c Q b c { N v . . BXMXBXMXBXBXBXBXBXBXBXBX",
"BXBXBXBXBXBXBXBXBXBXBXBXMXBX; ; - r v c Q K K Y r u Q R L A 5 7 OXP.OXOXp C P _ ^ W r r Q ~ b n ~ b 8 q a ; BXbXBXBXBXBXBXBXBXBX",
"BXBXBXBXBXBXBXBXVXBXBXBXBXMX= r h e K K K ^ l K h u z H L Z S V OXK.OXK.V C P L W P h u d c b n c d q a - a MXBXBXBXBXBXBXBXBXBX",
"NXBXBXBXBXBXBXBXBXMXBXBXMXBX  o Q ! H ! L z z q K x u 3 6 C B.OX4X4X3X-XOX].C C i i L L q t U T R R Y c %   BXmXBXBXBXBXNXBXBXNX",
"BXBXBXBXBXBXBXBXBXBXMXMXBXBX  o W K L L L T t q Q x t 6 7 5 OXOX7X3X7X3X@XOX5 5 p p J L 4 3 J P I n I b $ . mXmXBXBXBXBXBXBXBXBX",
"BXBXBXBXBXBXBXBXMXBXVXBX  = k N Q L L J J L + O ! H 3 < fXeXeX8X7X7X8X8X7XeX6XqXZ.+XG G > > C ` R H ~ b b v $   BXBXBXBXBXBXBXBX",
"BXBXBXBXBXBXBXBXBXVXBXbX;   m { Y J L E T f + > Z Z Z C sX2X3XeX8X8X8X7X3X4X1X1XC.M.E F + + ` ` A I x x Y N     BXBXBXBXBXNXBXNX",
"BXBXBXBXBXBXBXBXVXBXMXVXMXBXBXkX9 i 6 6 [.#XJ A y f [.V.+X$X3X6X8XiX9X8XrX1X+XP.P.P.M.Z.F ` OX].t 8 d 2 mXBXBXBXBXBXBXBXBXBXBXBX",
"BXBXBXBXBXBXBXBXBXBXbXBXBXMXBXBXr i i f }.|.E Z , y |.#X{.{.6XeXiXiX8X9XeX1XM.P.Z.+XZ.+XG G $X#Xq 2 d s kXBXBXBXBXBXBXBXBXBXBXBX",
"BXNXBXBXBXBXBXBXMXBXMXBXMXBXBXbXnXnXu 9 .XN.y y #X[.sXgX[ [ wX6XiX8X8X5XwX6X+.D hXhX{.C.7 < #X}.3 w mXlXMXVXMXBXBXBXBXBXBXBXBXBX",
"BXBXBXBXBXBXBXBXMXBXBXBXMXBXBXBXMXBX# d  X.Xt 3 .X%XgXzX[ S jX5XwXqXeXwXwXsXD E hXgX|..X7 5 |.}.8 a VXBXBXBXMXBXBXBXBXBXBXBXBXBX",
"BXBXBXBXBXBXBXBXBXBXBXBXBXMXBXBXBXBXMXBXx R O O 0X<XzXgX. @ pXpX6X3XwXeXsX5X+ + lXzXuXyX+ O ..R mXBXBXVXBXBXBXNXBXBXBXBXBXBXBXBX",
"BXBXBXBXNXBXBXBXMXBXBXBXBXBXBXBXBXMXBXMXa b O . dX0XzXkXO + 0X0XwX4XqXwX9XsXO O lXkXdXdX. O I x mXBXBXMXBXMXBXBXBXBXBXBXBXBXBXBX",
"BXBXBXBXBXBXBXBXBXBXBXBXBXBXBXBXBXBXmXNXBXMXg h w 2 dXpX5XaX5XaX7X7X7XaX9XeXeXeXwXdXh r i r zXmXBXBXmXBXMXNXBXBXBXBXBXBXBXBXBXBX",
"BXBXBXBXBXBXBXBXBXBXBXBXBXBXBXBXmXmXVXBXBXcX$.r r h uXfX9X8XwXwXqXqX9X5XaXeX3X4XwXpXr z $ O mXbXBXBXBXBXBXBXBXBXBXBXBXBXBXBXBXBX",
"BXBXBXBXBXBXBXBXBXBXBXBXBXBXBXBXNXBXNXNXNXBXkXnX. O + + +X}.0X0XC.Z.OXK.aX6XP.P.O O O . . .     VXBXBXVXBXBXBXBXBXBXBXBXBXBXBXBX",
"BXBXBXBXBXBXBXBXBXBXBXBXBXBXBXBXVXBXNXMXBXBXmXmXO O O O OX#X0X0XP.P.+X@XiX5XK.M.+ + + + O O . $ MXVXBXBXBXBXBXNXBXBXBXBXBXBXBXBX",
"BXBXBXBXBXBXBXBXBXBXBXBXBXBXBXBXmXmXBXBXBXBXBXBXnXkXO O O O @ O ] F ` ` > < + > J.D.x.J.r.p.@XB.. o BXVXBXVXBXBXBXBXBXBXBXBXBXBX",
"BXBXBXBXBXBXBXBXBXBXBXBXBXBXBXBXmXzXmXmXmXBXMXBXMXmXO O . . O O ] F ` ' + + > > u.A.F.a.u.r.J.@XO   NXBXBXBXBXMXBXBXBXBXBXBXBXBX",
"BXBXBXBXBXBXBXBXBXBXBXBXBXBXBXNXmXzXmXBXNXBXBXMX    p.i.j.j.e.i.K.K.OX$Xa.a.c.d.u.r.+ > Z.P.K.C..   BXMXBXMXBXBXBXBXBXBXBXBXBXBX",
"BXBXBXBXBXBXBXBXBXBXBXBXBXBXBXBXBXBXMXBXBXmXBXmX. $ e.i.t.e.t.r.{.#X].OXr.y.D.l.e.p.+ O C.Z.+X|.. o BXBXBXBXBXBXBXBXBXBXBXBXBXBX",
"BXBXBXBXBXBXBXBXBXBXBXBXBXBXBXBXNXNXBXMXBXmX  . B.x.k.c.1 + ,XI.&.#.$.$.&XT.D.v.o   MXBX. O O O BXBXBXBXBXBXBXBXBXBXBXBXBXBXBXBX",
"BXBXBXBXBXBXBXBXBXBXBXBXBXBXBXBXvXNXMXBXBXzXo . J.F.k.c.+ 1 R.,X;.5.w.$.=X>Xf.v.$ o BXMX  . . O mXBXBXBXBXBXBXBXBXBXBXBXBXBXBXBX",
"BXBXBXBXBXBXBXBXBXBXBXBXBXBXBXBXNXNXBXMXnXmX  + z.J.> > D.d.Y.&X~.Q.!.9.<XT.l.l.O   MXMXBXBXmXzXBXBXBXBXBXBXBXBXBXBXBXBXBXBXBXBX",
"BXBXBXBXBXBXBXBXBXBXBXBXBXBXBXBXBXBXnXBXVXmXO O B.n.> > S.D.T.1X9.(.!.w.0XR.l.f.+ . BXBXMXBXbXBXBXBXBXBXBXBXBXBXBXBXBXBXBXBXBXBX",
"BXBXBXBXBXBXBXBXBXBXBXBXBXBXBXBXMXBXBXNXBXBX. . . , x.k.T.L.A.n.~.Q.^.9.m.U.G.R.c.z.+ O nXMXmXVXBXBXBXBXBXBXBXBXBXBXBXBXBXBXBXBX",
"BXBXBXBXBXBXBXBXBXBXBXBXBXBXBXBXMXBXmXVXMXBX. O . $ v.D.>XT.G.b.~.(.!./.s.x.L.E.f.D.> + zXlXnXBXBXBXBXBXBXBXBXBXBXBXBXBXBXBXBXBX",
"BXBXBXBXBXBXBXBXBXBXBXBXBXBXBXBXBXmXVXBX  O #X{.wX0X+ > D.x.O . W.).)./.  @ >XR.S.h.f.J.O # BXvXBXBXBXBXBXBXBXBXBXBXBXBXBXBXBXBX",
"BXBXBXBXBXBXBXBXBXBXBXBXBXBXBXBXBXnXBXBX  O +XZ.1XwXO + z.n..   W.Q./.5.g   %X>Xk.S.h.A.1 O BXBXBXBXBXBXBXBXBXBXBXBXBXBXBXBXBXBX",
"BXBXBXBXBXBXBXBXBXBXBXBXBXBXBXBXMXBXBXMXo . sXjX4XrX+ + m.V.Y &.X * * g #.@.N D :XR.h.h.S.x.+ . . o BXNXBXBXBXBXBXBXBXBXBXBXBXBX",
"BXBXBXBXBXBXBXBXBXBXBXBXBXBXBXBXBXBXBXBX  . <X2X2X1X+ > Z. X:.@.o   & & ;.#.B s ;XR.g.h.g.S.> + .   BXMXBXMXBXBXBXBXBXBXBXBXBXBX",
"BXBXBXBXBXBXBXBXBXBXBXBXBXBXBXBXmXmXBXMXNXzX. . + < b.m.+ . 8.0.k N 0.9.XX'.  O ;XL.E.H.h.A.z.B.O   BXBXBXBXBXMXBXBXBXBXBXBXBXBX",
"BXBXBXBXBXBXBXBXBXBXBXBXBXBXBXBXmXBXBXMXxXzXo @ O O z.m.O @ 4.8.s s 0.0.'.'.  $ ;XI.E.Y.A.k.n.b.. o NXVXBXVXBXBXBXBXBXBXBXBXBXBX",
"BXBXBXBXBXBXBXBXBXBXBXBXBXBXBXBXbXBXBXBX: $ X.4.m.M.;X;X$   `.`.:   0.0._.oX    hXjXl.l.y.t.+ , mXVXBXBXBXBXBXVXBXBXBXBXBXBXBXBX",
"BXBXBXBXBXBXBXBXBXBXBXBXBXBXBXBXBXBXMXBX    2.4.b.z.&X;X.   `.`.: : q.0._.`.:   xXhXn.z.r.+., . nXBXBXVXBXBXBXBXBXBXBXBXBXBXBXBX",
"BXBXBXBXBXBXBXBXBXBXBXBXBXBXBXBXmXBXBXmXBXmX  % o $ O . n ~ ; M o X `.'.`.'.6.6.o   $ O O , kXmXBXBXBXBXBXBXBXMXBXBXBXBXBXBXBXBX",
"BXBXBXBXBXBXBXBXBXBXBXBXBXBXBXBXBXBXmXmXBXNX$       .   s s N k X : `.`.'._.7.6.o     O   o NXVXNXBXmXBXMXBXBXBXBXBXBXBXBXBXBXBX",
"BXBXBXBXBXBXBXBXBXBXBXBXBXBXBXBXMXBXBXBXBXBXBXmXzXmXmXmXmXBXBXBX@.B m N 3.:.M M & X BXnXBXBXNXNXBXBXBXBXBXBXBXBXBXBXBXBXBXBXBXBX",
"BXBXBXBXBXBXBXBXBXBXBXBXBXBXBXBXBXBXMXBXBXBXmXmXmXBXBXNXBXBXNXBXm m ^ ( 2.3.B M   g cXBXBXNXvXNXBXBXBXBXBXBXBXBXBXBXBXBXBXBXBXBX",
"BXBXBXBXBXBXBXBXBXBXBXBXBXBXBXBXBXBXBXBXMXBXMXBXBXBXBXBXBXBXBXBXo + _ ' 1.>.O o BXcXBXBXmXmXBXVXBXBXBXBXBXBXBXBXBXBXBXBXBXBXBXBX",
"BXBXBXBXBXBXBXBXBXBXBXBXBXBXBXBXBXBXBXBXBXBXBXMXBXBXBXBXBXBXBXBXO + 1.O.O.>.O o BXBXnXmXmXmXNXNXBXBXBXBXBXBXBXBXBXBXBXBXBXBXBXBX",
"BXBXBXBXBXBXBXBXBXBXBXBXBXBXBXBXBXBXBXBXBXBXBXBXBXBXBXBXBXBXBXBX. O E o.E ( O . MXBXnXmXmXzXBXBXBXBXBXBXBXBXBXBXBXBXBXBXBXBXBXBX",
"BXBXBXBXBXBXBXBXBXBXBXBXBXBXBXBXBXmXBXmXBXBXBXBXBXNXNXNXBXBXBXmXO . R R E ! O . BXBXmXzXmXmXBXBXBXBXBXBXBXBXBXBXBXBXBXBXBXBXBXBX",
"BXBXBXBXBXBXBXBXBXBXBXBXBXBXBXBXBXBXBXmXmXmXBXBXBXNXBXBXBXBXBXmXNXmX  O O . BXNXNXNXBXmXmXmXNXBXBXBXBXBXBXBXBXBXBXBXBXBXBXBXBXBX",
"BXBXBXBXBXBXBXBXBXBXBXBXBXBXBXBXBXBXmXmXmXBXBXBXBXBXBXBXBXBXBXmXNXmX  . .   BXNXNXBXmXBXmXBXBXBXBXBXBXBXBXBXBXBXBXBXBXBXBXBXBXBX"
};
