/* XPM */
static char *tile004[] = {
/* columns rows colors chars-per-pixel */
"64 64 235 2 ",
"   c #040101",
".  c #0C0101",
"X  c #0C0903",
"o  c #02010D",
"O  c #0A040B",
"+  c #0E0C0A",
"@  c #070900",
"#  c #140200",
"$  c #1A0100",
"%  c #130A05",
"&  c #1D0C04",
"*  c #140B09",
"=  c #18060D",
"-  c #1A110D",
";  c #010012",
":  c #090916",
">  c #160A15",
",  c #1D1413",
"<  c #1A161A",
"1  c #230000",
"2  c #2C0100",
"3  c #24140D",
"4  c #2B130D",
"5  c #2A180E",
"6  c #2C1504",
"7  c #341609",
"8  c #351706",
"9  c #231715",
"0  c #2C1611",
"q  c #241915",
"w  c #2C1B15",
"e  c #201719",
"r  c #251C1B",
"t  c #2B1D1A",
"y  c #331C15",
"u  c #341D1A",
"i  c #3B1E1C",
"p  c #3D1C13",
"a  c #36250B",
"s  c #2B211E",
"d  c #29221A",
"f  c #33231C",
"g  c #3B231E",
"h  c #382818",
"j  c #000321",
"k  c #0C0B2D",
"l  c #2D1C24",
"z  c #2C2322",
"x  c #2B2726",
"c  c #332422",
"v  c #3B2522",
"b  c #362A25",
"n  c #3C2A24",
"m  c #342D2A",
"M  c #3B2D2A",
"N  c #3E312A",
"B  c #3A3726",
"V  c #352D36",
"C  c #441C17",
"Z  c #451F08",
"A  c #45260B",
"S  c #44281A",
"D  c #453218",
"F  c #583512",
"G  c #422623",
"H  c #432B25",
"J  c #4B2C24",
"K  c #442E29",
"L  c #492E29",
"P  c #43252C",
"I  c #512F28",
"U  c #532E25",
"Y  c #423125",
"T  c #4C3126",
"R  c #45322B",
"E  c #4B322C",
"W  c #4C3A2A",
"Q  c #52342D",
"!  c #543628",
"~  c #433532",
"^  c #4D3532",
"/  c #4B3A33",
"(  c #443839",
")  c #523632",
"_  c #543A34",
"`  c #543D39",
"'  c #5B3E3A",
"]  c #593633",
"[  c #452A33",
"{  c #673927",
"}  c #5C423D",
"|  c #55433F",
" . c #524232",
".. c #70502A",
"X. c #66423B",
"o. c #745539",
"O. c #705139",
"+. c #363258",
"@. c #393863",
"#. c #423F6E",
"$. c #463F75",
"%. c #3C4664",
"&. c gray25",
"*. c #564342",
"=. c #5E4642",
"-. c #5E4A47",
";. c #624642",
":. c #644A45",
">. c #6B4D4A",
",. c #6A4A46",
"<. c #784E42",
"1. c #69514A",
"2. c #78584A",
"3. c #6A5552",
"4. c #705753",
"5. c #7C6557",
"6. c #585476",
"7. c #4A4968",
"8. c #745667",
"9. c #665B7B",
"0. c #755270",
"q. c #825B3C",
"w. c #83643D",
"e. c #BE792B",
"r. c #8B6746",
"t. c #886D5C",
"y. c #815971",
"u. c #B98F39",
"i. c #BA933D",
"p. c #B8892F",
"a. c #C68B2C",
"s. c #C28839",
"d. c #D68E39",
"f. c #C6933B",
"g. c #CC9435",
"h. c #D08F28",
"j. c #9C9351",
"k. c #AD8B48",
"l. c #B48842",
"z. c #AD944A",
"x. c #BF9042",
"c. c #AC8955",
"v. c #BA865B",
"b. c #BB915D",
"n. c #B99659",
"m. c #B6A14E",
"M. c #AB9565",
"N. c #B59363",
"B. c #B89A6A",
"V. c #BA8E7D",
"C. c #B69376",
"Z. c #B38F70",
"A. c #C29246",
"S. c #C89648",
"D. c #C68D55",
"F. c #C69856",
"G. c #CB8C4F",
"H. c #E5B75F",
"J. c #C79A7B",
"K. c #C89567",
"L. c #CEBB7D",
"P. c #E9BE63",
"I. c #E8BD71",
"U. c #E9CA5E",
"Y. c #DBC471",
"T. c #E9C76B",
"R. c #E2C473",
"E. c #E5C57D",
"W. c #E8C57E",
"Q. c #F0CC78",
"!. c #5D4E85",
"~. c #725B91",
"^. c #6E648D",
"/. c #90828F",
"(. c #988C90",
"). c #B29583",
"_. c #BCA38D",
"`. c #BFA594",
"'. c #948FA3",
"]. c #C59A85",
"[. c #C49B93",
"{. c #DABD89",
"}. c #CAAC94",
"|. c #CAB188",
" X c #EBBA80",
".X c #C6B3A9",
"XX c #DBBBB2",
"oX c #D1BAAC",
"OX c #EEBFAB",
"+X c #DDC584",
"@X c #D9C893",
"#X c #CBCC94",
"$X c #E5C786",
"%X c #E8CC8C",
"&X c #DFD0BB",
"*X c #D0CFA1",
"=X c #EBCBAA",
"-X c #F3CAAB",
";X c #E8CAB7",
":X c #F4CCBB",
">X c #FACCBD",
",X c #F3CBB6",
"<X c #FED6B3",
"1X c #F6D1BE",
"2X c #F9D6BB",
"3X c #FFE6BF",
"4X c #EACEC6",
"5X c #F8CFC3",
"6X c #ECD2C3",
"7X c #E9D0CB",
"8X c #F5D4C6",
"9X c #FBD4C9",
"0X c #F9D7C6",
"qX c #F2D9D3",
"wX c #F8E6D6",
"eX c #FFF5DB",
"rX c #F3E3D1",
"tX c #EAEAE9",
"yX c #FAEAEB",
"uX c #F4E9E6",
"iX c #FFF6E3",
"pX c #F6F2ED",
"aX c #FCF4EC",
"sX c #FEFCEC",
"dX c #FFFAE0",
"fX c #F8EEF6",
"gX c #EEFAF8",
"hX c #F5F4F3",
"jX c #FDF5F4",
"kX c #F5FCF5",
"lX c #FDFBF5",
"zX c #F7F3F8",
"xX c #FCF5FC",
"cX c #F6FDFC",
"vX c #FFFFFE",
/* pixels */
"vXvXvXvXvXvXvXvXvXvXvXvXvXvXvXvXvXvXcXvXvXxXvXcXvXvXvXvXvXvXvXvXxXjXvXvXvXxXlXvXvXvXvXvXvXvXvXvXvXvXvXvXvXvXvXvXvXvXvXvXvXvXvXvX",
"vXvXvXvXvXvXvXvXvXvXvXvXvXvXvXvXvXvXvXvXxXvXxXvXvXcXvXcXcXxXvXvXvXvXvXvXvXcXvXkXcXvXvXvXvXvXvXvXvXvXvXvXvXvXvXvXvXvXvXvXvXvXvXvX",
"vXvXvXvXvXvXvXvXvXvXvXvXvXvXvXvXvXxXvXvXcXvXvXvXcXvXvXvXvXvXvXvXxXjXvXlXvXvXvXvXvXvXvXvXvXvXvXvXvXvXvXvXvXvXvXvXvXvXvXvXvXvXvXvX",
"vXvXvXvXvXvXvXvXvXvXvXvXvXvXvXvXvXxXvXxXvXvXvXvXvXxXvXvXvXvXxXvXlXvXvXxXvXlXvXlXvXvXvXvXvXvXvXvXvXvXvXvXvXvXvXvXvXvXvXvXvXvXvXvX",
"vXvXvXvXvXvXvXvXvXvXvXvXvXvXvXvXvXvXvXvXvXvXvXvXvXvXvXlXxXvXxXvXc c c d s x d m lXvXvXvXvXvXvXvXvXvXvXvXvXvXvXvXvXvXvXvXvXvXvXvX",
"vXvXvXvXvXvXvXvXvXvXvXvXvXvXvXvXkXvXvXvXvXvXtXvXfXvXxXvXvXxXvXjXc c M f c m < z vXvXvXvXvXcXvXcXvXvXvXvXvXvXvXvXvXvXvXvXvXvXvXvX",
"vXvXvXvXvXvXvXvXvXvXvXvXvXvXvXvXvXvXzXvXvXpX( z M t vXxXxXxXt M *.=.-.| | ( * * vXvXvXvXvXcXvXvXvXvXvXvXvXvXvXvXvXvXvXvXvXvXvXvX",
"vXvXvXvXvXvXvXvXvXvXvXvXvXvXvXvXvXlXvXvXlXxXz z z M xXjXjXjXM v ;.;.:.} -.| # . lXvXlXvXvXvXvXcXvXvXvXvXvXvXvXvXvXvXvXvXvXvXvXvX",
"vXvXvXvXvXvXvXvXvXvXvXvXvXvXvXvXvXvXlXlXlXlXl c *.3.l t v c *.1.>.:.L _ # # v t c r lXlXcXvXvXxXvXvXvXvXvXvXvXvXvXvXvXvXvXvXvXvX",
"vXvXvXvXvXvXvXvXvXvXvXvXvXvXvXvXvXlXlXvXlXvXb c -.' P v i c =.` _ ;.L P # # w b c s xXhXvXlXkXlXvXvXvXxXvXvXvXvXvXvXvXvXvXvXvXvX",
"vXvXvXvXvXvXvXvXvXvXvXvXvXvXvXvXvXkX@   r ~ r i ( [ _ ;.u u 4.:.J G # $ K ^ T R R ~ f s .   lXxXvXkXvXvXvXvXcXvXvXvXvXvXvXvXvXvX",
"vXvXvXvXvXvXvXvXvXvXvXvXvXvXvXvXvXlXO X r c w c K L ;.>.i u ;.' y y # # E L K R R K M t # # lXlXlXvXvXvXcXxXxXvXvXvXvXvXvXvXvXvX",
"vXvXvXvXvXvXvXvXvXvXvXvXvXvXvXvX  . x N ( ~ ^ K i C P ) J G ) H L E E H ;.` =.;.K ^ v n ~ n %   vXvXvXvXvXvXvXvXvXvXvXvXvXvXvXvX",
"vXvXvXvXvXvXvXvXvXvXvXvXvXvXvXvX+   m N K M ^ K i G G J Q L L T E g R R =.;.1.} E ^ ^ ^ K f & . vXtXvXvXvXvXvXkXvXvXvXvXvXvXvXvX",
"vXvXvXvXvXvXvXvXvXvXvXvXvXvXvXvXjXlX. = t c L ) ' ;.>.X.L G S K E R :.1.} } ;.;.' _ E L R _ n R r &.hXvXvXzXvXvXvXvXvXvXvXvXvXvX",
"vXvXvXvXvXvXvXvXvXvXvXvXvXvXvXvXlXjX% # t v P J ,.' ;.;.J J ) K R R } :.} :.;.:.,.=.) ^ G T K ~ x z vXxXvXvXvXvXvXvXvXvXvXvXvXvX",
"vXvXvXvXvXvXvXvXvXvXvXvXvXvXvXvXr e   . 9 w E T J Q X.X.,.,.=.;.=.=.;.:.X.:.,.;.L K Y H f 5 5 3 vXkXcXcXcXvXvXvXvXvXvXlXvXvXvXvX",
"vXvXvXvXvXvXvXvXvXvXvXvXvXvXvXvX< , X . q w K K I I ] ,.] ' 3.=.:.:.:.:.' ' :.;.E E T K f 5 5 9 vXhXvXkXxXcXvXcXlXvXvXvXvXlXlXvX",
"vXvXvXvXvXvXvXvXvXvXvXvXvXvXvXvXO . e 9 M N R T J U U J Q ' ) >.;.=.=.' L L L L K L T Y Y H Y R   * xXvXvXlXlXcXvXcXvXlXvXvXvXvX",
"vXvXvXvXvXvXvXvXvXvXvXvXvXvXvXvX  . l s M R R E Q J J I L ] ;.' :.=.;.=.) L E L E E H n Y Y B R +   lXvXvXvXvXjXvXvXvXvXlXvXvXvX",
"vXvXvXvXvXvXvXvXvXvXvXvXvXvXvXvXO   t e q f S T S T ! S L J L ^ K H R E H H J G E H u y H R K R M m X . lXvXvXvXvXvXvXvXvXvXvXvX",
"vXvXvXvXvXvXvXvXvXvXvXvXvXvXvXvXO   e e 3 w Y J J J ! S Q E S L R K E E K K ^ ^ H v u y n R R / ~ z *   vXlXlXvXvXvXvXvXvXvXvXvX",
"vXvXvXvXvXvXvXvXvXvXvXvXvXvXvXvX    e z w w Q J 7 7 4X6XJ T L J Y n R K y y G K ^ R K g y f n N / ~ s b xXlXlXhXvXvXvXvXvXvXvXvX",
"vXvXvXvXvXvXvXvXvXvXvXvXvXvXvXvX  O , t w 4 ! S 8 p ;X8XS Q J T R R E K 0 0 H ^ E R E n y d n R N N r d lXlXvXvXvXvXvXvXvXvXvXvX",
"vXvXvXvXvXvXvXvXvXvXvXvXvXvXvXvXcXzX. . qXqX7 7 8X;X6X6XQ ) K H R R E R E R w 4 _ K ~ E n ~ w w - d N b X - hXlXvXvXvXvXvXvXvXvX",
"vXvXvXvXvXvXvXvXvXvXvXvXvXvXvXvXvXvX. . 7XXXC 8 ;X;XrX;XD g E H E R R K R n 0 0 M n R ~ K b c w & N m c * . lXvXvXvXvXvXvXvXvXvX",
"vXvXvXvXvXvXvXvXvXvXvXvXvXvXvXvXhXvX  # qXwX;X8X`.}.h W & & v E R Y R n g y 4 w w u ~ R c M uXjXlXpXr r   + xXlXvXvXvXvXvXvXvXvX",
"vXvXvXvXvXvXvXvXvXvXvXvXvXvXvXvXvXlX. . 4X8X:X:X`._.h D % 1 u L T R E n 0 4 y u w n c M r 9 lXlXxXlX, x     vXvXvXvXvXvXvXvXvXvX",
"vXvXvXvXvXvXvXvXvXvXvXvXvXvXvXvXpXlXb y 8X:X:X1X! h sXdXR n & # E T E J 4 4 n K M n w 9 xXlXvXlXlXlXxXhXvXxXvXkXlXvXvXvXvXlXvXvX",
"vXvXvXvXvXvXvXvXvXvXvXvXvXvXvXvXlXaXf y 8X9X5X1XD  .rXsXB R . # R K Y H y u R R n M s c lXlXvXvXlXvXvXvXkXvXlXvXvXvXvXvXvXvXvXvX",
"vXvXvXvXvXvXvXvXvXvXvXvXvXvXvXvXkXlXR T 5X>X,X5X8 # eXrX(..X  # R K y y v H R K w f - - lXlXlXlXvXvXxXvXvXkXvXcXvXvXvXlXvXvXlXvX",
"vXvXvXvXvXvXvXvXvXvXvXvXvXvXvXvXvXlXH U :X>X>X2X$ # eXwX}.).. # T K 3 4 T E R R 9 t t r vXvXjXvXvXcXcXvXvXcXvXvXvXvXvXlXvXlXvXvX",
"vXvXvXvXvXvXvXvXvXvXvXvXvXvXvXvXlXyX.X}.-X<X<X,X3X=X0X-X].].].[.# . 3 3 E R R R q e vXxXvXvXvXvXvXvXvXvXvXvXvXvXvXvXvXvXvXvXvXvX",
"vXvXvXvXvXvXvXvXvXvXvXvXvXvXvXvXxXyXoX}.=X<X-X<X2X=X-X<XK.J.].[.$ X q d h B N  .e ( fXvXvXxXvXvXvXvXvXvXvXvXvXvXvXvXvXvXvXvXvXvX",
"vXvXvXvXvXvXvXvXvXvXvXvXvXvXvXvXlXlXuXsX! p ).].=X0XJ.J.r.o.8 D c l N m *   vXjXvXuXvXvXvXvXcXcXvXvXvXvXvXvXvXvXvXvXvXvXvXvXvXvX",
"vXvXvXvXvXvXvXvXvXvXvXvXvXvXvXvXpXlXlXlXR W `.].5X>XZ._.2.1.D 6 e l V m X X lXcXvXvXxXvXvXxXvXkXvXvXvXvXvXvXvXvXvXvXvXvXvXvXvXvX",
"vXvXvXvXvXvXvXvXvXvXvXvXvXvXvXvXxXxXvXcXvXxXv p C C C G # # D W * > x x     vXvXvXvXvXcXkXvXvXcXvXvXvXvXvXvXvXvXvXvXvXvXvXvXvXvX",
"vXvXvXvXvXvXvXvXvXvXvXvXvXvXvXvXvXvXvXcXcXkXb v G y P l = # D a . * e d *   zXxXvXvXvXcXcXvXlXlXvXvXvXvXvXvXvXvXvXvXvXvXvXvXvXvX",
"vXvXvXvXvXvXvXvXvXvXvXvXvXvXvXvXxXfXxXvXlXlXlXxX. o /./.. # r.w.. . d N jXvXvXvXcXcXcXcXcXvXvXxXvXvXvXvXvXvXvXvXvXvXvXvXvXvXvXvX",
"vXvXvXvXvXvXvXvXvXvXvXvXvXvXvXvXxXvXvXvXlXsXcXcXo ; '.(.$ $ r.w.& % a n lXxXxXxXvXvXcXvXcXvXvXvXvXvXvXvXvXvXvXvXvXvXvXvXvXvXvXvX",
"vXvXvXvXvXvXvXvXvXvXvXvXvXvXvXvXcXvXxXxXxXvX  : %.%.9.8.C.B.$ $ M.M.# # sXaXlXxXvXvXvXvXvXvXvXvXvXvXvXvXvXvXvXvXvXvXvXvXvXvXvXvX",
"vXvXvXvXvXvXvXvXvXvXvXvXvXvXvXvXcXvXxXjXjXlXo : @.#.8.2.c.c.$ $ N.n.$ # dXsXlXlXlXvXvXvXvXvXvXvXvXvXvXvXvXvXvXvXvXvXvXvXvXvXvXvX",
"vXvXvXvXvXvXvXvXvXvXvXvXvXvXvXcXkXcXvXvXlXvXo j ~.^.V.v.F.z.#   {.I.n.B.# # aXjXvXvXvXvXvXvXvXvXvXvXvXvXvXvXvXvXvXvXvXvXvXvXvXvX",
"vXvXvXvXvXvXvXvXvXvXvXvXvXvXvXvXkXkXvXxXlXvX; k !.0.v.s.S.z.X @ +XT.k.n.$ # sXlXlXvXvXvXvXvXxXvXvXvXvXvXvXvXvXvXvXvXvXvXvXvXvXvX",
"vXvXvXvXvXvXvXvXvXvXvXvXvXvXvXvXkXcXlXxX. ; +.@.~.y.K.f.H.Y.B B E.H.F.n.r.t.jXxXvXvXvXcXvXvXvXvXvXvXvXvXvXvXvXvXvXvXvXvXvXvXvXvX",
"vXvXvXvXvXvXvXvXvXvXvXvXvXvXvXvXcXvXlXxX  : @.$.!.8.D.f.T.%Xh f R.T.F.N.r.2.lXlXvXcXcXcXcXvXvXvXvXvXvXvXvXvXvXvXvXvXvXvXvXvXvXvX",
"vXvXvXvXvXvXvXvXvXvXvXvXvXvXvXvXcXvXlXvXO > @.@.+.[ j.i.U.Y.$ $ W.I.l.c.# # jXxXvXcXvXkXcXcXvXcXvXvXvXvXvXvXvXvXvXvXvXvXvXvXvXvX",
"vXvXvXvXvXvXvXvXvXvXvXvXvXvXvXvXvXvXxXvXO : +.@.V N M.z.R.E.# 1 I.I.D.N.# . xXvXvXvXvXvXvXvXvXvXvXvXvXvXvXvXvXvXvXvXvXvXvXvXvXvX",
"vXvXvXvXvXvXvXvXvXvXvXvXvXvXvXvXvXlXvXvXO : 6.6.O # |.+X$ $ 9X:XK.K.F A #   hXcXcXvXlXlXlXlXxXvXvXvXvXvXvXvXvXvXvXvXvXvXvXvXvXvX",
"vXvXvXvXvXvXvXvXvXvXvXvXvXvXvXvXpXlXzXvXO k 6.6.  @ #XY.$ # XX9X].J.A ! # . lXtXcXcXkXvXvXvXvXvXvXvXvXvXvXvXvXvXvXvXvXvXvXvXvXvX",
"vXvXvXvXvXvXvXvXvXvXvXvXvXvXvXvXxXxXvXvX> : 6.^.; @ #X#XX . wX7X9X9X$ $ 2.5.. # lXvXcXcXcXcXvXvXvXvXvXvXvXvXvXvXvXvXvXvXvXvXvXvX",
"vXvXvXvXvXvXvXvXvXvXvXvXvXvXvXvXvXvXvXtX+ : 7.6.; @ *X*X@ % &X7X4X:X1 2 q.r.$ $ aXvXvXvXvXcXvXvXvXvXvXvXvXvXvXvXvXvXvXvXvXvXvXvX",
"vXvXvXvXvXvXvXvXvXvXvXvXvXvXvXvXxXxXxXlXlXlX; k ; X j.j.Y.+X$ 1 1 1 v.D.G.G.G.K.1 # xXxXvXvXvXxXvXvXvXvXvXvXvXvXvXvXvXvXvXvXvXvX",
"vXvXvXvXvXvXvXvXvXvXvXvXvXvXvXvXvXxXcXvXlXlX< ; > . M.m.Y.Q.2 1 1 1 F.s.d.d.e.G.2 $ jXvXxXxXxXjXvXvXvXvXvXvXvXvXvXvXvXvXvXvXvXvX",
"vXvXvXvXvXvXvXvXvXvXvXvXvXvXvXvXvXcXkXkXsXsXtXxX. # {.I.u.u.i.A.S.A.f.a.h.h.h.G.b.C.# # xXvXlXvXvXvXvXvXvXvXvXvXvXvXvXvXvXvXvXvX",
"vXvXvXvXvXvXvXvXvXvXvXvXvXvXvXvXcXcXcXvXsXlXvXvXO # =X{.n.u.x.x.x.i.p.a.g.a.s.l.N.C.. = xXvXvXcXvXvXvXvXvXvXvXvXvXvXvXvXvXvXvXvX",
"vXvXvXvXvXvXvXvXvXvXvXvXvXvXvXvXvXvXvXlXlXvXvXvXxXvX. # eX0X@X X$XE.I.R.R.%X$ $ # . lXxXvXcXcXcXvXvXvXvXvXvXvXvXvXvXvXvXvXvXvXvX",
"vXvXvXvXvXvXvXvXvXvXvXvXvXvXvXvXvXlXlXvXcXkXcXvXvXxX  . aXsX}.{.{.%X+X@X#X*X. .   < hXvXcXcXgXcXvXvXvXvXvXvXvXvXvXvXvXvXvXvXvXvX",
"vXvXvXvXvXvXvXvXvXvXvXvXvXvXvXvXvXlXlXlXvXvXcXvXvXxX. = ~ J O...A F # . . X lXcXvXhXvXvXvXcXcXcXvXvXvXvXvXvXvXvXvXvXvXvXvXvXvXvX",
"vXvXvXvXvXvXvXvXvXvXvXvXvXvXvXvXlXlXvXvXvXvXvXvXsXxX# $ P ] { O.S U . . o ; cXcXcXvXlXlXvXlXvXlXvXvXvXvXvXvXvXvXvXvXvXvXvXvXvXvX",
"vXvXvXvXvXvXvXvXvXvXvXvXvXvXvXvXlXvXvXvXvXvXlXvX& # } ,.X.q.{ { # # fXxXvXxXxXvXvXlXlXlXsXlXlXvXvXvXvXvXvXvXvXvXvXvXvXvXvXvXvXvX",
"vXvXvXvXvXvXvXvXvXvXvXvXvXvXvXvXvXvXvXvXvXvXvXlX. . } 1.<.X.{ U #   vXvXxXxXvXxXvXlXlXsXlXsXxXvXvXvXvXvXvXvXvXvXvXvXvXvXvXvXvXvX",
"vXvXvXvXvXvXvXvXvXvXvXvXvXvXvXvXvXlXvXvXvXvXvXvXvXvX  # # # # * kXkXtXxXxXxXxXvXvXkXkXvXlXvXxXxXvXvXvXvXvXvXvXvXvXvXvXvXvXvXvXvX",
"vXvXvXvXvXvXvXvXvXvXvXvXvXvXvXvXlXxXvXvXvXvXcXxXvXcX  @   . o o cXgXkXvXvXvXxXvXvXcXkXcXxXvXxXvXvXvXvXvXvXvXvXvXvXvXvXvXvXvXvXvX"
};
