/* XPM */
static char *tile002[] = {
/* columns rows colors chars-per-pixel */
"64 64 243 2 ",
"   c #030201",
".  c #0C0201",
"X  c #05020A",
"o  c #000B0A",
"O  c #0C0B0C",
"+  c #090906",
"@  c #130100",
"#  c #1B0201",
"$  c #150904",
"%  c #190902",
"&  c #13010A",
"*  c #150E0B",
"=  c #1B0D0C",
"-  c #081207",
";  c #1E130C",
":  c #050716",
">  c #120A15",
",  c #1D1412",
"<  c #17191A",
"1  c #230200",
"2  c #290400",
"3  c #240C01",
"4  c #2C0D06",
"5  c #340700",
"6  c #2C1202",
"7  c #26130C",
"8  c #2B140C",
"9  c #2B190D",
"0  c #321503",
"q  c #33140C",
"w  c #381A0A",
"e  c #241613",
"r  c #2C1512",
"t  c #241914",
"y  c #2B1A14",
"u  c #241B1A",
"i  c #2C1D1B",
"p  c #2D141A",
"a  c #321C13",
"s  c #321E1B",
"d  c #381B15",
"f  c #362006",
"g  c #28221B",
"h  c #34231D",
"j  c #3A241A",
"k  c #3B2719",
"l  c #0D0F28",
"z  c #261B24",
"x  c #341D22",
"c  c #252323",
"v  c #2C2424",
"b  c #2C2C2C",
"n  c #342424",
"m  c #3A2623",
"M  c #332A25",
"N  c #3B2C25",
"B  c #352D2A",
"V  c #3D2C2B",
"C  c #362728",
"Z  c #3C322A",
"A  c #383128",
"S  c #2A3030",
"D  c #3C3231",
"F  c #382C2F",
"G  c #441D07",
"H  c #411C16",
"J  c #45261C",
"K  c #432A1B",
"L  c #472615",
"P  c #552A1A",
"I  c #493110",
"U  c #422622",
"Y  c #432C24",
"T  c #4A2D24",
"R  c #442D2B",
"E  c #4A2D2A",
"W  c #433125",
"Q  c #4A3126",
"!  c #44322C",
"~  c #4B332C",
"^  c #45382D",
"/  c #553628",
"(  c #443331",
")  c #4A3432",
"_  c #4D3935",
"`  c #443C3B",
"'  c #443B39",
"]  c #523531",
"[  c #593F3A",
"{  c #553A35",
"}  c #502E2F",
"|  c #54423B",
" . c #5C433D",
".. c #594234",
"X. c #4F453C",
"o. c #62463E",
"O. c #6F4A2F",
"+. c #7B6639",
"@. c #33354E",
"#. c #4A3A4C",
"$. c #3F4253",
"%. c #3D4D73",
"&. c #474143",
"*. c #5D4642",
"=. c #5E4943",
"-. c #584947",
";. c #564D52",
":. c #624541",
">. c #644A43",
",. c #674F47",
"<. c #6E564D",
"1. c #4C4370",
"2. c #4A547A",
"3. c #534E72",
"4. c #695976",
"5. c #715F6C",
"6. c #5A6775",
"7. c #736770",
"8. c #A8651F",
"9. c #8D5931",
"0. c #8B683C",
"q. c #8E703C",
"w. c #9F723B",
"e. c #9E6933",
"r. c #AB7225",
"t. c #B0712B",
"y. c #B37833",
"u. c #A86521",
"i. c #8A6847",
"p. c #977342",
"a. c #91755A",
"s. c #A27645",
"d. c #866E74",
"f. c #B58837",
"g. c #C4813C",
"h. c #9E804C",
"j. c #A98448",
"k. c #B48A4D",
"l. c #B98948",
"z. c #B9924C",
"x. c #A98659",
"c. c #B88757",
"v. c #B89355",
"b. c #AB957C",
"n. c #B9967B",
"m. c #B0906F",
"M. c #B7A07E",
"N. c #C68C4C",
"B. c #C28340",
"V. c #D28F48",
"C. c #C39448",
"Z. c #C18154",
"A. c #CB935C",
"S. c #C69A55",
"D. c #D19056",
"F. c #D7924F",
"G. c #C98F62",
"H. c #C49362",
"J. c #CB9B6C",
"K. c #C69C7A",
"L. c #D4B369",
"P. c #D8BA76",
"I. c #D1AE6D",
"U. c #E5AF63",
"Y. c #E4BA78",
"T. c #EBC577",
"R. c #F3D17A",
"E. c #445781",
"W. c #64589A",
"Q. c #6A6F81",
"!. c #5B6CA2",
"~. c #6D65A3",
"^. c #9D9289",
"/. c #969797",
"(. c #8A8A92",
"). c #B79888",
"_. c #A39E98",
"`. c #AD938C",
"'. c #BAA387",
"]. c #BDA19C",
"[. c #919CA2",
"{. c #96A1A7",
"}. c #C59C87",
"|. c #CDA48C",
" X c #C6A589",
".X c #D3A988",
"XX c #D9B687",
"oX c #C6A692",
"OX c #D2A792",
"+X c #CEB396",
"@X c #E3BD89",
"#X c #EABFAC",
"$X c #D3C38B",
"%X c #D9C687",
"&X c #D9C497",
"*X c #FFCE82",
"=X c #E5CE91",
"-X c #DEC6BA",
";X c #EBC5AE",
":X c #E5CAA9",
">X c #F7CCA9",
",X c #ECD3A7",
"<X c #ECC5B3",
"1X c #EBCBB2",
"2X c #EACEBA",
"3X c #F3CBB3",
"4X c #FACDB4",
"5X c #F9CDBB",
"6X c #F9C7B3",
"7X c #E4D4B5",
"8X c #EAD2B8",
"9X c #F5D2B4",
"0X c #FDD4BC",
"qX c #FAD9BE",
"wX c #F8D6B5",
"eX c #FAD5A7",
"rX c #FFE9B9",
"tX c #F9E3AA",
"yX c #E0CDC9",
"uX c #FDD2C2",
"iX c #F7D9C6",
"pX c #FDCCC6",
"aX c #FDE6C8",
"sX c #FDF2CD",
"dX c #FFFBDA",
"fX c #FFF8D4",
"gX c #FEEDD9",
"hX c gray93",
"jX c #F9EEEB",
"kX c #FFFCE5",
"lX c #FAF3EB",
"zX c #FFFDED",
"xX c #F6F5EB",
"cX c #F5EDF3",
"vX c #F4F4F4",
"bX c #FBF5F3",
"nX c #F4FBF5",
"mX c #FDFBF5",
"MX c #FEF6FD",
"NX c #F5FDFE",
"BX c #FEFEFE",
"VX c #F7F7F9",
"CX c #EEFBF4",
/* pixels */
"BXBXBXBXBXBXBXBXBXBXBXBXBXBXBXBXBXBXBXmXBXBXBXBXBXBXVXBXBXBXNXNXBXNXBXBXMXBXBXNXBXBXBXmXBXmXmXBXBXBXBXBXBXBXBXBXBXBXBXBXBXBXBXBX",
"BXBXBXBXBXBXBXBXBXBXBXBXBXBXBXBXBXBXBXBXBXBXBXBXBXBXBXBXNXBXnXBXBXBXMXBXBXBXMXBXBXbXBXBXmXbXBXxXBXBXBXBXBXBXBXBXBXBXBXBXBXBXBXBX",
"BXBXBXBXBXBXBXBXBXBXBXBXBXBXBXBXBXBXBXBXBXBXBXBXBXBXBXBXBXMXBXBXBXBXBXVXBXBXBXBXBXBXBXnXBXBXBXBXBXBXBXBXBXBXBXBXBXBXBXBXBXBXBXBX",
"BXBXBXBXBXBXBXBXBXBXBXBXBXBXBXBXBXBXBXBXBXBXBXBXMXBXbXBXMXBXBXBXVXBXBXBXBXMXbXBXBXBXBXBXnXmXmXBXBXBXBXBXBXBXBXBXBXBXBXBXBXBXBXBX",
"BXBXBXBXBXBXBXBXBXBXBXBXBXBXBXBXBXBXBXBXBXBXBXBXBXbXc u BXBXBXmXBXMXBXBXv z v g * c , g BXBXmXBXBXBXBXBXBXBXBXBXBXBXBXBXBXBXBXBX",
"BXBXBXBXBXBXBXBXBXBXBXBXBXBXBXBXBXBXBXBXBXBXBXMXBXbXz c MXBXBXMXBXmXmXlXi u u u C B < z mXBXBXmXBXBXBXBXBXBXBXBXBXBXBXBXBXBXBXBX",
"BXBXBXBXBXBXBXBXBXBXBXBXBXBXBXBXBXBXBXBXBXBXBXBXv v ` D u , BXBXy = i n ` -.;.-.` X.* + BXnXVXBXBXBXBXBXBXBXBXBXBXBXBXBXBXBXBXBX",
"BXBXBXBXBXBXBXBXBXBXBXBXBXBXBXBXBXBXBXBXBXBXBXBXu x -.#.v e MXBXy r y h *.,.;.=.-.#.=   BXmXBXBXBXBXBXBXBXBXBXBXBXBXBXBXBXBXBXBX",
"BXBXBXBXBXBXBXBXBXBXBXBXBXVXBXBXBXBXBXBXBXmXMXBXe i D D ;.-., e ! ! | =.*.-.( _ . . BXmXBXBXmXBXBXBXBXBXBXBXBXBXBXBXBXBXBXBXBXBX",
"BXBXBXBXBXBXBXBXBXVXBXVXBXBXVXBXBXBXmXmXBXMXmXBXi s ( R *.*.p m ( )  .=.[ *.R ) @ $ jXBXbXBXmXBXBXVXBXBXVXBXVXBXBXBXBXBXBXBXBXBX",
"BXBXBXBXBXBXBXBXBXBXBXBXBXVXBXBXBXbXBXMXt , i i ( C s p ! _ 7 7  . .,.| j a @ . r e i y BXmXBXBXBXBXVXBXBXBXBXBXBXBXBXBXBXBXBXBX",
"BXBXBXBXBXBXBXBXBXBXVXBXBXBXBXVXBXmXlXmXp i s r ) x y r N ~ a 9  . .:.{ j r # # s i r p bXjXmXmXmXBXBXBXBXVXBXBXBXBXBXBXBXBXBXBX",
"BXBXBXBXBXBXBXBXBXBXVXBXBXVXBXBXz u i y V R ~ R *.>.,.*.] ~ Y ] ~ T E / [ o.[ [ m ~ R ^ i e i u BXBXVXBXBXBXBXBXBXBXBXBXBXBXBXBX",
"BXBXBXBXBXBXBXBXVXBXBXBXBXBXvXBXt i r i N R R ~  .:.,.| Q K k Y / ~ E ]  .>.:.:.~ R ) m h y t t BXhXBXBXBXBXBXVXBXBXBXBXBXBXBXBX",
"BXBXBXBXBXBXBXBXBXVXBXBXBXhX<   v y C R ) _ *.[ :.o.o.:.>.,.,.o...{ [ o.o.o.,.>. .*.! ( Y h n t   < vXBXBXVXVXBXBXBXBXBXBXBXBXBX",
"BXBXBXBXBXBXBXBXBXBXBXBXmXBX  . y h N R R ~ [ o.o.o.o.>.o...>.:.,.,.:.>.>. .o. .>.| ) W ! W s y .   BXVXBXBXBXBXBXBXBXBXBXBXBXBX",
"BXBXBXBXBXBXBXBXBXBXBXBX  $ M D Z ( ( ^ . # 7 9 K ~  . . .=. .:.:.:.:.=. . .~ N 9 ; $ . ( ! R W ( M O   BXBXBXBXBXBXBXBXBXBXBXBX",
"BXBXBXBXBXBXBXBXBXBXbXBX. * M V D V R N # % r a ] Q .. .:.|  .*.:.[ [ =.| | W ~ g 9 % % N ! R ! V M * . BXVXBXVXBXBXBXBXBXBXBXBX",
"BXBXBXBXBXBXBXBXBXVXBXBXvXlXBXmX. . t n m h W Y R Y { E Q ^ ] ! R ] ~ ~ W { T T K R j m h e   . mXBXbXxXBXBXBXBXBXBXBXBXBXBXmXBX",
"BXBXBXBXBXBXBXBXBXBXVXbXBXmXmXjX. @ e i ! W W R ) m E E / Q Y K k Y Q ] E Q T } E E Y ! y t $   jXmXmXBXbXcXBXBXBXBXBXBXBXBXmXBX",
"BXBXBXBXBXBXBXBXBXBXBXmXmXmX  $ Z Z N C ^ ( R ) ) R E E Q T d q a a W T E E E } } } R ( M B Z A $ . mXmXBXBXBXBXBXBXBXBXBXBXBXmX",
"BXBXBXBXBXBXBXBXVXBXVXBXmXBX. . ! ^ ! ! ) ) R R R E U E J J J 6 6 I L K T J T E E E } ) ! ! ^ Z .   BXBXBXbXBXVXBXBXBXBXBXBXBXBX",
"BXBXBXBXBXBXBXBXBXMXBXvXu u ; t ! W W W R C x p } ) E E H w m.}.}.m.w G T T ~ E r s C R ! E ! ! e ; u u vXBXMXBXBXBXBXBXBXBXmXBX",
"BXBXBXBXNXBXBXBXbXBXBXBXu e u g W N ~ ~ ( C x p U ] T U w 5 oX|.OX|.5 w J T ~ N e n m ( ~ ~ Y R y g , g BXmXBXVXBXBXBXBXBXBXmXBX",
"BXBXBXBXBXBXBXNXBXBXBXbX$ . B Z ^ W W W y h R R r q r 2 |.|.;X0X5X6X|.|.q 0 8 9 Y ~ s s T U E Q ^ B . . BXVXBXBXBXBXBXNXBXBXBXBX",
"BXBXBXBXBXBXBXBXBXBXBXBX+ * N ^ W K ~ ~ 9 y Y Y p q q H ).OX1X<X6X6XOXn.5 w q d U E 8 8 ~ Y ~ W ( A * + BXBXBXBXBXBXBXBXBXBXBXmX",
"BXBXBXBXBXBXBXBXBXBX  + v B ` N W Q Y Y # # j ] d 1 iX2X3X3X0X0X9XuX:X1XaXpX).)./ } # 1 k Y W ! V X.B v $   MXBXBXBXBXBXBXBXBXmX",
"BXBXBXBXBXBXBXBXBXBX  . M ' B Z Y L T Q 3 6 k W 3 J iX<XqX;X0X3X1X9XiX0X<X#X}.|.G / 2 3 E / W k B M ' b .   BXBXBXBXBXBXBXBXBXBX",
"BXBXBXBXBXBXBXBXBXBXvXBXmXBXM y j d `.).E d f 9 +Xb.'.+X1XuX4XwX9X1X3X;XOX.XK.}.|.n.L / ).b.j 8 u M BXmXBXvXBXBXBXBXBXBXBXBXmXBX",
"BXBXBXBXBXBXBXBXVXBXBXBXBXlX7 n q 2 ).oX/ J K 3 oX'. Xn.;X1X3X4X0XiX9X3X|.m..X}.n.K.P P ].).d r h , lXBXVXBXBXVXBXBXBXBXBXBXmXBX",
"BXBXBXBXBXBXBXBXBXBXMXmXBXmXbXmXd H ).`.w w b.'.aXdXQ / rX0X4X0X0X3X4X0XI O.fXaX'.M.w w `.).w q mXbXBXmXBXmXBXBXBXBXBXBXBXBXBXBX",
"BXBXBXBXBXBXBXBXMXBXBXBXbXBXmXmXr 8 ].].8 6 '.'.dXgX..P <X4X0X4X4X0X>X0X/ I kXsXM.n.0 4 ).oX4 r mXmXBXBXBXMXBXBXBXBXBXBXBXmXBXBX",
"BXBXBXBXBXBXBXBXBXBXBXBXBXBXBXBXBXBXD D & @ 8XyXlXBX  @ uX6XeXeX>XeX6XpX@   BXlXyX8X# # V D BXBXBXBXBXBXBXBXBXBXBXBXBXBXBXBXBXBX",
"BXBXBXBXBXBXBXBXBXBXBXBXBXBXBXBXmXCXg D & & iXaXlXhX$ # pX6XwXeXeXwX6XpX# $ hXgXiXiX& & D c vXBXBXBXBXBXBXBXBXBXBXBXBXBXBXBXBXBX",
"BXBXBXBXBXBXBXBXBXBXBXBXBXBXBXmXzXzXmXBXb e 3 6 7X7X7XiX5X5XwX,X,XwX0X5XqX7X7X7X6 3 u b BXmXzXkXBXBXBXBXBXBXBXBXBXBXBXBXBXBXBXBX",
"BXBXBXBXBXBXBXBXBXBXBXBXBXBXBXBXzXzXxXnX< c r 6 aXtX:X>X5XpX7X:X:X9X5X5X>X:XtXaX6 r z < CXnXzXmXmXBXBXBXBXBXBXBXBXBXBXBXBXBXBXBX",
"BXBXBXBXBXBXBXBXBXBXBXBXBXBXBXBXzXxXBXBXBXMX# # # 1 K..X<X<XoX X XoX<X6X.XK.# # # # BXBXBXNXlXzXBXBXBXBXBXBXBXBXBXBXBXBXBXBXBXBX",
"BXBXBXBXBXBXBXBXBXBXBXBXBXBXBXBXBXxXBXBXMXMX@ # 1 1 J..X<XuX X).M.).uX<X XJ.1 2 1 # MXMXBXBXvXBXBXBXBXBXBXBXBXBXBXBXBXBXBXBXBXBX",
"BXBXBXBXBXBXBXBXBXBXBXBXBXBXBXBXMXBXNXBX# 1 O.0.p.a.# @ # # L P P L # # # % a.w.0.O.# # BXMXBXNXBXBXBXBXBXBXBXBXBXBXBXBXBXBXBXBX",
"BXBXBXBXBXBXBXBXBXBXBXBXBXBXBXBXNXBXBXbX2 5 9.s.q.+.3 . # 1 L P P L % @ . 3 +.q.s.9.5 1 mXBXBXNXBXBXBXBXBXBXBXBXBXBXBXBXBXBXBXBX",
"BXBXBXBXBXBXBXBXBXVXBXBXvXBXVXBXNXCX  # c.A.e.s.@ . =XXXh.i.n.K.K.J.i.p.$X&X. # p.e.A.c.@   CXNXBXVXBXvXBXBXVXBXBXBXBXBXBXBXBXBX",
"BXBXBXBXBXBXBXBXBXBXBXBXBXBXVXNXNXNX. 2 N.f.w.0.@ @ P.L.j.j. Xn.n.|.j.k.L.P.$ @ 0.w.g.N.2 . mXNXNXVXBXBXBXBXVXBXBXBXBXBXBXBXBXBX",
"BXBXBXBXBXBXBXBXBXBXBXBXBXBXBXBX    x.y.V.N.# @ $X%Xf.f.L.XX_ #.#._ XXI.f.f.=X$X@ # N.V.y.x.    BXBXBXMXBXBXBXBXBXBXBXBXBXBXBXBX",
"BXBXBXBXBXBXBXBXVXBXBXvXBXBXvXVX  $ A.F.D.c.. . $XL.r.r.T.,X#.1.1.#.,XT.r.r.L.%X  . c.D.F.A.$   NXvXBXBXvXBXBXBXBXBXBXBXBXBXBXBX",
"BXBXBXBXBXBXBXBXBXBXBXBXBXBX+ + . # c.Z.2 # kXdXm.C.u.t.Y.&X4.1.3.4.&XL.t.u.c.m.dXkX# 2 Z.c.#     O BXBXBXBXBXBXBXBXBXBXBXBXBXBX",
"BXBXBXBXBXBXBXBXVXBXVXVXBXBX  + @ 1 G.c.1 # kXdXv.N.g.y.Y.+X4.~.~.4.+XY.y.B.N.c.dXkX# 1 s.A.# # .   BXBXVXVXBXVXBXBXBXBXBXBXBXBX",
"BXBXBXBXBXBXBXBXBXBXBXBXBXBXc k n.J.H.H.f w . # S.C.U.U.l.x.4.W.W.4.a.l.U.U.C.S.@ . f f J.A.J.K.M c BXBXBXBXBXBXBXBXBXBXBXBXBXBX",
"BXBXBXBXBXBXBXBXBXBXBXNXBXBXc h  XJ.H.s.I f . # z.l.*XY.v.b.4.!.~.Q.).c.Y.*XC.l.# @ f L s.J.J.K.h c BXBXBXBXBXBXBXBXBXBXBXBXBXBX",
"BXBXBXBXBXBXBXBXBXBXBXBXBXBXc g qX>X8XiXr h @ # k.S.Y.XX. X 2.!.!.2.O $ XXY.S.z.# # h r iX8X>XwXg c BXNXBXBXBXBXBXBXBXBXBXBXBXBX",
"BXBXBXBXBXBXBXBXBXBXVXBXBXvX` g :X0X-XyXV y 1 1 S.S.@X;X  l 1.E.%.2.l   1X@XS.v.1 1 p V yX-XqX:Xg X.hXBXBXVXBXBXBXBXBXBXBXBXBXBX",
"BXBXBXBXBXBXBXBXVXBXBXBXBXBXhXmXk k x V . 1 x.k.T.%XI k ;.@.l : : l @.;.9 I %XT.k.x.1 . V n k L mXhXBXBXBXBXBXnXBXBXBXBXBXBXBXBX",
"BXBXBXBXBXBXBXBXBXBXBXBXBXBXBXBX9 j n n @ # k.S.R.P.I S 3.@.z X X : @.$.b I P.T.S.k.# . x n k 8 BXBXBXBXBXBXBXBXBXBXBXBXBXBXBXBX",
"BXBXBXBXBXBXBXBXBXVXBXVXBXBXBXBXmXmXMXMX# 1 z.f.T.P.+ - 3.6.7.5.z #.Q.3.<   P.R.f.l.2 # MXBXbXmXmXBXBXBXBXVXBXBXBXBXBXBXBXBXBXBX",
"BXBXBXBXBXBXBXBXBXBXBXBXVXBXBXBXxXMXBXMX# 1 l.C.=X$X- o Q.7.7.a.#.V 7.6.  - $XT.C.f.1 @ MXMXBXjXBXBXBXBXBXBXMXBXBXBXBXBXBXBXBXBX",
"BXBXBXBXBXBXBXBXBXBXBXBXVXBXmXBXBXcX> . <.p.k.z.tXsX  o {.(.7.7.R R /.[.    fXtXv.c.p.<.. > cXBXBXBXBXVXBXBXBXBXBXBXBXBXBXBXBXBX",
"BXBXBXBXBXBXBXBXBXBXBXBXBXBXBXBXcXBXX   a.i.x.m.sXkX+   {./.7.d.R C /.[.  - kXsXm.x.i.a.. X BXvXBXBXVXBXBXBXBXBXBXBXBXBXBXBXBXBX",
"BXBXBXBXBXBXBXBXBXBXBXBXBXBXBXBXBXBXVXMX# # # $ . .     _._.b D D v _._.    . . # @ # @ BXMXBXBXBXBXBXBXBXBXBXBXBXBXBXBXBXBXBXBX",
"BXBXBXBXBXBXBXBXBXBXBXBXBXBXBXBXBXNXBXjX% . . + X   = # ^.^.S S S S ^.^.# =   X + . . # jXBXNXBXBXBXBXBXBXBXBXBXBXBXBXBXBXBXBXBX",
"BXBXBXBXBXBXBXBXBXBXBXBXBXBXBXBXmXBXmXMXMXMXMXNXX O ) ]  .X.- o : - X.>.] ) O X BXNXMXMXMXMXmXmXBXBXBXBXBXBXBXBXBXBXBXBXBXBXBXBX",
"BXBXBXBXBXBXBXBXBXBXBXBXBXBXBXBXmXBXBXMXMXBXNXNX: O -. . .Z         Z [ #.*.O : NXNXMXMXMXMXBXmXBXBXBXBXBXBXBXBXBXBXBXBXBXBXBXBX",
"BXBXBXBXBXBXBXBXBXBXBXBXBXBXBXBXBXBXVXMXBXBXNXNXBXhX. & # & mXnXnXmX& # # . cXBXNXNXBXBXMXbXNXBXBXBXBXBXBXBXBXBXBXBXBXBXBXBXBXBX",
"BXBXBXBXBXBXBXBXBXBXBXBXBXBXBXBXNXBXBXBXBXNXNXNXNXBX@ & . . BXmXmXmX& . # & MXBXNXNXNXBXBXBXBXBXBXBXBXBXBXBXBXBXBXBXBXBXBXBXBXBX",
"BXBXBXBXBXBXBXBXBXBXBXBXBXBXBXBXBXBXVXBXBXBXNXNXmXbXBXjXMXBXmXmXmXmXBXBXjXBXnXnXNXnXBXBXBXVXBXNXBXBXBXBXBXBXBXBXBXBXBXBXBXBXBXBX",
"BXBXBXBXBXBXBXBXBXBXBXBXBXBXBXBXBXNXBXVXBXCXBXNXmXxXBXBXBXBXBXmXmXBXMXBXBXmXzXmXBXBXVXBXnXBXBXBXBXBXBXBXBXBXBXBXBXBXBXBXBXBXBXBX"
};
