/* XPM */
static char *tile014[] = {
/* columns rows colors chars-per-pixel */
"64 64 213 2 ",
"   c #040102",
".  c #0C0201",
"X  c #0C0A04",
"o  c #040309",
"O  c #0B0309",
"+  c #080A0A",
"@  c #140100",
"#  c #1A0100",
"$  c #120904",
"%  c #170C08",
"&  c #1D130C",
"*  c #16120E",
"=  c #1C1313",
"-  c #1C1E15",
";  c #1F1B1A",
":  c #210100",
">  c #2B0000",
",  c #2E0D02",
"<  c #240D0A",
"1  c #24110C",
"2  c #2C140C",
"3  c #2C1D0B",
"4  c #261007",
"5  c #38170A",
"6  c #250D15",
"7  c #241413",
"8  c #2B1512",
"9  c #221A15",
"0  c #2C1A15",
"q  c #24151C",
"w  c #2B141D",
"e  c #251B1A",
"r  c #2A1C1C",
"t  c #321B15",
"y  c #311D1B",
"u  c #391B1D",
"i  c #3C1A15",
"p  c #22200B",
"a  c #2A201E",
"s  c #26211E",
"d  c #332515",
"f  c #35211B",
"g  c #3B241E",
"h  c #332B18",
"j  c #1F1D20",
"k  c #221E21",
"l  c #2E1A22",
"z  c #2B1520",
"x  c #301622",
"c  c #252424",
"v  c #2D2221",
"b  c #322323",
"n  c #3C2423",
"m  c #3E2923",
"M  c #312D2A",
"N  c #3E2C2B",
"B  c #382528",
"V  c #38302E",
"C  c #3A3231",
"Z  c #421C18",
"A  c #42241D",
"S  c #4A2513",
"D  c #4C371C",
"F  c #442D26",
"G  c #452E29",
"H  c #482F2A",
"J  c #4B2D25",
"K  c #45312C",
"L  c #4A322C",
"P  c #493827",
"I  c #533125",
"U  c #482F32",
"Y  c #453432",
"T  c #4C3532",
"R  c #4D3934",
"E  c #483D3C",
"W  c #523A33",
"Q  c #543A37",
"!  c #623B2A",
"~  c #584036",
"^  c #52413D",
"/  c #5C443C",
"(  c #61493F",
")  c #434241",
"_  c #4F4544",
"`  c #554342",
"'  c #5D4641",
"]  c #5D4944",
"[  c #544949",
"{  c #5A4C4A",
"}  c #554A46",
"|  c #514F50",
" . c #624A42",
".. c #644D49",
"X. c #67514C",
"o. c #7E5E49",
"O. c #625451",
"+. c #8B5101",
"@. c #89570A",
"#. c #9D5F08",
"$. c #86621B",
"%. c #996E1F",
"&. c #A86817",
"*. c #925F2B",
"=. c #9B6E21",
"-. c #836E35",
";. c #956A38",
":. c #83783D",
">. c #A46926",
",. c #A87323",
"<. c #AB7538",
"1. c #CC7D33",
"2. c #876348",
"3. c #966E4F",
"4. c #8A704A",
"5. c #BD7B42",
"6. c #A57A50",
"7. c #A97951",
"8. c #AD7A48",
"9. c #C97E45",
"0. c #BA8439",
"q. c #D8821E",
"w. c #CB872B",
"e. c #CD8C2E",
"r. c #C98827",
"t. c #D38C2C",
"y. c #D18927",
"u. c #DF9126",
"i. c #CC8437",
"p. c #CA8C33",
"a. c #CC833B",
"s. c #CA8B3B",
"d. c #C58836",
"f. c #D48B33",
"g. c #D58B3E",
"h. c #D7833D",
"j. c #C3953A",
"k. c #CA903E",
"l. c #D9993C",
"z. c #E38D38",
"x. c #9B8641",
"c. c #AC874D",
"v. c #B4854C",
"b. c #B38B45",
"n. c #BA9245",
"m. c #A78C55",
"M. c #B78B59",
"N. c #BD9153",
"B. c #B7935A",
"V. c #AD886E",
"C. c #B68B64",
"Z. c #B9946A",
"A. c #B9937C",
"S. c #C48E41",
"D. c #CD8B43",
"F. c #CB8C4A",
"G. c #C4884A",
"H. c #D58A47",
"J. c #C29246",
"K. c #CA934C",
"L. c #C6984A",
"P. c #D6934F",
"I. c #C8955A",
"U. c #D89D53",
"Y. c #CA8C51",
"T. c #E5AF54",
"R. c #EDBB5D",
"E. c #F3BC5D",
"W. c #C59562",
"Q. c #C58F60",
"!. c #C8A66A",
"~. c #CDA17B",
"^. c #DEB474",
"/. c #D8B478",
"(. c #D9B16E",
"). c #EBBA62",
"_. c #E6BB6C",
"`. c #E3B978",
"'. c #F6C56A",
"]. c #F6C779",
"[. c #A8938B",
"{. c #BA9E92",
"}. c #B49A84",
"|. c #BFA495",
" X c #C49F84",
".X c #D0AF86",
"XX c #DBA991",
"oX c #DCC78A",
"OX c #D9C991",
"+X c #F4C889",
"@X c #E7D0AE",
"#X c #FFD6AA",
"$X c #EBCABC",
"%X c #F5CEBA",
"&X c #F8D2B6",
"*X c #FFE8BE",
"=X c #FFEBC5",
"-X c #FFEFDD",
";X c #FEF2DC",
":X c #E9EAEB",
">X c #FFFBED",
",X c #FAF5E8",
"<X c #FFEEFD",
"1X c #EDFCFD",
"2X c #F5F4F4",
"3X c #FCF4F3",
"4X c #FDFBF5",
"5X c #F5F6FA",
"6X c #FFF5FD",
"7X c #F5FDFE",
"8X c #FFFEFE",
"9X c #F5FAF4",
"0X c #F4ECEA",
/* pixels */
"8X8X8X8X8X8X8X8X8X8X8X8X8X8X8X8X8X8X8X4X8X8X3X8X8X5X8X8X4X8X8X7X8X8X8X8X8X8X8X8X8X4X8X4X8X8X8X8X8X8X8X8X8X8X8X8X8X8X8X8X8X8X8X8X",
"8X8X8X8X8X8X8X8X8X8X8X8X8X8X8X8X8X4X9X8X4X8X8X6X8X8X8X6X8X7X7X8X8X8X8X5X8X5X4X8X8X8X8X8X8X4X4X8X8X8X8X8X8X8X8X8X8X8X8X8X8X8X8X8X",
"8X8X8X8X8X8X8X8X8X8X8X8X8X8X8X8X8X4X4X8X8X8X8X8X8X8X8X8X8X8X8X8X8X8X8X8X8X4X8X5X8X8X8X8X8X8X4X8X8X8X8X8X8X8X8X8X8X8X8X8X8X8X8X8X",
"8X8X8X8X8X8X8X8X8X8X8X8X8X8X8X8X8X8X8X8X8X4X8X8X8X8X4X8X8X8X8X8X8X8X6X4X8X4X8X8X8X8X8X8X8X8X8X8X8X8X8X8X8X8X8X8X8X8X8X8X8X8X8X8X",
"8X8X8X8X8X8X8X8X8X8X8X8X8X8X8X8X8X8X8X4X8X8X8X8X8X8X4X8X8X8X8X8X8X2X8X8X5X8X4X8X8X8X8X8X8X8X8X8X8X8X8X8X8X8X8X8X8X8X8X8X8X8X8X8X",
"8X8X8X8X8X8X8X8X8X8X8X8X8X8X8X8X4X8X2X8X2X8X4X8X6X3X8X2X4X3X8X8X4X8X8X5X8X2X8X6X8X8X8X8X8X8X8X8X8X8X8X8X8X8X8X8X8X8X8X8X8X8X8X8X",
"8X8X8X8X8X8X8X8X8X8X8X8X8X8X8X8X8X8X8X0XM 9 e v v e e M 0X8X4X8X8X2X5X8X= V 8X8X8X8X8X8X8X8X7X8X8X8X8X8X8X8X8X8X8X8X8X8X8X8X8X8X",
"8X8X8X8X8X8X8X8X8X8X8X8X8X8X8X8X8X8X8X8X* = e r v e 7 * 8X4X6X4X4X6X8X8Xc ; 8X6X8X8X8X8X8X8X8X8X8X8X8X8X8X8X8X8X8X8X8X8X8X8X8X8X",
"8X8X8X8X8X8X8X8X8X8X8X8X8X8X8X8X8X4X8X8X. . _ { [ { [ O.& 7 0 e 4X3X7 v E _ l e 8X4X8X8X8X8X6X8X8X8X8X8X8X8X8X8X8X8X8X8X8X8X8X8X",
"8X8X8X8X8X8X8X8X8X8X8X8X8X8X8X8X4X4X9X3X% . E E { } ` ` r 0 8 r 8X3Xv v _ [ e k 8X6X8X6X8X8X8X8X8X8X8X8X8X8X8X8X8X8X8X8X8X8X8X8X",
"8X8X8X8X8X8X8X8X8X8X8X8X8X8X8X8X8X8X4X8X4X8X. $ Y Y ' ] ] ] Y N 0 a _ ^ Y C r r 6X4X8X4X3X4X8X8X8X8X8X8X8X8X8X8X8X8X8X8X8X8X8X8X",
"8X8X8X8X8X8X8X8X8X8X8X8X8X8X8X8X4X8X4X3X8X4X. @ Y G { ^ ' ' T T & a ^ } Y T 8 b 4X3X6X8X4X8X8X8X8X8X8X8X8X8X8X8X8X8X8X8X8X8X8X8X",
"8X8X8X8X8X8X8X8X8X8X8X8X8X8X8X8X8X8X4X8X7 & 0 7 @ @ 0 t /  ./ / @ $ K m 0 8 f Y 8 b e 7 8X4X2X8X8X8X8X8X8X8X8X8X8X8X8X8X8X8X8X8X",
"8X8X8X8X8X8X8X8X8X8X8X8X8X8X8X8X8X0X8X,Xe a 7 y . @ 8 8 /  .' ..@ @ y R 8 y Q F y y l r 4X8X8X8X8X8X8X8X8X8X8X8X8X8X8X8X8X8X8X8X",
"8X8X8X8X8X8X8X8X8X8X8X8X8X8X8X8X- c * e C B Y Y X.' T F W L F F F P P G H L L ..U G N B v r - ; 8X8X8X8X8X8X8X8X8X8X8X8X8X8X8X8X",
"8X8X8X8X8X8X8X8X8X8X8X8X8X8X8X8Xs 9 a = Y Y B T ' / L J J H J F L H F L F H X.Q T G U N b e r e 8X8X8X8X8X8X8X8X8X8X8X8X8X8X8X8X",
"8X8X8X8X8X8X8X8X8X8X4X8X8X8X    0 7 Y G N N ..{ '  . ./ P J D H P F J W /  . .'  ...N G K Y < r     8X8X8X8X8X8X8X8X8X8X8X8X8X8X",
"8X8X8X8X8X8X8X8X8X9X8X4X8X9X  $ b 0 G R G R ' Q ' ' ( Q P H J J D J F P ~ /  ./ ` ' R G Y G y r $ . 9X8X4X8X4X8X8X8X7X8X8X8X8X8X",
"8X8X8X8X8X8X8X8X8X8X4X4X  X M V N G G G @ @ < u  . .( ( ( ( ( (  .( ( ( (  . .' u : @ @ G K G N V M X   4X4X8X8X8X8X8X8X8X8X8X8X",
"8X8X8X8X8X8X8X8X8X4X8X9XX   M C N Y T N @ @ < f ' / / / ( ( ( / / / / ( ~ / / ( u < @ @ N T Y N C M   X 9X8X9X8X8X4X8X8X8X8X8X8X",
"8X8X8X8X8X8X8X8X8X8X4X8X4X3X8X4X@ @ 8 y G G T F K L L W ~ / ( ( ( ( ( ~ W L L L F T G G y 1 @ @ 4X8X3X4X8X4X4X8X8X8X8X8X8X8X8X8X",
"8X8X8X8X8X8X8X8X9X8X4X8X8X4X4X3X. . < 8 H G L F G F F L ~ (  .( ( ( ( ~ T F F F G L G K 8 1 @ . 4X4X4X4X8X4X8X9X8X8X8X8X8X8X8X8X",
"8X8X8X8X8X8X7X8X8X4X8X4X3X4X. . N L T K G F H W L P H J J F F A A F J F J G L L W L F G K R K N .   3X3X4X8X4X8X8X8X8X8X8X8X8X8X",
"8X8X8X8X8X8X8X8X4X8X8X8X8X4X  . N L n K G T F G F F H H L L L H H H L L L F F G K n T F L m K N . . 8X8X8X4X8X8X8X8X8X8X8X8X8X8X",
"8X8X8X8X8X8X8X8X8X8X4X4Xc 7 q 7 Y G K G K L F K F L J G H J H H H H F J K H G F G F L L G K G Y 7 e = s 4X4X8X8X8X8X8X8X7X8X8X8X",
"8X8X8X8X8X8X8X8X4X8X4X8X9 e e e K K m F L F L L G K H L H H F H H F F J L H G G T L G L F m P K r e e q 8X4X4X4X4X8X8X8X8X8X8X8X",
"8X8X8X8X8X8X8X8X4X8X4X8X  $ b Y N K R K L L g F G G G H H H H G F F L L K J K H F g L L K R F N Y b %   8X4X8X8X8X8X8X8X8X8X8X8X",
"8X8X8X8X8X8X4X8X8X8X4X4XO $ b N P m m T K L R F L L F H H H H H H H L L G F L L F R K L R m m K C b $ . 4X4X8X8X8X8X8X8X8X8X8X8X",
"8X8X8X8X8X8X8X8X4X4X. $ = a r b K F g 2 2 t g Q L L H H G H H H U H H H H H L L W n t 2 1 g H K b e r = $ . 8X4X8X8X8X8X8X8X8X8X",
"8X8X8X8X8X8X8X8X8X8X  . r = r 7 N g 1 2 t 0 m m F F G G H H L U H H G H H F F F g m t t 2 3 g m 1 l = r .   8X8X8X8X8X8X8X8X8X8X",
"8X8X8X8X8X7X8X8X8X8X8X6X8X3Xr y $ 4 [.[.F 2 g t t m G H U G H H T H G H G G g t t g 3 m [.[.4 # l v 4X8X3X8X8X8X8X8X8X8X8X8X8X8X",
"7X8X8X8X8X8X8X8X4X8X4X4X8X3Xb q . . |.|.2 2 2 8 < 0 F H H G U U U H G H T G 0 < 8 8 2 2 |.|.. . r l 3X4X4X4X8X4X8X8X8X8X7X8X8X8X",
"8X8X8X8X8X8X8X8X8X8X8X8X8X8X8X8Xo X  XA.! J e ; k q 8 8 8 8 w w z w t 8 8 8 q k ; e J ! A. X. o 8X8X8X8X8X8X8X8X8X8X8X8X8X8X8X8X",
"8X8X8X8X8X8X8X8X8X8X8X8X8X8X8X8Xo   {.}.S g l j j 9 r t 2 8 w e q q 8 2 8 8 e k k v A S  X}.    8X8X8X8X8X8X8X8X8X8X8X8X8X8X8X8X",
"8X8X8X8X8X8X8X8X8X8X8X8X8X8X8X8X8X,XD D 3 t e k e e 0 8 0 0 e s e 0 8 3 0 0 e e k e f 3 D P >X8X8X8X8X8X8X8X8X8X8X8X8X8X8X8X8X8X",
"8X8X8X8X8X8X8X8X8X8X8X8X8X8X8X8X>X4Xh ~ 1 9 ; ; 7 7 7 8 2 9 9 - - 9 9 9 8 8 7 7 9 ; e & R h >X>X8X8X8X8X8X8X8X8X8X8X8X8X8X8X8X8X",
"8X8X8X8X8X8X8X8X8X8X8X8X8X8X8X8X4X>X8X4X5X7X  O l z x w e ; ; - - ; e k z w x x O   5X5X6X8X3X4X8X8X8X8X8X8X8X8X8X8X8X8X8X8X8X8X",
"8X8X8X8X8X8X8X8X8X8X8X8X8X8X8X8X3X8X8X8X8X8X  O z z 6 w q e ; - - ; k z w w z z O O 8X8X8X8X8X6X8X8X8X8X8X8X8X8X8X8X8X8X8X8X8X8X",
"8X8X8X8X8X8X8X8X8X8X8X8X8X8X8X8X6X8X6X6XX   . . . @ @ # 1 q - p - ; q 1 # @ @ . .     X 6X6X8X6X8X8X8X8X8X8X8X8X8X8X8X8X8X8X8X8X",
"8X8X8X8X8X8X8X8X8X8X8X8X8X8X8X8X6X8X8X4X. . @ . . . @ : , 5 p 9 p p 8 , : @ . @ @ @ .   4X8X6X8X8X8X8X8X8X8X8X8X8X8X8X8X8X8X8X8X",
"8X8X8X8X8X8X8X8X8X2X8X8X2X8X5X8X8X2X@ @ m.B.o.:.. . @X.X6.3.@ . . @ 3.6..X@X. . 4.-.B.m.@ @ 3X8X8X5X8X2X8X8X2X8X8X8X8X8X8X8X8X8X",
"8X8X8X8X8X8X8X8X8X8X8X8X8X8X4X5X5X4X# , N.b.x.:.  X oX/.b.;.: @ @ : ;.b.^.oX$ . :.x.n.n., @ 4X9X4X4X8X8X8X8X8X8X8X8X8X8X8X8X8X8X",
"8X8X8X8X8X8X8X8X8X8X8X8X8X8X8X8Xo . C.<.L.b.X X OXoX$.$.+X^.M.I.I.v.^.+X$.$.oXOX. @ b.L.<.C.    8X8X7X8X8X8X8X8X8X8X8X8X8X8X8X8X",
"8X8X8X8X8X8X8X8X5X8X8X2X8X8X2X5X  @ W.P.K.B.. X oX!.=.=.`.+XY.F.D.K.+X^.%.%.!.oX$ . B.L.P.I.@   5X2X4X8X2X8X8X8X8X8X8X8X8X8X8X8X",
"8X8X8X8X8X8X8X8X8X8X8X8X8X8X+ . . # 5.H.> # 4X,X!.L.@.@.oX`.D.1.1.D.^.`.@.@.I.!.,X>X# > H.5.# .   + 8X8X8X8X8X8X8X8X8X8X8X8X8X8X",
"8X8X8X8X8X8X8X8X5X8X4X5X8X8X  X @ : F.9.> # ,X>XM.U.+.,._._.f.z.z.g._._.,.+.U.M.,X>X# > 9.F.: @ X   8X8X5X8X8X5X8X8X8X8X8X8X8X8X",
"8X8X8X8X8X8X8X8X8X8X8X8X8X8Xc h m.J.i.F.5 B   # v.k.'.T.j.j.y.q.y.y.j.n.T.].g.v.#   B Z Y.s.J.m.h c 8X4X8X8X8X8X8X8X8X8X8X8X8X8X",
"8X8X8X8X8X8X8X8X8X8X8X4X8X8Xc d M.j.K.8.I r . @ I.k.E.R.j.d.y.u.u.y.p.j.R.E.k.I.. . z I 8.F.S.B.h c 8X8X6X8X8X8X8X8X8X8X8X8X8X8X",
"8X8X8X8X8X8X8X8X8X8X8X8X8X8Xj d ~.Y.#X&Xi B . . B.J.).'.d.r.e.r.r.e.e.d.'.).F.B.@ . N i %X#XQ.~.d c 8X8X8X8X8X8X8X8X8X8X8X8X8X8X",
"8X8X8X8X8X8X8X8X8X8X2X8X8X2X) r A.XX%X$XH , @ @ c.J.R.E.t.f.w.e.e.w.f.t.E.).J.v.@ @ < J $X$XXX~.0 ) 2X8X8X5X8X8X8X8X8X8X8X8X8X8X",
"8X8X8X8X8X8X8X8X4X8X8X8X4X8X:X8XF Z Z i @ # Z.B.+X).p.t.t.f.g.h.D.g.f.t.t.p.).+XB.V.: @ Z Z Z A 8X:X8X5X8X8X8X2X8X8X8X8X8X8X8X8X",
"8X8X8X8X8X8X8X8X8X8X8X8X8X8X8X8Xl n x u # # Z.N.'.'.l.r.w.f.i.H.H.i.f.r.y.l.'._.N.W.# # Z x l l 8X8X8X8X8X8X8X8X8X8X8X8X8X8X8X8X",
"8X8X8X8X8X8X8X8X8X4X4X7X8X8X8X8X8X6X6X4X@ # C.0.'.(.#.&.i.i.g.H.h.H.i.p.&.#.E._.b.I.@ @ 6X6X8X8X8X8X8X8X4X8X8X8X8X8X8X8X8X8X8X8X",
"8X8X8X8X8X8X8X8X8X8X8X8X8X8X5X8X7X8X6X4X@ # W.W.+X].>.&.d.s.1.h.1.h.d.d.&.>.].+XW.W.# . 4X6X8X7X8X6X8X8X8X8X5X8X8X8X8X8X8X8X8X8X",
"8X8X8X8X8X8X8X8X8X8X8X8X5X8X8X8X8X:XO @ o.3.M.7.=X*X*.*.d.a.H.H.H.D.i.d.*.*.*X=X6.V.3.o.@ $ :X8X8X8X8X5X8X8X8X8X8X8X8X8X8X8X8X8X",
"8X8X8X8X8X8X8X8X8X8X8X8X8X8X8X8X5X8X. O 2.2.V.A.;X;X-.;.v.H.a.D.a.D.F.G.;.-.;X-XA.V.2.2..   7X7X8X8X7X8X8X8X8X8X8X8X8X8X8X8X8X8X",
"8X8X8X8X8X8X8X8X8X8X8X8X8X8X8X8X8X4X>X>X. @ . @ # @ . @ # > K.s.D.K.: # @ . @ @ @ . @ . >X>X4X8X8X8X8X8X8X8X8X8X8X8X8X8X8X8X8X8X",
"8X8X8X8X8X8X8X8X8X8X8X8X8X8X8X8X8X3X>X,X# . X . @ @ X . @ # B.I.I.M.# @ . X . @ X . . $ ;X>X3X8X8X8X8X8X8X8X8X8X8X8X8X8X8X8X8X8X",
"8X8X8X8X8X8X8X8X8X8X8X8X8X8X8X8X8X8X>X>X>X>X4X8X  + ) [ Q I # # # # I W _ ^ +   8X>X>X>X>X>X4X8X8X8X8X8X8X8X8X8X8X8X8X8X8X8X8X8X",
"8X8X8X8X8X8X8X8X8X8X8X8X8X8X8X8X6X8X8X3X4X4X8X8X+ o [ [ ` T @ @ @ @ T ' | | o + 8X8X3X>X4X8X8X6X8X8X8X8X8X8X8X8X8X8X8X8X8X8X8X8X",
"8X8X8X8X8X8X8X8X8X8X8X8X8X8X8X8X8X8X5X7X8X8X7X8X9X8X  . o   ,X4X4X2X  o o   8X4X8X7X8X8X4X5X6X8X8X8X8X8X8X8X8X8X8X8X8X8X8X8X8X8X",
"8X8X8X8X8X8X8X8X8X8X8X8X8X8X8X8X8X7X8X6X7X1X8X8X8X3X  O     8X8X8X8Xo   O   3X8X8X8X1X7X8X8X7X8X8X8X8X8X8X8X8X8X8X8X8X8X8X8X8X8X",
"8X8X8X8X8X8X8X8X8X8X8X8X8X8X8X8X8X8X7X7X7X7X6X8X8X6X6X6X8X9X7X1X1X7X9X8X6X6X4X6X8X6X7X7X7X7X8X8X8X8X8X8X8X8X8X8X8X8X8X8X8X8X8X8X",
"8X8X8X8X8X8X8X8X8X8X8X8X8X8X8X8X8X7X7X1X7X5X8X6X<X6X6X3X4X9X7X1X7X7X4X4X3X6X<X6X6X8X5X8X1X7X7X8X8X8X8X8X8X8X8X8X8X8X8X8X8X8X8X8X"
};
