/* XPM */
static char *tile010[] = {
/* columns rows colors chars-per-pixel */
"64 64 228 2 ",
"   c #040102",
".  c #0C0202",
"X  c #0D0804",
"o  c #01030C",
"O  c #090309",
"+  c gray3",
"@  c #140200",
"#  c #1B0100",
"$  c #140A02",
"%  c #1C0A03",
"&  c #140B0B",
"*  c #190C0C",
"=  c #1A110E",
"-  c #16110E",
";  c #010112",
":  c #02021A",
">  c #060814",
",  c #1D1314",
"<  c #18161B",
"1  c #220200",
"2  c #2A0000",
"3  c #230A00",
"4  c #290B00",
"5  c #230E0B",
"6  c #370000",
"7  c #2C1201",
"8  c #25120C",
"9  c #28150D",
"0  c #261207",
"q  c #371A09",
"w  c #231413",
"e  c #2A1712",
"r  c #231916",
"t  c #2C1A15",
"y  c #241C1A",
"u  c #2B1D1B",
"i  c #321C15",
"p  c #331E18",
"a  c #3A1E10",
"s  c #2E211E",
"d  c #35221C",
"f  c #3A241D",
"g  c #3B291B",
"h  c #3B2314",
"j  c #372200",
"k  c #100D2D",
"l  c #2F1F20",
"z  c #2E2323",
"x  c #2E2828",
"c  c #332523",
"v  c #3B2621",
"b  c #352924",
"n  c #3D2A24",
"m  c #352B2A",
"M  c #3B2C2A",
"N  c #302728",
"B  c #3C312E",
"V  c #3E3535",
"C  c #372A3B",
"Z  c #541C00",
"A  c #452A05",
"S  c #43261E",
"D  c #422A1D",
"F  c #472618",
"G  c #512F08",
"H  c #432C25",
"J  c #492E25",
"K  c #432E29",
"L  c #482E28",
"P  c #4B3125",
"I  c #45312B",
"U  c #4A332C",
"Y  c #49382E",
"T  c #563A26",
"R  c #51342C",
"E  c #533928",
"W  c #443433",
"Q  c #4B3632",
"!  c #4D3933",
"~  c #453C3A",
"^  c #483C37",
"/  c #533731",
"(  c #553B35",
")  c #563E39",
"_  c #62352F",
"`  c #693214",
"'  c #4C423A",
"]  c #54423D",
"[  c #5D433D",
"{  c #594635",
"}  c #59432E",
"|  c #65453A",
" . c #724239",
".. c #7A563E",
"X. c #373752",
"o. c #35384B",
"O. c #453C56",
"+. c #45374E",
"@. c #3B4053",
"#. c #5C4742",
"$. c #564845",
"%. c #5D4B43",
"&. c #574846",
"*. c #434359",
"=. c #614641",
"-. c #644B44",
";. c #6A4C44",
":. c #69524A",
">. c #7A5B47",
",. c #6C5753",
"<. c #775C56",
"1. c #7E6745",
"2. c #444160",
"3. c #58566E",
"4. c #5B5B74",
"5. c #5A4C65",
"6. c #6B5767",
"7. c #625976",
"8. c #736673",
"9. c #88613A",
"0. c #855D48",
"q. c #86694D",
"w. c #906A4B",
"e. c #A97F4B",
"r. c #937D73",
"t. c #BA863B",
"y. c #C1943F",
"u. c #9E8A4B",
"i. c #A8874A",
"p. c #B9894C",
"a. c #BA9449",
"s. c #AA8958",
"d. c #BB8C5E",
"f. c #B78657",
"g. c #AB965C",
"h. c #B3935B",
"j. c #BB935A",
"k. c #9D8B63",
"l. c #AB8B62",
"z. c #A88869",
"x. c #B88F65",
"c. c #A89567",
"v. c #B79368",
"b. c #A88A77",
"n. c #AA9573",
"m. c #B69279",
"M. c #B38D76",
"N. c #C98F58",
"B. c #C49851",
"V. c #C9994E",
"C. c #DBB65D",
"Z. c #C79D64",
"A. c #C79470",
"S. c #D8BC79",
"D. c #CDA86A",
"F. c #E1BA79",
"G. c #E5BD65",
"H. c #E1C07D",
"J. c #696985",
"K. c #8B7B88",
"L. c #9D8D97",
"P. c #A99383",
"I. c #BE9E8A",
"U. c #B69983",
"Y. c #AA9697",
"T. c #B99F92",
"R. c #BBA595",
"E. c #B5A1A0",
"W. c #C09D87",
"Q. c #CAA489",
"!. c #DEBE84",
"~. c #D7B987",
"^. c #C7A993",
"/. c #D3BA9A",
"(. c #CEBE9C",
"). c #E4BE86",
"_. c #C2A9A3",
"`. c #DAC48B",
"'. c #D6C389",
"]. c #D8C496",
"[. c #E9C589",
"{. c #E4C896",
"}. c #F3D29C",
"|. c #D6C8A5",
" X c #DAD4BC",
".X c #F4CAA9",
"XX c #FFD1AD",
"oX c #E6CCBD",
"OX c #EBCDBC",
"+X c #E7C7B4",
"@X c #F6CCB2",
"#X c #F6CDB7",
"$X c #EED2BD",
"%X c #E3D0BF",
"&X c #FED4B1",
"*X c #FBD6BC",
"=X c #F7D1BA",
"-X c #EBC3A9",
";X c #DFD7C2",
":X c #EBCFC4",
">X c #EBD2C2",
",X c #EDD2CB",
"<X c #F2D3C3",
"1X c #F6DAC4",
"2X c #F1D4C9",
"3X c #FBDCC9",
"4X c #F5D7C7",
"5X c #F9DFD0",
"6X c #EFD3CC",
"7X c #FFE3CF",
"8X c #FFE8D6",
"9X c #FFF9DC",
"0X c #FAEDED",
"qX c #F3ECE8",
"wX c #FFF3E1",
"eX c #FFFBE5",
"rX c #F4F3EC",
"tX c #FDF5ED",
"yX c #FFFCEC",
"uX c #F5F4F5",
"iX c #FCF5F4",
"pX c #FDFCF5",
"aX c #F5F4FC",
"sX c #FCF6FB",
"dX c #F5FCFD",
"fX c #FFFEFE",
"gX c #F7FCF6",
"hX c #EDECF1",
/* pixels */
"fXfXfXpXfXfXfXfXfXfXfXfXfXfXfXfXfXfXfXfXfXfXsXfXfXfXsXfXfXfXfXfXfXfXdXdXpXfXfXfXfXfXfXfXfXfXdXfXfXfXfXfXfXfXfXfXfXfXfXfXfXfXfXfX",
"fXfXfXfXfXfXfXfXfXfXfXfXsXfXfXfXgXfXfXpXiXfXfXsXfXsXfXsXfXdXfXgXfXsXfXfXdXfXfXdXfXfXfXfXfXfXfXfXfXfXfXfXfXfXfXfXfXfXfXfXfXfXfXfX",
"fXpXfXpXfXfXfXfXfXfXfXfXfXsXfXfXfXsXfXfXfXsXfXsXsXfXsXfXiXfXgXfXfXfXfXfXfXgXfXfXfXfXfXfXfXfXfXfXfXfXfXfXfXfXfXfXfXfXfXfXfXfXfXfX",
"fXfXfXfXfXfXfXfXfXfXfXfXfXfXfXfXfXfXfXuXuXfXsXfXiXfXpXfXpXfXfXfXpXsXfXfXfXfXdXfXfXfXfXfXfXfXfXfXfXfXfXfXfXfXfXfXfXfXfXfXfXfXfXfX",
"fXfXfXfXpXfXfXfXfXfXfXfXfXfXfXfXfXuXuXfXfXo.N y m N l r y iXfXpXfXpXfXfXpXfXpXfXfXfXfXfXfXfXfXfXfXfXfXfXfXfXfXfXfXfXfXfXfXfXfXfX",
"fXfXfXfXfXfXfXfXfXfXfXfXfXfXfXfXfXfXfXfXsXl l M m c b N N pXpXiXpXfXpXqXfXfXuXfXfXfXfXfXfXfXfXfXfXfXfXfXfXfXfXfXfXfXfXfXfXfXfXfX",
"fXfXfXfXfXfXfXfXfXfXfXfXfXfXfXfXfXsXsXfXsX. * ~ &.&.&.&.$.b u pXpXpXiX' r < ~ rXfXfXfXfXfXfXfXfXfXfXfXfXfXfXfXfXfXfXfXfXfXfXfXfX",
"fXfXfXfXfXfXfXfXfXfXfXfXfXfXfXfXfXfXsXpXfX. , W &.&.,.&.^ M d iXfXpXfXy b c y fXfXfXfXfXfXfXfXfXfXfXfXfXfXfXfXfXfXfXfXfXfXfXfXfX",
"fXfXfXfXfXfXfXfXfXfXfXfXfXsXfXsXfXsXfXt z b u # @ Q I %.%.%.%.s p u c &.' N c pXfXiXfXpXfXsXfXfXfXfXfXfXfXfXfXfXfXfXfXfXfXfXfXfX",
"fXfXfXfXfXfXfXfXfXfXfXfXuXfXpXfXpXfXqXm l b l 5 . d ! ,.] ] %.d v p c ^ $.d m iXfXqX0XfXfXfXfXfXfXfXfXfXfXfXfXfXfXfXfXfXfXfXfXfX",
"fXfXfXfXfXfXfXfXfXgXsXpXfXpXfX  . c M m K K M H U @ @ e d -.:.u K ) #.Q Q b s M z & O fXuXfXsXfXfXfXfXfXfXfXfXfXfXfXfXfXfXfXfXfX",
"fXfXfXfXfXfXfXfXsXfXpXfXfXiXsX. * w M K Q Q W / ( @ # t d [ [ n v H #.K K M c c u & . pXfXfXfXfXfXfXfXfXfXfXfXfXfXfXfXfXfXfXfXfX",
"fXfXfXfXfXfXfXfXfXuXsXsX0X. , c b Q K H U / ;.;.( p / Q K U H U U ( U p v H I B V M z +   iXsXfXfXfXfXfXfXfXfXfXfXfXfXfXfXfXfXfX",
"fXfXfXfXfXfXfXfXsXfXpXsXfX. * c H K M ( Q =.) | :./ R v U U v U J J / p i L Q W ~ B c . O fXfXfXfXfXfXfXfXfXfXfXfXfXfXfXfXfXfXfX",
"fXdXfXfXfXfXfXfXfXfXfXN l M W W K L / ) -.=.;.| | | =.L / K K U U ) | | #.W H d w * $ uXfXpXsXfXfXfXfXfXfXfXfXfXfXfXfXfXfXfXfXfX",
"fXfXfXfXfXfXfXfXfXsXsXN l W W Q Q H Q ( =.=.+.-.-. .+.L U I Y K / | ;.) =.K K c l . . fXpXfXpXfXfXfXfXfXfXfXfXfXfXfXfXfXfXfXfXfX",
"fXfXfXfXfXfXfXfXgXfXiXiXpXl l w i H I K Q =.:.#.[ %.=.-.-.[ [ -.=.-.( / n Y b s r   & , y pXfXfXfXfXfXfXfXfXfXfXfXfXfXfXfXfXfXfX",
"fXfXfXfXfXfXfXfXgXiXiXfXiX* e d p H Q K U ) | ) [ -.-.{ [ -.-.[ -.;.[ U ' n g g y . & , r pXpXpXfXfXfXfXfXfXfXfXfXfXfXfXfXfXfXfX",
"fXfXfXfXfXfXfXfXfXfXfX  . K M W n L Q K K U Q U I [ | [ [ -.{ P H R I H D Y I n c , - $ X iXfXpXfXfXfXfXfXfXfXfXfXfXfXfXfXfXfXfX",
"fXfXfXfXfXfXfXfXpXpXiX. 8 c M K W H H K U H H H U [ -.=.| :.{ U / / / P E H n I m l ,     iXpXfXfXfXfXfXfXfXfXfXfXfXfXfXfXfXfXfX",
"fXfXfXfXfXfXfXfXfX. . s N Q Q U H d i n U K H Q U H H H H H H H L S L J D D I s t y r O + fXfXgXfXfXfXfXfXfXfXfXfXfXfXfXfXfXfXfX",
"fXfXfXfXfXfXfXfXiX  = g Q ! K K n i t n U I H U U H P U P J P R J J R J D J D g w u w   + fXpXgXfXfXfXfXfXfXfXfXfXfXfXfXfXfXfXfX",
"fXfXfXfXfXfXfXpXfXs y M K n U p f v H K I I n p i H U U U H H H J :X<Xa a D H 9 e l ,     fXdXfXfXfXfXfXfXfXfXfXfXfXfXfXfXfXfXfX",
"fXfXfXfXfXfXfXfXfX, u K M W K d e H Q K I U H 9 9 H U H S U U J J 2X<X4 q F P i 8 l , O O fXdXdXfXfXfXfXfXfXfXfXfXfXfXfXfXfXfXfX",
"fXfXfXfXsXfXpX  . B m s w e e K M U I I n p t H I Q I I H H J D J OX<X$X1X7 7 4X6X. . fXfXuXdXfXfXfXfXfXfXfXfXfXfXfXfXfXfXfXfXfX",
"fXfXfXuXfXfXfX. & m B r w n * H I n W I d e i f n I H H U U U H H 5XoXoX<Xq h >X2X. . fXfXfXfXdXfXfXfXfXfXfXfXfXfXfXfXfXfXfXfXfX",
"fXsXsXfXsXfXfX    x y iXpXfXsXr u K n d t d 8 d d I U n H U H @ @ h R I.R.$X+X>X,X@ . iXfXfXsXdXfXfXfXfXfXfXfXfXfXfXfXfXfXfXfXfX",
"fXfXfXfXfXfXfX  + y y qXsXfX0Xu p n g d e 9 e 8 i I I H U f f t @ } h U.U.3X3X:X,X# # iXfXfXfXdXfXfXfXfXfXfXfXfXfXfXfXfXfXfXfXfX",
"fXdXfXfXsXfXuXfXsXfXfXfXfXsXfXfXiXp c v K Q H p i H U U g % 9 0 v 8XtX} T OX+X<X2Xe e sXfXfXdXdXfXfXfXfXfXfXfXfXfXfXfXfXfXfXfXfX",
"fXfXfXgXfXfXfXfXfXfXsXfXfXuXfXsXsXt u v H M W i t v K U p . % H ] wXeX} T $X7XOX2XS H sXpXfXdXfXfXfXfXfXfXfXfXfXfXfXfXfXfXfXfXfX",
"fXsXfXfXsXfXsXfXfXsXfXfXfXfXsXsX0Xp 8 t v K K I n i 9 I U . @ E.P.yX9X@ # 3X+X4X2XL H fXpXpXpXfXfXfXfXfXfXfXfXfXfXfXfXfXfXfXfXfX",
"fXfXfXgXfXfXfXfXsXsXsXfXfXfXfXfXpXr r t t c I I I e 8 H H # @ T.R.8XeX@ 1 4X#X$X6XL K pXpXfXfXfXfXfXfXfXfXfXfXfXfXfXfXfXfXfXfXfX",
"fXfXfXfXfXfXfXfXfXfXfXfXfXfXfXfXpXfXiXr t n I Q K s % @ 1 ^.M.W.I.=X@X&X.XXX*X+XoX_.T.0XsXfXpXfXfXfXfXfXfXfXfXfXfXfXfXfXfXfXfXfX",
"fXfXfXfXfXfXfXfXfXfXfXfXfXfXfXfXfXfXgXs s I B g d t 0 4 # r.I.^.Q.#X@X&XXX.X@X1X:X_.Y.sXpXfXpXfXfXfXfXfXfXfXfXfXfXfXfXfXfXfXfXfX",
"fXfXfXfXfXfXfXfXfXfXfXfXfXfXfXfXsXfXpXiXpXpXpX  $ b I t i P q 0.1.W.m.*X.XQ.Q.F } tXpXfXpXpXiXfXfXfXfXfXfXfXfXfXfXfXfXfXfXfXfXfX",
"fXfXfXfXfXfXfXfXfXfXfXfXfXfXfXfXfXfXfXfXrXfXpX- X b W M i q F | :.T.W.3X$XU.m.P U iXiXfXsXfXfXsXfXfXfXfXfXfXfXfXfXfXfXfXfXfXfXfX",
"fXfXfXfXfXfXfXfXfXfXfXfXfXfXfXfXpXfXpXpXfXdXfX    x z . @ S R 4 # H H 5 n g g eXpXpXfXdXfXfXfXfXfXfXfXfXfXfXfXfXfXfXfXfXfXfXfXfX",
"fXfXfXfXfXfXfXfXfXfXfXfXfXfXfXfXfXpXfXfXfXdXfXo   x u . # D J 1 . w b t z B $ pXyXpXpXfXfXfXdXdXfXfXfXfXfXfXfXfXfXfXfXfXfXfXfXfX",
"fXfXfXfXfXfXfXfXfXfXfXfXfXfXfXfXfXpXpXgXfXdXaXfXsX~ b @ # <.>.# @ Y.L.O   fXfXqXpXpXfXdXfXdXfXfXfXfXfXfXfXfXfXfXfXfXfXfXfXfXfXfX",
"fXfXfXfXfXfXfXfXfXfXfXfXfXfXfXfXpXfXfXfXfXdXfXfXiXB h @ 4 >.>.4 @ r.K.> o fXfXdXdXpXfXfXsXfXaXfXfXfXfXfXfXfXfXfXfXfXfXfXfXfXfXfX",
"fXfXfXfXfXfXfXfXfXfXfXfXfXfXfXfXfXsXfXsXfXfXsXpXiX@ @ n.z.# # b.P.,.6.*.O.: > dXfXpXfXfXsXfXfXfXfXfXfXfXfXfXfXfXfXfXfXfXfXfXfXfX",
"fXfXfXfXfXfXfXfXfXfXfXfXfXfXfXfXfXsXsXfXfXfXfXtXeX# # l.x.1 # v.m.<.8.O.O.: ; fXdXpXfXfXfXsXfXfXfXfXfXfXfXfXfXfXfXfXfXfXfXfXfXfX",
"fXfXfXfXfXfXfXfXfXfXfXfXfXfXfXfXsXfXsXsXfXfXqX% @ z.A.{.).4 # c.d.r.T.6.7.k ; dXfXfXfXsXsXsXfXfXfXfXfXfXfXfXfXfXfXfXfXfXfXfXfXfX",
"fXfXfXfXfXfXfXfXfXfXfXfXfXfXfXfXfXsXfXfXfXpXyX@ # s.i.[.[.@ # h.f.A.r.6.7.k ; dXpXuXfXsXfXfXpXfXfXfXfXfXfXfXfXfXfXfXfXfXfXfXfXfX",
"fXfXfXfXfXfXfXfXfXfXfXfXfXfXfXfXsXfXfXfXfXpXeXq.9.j.Z.F.[.G j `.F.Z.M.8.7.X.X.>   fXfXsXsXfXfXdXfXfXfXfXfXfXfXfXfXfXfXfXfXfXfXfX",
"fXfXfXfXfXfXfXfXfXfXfXfXfXfXfXfXgXfXfXfXpXpXyX1.w.e.a.[.[.j G `.G.V.z.<.5.2.@.>   dXfXfXfXsXpXfXfXfXfXfXfXfXfXfXfXfXfXfXfXfXfXfX",
"fXfXfXfXfXfXfXfXfXfXfXfXfXfXfXfXdXdXfXdXfXyXeX# # Z.p.[.}.$ $ `.G.y.s.J +.O.@.o + fXfXfXaXfXfXdXfXfXfXfXfXfXfXfXfXfXfXfXfXfXfXfX",
"fXfXfXfXfXfXfXfXfXfXfXfXfXfXfXfXpXfXgXgXpXpX9X# # f.j.).[.# # `.C.a.v.g C O.X.>   dXfXsXsXfXfXdXfXfXfXfXfXfXfXfXfXfXfXfXfXfXfXfX",
"fXfXfXfXfXfXfXfXfXfXfXfXfXfXfXfXiXrXpXpXgXtXeX# # x.d.f.j.2 # h.B.H.].@ . 4.3.: ; dXfXsXfXfXfXfXfXfXfXfXfXfXfXfXfXfXfXfXfXfXfXfX",
"fXfXfXfXfXfXfXfXfXfXfXfXfXfXfXfXfXuXfXtXpXtXtX@ 1 v.x.d.d.1 1 s.u.[.|.@ . J.J.: : fXfXfXuXfXfXfXfXfXfXfXfXfXfXfXfXfXfXfXfXfXfXfX",
"fXfXfXfXfXfXfXfXfXfXfXfXfXfXfXfXuXfXpXpXyX@ # w.w.G Z A.Q..X1X# % './.. O 3.4.: ; fXfXpXpXiXpXfXfXfXfXfXfXfXfXfXfXfXfXfXfXfXfXfX",
"fXfXfXfXfXfXfXfXfXfXfXfXfXfXfXfXfXsXsXiXwX# 1 9.w.Z ` A.M.1XoX. @ `.|.. O 8.4.: o fXpXyXpXyXpXpXfXfXfXfXfXfXfXfXfXfXfXfXfXfXfXfX",
"fXfXfXfXfXfXfXfXfXfXfXfXfXfXfXfXaXsXsX@ 7 v.N.p.p.Z 2 @X3XoX;X$ @ g.c.. .   < hXdXuXdXpXpXpXpXpXfXfXfXfXfXfXfXfXfXfXfXfXfXfXfXfX",
"fXfXfXfXfXfXfXfXfXfXfXfXfXfXfXfXfXsXiX@ # i.p.Z.N.6 2 @X7X>X X  3 u.c..     o fXfXfXpXpXiXfXfXfXfXfXfXfXfXfXfXfXfXfXfXfXfXfXfXfX",
"fXfXfXfXfXfXfXfXfXfXfXfXfXfXfXfXfX  $ k.h.a.a.t.e.N.N.2 @ % . |.'.'.].    fXfXdXfXdXfXpXfXpXfXfXfXfXfXfXfXfXfXfXfXfXfXfXfXfXfXfX",
"fXfXfXfXfXfXfXfXfXfXfXfXfXfXfXfXpXX . n.c.i.p.a.N.N.e.2 # @ # (.'.].|..   fXfXdXfXfXpXfXgXfXfXfXfXfXfXfXfXfXfXfXfXfXfXfXfXfXfXfX",
"fXfXfXfXfXfXfXfXfXfXfXfXfXfXfXfXpXyXeX$ @ @ # ).S.H.[.H.{.-X/.9X9X@ @ iXfXuXfXsXfXfXpXpXpXpXfXpXfXfXfXfXfXfXfXfXfXfXfXfXfXfXfXfX",
"fXfXfXfXfXfXfXfXfXfXfXfXfXfXfXfXyXyXpX. . # @ ].{.{.S.{.~.{.-X8X9X. . fXfXfXfXfXfXfXfXpXpXpXpXfXfXfXfXfXfXfXfXfXfXfXfXfXfXfXfXfX",
"fXfXfXfXfXfXfXfXfXfXfXfXfXfXfXpXpXyXtXfXpXfXpX@ X X . A A .._ _ J # @ pXfXdXfXdXfXfXfXfXfXfXfXfXfXfXfXfXfXfXfXfXfXfXfXfXfXfXfXfX",
"fXfXfXfXfXfXfXfXfXfXfXfXfXfXfXfXyXpXfXfXsXfXsX.   $ @ D T  . .F S % . rXfXfXaXfXfXfXfXfXfXfXfXfXfXfXfXfXfXfXfXfXfXfXfXfXfXfXfXfX",
"fXfXfXfXfXfXfXfXfXfXfXfXfXfXfXfXfXfXfXsXsXfXsXfXfXfXqX$ @ | | ;.:.{ ' *   dXfXfXfXfXfXfXfXfXfXfXfXfXfXfXfXfXfXfXfXfXfXfXfXfXfXfX",
"fXfXfXfXfXfXfXfXfXfXfXfXfXfXfXfXdXdXdXfXfXsXfXfXsXuXfX  $ I P >.[ -.^ $   fXdXfXfXfXfXfXsXfXfXfXfXfXfXfXfXfXfXfXfXfXfXfXfXfXfXfX",
"fXfXfXfXfXfXfXfXfXfXfXfXfXfXfXfXfXdXsXfXsXfXfXfXfXfXfXdXfX. @ . $ = & sXfXfXdXpXfXfXfXfXfXfXfXfXfXfXfXfXfXfXfXfXfXfXfXfXfXfXfXfX",
"fXfXfXfXfXfXfXfXfXfXfXfXfXfXfXfXdXdXgXfXpXpXdXfXfXhXdXfXdX    .   . . sXsXfXfXdXfXpXfXpXfXfXfXfXfXfXfXfXfXfXfXfXfXfXfXfXfXfXfXfX"
};
