/* XPM */
static char *tile013[] = {
/* columns rows colors chars-per-pixel */
"64 64 235 2 ",
"   c #040201",
".  c #0C0101",
"X  c #0B020A",
"o  c #060804",
"O  c #140100",
"+  c #1B0100",
"@  c #120902",
"#  c #140D0B",
"$  c #1C0B0A",
"%  c #170708",
"&  c #1C110F",
"*  c #16120A",
"=  c #150814",
"-  c #171112",
";  c #1D1413",
":  c #1D171A",
">  c #051012",
",  c #230100",
"<  c #2B0200",
"1  c #240C01",
"2  c #290C04",
"3  c #250F0B",
"4  c #26120C",
"5  c #2B150D",
"6  c #2B1B0E",
"7  c #201A0C",
"8  c #361A0B",
"9  c #2C0F10",
"0  c #231613",
"q  c #2B1612",
"w  c #241A15",
"e  c #2B1A14",
"r  c #22121A",
"t  c #251C1B",
"y  c #2B1D1A",
"u  c #331B14",
"i  c #331E1A",
"p  c #371917",
"a  c #2D221D",
"s  c #25221D",
"d  c #35221C",
"f  c #3A241D",
"g  c #3A2917",
"h  c #241D23",
"j  c #2A1E22",
"k  c #2C1720",
"l  c #321821",
"z  c #252121",
"x  c #2D2323",
"c  c #2D262A",
"v  c #322524",
"b  c #3C2622",
"n  c #332927",
"m  c #3D2A25",
"M  c #332B2A",
"N  c #3D2D2A",
"B  c #342429",
"V  c #39322C",
"C  c #332A32",
"Z  c #3F3332",
"A  c #343132",
"S  c #2F322B",
"D  c #42281D",
"F  c #442B25",
"G  c #492E26",
"H  c #442E29",
"J  c #4A2E2A",
"K  c #442723",
"L  c #4A3126",
"P  c #45312C",
"I  c #4B322C",
"U  c #53362D",
"Y  c #573627",
"T  c #463532",
"R  c #4B3632",
"E  c #4C3935",
"W  c #463A3A",
"Q  c #523531",
"!  c #523A33",
"~  c #5A3E39",
"^  c #583B38",
"/  c #5C443D",
"(  c #5E493E",
")  c #584239",
"_  c #61463E",
"`  c #60493F",
"'  c #694937",
"]  c #6C4E3D",
"[  c #3E3842",
"{  c #4E4244",
"}  c #5D4642",
"|  c #574846",
" . c #5E4942",
".. c #5B4C4B",
"X. c #544645",
"o. c #5F5452",
"O. c #614741",
"+. c #634A43",
"@. c #614F48",
"#. c #6D4F45",
"$. c #66534A",
"%. c #755C45",
"&. c #665E53",
"*. c #68605D",
"=. c #707068",
"-. c #9A5804",
";. c #8D5614",
":. c #97591B",
">. c #9B631E",
",. c #865A2B",
"<. c #985C2A",
"1. c #935830",
"2. c #9A6527",
"3. c #9A6838",
"4. c #906D3A",
"5. c #A66525",
"6. c #B97939",
"7. c #CF7F28",
"8. c #825744",
"9. c #986549",
"0. c #997549",
"q. c #88765D",
"w. c #8E6D51",
"e. c #A67842",
"r. c #A87A56",
"t. c #B07F47",
"y. c #BA8727",
"u. c #BD8636",
"i. c #CB852C",
"p. c #D5842C",
"a. c #D7862B",
"s. c #CC8430",
"d. c #CC8B35",
"f. c #C58C3B",
"g. c #CC8C3D",
"h. c #C68638",
"j. c #D98B35",
"k. c #D38A3B",
"l. c #DA8B3B",
"z. c #D28633",
"x. c #C39434",
"c. c #CC963C",
"v. c #C69239",
"b. c #CC9331",
"n. c #E18833",
"m. c #E79B3D",
"M. c #9D835E",
"N. c #BD8D4B",
"B. c #B7854D",
"V. c #B8954C",
"C. c #AB8858",
"Z. c #B88957",
"A. c #BA9358",
"S. c #AF8B49",
"D. c #9A8260",
"F. c #AD8D66",
"G. c #B99466",
"H. c #B28D70",
"J. c #B09375",
"K. c #C28444",
"L. c #C68B46",
"P. c #CC9645",
"I. c #CA984B",
"U. c #D19443",
"Y. c #C88A51",
"T. c #CA975A",
"R. c #D6935C",
"E. c #DEB35C",
"W. c #D9A75E",
"Q. c #E8B65C",
"!. c #C39265",
"~. c #CB9368",
"^. c #D9AB67",
"/. c #DBB072",
"(. c #EBBD6D",
"). c #E4BC69",
"_. c #E2AF70",
"`. c #EABC75",
"'. c #E8B266",
"]. c #DFC06E",
"[. c #DDC376",
"{. c #EDC46C",
"}. c #E4C466",
"|. c #F5C779",
" X c #F4D175",
".X c #F3C66D",
"XX c #AA9385",
"oX c #B59A8B",
"OX c #BE9D8D",
"+X c #AF9B94",
"@X c #B39A93",
"#X c #BDA38E",
"$X c #BDA392",
"%X c #BBA39B",
"&X c #B7A49B",
"*X c #C19C88",
"=X c #C2A38E",
"-X c #DAB68B",
";X c #D9B384",
":X c #C4A090",
">X c #D2B991",
",X c #E7BF84",
"<X c #E4C382",
"1X c #F6C985",
"2X c #E9D689",
"3X c #F2D4BD",
"4X c #E9CCBC",
"5X c #FFEFB6",
"6X c #D9CECA",
"7X c #E8D1C8",
"8X c #F6D7C8",
"9X c #E9DAD3",
"0X c #EFE4DE",
"qX c #FEF3DA",
"wX c #FCF3D4",
"eX c #EFEFEF",
"rX c #EEE4E2",
"tX c #FAEFED",
"yX c #F5EDE7",
"uX c #ECF0EF",
"iX c #FEF2E5",
"pX c #FEFEE4",
"aX c #F4F3EF",
"sX c #FCF4EC",
"dX c #FDFCEC",
"fX c #FAEEFA",
"gX c #F5F5F3",
"hX c #FCF5F3",
"jX c #F5FDF4",
"kX c #FDFBF5",
"lX c #F5F6FB",
"zX c #FDF6FB",
"xX c #F5FEFE",
"cX c #FFFEFE",
"vX c #EFF3F2",
/* pixels */
"cXcXcXcXcXcXcXcXcXcXcXcXcXcXcXcXcXcXcXcXcXcXcXcXzXcXcXzXcXxXxXcXxXcXcXcXkXgXcXcXzXcXcXcXcXcXkXcXcXcXcXcXcXcXcXcXcXcXcXcXcXcXcXcX",
"cXcXcXcXcXcXcXcXcXcXcXcXcXcXcXcXgXcXgXkXcXcXgXcXcXcXcXcXcXcXcXcXcXlXcXlXcXcXcXcXcXcXcXcXcXcXcXcXcXcXcXcXcXcXcXcXcXcXcXcXcXcXcXcX",
"cXcXcXcXcXcXcXcXcXcXcXcXcXcXcXcXcXcXcXcXkXcXcXcXcXcXcXcXcXcXcXcXcXcXcXcXzXcXcXcXcXcXcXcXzXcXcXcXcXcXcXcXcXcXcXcXcXcXcXcXcXcXcXcX",
"cXcXcXcXcXcXcXcXcXcXcXcXcXcXcXcXkXcXjXkXcXzXcXcXcXzXzXcXzXcXcXzXcXzXcXcXcXhXcXcXzXcXcXcXcXcXcXcXcXcXcXcXcXcXcXcXcXcXcXcXcXcXcXcX",
"cXcXcXcXcXcXcXcXcXcXcXcXcXcXcXcXcXxXcXcXz - y - t j j x zXcXzXcXzXcXcXcXt h zXcXcXcXcXcXcXcXcXcXcXcXcXcXcXcXcXcXcXcXcXcXcXcXcXcX",
"cXcXcXcXcXcXcXcXcXcXcXcXcXcXcXcXjXcXkXzXz ; A M t t t j sXkXhXcXzXcXcXzXh h hXcXcXcXcXcXcXcXcXcXcXcXcXcXcXcXcXcXcXcXcXcXcXcXcXcX",
"cXcXcXcXcXcXcXcXcXcXcXcXcXcXcXcXcXzXzXcXo # { W | o.X.E v y 0 t cXcX: t Z W x c cXcXcXcXcXcXxXcXcXcXcXcXcXcXcXcXcXcXcXcXcXcXcXcX",
"cXcXcXcXcXcXcXcXcXcXcXcXcXcXcXcXcXcXzXcX  & W ........X.i e q q zXkX: c { { x t cXcXcXcXcXcXcXcXcXcXcXcXcXcXcXcXcXcXcXcXcXcXcXcX",
"cXcXcXcXcXcXcXcXcXcXcXzXcXkXcXcXcXcXcXzXkXcX. . T T } @.) ( P P w t ..| W Z r t cXcXzXcXkXcXcXcXcXcXkXcXkXcXcXcXcXcXcXcXcXcXcXcX",
"cXcXcXcXcXcXcXcXcXzXcXxXcXcXxXcXkXkXcXhXzXtX% . E P } ) X. .I R q 0 | X.N N v v zXhXkXzXcXcXcXcXcXxXcXcXcXcXzXcXcXcXcXcXcXcXcXcX",
"cXcXcXcXcXcXcXcXcXcXcXcXcXzXcXzXcXcXkXcXy y 0 q O O u i / +.~ } O O P R 0 i b N y x 0 t hXcXhXcXzXcXxXzXcXxXcXcXcXcXcXcXcXcXcXcX",
"cXcXcXcXcXcXcXcXcXcXzXcXcXcXcXkXhXzXsXhXe e i i O O q u ( +.~ ( O . f b 3 i P R q y y w hXhXkXcXzXcXcXcXcXzXcXcXcXcXcXcXcXcXcXcX",
"cXcXcXcXcXcXcXcXcXcXzXcXcXxXcXzXt y 0 i T H P b +./ J b G U G U I K ! E F R ~ } P P m N t i t y cXcXxXcXcXcXcXzXcXcXcXcXcXcXcXcX",
"cXcXcXcXcXcXcXcXxXcXkXcXcXcXaXcXw w e v B R K Q } O.I Q I U F G L F G G L ! ~ / I H R N y 0 t 0 cXaXcXcXcXkXcXxXcXcXcXcXcXcXcXcX",
"cXcXcXcXcXcXcXcXcXgXcXcXcXuX:   w d d m R H } / #.+.^ ~ G L F G L L L U ) ' +.+.~ } I T H N y x   : eXcXcXzXlXcXcXcXcXcXcXcXcXcX",
"cXcXcXcXcXcXcXcXcXcXcXcXzXcX    w a H P H R ~ O.} O.O.O.I I L L L L G Y / ` +._ O.~ J H H H d r     cXkXcXcXcXcXcXcXcXcXcXcXcXcX",
"cXcXcXcXcXcXcXcXcXkXcXcX  @ M Z Z N P T . % 4 6  .} ( (  .( ` ` ` ` +.` ( ( (  .5 5 % . T P N T Z n #   cXcXcXcXcXcXcXcXcXcXcXcX",
"cXcXcXcXcXcXcXcXkXcXgXcX. # n N T N P m O % q u +. ./ ( ( +.( / ( ` ` ` } /  .+.u 6 % O N H N T V n # . kXaXcXkXcXcXcXcXcXcXcXcX",
"cXcXcXcXcXcXcXcXcXkXkXcXhXhXzXzX  O q d d d I P P P L I ) ` ` ( / ` ` ) I G P P P I f d i q O   kXcXhXgXcXcXkXcXcXcXcXcXcXcXcXcX",
"cXcXcXcXcXcXcXkXcXcXhXhXcXkXkXsXO O 4 e P H I L I I L ! ) +.+._ ` ` ` ) E I P I G R N H u 4 O . tXzXkXcXhXaXcXcXcXkXcXcXcXcXcXcX",
"cXcXcXcXcXcXcXcXcXkXcXkXkXzX  @ H T H F P H H L J H F G G J G J G G G G J G H J P P H L F H H T O   cXhXcXkXkXcXcXcXcXcXcXcXcXcX",
"cXcXcXcXcXcXcXcXgXcXhXcXkXcX  O H J F F J I F H J J I G G G G J L G G G J I J J L K J P J H H H O . cXzXcXhXcXhXcXcXcXcXcXcXcXcX",
"cXcXcXcXcXxXkXcXcXcXcXaXt t ; 0 H H J J R J J J K J J J J J J J J J J J J J J F J J J I J J J H 0 ; t t aXkXcXcXkXcXcXcXcXcXcXcX",
"cXcXcXcXcXcXcXcXgXcXkXcXt 0 t y I H Q J J F J J J Q J J J G J J J J J G J J J J J J J I J I H I y t 0 s cXkXcXgXcXcXcXcXcXcXcXcX",
"cXcXcXcXcXcXcXcXcXxXkXhX@ @ M Z F J J J J G J G J J J J J J J J J J J J J J I J J J J J K Q J K T M @ o kXkXkXcXcXcXcXcXcXcXcXcX",
"cXcXcXcXcXcXxXcXkXcXcXcX. # c Z R J K Q G J Q J J J J J J H J F J J J H J K J J J I J G Q K J R Z n # . cXcXcXkXkXcXxXcXcXcXcXcX",
"cXcXcXcXcXcXcXcXcXkX    - ; M w K G p 2 u p f J I R J R I I I H J J R R R I I R J f p u 2 u G K r n ; *     hXcXcXcXcXcXcXcXcXcX",
"cXcXcXcXcXcXkXcXcXcX    t y 0 w K D p 5 u u L H b K H J H H H H F H F J H F K K G L u u 5 p D K 0 0 s t     cXcXcXcXcXcXcXcXcXcX",
"cXcXcXcXcXcXcXcXcXcXsXcXcXsXv 0 O O @X@Xu q 2 i q d F P P N P E R P H P H H d q u 3 u u @X@XO + 0 x hXcXkXhXcXcXcXcXcXcXcXcXcXcX",
"cXcXcXcXcXcXcXkXgXcXcXkXkXhXw v O O %X%Xi u u 4 5 i F P m m N P P N m K H F d q 3 u u u %X%XO O v t hXkXcXkXcXgXcXcXcXcXcXcXcXcX",
"cXcXcXcXcXcXcXcXcXcXcXcXcXcXhXhXO + %XXXF f q 6 5 e i e e e e 0 e e e w e i q 5 w u d K XX%X+ . hXhXcXcXcXcXcXkXkXcXcXcXcXcXcXcX",
"cXcXcXcXcXcXcXcXkXcXcXkXhXcXzXkXO . +X&XH N d e e e 6 0 e a e 6 0 e a y e 4 6 u u i P N &X+XO O kXkXcXhXcXcXcXcXcXcXcXcXcXcXcXcX",
"cXcXcXcXcXcXcXcXcXcXcXcXcXcXcXcXiXhXH B - . * 6 7 7 0 0 w w 5 q 6 5 t w 0 q 5 8 p p   X W c dXiXkXcXcXcXcXcXcXcXcXcXcXcXcXcXcXcX",
"cXcXcXcXcXcXcXcXcXcXcXcXcXcXcXcXkXrX{ C = = 0 e s a w a w t e q e 6 t : x w f 5 9 p X X [ A dXkXcXcXcXcXcXcXcXcXcXcXcXcXcXcXcXcX",
"cXcXcXcXcXcXcXcXcXcXcXcXcXcXcXcXcXcXhXcXfXlXX X : & w 3 j y r r 0 ; h h - t 4 q O   cXcXcXcXzXzXcXcXcXcXcXcXcXcXcXcXcXcXcXcXcXcX",
"cXcXcXcXcXcXcXcXcXcXcXcXcXcXcXcXzXcXzXcXcXcXX   w e q 3 l B r B c : B j ; : 0 0   . kXgXcXcXzXcXcXcXcXcXcXcXcXcXcXcXcXcXcXcXcXcX",
"cXcXcXcXcXcXcXcXcXcXcXcXcXcXcXcXcXzXcXzXkXkXkXkXO O O + 3 u r r r r l 3 .   @ .     s &     cXcXcXcXcXcXcXcXcXcXcXcXcXcXcXcXcXcX",
"cXcXcXcXcXcXcXcXcXcXcXcXcXcXcXcXzXcXxXkXkXpXkXkX+ + , , 1 8 0 t k 9 p , + @ O @ o   6 g . O kXaXcXcXcXcXcXcXcXcXcXcXcXcXcXcXcXcX",
"cXcXcXcXcXcXcXcXcXcXcXcXcXcXcXcXcXkXkXkXpXpX  O w.r.-X-X0.0.O @ + , 9.r.-X>XD.q.  . oXH.:XXXO O cXcXcXcXcXcXcXcXcXcXcXcXcXcXcXcX",
"cXcXcXcXcXcXcXcXcXcXcXcXcXcXcXcXcXkXjXdXpXpX  O 0.B./.^.V.4.+ $ , , e.t./.;XD.q.  O OX*X#X#XO O cXcXcXcXcXcXcXcXcXcXcXcXcXcXcXcX",
"cXcXcXcXcXcXcXcXcXcXcXcXcXcXcXcXkXkXkXkX*   J.C.Z.V.<.;.1X/.V.V.Y.N.|.^.2.3.+ % O O OX*X=X=XO   cXcXcXcXcXcXcXcXcXcXcXcXcXcXcXcX",
"cXcXcXcXcXcXcXcXcXcXcXcXcXcXcXcXcXgXcXzX  @ C.A.A.T.;.5./.|.u.x.f.P.(.`.<.2.O . . O oXXXoX%X. & cXcXcXcXcXcXcXcXcXcXcXcXcXcXcXcX",
"cXcXcXcXcXcXcXcXcXcXcXcXcXcXcXcXcXcXzXzX@ . F.A., , :.2.^.(.c.b.x.u.{.|.;.,.1 . hXhX+ 3     hXeXcXcXcXcXcXcXcXcXcXcXcXcXcXcXcXcX",
"cXcXcXcXcXcXcXcXcXcXcXcXcXcXcXcXcXxXfXfX% O J.C.+ , 2.;.1XQ.k.d.b.c.Q.E.2.2., % dXzX.     o cXcXcXcXcXcXcXcXcXcXcXcXcXcXcXcXcXcX",
"cXcXcXcXcXcXcXcXcXcXcXcXcXcXcXcXxXcXcXcXX , + 2 G.V.).{.P.U.z.d.s.x.P.P.^.1Xe.F.+ . hXcXcXcXxXvXcXcXcXcXcXcXcXcXcXcXcXcXcXcXcXcX",
"cXcXcXcXcXcXcXcXcXcXcXcXcXcXcXcXgXjXzXzX, + , O C.S.[.].P.d.k.z.s.d.d.P.).|.I.Z.+ 1 iXcXxXlXxXcXcXcXcXcXcXcXcXcXcXcXcXcXcXcXcXcX",
"cXcXcXcXcXcXcXcXcXcXcXcXcXcXcXcXjXcX  O $X*X8X3X1 O 2X].x.d.a.p.p.j.k.U.(.'.f.h.T.C..   hXcXcXzXcXcXcXcXcXcXcXcXcXcXcXcXcXcXcXcX",
"cXcXcXcXcXcXcXcXcXcXcXcXcXcXcXcXjXjXo . XX#X3X3X+ @ <X).c.b.a.a.j.p.j.l.Q..XU.v.h.V.+ @ hXcXcXcXcXcXcXcXcXcXcXcXcXcXcXcXcXcXcXcX",
"cXcXcXcXcXcXcXcXcXcXcXcXcXcXcXcXkXjX    9X6X8X4X+ , Z.L.d.p.a.a.z.z.7.n.i.v.{.{.u.f.Y.Z.+   o o cXcXcXcXcXcXcXcXcXcXcXcXcXcXcXcX",
"cXcXcXcXcXcXcXcXcXcXcXcXcXcXcXcXcXcXo # 6X9X7X8X< < B.u.L.i.m.i.g.j.n.7.k.s.}.}.y.x.u.T.+ @   o cXcXcXcXcXcXcXcXcXcXcXcXcXcXcXcX",
"cXcXcXcXcXcXcXcXcXcXcXcXcXcXcXcXcXhXkXtXO O , , r.Y.5.5.7.L.i.s.d.y.z.j.-.-. X}. XQ.U.6.!.F.. o cXcXcXcXcXcXcXcXcXcXcXcXcXcXcXcX",
"cXcXcXcXcXcXcXcXcXcXcXcXcXcXcXcXcXcXzXdX+ , , , W.K.<.5.K.Y.Y.L.L.I.h.k.5.>.).|.Q. XL.R.Z.H..   kXcXcXcXcXcXcXcXcXcXcXcXcXcXcXcX",
"cXcXcXcXcXcXcXcXcXcXcXcXcXcXcXcXcXzX  . %.,.A.T.`.W.>.2.N.Z.< , , 1 R.R.3.,.wX5XI.u.2.1., + pXqXcXcXcXcXcXcXcXcXcXcXcXcXcXcXcXcX",
"cXcXcXcXcXcXcXcXcXcXcXcXcXcXcXcXcXcX  . q.w.S.S.,X,X4.,.!.!.+ % 1 + r.H.8.q.qXqXC.A.9.9.+ O yXkXcXcXcXcXcXcXcXcXcXcXcXcXcXcXcXcX",
"cXcXcXcXcXcXcXcXcXcXcXcXcXcXcXcXcXxXcXkX. . 1 O + + 8 D g g @ . &.$.+ + 9 $     O O O + zXfXcXlXcXcXcXcXcXcXcXcXcXcXcXcXcXcXcXcX",
"cXcXcXcXcXcXcXcXcXcXcXcXcXcXcXcXxXkXjXcX  #     O % v V A s o o =.*.$ O . X       . O . zXcXlXcXcXcXcXcXcXcXcXcXcXcXcXcXcXcXcXcX",
"cXcXcXcXcXcXcXcXcXcXcXcXcXcXcXcXcXcXkXcXcXcXcXcXxXcXxXcXcXkXS A S M $.$.Z A > o cXkXcXcXcXcXxXcXcXcXcXcXcXcXcXcXcXcXcXcXcXcXcXcX",
"cXcXcXcXcXcXcXcXcXcXcXcXcXcXcXcXcXkXcXkXkXxXxXxXxXxXxXlXxXxXA S V P ] %.d z o > kXkXkXcXxXxXkXcXcXcXcXcXcXcXcXcXcXcXcXcXcXcXcXcX",
"cXcXcXcXcXcXcXcXcXcXcXcXcXcXcXcXzXcXcXcXcXcXkXxXxXxXxXxXcXcX  % $.) ] ' 1 . xXeXkXkXcXcXxXxXcXkXcXcXcXcXcXcXcXcXcXcXcXcXcXcXcXcX",
"cXcXcXcXcXcXcXcXcXcXcXcXcXcXcXcXcXzXcXcXcXcXcXxXxXxXcXcXcXzX  O $.#.] Y %   zXcXcXkXcXcXcXcXcXkXcXcXcXcXcXcXcXcXcXcXcXcXcXcXcXcX",
"cXcXcXcXcXcXcXcXcXcXcXcXcXcXcXcXcXzXcXkXkXkXcXcXkXkXkXkXkXcX  O ^ Q ^ U +   cXcXcXcXcXcXcXcXzXcXcXcXcXcXcXcXcXcXcXcXcXcXcXcXcXcX",
"cXcXcXcXcXcXcXcXcXcXcXcXcXcXcXcXcXcXkXcXcXcXcXcXcXcXkXcXkXaX.   R O.J J $ . lXcXcXcXcXxXcXcXcXkXcXcXcXcXcXcXcXcXcXcXcXcXcXcXcXcX",
"cXcXcXcXcXcXcXcXcXcXcXcXcXcXcXcXxXxXcXcXcXcXzXcXzXcXcXcXkXcXuXcX= % O O rXcXcXxXcXcXxXxXxXcXcXkXcXcXcXcXcXcXcXcXcXcXcXcXcXcXcXcX",
"cXcXcXcXcXcXcXcXcXcXcXcXcXcXcXcXxXxXxXxXcXcXcXzXcXzXcXcXcXkXjXcXX . O . cXjXlXxXcXkXxXxXxXcXkXhXcXcXcXcXcXcXcXcXcXcXcXcXcXcXcXcX"
};
