/* XPM */
static char *tile000[] = {
/* columns rows colors chars-per-pixel */
"64 64 243 2 ",
"   c #030201",
".  c #0C0201",
"X  c #05020A",
"o  c #000B0A",
"O  c #0C0B0C",
"+  c #090906",
"@  c #130100",
"#  c #1B0201",
"$  c #150904",
"%  c #190902",
"&  c #13010A",
"*  c #150E0B",
"=  c #1B0D0C",
"-  c #081207",
";  c #1E130C",
":  c #050716",
">  c #120A15",
",  c #1D1412",
"<  c #17191A",
"1  c #230200",
"2  c #290400",
"3  c #240C01",
"4  c #2C0D06",
"5  c #340700",
"6  c #2C1202",
"7  c #26130C",
"8  c #2B140C",
"9  c #2B190D",
"0  c #321503",
"q  c #33140C",
"w  c #381A0A",
"e  c #241613",
"r  c #2C1512",
"t  c #241914",
"y  c #2B1A14",
"u  c #241B1A",
"i  c #2C1D1B",
"p  c #2D141A",
"a  c #321C13",
"s  c #321E1B",
"d  c #381B15",
"f  c #362006",
"g  c #28221B",
"h  c #34231D",
"j  c #3A241A",
"k  c #3B2719",
"l  c #0D0F28",
"z  c #261B24",
"x  c #341D22",
"c  c #252323",
"v  c #2C2424",
"b  c #2C2C2C",
"n  c #342424",
"m  c #3A2623",
"M  c #332A25",
"N  c #3B2C25",
"B  c #352D2A",
"V  c #3D2C2B",
"C  c #362728",
"Z  c #3C322A",
"A  c #383128",
"S  c #2A3030",
"D  c #3C3231",
"F  c #382C2F",
"G  c #441D07",
"H  c #411C16",
"J  c #45261C",
"K  c #432A1B",
"L  c #472615",
"P  c #552A1A",
"I  c #493110",
"U  c #422622",
"Y  c #432C24",
"T  c #4A2D24",
"R  c #442D2B",
"E  c #4A2D2A",
"W  c #433125",
"Q  c #4A3126",
"!  c #44322C",
"~  c #4B332C",
"^  c #45382D",
"/  c #553628",
"(  c #443331",
")  c #4A3432",
"_  c #4D3935",
"`  c #443C3B",
"'  c #443B39",
"]  c #523531",
"[  c #593F3A",
"{  c #553A35",
"}  c #502E2F",
"|  c #54423B",
" . c #5C433D",
".. c #594234",
"X. c #4F453C",
"o. c #62463E",
"O. c #6F4A2F",
"+. c #7B6639",
"@. c #33354E",
"#. c #4A3A4C",
"$. c #3F4253",
"%. c #3D4D73",
"&. c #474143",
"*. c #5D4642",
"=. c #5E4943",
"-. c #584947",
";. c #564D52",
":. c #624541",
">. c #644A43",
",. c #674F47",
"<. c #6E564D",
"1. c #4C4370",
"2. c #4A547A",
"3. c #534E72",
"4. c #695976",
"5. c #715F6C",
"6. c #5A6775",
"7. c #736770",
"8. c #A8651F",
"9. c #8D5931",
"0. c #8B683C",
"q. c #8E703C",
"w. c #9F723B",
"e. c #9E6933",
"r. c #AB7225",
"t. c #B0712B",
"y. c #B37833",
"u. c #A86521",
"i. c #8A6847",
"p. c #977342",
"a. c #91755A",
"s. c #A27645",
"d. c #866E74",
"f. c #B58837",
"g. c #C4813C",
"h. c #9E804C",
"j. c #A98448",
"k. c #B48A4D",
"l. c #B98948",
"z. c #B9924C",
"x. c #A98659",
"c. c #B88757",
"v. c #B89355",
"b. c #AB957C",
"n. c #B9967B",
"m. c #B0906F",
"M. c #B7A07E",
"N. c #C68C4C",
"B. c #C28340",
"V. c #D28F48",
"C. c #C39448",
"Z. c #C18154",
"A. c #CB935C",
"S. c #C69A55",
"D. c #D19056",
"F. c #D7924F",
"G. c #C98F62",
"H. c #C49362",
"J. c #CB9B6C",
"K. c #C69C7A",
"L. c #D4B369",
"P. c #D8BA76",
"I. c #D1AE6D",
"U. c #E5AF63",
"Y. c #E4BA78",
"T. c #EBC577",
"R. c #F3D17A",
"E. c #445781",
"W. c #64589A",
"Q. c #6A6F81",
"!. c #5B6CA2",
"~. c #6D65A3",
"^. c #9D9289",
"/. c #969797",
"(. c #8A8A92",
"). c #B79888",
"_. c #A39E98",
"`. c #AD938C",
"'. c #BAA387",
"]. c #BDA19C",
"[. c #919CA2",
"{. c #96A1A7",
"}. c #C59C87",
"|. c #CDA48C",
" X c #C6A589",
".X c #D3A988",
"XX c #D9B687",
"oX c #C6A692",
"OX c #D2A792",
"+X c #CEB396",
"@X c #E3BD89",
"#X c #EABFAC",
"$X c #D3C38B",
"%X c #D9C687",
"&X c #D9C497",
"*X c #FFCE82",
"=X c #E5CE91",
"-X c #DEC6BA",
";X c #EBC5AE",
":X c #E5CAA9",
">X c #F7CCA9",
",X c #ECD3A7",
"<X c #ECC5B3",
"1X c #EBCBB2",
"2X c #EACEBA",
"3X c #F3CBB3",
"4X c #FACDB4",
"5X c #F9CDBB",
"6X c #F9C7B3",
"7X c #E4D4B5",
"8X c #EAD2B8",
"9X c #F5D2B4",
"0X c #FDD4BC",
"qX c #FAD9BE",
"wX c #F8D6B5",
"eX c #FAD5A7",
"rX c #FFE9B9",
"tX c #F9E3AA",
"yX c #E0CDC9",
"uX c #FDD2C2",
"iX c #F7D9C6",
"pX c #FDCCC6",
"aX c #FDE6C8",
"sX c #FDF2CD",
"dX c #FFFBDA",
"fX c #FFF8D4",
"gX c #FEEDD9",
"hX c gray93",
"jX c #F9EEEB",
"kX c #FFFCE5",
"lX c #FAF3EB",
"zX c #FFFDED",
"xX c #F6F5EB",
"cX c #F5EDF3",
"vX c #F4F4F4",
"bX c #FBF5F3",
"nX c #F3FBF5",
"mX c #FDFBF5",
"MX c #FEF6FD",
"NX c #F5FDFE",
"BX c #FEFEFE",
"VX c #F7F7F9",
"CX c #EEFBF4",
/* pixels */
"BXBXBXBXBXBXBXBXBXBXBXBXBXBXBXBXBXBXBXmXBXBXBXBXBXBXVXBXBXBXNXNXBXNXBXBXMXMXBXMXBXBXBXBXmXBXmXBXBXBXBXBXBXBXBXBXBXBXBXBXBXBXBXBX",
"BXBXBXBXBXBXBXBXBXBXBXBXBXBXBXBXBXBXBXBXBXBXBXBXBXBXBXBXNXBXVXBXNXBXBXBXBXBXNXBXBXbXBXBXnXmXBXxXBXBXBXBXBXBXBXBXBXBXBXBXBXBXBXBX",
"BXBXBXBXBXBXBXBXBXBXBXBXBXBXBXBXBXBXBXBXBXBXBXBXBXBXBXBXBXBXBXBXBXBXBXVXBXBXBXBXBXBXBXmXmXBXBXBXBXBXBXBXBXBXBXBXBXBXBXBXBXBXBXBX",
"BXBXBXBXBXBXBXBXBXBXBXBXBXBXBXBXBXBXBXBXBXBXBXBXMXBXbXBXMXBXBXBXVXBXBXBXBXbXMXBXBXBXVXBXmXmXBXmXBXBXBXBXBXBXBXBXBXBXBXBXBXBXBXBX",
"BXBXBXBXBXBXBXBXBXBXBXBXBXBXBXBXBXBXBXBXBXBXBXBXBXMXz u BXBXBXmXBXBXBXBXv c n u > c ; c BXBXmXBXBXBXBXBXBXBXBXBXBXBXBXBXBXBXBXBX",
"BXBXBXBXBXBXBXBXBXBXBXBXBXBXBXBXBXBXBXBXBXBXBXBXBXvXc c MXBXBXMXMXmXbXlXi u u u B V , c BXVXBXmXBXBXBXBXBXBXBXBXBXBXBXBXBXBXBXBX",
"BXBXBXBXBXBXBXBXBXBXBXBXBXBXBXBXBXBXBXBXBXBXBXBXv v ' D u , BXBXy ; i n _ -.;.-._ &.= + BXmXVXBXBXBXBXBXBXBXBXBXBXBXBXBXBXBXBXBX",
"BXBXBXBXBXBXBXBXBXBXBXBXBXBXBXBXBXBXBXBXMXBXBXBXu x -.#.v e MXBXy e y h -.-.,.;.-.&.*   BXvXBXBXBXBXBXBXBXBXBXBXBXBXBXBXBXBXBXBX",
"BXBXBXBXBXBXBXBXBXBXBXBXBXVXBXBXBXBXBXmXBXBXBXbXt i D D ;.-.e e ! ! | =...,.) _ . . BXbXBXBXmXBXBXBXBXBXBXBXBXBXBXBXBXBXBXBXBXBX",
"BXBXBXBXBXBXBXBXBXVXBXVXBXBXVXBXBXBXmXBXBXbXBXMXi x R R  .-.p n ) ~ *.=.#.>.E ( @ $ jXBXbXBXmXBXBXVXBXBXVXBXVXBXBXBXBXBXBXBXBXBX",
"BXBXBXBXBXBXBXBXBXBXBXBXBXVXBXBXBXbXBXBXu 7 i i ( C s y ^ _ 7 8  . .,.| j r . @ y 7 i i BXmXBXBXBXBXVXBXBXBXBXBXBXBXBXBXBXBXBXBX",
"BXBXBXBXBXBXBXBXBXBXVXBXBXBXBXVXBXbXjXbXu s i r ) n p e Y ~ a 8  . .>.{ j r # # s s y y bXlXmXbXmXBXBXBXBXVXBXBXBXBXBXBXBXBXBXBX",
"BXBXBXBXBXBXBXBXBXBXVXBXBXVXBXBXz u i u R V ! ! *.>.,. .] Q Y ] Q T E / [ >.[ [ m R Y ( g e i i BXBXVXBXBXBXBXBXBXBXBXBXBXBXBXBX",
"BXBXBXBXBXBXBXBXVXBXBXBXBXBXvXBXe i e a V R E E [ :.>. .~ K k Y ] ~ ~ / [ >.:.:.) E ) m j y t t BXhXBXBXBXBXBXVXBXBXBXBXBXBXBXBX",
"BXBXBXBXBXBXBXBXBXVXBXBXBXhX<   g s m V ^ ] :.[ :.o.:.>.,.,.,.o...[ [ [ o.:.>.>.[ *.! ~ N h j u   < vXBXBXVXVXBXBXBXBXBXBXBXBXBX",
"BXBXBXBXBXBXBXBXBXBXBXBXmXBX  . u h V R R ~ | o.:.o.o.>... .o.>.>.>.>.>.>.o.:. .=.| ) ! ! ! i y .   BXVXBXBXBXBXBXBXBXBXBXBXBXBX",
"BXBXBXBXBXBXBXBXBXBXBXBX  $ M D D ! ( ^ . # 7 8 K ~  . . .=.=. .:.:.:.=. . .^ N 9 ; @ . ^ ! E R ( M O   BXBXBXBXBXBXBXBXBXBXBXBX",
"BXBXBXBXBXBXBXBXBXBXbXBX. * M V D V ! N # % y a ~ Q .. .=.|  . .#.o.[ =.| ..! ~ g 9 % % N ! V ! V M * . BXVXBXVXBXBXBXBXBXBXmXBX",
"BXBXBXBXBXBXBXBXBXVXBXBXvXlXBXmX. . t x n j W Y R R _ E Q ~ _ ~ Q ] ~ ~ Q ..T T Y T j M h e . . mXBXbXxXBXBXBXBXBXBXBXBXBXBXBXBX",
"BXBXBXBXBXBXBXBXBXBXbXbXBXmXmXjX. @ t i ! W ! Y ) U E E / Q K U K K ! ~ T E U } E ~ T ! y e +   jXmXmXBXbXcXBXBXBXBXBXBXBXBXmXBX",
"BXBXBXBXBXBXBXBXBXBXBXBXmXmX  $ Z Z N M ^ ( R ( ] R } E T Y d q a f Y Q T } T } E } E ( M N A Z $ . mXmXBXBXBXBXBXBXBXBXBXBXBXBX",
"BXBXBXBXBXBXBXBXVXBXbXBXmXBX. . ! ^ W ! ) ) R R R E U E J K P 4 0 K L K T J E E E R ) ) ! ! ^ Z .   BXBXBXbXBXVXBXBXBXBXBXBXmXBX",
"BXBXBXBXNXBXBXBXBXVXBXvXu u ; , ! W W ! R C x p R ) E E d H m.}.}.m.w H T E ~ E p s C R ! ! ! ! e ; u u vXBXMXBXBXBXBXBXBXBXBXBX",
"BXBXBXBXBXBXBXBXbXBXBXBXu t i g W N ~ ~ ) C x p U ] T J w 5 oX|.OX.X5 0 L T ) m e s m ) ~ ~ Y E y g , g BXmXBXVXBXBXBXBXBXBXmXBX",
"BXmXBXBXBXBXBXBXBXBXBXbX+ . B Z ^ W W Y y s E R r p q 2  X|.<X0X5X6X|.|.q q 6 e Y E s s E U E W ^ B + + mXBXBXBXBXBXBXNXBXBXBXBX",
"BXBXBXBXBXBXBXNXBXBXBXBX$ * N ^ W K ~ ~ 8 a Y Y p q w H ).OX1X;X6X6XOXn.5 w w d U } 7 8 ~ E Q ~ ( A = + BXMXBXBXBXBXBXBXBXBXBXBX",
"BXBXBXBXBXBXBXBXBXBX  + v B ` N Q Q W U # % k ] a 1 iX<X1X3X0X0X9XiX;X1XiXpX).)./ / # # j K W ! N ` F v +   MXBXBXBXBXBXBXBXmXBX",
"BXBXBXBXBXBXBXBXBXBX  . M ' B Z Y J Q Q % 6 k W 3 J iX2X0X3X0X3X1X9XqXwX3X#X}.OXG / 2 3 K { W k A B D B .   BXBXBXBXBXBXBXBXBXBX",
"BXBXBXBXBXBXBXBXBXBXvXBXBXmXM y d d `.).E j a 0 +Xb.M.+X3XiX4X9X3X1X9X;XOX.XK.}.|.n.L / ).^.j 8 y M BXBXBXvXBXBXBXBXBXBXBXBXmXBX",
"BXBXBXBXBXBXBXBXVXBXBXmXBXlX7 n q 2 ).oX/ J K 3 oX). Xm.;X3X3X0XwXiX9X3X|.m..X}.n.K.P P oX).d q M ; bXmXBXBXBXbXBXBXBXBXBXBXmXBX",
"BXmXBXBXBXBXBXBXBXBXMXBXBXmXbXmXj H ).`.0 w b.'.aXdXQ / rX0X4X0XuX4X4X0XI O.fXrX'.M.w w `.).q q mXbXmXBXBXVXBXBXBXBXBXBXBXBXBXBX",
"BXBXBXBXBXBXBXBXMXBXBXBXbXBXmXmX8 8 ].].8 6 '.'.dXgX../ <X4X4X4X4X0X>X0X/ I kXgXM.n.0 4 ).oXq r bXmXBXmXBXMXBXBXBXBXBXBXBXBXBXmX",
"BXBXBXBXBXBXBXBXBXBXBXBXBXBXBXBXBXBXD D # # 8XyXlXBX  @ uX6XeXeXeX>X6XpX#   BXlXyX2X# # V D BXBXBXBXBXBXBXBXBXBXBXBXBXBXBXBXBXBX",
"BXBXBXBXBXBXBXBXBXBXBXBXBXBXBXBXmXCXg D & & iXiXlXhX$ @ pX6XwXeXeXwX6XpX@ $ jXlXiXiX& & D c hXBXBXBXBXBXBXBXBXBXBXBXBXBXBXBXBXBX",
"BXBXBXBXBXBXBXBXBXBXBXBXBXBXBXmXzXzXmXmXb < 3 6 7X7X7XuX5X5XwX,X,XwX0X5X8X7X:X7X6 3 u b BXmXzXzXBXBXBXBXBXBXBXBXBXBXBXBXBXBXBXBX",
"BXBXBXBXBXBXBXBXBXBXBXBXBXBXBXBXzXzXnXnX< v y 6 aXtX:X9X6XuX7X:X,X1XuX3X9X,XwXrX6 y z < nXnXzXzXBXBXBXBXBXBXBXBXBXBXBXBXBXBXBXBX",
"BXBXBXBXBXBXBXBXBXBXBXBXBXBXBXBXzXlXNXBXBXMX# # # # K..X<X<XoX X X+X<X3X.XJ.1 # # # BXBXBXNXxXzXmXBXBXBXBXBXBXBXBXBXBXBXBXBXBXBX",
"BXBXBXBXBXBXBXBXBXBXBXBXBXBXBXBXBXxXBXBXMXMX@ # 2 1 K..X<XiX}.).n.).uX<X.Xn.1 3 # # MXMXBXBXvXBXBXBXBXBXBXBXBXBXBXBXBXBXBXBXBXBX",
"BXBXBXBXBXBXBXBXBXBXBXBXBXBXBXBXBXBXMXBX# 1 O.0.w.a.# # # # L P P L # # % # a.w.0.O.# # BXMXBXMXBXBXBXBXBXBXBXBXBXBXBXBXBXBXBXBX",
"BXBXBXBXBXBXBXBXBXBXBXBXBXBXBXBXMXVXBXmX2 5 9.s.q.+.3 . # 1 L P P L # . @ 3 +.q.s.9.5 1 mXBXBXNXBXBXBXBXBXBXBXBXBXBXBXBXBXBXBXBX",
"BXBXBXBXBXBXBXBXBXVXBXBXvXBXVXBXNXCX  # c.A.e.p.@ . =XXXh.i.n.K.K.n.0.j.$X&X. @ p.e.A.c.#   CXNXBXVXBXvXBXBXVXBXBXBXBXBXBXBXBXBX",
"BXBXBXBXBXBXBXBXBXBXBXBXBXBXVXNXNXNX. 3 N.g.w.0.@ @ P.L.j.j. Xn.n.|.j.j.L.P.@ # 0.w.g.N.2 . nXNXNXVXBXBXBXBXVXBXBXBXBXBXBXBXBXBX",
"BXBXBXBXBXBXBXBXBXBXBXBXBXBXBXBX    x.y.V.N.# $ $X%Xf.f.L.XX_ #.#.) XXI.f.f.%X$X$ # N.V.y.x.    BXBXBXMXBXBXBXBXBXBXBXBXBXBXBXBX",
"BXBXBXBXBXBXBXBXVXBXBXvXBXBXvXVX  $ A.F.D.c.@   $XL.r.r.T.,X#.1.1.#.,XT.r.r.L.%X. . c.D.F.H.%   NXvXBXBXvXBXBXBXBXBXBXBXBXBXBXBX",
"BXBXBXBXBXBXBXBXBXBXBXBXBXBXO   . # s.Z.2 # zXfXm.C.8.t.U.#X5.E.3.4.@XP.t.u.l.n.fXzX# 2 Z.c.# .   O BXBXBXBXBXBXBXBXBXBXBXBXBXBX",
"BXBXBXBXBXBXBXBXVXBXVXmXBXBX  + % 2 J.c.1 # zXdXc.N.g.y.Y.OX4.~.~.4.+XY.y.B.N.v.dXkX# 3 s.A.# % .   BXBXVXVXBXVXBXBXBXBXBXBXBXBX",
"BXBXBXBXBXBXBXBXBXBXBXBXBXBXc M ).J.A.H.f w . # S.C.U.U.z.x.4.W.W.5.s.z.U.U.N.S.@ . w G J.A.J.K.M c BXBXBXBXBXBXBXBXBXBXBXBXBXBX",
"BXBXBXBXBXBXBXBXBXBXBXBXBXBXc j K.J.H.s.I f . # z.C.R.P.v.`.3.~.~.W.`.v.Y.*Xl.z.# . f f s.J.J.K.h c BXBXBXBXBXBXBXBXBXBXBXBXBXBX",
"BXBXBXBXBXBXBXBXBXBXBXBXBXBXc g iX>X9XiXt j # # k.S.Y.XX@ : 2.!.!.2.O % XXY.S.z.# # j e iX8X>XwXg c BXNXBXBXBXBXBXBXBXBXBXBXBXBX",
"BXBXBXBXBXBXBXBXBXBXVXBXBXvX` g :XwX-XyXV y 1 1 S.S.@X:X  l %.2.%.2.l   1X@XS.v.1 1 r V yX-XqX:Xg X.hXBXBXVXBXBXBXBXBXBXBXBXBXBX",
"BXBXBXBXBXBXBXBXVXBXBXBXBXBXhXmXk k x V . # x.l.T.%XI j &.@.l : : l @.;.9 I %XT.k.x.1 . V n k L mXhXBXBXBXBXBXVXBXBXBXBXBXBXBXBX",
"BXBXBXBXBXBXBXBXBXBXBXBXBXBXBXBX8 j n n @ # k.S.R.P.I S 3.@.z & : : @.$.b I P.T.S.k.# . x n j 8 BXBXBXBXBXBXBXBXBXBXBXBXBXBXBXBX",
"BXBXBXBXBXBXBXBXBXVXBXVXBXBXBXBXmXlXBXMX# 2 z.f.T.P.  - 3.6.5.7.p #.Q.3.<   P.R.f.l.2 # MXBXbXmXmXBXBXBXBXVXVXBXBXBXBXBXBXBXBXBX",
"BXBXBXBXBXBXBXBXBXBXBXBXVXBXBXBXvXBXMXMX# 1 l.C.=X$X- o Q.Q.7.a.#.C 7.6.  - $XT.C.l.1 # MXMXBXlXBXBXBXBXBXBXBXBXBXBXBXBXBXBXBXBX",
"BXBXBXBXBXBXBXBXBXBXBXBXVXBXmXBXBXcX> . <.i.k.z.tXsX  o {.(.7.7.R V [.[.    fXrXv.k.i.<.. > cXBXBXBXBXVXBXBXBXBXBXBXBXBXBXBXBXBX",
"BXBXBXBXBXBXBXBXBXBXBXBXBXBXBXBXcXBX.   a.i.x.m.sXkX-   _./.7.d.R V /./.  - kXsXm.x.i.a..   MXvXBXBXVXBXBXBXBXBXBXBXBXBXBXBXBXBX",
"BXBXBXBXBXBXBXBXBXBXBXBXBXBXBXBXBXBXBXMX# # @ $ . .     _._.b D D v _._..     . # @ # @ BXMXBXBXBXBXBXBXBXBXBXBXBXBXBXBXBXBXBXBX",
"BXBXBXBXBXBXBXBXBXBXBXBXBXBXBXBXBXNXBXjX% . . + X   = # ^.^.S S S S ^.^.# =   X + . . # jXBXNXBXBXBXBXBXBXBXBXBXBXBXBXBXBXBXBXBX",
"BXBXBXBXBXBXBXBXBXBXBXBXBXBXBXBXBXmXMXMXMXMXVXBX  O ) ]  .X.- o o - X.=.] ) & X BXNXMXMXMXbXBXmXBXBXBXBXBXBXBXBXBXBXBXBXBXBXBXBX",
"BXBXBXBXBXBXBXBXBXBXBXBXBXBXBXBXmXmXBXMXMXBXNXNX: > -. . .Z     X   Z [ :.-.O : NXNXMXMXMXBXmXBXBXBXBXBXBXBXBXBXBXBXBXBXBXBXBXBX",
"BXBXBXBXBXBXBXBXBXBXBXBXBXBXBXBXBXNXbXMXBXBXNXNXNXhX+ # # & mXnXnXmX& # # . cXNXNXNXBXBXMXvXBXBXBXBXBXBXBXBXBXBXBXBXBXBXBXBXBXBX",
"BXBXBXBXBXBXBXBXBXBXBXBXBXBXBXBXBXBXBXBXBXNXNXNXBXMX. & . . BXmXmXBX@ . & . MXBXNXNXNXBXBXBXBXNXBXBXBXBXBXBXBXBXBXBXBXBXBXBXBXBX",
"BXBXBXBXBXBXBXBXBXBXBXBXBXBXBXBXNXBXVXBXBXNXNXBXnXmXBXcXMXBXmXmXmXmXBXBXvXmXnXmXBXnXBXBXBXVXBXBXBXBXBXBXBXBXBXBXBXBXBXBXBXBXBXBX",
"BXBXBXBXBXBXBXBXBXBXBXBXBXBXBXBXBXBXBXnXBXnXNXmXmXmXmXBXBXBXBXmXmXBXMXBXBXmXnXmXNXBXnXBXvXBXBXBXBXBXBXBXBXBXBXBXBXBXBXBXBXBXBXBX"
};
