/* XPM */
static char *tile015[] = {
/* columns rows colors chars-per-pixel */
"64 64 232 2 ",
"   c #040102",
".  c #0C0101",
"X  c #0B0A06",
"o  c #0C0C0D",
"O  c #040908",
"+  c #130101",
"@  c #1B0100",
"#  c #130C00",
"$  c #1D0903",
"%  c #12040A",
"&  c #180E0C",
"*  c #17070C",
"=  c #1D120E",
"-  c #181400",
";  c #180E12",
":  c #1D1312",
">  c #1B1A1B",
",  c #181418",
"<  c #0C0C0F",
"1  c #230200",
"2  c #220B01",
"3  c #240F0C",
"4  c #290C05",
"5  c #300200",
"6  c #2C1104",
"7  c #25120D",
"8  c #2B130D",
"9  c #251903",
"0  c #31160B",
"q  c #331807",
"w  c #241514",
"e  c #2A1614",
"r  c #241915",
"t  c #2C1A15",
"y  c #231619",
"u  c #2C1619",
"i  c #251B1B",
"p  c #2B1C1B",
"a  c #321A14",
"s  c #321C1A",
"d  c #351915",
"f  c #230F11",
"g  c #2B211D",
"h  c #2A2118",
"j  c #33221C",
"k  c #3B251D",
"l  c #36240E",
"z  c #261B21",
"x  c #2A1D23",
"c  c #252323",
"v  c #2C2221",
"b  c #262A28",
"n  c #332422",
"m  c #392522",
"M  c #352A23",
"N  c #3C2A25",
"B  c #3C2C2A",
"V  c #352B29",
"C  c #2D362E",
"Z  c #3E302B",
"A  c #3B342B",
"S  c #3A3733",
"D  c #2A3531",
"F  c #43291B",
"G  c #4C361A",
"H  c #452D26",
"J  c #492E25",
"K  c #442E29",
"L  c #492F29",
"P  c #443026",
"I  c #4A3026",
"U  c #45312C",
"Y  c #4A322C",
"T  c #51332C",
"R  c #443331",
"E  c #4B3631",
"W  c #4D3A34",
"Q  c #4C3D3B",
"!  c #483938",
"~  c #523633",
"^  c #523B35",
"/  c #533D3A",
"(  c #583F39",
")  c #5B3435",
"_  c #633436",
"`  c #4E413E",
"'  c #53433C",
"]  c #5C433D",
"[  c #5E493E",
"{  c #61423D",
"}  c #6B423B",
"|  c #6C5439",
" . c #76603B",
".. c #5D4541",
"X. c #5E4A43",
"o. c #5C4B4A",
"O. c #534747",
"+. c #544E48",
"@. c #624742",
"#. c #634B44",
"$. c #634C49",
"%. c #6B4D45",
"&. c #68514B",
"*. c #655E56",
"=. c #6B6358",
"-. c #746454",
";. c #716B65",
":. c #9D5C13",
">. c #945B1C",
",. c #9A5B0B",
"<. c #9F691F",
"1. c #AF601B",
"2. c #955923",
"3. c #8F5734",
"4. c #965F39",
"5. c #8E5C29",
"6. c #A55A20",
"7. c #8C6528",
"8. c #9B6323",
"9. c #866439",
"0. c #986B3B",
"q. c #957233",
"w. c #8C713A",
"e. c #A66A29",
"r. c #A8733B",
"t. c #B6742E",
"y. c #C87C28",
"u. c #C37E39",
"i. c #836845",
"p. c #8A6B55",
"a. c #966F4C",
"s. c #B17D44",
"d. c #A7784E",
"f. c #BD882A",
"g. c #BB9334",
"h. c #BB8539",
"j. c #CC8424",
"k. c #C8882C",
"l. c #D28629",
"z. c #D78B2B",
"x. c #C78336",
"c. c #C48C33",
"v. c #CC863A",
"b. c #CB8B3E",
"n. c #C88938",
"m. c #D68A37",
"M. c #CC9233",
"N. c #C69237",
"B. c #D99138",
"V. c #E5953E",
"C. c #AD8844",
"Z. c #B48644",
"A. c #B7894C",
"S. c #BA974A",
"D. c #AB8A56",
"F. c #B88955",
"G. c #B99155",
"H. c #A89252",
"J. c #AC8B67",
"K. c #B38B66",
"L. c #AF9064",
"P. c #B79768",
"I. c #AF9F7B",
"U. c #B79779",
"Y. c #B7A077",
"T. c #CC8B43",
"R. c #C88B48",
"E. c #D98D4C",
"W. c #C99344",
"Q. c #D59449",
"!. c #C68B56",
"~. c #C39452",
"^. c #C79859",
"/. c #D3B05F",
"(. c #D3A044",
"). c #EBB957",
"_. c #C19A72",
"`. c #DDB767",
"'. c #C2A175",
"]. c #D4B06E",
"[. c #E9B767",
"{. c #F1BE64",
"}. c #E4BC77",
"|. c #F3BD78",
" X c #DCC373",
".X c #EBC36D",
"XX c #EBC36B",
"oX c #F7C669",
"OX c #E9C478",
"+X c #F9C775",
"@X c #A99786",
"#X c #BA9B8A",
"$X c #B79E95",
"%X c #AE9389",
"&X c #BCA386",
"*X c #BCA293",
"=X c #B9A59B",
"-X c #BEB089",
";X c #C49E8B",
":X c #C5A697",
">X c #E0BA84",
",X c #EBBF8F",
"<X c #C3AFA6",
"1X c #DCC38A",
"2X c #E9C282",
"3X c #E6C996",
"4X c #F3CD83",
"5X c #DFC2B2",
"6X c #F1CBBB",
"7X c #EFD1C9",
"8X c #F4D3C5",
"9X c #FAD8CA",
"0X c #F3CCC7",
"qX c #FFFAC8",
"wX c #F7F2D4",
"eX c #F9EFD4",
"rX c #EEEEED",
"tX c #F3EAE9",
"yX c #FDFEEF",
"uX c #FAF8EB",
"iX c #F5EFF3",
"pX c #EFF9FB",
"aX c #EFF3F4",
"sX c #F5F5F4",
"dX c #FDF5F4",
"fX c #F6FEF5",
"gX c #FDFCF5",
"hX c #F5F6F9",
"jX c #FEF5FD",
"kX c #F5FDFE",
"lX c #FEFEFE",
"zX c #EEEEF6",
/* pixels */
"lXlXlXlXlXlXlXlXlXlXlXlXlXlXlXlXjXlXjXlXjXlXgXlXgXlXlXdXlXfXlXkXfXlXlXlXlXlXlXlXlXlXlXlXlXlXlXlXlXlXlXlXlXlXlXlXlXlXlXlXlXlXlXlX",
"lXlXlXlXlXlXlXlXlXlXlXlXlXlXlXlXlXjXlXiXlXgXdXlXjXgXlXgXsXfXlXlXlXlXiXhXdXlXjXhXlXlXlXlXlXlXlXkXlXlXlXlXlXlXlXlXlXlXlXlXlXlXlXlX",
"lXlXlXlXlXlXlXlXlXlXlXlXlXlXlXlXjXlXc c x : : r w i gXgXlXlXfXsXlXgXc i lXdXlXlXlXlXlXlXlXlXkXlXlXlXlXlXlXlXlXlXlXlXlXlXlXlXlXlX",
"lXlXlXlXlXlXlXlXlXlXlXlXlXlXlXlXlXlX; : x n x p p i jXlXdXlXlXdXdXgXi y gXlXdXlXlXlXlXlXlXlXlXlXlXlXlXlXlXlXlXlXlXlXlXlXlXlXlXlX",
"lXlXlXlXlXlXlXlXlXlXlXlXlXlXlXlXlXlX. ; Q O.o.` o.! p i = i gXlXg h ` O.r i lXlXlXgXlXlXlXlXlXlXlXlXlXlXlXlXlXlXlXlXlXlXlXlXlXlX",
"lXlXlXlXlXjXlXlXlXlXlXlXlXlXlXlXjXlX  & S ` o./ X.` B p i r dXjXg j ` ` g p dXgXlXlXlXlXlXlXlXlXlXlXlXlXlXlXlXlXlXlXlXlXlXlXlXlX",
"lXlXlXlXlXlXlXlXlXlXlXlXlXlXlXlXdXjXdXlX. y B ' o.o.] O.U B V j ' ' W R t j dXdXlXlXlXlXlXlXlXlXlXlXlXlXlXlXlXlXlXlXlXlXlXlXlXlX",
"lXlXlXlXlXlXlXlXlXlXlXlXlXlXlXlXlXdXlXdX. + j U $.X.X...! K t u &.' Y N t g dXgXdXlXlXlXlXlXlXlXlXlXlXlXlXlXlXlXlXlXlXlXlXlXlXlX",
"lXlXlXlXlXlXlXlXlXlXlXlXlXlXgXgXlXdX: g p 7 + . e e $...$...+ + P ^ 4 7 E E 7 g r p gXlXlXlXdXgXlXlXlXlXkXlXlXlXlXlXlXlXlXlXlXlX",
"lXlXlXlXlXlXlXlXsXfXsXlXgXgXlXgXdXtXN g 7 8 $ $ 4 u ] ] ] / + @ H L 8 8 P L 3 7 r & gXiXgXlXjXlXlXhXlXkXjXlXgXlXlXlXlXlXlXlXlXlX",
"lXjXlXlXlXlXlXlXlXlXlXlXdXlXi i r n n R N U ..^ Y E ~ L E ~ K T ~ Y P P $.X.W U U N n n = r lXlXgXlXgXlXlXgXlXlXlXlXlXlXlXlXlXlX",
"lXlXlXlXlXlXlXlXsXlXuXsXlXdXi r p j U U P W ' X.L Y K L L L L L J F Y Y ] / Y K R L p i = j tXdXgXlXlXlXlXkXlXlXlXlXlXlXlXlXlXlX",
"lXlXlXlXlXlXlXlXlXlXlXlX. . p g N K R U ` ' ' &.] ] Y P Y I L T Y J %.] &.$.#.X.R P N Z t e $ . lXlXgXlXlXkXlXlXlXlXlXlXlXlXlXlX",
"lXlXlXlXlXlXlXkXlXuXlXdX. + r e B U N Y [ [ #.[ { ] ^ Y Y Y L Y J H $._ @.$.( @.K N Y B k 7 = . lXiXlXlXlXgXlXhXlXlXlXlXlXlXlXlX",
"lXlXlXlXlXlXlXlXsXlX  . V B U R K E + $ l j E ] [ ] [ [ @.] ( ( #.@.%.@.{ ] a s $ $ N U k Z B M   > rXlXlXlXgXlXlXlXlXlXlXlXlXlX",
"lXlXlXlXlXkXlXlXgXlX  X V Z R R U N + $ 8 t X.' X.| [ [ { ] @.#.@.@.$.@.{ #.3 8 + @ k H U W U R     lXgXlXlXkXlXlXlXlXlXlXlXlXlX",
"lXlXlXlXlXlXlXlXlXsXlXlXjXlX% . = s K U U K K Y H Y ] @.@.....#.%.{ T L L L U L I k t 7 . . dXlXkXlXgXlXlXlXlXkXlXlXlXlXlXlXlXlX",
"lXlXlXlXlXlXlXlXlXlXjXlXjXdX% % u m K U L K K Y E ~ ] @.......@.{ ) T L L E K L k I t 7 = . lXlXlXlXlXlXlXlXlXlXlXlXlXlXlXlXlXlX",
"lXlXlXlXlXlXlXlXlXiXlXlX. . B B K K K L K L L E H H H L L L L L T T T L Y L P L W I E Z M V     sXhXlXkXgXhXkXlXlXlXlXlXlXlXlXlX",
"lXlXlXlXlXlXlXlXjXlXlXlX. . B Z K U L K K K L L Y L H H L L L H J J L Y L K K L k Y H H ! V < . lXdXlXlXlXlXlXgXlXlXlXlXlXlXlXlX",
"lXgXlXlXlXlXlXlXdXlXi i r r U ` E J L J L L L L Y L H L J I J J J J L L K K K U T I I T R B n , , , lXgXlXlXlXlXlXlXlXlXlXlXlXlX",
"lXlXlXlXlXlXlXlXlXgXg : g t g P L J J J E L L H L H J L Y Y J J J J J J K K L P I k T N K B u i > ; lXlXlXlXlXgXlXlXlXlXlXlXlXlX",
"lXlXgXlXlXlXlXlXdXlX  = Z P W U H J I I J J H H J L Y L J J J J J J J K K U Y L Y T G Y Y K Q Z X O lXgXkXkXjXlXlXlXlXlXlXlXlXlX",
"lXlXlXlXlXlXlXlXlXgX. . Z Z P P F J I J J H L L H J Y Y J J J Y L H K K K U L J J G I H L U B R     lXlXlXgXlXlXlXlXlXlXlXlXlXlX",
"lXlXlXlXlXlXlXlX    = w t h A P 0 q 6 0 J Y Y K P U Y L L L J J I L H L U U P L 8 0 0 0 J K e r i , o   lXgXlXlXlXlXlXlXlXlXlXlX",
"gXlXlXlXlXlXlXlX. X h = h t k A q F q d F H Y H U U U U U P Y Y L P U K B H K P 0 6 0 d H B p x c ,   o iXlXkXgXlXlXlXlXlXlXlXlX",
"lXlXlXgXlXlXlXlXsXlXfXlX= > . + $X%Xd q 8 8 t s K K U L L L L L H P U N t e e t t 2 $X$X. $ 3 : fXlXlXlXhXgXlXlXlXlXlXlXlXlXlXlX",
"lXlXlXlXlXlXlXlXlXgXlXdXg h X . ;X#X4 0 8 7 e u R R R U R U K L K E ! B j e 8 e a u $X$X+ . i p gXlXlXlXkXlXlXhXlXlXlXlXlXlXlXlX",
"gXlXlXlXlXlXlXlXlXlXlXlXrXiX. . %X:XJ H a e u u i y u u u e e e 3 8 e w r u u t H Y @X<X. . lXdXkXlXlXlXlXlXlXlXlXlXlXlXlXlXlXlX",
"lXlXlXlXlXlXlXlXlXlXlXhXlXlXX   $X$XT k 8 3 e w p i p i p t s a d u u u p u u e P ^ $X=X. . dXlXlXlXlXhXlXlXlXlXlXlXlXlXlXlXlXlX",
"lXlXlXlXlXlXlXlXkXkXhXlXsXlXlXlXK H @ 2 e w u i u y y u r t u t u u u u u u r t + $ k N gXdXdXlXlXhXlXlXlXgXlXlXlXlXlXlXlXlXlXlX",
"lXlXlXlXlXlXlXlXlXlXlXkXlXlXlXlXR s $ + e u i y z z i u t u u r s u u u x i y y . X M R gXlXlXgXlXlXgXlXkXlXlXlXlXlXlXlXlXlXlXlX",
"lXlXlXlXlXlXlXlXlXlXlXgXlXgXlXlXlXhXjXjX. + p z z x u f a j & i z z 3 m ; , < O kXfXgXlXlXlXkXkXlXlXlXlXlXlXlXlXlXlXlXlXlXlXlXlX",
"lXlXlXlXlXlXlXlXkXlXlXlXlXlXkXlXkXlXjXjX% % : y ; z s 4 a e : c z y u e u V O O kXfXgXgXjXlXkXlXlXlXlXlXlXlXlXlXlXlXlXlXlXlXlXlX",
"lXlXlXlXlXlXlXlXlXlXlXlXhXlXlXuX  . x y * + . . + $ 8 d d s p p u 9 @ + + . jXkXfXgXgXjXjXjXlXfXlXlXlXlXlXlXlXlXlXlXlXlXlXlXlXlX",
"lXlXlXlXlXlXlXlXgXlXlXlXlXlXsXlX  $ $ u + + $ $ + + d 0 8 8 r 2 2 q @ @ 1 1 uXdXyXgXlXlXlXjXlXfXlXlXlXlXlXlXlXlXlXlXlXlXlXlXlXlX",
"lXlXlXlXlXlXlXlXlXlXgXlXhXlX    =X#X;X&X. 9 | w.3X1X7.a.+ $ 1 @ d.w.3X3X0.0.+   gXlXjXlXlXjXlXjXlXlXlXlXlXlXlXlXlXlXlXlXlXlXlXlX",
"lXlXlXlXlXlXlXlXhXlXlXkXlXlX  X #XU.U.-X. #  .9.>X'.C.q.$ $ 1 @ q.7.}.2Xe.r.$ . lXiXlXlXlXlXjXjXlXlXlXlXlXlXlXlXlXlXlXlXlXlXlXlX",
"lXlXlXlXlXlXlXlXlXlXlXlXgXlX  . Y.'.P.-X. X $ 4 d.r.`./.S.H.^.C.`.4X8.>.~.C.F.Y.  > zXlXlXjXdXlXlXlXlXlXlXlXlXlXlXlXlXlXlXlXlXlX",
"lXlXlXlXlXlXlXlXlXlXlXlXlXlX  + Y.Y.I.@X# . . + 3.r.`.XXg.g.N.W..XOX2.>.~.^.C.L.+   lXkXlXlXlXgXlXlXlXlXlXlXlXlXlXlXlXlXlXlXlXlX",
"lXlXlXlXlXlXlXlXlXlXlXkXlXlXlXjX$ @ .   lXdX+ @ 4.2..XXXc.c.b.N.+X[.e.>.5 1 G.J.+   lXlXlXlXgXgXlXlXlXlXlXlXlXlXlXlXlXlXlXlXlXlX",
"lXlXlXlXlXlXlXlXlXgXlXgXlXlXhXlX* %     lXdX@ 1 0.e.[.{.M.j.m.n.+X+X,.>.1 1 P.J.+   lXaXfXgXlXlXlXlXlXlXlXlXlXlXlXlXlXlXlXlXlXlX",
"lXlXlXlXlXlXlXlXlXlXkXlXlXjXlXlXjXjXlXlX  @ K.^.OX`.(.M.k.M.B.l.t.n.OX4XA.F.@ @ + . sXlXfXfXkXlXlXlXlXlXlXlXlXlXlXlXlXlXlXlXlXlX",
"lXlXlXlXlXlXlXlXlXlXgXlXlXkXlXgXjXjXjXdX2 @ !.h..XXXk.k.j.l.l.B.B.W.`.OXF.J.4 + + @ lXsXfXfXlXlXlXlXlXlXlXlXlXlXlXlXlXlXlXlXlXlX",
"lXlXlXlXlXlXlXlXlXlXlXlXlXgXlXlXlXgX# + D.G.h.(.).oXM.M.z.z.y.z.j.T.}.}.@ 1 5X9X:X;X. X uXgXfXhXlXlXlXlXlXlXlXlXlXlXlXlXlXlXlXlX",
"lXlXlXlXlXlXlXlXhXlXgXlXlXlXsXfXgXwX+ 1 Z.Q.c.f.oX).f.f.z.z.z.y.V.n.4X X+ @ 7X8X#XU.. . gXfXlXkXlXlXlXlXlXlXlXlXlXlXlXlXlXlXlXlX",
"lXlXlXlXlXlXlXlXlXdXkXlXlXrX>   O - P.s.E.v.).+Xc.c.W.b.m.j.m.z.l.l.c.S.+ + 7X0X6X9X1 . lXlXlXlXlXlXlXlXlXlXlXlXlXlXlXlXlXlXlXlX",
"lXlXlXlXlXlXlXlXkXlXlXlXgXlX  O O . A.R.x.B.[.oXQ.u.T.b.T.v.E.y.m.l.N.S.+ + 9X0X6X8X+ . lXkXlXkXlXlXlXlXlXlXlXlXlXlXlXlXlXlXlXlX",
"lXlXlXlXlXlXlXlXlXkXlXlXgXlX  X H.G.R.v.oX{..X.X:.1.m.x.W.W.x.E.m.B.,.e.A.^.@ 1 + + gXdXkXkXkXkXlXlXlXlXlXlXlXlXlXlXlXlXlXlXlXlX",
"lXlXlXlXlXlXlXlXlXdXlXlXlXrX>   P.A.Q.v.+X}. XOX8.6.E.R.~.~.F.!.u.v.:.:.!.F.1 1 4 + uXlXlXlXkXlXlXlXlXlXlXlXlXlXlXlXlXlXlXlXlXlX",
"lXlXlXlXlXlXlXlXgXlXkXlXlXlXiXgX+ @ 2.e.A.D.qXqX4.4.!.K.1 @ 1 1 !.T.e.>.,X,XD.U.9.| + . gXdXjXsXlXlXlXlXlXlXlXlXlXlXlXlXlXlXlXlX",
"lXlXlXlXlXlXlXlXlXlXgXlXlXgXlXgX. @ p.a.K.J.eXeXp.p.d.K.1 6 + + _.s.5.5.>X,X'.J.i.| + $ gXgXgXlXlXlXlXlXlXlXlXlXlXlXlXlXlXlXlXlX",
"lXlXlXlXlXlXlXlXlXlXlXlXlXlXlXgXlXdX@ + + X #     * + $ -.*.O   q G G G $ . . . #   dXdXlXhXlXgXlXlXlXlXlXlXlXlXlXlXlXlXlXlXlXlX",
"lXlXlXlXlXlXlXlXlXlXgXlXlXgXlXkXiXlX. . .     o   o   . ;.;.< O S k > h   X .     < lXlXlXlXlXhXlXlXlXlXlXlXlXlXlXlXlXlXlXlXlXlX",
"lXlXlXlXlXlXlXlXlXgXlXhXlXlXhXlXlXiXfXlXgXgXX   C C *.*.B S b b kXlXlXlXhXlXhXlXkXaXlXlXlXkXlXlXlXlXlXlXlXlXlXlXlXlXlXlXlXlXlXlX",
"lXlXlXlXlXlXlXlXlXlXlXgXlXlXlXlXkXlXfXfXfXgX    C b =.=.k j S D lXlXlXaXlXlXhXlXlXlXlXlXlXlXgXfXlXlXlXlXlXlXlXlXlXlXlXlXlXlXlXlX",
"lXlXlXlXlXlXlXlXlXlXlXlXlXlXlXlXkXlXfXfXyXgXlXlXO O ' %.%.( . O lXfXlXlXgXgXlXgXgXlXgXlXlXdXgXlXlXlXlXlXlXlXlXlXlXlXlXlXlXlXlXlX",
"lXlXlXlXlXlXlXlXlXlXlXlXlXlXlXlXlXlXkXyXyXyXjXlXO X [ } _ %.+ o gXlXgXgXgXlXjXlXlXlXlXgXgXlXlXlXlXlXlXlXlXlXlXlXlXlXlXlXlXlXlXlX",
"lXlXlXlXlXlXlXlXlXlXlXlXlXlXlXlXlXlXkXgXgXgXlXlX    / ) _ _ .   lXlXlXlXlXlXlXlXlXlXlXlXlXlXlXlXlXlXlXlXlXlXlXlXlXlXlXlXlXlXlXlX",
"lXlXlXlXlXlXlXlXlXlXlXlXlXlXlXlXlXlXfXkXlXgXlXlX<   ~ ) _ _ + % lXlXlXjXlXlXlXlXlXkXlXlXlXlXkXlXlXlXlXlXlXlXlXlXlXlXlXlXlXlXlXlX",
"lXlXlXlXlXlXlXlXlXlXlXlXlXlXlXlXlXlXlXlXlXlXlXlXlXjX. + + + dXjXlXlXlXlXlXlXlXlXlXlXlXkXlXkXlXfXlXlXlXlXlXlXlXlXlXlXlXlXlXlXlXlX",
"lXlXlXlXlXlXlXlXlXlXlXlXlXlXlXlXlXlXlXlXlXlXlXlXlXlX. + + + lXlXlXlXlXlXlXlXlXlXlXlXlXlXlXlXlXlXlXlXlXlXlXlXlXlXlXlXlXlXlXlXlXlX",
"lXlXlXlXlXlXlXlXlXlXlXlXlXlXlXlXlXlXlXgXlXlXlXkXpXhXlXdXgXlXpXpXlXlXlXlXlXlXlXlXlXlXlXlXlXlXlXlXlXlXlXlXlXlXlXlXlXlXlXlXlXlXlXlX",
"lXlXlXlXlXlXlXlXlXlXlXlXlXlXlXlXlXlXgXgXgXgXkXkXkXkXlXgXgXfXpXkXlXlXlXlXlXlXlXlXlXlXlXlXlXfXlXlXlXlXlXlXlXlXlXlXlXlXlXlXlXlXlXlX"
};
