/* XPM */
static char *tile007[] = {
/* columns rows colors chars-per-pixel */
"64 64 228 2 ",
"   c #040100",
".  c #0B0201",
"X  c #0C0902",
"o  c #0E0C0A",
"O  c #0A0809",
"+  c #140201",
"@  c #1B0200",
"#  c #140A04",
"$  c #1C0B01",
"%  c #1C0D09",
"&  c #180909",
"*  c #1A130C",
"=  c #1D1313",
"-  c #1D1A19",
";  c #240200",
":  c #2C0300",
">  c #270C04",
",  c #25110D",
"<  c #2A140E",
"1  c #2B190C",
"2  c #331200",
"3  c #391807",
"4  c #241413",
"5  c #2B1611",
"6  c #231915",
"7  c #2B1B15",
"8  c #251B1A",
"9  c #2B1D1B",
"0  c #311713",
"q  c #321B16",
"w  c #331E1A",
"e  c #2C201C",
"r  c #27201A",
"t  c #352216",
"y  c #3A2116",
"u  c #34221D",
"i  c #39221E",
"p  c #392A1E",
"a  c #281F20",
"s  c #2D2222",
"d  c #2A272C",
"f  c #332423",
"g  c #3B2624",
"h  c #342826",
"j  c #3C2A24",
"k  c #322729",
"l  c #362B2A",
"z  c #3B2C2A",
"x  c #392628",
"c  c #3C322F",
"v  c #3A2E33",
"b  c #3D3231",
"n  c #411D0D",
"m  c #43261B",
"M  c #422A1E",
"N  c #47271A",
"B  c #4B2A15",
"V  c #412623",
"C  c #442B25",
"Z  c #4B2C24",
"A  c #442E29",
"S  c #4A2E2A",
"D  c #542E2A",
"F  c #453126",
"G  c #4A3126",
"H  c #44312C",
"J  c #4A322C",
"K  c #4C3A2C",
"L  c #453B2F",
"P  c #523224",
"I  c #53342D",
"U  c #553A29",
"Y  c #443432",
"T  c #4B3531",
"R  c #4C3934",
"E  c #473A39",
"W  c #533633",
"Q  c #5A3C35",
"!  c #533D3C",
"~  c #5A3F3A",
"^  c #523834",
"/  c #653F3C",
"(  c #5A4335",
")  c #55423D",
"_  c #5C433B",
"`  c #5D493C",
"'  c #564535",
"]  c #62463E",
"[  c #62493E",
"{  c #6D443E",
"}  c #795535",
"|  c #68513F",
" . c #553C43",
".. c #564543",
"X. c #5A4544",
"o. c #5D4A46",
"O. c #5B474A",
"+. c #634641",
"@. c #644A44",
"#. c #65494A",
"$. c #754C48",
"%. c #655043",
"&. c #785847",
"*. c #644A51",
"=. c #6F5857",
"-. c #7F625A",
";. c #904F0F",
":. c #8E531B",
">. c #9A5917",
",. c #A15B15",
"<. c #A25A08",
"1. c #A66116",
"2. c #935F29",
"3. c #8C5C37",
"4. c #935E32",
"5. c #8B5527",
"6. c #996123",
"7. c #8A6138",
"8. c #986237",
"9. c #A36933",
"0. c #A46424",
"q. c #D07F26",
"w. c #C67E2A",
"e. c #936F4B",
"r. c #BA8439",
"t. c #BA953C",
"y. c #CD842C",
"u. c #C8872B",
"i. c #D3862C",
"p. c #D28729",
"a. c #CD8E34",
"s. c #CD8C3D",
"d. c #C78538",
"f. c #D48A33",
"g. c #D78834",
"h. c #C7933E",
"j. c #D5973E",
"k. c #D9953A",
"l. c #E1943A",
"z. c #AA834B",
"x. c #BA8547",
"c. c #B9944C",
"v. c #BB8A51",
"b. c #B98C5E",
"n. c #BE955E",
"m. c #9F8574",
"M. c #A98A66",
"N. c #AA9567",
"B. c #B89567",
"V. c #BC9679",
"C. c #B38F70",
"Z. c #C68945",
"A. c #D38E40",
"S. c #C89347",
"D. c #D99442",
"F. c #C89456",
"G. c #D49B54",
"H. c #CBA051",
"J. c #E8B75C",
"K. c #E2AF56",
"L. c #C29463",
"P. c #C6997C",
"I. c #DABA69",
"U. c #C1A172",
"Y. c #CFBC70",
"T. c #DBBB73",
"R. c #D0AE67",
"E. c #E5BB6B",
"W. c #DBC770",
"Q. c #E9C577",
"!. c #AF9C8D",
"~. c #BC9A84",
"^. c #B69985",
"/. c #BB9E90",
"(. c #B7A28F",
"). c #C39F89",
"_. c #C4A18B",
"`. c #D9BD83",
"'. c #C3A490",
"]. c #C8AB98",
"[. c #D7BF94",
"{. c #D2A48D",
"}. c #C6B5A5",
"|. c #E6BFB0",
" X c #D7C686",
".X c #D4CB91",
"XX c #E7C98A",
"oX c #E8CA93",
"OX c #EBD29C",
"+X c #D8D2BC",
"@X c #E0CBAE",
"#X c #F2CCAE",
"$X c #F6D3AF",
"%X c #EDCAB3",
"&X c #EBCEBD",
"*X c #E5C8B8",
"=X c #F3CDB2",
"-X c #F3CEB9",
";X c #E8D6B9",
":X c #F6D1B3",
">X c #F6D3BB",
",X c #FBD6B8",
"<X c #EFD2AA",
"1X c #ECD2C3",
"2X c #EAD3C6",
"3X c #F4D4C2",
"4X c #FDDAC1",
"5X c #FFDCCB",
"6X c #FBD4C5",
"7X c #F0DED2",
"8X c #ECCFC9",
"9X c #FCEADD",
"0X c #F6EBEA",
"qX c #FFF1E3",
"wX c #FCF3EC",
"eX c #FEFAED",
"rX c #F3F1EB",
"tX c #F8EFF0",
"yX c #EFF9F0",
"uX c #F5F4F3",
"iX c #FDF6F5",
"pX c #F4FDF6",
"aX c #FDFBF5",
"sX c #F5F3FD",
"dX c #FDF6FB",
"fX c #F5FEFC",
"gX c #FFFEFE",
"hX c #ECEFF4",
/* pixels */
"gXgXgXgXgXgXgXgXgXgXgXgXgXgXgXgXgXgXdXgXgXdXgXgXgXgXaXgXgXdXgXgXiXdXiXgXiXiXgXgXgXgXdXgXgXdXgXgXgXgXgXgXgXgXgXgXgXgXgXgXgXgXgXgX",
"gXgXgXgXgXgXgXgXgXgXgXgXgXgXgXgXgXsXgXgXgXgXaXdXgXgXiXgXgXgXgXgXaXdXiXgXdXaXgXiXgXgXgXdXgXgXgXgXgXgXgXgXgXgXgXgXgXgXgXgXgXgXgXgX",
"gXgXgXgXgXgXgXgXgXgXgXgXgXgXgXgXgXgXgXgXdXiXgXgXgXaXgXiXdXgXgXgXe 9 9 u 8 s k e dXaXgXgXgXgXfXfXgXgXgXgXgXgXgXgXgXgXgXgXgXgXgXgX",
"gXgXgXgXgXgXgXgXgXgXgXgXgXgXgXgXdXgXdXgXgXgXrXdXgXgXiXgXgXdXdXdXY h f g w l 9 a gXgXdXgXgXdXdXgXgXgXgXgXgXgXgXgXgXgXgXgXgXgXgXgX",
"gXgXgXgXgXgXgXgXgXgXgXgXgXgXgXgXgXgXdXgXgXtXE k u l iXgXgXiXv u ! ! ..o.O...& . gXgXaXgXgXgXgXgXgXgXgXgXgXgXgXgXgXgXgXgXgXgXgXgX",
"gXgXgXgXgXgXgXgXgXgXgXgXgXgXgXgXgXdXgXdXgXgX8 9 f f iXiXiXiXf f ) o.o.o.o.E + . dX0XgXdXgXgXgXpXgXgXgXgXgXgXgXgXgXgXgXgXgXgXgXgX",
"gXgXgXgXgXgXgXgXgXgXgXgXgXgXgXgXgXgXdXgXiXiXf x ....f x g x  .X.o.o.H i @ % 4 g 9 E wXgXaXuXgXgXgXgXgXgXgXgXgXgXgXgXgXgXgXgXgXgX",
"gXgXgXgXgXgXgXgXgXgXgXgXgXgXgXgXgXgXgXgXgXiXz x o.) V i i g  .#._ o.H A @ + q g f e iXaXgXgXaXgXgXgXgXgXgXgXgXgXgXgXgXgXgXgXgXgX",
"gXgXgXgXgXgXgXgXgXgXgXgXgXgXgXgXgXgX  O 8 u x w J C #.@.0 i #.@.g q @ + T A T A A b f 9 X   iXgXgXfXgXdXgXgXpXgXgXgXgXgXgXgXgXgX",
"gXgXgXgXgXgXgXgXgXgXgXgXgXgXgXgXfXiX  + 8 9 x i W S @.#.C V X.( q 1 @ + S C W J T H z 6 o # rXgXgXfXdXgXdXgXgXgXgXgXgXgXgXgXgXgX",
"gXgXgXgXgXgXgXgXgXgXgXgXgXgXgXgX  O k z E H A S 0 0 C J V V T J ^ K C j ~ _ +._ V R j E l h .   aXdXgXfXgXfXgXgXgXgXgXgXgXgXgXgX",
"gXgXgXgXgXgXgXgXgXgXgXgXgXgXgXgXO   l l Y J A T w V Z P J S G G F C K K _ +.@.+.C J A H Y H X # rXgXdXgXgXdXgXdXgXgXgXgXgXgXgXgX",
"gXgXgXgXgXgXgXgXgXgXgXgXgXgXgXgXiXiX  & 9 f C S #.@.+.Q W A M F G G ( ` ] [ @.] #.~ S H w Y l c b d fXfXgXgXgXgXgXgXgXgXgXgXgXgX",
"gXgXgXgXgXgXgXgXgXgXgXgXgXgXgXgXgXdX  & q g A S / ] { Q K G C G K K ' ` _ ] +.[ #.@.S R z Y Y H s d aXgXgXgXgXgXgXgXgXgXgXgXgXgX",
"gXgXgXgXgXgXgXgXgXgXgXgXgXgXgXgX- 8 O + , 5 V T P I _ [ ' ' [ [ ' ' %.` [ [ [ { D Z S S 5 p , 6 gXgXgXpXgXgXfXgXgXgXgXgXgXgXgXgX",
"gXgXgXgXgXgXgXgXgXgXgXgXgXgXgXgX4 8 . + 9 9 T S C G ] %.` ` %.' ` ' %.' @.[ ] ] S W Z C w q < 7 dXgXgXgXgXgXgXgXgXgXgXgXgXgXgXgX",
"gXgXgXgXgXgXgXgXgXgXgXgXgXgXgXgX. + 4 8 v Y Y A C S G G A R ) o.[ ] @.+.W S S A W C G S C K F F . X gXgXgXgXaXgXfXgXgXgXgXgXgXgX",
"gXgXgXgXgXgXgXgXgXgXgXgXgXgXgXgX. . 8 s k H Y Y S m I G A R ! ! ( ( +.~ V V T W A C C A C G G F +   iXiXgXaXgXpXgXgXgXfXgXgXgXgX",
"gXgXgXgXgXgXgXgXgXgXgXgXgXgXgXgX  + = r 8 f g A D Z D V I J J T W G I W T T T V S T q 1 G K M J c b   X aXgXgXfXfXgXgXgXgXgXgXgX",
"gXgXgXgXgXgXgXgXgXgXgXgXgXgXgXgX    = 6 % 7 M J Z N N Z Z S W S G V C S S S S V A A 0 5 A F F H Y z +   iXuXgXpXgXgXgXgXgXgXgXgX",
"gXgXgXgXgXgXgXgXgXgXgXgXgXgXgXgX    r r 7 t M P n 2 6X6XW D C S Z F K V 4 0 A  .A A Y A 7 < F F z z = s dXgXgXrXgXgXgXgXgXgXgXgX",
"gXgXgXgXgXgXgXgXgXgXgXgXgXgXgXgX  O o * 1 1 N B n 2 |.6XV D W C A Z J C 0 0 V S T A T J 1 7 F z E b k 8 iXaXgXgXgXgXgXgXgXgXgXgX",
"gXgXgXgXgXgXgXgXgXgXgXgXgXgXgXgXfXfXo   9X&X2 3 -X>X5X*XD D C T J C A G S V i , T A A A H j 7 7 6 8 k k #   gXaXgXgXgXgXgXgXgXgX",
"gXgXgXgXgXgXgXgXgXgXgXgXgXgXgXgXfXhX  X *X3Xn 2 -X3X8X8XS S H H H A J T A V i 4 Y Y Y A H c 9 6 8 f H k o   iXgXgXgXgXgXgXgXgXgX",
"gXgXgXgXgXgXgXgXgXgXgXgXgXgXgXgXgXgX  + 8X*X6X%X~.^.I t # # u L H j R T , q , q < w z z u e gXaXgXiX9 9 .   gXaXgXaXgXgXgXgXgXgX",
"gXgXgXgXgXgXgXgXgXgXgXgXgXgXgXgXgXsX  + 1X-X5X-X~./.m p $ * 7 j Y C j C < w 5 , w u z x k 9 dXiXiXgX= 8 #   gXuXgXgXgXgXgXgXgXgX",
"gXgXgXgXgXgXgXgXgXgXgXgXgXgXgXgXsXdXY V 3X-X-X>XU ( qXeXL r +   H R Y R q q j H A f w 8 iXgXiXgXgXiXgXaXuXaXgXgXgXgXgXgXgXgXgXgX",
"gXgXgXgXgXgXgXgXgXgXgXgXgXgXgXgXgXiXq m %X-X4X%XP F eX9Xp K $ + j H j j q 5 H T H f k - gXgXgXgXaXgXaXgXfXaXgXaXgXgXgXgXgXgXgXgX",
"gXgXgXgXgXgXgXgXgXgXgXgXgXgXgXgXgXiXL N >X,X#X6X@ + qXqX!.(.+ @ T A 5 7 j j R u 7 u 6 8 gXdXgXdXgXaXaXfXaXaXgXgXgXgXgXgXgXgXgXgX",
"gXgXgXgXgXgXgXgXgXgXgXgXgXgXgXgXiXiX' B =X,X#X=X; @ qX9X/._.; @ j h 7 7 R H R F 4 9 6 9 gXgXgXpXfXgXaXgXgXgXfXgXgXgXgXgXgXgXgXgX",
"gXgXgXgXgXgXgXgXgXgXgXgXgXgXgXgXaXqX(.^.:X,X,X,X3X*X2X1X~.V.P.).+ # 7 4 C j j J u 9 gXiXgXdXgXgXfXfXfXpXpXfXgXaXgXgXgXgXgXgXgXgX",
"gXgXgXgXgXgXgXgXgXgXgXgXgXgXgXgXaXrX}.'.%X#X#X,X4X,X&X@X]._.P.).+   7 6 Y L h Y 6 6 dXgXdXgXgXgXgXfXfXaXaXgXgXgXgXgXgXgXgXgXgXgX",
"gXgXgXgXgXgXgXgXgXgXgXgXgXgXgXfXfXgXiXaXZ B {.P.$X$X~.).&.} n t z v s c X + eXwXgXgXfXgXgXgXgXdXgXgXgXgXgXgXgXgXgXgXgXgXgXgXgXgX",
"gXgXgXgXgXgXgXgXgXgXgXgXgXgXgXgXfXfXgXiXZ P ).V.=X:X]./.e.-.1 t 8 v h s     uXgXgXfXgXfXgXgXgXgXgXgXgXgXgXgXgXgXgXgXgXgXgXgXgXgX",
"gXgXgXgXgXgXgXgXgXgXgXgXgXgXgXgXgXgXgXgXwXeXm m w 3 w T     h F . @ w F + X aXrXfXgXgXgXgXgXgXgXgXgXgXgXgXgXgXgXgXgXgXgXgXgXgXgX",
"gXgXgXgXgXgXgXgXgXgXgXgXgXgXgXgXgXgXgXgXaXiXe 9 g 4 x 8   = j j @ @ > q .   gXuXgXgXgXgXgXdXgXaXgXgXgXgXgXgXgXgXgXgXgXgXgXgXgXgX",
"gXgXgXgXgXgXgXgXgXgXgXgXgXgXgXgXgXiXgXyXpXpXgXgXdXdX& @ #.&.@ @ 3.3.; . .   iXgXgXgXgXgXgXaXgXgXgXgXgXgXgXgXgXgXgXgXgXgXgXgXgXgX",
"gXgXgXgXgXgXgXgXgXgXgXgXgXgXgXgXgXgXpXpXfXfXfXgXdXtX+ 2 e.3.: ; 3.4.> + .   dXgXdXgXdXgXaXgXaXgXgXgXgXgXgXgXgXgXgXgXgXgXgXgXgXgX",
"gXgXgXgXgXgXgXgXgXgXgXgXgXgXgXgXaXaXfXfXfXfXdXiX, @ 5.:.v.L.4.4.Z.L.7.} > O gXsXgXgXgXgXgXaXfXgXgXgXgXgXgXgXgXgXgXgXgXgXgXgXgXgX",
"gXgXgXgXgXgXgXgXgXgXgXgXgXgXgXgXaXaXgXgXfXgXiXaX@ : >.,.Z.Z.4.8.x.A.6.} @   sXdXgXgXdXiXgXgXfXfXgXgXgXgXgXgXgXgXgXgXgXgXgXgXgXgX",
"gXgXgXgXgXgXgXgXgXgXgXgXgXgXgXgXaXaXgXgXdXdX. + L.r.S.A.d.Z.: : d.A.2.3.@   d d dXdXgXdXgXdXfXfXgXgXgXgXgXgXgXgXgXgXgXgXgXgXgXgX",
"gXgXgXgXgXgXgXgXgXgXgXgXgXgXgXgXaXaXgXdXgXdX@ @ c.S.S.Z.F.x.; : A.g.6.7.+ + k k dXdXdXdXgXgXfXfXfXgXgXgXgXgXgXgXgXgXgXgXgXgXgXgX",
"gXgXgXgXgXgXgXgXgXgXgXgXgXgXgXgXgXgXgXgX  + *X<XU.L.v.L.@ @  XE.u.f.Z.F.@ + 8X8Xx k gXgXfXfXfXfXgXgXgXgXgXgXgXgXgXgXgXgXgXgXgXgX",
"gXgXgXgXgXgXgXgXgXgXgXgXgXgXgXgXgXdXgXgX    ;X$XB.U.B.C.@ +  XW.a.f.Z.v.; + 8X8Xw Y tXiXgXfXfXfXgXgXgXgXgXgXgXgXgXgXgXgXgXgXgXgX",
"gXgXgXgXgXgXgXgXgXgXgXgXgXgXgXgXgXgXgXaX    ;X;X;X,X+ + .X Xc.t.a.a.A.G.5.4.; @ + . gXdXgXgXfXfXgXgXgXgXgXgXgXgXgXgXgXgXgXgXgXgX",
"gXgXgXgXgXgXgXgXgXgXgXgXgXgXgXgXgXgXgXaX  X +X2X3X@X# @ oXQ.S.u.a.y.w.d.,.9.: ; @ @ dXiXgXgXfXgXgXgXgXgXgXgXgXgXgXgXgXgXgXgXgXgX",
"gXgXgXgXgXgXgXgXgXgXgXgXgXgXgXgXfXfXgXaXaXeXX   . @ oXQ.d.a.y.g.i.f.D.D.,.;.9.4.C.m..   iXgXgXgXgXgXgXgXgXgXgXgXgXgXgXgXgXgXgXgX",
"gXgXgXgXgXgXgXgXgXgXgXgXgXgXgXgXfXfXfXgXaXfX        oXQ.u.f.p.f.g.i.q.g.<.,.0.2.B.M.& . aXgXaXaXgXgXgXgXgXgXgXgXgXgXgXgXgXgXgXgX",
"gXgXgXgXgXgXgXgXgXgXgXgXgXgXgXgXgXdXgXgXgXfXgXaXX X  XT.h.u.p.p.p.l.i.y.k.y.s.Z.z.n.+ #     gXaXgXgXgXgXgXgXgXgXgXgXgXgXgXgXgXgX",
"gXgXgXgXgXgXgXgXgXgXgXgXgXgXgXgXgXgXdXfXgXfXfXiX  # [.oXc.h.u.u.y.f.f.i.g.y.k.h.H.c.> . . . eXaXgXgXgXgXgXgXgXgXgXgXgXgXgXgXgXgX",
"gXgXgXgXgXgXgXgXgXgXgXgXgXgXgXgXfXfXfXgXgXuXO X . . @ @ n.c.x.h.s.u.p.p.p.k.J.J.I.W.W.XXN.N.+   gXgXgXgXgXgXgXgXgXgXgXgXgXgXgXgX",
"gXgXgXgXgXgXgXgXgXgXgXgXgXgXgXgXyXpXaXgXgXuX  + @ ; + : M.B.z.z.S.h.j.j.a.j.K.E.Q.Q.XX XN.N.. # aXgXgXgXgXgXgXgXgXgXgXgXgXgXgXgX",
"gXgXgXgXgXgXgXgXgXgXgXgXgXgXgXgXfXfXyXfXO    .*.W V @ + @ @ @ $ Y.W.Y.Y.E.R.G.G.F.z.@ +   + aXrXgXgXgXgXgXgXgXgXgXgXgXgXgXgXgXgX",
"gXgXgXgXgXgXgXgXgXgXgXgXgXgXgXfXfXpXpXgX  &  .#. .W , @ . + +   .X X.X XOXoXx.b.b.N.+       aXgXgXgXgXgXgXgXgXgXgXgXgXgXgXgXgXgX",
"gXgXgXgXgXgXgXgXgXgXgXgXgXgXgXgXpXpXfXaXgXdX+ & *. . .x & # iXiX    O . + + + + + . + $ wXgXgXsXgXgXgXgXgXgXgXgXgXgXgXgXgXgXgXgX",
"gXgXgXgXgXgXgXgXgXgXgXgXgXgXgXgXfXgXfXgXdXgX  + O.*. . .O   iXgX- &   + + + @ + + . +   dXgXsXgXgXgXgXgXgXgXgXgXgXgXgXgXgXgXgXgX",
"gXgXgXgXgXgXgXgXgXgXgXgXgXgXgXgXgXgXgXgXgXdXgXaXX . .   gXgXgXgXgXeX% @ J D +.$.Q W @ . gXdXgXgXgXgXgXgXgXgXgXgXgXgXgXgXgXgXgXgX",
"gXgXgXgXgXgXgXgXgXgXgXgXgXgXgXgXgXgXgXgXgXgXgXgXX     o tXgXdXgXaXwX+ @ W / $.{ D Z @ . dXgXgXgXgXgXgXgXgXgXgXgXgXgXgXgXgXgXgXgX",
"gXgXgXgXgXgXgXgXgXgXgXgXgXgXgXgXdXgXgXgXgXgXgXfXfXpXfXaXdXdXgXaXaXaX+ @ _ _ / I @ $ wXaXdXaXgXgXgXgXgXgXgXgXgXgXgXgXgXgXgXgXgXgX",
"gXgXgXgXgXgXgXgXgXgXgXgXgXgXgXgXgXgXdXgXgXgXfXgXgXfXaXgXaXgXgXaXgXaX  . o.) ^ R   # aXaXgXpXaXfXgXgXgXgXgXgXgXgXgXgXgXgXgXgXgXgX",
"gXgXgXgXgXgXgXgXgXgXgXgXgXgXgXgXgXgXgXgXgXgXgXgXgXfXgXgXgXuXaXgXfXdXgXgX    o O gXpXfXgXpXgXfXdXgXgXgXgXgXgXgXgXgXgXgXgXgXgXgXgX",
"gXgXgXgXgXgXgXgXgXgXgXgXgXgXgXgXgXgXgXgXgXgXgXgXgXgXaXgXgXgXgXgXdXpXgXiXo       fXfXfXpXfXfXfXgXgXgXgXgXgXgXgXgXgXgXgXgXgXgXgXgX",
"gXgXgXgXgXgXgXgXgXgXgXgXgXgXgXgXgXaXdXgXgXgXgXgXgXgXgXgXgXpXfXaXfXgXaXpXaXiXfXgXgXpXgXfXuXdXdXdXgXgXgXgXgXgXgXgXgXgXgXgXgXgXgXgX",
"gXgXgXgXgXgXgXgXgXgXgXgXgXgXgXgXgXfXgXgXgXgXdXgXdXdXsXgXuXgXgXgXgXgXpXgXaXgXgXgXgXgXgXgXgXgXgXgXgXgXgXgXgXgXgXgXgXgXgXgXgXgXgXgX"
};
