/* XPM */
static char *floor3[] = {
/* columns rows colors chars-per-pixel */
"64 36 58 1 ",
"  c #05060F",
". c #06090E",
"X c #090B0F",
"o c #040712",
"O c #080712",
"+ c #050912",
"@ c #0B0D14",
"# c #0C0E1A",
"$ c #0D1116",
"% c #0E111A",
"& c #101217",
"* c #12141D",
"= c #13181F",
"- c #0E1422",
"; c #131622",
": c #151925",
"> c #181B26",
", c #131728",
"< c #161D2A",
"1 c #1A1D2B",
"2 c #1B1F31",
"3 c #182127",
"4 c #1B212E",
"5 c #1D2333",
"6 c #1F2638",
"7 c #222535",
"8 c #232936",
"9 c #292C37",
"0 c #222739",
"q c #242B3C",
"w c #2A2C3D",
"e c #2B313E",
"r c #262D41",
"t c #2A2E42",
"y c #273040",
"u c #2C3244",
"i c #2F3844",
"p c #2E344A",
"a c #313445",
"s c #353847",
"d c #31364B",
"f c #333A4D",
"g c #3A3C4D",
"h c #2F3850",
"j c #313750",
"k c #353B52",
"l c #393E54",
"z c #373E58",
"x c #3A3F58",
"c c #364057",
"v c #3B4156",
"b c #3D435B",
"n c #3E4663",
"m c #404256",
"M c #41465B",
"N c #41485D",
"B c #424662",
"V c #424862",
/* pixels */
":,<<=45$%$#&#@;w*****;**a<2<<<52-u1,;,::>#9;&&###*O7p60q60q4r8::",
"tpuy9cs8qqw9w9alwwwtttttbuputputtbuutaatttmtw9wwwtwmzhphjjhubkyu",
"wsu45547749s14124444maturyuptzrwrqrrt0g77727772aktttrturffyyrtyy",
"<48%&%***&:8#*#*&&*#a4745556<t<111<<2*9>*****;#9w222555:69454455",
"6id5555702wf27274447vyrwwrtqqm9900qq07gw7777791gdqwqrrt6fkqrqrrq",
"vvcbzbbzlczcxlxMccvllckvd6977797wg09w0909wgatwtetttmptuiuuiybbcc",
"yyyyqyjwtrqyy0qfyqeqwq005o@X@@@O#9@&##@#@Ow>>*=>;>@w2<<<3<3-yd9y",
"rrru6fkyrwrww5il6qqqqq7tt***;**&>w*>***;;;s11>>411;s01<<434:fcqw",
"ddxfpzkdhhhvbcbbcbbznjudaaeuudvdgggkkflg9watwwwwlaadiueiucsdjddd",
"1,w7<41<<4,wfyyuyyurt7*=;:;;;1d500006q07O*@###@#w;:;;;=:-q>11:>:",
";#w7<<:<<<%tf6rqqqq5t0#****;#1d552275<59O@O@X@o@w****;*&#y>;;>;;",
"ddMlfuaaiuugckffkffhbkddaaaaajbkkkkkkjzbsaaaaaaamgduauiyucskdddd",
"kkddp<11111>:f600qqqq6ltrrrrtt6zkjjkjkhplfyuuttpwpt26666050bjdkk",
"rwq7q%****;*%u44114<3-p0215155,pdtwyyqy6pu66666610r,3:<<<-1ltrrr",
"fdpjlw9q99qq9byyyuwuurMpyuuuputVlpjjfddibkipuppirlkrwwqweqdNfddp",
"qugqrtwrwwivyuyuuuuubjjjdddjhbjfdfjjjhvqqrwqryqgkutppiptfd98q8qq",
";2t,><3<3;3y1444445:f6q6666q4fqq0q00q2y43<<<<1*9q454225,77*>>>>>",
"1tf5775764qc06666666vyryqwqyqbuyyryeq6vw5846771dpq66q995di744444",
"djfpdfNfkkcffcfbkffffkffmsuspsiuevduuistuegvddgkffhca99998w7tbdf",
"665655j0q088qq5i6556556<u<>><<<>*w1,<<>,>%7y562066481O@@@@@.%i47",
"555514k86668063v0755555<d5<3<<:4-u4::<<>4-rp772556197#*##**#<s55",
"tvfckcbkkkvuipiciyuzcfffvkffckfkfbvfflsquwusawaguuasaawag9wwuseu",
"#drqqqqqr0p;;;;%;--up6qyqqq6ipwq9qwq0t2#*###*O>t*,>;*;;;wO**#&*%",
"@dq556555<t-%%%%%%our555656,uu556668194O@#@##O*9$*&***&*wO#O@@@@",
"tMdfjfjfhjbiiseuuuebfdfuadstmlahpudaukg9aewwwwagtaawewwagtaawttw",
"q77tbpfhdfpfdcqqeqeqqwf<1141111s33>>111>d99799772a71217121tt09w9",
"<<:1fwrqrrw66i442434<1w#*&****@9%&%*###Ot1;:;;>>#9>**;*;*O7w,11<",
"yw8dMupupppukvyqrwyywal70007777x70777984ltrwwwt97gt00988w2gdrrrt",
"vuwwwqwtqkvhfhcsfdzkypattptdf79qww999Mdkjkkkkkm0w777887zcddhddkf",
"e5;>>>>>%6i56866040y<<1111118**;**;**gqwwrrqr2t##@&&&&.wq86q0005",
"f0111111=uf86686q5yd44447247s<1>11<>>vtqqrrrw0g>>;>*:>%du6660006",
"bbzbkdfkhjjdcnccccbbvbk9wrtttqrMkkkgkMzznhjjjjkkamxxkccvvcnbbbzb",
"yuwur55545717krpuyyyww4.$$$@$$%frtyryqy8d4555656,suyruuqe8hhuyiu",
"rr5pr1<1411;8x00qrwq6qq@X@@@XX%cq0800065f4344444-cuq666064kpqqrq",
"jjpbjjdttdatdljkpppdpfdufisiipdbjzddddjjxdkpyuipukpzbklzczVzbkhf",
"55522qq******&1p;<>:<::<f56666652p41225211t<*=;*=*$wjrtuyyuqhq<5"
};
