/* XPM */
static char *tree_wall[] = {
/* columns rows colors chars-per-pixel */
"35 64 220 2 ",
"   c #0B1A1C",
".  c #111B1F",
"X  c #0C231C",
"o  c #07271D",
"O  c #0B1E20",
"+  c #0D2623",
"@  c #0D2A23",
"#  c #0F2E2A",
"$  c #122B26",
"%  c #192E24",
"&  c #132D2A",
"*  c #192E2B",
"=  c #172628",
"-  c #0E3123",
";  c #0E3821",
":  c #143325",
">  c #1B3525",
",  c #15342A",
"<  c #1C342C",
"1  c #143A28",
"2  c #1C3B2B",
"3  c #163D23",
"4  c #1C3B32",
"5  c #183B32",
"6  c #22332D",
"7  c #233B2C",
"8  c #2C3D2C",
"9  c #253525",
"0  c #333D2C",
"q  c #363B2D",
"w  c #213531",
"e  c #2A3433",
"r  c #243C33",
"t  c #2A3D32",
"y  c #223C3A",
"u  c #2B3D3B",
"i  c #2D362E",
"p  c #1C432A",
"a  c #1C472A",
"s  c #1D4431",
"d  c #23442C",
"f  c #2E422D",
"g  c #224B2B",
"h  c #2A4C2D",
"j  c #214726",
"k  c #35422C",
"l  c #3B432B",
"z  c #32492B",
"x  c #24542F",
"c  c #2A542E",
"v  c #35592A",
"b  c #244332",
"n  c #2B4333",
"m  c #244A32",
"M  c #2C4C34",
"N  c #2D433D",
"B  c #2E4A3A",
"V  c #334232",
"C  c #3B4734",
"Z  c #3D4A32",
"A  c #32423B",
"S  c #334C3D",
"D  c #3B4A3C",
"F  c #354932",
"G  c #2C5333",
"H  c #2E5B33",
"J  c #275435",
"K  c #315434",
"L  c #335B34",
"P  c #3B5C33",
"I  c #325A3A",
"U  c #3B5C3C",
"Y  c #355439",
"T  c #356335",
"R  c #3A6535",
"E  c #3C6A34",
"W  c #3B633A",
"Q  c #3E6B3B",
"!  c #376539",
"~  c #33662E",
"^  c #4D4C2F",
"/  c #444C34",
"(  c #4B4E35",
")  c #454E38",
"_  c #474936",
"`  c #475437",
"'  c #545837",
"]  c #56593D",
"[  c #585537",
"{  c #615D3B",
"}  c #426D36",
"|  c #42633A",
" . c #436C3A",
".. c #4B6D3A",
"X. c #486536",
"o. c #437434",
"O. c #45743B",
"+. c #4A763B",
"@. c #4B7C3B",
"#. c #497236",
"$. c #53773D",
"%. c #5B6639",
"&. c #68633E",
"*. c #70673E",
"=. c #273B41",
"-. c #2C4442",
";. c #274845",
":. c #344443",
">. c #384642",
",. c #364B43",
"<. c #3B4C44",
"1. c #324B49",
"2. c #3B4E49",
"3. c #38474E",
"4. c #3D5243",
"5. c #3B5944",
"6. c #3C524C",
"7. c #3C5949",
"8. c #365346",
"9. c #3A5653",
"0. c #424E4C",
"q. c #464F40",
"w. c #445F43",
"e. c #43544B",
"r. c #4B544A",
"t. c #455C4D",
"y. c #485645",
"u. c #555A43",
"i. c #5A5A42",
"p. c #455451",
"a. c #4A5554",
"s. c #4C5B54",
"d. c #4E5D59",
"f. c #465855",
"g. c #545C54",
"h. c #535D5B",
"j. c #585F54",
"k. c #605F46",
"l. c #446449",
"z. c #496847",
"x. c #5C6546",
"c. c #4E7741",
"v. c #587747",
"b. c #4D6155",
"n. c #4B6158",
"m. c #526556",
"M. c #55635C",
"N. c #59625F",
"B. c #556B5B",
"V. c #5A6B5E",
"C. c #546D55",
"Z. c #577357",
"A. c #646242",
"S. c #6A6846",
"D. c #62644D",
"F. c #686645",
"G. c #786D47",
"H. c #7C724C",
"J. c #76724D",
"K. c #666955",
"L. c #706B5F",
"P. c #677A5F",
"I. c #7D7952",
"U. c #787456",
"Y. c #546362",
"T. c #5C6462",
"R. c #5D6B64",
"E. c #596C66",
"W. c #5C7062",
"Q. c #5F6E72",
"!. c #616D65",
"~. c #616768",
"^. c #656D6B",
"/. c #696E6D",
"(. c #66736B",
"). c #6B726E",
"_. c #6C7B6B",
"`. c #667465",
"'. c #6D7471",
"]. c #727675",
"[. c #747975",
"{. c #757679",
"}. c #767A7A",
"|. c #7D7E7E",
" X c #84754A",
".X c #84794C",
"XX c #837A53",
"oX c #81755A",
"OX c #917F53",
"+X c #817E6E",
"@X c #807F7F",
"#X c #4F823D",
"$X c #54823D",
"%X c #59853C",
"&X c #5B8B3E",
"*X c #578A3D",
"=X c #5B8B42",
"-X c #588541",
";X c #5F9040",
":X c #658C44",
">X c #639343",
",X c #679644",
"<X c #68835A",
"1X c #779459",
"2X c #6A8161",
"3X c #758A62",
"4X c #7B8F6C",
"5X c #7F807F",
"6X c #7B8475",
"7X c #8C8356",
"8X c #878466",
"9X c #908660",
"0X c #80807F",
"qX c #878575",
"wX c #7E7E80",
"eX c #807F81",
"rX c #7F8080",
"tX c #808080",
"yX c #888686",
"uX c #8A8689",
/* pixels */
"tXrXtXtXtXtXrXtXtX5XtXrXtXtX5XtXtXrXtXtXrXtXtXrXtXtXrXtXtXrXtXtXrXtXrX",
"tXtXtX5XrXtXtXrXtXtXtXrXrXtXtXtXtXrXrXtXtXrXtXrXrXtXtXrXrXtXtXrXrXtXtX",
"tXtXtXeXeX0XtXtXtXrXtXtXtX0XrXtXtXtXtXrXtXrXtXtXrXtXtXrXrXtXtXrXtXtXrX",
"5XrXtX0XtXtX5XrXrXtXtXrXtXtXwXtXrXrXtXrXrXtXtXrXtXtXrXtXtXrXtXtXrXtXtX",
"tXtXtXrXtXtXrXtXtXtXrXtX0XtXrX5XtXrXrXrXrXtXtXtXrXtXtXtXrXtXtXrXrXtXtX",
"rXtXrXtXtX5XtXtXrXrXtXtXtX5XtXtX6XL.yXtX|.5XtXtXrXtXrXtXtXrXtXrXtXrXtX",
"tXtXrXtXtXtXrXrXtXrXtXrXrXtX'._.2Xx./.!.yXtXtXtXtXtXrXrXtXrXtXtXtXrXrX",
"rXtXtXrXtXrXtXtXtXtXrXtXrXuXR.W `.x.c l.T.'.tXwXtXrXtXtXrXtXtXrXrXtXtX",
"tXtXrXtXtXrXrXtXrXtXtXtXtX_.z.7.q.X.l.N 4 ).yXwXrXtXtXrXtXtXrXtXtXtXrX",
"rXrXtXtXtXtXtXrXtXrXtXtXtX!.z.L D.q.a./.s.s.}.eXtXtXrXtXrXrXtXtXtXrXtX",
"tXrXtXrXrXtXtXtXtXrXtXtX0XuX[.n.L._ s.[.n 2 1.}.tXtXrXtXtXrXtXrXtXrXtX",
"tXtXrXtXtXrXrXtXrXtX5XtX).S U E c.u.>.r.m.< e.tX5XtXtXrXtXtXrXtXtXtXrX",
"rXtXtXrXrXtXrXrXtXtX|.yX[.7.b.<XK.y.}.4.,./.|.tXrXtXtXtXtXtXrXtXrXtXtX",
"tXrXrXtXtXtXtXtXrXrXtX'.l.4Xb.m A.] V.R.N.f.M.}.tXtXrXtXrXtXtXrXtXrXrX",
"tXtXtXtXtXrXrXtXtXrXtX'.U O.+.%X` $.E C.,.X ,.'.tXrXtXtXtXrXrXtXtXrXtX",
"rXrXtXrXrXtXtXrXtXrX5X).b.B z.-Xf W $X%Xx < ,.r.rXtXrXrXtXrXtXtXrXtXtX",
"tXrXrXtXtXrXtXtXrXrXrX7.p S f.-.L.Z s.v.+.E 2.}.wXrXtXtXrXtXtXrXtXrXtX",
"tXtXtXrXrXtXtXrXrXrXtX5Xh.h.B 8.qX( p.T.7 > * -.M.}.tXtXtXrXrXtXtXtXrX",
"rXtXtXtXtXrXrXtXrXrXeXh.< P H t.oX^     + $ @ , -./.tX@XtXrXtXtXrXtXtX",
"tXrXrXtXtXtXrXtX5XqX3Xd p T h k / $.z 9 p -.p.d.].|.tX@XrXtXtXrXrXtXrX",
"tXrXrXtXrXtX5XtXB.c.E  .g > X.+.$X=XO.-XW -.Y.eXyXtXtXeXrXtXrXtXtXtXrX",
"rXtXtXrXtXrXrXyXB.: 1 : @ m ` } H d 1 > , , -.~.^.].).|.tX5XtXtXrXtXtX",
"tXtXtXtXtXtXrXtX].N.: 0.7.l.*   9 + =.0.+ , * * r 6.t '.tXtXtXrXtXrXrX",
"tXrXrXtXtXtXtXtXtX0XN.).].].<.< G.` ;./.n.m.d & + @ e.|.tXtXtXrXrXtXtX",
"rXrXtXrX0XtXtX6X3X3X6Xz.L V M $.:X:XT H C.<.o.P u , N h.eXtXrXtXtXtXtX",
"tXtXrXtXtX0X(. .&XO.l.Y / / X.*X .E T #XU N l._.[.h.& # Q.yXwXtXtXrXtX",
"tXtXtXrXtX[.I g g 1 1 e.0 a.B.2 2 8 2 S M.).|.h.>./.!.< Y.yXrXrXrXrXtX",
"rXrXtXrX0X5Xe.S t > L &XU 0.a.r.) V Z $ + w N j & y '.tX}.rXrXrXtXtXrX",
"tXrXtXrXrXtXtXtX}.h.` >XI & >.r.J.t K W s , > h M J y /.yXwXrXrXtXrXrX",
"tXtXtXrXtX|.V.!.8.<.B f < 6.@XU.&.t L %X*XQ : r m r @ u wXeXrXrXrXtXtX",
"rXrXtXrXtXwXr - : X g } z i._ e [ q & L @.,XT s.R.T.N.T.tXrXrXrXtXtXtX",
"tXtXrXtXtXyX^.T.).V.j W Z V = a.U.( 6 + a R c < < a.d.Q.wXrXrXrXtXrXrX",
"rXtXtXtX[.<X<XZ.1Xv.Z F 2 5 < < S./ S.0 w & e * % % 1 5 9.}.tXrXrXtXtX",
"tXtX5XyXW.x &X&Xv c n #.%X2 p L V 6 = i.% 2./.4 p H L a # Y.yXrXrXtXrX",
"tXrXrXtX[.m c | D H N `.=Xa a  .7 > H  . .H m $ B G W Q a 9.yXwXtXrXtX",
"rXtXtXtXtX}.Y.a.uXT.t.v.+.T G > 0 0 ` @.&X$XT p :.'.W.Q I B.tX|.rXtXtX",
"tXtXrXtXeXtXyX6XR.[.(.z.v.7 p : F.F.7 1...,X#.3 ,.}.tX}.}.|.tXtXtXtXtX",
"tXrXtXrXtX}.Z...x n :.].eX=.@ < OX[ f g.l.P | d.s.t h.e.,.}.tXtXrXtX5X",
"rXtXtX5XtXV.3 o.$.n A N j.:.u U.I.[ 0 k ) u w x.q.< + < s '.rXrXtXtXtX",
"tXtXrX5XyX^.b T +.4.:.s.7 a.9XF.) XX9 ,.T.=.u g.wXA : 2.{.yXtXrXtXrXrX",
"tXrXrXrXR.C.`.U d <.g.).z ] i.A _  Xk.< w < a.D g.D h.|./.!.'.rXrXtXrX",
"tXrX5X5XJ E =XG - 9 D.D.i.D 3.6 H.I.A.i.j.<.8 e.N.,.: <., 1 ^.tX5XtXtX",
"rXrX5XyXt.$ g t.u >.^.q.d.s.0 l S.9XF ' v.H a m < 6 : - 4 ^.yXtXrXtXtX",
"tXtXtXtX|.g.N.a.7 M L h Q m P H | %.-XK L ;X+.x x b <.) D T.d.].tX5XrX",
"tXtXtXtXeXtXg.K T Q c R O.a +.@.@.j %X>XE T -Xc.E m.h.0.V # 5 1.5XtXrX",
"rX0XtX5XtX!.; g R G Y +.@.B p T R * #.=XL <.f.5.l.d.t H m :.R.'.rXtXrX",
"tXtXtXtXtX|.b.S 4.p.M.R.b.e.~.R.8 ' > t.T.N w |.!.h.N Q 5., 2.yXtXtXtX",
"tX5XtXtXtX[.t.T.b.G T S e t s.<.( U.q -.4.N >.r.r X 6 2 6.Y.^.rXtXrXrX",
"tXtXrXrXtXl.E R M | H F , - o 8 ' J.u.+ < f.T.0.T.r.b - - 9.yXrXrXrXtX",
"tXrXtX5XtX).I &XO.g x c m.s.2 / / S.C.P E I J > u N.b.S 1 ;.).rXrXtXrX",
"tXtXtXwX0X}.S j j H -XH Y.M.c P ' .X..@.-X@.Q ! p < e.^.2.9.(.tXrXtXtX",
"0XtX0XtX0XtX].a.w.:X&XI E.H %X! ` G.) & x R O.-XW @ : t.tXtXtXtXrXtXtX",
"tXrXtXtXrX|.yX[.} O.E 3 Q >X$.a 6 [ q , -.2 K o.o.J < e.|.0X0XtXtXtXrX",
"tXtXrXtXtXtXtX}.t.m t.b.R o.z.r 0 { ^ < <.}.(.E.I B.}.].0X0X0XeXtXrXtX",
"5XtXrXrXtXtX5XtXtX5XtXtXs.b.m.A.7X X8 < ;.).}.uX}.eXtXtX0X0XtXtXtXrXtX",
"tXtXtXtXrXtXtX|.tXtX].8.2 D *..X XG.F.< ;.5 b /.yXeXeXeXtXtXtX0XtXtXrX",
"rXtXtXtXtXtXtXtX(._.5.$ u. X XH.] % ( _ y ;.4 r Y.tXtXtXrXtXtXrX5XtXrX",
"tXtXrXtXtXtXtXtXl.$XO.I.{ ^ &.XX0 $ % Z Z t w < & M.tX5XtXtXrXtXtXtXtX",
"tXrXwXtXtXtXrXtX_.3X8XD.n Z H.l .     @ z 8 6 V >.R.tXtXrXtXtXtXrXtXtX",
"rXtXtXtXtXtXtX5XtXtXtXwXeX0XqXf.h.h.h.M.h.j.!./.tXtXrXtX5XtX5XtXtXrXrX",
"tXtXrXtXtXtXrXtX5X5X5XtXtXeXtXuXyXyXyXyXuXtXtXyXtXeXtXtXtXtXrXtXtXtXrX",
"tXrXrXtXrXtXtXrXtXtXtXtX@XeX0X|.|.5XwX5X5X0XwX|.tXtXtXtXrXtXtXrXrXrXtX",
"rXtXtXrXtXrXrXtXtXrX5XtXtXrXtXtXrXtXtXrXrXtXtXtXtX|.tX0XtXrXtXtXtXrXtX",
"tXrXtXtXtXrXtXtXrXtXtXtXrXtXtX0XtXtXrXtXtXrXtXtXtXtXtXtXtXrXtX5XtXtXtX"
};
