/* XPM */
static char *tile009[] = {
/* columns rows colors chars-per-pixel */
"64 64 238 2 ",
"   c #040102",
".  c #0B0101",
"X  c #0D0A03",
"o  c #02020B",
"O  c #0B0209",
"+  c #0D090B",
"@  c #020A09",
"#  c #130200",
"$  c #1B0100",
"%  c #140904",
"&  c #1A0A01",
"*  c #14040B",
"=  c #180B0C",
"-  c #141100",
";  c #010113",
":  c #060718",
">  c #1A0A15",
",  c #1D1312",
"<  c #181617",
"1  c #220100",
"2  c #2C0400",
"3  c #270B02",
"4  c #350E01",
"5  c #26120C",
"6  c #2B140E",
"7  c #261A0C",
"8  c #3C1501",
"9  c #241513",
"0  c #2B1512",
"q  c #241914",
"w  c #2C1A14",
"e  c #24171A",
"r  c #251C1B",
"t  c #2C1D1A",
"y  c #2A171B",
"u  c #331C15",
"i  c #3B1D13",
"p  c #321D1B",
"a  c #381A17",
"s  c #2C201E",
"d  c #35221C",
"f  c #3C241D",
"g  c #3A2717",
"h  c #352816",
"j  c #271E22",
"k  c #311C21",
"l  c #2C2325",
"z  c #2B2525",
"x  c #342422",
"c  c #3B2522",
"v  c #342925",
"b  c #3B2A25",
"n  c #352A2B",
"m  c #3C2D2B",
"M  c #39262B",
"N  c #3C332D",
"B  c #3E3023",
"V  c #3C2C30",
"C  c #342933",
"Z  c #3C3232",
"A  c #2D2530",
"S  c #401F0E",
"D  c #4C2E1B",
"F  c #43291D",
"G  c #54381B",
"H  c #422622",
"J  c #4A2623",
"K  c #432C25",
"L  c #4B2D24",
"P  c #432E2A",
"I  c #4B2E2A",
"U  c #452729",
"Y  c #4C3325",
"T  c #44312C",
"R  c #4B332C",
"E  c #48342A",
"W  c #543224",
"Q  c #52342E",
"!  c #543A27",
"~  c #433431",
"^  c #4A3531",
"/  c #453935",
"(  c #4B3934",
")  c #4C3C3B",
"_  c #543D34",
"`  c #553D3A",
"'  c #593C37",
"]  c #4D2F2F",
"[  c #6A3C3B",
"{  c #613C2A",
"}  c #5B443C",
"|  c #5D493F",
" . c #57403A",
".. c #4E433D",
"X. c #63463C",
"o. c #74433E",
"O. c #6D553B",
"+. c #352B45",
"@. c #343759",
"#. c #333B6A",
"$. c #453855",
"%. c #5A3D42",
"&. c #613E45",
"*. c #38445A",
"=. c #39406C",
"-. c #554541",
";. c #5D4641",
":. c #5D4A43",
">. c #5B4B47",
",. c #634442",
"<. c #634B43",
"1. c #644B4A",
"2. c #6C4845",
"3. c #704A47",
"4. c #6C5A5A",
"5. c #765D59",
"6. c #6F5548",
"7. c #776759",
"8. c #5E5579",
"9. c #4E4574",
"0. c #70576B",
"q. c #6A5572",
"w. c #706A76",
"e. c #9B5816",
"r. c #A75D0C",
"t. c #A65C14",
"y. c #8A5E2C",
"u. c #8B5530",
"i. c #A5592C",
"p. c #896133",
"a. c #946230",
"s. c #A26329",
"d. c #CC7D3B",
"f. c #86554B",
"g. c #876851",
"h. c #B27C47",
"j. c #836F62",
"k. c #836E75",
"l. c #DA7E4F",
"z. c #E07D46",
"x. c #BA8839",
"c. c #BB8D2D",
"v. c #CA8629",
"b. c #D28A2D",
"n. c #CE912E",
"m. c #C88936",
"M. c #D28B34",
"N. c #D6883B",
"B. c #C8933B",
"V. c #D29435",
"C. c #E0833D",
"Z. c #B9884B",
"A. c #BD944A",
"S. c #AA8458",
"D. c #BC8B5A",
"F. c #B88956",
"G. c #BC915B",
"H. c #B0915B",
"J. c #958F7F",
"K. c #B48E6C",
"L. c #B8946A",
"P. c #B69678",
"I. c #AC8D6C",
"U. c #BCA97F",
"Y. c #C38C44",
"T. c #C98947",
"R. c #C79748",
"E. c #D39749",
"W. c #C49258",
"Q. c #D28D50",
"!. c #D3AA57",
"~. c #C99862",
"^. c #C59D79",
"/. c #DAB869",
"(. c #D6B97D",
"). c #E8AE63",
"_. c #E9B568",
"`. c #EAB872",
"'. c #E7B554",
"]. c #DDC677",
"[. c #E7C46A",
"{. c #E6C477",
"}. c #F8C37A",
"|. c #5A5D80",
" X c #685B89",
".X c #67658F",
"XX c #857E86",
"oX c #938D86",
"OX c #939095",
"+X c #AD8F89",
"@X c #BA9A85",
"#X c #A29E93",
"$X c #AE968A",
"%X c #9FA09A",
"&X c #BFA08C",
"*X c #C19E86",
"=X c #C19C94",
"-X c #C6A78B",
";X c #CDAD92",
":X c #D4B6A2",
">X c #DACB93",
",X c #DFCD8D",
"<X c #ECC786",
"1X c #E5CA98",
"2X c #F9C69C",
"3X c #D8C8A6",
"4X c #E2C9A8",
"5X c #F5CDAB",
"6X c #FBD3AB",
"7X c #EBCDBA",
"8X c #E6C9B6",
"9X c #F3CDB8",
"0X c #F5D4B3",
"qX c #F2D2BA",
"wX c #FBD6B9",
"eX c #EDD1B4",
"rX c #DECCC2",
"tX c #E9CCC3",
"yX c #EED4C4",
"uX c #EED5CB",
"iX c #F6D6C5",
"pX c #F4D4CA",
"aX c #FFEBD8",
"sX c #FFF7DC",
"dX c #FAEDEC",
"fX c #EEF2E6",
"gX c #FEFBEE",
"hX c #FCF4E7",
"jX c #F5EEF3",
"kX c #EEFBF6",
"lX c #F6F5F5",
"zX c #FDF5F4",
"xX c #F4FCF4",
"cX c #FDFCF4",
"vX c #F5F6FC",
"bX c #FDF6FB",
"nX c #F5FDFC",
"mX c #FFFEFE",
/* pixels */
"mXmXmXmXmXmXmXmXmXmXmXmXmXmXmXmXmXmXmXmXmXmXmXmXbXbXbXmXcXxXmXmXmXcXlXmXcXmXvXmXmXmXmXmXmXmXnXmXmXmXmXmXmXmXmXmXmXmXmXmXmXmXmXmX",
"mXmXmXmXmXmXmXmXmXmXmXmXmXmXmXmXmXmXmXmXmXmXmXmXmXmXmXcXcXcXfXcXcXmXcXlXmXmXlXmXmXmXmXmXvXmXnXmXmXmXmXmXmXmXmXmXmXmXmXmXmXmXmXmX",
"mXmXmXmXmXmXmXmXmXmXmXmXmXmXmXmXmXmXmXmXmXmXmXmXlXbXz z n < N r t s cXmXnXmXmXmXmXmXbXmXmXmXmXnXmXmXmXmXmXmXmXmXmXmXmXmXmXmXmXmX",
"mXmXmXmXmXmXmXmXmXmXmXmXmXmXmXmXmXmXmXmXmXmXmXmXmXjXz s v v N v m l bXmXmXmXlXmXbXmXbXmXbXmXmXmXmXmXmXmXmXmXmXmXmXmXmXmXmXmXmXmX",
"mXmXmXmXmXmXmXmXmXmXmXmXmXmXmXmXmXmXmXmXmXmXmXbXbXmX  , ) >...-.-./ s t cXcXmXmXl j l x zXcXmXcXmXmXmXmXmXmXmXmXmXmXmXmXmXmXmXmX",
"mXmXmXmXmXmXmXmXmXmXmXmXmXmXmXmXmXmXmXmXmXmXmXmXzXcX. = / -.-.>.:.1.m m bXzXbXzXV m M v cXmXcXmXmXmXmXmXmXmXmXmXmXmXmXmXmXmXmXmX",
"mXmXmXmXmXmXmXmXmXmXmXmXmXmXmXmXmXmXmXmXmXmXmXmXV t t w , 5 T P 1.} } ) w N d d %.) U x bXmXcXbXmXmXmXmXmXmXmXmXmXmXmXmXmXmXmXmX",
"mXmXmXmXmXmXmXmXmXmXmXmXmXmXmXmXmXmXcXmXbXmXbXmXt x M t & # d ^ <.1.;.:.c d d c ;.` U c zXcXcXmXmXmXmXmXmXmXmXmXmXmXmXmXmXmXmXmX",
"mXmXmXmXmXmXmXmXmXmXmXmXmXmXmXmXcXmXmXcX% . t x T T ~ T T ^ . # a p <.<.u d } <.P R H H t d . . mXmXmXmXmXmXmXmXmXmXmXmXmXmXmXmX",
"mXmXmXmXmXmXmXmXmXmXmXmXmXmXmXmXmXlXcXcX. . v d ~ P T K K K # $ H H } ;.K K ;.,.I U a p d d #   zXlXmXmXmXmXnXmXmXmXmXmXmXmXmXmX",
"mXmXmXmXmXmXmXmXmXmXmXmXmXmXmXmXmXmX. X v m T P I ( ;.<.1.;.P K K H I ^ H K Y L i H Q I R T b Z   @ lXmXbXmXmXmXmXmXmXmXmXmXmXmX",
"mXmXmXmXmXmXmXmXmXmXmXmXmXmXmXmXlXmX. % m ( K K K I } } :. .( E ^ R I P K R R _ i H ] P T N v /     mXmXnXmXmXmXmXmXmXmXmXmXmXmX",
"mXmXmXmXmXmXmXmXmXmXmXmXmXmXmXmXZ , l ( T T  .Y <.X.1.<.X.| <.:.K I I K T Q ! <.,.} K P d m # . mXmXlXmXmXmXbXmXmXmXmXmXmXmXmXmX",
"mXmXmXmXmXmXmXmXmXmXmXmXmXmXmXmXs / T v b T K H } ' X.} | | :.| P ^ T T E R  .<.<.2.I R p b     mXmXmXmXmXmXmXmXmXmXmXmXmXmXmXmX",
"mXmXmXmXmXmXmXmXmXmXmXmXmXmXmXmXmXdXw x u u K I Q _ X.<.| | :.| ,.;.;.:.} } <.<.F I I K u 9 . % < < lXmXmXmXmXmXmXmXmXmXmXmXmXmX",
"mXmXmXmXmXmXmXmXmXmXmXmXmXmXmXmXmXbX9 0 0 p F R L W  .} | | | | :.;.;.<.:.<.<.} I I ^ c x 9     s < mXmXmXmXmXmXmXmXmXmXmXmXmXmX",
"mXmXmXmXmXmXmXmXmXbXmXlXmXmXxXmX# . R T K R R L R Q H K R R | :.-.;.1.X.Q I Y E Y T Z m ^ M k e   @ mXbXmXmXmXmXmXmXmXmXmXmXmXmX",
"mXmXmXmXmXmXmXmXbXmXmXlXmXmXbXmX. # K K P I H R K Y Y _ K H  .| ) 1.' ' Q D L Y T ~ / Z V M k y     mXmXbXmXmXmXmXmXmXmXmXmXmXmX",
"mXmXmXmXmXmXmXmXmXmXmXmXlXmX    b K E T R R 6 u R P H R P E  .T ~ ` I L W W F Y K B m M x k 9 0 . + mXnXmXmXmXmXmXmXmXmXmXmXmXmX",
"mXmXmXmXmXmXmXmXmXmXlXmXmXmX+   ( T m T c I 6 u Q K K Y F f E f ] U U F W D G E D P ] K t w 0 0 X   lXmXlXmXxXmXmXmXmXmXmXmXmXmX",
"mXmXmXmXmXmXmXmXzXmXbXmXmXmXj , N m T R 5 d c I H R ^ ^ u 7 P R U I I R D ! 4XyXh u J H 0 6 0 0     bXmXmXmXmXbXmXmXmXmXmXmXmXmX",
"mXmXmXmXmXmXmXmXmXmXmXmXmXmXz r / m T ~ 0 u T P K ^ K f g w K R ] I I Y D g iX7Xi i F J a p 5 9   < nXlXmXmXbXmXmXmXmXmXmXmXmXmX",
"mXmXmXnXmXmXmXmXzXmXbXbXO O Z Z s q q t x b ` K T R 6 6 K K K Y I U I K B B uXyX9XtX4 2 pXuX# . bXlXlXmXnXmXmXmXmXmXmXmXmXmXmXmX",
"mXnXmXmXmXmXmXmXmXmXmXbX. O C Z , q t t / m ~ T K ( 6 6 E P b E L R R P T Z rXyXiX9X8 S 8XuX#   nXmXmXmXmXmXmXmXmXmXmXmXmXmXmXmX",
"mXmXmXnXmXmXmXmXmXmXbXmX  + , j cXcXcXbX, s N ^ w t 5 w 6 w E Y Y L R ~ . . m Q -X&XeXqXqXpX. O mXmXmXmXmXmXmXmXmXmXmXmXmXmXmXmX",
"nXmXmXmXmXmXmXmXbXbXmXlX= . , l mXmXcXmXt q b v 9 u u d w w K K Y F b x > , T f -XP.0XqX7XtX* * mXmXmXmXmXmXmXmXmXmXmXmXmXmXmXmX",
"mXmXmXmXmXmXmXmXmXmXzXzXbXmXmXbXmXcXmXmXcXbXt t P T K c 0 6 P E F ( # . V P dXgX! G 0X0X7XdXp k mXmXmXmXmXmXmXmXmXmXmXmXmXmXmXmX",
"mXmXmXmXmXmXmXmXbXmXmXmXmXmXbXmXmXmXmXlXbXzXr r ~ ~ ^ P h w K P Y g . # ] I hXhXG G wXwX7X8Xf c mXmXmXmXmXmXmXmXmXmXmXmXmXmXmXmX",
"mXmXmXmXmXmXmXbXmXmXmXmXmXmXbXnXmXmXnXmXbXmXr q r w T ^ P b d w ( b # # =X&XdXaX$ 2 :XqXiXqXW W bXmXmXmXmXmXmXmXmXmXmXmXmXmXmXmX",
"mXmXmXmXmXmXmXmXmXmXmXmXbXmXmXmXkXmXmXmXmXmXq x e 9 P ^ T K u 5 b T # # @X*XsXaX$ 1 iXqXqX9XS D cXmXmXmXmXmXmXmXmXmXmXmXmXmXmXmX",
"mXmXmXmXmXmXmXmXmXmXbXmXnXmXbXmXmXmXnXmXmXcXmXzXx t P T K P d w # . :X@X^.^.5X6XwX8XtXiXwX5X^.;XcXmXmXmXmXmXmXmXmXmXmXmXmXmXmXmX",
"mXmXmXmXmXmXmXmXbXbXmXmXmXbXnXmXnXnXnXmXbXmXbXmX9 9 Z ~ N T w 9 # & $X@X^.^.1X6XwX9XiXpXtX9X^.^.cXmXmXmXmXmXmXmXmXmXmXmXmXmXmXmX",
"mXmXmXmXmXmXmXmXmXmXmXmXmXmXmXmXmXnXnXmXmXmXmXmXcXgXcXcX  = l V d h h 7 7.j.I.L.6X5X@X&X] U sXhXcXmXmXmXmXmXmXmXmXmXmXmXmXmXmXmX",
"mXmXmXmXmXmXmXmXmXmXmXmXmXmXmXmXnXnXmXmXbXmXmXmXmXlXmXmX  + C n h 7 v N 4.6.-XL.wX9X;X+X%.U cXhXmXmXmXmXmXmXmXmXmXmXmXmXmXmXmXmX",
"mXmXmXmXmXmXmXmXmXmXmXmXmXmXmXmXmXnXmXmXmXmXmXmXmXcXzXcX  + j v . & b v   # h g f f y C bXmXzXmXmXmXmXmXmXmXmXmXmXmXmXmXmXmXmXmX",
"mXmXmXmXmXmXmXmXmXmXmXmXmXmXmXmXmXmXmXmXmXmXbXmXmXcXxXnX  X z < . & w d = * v q y M C A bXvXmXnXmXmXmXmXmXmXmXmXmXmXmXmXmXmXmXmX",
"mXmXmXmXmXmXmXmXmXmXmXmXmXmXmXmXmXmXmXmXmXmXmXmXmXnXmXmX    @ O . O 1 # . . OXOXO O bXmXmXxXnXmXmXmXmXmXmXmXmXmXmXmXmXmXmXmXmXmX",
"mXmXmXmXmXmXmXmXmXmXmXmXmXmXmXmXmXmXmXmXmXmXmXmXmXnXxXnXX X   . # # $ 1 $ # .XOX: : mXjXcXxXmXnXmXmXmXmXmXmXmXmXmXmXmXmXmXmXmXmX",
"mXmXmXmXmXmXmXmXmXmXmXmXmXmXmXmXmXmXmXmXmXmXmXmXmXmXmXnXlXlX  # g.u.F.h.L.I.k.w.$.+.o = cXhXmXnXmXmXmXmXmXmXmXmXmXmXmXmXmXmXmXmX",
"mXmXmXmXmXmXmXmXmXmXmXmXmXmXmXmXmXmXmXmXmXmXmXmXnXnXlXmXmXcX. # p.s.T.T.Y.h.g.0.$.$.O O cXcXmXnXmXmXmXmXmXmXmXmXmXmXmXmXmXmXmXmX",
"mXmXmXmXmXmXmXmXmXmXmXmXmXmXmXmXmXmXmXmXmXmXmXmXmXmXmXmXcXcX% # Z.Q.}.).R.A.S.+X0.q.    mXmXmXlXmXmXmXmXmXmXmXmXmXmXmXmXmXmXmXmX",
"mXmXmXmXmXmXmXmXmXmXmXmXmXmXmXmXbXmXmXbXbXmXmXmXnXnXnXmXzXgX. 4 T.V.)._.R.R.G.P.0.8.: o mXmXmXbXmXmXmXmXmXmXmXmXmXmXmXmXmXmXmXmX",
"mXmXmXmXmXmXmXmXmXmXmXmXmXmXmXmXmXmXmXmXcXmXmXmXnXmXmXmX# # O.y.R.m.4 1 {.].A.I.0. X@.*.o o bXzXmXmXmXmXmXmXmXmXmXmXmXmXmXmXmXmX",
"mXmXmXmXmXmXmXmXmXmXmXmXmXmXmXmXmXmXmXmXmXmXmXmXmXbXzXmX# $ g.y.B.m.1 1 <X/.A.S.0.|.=.@.: o mXmXmXmXmXmXmXmXmXmXmXmXmXmXmXmXmXmX",
"mXmXmXmXmXmXmXmXmXmXmXmXmXmXmXmXmXmXmXmXcXmXmXmXnXmXbXcX$ 1 K.D.R.Y.u.p.}.{.!.H.P @.#.#.: ; mXnXmXmXmXmXmXmXmXmXmXmXmXmXmXmXmXmX",
"mXmXmXmXmXmXmXmXmXmXmXmXmXmXmXmXmXmXmXcXmXcXcXmXjXbXbXdX4 1 S.~.Z.Z.h.s._.!.A.H.H +.9.#.; o nXbXmXmXmXmXmXmXmXmXmXmXmXmXmXmXmXmX",
"mXmXmXmXmXmXmXmXmXmXmXmXmXmXmXmXmXmXmXmXcXmXnXmXmXmX9 U @X^.2X2X$ 2 h.Q.E.E.`.,X# > 9.8.+ + nXmXmXmXmXmXmXmXmXmXmXmXmXmXmXmXmXmX",
"mXmXmXmXmXmXmXmXmXmXmXmXmXmXmXmXmXmXmXcXmXcXcXmXbXzXd H @X;X2X6X$ $ W.T.m.E.!.1X& O 8.q.O . cXmXmXmXmXmXmXmXmXmXmXmXmXmXmXmXmXmX",
"mXmXmXmXmXmXmXmXmXmXmXmXmXmXmXmXmXcXmXcXcXmXcXcXcXgXf i iX9XwXeX# . Z.B.b.V.[.,X.   .X.X;   mXcXmXmXmXmXmXmXmXmXmXmXmXmXmXmXmXmX",
"mXmXmXmXmXmXmXmXmXmXmXmXmXmXmXmXmXmXmXmXmXlXmXmXcXdXf g 8XiXqX4X& 3 x.m.b.b.'./.% X 8.|.; o mXzXmXmXmXmXmXmXmXmXmXmXmXmXmXmXmXmX",
"mXmXmXmXmXmXmXmXmXmXmXmXmXmXmXmXmXnXnXnXmXnXnXnXlXbX. . # . # $ g.u.Q.E.b.v.V.R.(.3X    mXmXmXmXmXmXmXmXmXmXmXmXmXmXmXmXmXmXmXmX",
"mXmXmXmXmXmXmXmXmXmXmXmXmXmXmXmXnXnXnXnXnXnXnXmXcXzX& # $ $ # 1 i.i.d.N.N.N.m.x.{.>X.   lXkXbXvXmXmXmXmXmXmXmXmXmXmXmXmXmXmXmXmX",
"mXmXmXmXmXmXmXmXmXmXmXmXmXmXmXmXbXmXmXnXxXxX  . . $ I.K.S.D.~.Q.z.z.N.N.M.m.m.Y.<X1XX   xXxXmXmXmXmXmXmXmXmXmXmXmXmXmXmXmXmXmXmX",
"mXmXmXmXmXmXmXmXmXmXmXmXmXmXmXmXmXbXmXmXmXcX. . $ 2 D.T.Q.T.T.N.z.z.b.b.M.m.m.Y.<X&X-   xXnXmXjXmXmXmXmXmXmXmXmXmXmXmXmXmXmXmXmX",
"mXmXmXmXmXmXmXmXmXmXmXmXmXmXmXmXmXbXmXbX. # P.L.D.Z.s.i.t.r.M.b.M.n.v.b.m.Y.A.G.# -   @ kXnXmXmXmXmXmXmXmXmXmXmXmXmXmXmXmXmXmXmX",
"mXmXmXmXmXmXmXmXmXmXmXmXmXmXmXmXbXmXbXzX$ # K.L.W.Z.e.e.t.r.b.n.c.B.c.n.Y.A.F.K.%   @ @ nXmXbXbXmXmXmXmXmXmXmXmXmXmXmXmXmXmXmXmX",
"mXmXmXmXmXmXmXmXmXmXmXmXmXmXmXmXbXbXmXmXzXlX. # $ $ W.R.m.E._._.[.].{.`.1 1 # # oX#Xw.w.X   bXbXmXmXmXmXmXmXmXmXmXmXmXmXmXmXmXmX",
"mXmXmXmXmXmXmXmXmXmXmXmXmXmXmXmXmXnXmXmXmXfXq . # $ S.D.Z.~.`.<X,X>X>X4X# # # . #XoX7.0.5 0 bXbXmXmXmXmXmXmXmXmXmXmXmXmXmXmXmXmX",
"mXmXmXmXmXmXmXmXmXmXmXmXmXmXmXmXkXnXnXnXcXcXfXgX# # 6.6.o.{ 1 $ sXhX# . # + oX#X7.j.2.f.' &.$ O mXmXmXmXmXmXmXmXmXmXmXmXmXmXmXmX",
"mXmXmXmXmXmXmXmXmXmXmXmXmXmXmXmXnXxXxXnXnXxXcXgX# O ;.<.<.4.# # lXmX= O o   OX#Xj.g.o.f.&.&.* O mXmXmXmXmXmXmXmXmXmXmXmXmXmXmXmX",
"mXmXmXmXmXmXmXmXmXmXmXmXmXmXmXmXcXcXcXcXmXcXcXlXgXgX. # . # hXcXbXbXbXmXmXmX    1.3.[ [ J ^ dXmXmXmXmXmXmXmXmXmXmXmXmXmXmXmXmXmX",
"mXmXmXmXmXmXmXmXmXmXmXmXmXmXmXmXmXbXcXmXcXcXmXlXmXmX        mXmXmXbXmXnXnXmX  . 1.3.3.2.c s gXcXmXmXmXmXmXmXmXmXmXmXmXmXmXmXmXmX",
"mXmXmXmXmXmXmXmXmXmXmXmXmXmXmXmXmXbXmXvXmXmXmXmXmXlXmXhXcXnXfXxXbXbXxXnXxXxXmXzXO * * O cXmXfXcXmXmXmXmXmXmXmXmXmXmXmXmXmXmXmXmX",
"mXmXmXmXmXmXmXmXmXmXmXmXmXmXmXmXbXmXmXmXmXmXmXbXmXmXmXxXnXkXmXnXmXmXxXxXcXcXbXmXO O O   lXnXcXgXmXmXmXmXmXmXmXmXmXmXmXmXmXmXmXmX"
};
