/* XPM */
static char *look_front[] = {
/* columns rows colors chars-per-pixel */
"64 64 13 1 ",
"  c black",
". c #010101",
"X c #2A2A2A",
"o c #680000",
"O c gray29",
"+ c red",
"@ c #C73535",
"# c #FF5700",
"$ c #A25050",
"% c #FFB100",
"& c #08F89F",
"* c #A4A4A4",
"= c None",
/* pixels */
"================================================================",
"================================================================",
"================================================================",
"==========================##========##==========================",
"==========================#%========%#==========================",
"==========================#%==++++==%#==========================",
"===========================#%++++++%#===========================",
"===========================o#%++++%#o===========================",
"==========================o+@#%%%%#@+o==========================",
"=========================+++..#$$#..+++=========================",
"=========================+o.++.##.++.o+=========================",
"=========================+o.+&o..o&+.o+=========================",
"========================++o.++o++o++.o++========================",
"=======================o+ooo+++oo+++ooo+o=======================",
"===================XX#=++o..o++..++o..o++=#XX===================",
"==================XXX%@@o..o.o*..*o.o..o@@%XXX==================",
"==================XXX%+.+..oo.o++o.oo..+.+%XXX==================",
"==================@@#o+.++.o++.++.++o.++.+o#@@==================",
"===================+oo.++++++++oo++++++++.oo+===================",
"====================..++++++++++++++++++++..====================",
"=================+++++.+++oo++XXXX++oo+++.+++++=================",
"=================oo..++.+oXo++++++++oXo+.++..oo=================",
"================+++++.+.oXXo++++++++oXXo.+.+++++================",
"===============+$#%%++o...oo++++++++oo...o++%%#$+===============",
"===============$..==%+...=XooXX..XXooX=...+%..==$===============",
"===================..#...=.XX.++++.XX.==..#...o=================",
"================+++......=o..........o===..+++o=================",
"===============+++++...===o..++++++..o===.+++++=================",
"===============+++++..====o...XXXX...o===.+++++=================",
"===============++++...====X.$..XX..$.X==$.+++++=================",
"===============o++...====+++X.$XX$..+++=$oooo+==================",
"===============o....====+#+++......+++#+=o##o+==================",
"===============.+++===++#+++++....+++++#+o##o+==================",
"===============..++==+++++++++....+++++++oooo===================",
"================..==++.....+++X..X+++.....++====================",
"===============XX.==+.+++++..+X$$X+..+++++.+====================",
"===============XXXX==++++++++.$$$$.++++++++=====================",
"==============XXX.XX+++++++++X$$$$X+++++++++====================",
"==============XXXX==++oooo++XX$$$$XX++oooo++====================",
"===============X..X=+o....+XXX$XX$XXX+....o+====================",
"===============.X=X=+==.....XXX..XXX.....==+====================",
"================X=======.......==.......========================",
"========================++...+.==.+...++========================",
"=======================X++++++====++++++X=======================",
"======================XX++++++====++++++XX======================",
"======================X++....+====+....++X======================",
"====================OOX+.+++..====..+++.+X======================",
"===================OOOX.++++++====++++++.X======================",
"==================OOOOO+++++++====+++++++=======================",
"=================OOOOOO++XXX++====++XXX++=======================",
"=================OOOOOO+XXXXX+====+XXXXX+=======================",
"=================OOOOOOOXX$XO=======X$XX========================",
"=================OOOOOOOXX$XOO======X$XX========================",
"==================OOOOOOo++.OOO=====.++o========================",
"==================OOOOOOo++.OOOO====.++o========================",
"==================OOOOOoo++oOOOOO===o++oo=======================",
"===================OOOOXXXoo=OOOOO==ooXXX=======================",
"====================OOX$$$XX===OOOOOXX$$$X======================",
"=====================OX.X.XX=====OOOXX.X.X======================",
"================================================================",
"================================================================",
"================================================================",
"================================================================",
"================================================================"
};
