/* XPM */
static char *walk_back_0[] = {
/* columns rows colors chars-per-pixel */
"64 64 10 1 ",
"  c #010101",
". c #2A2A2A",
"X c #680000",
"o c gray29",
"O c red",
"+ c #C73535",
"@ c #FF5700",
"# c #984B4B",
"$ c #A25050",
"% c None",
/* pixels */
"%%%%%%%%%%%%%%%%%%%%%%%%%%%%%%%%%%%%%%%%%%%%%%%%%%%%%%%%%%%%%%%%",
"%%%%%%%%%%%%%%%%%%%%%%%%%%%%%%%%%%%%%%%%%%%%%%%%%%%%%%%%%%%%%%%%",
"%%%%%%%%%%%%%%%%%%%%%%%%%%%%%%%%%%%%%%%%%%%%%%%%%%%%%%%%%%%%%%%%",
"%%%%%%%%%%%%%%%%%%%%%%%%%@@%%%%%%%%@@%%%%%%%%%%%%%%%%%%%%%%%%%%%",
"%%%%%%%%%%%%%%%%%%%%%%%%%@@%%%%%%%%@@%%%%%%%%%%%%%%%%%%%%%%%%%%%",
"%%%%%%%%%%%%%%%%%%%%%%%%%@@%%OOOO%%@@%%%%%%%%%%%%%%%%%%%%%%%%%%%",
"%%%%%%%%%%%%%%%%%%%%%%%%%%@@OOOOOO@@%%%%%%%%%%%%%%%%%%%%%%%%%%%%",
"%%%%%%%%%%%%%%%%%%%%%%%%%%XOOOOOOOOX%%%%%%%%%%%%%%%%%%%%%%%%%%%%",
"%%%%%%%%%%%%%%%%%%%%%%%%%XOOOOOOOOOOX%%%%%%%%%%%%%%%%%%%%%%%%%%%",
"%%%%%%%%%%%%%%%%%%%%%%%%OOOOOOOOOOOOOO%%%%%%%%%%%%%%%%%%%%%%%%%%",
"%%%%%%%%%%%%%%%%%%%%%%%%OXOOOOOOOOOOXOO%%%%%%%%%%%%%%%%%%%%%%%%%",
"%%%%%%%%%%%%%%%%%%%%%%%%OXOOOOOOOOOOXOO%%%%%%%%%%%%%%%%%%%%%%%%%",
"%%%%%%%%%%%%%%%%%%%%%%%%OXOOOOOOOOOOXOOO%%%%%%%%%%%%%%%%%%%%%%%%",
"%%%%%%%%%%%%%%%%%%%%%%%XXXOOOOOOOOOOXXOOX%%%%%%%%%%%%%%%%%%%%%%%",
"%%%%%%%%%%%%%%%%%%%..@%OXXXOOOOOOOOXXXXOO%@..%%%%%%%%%%%%%%%%%%%",
"%%%%%%%%%%%%%%%%%%...@++ XXOOOOOOOOXX  X++@...%%%%%%%%%%%%%%%%%%",
"%%%%%%%%%%%%%%%%%%...@OO  XXOOOOOOXX  XOOO@...%%%%%%%%%%%%%%%%%%",
"%%%%%%%%%%%%%%%%%%++@OOOO XOXOOOOXOX OXOOOO@++%%%%%%%%%%%%%%%%%%",
"%%%%%%%%%%%%%%%%%%%OOOOOOXXOOXXXXOOOOXOOOOOOO%%%%%%%%%%%%%%%%%%%",
"%%%%%%%%%%%%%%%%%%OOOOOOOXOOOOOOOOOOOXOOOOOO%%%%%%%%%%%%%%%%%%%%",
"%%%%%%%%%%%%%%%%%XXXXOOOOXOOOOOOOOOOOXOOOOOXOOO%%%%%%%%%%%%%%%%%",
"%%%%%%%%%%%%%%%%%OOOOXOOOXXOOOOOOOOOO.XOOOXOOOO%%%%%%%%%%%%%%%%%",
"%%%%%%%%%%%%%%%%OOOOOOXOX..OOOOOOOOOO..XOXOOOOOO%%%%%%%%%%%%%%%%",
"%%%%%%%%%%%%%%%O@@@@OOOX  XXOOOOOOOOXX   OOO@@@@O%%%%%%%%%%%%%%%",
"%%%%%%%%%%%%%%%@    @OO  %.XXOOOOOOXX.%  OO@  %%@%%%%%%%%%%%%%%%",
"%%%%%%%%%%%%%%%%     @  %% XXXOOOOXXX %%  @   %%%%%%%%%%%%%%%%%%",
"%%%%%%%%%%%%%%%%OOX    %%%XXXOOOOOOXXX%%%   XOO%%%%%%%%%%%%%%%%%",
"%%%%%%%%%%%%%%%OOOX   %%%%XXXOOOOOOXXX%%%  XOOO%%%%%%%%%%%%%%%%%",
"%%%%%%%%%%%%%%OOOX   %%%%%XXXOOOOOOOXX%%% XOOOO%%%%%%%%%%%%%%%%%",
"%%%%%%%%%%%%%%OOXX  %%%%%%.  #OOOOOO .%%% XOOO%%%%%%%%%%%%%%%%%%",
"%%%%%%%%%%%%%%OOX   %%%OOO  .XXOOOXXOOO@% XOOO%%%%%%%%%%%%%%%%%%",
"%%%%%%%%%%%%%%OXX  O%%@OOOO   XOOOXOOO@O@$$XO%%%%%%%%%%%%%%%%%%%",
"%%%%%%%%%%%%%%OX   X%@OOOOOO  XOOXOOOOO@O$$ O%%%%%%%%%%%%%%%%%%%",
"%%%%%%%%%%%%%%XX   %OOOOOOOO   OOXOOOOOOOOO %%%%%%%%%%%%%%%%%%%%",
"%%%%%%%%%%%%%%%%....OOXXXXXXO  OOXOXXXXXXXOO%%%%%%%%%%%%%%%%%%%%",
"%%%%%%%%%%%%%%%%    OXOOOOOOX  OOXXOOOOOOOXO%%%%%%%%%%%%%%%%%%%%",
"%%%%%%%%%%%%%%%%....XOOOOOOOO  OOOXOOOOOOOO%%%%%%%%%%%%%%%%%%%%%",
"%%%%%%%%%%%%%%%%%%%%OOOOOOOOO  OOOOXOOOOOOOO%%%%%%%%%%%%%%%%%%%%",
"%%%%%%%%%%%%%%%%%%%OOOXXXXXOO  OOOOOXXXXOOOO%%%%%%%%%%%%%%%%%%%%",
"%%%%%%%%%%%%%%%%%%%OOX     XO  XOOOOX   XOOO%%%%%%%%%%%%%%%%%%%%",
"%%%%%%%%%%%%%%%%%%%%O       O   XOOOX    XO%%%%%%%%%%%%%%%%%%%%%",
"%%%%%%%%%%%%%%%%%%%%%%%X      XX%X        %%%%%%%%%%%%%%%%%%%%%%",
"%%%%%%%%%%%%%%%%%%%%%%%X     XX%%%       XX%%%%%%%%%%%%%%%%%%%%%",
"%%%%%%%%%%%%%%%%%%%%%%%X     X%%%%      .XX%%%%%%%%%%%%%%%%%%%%%",
"%%%%%%%%%%%%%%%%%%%%%%%X     X%%%%      ..X%%%%%%%%%%%%%%%%%%%%%",
"%%%%%%%%%%%%%%%%%%%%%%%X      %%%%       .X%%%%%%%%%%%%%%%%%%%%%",
"%%%%%%%%%%%%%%%%%%%%ooo.      %%%%       .%%%%%%%%%%%%%%%%%%%%%%",
"%%%%%%%%%%%%%%%%%%%ooooX     X%%%%X      .%%%%%%%%%%%%%%%%%%%%%%",
"%%%%%%%%%%%%%%%%%%oooooX     X%%%%X      X%%%%%%%%%%%%%%%%%%%%%%",
"%%%%%%%%%%%%%%%%%ooooooX .   X%%%%XX  ..XX%%%%%%%%%%%%%%%%%%%%%%",
"%%%%%%%%%%%%%%%%oooooooX..  XX%%%%XX  ..XX%%%%%%%%%%%%%%%%%%%%%%",
"%%%%%%%%%%%%%%%%oooooooo..  o%%%%%%%  ..%%%%%%%%%%%%%%%%%%%%%%%%",
"%%%%%%%%%%%%%%%%oooooooo..  oo%%%%%%  ..%%%%%%%%%%%%%%%%%%%%%%%%",
"%%%%%%%%%%%%%%%%%oooooooX   oo%%%%%%   X%%%%%%%%%%%%%%%%%%%%%%%%",
"%%%%%%%%%%%%%%%%%%ooooooX   ooo%%%%%   X%%%%%%%%%%%%%%%%%%%%%%%%",
"%%%%%%%%%%%%%%%%%%%oooooX  Xooooo%%%X  XXX%%%%%%%%%%%%%%%%%%%%%%",
"%%%%%%%%%%%%%%%%%%%ooooo. XX%%ooooo%X  ....%%%%%%%%%%%%%%%%%%%%%",
"%%%%%%%%%%%%%%%%%%%%%oo.....%%%%oooo........%%%%%%%%%%%%%%%%%%%%",
"%%%%%%%%%%%%%%%%%%%%%%%     %%%%%%oo        %%%%%%%%%%%%%%%%%%%%",
"%%%%%%%%%%%%%%%%%%%%%%%%%%%%%%%%%%%%%%%%%%%%%%%%%%%%%%%%%%%%%%%%",
"%%%%%%%%%%%%%%%%%%%%%%%%%%%%%%%%%%%%%%%%%%%%%%%%%%%%%%%%%%%%%%%%",
"%%%%%%%%%%%%%%%%%%%%%%%%%%%%%%%%%%%%%%%%%%%%%%%%%%%%%%%%%%%%%%%%",
"%%%%%%%%%%%%%%%%%%%%%%%%%%%%%%%%%%%%%%%%%%%%%%%%%%%%%%%%%%%%%%%%",
"%%%%%%%%%%%%%%%%%%%%%%%%%%%%%%%%%%%%%%%%%%%%%%%%%%%%%%%%%%%%%%%%"
};
