/* XPM */
static char *walk_back_1[] = {
/* columns rows colors chars-per-pixel */
"64 64 10 1 ",
"  c #010101",
". c #2A2A2A",
"X c #680000",
"o c gray29",
"O c red",
"+ c #C73535",
"@ c #FF5700",
"# c #8E4646",
"$ c #A25050",
"% c None",
/* pixels */
"%%%%%%%%%%%%%%%%%%%%%%%%%%%%%%%%%%%%%%%%%%%%%%%%%%%%%%%%%%%%%%%%",
"%%%%%%%%%%%%%%%%%%%%%%%%%%%%%%%%%%%%%%%%%%%%%%%%%%%%%%%%%%%%%%%%",
"%%%%%%%%%%%%%%%%%%%%%%%%%%%%%%%%%%%%%%%%%%%%%%%%%%%%%%%%%%%%%%%%",
"%%%%%%%%%%%%%%%%%%%%%%%%%%@@@%%%%%%%@@@%%%%%%%%%%%%%%%%%%%%%%%%%",
"%%%%%%%%%%%%%%%%%%%%%%%%%%@@@%%%%%%%@@@%%%%%%%%%%%%%%%%%%%%%%%%%",
"%%%%%%%%%%%%%%%%%%%%%%%%%%@@@%OOOOO%@@@%%%%%%%%%%%%%%%%%%%%%%%%%",
"%%%%%%%%%%%%%%%%%%%%%%%%%%%@@@OOOOOO@@%%%%%%%%%%%%%%%%%%%%%%%%%%",
"%%%%%%%%%%%%%%%%%%%%%%%%%%%XXOOOOOOOOX%%%%%%%%%%%%%%%%%%%%%%%%%%",
"%%%%%%%%%%%%%%%%%%%%%%%%%%XXOOOOOOOOOOX%%%%%%%%%%%%%%%%%%%%%%%%%",
"%%%%%%%%%%%%%%%%%%%%%%%%%OOOOOOOOOOOOOOO%%%%%%%%%%%%%%%%%%%%%%%%",
"%%%%%%%%%%%%%%%%%%%%%%%%%OOXOOOOOOOOOOXO%%%%%%%%%%%%%%%%%%%%%%%%",
"%%%%%%%%%%%%%%%%%%%%%%%%%OOXOOOOOOOOOOXO%%%%%%%%%%%%%%%%%%%%%%%%",
"%%%%%%%%%%%%%%%%%%%%%%%%OOOXOOOOOOOOOOXO%%%%%%%%%%%%%%%%%%%%%%%%",
"%%%%%%%%%%%%%%%%%%%%%%%XOOXXOOOOOOOOOOXXX%%%%%%%%%%%%%%%%%%%%%%%",
"%%%%%%%%%%%%%%%%%%%%%%%OOXXXXOOOOOOOOXXXO%@..%%%%%%%%%%%%%%%%%%%",
"%%%%%%%%%%%%%%%%%%%..@%+X  XXOOOOOOOOXX ++@...%%%%%%%%%%%%%%%%%%",
"%%%%%%%%%%%%%%%%%%...@+OOX  XXOOOOOOXX  OO@...%%%%%%%%%%%%%%%%%%",
"%%%%%%%%%%%%%%%%%%...@OOOXO XOXOOOOXOX OOOO@++%%%%%%%%%%%%%%%%%%",
"%%%%%%%%%%%%%%%%%%++@OOOOOXOOOOXXXXOOXXOOOOOO%%%%%%%%%%%%%%%%%%%",
"%%%%%%%%%%%%%%%%%%%OOOOOOOXOOOOOOOOOOOXOOOOOOOO%%%%%%%%%%%%%%%%%",
"%%%%%%%%%%%%%%%%%%%%OOOOOXXOOOOOOOOOOOXOOOOOOOOO%%%%%%%%%%%%%%%%",
"%%%%%%%%%%%%%%%%%%%OOOXXXX.OOOOOOOOOOXXXOOOXXXXX%%%%%%%%%%%%%%%%",
"%%%%%%%%%%%%%%%%%%%OOXOOOOXOOOOOOOOOO..XOOXOOOOO%%%%%%%%%%%%%%%%",
"%%%%%%%%%%%%%%%%%%%%XOOOO XXOOOOOOOOXX   XOO@@@@O%%%%%%%%%%%%%%%",
"%%%%%%%%%%%%%%%%%%%%OO@@@@.XXOOOOOOXX.%   O@  %%@%%%%%%%%%%%%%%%",
"%%%%%%%%%%%%%%%%%%%%O@XXX  XXXOOOOXXX %%  @   X%%%%%%%%%%%%%%%%%",
"%%%%%%%%%%%%%%%%%%%%O@OX  XXXOOOOOOXXX%%%.   XOO%%%%%%%%%%%%%%%%",
"%%%%%%%%%%%%%%%%%%%%%%OX  XXXOOOOOOXXX%%%%  XOOO%%%%%%%%%%%%%%%%",
"%%%%%%%%%%%%%%%%%%%%%OX   XXOOOOOOOXXX%XX  XOOOO%%%%%%%%%%%%%%%%",
"%%%%%%%%%%%%%%%%%%%%%X      OOOOOO#  .%XX  XOOO%%%%%%%%%%%%%%%%%",
"%%%%%%%%%%%%%%%%%%%%%  @OOOOXOOOOXX.  OXX  XOOO%%%%%%%%%%%%%%%%%",
"%%%%%%%%%%%%%%%%%%%%%%@O@OOOOXOOOX   OOOOO@XXO%%%%%%%%%%%%%%%%%%",
"%%%%%%%%%%%%%%%%%%%%%OO@OOOOOOXOO   OOOOOOO@XX%%%%%%%%%%%%%%%%%%",
"%%%%%%%%%%%%%%%%%%%%%OOOOOOOOOXOO  OOOOOOOOOX$$%%%%%%%%%%%%%%%%%",
"%%%%%%%%%%%%%%%%%%%%OOXXXXXXXOXOO  OXXXXXXXOO$$%%%%%%%%%%%%%%%%%",
"%%%%%%%%%%%%%%%%%%%%OXOOOOOOOXXOO  XOOOOOOOXO%%%%%%%%%%%%%%%%%%%",
"%%%%%%%%%%%%%%%%%%%%XOOOOOOOOXOOO  OOOOOOOOO%%%%%%%%%%%%%%%%%%%%",
"%%%%%%%%%%%%%%%%%%%%OOOOOOOOXOOOO  OOOOOOOOOO%%%%%%%%%%%%%%%%%%%",
"%%%%%%%%%%%%%%%%%%%%OOOXXXXXOOOOO  OOXXXXXOOO%%%%%%%%%%%%%%%%%%%",
"%%%%%%%%%%%%%%%%%%%%OOX    XOOOOX  OX     XOO%%%%%%%%%%%%%%%%%%%",
"%%%%%%%%%%%%%%%%%%%%%O     XOOOX   O       O%%%%%%%%%%%%%%%%%%%%",
"%%%%%%%%%%%%%%%%%%%%%%        X%XX      X%%%%%%%%%%%%%%%%%%%%%%%",
"%%%%%%%%%%%%%%%%%%%%%XX       %%%XX     X%%%%%%%%%%%%%%%%%%%%%%%",
"%%%%%%%%%%%%%%%%%%%%%XX.      %%%%X     X%%%%%%%%%%%%%%%%%%%%%%%",
"%%%%%%%%%%%%%%%%%%%%%X..      %%%%X     X%%%%%%%%%%%%%%%%%%%%%%%",
"%%%%%%%%%%%%%%%%%%%%%X.       %%%%      X%%%%%%%%%%%%%%%%%%%%%%%",
"%%%%%%%%%%%%%%%%%%%%oo.       %%%%      .%%%%%%%%%%%%%%%%%%%%%%%",
"%%%%%%%%%%%%%%%%%%%ooo.      X%%%%X     X%%%%%%%%%%%%%%%%%%%%%%%",
"%%%%%%%%%%%%%%%%%%ooooX      X%%%%X     X%%%%%%%%%%%%%%%%%%%%%%%",
"%%%%%%%%%%%%%%%%%%ooooXX..  XX%%%%X   . X%%%%%%%%%%%%%%%%%%%%%%%",
"%%%%%%%%%%%%%%%%%%ooooXX..  XX%%%%XX  ..X%%%%%%%%%%%%%%%%%%%%%%%",
"%%%%%%%%%%%%%%%%%%oooooo..  o%%%%%%%  ..%%%%%%%%%%%%%%%%%%%%%%%%",
"%%%%%%%%%%%%%%%%%%oooooo..  o%%%%%%%  ..%%%%%%%%%%%%%%%%%%%%%%%%",
"%%%%%%%%%%%%%%%%%%ooooooX   oo%%%%%%   X%%%%%%%%%%%%%%%%%%%%%%%%",
"%%%%%%%%%%%%%%%%%%ooooooX   ooo%%%%%   X%%%%%%%%%%%%%%%%%%%%%%%%",
"%%%%%%%%%%%%%%%%%%ooooXXX  Xoooo%%%%X  X%%%%%%%%%%%%%%%%%%%%%%%%",
"%%%%%%%%%%%%%%%%%%ooo....  Xoooooo%%XX .%%%%%%%%%%%%%%%%%%%%%%%%",
"%%%%%%%%%%%%%%%%%%%o........%%%ooooo.....%%%%%%%%%%%%%%%%%%%%%%%",
"%%%%%%%%%%%%%%%%%%%%..      %%%%%ooo     %%%%%%%%%%%%%%%%%%%%%%%",
"%%%%%%%%%%%%%%%%%%%%%%%%%%%%%%%%%%%%%%%%%%%%%%%%%%%%%%%%%%%%%%%%",
"%%%%%%%%%%%%%%%%%%%%%%%%%%%%%%%%%%%%%%%%%%%%%%%%%%%%%%%%%%%%%%%%",
"%%%%%%%%%%%%%%%%%%%%%%%%%%%%%%%%%%%%%%%%%%%%%%%%%%%%%%%%%%%%%%%%",
"%%%%%%%%%%%%%%%%%%%%%%%%%%%%%%%%%%%%%%%%%%%%%%%%%%%%%%%%%%%%%%%%",
"%%%%%%%%%%%%%%%%%%%%%%%%%%%%%%%%%%%%%%%%%%%%%%%%%%%%%%%%%%%%%%%%"
};
