/* XPM */
static char *tile006[] = {
/* columns rows colors chars-per-pixel */
"64 64 237 2 ",
"   c #040101",
".  c #0C0101",
"X  c #0E0900",
"o  c #03010B",
"O  c #0A0009",
"+  c #040D0A",
"@  c #130101",
"#  c #1A0100",
"$  c #140A02",
"%  c #1C0C01",
"&  c #120608",
"*  c #1A050A",
"=  c #140B0A",
"-  c #1A0D0D",
";  c #161009",
":  c #030212",
">  c #01011B",
",  c #0A0716",
"<  c #1D1415",
"1  c #191818",
"2  c #160616",
"3  c #230200",
"4  c #2B0200",
"5  c #240B00",
"6  c #2B0E00",
"7  c #2C130D",
"8  c #291808",
"9  c #32160A",
"0  c #381A05",
"q  c #231513",
"w  c #2B1513",
"e  c #251914",
"r  c #2D1A15",
"t  c #251B1A",
"y  c #2C1D1B",
"u  c #271718",
"i  c #311613",
"p  c #311914",
"a  c #381B10",
"s  c #341D1B",
"d  c #391E1A",
"f  c #381710",
"g  c #1D211B",
"h  c #2D211E",
"j  c #2A2614",
"k  c #34221D",
"l  c #3C241D",
"z  c #392A1A",
"x  c #3C2F13",
"c  c #040126",
"v  c #090626",
"b  c #17163E",
"n  c #331F20",
"m  c #281F20",
"M  c #2D2223",
"N  c #332523",
"B  c #3C2623",
"V  c #342B22",
"C  c #3D2A25",
"Z  c #342A2A",
"A  c #3C2C2B",
"S  c #36272A",
"D  c #3D322E",
"F  c #343224",
"G  c #372C35",
"H  c #3E3130",
"J  c #4C2303",
"K  c #582B0A",
"L  c #442B1D",
"P  c #43251B",
"I  c #4E3419",
"U  c #64350B",
"Y  c #412724",
"T  c #442B25",
"R  c #4B2E25",
"E  c #442D2A",
"W  c #4A2E2A",
"Q  c #463123",
"!  c #4B3126",
"~  c #44312C",
"^  c #4B322D",
"/  c #4E3B2D",
"(  c #52352C",
")  c #5A3B2B",
"_  c #443432",
"`  c #4C3432",
"'  c #4D3933",
"]  c #473939",
"[  c #513633",
"{  c #523933",
"}  c #523F3C",
"|  c #5C3E3C",
" . c #5F3632",
".. c #492E32",
"X. c #53423D",
"o. c #5C443D",
"O. c #5F4A3D",
"+. c #574436",
"@. c #5B402F",
"#. c #694734",
"$. c #724939",
"%. c #7A5536",
"&. c #6D452C",
"*. c #3E354D",
"=. c #363459",
"-. c #37396E",
";. c #3D3C71",
":. c #3B3978",
">. c #463B5F",
",. c #5C3E46",
"<. c #5C4641",
"1. c #5F4A44",
"2. c #5D4D4C",
"3. c #534441",
"4. c #624641",
"5. c #644A44",
"6. c #634E4A",
"7. c #6A4E48",
"8. c #6A564B",
"9. c #7A5845",
"0. c #6A5859",
"q. c #7C6359",
"w. c #5D4E6F",
"e. c #55557B",
"r. c #4F4B73",
"t. c #68586D",
"y. c #8F5A37",
"u. c #AD793D",
"i. c #845F42",
"p. c #8D6755",
"a. c #9A6843",
"s. c #B7883B",
"d. c #BB933A",
"f. c #C28E39",
"g. c #C7993B",
"h. c #C5832F",
"j. c #9D9358",
"k. c #BD8B45",
"l. c #B7874A",
"z. c #B8934A",
"x. c #AA8555",
"c. c #BA8D5A",
"v. c #B3895B",
"b. c #A89656",
"n. c #BB9358",
"m. c #AC944E",
"M. c #9C8176",
"N. c #AA8968",
"B. c #B69566",
"V. c #A68C78",
"C. c #BE8F73",
"Z. c #B89A76",
"A. c #AA936F",
"S. c #C58C47",
"D. c #C39446",
"F. c #C69754",
"G. c #CE8F4D",
"H. c #D5A155",
"J. c #C7977E",
"K. c #DABB6A",
"L. c #C6A779",
"P. c #CCA672",
"I. c #E8BB6A",
"U. c #E7BB77",
"Y. c #D6C276",
"T. c #E9C87C",
"R. c #F2CA72",
"E. c #5B5489",
"W. c #6A5E98",
"Q. c #62538A",
"!. c #5F6389",
"~. c #656493",
"^. c #6E618C",
"/. c #948D92",
"(. c #8F8A93",
"). c #B99A89",
"_. c #A39192",
"`. c #BBA395",
"'. c #BCABA3",
"]. c #C59885",
"[. c #C8A88E",
"{. c #DCBB82",
"}. c #D5B680",
"|. c #C4A496",
" X c #CFB990",
".X c #E2BB84",
"XX c #E7BF9B",
"oX c #CBBBA2",
"OX c #DFBCA0",
"+X c #DAC68A",
"@X c #CDC991",
"#X c #D3C69E",
"$X c #D0D09C",
"%X c #CFC48E",
"&X c #E6C685",
"*X c #ECCA95",
"=X c #E7C9AB",
"-X c #F3CDAC",
";X c #FDCFAD",
":X c #ECD0A0",
">X c #EBCBB4",
",X c #EACEBC",
"<X c #F9C7B4",
"1X c #EED2BD",
"2X c #ECD5B5",
"3X c #F2D0B2",
"4X c #F2D3BA",
"5X c #FCD5BC",
"6X c #F9D7B5",
"7X c #E9CEC3",
"8X c #E4CCC2",
"9X c #EDD4C3",
"0X c #EDD5CA",
"qX c #EBD6C6",
"wX c #F1D5C3",
"eX c #F1D5CA",
"rX c #FBD9C5",
"tX c #F5D8D0",
"yX c #FFEEDC",
"uX c #F8F3DE",
"iX c #FFEDE2",
"pX c #F8EBEC",
"aX c #F4F4EB",
"sX c #FCF3EC",
"dX c #FDFBEC",
"fX c #FCF7E5",
"gX c #EFEFF1",
"hX c #EEFFFF",
"jX c #F4F4F4",
"kX c #FCF5F4",
"lX c #F6FCF4",
"zX c #FDFCF4",
"xX c #F5F5F9",
"cX c #FDF6FD",
"vX c #F6FDFE",
"bX c #FFFEFE",
"nX c #F3EEEA",
/* pixels */
"bXbXbXbXbXbXbXbXbXbXbXbXbXbXbXbXbXbXbXbXbXbXbXbXbXzXbXbXcXbXbXbXbXkXbXbXbXzXkXbXcXcXbXbXcXbXbXbXbXbXbXbXbXbXbXbXbXbXbXvXbXvXbXbX",
"bXbXbXbXbXbXbXbXbXbXbXbXbXbXbXbXbXbXbXbXbXbXbXbXbXvXbXvXbXxXbXbXbXzXbXcXcXbXkXbXbXbXbXbXbXbXbXvXbXbXbXbXvXbXbXbXbXbXbXbXbXbXbXbX",
"bXbXbXbXbXbXbXbXbXbXbXbXbXbXbXbXbXbXbXbXbXbXbXbXbXcXbXbXkXbXbXbXbXbXcXbXbXbXbXcXpXcXbXbXzXlXbXbXbXbXbXbXbXbXbXbXbXbXbXbXbXbXbXbX",
"bXbXbXbXbXbXbXbXbXbXbXbXbXbXbXbXbXbXbXbXbXbXbXbXbXbXcXcXbXbXbXcXbXkXbXzXbXkXkXkXbXbXbXbXbXbXvXbXbXbXbXbXbXbXbXbXbXbXbXvXbXbXbXbX",
"bXbXbXbXbXbXbXbXbXbXbXbXbXbXbXbXbXbXbXbXbXbXbXbXbXbXbXcXbXbXzXbXzXbXh Z N t A H M m bXcXbXcXbXbXvXbXbXbXbXbXbXbXbXbXbXbXbXbXbXbX",
"bXbXbXbXbXbXbXbXbXbXbXbXbXbXbXbXbXbXbXbXbXbXbXbXcXbXbXkXbXkXcXbXzXsXy N A N N M M t bXcXbXbXvXvXbXbXbXbXbXvXbXbXbXbXbXbXbXbXbXbX",
"bXbXbXbXbXbXbXbXbXbXbXbXbXbXbXbXbXbXbXbXbXbXbXbXZ M Z A pXkXbXbXA N X.3.2.3.2.3.& . bXzXcXbXbXbXbXbXbXbXbXbXbXbXbXbXbXbXbXbXbXbX",
"bXbXbXbXbXbXbXbXbXbXbXbXbXbXbXbXbXbXbXbXbXbXcXbXV Z M e zXzXcXzXk z 3.1.3.6.2.2.@ . cXcXbXbXbXbXbXbXbXbXbXbXbXbXbXbXbXbXbXbXbXbX",
"bXbXbXbXbXbXbXbXbXbXbXbXbXbXbXbXbXbXbXbXbXbXcXzXN M 2.6.N y V N o.O.3.X.{ ~ @ . n C N t kXcXbXbXbXbXbXcXbXbXbXzXbXbXbXbXbXbXbXbX",
"bXbXbXbXbXbXbXbXbXbXbXbXbXbXbXbXbXlXbXkXcXnXbXcXN h ,.} C V B k 1.6.5.1.~ B # @ B N n _ nXcXzXkXbXbXbXbXlXlXbXcXbXbXbXbXbXbXbXbX",
"bXbXbXbXbXbXbXbXbXbXbXbXbXbXbXbXvXbXlXbX&   N n n N ` } X.} l p o.O.r p # @ E W Y _ A _ ] V .   zXbXcXbXbXbXbXbXbXbXbXbXbXbXbXbX",
"bXbXbXbXbXbXbXbXbXbXbXbXbXbXbXbXbXbXkXcX  @ y N n l E ~ <.<.B k +.6.l L # @ W W ....E C N q $ . bXcXcXbXgXbXkXbXbXbXbXbXbXbXbXbX",
"bXbXbXbXbXbXbXbXbXbXbXbXbXbXbXbXbXbX    S ..] E W C n p W { B ! ^ ~ Y T T W | 4.5.| { ~ _ W D D . . bXcXbXbXbXbXbXbXbXbXbXbXvXbX",
"bXbXbXbXbXbXbXbXbXbXbXbXbXbXbXbXbXgX;   M A G E ..W E P ^ [ Y ^ ~ ^ [ ^ W ( [ 4.4.<.W ` C ' ~ _ .   bXcXbXbXcXcXbXbXbXbXbXbXvXbX",
"bXbXbXbXbXbXbXbXbXbXbXbXbXbXbXbXbXbXbXkX= - n B W ..| | 4.o.T Q E ! E ~ | | 7.7.4.4.5.| ` ~ ^ ~ H G S M bXcXcXbXbXbXbXbXbXvXbXvX",
"bXbXbXbXbXbXbXbXbXbXbXbXbXbXbXbXbXcXbXbX. . u Y ..[ 4.5.5.O.! ~ ! W W ` o.4.4.5.4.,.4.o.^ E ^ C D G S S bXcXbXbXbXbXbXvXbXbXbXbX",
"bXbXbXbXbXbXbXbXbXbXbXbXbXbXbXbXbXbX1 q & . w w W Y ..' { O.#.1.o.4.5.5.#.o.<.5.<.<.` W { W r 7 q M bXcXbXbXcXbXbXbXbXbXvXbXbXbX",
"bXbXbXbXbXbXbXbXbXbXbXbXbXbXbXbXbXbX; < & * u s ..[ ` T 8.+.+.+.5.4.<.<.,.<.4.5.6.o.~ C T B i q t u cXbXcXcXbXlXbXbXbXbXbXbXbXbX",
"bXbXbXbXbXbXbXbXbXbXbXbXbXbXbXbXbXzXO = - u S E [ n ~ ! B ! / Q o.o.#.<.<.o.^ Y ! E T W ~ ` ` E ~ A . . bXbXvXbXbXbXbXbXbXbXbXbX",
"bXbXbXbXbXbXbXbXbXbXbXbXbXbXbXbXzXbX. O q n S E Y { ~ T { L / ^ <.#.4.7.6.<.[ Y E B ` ` T E ` W ~ S & . zXcXbXgXbXbXbXbXbXbXbXbX",
"bXbXbXbXbXbXbXbXbXbXbXbXbXbXbXbXbXbX    q u s n W W W T R Q Q Q ~ W R Y Y W W R [ W ~ T 7 w T ~ E ] D N O   zXbXbXbXbXbXbXbXbXbX",
"bXbXbXbXbXbXbXbXbXbXbXbXbXbXbXbXbXbX    < u w i ^ ( R ( ! ! Q ^ ^ ^ W W W W W W E T W T s s T ~ ^ ~ C A ; = kXkXbXbXbXbXbXbXbXbX",
"bXbXbXbXbXbXbXbXbXbXbXbXbXbXbXbXbXbX  X e r r i P W 9 9 0X8X! ! T E W ( W W d 7 W [ ` ` ` B r w _ ~ _ ~ y - bXbXbXbXbXbXbXbXbXbX",
"bXbXbXbXbXbXbXbXbXbXbXbXbXbXbXbXvXbX  . < e 7 7 ! R f 7 tX0XT T ^ W Y W W W d 7 W ^ T Y ` E r w ^ D ~ F e M bXcXbXbXbXbXbXbXbXbX",
"bXbXbXbXbXbXbXbXbXbXbXbXbXbXbXbXbXbXvXbX. . 0X7Xa 9 eX9XeX7XW R W W E E W W W ^ i d Y ..E ` C ` q j e r H F . . bXbXbXbXbXbXbXbX",
"bXbXbXbXbXbXbXbXbXbXbXbXbXbXbXbXbXvXbXzX. . 0XqX6 6 wXeX7X9X^ ` E T ~ E ^ ^ Y Y i i E E E E A E y r y h Z Z O   bXbXbXbXbXbXbXbX",
"bXbXbXbXbXbXbXbXbXbXbXbXbXbXbXbXbXbXbXkX. . 9X9X7XrX`.|.( Q @ . ^ ^ ^ ! ` E d p w i w s A ~ y u kXsXcXzXM 1 O   bXbXbXbXbXbXzXbX",
"bXbXbXbXbXbXbXbXbXbXbXbXbXbXbXbXbXbXbXzX$ @ ,X9XrX>XZ._.Q T # . C C ~ C E T i i d s r r A C y e bXbXzXbX1 t     bXbXbXbXbXbXzXbX",
"bXbXbXbXbXbXbXbXbXbXbXbXbXbXbXbXbXvXbXzXw 8 qX4X>XrX) @.dXyXQ ~ . % C _ ` ! w q E B B E u k zXsXzXzXbXbXbXbXbXbXbXbXbXbXbXbXzXbX",
"bXbXbXbXbXbXbXbXbXbXbXbXbXbXbXbXbXcXcXzXk L wX4XrX>X) L iXdXD ' . . C ~ l C s s _ ~ ` A u q zXbXbXbXxXbXvXbXcXbXbXbXbXbXzXbXzXbX",
"bXbXbXbXbXbXbXbXbXbXbXbXbXbXbXbXbXcXbXcXC Q 4X1X4XrX@ @ dX0X'._.. . ~ ~ p k N E A W h k e e kXzXbXbXbXbXxXbXvXbXbXbXbXbXbXbXbXzX",
"bXbXbXbXbXbXbXbXbXbXbXbXbXbXbXbXbXcXbXzXz ! 4X4X>X3X# 3 yXiX`.`.@ . D _ q y C W ! B s r e t bXxXbXvXbXbXcXbXbXbXbXbXbXbXbXzXbXbX",
"bXbXbXbXbXbXbXbXbXbXbXbXbXbXbXbXbXbXbXaXoX).<X5X5X3X6X6X<X<XJ.[.J.].@ o 1 g V ^ ..W d % zXzXvXbXbXbXbXbXbXbXbXbXbXbXbXbXbXbXbXbX",
"bXbXbXbXbXbXbXbXbXbXbXbXbXbXbXbXbXjXbXaXoX X<X>X=X3X;X;X;X5XJ.J.].].. = 1 g F z [ P p V dXzXbXvXbXbXbXbXbXbXbXbXbXbXbXbXbXbXbXbX",
"bXbXbXbXbXbXbXbXbXbXbXbXbXbXbXbXvXbXaXzXuXiX4.R [.[.-X<X].].9.9.P f Y y D F X $ cXcXcXbXaXzXbXbXbXbXbXbXbXbXbXbXbXbXbXbXbXbXbXbX",
"bXbXbXbXbXbXbXbXbXbXbXbXbXbXbXbXcXcXzXfXzXcX..E ).).3XwX].).q.8.d d p B F z $   bXcXbXbXvXzXbXvXbXbXbXbXbXbXbXbXbXbXbXbXbXbXbXbX",
"bXbXbXbXbXbXbXbXbXbXbXbXbXbXbXbXcXbXpXzXbXbXbXcXl a J 6 l z   . Y R % $ j j     cXbXvXvXvXlXjXbXbXbXbXbXbXbXbXbXbXbXbXbXbXbXbXbX",
"bXbXbXbXbXbXbXbXbXbXbXbXbXbXbXbXbXcXcXzXvXbXbXcXy d z T t q $ . ( L @ $ e j . . bXcXbXhXbXbXbXcXbXbXbXbXbXbXbXbXbXbXbXbXbXbXbXbX",
"bXbXbXbXbXbXbXbXbXbXbXbXbXbXbXbXbXcXbXkXvXvXvXbXcXpX@ . (./.. @ %.9.$ X F F zXzXcXvXbXvXbXlXbXbXbXbXbXbXbXbXbXbXbXbXbXbXbXbXbXbX",
"bXbXbXbXbXbXbXbXbXbXbXbXbXbXbXbXbXbXcXcXbXbXvXvXcXbXO 2 (./.. # i.%.6 $ j j bXbXbXbXbXbXzXbXbXbXbXbXbXbXbXbXbXbXbXbXbXbXbXbXbXbX",
"bXbXbXbXbXbXbXbXbXbXbXbXbXbXbXvXvXbXcXzXbXbXvXvX+ , *.>.t.0.Z.B.# # N.N.5 . bXbXbXbXbXzXzXbXbXbXbXbXbXbXbXbXbXbXbXbXbXbXbXbXbXbX",
"bXbXbXbXbXbXbXbXbXbXbXbXbXbXbXbXhXvXbXcXbXbXcXbXo , >.=.t.q.c.n.# @ n.P.# # fXbXcXbXbXcXbXbXzXbXbXbXbXbXbXbXbXbXbXbXbXbXbXbXbXbX",
"bXbXbXbXbXbXbXbXbXbXbXbXbXbXbXbXhXvXzXbXkXbXzXkXo v E.^._.V.S.S.@ % }.&XF.x.5 . bXbXbXbXbXbXzXzXbXbXbXbXbXbXbXbXbXbXbXbXbXbXbXbX",
"bXbXbXbXbXbXbXbXbXbXbXbXbXbXbXbXhXvXbXbXbXzXfXbX, b E.w.p.C.G.F.. . {.T.k.F.3 # bXbXvXbXbXzXzXzXbXbXbXbXbXbXbXbXbXbXbXbXbXbXbXbX",
"bXbXbXbXbXbXbXbXbXbXbXbXbXbXbXbXbXvXvXbXkXdX. + =.;.~.t.B.F.I.U.I j +XT.s.u.a.9.cXvXvXbXbXbXzXzXbXbXbXbXbXbXbXbXbXbXbXbXbXbXbXbX",
"bXbXbXbXbXbXbXbXbXbXbXbXbXbXbXbXxXbXbXbXzXzX  , ;.;.e.8.B.D.I.&X0 F +XK.H.G.y.p.bXbXvXbXbXbXbXbXbXbXbXbXbXbXbXbXbXbXbXbXbXbXbXbX",
"bXbXbXbXbXbXbXbXbXbXbXbXbXbXbXbXbXcXvXvXzXzX  > -.-.*.Q z.g.I.+X;   &XY.S.l.3 @ zXbXbXbXbXbXbXbXbXbXbXbXbXbXbXbXbXbXbXbXbXbXbXbX",
"bXbXbXbXbXbXbXbXbXbXbXbXbXbXbXbXcXbXbXzXzXbX: c :.;.G x z.g.I.&X. . &XR.D.l.3 . bXzXzXzXbXbXvXvXbXbXbXbXbXbXbXbXbXbXbXbXbXbXbXbX",
"bXbXbXbXbXbXbXbXbXbXbXbXbXbXbXbXbXbXbXbXlXbX: c W.Q.2 # T.R.d.c.# # c.F.s.l.# @ bXcXzXdXzXzXvXbXbXbXbXbXbXbXbXbXbXbXbXbXbXbXbXbX",
"bXbXbXbXbXbXbXbXbXbXbXbXbXbXbXbXbXzXlXzXlXzXo c E.~.O % Y.Y.z.v.3 3 v.F.F.l.4 # cXbXzXzXdXaXzXvXbXbXbXbXbXbXbXbXbXbXbXbXbXbXbXbX",
"bXbXbXbXbXbXbXbXbXbXbXbXbXbXbXbXcXbXbXzXbXlX+ > ~.~.>   @X+X# 5 =X6XN.P.J U y.p.# @ zXkXbXbXcXbXbXbXbXbXbXbXbXbXbXbXbXbXbXbXbXbX",
"bXbXbXbXbXbXbXbXbXbXbXbXbXbXbXbXbXbXvXbXdXlX+ o e.!.o   $X@X. . 2X6XZ.L.K K y.y.4 # kXbXbXbXcXbXbXbXbXbXbXbXbXbXbXbXbXbXbXbXbXbX",
"bXbXbXbXbXbXbXbXbXbXbXbXbXbXbXbXvXbXbXzXzXzXxXvXc c   . j.b.4 3 6X2X2X2X# 4 G.S.G.F.@ & bXcXbXcXbXbXbXbXbXbXbXbXbXbXbXbXbXbXbXbX",
"bXbXbXbXbXbXbXbXbXbXbXbXbXbXbXbXbXbXcXbXkXzXcXxX> : . . b.m.3 # 2XwXqX1X3 3 S.h.G.u.4 @ zXcXcXbXbXbXbXbXbXbXbXbXbXbXbXbXbXbXbXbX",
"bXbXbXbXbXbXbXbXbXbXbXbXbXbXbXbXkXbXbXbXzXbXbXbXbXcX@ @ &X&X.XXX@ @ 5 @ v.z.f.g.d.z.x.V.$ . fXfXbXbXbXbXbXbXbXbXbXbXbXbXbXbXbXbX",
"bXbXbXbXbXbXbXbXbXbXbXbXbXbXbXbXbXbXbXzXzXzXbXbXbXbX  % %X+X=XOX@ 5 # # n.s.D.d.z.n.B.V.$ X uXdXzXbXbXbXbXbXbXbXbXbXbXbXbXbXbXbX",
"bXbXbXbXbXbXbXbXbXbXbXbXbXbXbXbXcXbXbXbXzXzXbXzXvXvXbXzX. . kXiXOX:X.X.XT.T.Y.+X$ @ # @ cXcXbXzXbXbXbXbXbXbXbXbXbXbXbXbXbXbXbXbX",
"bXbXbXbXbXbXbXbXbXbXbXbXbXbXbXbXbXbXbXbXbXbXzXlXbXvXvXlX    bXkX#XP.*X&X{.*X%X$XX X . * pXbXvXvXbXbXbXbXbXbXbXbXbXbXbXbXbXbXbXbX",
"bXbXbXbXbXbXbXbXbXbXbXbXbXbXbXbXbXbXbXbXbXbXzXbXlXvXzXbX    n W $.%.J I @ $ .   dXdXzXzXbXbXbXbXbXbXbXbXbXbXbXbXbXbXbXbXbXbXbXbX",
"bXbXbXbXbXbXbXbXbXbXbXbXbXbXbXbXbXbXbXzXbXbXbXbXzXaXkXzX. 5 R ( $.$.) L .     + bXlXzXzXcXbXbXvXbXbXbXbXbXbXbXbXbXbXbXbXbXbXbXbX",
"bXbXbXbXbXbXbXbXbXbXbXbXbXbXbXbXlXzXzXbXbXbXbXbXbXzX@ @ #.#.&.#. .W @ @ cXbXvXvXlXzXzXzXkXxXvXbXbXbXbXbXbXbXbXbXbXbXbXbXbXbXbXbX",
"bXbXbXbXbXbXbXbXbXbXbXbXbXbXbXbXzXlXzXbXbXcXbXbXbXkX& # { $.#.#.| ,..   bXvXbXvXbXbXlXbXzXbXbXbXbXbXbXbXbXbXbXbXbXbXbXbXbXbXbXbX",
"bXbXbXbXbXbXbXbXbXbXbXbXbXbXbXbXbXzXbXbXbXcXbXbXbXlXcXcX& * * * @ # zXzXlXlXbXbXbXcXbXbXbXkXbXbXbXbXbXbXbXbXbXbXbXbXbXbXbXbXbXbX",
"bXbXbXbXbXbXbXbXbXbXbXbXbXbXbXbXbXlXbXbXbXbXbXbXbXlXbXcXo o o O &   lXlXaXlXbXxXcXbXkXzXlXbXzXbXbXbXbXbXbXbXbXbXbXbXbXbXbXbXbXbX"
};
