/* XPM */
static char *tile005[] = {
/* columns rows colors chars-per-pixel */
"64 64 237 2 ",
"   c #040102",
".  c #0C0201",
"X  c #0C0903",
"o  c #02020B",
"O  c #0B020A",
"+  c #0C090A",
"@  c #020A0A",
"#  c #130100",
"$  c #1B0100",
"%  c #140904",
"&  c #1A0901",
"*  c #14030B",
"=  c #130B0C",
"-  c #1B0C0D",
";  c #141100",
":  c #050516",
">  c #190A15",
",  c #1D1312",
"<  c #1A1716",
"1  c #220100",
"2  c #2C0500",
"3  c #250C05",
"4  c #340E01",
"5  c #26120C",
"6  c #2B150E",
"7  c #2B1C0E",
"8  c #3C1501",
"9  c #241513",
"0  c #2B1612",
"q  c #251815",
"w  c #2D1A14",
"e  c #24171A",
"r  c #251C1A",
"t  c #2C1D1B",
"y  c #29141A",
"u  c #331C15",
"i  c #3B1D13",
"p  c #331D1A",
"a  c #381B17",
"s  c #2C201E",
"d  c #35221C",
"f  c #3C241C",
"g  c #382617",
"h  c #3D301F",
"j  c #000D21",
"k  c #281E23",
"l  c #311C21",
"z  c #2C2324",
"x  c #262122",
"c  c #342422",
"v  c #3B2623",
"b  c #332A25",
"n  c #3B2B25",
"m  c #352B2B",
"M  c #3C2C2A",
"N  c #35262A",
"B  c #3D322D",
"V  c #3E3023",
"C  c #3E2D32",
"Z  c #332B33",
"A  c #3C3232",
"S  c #421E0E",
"D  c #4C2E1C",
"F  c #422A1D",
"G  c #54381B",
"H  c #422622",
"J  c #4A2623",
"K  c #432C25",
"L  c #4B2C24",
"P  c #432E2A",
"I  c #4B2E2A",
"U  c #452729",
"Y  c #44312C",
"T  c #4B332C",
"R  c #4A3427",
"E  c #543223",
"W  c #52342E",
"Q  c #543A28",
"!  c #433431",
"~  c #4B3531",
"^  c #453934",
"/  c #4C3934",
"(  c #4C3C3B",
")  c #543D34",
"_  c #553D3B",
"`  c #593B38",
"'  c #6A3C3B",
"]  c #613C2A",
"[  c #5B453C",
"{  c #58443D",
"}  c #67453A",
"|  c #74433E",
" . c #6D553B",
".. c #333352",
"X. c #333B6B",
"o. c #463955",
"O. c #633F46",
"+. c #38445A",
"@. c #39406C",
"#. c #564641",
"$. c #5D4641",
"%. c #5D4A43",
"&. c #5C4B46",
"*. c #624641",
"=. c #634A43",
"-. c #644B4A",
";. c #6A4946",
":. c #704947",
">. c #6A544D",
",. c #6C5A5A",
"<. c #765D59",
"1. c #71534D",
"2. c #776759",
"3. c #5D567A",
"4. c #4E4574",
"5. c #72586B",
"6. c #65557A",
"7. c #695368",
"8. c #706A77",
"9. c #9B5816",
"0. c #A75D0C",
"q. c #A65C14",
"w. c #895C29",
"e. c #8B5531",
"r. c #A5592B",
"t. c #896133",
"y. c #9F6734",
"u. c #A16329",
"i. c #AB7B3B",
"p. c #CC7D3B",
"a. c #86554B",
"s. c #876852",
"d. c #B37B4A",
"f. c #836F62",
"g. c #836E77",
"h. c #DA7E4F",
"j. c #E07D46",
"k. c #B8873B",
"l. c #BB8D2D",
"z. c #CB882B",
"x. c #D1882C",
"c. c #C48C32",
"v. c #C88838",
"b. c #D38C33",
"n. c #D5883A",
"m. c #C8933B",
"M. c #D29336",
"N. c #CD912F",
"B. c #E0833E",
"V. c #BB874A",
"C. c #BB934A",
"Z. c #AB8459",
"A. c #BC8B5A",
"S. c #B78857",
"D. c #BC915B",
"F. c #B5935A",
"G. c #958F7F",
"H. c #B48E6B",
"J. c #B9936B",
"K. c #B79679",
"L. c #AC8D6D",
"P. c #BCA97F",
"I. c #C38C44",
"U. c #C88846",
"Y. c #C69648",
"T. c #D4964B",
"R. c #C39157",
"E. c #D28D4F",
"W. c #DBAB5F",
"Q. c #D4AB57",
"!. c #C99862",
"~. c #C59D79",
"^. c #DAB969",
"/. c #D6B97D",
"(. c #E9AF61",
"). c #E4BB77",
"_. c #F5BA69",
"`. c #E7B556",
"'. c #DAC46F",
"]. c #E8C56C",
"[. c #E3C378",
"{. c #F4CA7E",
"}. c #5A5D80",
"|. c #6A5A87",
" X c #666590",
".X c #857D88",
"XX c #938D87",
"oX c #989597",
"OX c #8B8796",
"+X c #B99987",
"@X c #A29D94",
"#X c #B4978A",
"$X c #9FA09A",
"%X c #BFA08C",
"&X c #C19E85",
"*X c #C49F96",
"=X c #C5A68B",
"-X c #D0AF90",
";X c #D4B6A2",
":X c #DFCA87",
">X c #DACB93",
",X c #ECC589",
"<X c #E7C89A",
"1X c #F3CB95",
"2X c #D8C8A6",
"3X c #E6C9A7",
"4X c #F7CBA8",
"5X c #EACDBA",
"6X c #E6C9B6",
"7X c #F3CCB8",
"8X c #F5D4B3",
"9X c #F2D2BA",
"0X c #FAD6B8",
"qX c #F5D3AF",
"wX c #DDCCC2",
"eX c #E9CCC3",
"rX c #EED4C4",
"tX c #EED5CC",
"yX c #F5D6C5",
"uX c #F4D4CA",
"iX c #FFEBD8",
"pX c #FFF6DC",
"aX c #FAEDEB",
"sX c #FEF3EB",
"dX c #FDFBEE",
"fX c #FAF5E6",
"gX c #F8EEF3",
"hX c #EEFCF7",
"jX c #F5F5F4",
"kX c #FDF5F4",
"lX c #F4FCF4",
"zX c #FDFBF5",
"xX c #F4F6FD",
"cX c #FDF6FB",
"vX c #F5FDFC",
"bX c #FFFEFE",
"nX c #EDF4E4",
/* pixels */
"bXbXbXbXbXbXbXbXbXbXbXbXbXbXbXbXbXvXbXbXbXbXbXvXbXxXbXvXbXzXkXzXbXzXzXzXbXcXzXbXbXcXbXbXbXbXbXbXbXbXbXbXbXbXbXbXbXbXbXbXbXbXbXbX",
"bXbXbXbXbXbXbXbXbXbXbXbXbXbXbXbXvXvXvXvXbXbXbXbXbXjXbXbXjXkXbXbXbXfXbXzXcXbXbXbXbXbXbXbXbXbXbXbXbXbXbXbXbXbXbXbXbXbXbXbXbXbXbXbX",
"bXbXbXbXbXbXbXbXbXbXbXbXbXbXbXbXzXbXbXcXbXcXbXbXbXbXvXzXbXzXz r r B , m N z cXjXbXbXbXbXbXbXbXbXbXbXbXbXbXbXbXbXbXbXbXbXbXbXbXbX",
"bXbXbXbXbXbXbXbXbXbXbXbXbXbXbXbXbXbXbXbXvXbXbXcXbXjXbXbXbXzXz M d B b b s z gXbXbXbXbXbXbXbXbXbXbXbXbXbXbXbXbXbXbXbXbXbXbXbXbXbX",
"bXbXbXbXbXbXbXbXbXbXbXbXbXbXbXbXzXbXbXkXz z k z bXbXzXbXt t / #.#.#.&.( ,   bXcXbXbXbXbXbXbXbXbXbXbXbXbXbXbXbXbXbXbXbXbXbXbXbXbX",
"bXbXbXbXbXbXbXbXbXbXbXbXbXbXbXbXzXbXzXzXN N M C zXcXkXbXn P &.&.#.#.&.^ -   kXkXbXbXbXbXbXbXbXbXbXbXbXbXbXbXbXbXbXbXbXbXbXbXbXbX",
"bXbXbXbXbXbXbXbXbXbXbXbXbXbXbXbXbXzXcXzXc U ( _ c p ! q ( { { -.B Y 5 - y t t M cXbXbXbXbXbXbXzXbXbXbXbXbXbXbXbXbXbXbXbXbXbXbXbX",
"bXbXbXbXbXbXbXbXbXbXbXbXbXbXbXbXzXzXbXkXc U O.$.f p d v =.$.-.=.^ d # & w v N t zXbXzXbXbXbXbXbXbXbXbXbXbXbXbXbXbXbXbXbXbXbXbXbX",
"bXbXbXbXbXbXbXbXbXbXbXbXbXbXzXbX. . d t H a I I -.[ p u -.*.a a # . T T Y ! Y ! c t . X zXbXzXbXbXbXbXbXbXbXbXbXbXbXbXbXbXbXbXbX",
"bXbXbXbXbXbXbXbXbXbXbXbXbXbXkXvX  # d d a v J I } *.K K $.[ K H $ # K M K T P Y c v #   bXzXvXbXbXbXbXbXbXbXbXbXbXbXbXbXbXbXbXbX",
"bXbXbXbXbXbXbXbXbXbXbXcXbXjX  X A V Y ~ U T H H P R U v T I H U K K $.=.$.$.~ R P Y B c # . zXbXbXbXbXbXbXbXbXbXbXbXbXbXbXbXbXbX",
"bXbXbXbXbXbXbXbXbXbXbXvXbXbX    ^ b P P I W H a W T R L P I W T R ~ { &.$.[ R K M M T B %   bXlXbXbXbXbXbXbXbXbXbXbXbXbXbXbXbXbX",
"bXbXbXbXbXbXbXbXbXvXbXbXbXvXbXcX. . n d U H ` *.*.) W R K I T K $.&.[ =.=.>.[ =.R { Y Y ^ b , A bXbXbXbXbXbXbXbXbXbXbXbXbXbXbXbX",
"bXbXbXbXbXbXbXbXbXbXbXbXbXbXbXbX  . n d W I =.;.;.) T R Y ~ T P %.=.{ [ [ { [ [ H h Y n n A ^ s bXbXbXbXbXbXbXbXbXbXbXbXbXbXbXbX",
"bXbXbXbXbXbXbXbXbXbXbXbXzXvX< < %   9 w P I L F ;.=.[ [ $.$.$.$.{ %.%.=. .[ Q W L K u u c t aXcXbXbXbXbXbXbXbXbXbXbXbXbXbXbXbXbX",
"bXbXbXbXbXbXbXbXbXbXbXbXbXbX< r     5 v f / I R [ =.=.%.=.$.$.&.%.[ [ [ [ { R R T H p 6 0 9 zXbXbXbXbXbXbXbXbXbXbXbXbXbXbXbXbXbX",
"bXbXbXbXbXbXbXbXbXbXbXbXcXbX@   y l M ^ M A Y R E L I W ' -.#.&.%.[ R Y L F T T I T P K Y T . # bXlXbXbXjXbXbXbXbXbXbXbXcXbXbXbX",
"bXbXbXbXbXbXbXbXbXcXbXvXbXbX    y l N A A Y Y T L L L W ` ` &.( [ { K L ~ T T L T H R R K K $ . bXcXbXbXjXcXbXcXbXbXbXbXbXbXbXbX",
"bXbXbXbXbXbXbXbXbXbXbXvXvXbX+ . y 9 p l M M B K Q F E G L T _ ^ Y { K K T K K T u 6 T ~ T T K n     bXkXbXbXbXbXbXbXbXbXbXbXbXbX",
"bXbXbXbXbXbXbXbXbXvXbXkXbXjX  X w 5 w t U T R F F G D D F K U I f R K H I F K T u 6 Y f Y M Y ^ . + bXbXbXjXbXbXbXbXbXbXbXbXbXbX",
"bXbXbXbXbXbXbXbXvXbXvXbXbXvX    u 6 6 y U J a u rX6X{ G T T I U / R 5 u T W T K U v d 5 ^ Y M B < k bXbXbXcXbXjXbXbXbXbXbXbXbXbX",
"bXbXbXbXbXbXbXbXbXbXbXbXvXjX<   9 5 a y J D i i 9XyXg g R U I I ~ K 7 g f K ~ K I T p 5 T Y n ^ r x bXbXbXbXbXbXbXbXbXbXbXbXbXbX",
"bXbXbXbXbXbXbXbXzXbXbXbXbXjXjXcX# . tXuX2 4 7X5XrXtXh K L R L I L P K K 0 6 T T P / v v s 9 9 t A A   O cXcXbXkXbXbXbXbXbXbXbXbX",
"bXbXbXbXbXbXbXbXbXbXbXcXbXbXbXbX  # tX6XS 8 7XyXrXwXB A P T I L R K K T 6 6 ~ M Y ~ P ^ t r q , A Z +   bXbXbXcXbXbXbXvXbXbXbXbX",
"bXbXbXbXbXbXbXbXbXbXbXbXbXbXbXbX. . uXrX9XqX%X%X{ n . . ! T L L P R 6 6 w 5 w w ^ P z , cXbXzXzXk < + . cXcXbXbXbXbXbXbXbXbXbXbX",
"bXbXbXbXbXbXbXbXbXbXbXbXbXbXbXbX> * eX5X8X0XK.%Xg B , > c v F R F P w w d u t 0 v m 9 t zXzXbXbXk <   = jXbXbXjXbXbXbXbXbXbXvXbX",
"bXbXbXbXbXbXbXbXbXbXbXbXbXbXbXbXl p iX5X8XqXG Q sXaXC C . # R F R V w 7 v K Y P t t bXkXbXbXvXbXbXcXbXcXkXcXbXbXbXbXbXbXbXbXbXbX",
"bXbXbXbXbXbXbXbXbXbXbXbXbXbXbXbXN v 6X5X0X0XG D fXkXI Y # . h R R n w d P ~ ! ! w r aXbXkXbXbXcXcXbXbXbXbXbXbXjXbXbXbXbXbXbXbXbX",
"bXbXbXbXbXbXbXbXbXbXbXbXbXbXbXbXL E yXyX7X<X2 $ iXiX+X*X# % n / w g v P / Y t q q r bXcXbXvXbXbXcXcXbXbXbXbXbXcXbXbXbXbXbXbXbXbX",
"bXbXbXbXbXbXbXbXbXbXbXbXbXbXbXzXD S 7X7XyXyX1 $ iXpX=XK.$ . P v 5 p Y P ~ M 0 9 c 9 bXbXbXbXbXjXbXbXbXcXbXbXbXbXbXbXbXbXbXbXbXbX",
"bXbXbXbXbXbXbXbXbXbXbXbXbXbXbXzX&X~.4XyXrXyX6X0XqX4X~.~.&X;X. * 0 p P K Y P t d zXbXcXbXbXvXvXbXbXvXbXzXbXjXbXbXbXbXbXbXbXbXbXbX",
"bXbXbXbXbXbXbXbXbXbXbXbXbXbXbXzX~.~.7XyXeXyX7X7X4X1X~.=X+X#X% . y u ! B ! B 9 q cXcXbXbXbXvXbXbXbXbXvXbXbXbXcXcXbXbXbXbXbXbXbXbX",
"bXbXbXbXbXbXbXbXbXbXbXbXbXbXbXzXfXpXJ J *X=X4XqXJ.H.s.2.5 g g g Y z %   zXzXzXbXbXbXbXbXbXvXvXbXbXbXbXbXbXbXbXbXbXbXbXbXbXbXbXbX",
"bXbXbXbXbXbXbXbXbXbXbXbXbXbXbXbXfXsXv O.#X%X0X8XK.=X>.,.B b 7 u N A +   bXzXkXbXbXcXbXbXbXbXvXbXbXbXbXbXbXbXbXbXbXbXbXbXbXbXbXbX",
"bXbXbXbXbXbXbXbXbXbXbXbXbXbXbXbXzXbXbXcXC e v f h 7 # . b b & . z k +   bXjXbXzXbXbXbXbXbXbXvXvXbXbXbXbXbXbXbXbXbXbXbXbXbXbXbXbX",
"bXbXbXbXbXbXbXbXbXbXbXbXbXbXbXbXbXzXvXcXZ k N y r b + = g s % . e x @   bXlXzXbXbXbXbXcXbXbXbXbXbXbXbXbXbXbXbXbXbXbXbXbXbXbXbXbX",
"bXbXbXbXbXbXbXbXbXbXbXbXbXbXbXbXvXxXvXbXbXcXO O oXoX  O * $ . . + X     zXbXvXbXbXcXbXbXbXbXbXbXbXbXbXbXbXbXbXbXbXbXbXbXbXbXbXbX",
"bXbXbXbXbXbXbXbXbXbXbXbXbXbXbXbXbXbXzXzXcXcX: : .X.X# # 1 $ # #     X @ bXvXvXvXbXbXbXbXbXbXcXbXbXbXbXbXbXbXbXbXbXbXbXbXbXbXbXbX",
"bXbXbXbXbXbXbXbXbXbXbXbXbXbXbXbXvXzXlXdX> O o.o.8.g.L.D.d.A.e.s..   jXzXvXvXbXbXbXbXbXbXbXbXbXbXbXbXbXbXbXbXbXbXbXbXbXbXbXbXbXbX",
"bXbXbXbXbXbXbXbXbXbXbXbXbXbXbXbXvXbXzXzX= O o.o.5.<.Z.I.I.U.y.t.#   zXzXbXxXbXvXbXbXbXbXbXbXbXbXbXbXbXbXbXbXbXbXbXbXbXbXbXbXbXbX",
"bXbXbXbXbXbXbXbXbXbXbXbXbXbXbXbXvXbXbXbX  o 6.7.#Xd.F.Y.(.{.T.U.$ # zXzXbXbXvXbXbXbXbXbXcXbXbXbXbXbXbXbXbXbXbXbXbXbXbXbXbXbXbXbX",
"bXbXbXbXbXbXbXbXbXbXbXbXbXbXbXbXcXbXbXbXo : 6.5.K.C.C.Y.(.(.n.v.4 # dXdXbXvXxXvXbXbXbXbXbXbXbXbXbXbXbXbXbXbXbXbXbXbXbXbXbXbXbXbX",
"bXbXbXbXbXbXbXbXbXbXbXbXbXbXbXbXkXzX+ o +...|.5.J.C.'.].2 4 c.Y.t. .# # cXbXbXbXbXbXbXzXbXbXbXbXbXbXbXbXbXbXbXbXbXbXbXbXbXbXbXbX",
"bXbXbXbXbXbXbXbXbXbXbXbXbXbXbXbXcXbXo : X.X.3.,.Z.Y.^.,X1 1 c.m.w.s.$ # bXkXvXbXbXbXzXbXbXbXbXbXbXbXbXbXbXbXbXbXbXbXbXbXbXbXbXbX",
"bXbXbXbXbXbXbXbXbXbXbXbXbXbXbXbXvXbXo j X.X...P F.Q.].{.w.w.Y.Y.D.H.1 $ zXcXbXvXbXbXbXzXbXbXbXbXbXbXbXbXbXbXbXbXbXbXbXbXbXbXbXbX",
"bXbXbXbXbXbXbXbXbXbXbXbXbXbXbXbXvXxXo : X.4...K J.C.Q.^.y.d.i.V.!.Z.1 2 sXcXcXjXbXzXzXzXbXbXbXbXbXbXbXbXbXbXbXbXbXbXbXbXbXbXbXbX",
"bXbXbXbXbXbXbXbXbXbXbXbXbXbXbXbXbXcX= + 6.4.* # :X^.T.T.h.d.2 1 1X1X~.~.P y bXbXbXzXzXbXzXbXbXbXbXbXbXbXbXbXbXbXbXbXbXbXbXbXbXbX",
"bXbXbXbXbXbXbXbXbXbXbXbXbXbXbXbXbXkX*   6.6.O % <XQ.T.v.U.C.$ $ 4X4X-X*XF p aXcXbXzXbXzXbXbXbXbXbXbXbXbXbXbXbXbXbXbXbXbXbXbXbXbX",
"bXbXbXbXbXbXbXbXbXbXbXbXbXbXbXbXzXbX  :  X X  X [.].M.b.m.V.# # qX0X7XyXi g zXkXzXzXzXbXzXbXzXcXbXbXbXbXbXbXbXbXbXbXbXbXbXbXbXbX",
"bXbXbXbXbXbXbXbXbXbXbXbXbXbXbXbXcXbXo o }.3.X % ^.`.N.x.z.k.3 3 6X9XyX6Xg f aXzXzXbXvXbXbXbXbXvXbXbXbXbXbXbXbXbXbXbXbXbXbXbXbXbX",
"bXbXbXbXbXbXbXbXbXbXbXbXbXbXbXbXbXcXvXbX    2X-XY.T.z.b.T.E.e.a.# % . # # . bXjXbXvXvXvXvXvXbXbXbXbXbXbXbXbXbXbXbXbXbXbXbXbXbXbX",
"bXbXbXbXbXbXbXbXbXbXbXbXbXbXbXbXxXvXlXzX    <X[.c.v.v.n.B.p.r.r.1 # $ # # $ sXbXvXbXvXvXvXvXbXvXbXbXbXbXbXbXbXbXbXbXbXbXbXbXbXbX",
"bXbXbXbXbXbXbXbXbXbXbXbXbXbXbXbXvXbXvXzX    <X,Xv.v.v.b.n.B.j.j.U.!.S.S.~.L.# . .   lXvXbXbXvXbXbXbXbXbXbXbXbXbXbXbXbXbXbXbXbXbX",
"bXbXbXbXbXbXbXbXbXbXbXbXbXbXbXbXgXbXzXhX  ; P.,XC.v.v.v.x.x.B.U.E.n.U.E.V.A.2 $ . . dXbXbXbXcXvXbXbXbXbXbXbXbXbXbXbXbXbXbXbXbXbX",
"bXbXbXbXbXbXbXbXbXbXbXbXbXbXbXbXbXbXvXhX@   ; $ A.I.I.z.N.z.b.b.x.b.q.q.q.u.V.A.J.K.# . bXcXcXbXbXbXbXbXbXbXbXbXbXbXbXbXbXbXbXbX",
"bXbXbXbXbXbXbXbXbXbXbXbXbXbXbXbXcXcXvXvX@ @   % L.F.R.C.m.l.m.l.N.x.0.q.9.9.V.D.H.L.# $ gXcXbXcXbXbXbXbXbXbXbXbXbXbXbXbXbXbXbXbX",
"bXbXbXbXbXbXbXbXbXbXbXbXbXbXbXbXbXcX. O 8.8.$XXX. $ $ 2 [.[.'.'._.(.M.v.R.D.$ $ # . zXzXcXbXbXcXbXbXbXbXbXbXbXbXbXbXbXbXbXbXbXbX",
"bXbXbXbXbXbXbXbXbXbXbXbXbXbXbXbXcXcXy - ,.<.XX@X. # # # 3X>X>X,X,X).!.S.D.Z.$ # . q nXbXzXbXxXbXbXbXbXbXbXbXbXbXbXbXbXbXbXbXbXbX",
"bXbXbXbXbXbXbXbXbXbXbXbXbXbXbXbXO # O.' a.;.f.2.oXXX* # . . fXpX$ 2 ] }  .1.# # zXnXzXzXvXvXvXhXbXbXbXbXbXbXbXbXbXbXbXbXbXbXbXbX",
"bXbXbXbXbXbXbXbXbXbXbXbXbXbXbXbXO * O.O.a.| s.f.@XoXo o O = bXcX# # 1.-.-.%.. # dXzXlXlXvXhXvXvXbXbXbXbXbXbXbXbXbXbXbXbXbXbXbXbX",
"bXbXbXbXbXbXbXbXbXbXbXbXbXbXbXbXzXsX~ J O.' ;.>..   bXvXbXcXcXcXcXdX.   # . zXsXkXzXzXbXzXzXzXzXbXbXbXbXbXbXbXbXbXbXbXbXbXbXbXbX",
"bXbXbXbXbXbXbXbXbXbXbXbXbXbXbXbXbXdXt v O.:.;.-..   bXvXvXbXcXbXbXzX    .   bXbXzXbXlXbXbXzXbXcXbXbXbXbXbXbXbXbXbXbXbXbXbXbXbXbX",
"bXbXbXbXbXbXbXbXbXbXbXbXbXbXbXbXzXnXzXvX$ * * * cXbXlXlXvXlXbXjXlXhXzXzXjXzXjXbXbXcXbXbXcXbXcXbXbXbXbXbXbXbXbXbXbXbXbXbXbXbXbXbX",
"bXbXbXbXbXbXbXbXbXbXbXbXbXbXbXbXzXlXbXxXo O O O bXbXzXzXlXlXzXbXzXzXhXzXdXbXbXbXbXbXvXbXvXbXbXbXbXbXbXbXbXbXbXbXbXbXbXbXbXbXbXbX"
};
