/* XPM */
static char *tile011[] = {
/* columns rows colors chars-per-pixel */
"64 64 232 2 ",
"   c #040101",
".  c #0C0201",
"X  c #0E0902",
"o  c #0D0508",
"O  c #0D0C0A",
"+  c #070803",
"@  c #140201",
"#  c #1B0200",
"$  c #140A03",
"%  c #1B0B01",
"&  c #1C0D09",
"*  c #18090A",
"=  c #17120C",
"-  c #1D1413",
";  c #1E1C1C",
":  c #240200",
">  c #2C0300",
",  c #270C09",
"<  c #270C00",
"1  c #25120D",
"2  c #2A140E",
"3  c #2F1A0C",
"4  c #331200",
"5  c #3A1807",
"6  c #241413",
"7  c #2B1611",
"8  c #231915",
"9  c #2B1B15",
"0  c #251B1A",
"q  c #2B1D1B",
"w  c #271718",
"e  c #311713",
"r  c #321B15",
"t  c #331E1A",
"y  c #391F1E",
"u  c #2D201C",
"i  c #282119",
"p  c #372317",
"a  c #35221D",
"s  c #39221E",
"d  c #3A271A",
"f  c #281F20",
"g  c #2E2222",
"h  c #2A272C",
"j  c #332424",
"k  c #3B2624",
"l  c #332826",
"z  c #3C2A24",
"x  c #322729",
"c  c #362B2A",
"v  c #3B2C2A",
"b  c #392628",
"n  c #3B312C",
"m  c #3A2E33",
"M  c #3D3231",
"N  c #411D0D",
"B  c #402514",
"V  c #4A251B",
"C  c #45291D",
"Z  c #4B2A15",
"A  c #422623",
"S  c #442B25",
"D  c #4C2C23",
"F  c #442E2A",
"G  c #4A2E2A",
"H  c #492726",
"J  c #542D29",
"K  c #453126",
"L  c #4A3126",
"P  c #44322D",
"I  c #4A322C",
"U  c #4C3A2C",
"Y  c #453B2F",
"T  c #513324",
"R  c #53342D",
"E  c #543A29",
"W  c #443432",
"Q  c #4B3431",
"!  c #4C3933",
"~  c #473A3A",
"^  c #533633",
"/  c #533A32",
"(  c #5A3C35",
")  c #523C3C",
"_  c #573B3A",
"`  c #633D3A",
"'  c #5A4336",
"]  c #55413E",
"[  c #5C433B",
"{  c #5D4A3D",
"}  c #564535",
"|  c #62463E",
" . c #62483E",
".. c #6A503F",
"X. c #795535",
"o. c #563D42",
"O. c #5A4644",
"+. c #5D4946",
"@. c #5D4B49",
"#. c #574546",
"$. c #634641",
"%. c #634A43",
"&. c #644A4A",
"*. c #684848",
"=. c #744A45",
"-. c #655043",
";. c #775847",
":. c #6B5354",
">. c #7F625A",
",. c #904F0F",
"<. c #8E531B",
"1. c #9A5917",
"2. c #A15B15",
"3. c #A25A08",
"4. c #A66018",
"5. c #935E2A",
"6. c #8C5C37",
"7. c #935E32",
"8. c #8B5527",
"9. c #996123",
"0. c #8A6138",
"q. c #986237",
"w. c #A36933",
"e. c #A46424",
"r. c #CB7F28",
"t. c #956F4B",
"y. c #BC8737",
"u. c #BA953C",
"i. c #CC842C",
"p. c #C9872B",
"a. c #D3862C",
"s. c #D3892B",
"d. c #CD8E34",
"f. c #CD8C3D",
"g. c #C88438",
"h. c #D58A33",
"j. c #D58833",
"k. c #C7923F",
"l. c #D8953B",
"z. c #E19438",
"x. c #AA834B",
"c. c #BA8549",
"v. c #B8944D",
"b. c #BC8A51",
"n. c #B98C5E",
"m. c #BD965D",
"M. c #9F8576",
"N. c #A98A66",
"B. c #B38F6D",
"V. c #AA9567",
"C. c #B99568",
"Z. c #BB9679",
"A. c #B38F75",
"S. c #C68945",
"D. c #D38E40",
"F. c #C89447",
"G. c #D69541",
"H. c #CB8F50",
"J. c #C6945A",
"K. c #D49B55",
"L. c #E09544",
"P. c #CBA052",
"I. c #E8B25A",
"U. c #C39463",
"Y. c #C6997C",
"T. c #DABA6A",
"R. c #C2A072",
"E. c #CFBC70",
"W. c #DBBB73",
"Q. c #D0AD68",
"!. c #E4B862",
"~. c #E4BE73",
"^. c #DBC770",
"/. c #E9C578",
"(. c #AE9D8D",
"). c #BC9A84",
"_. c #B59985",
"`. c #BB9E90",
"'. c #B7A28F",
"]. c #C39F89",
"[. c #C4A18B",
"{. c #D6BE87",
"}. c #C5A794",
"|. c #D6B292",
" X c #C6B5A5",
".X c #E6BFB0",
"XX c #D7C581",
"oX c #DAC791",
"OX c #D1CC91",
"+X c #E7C98B",
"@X c #E9CA94",
"#X c #EBD19E",
"$X c #D9D1BC",
"%X c #E9CAAE",
"&X c #F2CDAF",
"*X c #F3D3AD",
"=X c #FAD2AE",
"-X c #EDCAB3",
";X c #E5CBBC",
":X c #EBCEBC",
">X c #E5C7B6",
",X c #F3CDB2",
"<X c #F3CEB9",
"1X c #E9D6B9",
"2X c #F5D1B3",
"3X c #FCD5B6",
"4X c #F6D3BB",
"5X c #F9D7BD",
"6X c #EAD3C5",
"7X c #F3D3C2",
"8X c #FDDAC1",
"9X c #FFDCCB",
"0X c #FAD5C5",
"qX c #F0DED2",
"wX c #ECCFC9",
"eX c #FCE9DA",
"rX c #F7EBE8",
"tX c #FFF2E3",
"yX c #FCF3EC",
"uX c #FEFAED",
"iX c #F3F1EB",
"pX c #EEEFF4",
"aX c #F8EFF0",
"sX c #F5F3F3",
"dX c #FDF6F4",
"fX c #F4FDF5",
"gX c #FDFBF5",
"hX c #F5F4FB",
"jX c #FDF6FB",
"kX c #F5FEFC",
"lX c #FFFEFE",
"zX c #EEF7F2",
/* pixels */
"lXlXlXlXlXlXlXlXlXlXlXlXlXlXlXlXlXlXkXlXlXjXlXlXlXlXjXdXlXdXlXgXlXlXjXlXlXgXlXlXlXlXgXlXlXjXlXlXlXlXlXlXlXlXlXlXlXlXlXlXlXlXlXlX",
"lXlXlXlXlXlXlXlXlXlXlXlXlXlXlXlXlXlXlXlXjXlXjXlXdXjXlXjXlXgXdXgXlXlXlXlXlXgXlXlXhXdXlXlXlXlXhXlXlXlXlXlXlXlXlXlXlXlXlXlXlXlXlXlX",
"lXlXlXlXlXlXlXlXlXlXlXlXlXlXlXlXlXkXlXlXlXlXjXlXg x q q l q q q lXlXlXjXdXlXgXlXlXlXjXjXlXlXlXlXlXlXlXlXlXlXlXlXlXlXlXlXlXlXlXlX",
"lXlXlXlXlXlXlXlXlXlXlXlXlXlXlXlXlXkXlXhXlXlXlXjX0 q b t j j k M jXjXjXlXlXdXlXgXlXrXlXlXlXjXlXhXlXlXlXlXlXlXlXlXlXlXlXlXlXlXlXlX",
"lXlXlXlXlXlXlXlXlXlXlXlXlXlXlXlXgXlXlXlXlXlXlXlX. * #.&.@.#.) ] j b dXlXlXdXv g l ~ aXlXlXlXlXlXlXlXlXlXlXlXlXlXlXlXlXlXlXlXlXlX",
"lXlXlXlXlXlXlXlXlXlXlXlXlXlXlXlXhXlXlXlXdXjXrXlX. $ ~ #.@.O.+.] j j dXjXdXdXj j f 0 lXlXjXlXjXlXlXlXlXlXlXlXlXlXlXlXlXlXlXlXlXlX",
"lXlXlXlXlXlXlXlXlXlXlXlXlXlXlXlXlXgXdXlXlXrX~ f b 6 , # a P &.+.o.@.j k k k #.O.b g dXlXjXlXlXlXlXlXlXlXlXlXlXlXlXlXlXlXlXlXlXlX",
"lXlXlXlXlXlXlXlXlXlXlXlXlXlXlXlXlXlXlXgXlXlXf g j r @ @ K P +.[ @.o.k k y k ] O.z b dXjXlXlXlXhXlXlXlXlXlXlXlXlXlXlXlXlXlXlXlXlX",
"lXlXlXlXlXlXlXlXlXhXlXlXhXlXlXgXlXgX.   u g W F F Q F Q @ # r d %.*.y e &.%.z P y k g 0 $   lXlXlXlXlXlXlXlXlXlXlXlXlXlXlXlXlXlX",
"lXlXlXlXlXlXlXlXlXlXlXkXlXhXlXlXlXiX$ * 0 v F Q Q ^ F G @ # 2 r ) O.S A *.*.I ^ y b q q o   dXlXlXlXlXlXlXlXlXlXlXlXlXlXlXlXlXlX",
"lXlXlXlXlXlXlXlXlXlXlXlXlXlXhXlX  . l c ! b / S O.$.( [ A S U / I Q A A I H e e F F F ~ M x o   lXlXlXlXlXlXlXlXlXlXlXlXlXlXlXlX",
"lXlXlXlXlXlXlXlXhXlXgXlXlXhXlXiXX X P P W S I S $.$. .[ U U K K I I L L R D V y Q F W P c x   + lXlXlXlXlXlXlXlXlXlXlXlXlXlXlXlX",
"lXlXlXlXlXlXlXlXlXlXlXlXgXlXh M n c Y a W F [ *.$.%.$. .{ ' K K S C K R (  .%.$.I S k q * . dXdXlXlXlXlXlXlXlXlXlXlXlXlXlXlXlXlX",
"lXlXlXlXlXlXlXlXlXlXlXlXlXhXh i W W P z ^ G *.%.$.$.| { { } L U K K D U (  . .| G G b q $ . jXlXlXlXlXlXlXlXlXlXlXlXlXlXlXlXlXlX",
"lXlXlXlXlXlXlXlXlXlXlXlXkXlXlXlX8 1 d 7 G F G J $. .$.%.{ %.} {  .{ ' [  .| R L I A w 1 . o 8 ; lXlXlXlXlXlXlXlXlXlXlXlXlXlXlXlX",
"lXlXlXlXlXlXlXlXlXlXhXlXlXlXlXgX9 7 9 t F H ^ H $.|  .%.} -.} { { +.{ { -. .D S F Q 7 t @ . 0 - lXlXlXlXlXlXlXlXlXlXlXlXlXlXlXlX",
"lXlXlXlXlXlXlXlXlXfXlXgXlXlX+ . F L Y H L G S Q S G G Q $.%. . .+.] ! S S L G S F W W m w 6 . . lXlXlXlXlXlXlXlXlXlXlXlXlXlXlXlX",
"lXlXlXlXlXlXkXlXgXlXlXlXgXgX. @ K K L F F G S H ^ Q A H [  .' [ ] ] / D I R C H Q W v l f w @ . lXlXlXlXlXlXlXlXlXlXlXlXlXlXlXlX",
"lXlXlXlXlXlXlXlXlXgXlXdX.   M v L S L L 7 e Q P H Q Q Q ^ R L R ! I I R C T J H F z b 0 q 8 .   lXlXlXlXlXlXlXlXlXlXlXlXlXlXlXlX",
"lXlXlXlXlXlXlXgXsXlXsXgX  X v W Y S L K e 7 F S k G G H G S C L G ^ H J D V V V T z 9 & - 8     lXlXlXlXlXlXlXlXlXlXlXlXlXlXlXlX",
"lXlXlXlXlXlXlXlXiXlXlXlXg - v v K n 2 7 P Q F Q ) F 7 2 A R L S H H R J wX0XN N T C r 9 i 0 +   lXlXlXlXlXlXlXlXlXlXlXlXlXlXlXlX",
"lXlXlXlXlXlXlXlXlXlXdXgX0 j M Q z K 9 7 P Q S Q Q A e e S I F G S ^ H H 0X.X4 N Z B 3 3 = O O   lXlXlXlXlXlXlXlXlXlXlXlXlXlXlXlX",
"lXlXlXlXlXlXgXlXgXlX  o x c q w 9 u v F F P F W 1 y S L I S A K Q H G R >X9X4X4X5 4 6XqX  = lXlXlXlXlXlXlXlXlXlXlXlXlXlXlXlXlXlX",
"lXlXlXlXlXlXlXlXlXgX  = j m f q 8 9 m W F P F Q 7 y k F Q P G Y W F I G 6X7X7X4X4 5 7X6X@   pXkXlXlXlXlXlXlXlXlXlXlXlXlXlXlXlXlX",
"lXlXlXlXlXlXlXlXlXgX  . 0 u gXlXlXgXq a n z a 6 r 2 r 1 Y / z P Q a % % p } _._.-X5X:X6X. . lXjXlXlXlXlXlXlXlXlXlXlXlXlXlXlXlXlX",
"lXlXlXlXlXlXlXlXdXlX  X 0 = lXdXgXlXq x b v a t 1 2 r 2 S z z Q n 0 = % d d `._.4X9X<XwX@   hXlXlXlXlXlXlXlXlXlXlXlXlXlXlXlXlXlX",
"lXlXlXlXlXlXlXgXlXlXgXdXlXlXlXlXlXdXlXdXq u j F F S 9 r ! W ! K . X 9 M uXtX} T <X<X<X7XA W jXhXlXlXlXlXlXlXlXlXlXlXlXlXlXlXlXlX",
"lXlXlXlXlXlXlXlXgXlXhXgXlXgXgXgXlXlXlXlX8 j j P Q K 7 t z b W z . % } p eXuXL T -X8X<X:Xp t jXlXlXlXlXlXlXlXlXlXlXlXlXlXlXlXlXlX",
"lXlXlXlXlXlXlXlXlXlXgXkXgXgXlXlXhXlXjXlXw 8 u q j Q z S 9 6 P Q @ # '.(.tXtX$ # 8X-X5X4XC ! lXlXlXlXlXlXlXlXlXlXlXlXlXlXlXlXlXlX",
"lXlXlXlXlXlXlXlXlXgXlXgXkXlXkXgXhXlXlXlXf 8 9 2 K ! W U 9 9 j z # : '.}.eXtX@ : ,X&X2X,XT E yXgXlXlXlXlXlXlXlXlXlXlXlXlXlXlXlXlX",
"lXlXlXlXlXlXlXlXlXlXgXkXfXkXlXkXlXlXhXlXjXlXq t W z z z 7 9 $ @ ].Y.Z._.6X6X>X7X2X3X3X2XZ.'.uXgXlXlXlXlXlXlXlXlXlXlXlXlXlXlXlXlX",
"lXlXlXlXlXlXlXlXlXgXlXkXkXgXkXlXlXlXlXlXlXjX8 8 P j ! Y 6 q . . Z.Y.].[.>X1X5X8X3X,X&X&X'. XtXsXlXlXlXlXlXlXlXlXlXlXlXlXlXlXlXlX",
"lXlXlXlXlXlXlXlXlXlXlXlXlXlXlXlXjXlXlXlXlXlXlXlXyXyX. X M g m v 5 B ;.;.[._.2X=XY.}.Z D dXgXlXkXlXlXlXlXlXlXlXlXlXlXlXlXlXlXlXlX",
"lXlXlXlXlXlXlXlXlXlXlXlXlXlXlXlXlXlXlXlXkXkXkXlXlXdX. . g g m 0 d 3 :.>.`.|.2X*XY.).J D dXlXkXkXlXlXlXlXlXlXlXlXlXlXlXlXlXlXlXlX",
"lXlXlXlXlXlXlXlXlXlXlXlXlXlXlXlXlXlXlXlXlXlXlXlXiXlX. . F a @ . K d . . U t 3 r d B uXgXlXlXlXlXlXlXlXlXlXlXlXlXlXlXlXlXlXlXlXlX",
"lXlXlXlXlXlXlXlXlXlXlXlXlXlXlXlXlXgXlXlXlXlXlXlXsXlX. . r < # # S z 6 . r j 6 b p i gXgXlXlXlXlXlXlXlXlXlXlXlXlXlXlXlXlXlXlXlXlX",
"lXlXlXlXlXlXlXlXlXlXlXlXlXlXlXlXlXgXlXgXgXlXlXlXlXsX. . @ < 6.6.# # ;.*.# * jXjXlXfXfXfXzXlXgXlXlXlXlXlXlXlXlXlXlXlXlXlXlXlXlXlX",
"lXlXlXlXlXlXlXlXlXlXlXlXlXlXlXlXgXlXlXgXlXlXlXjXlXhX+ . @ > 7.6.: > 6.t.4 @ aXjXlXlXfXkXfXgXlXlXlXlXlXlXlXlXlXlXlXlXlXlXlXlXlXlX",
"lXlXlXlXlXlXlXlXlXlXlXlXlXlXlXlXlXlXlXgXlXjXjXlXhXkXo & X.6.J.H.6.q.J.S.<.8.: , gXlXlXkXgXlXgXgXlXlXlXlXlXlXlXlXlXlXlXlXlXlXlXlX",
"lXlXlXlXlXlXlXlXlXlXlXlXlXlXlXlXkXgXlXlXlXjXlXlXhXhX. < X.5.S.g.q.7.c.S.2.1.> # gXhXlXkXkXgXgXgXlXlXlXlXlXlXlXlXlXlXlXlXlXlXlXlX",
"lXlXlXlXlXlXlXlXlXlXlXlXlXlXlXlXkXkXkXlXjXlXjXjXh h + # 0.9.f.g.> > S.S.f.D.y.C.@ . lXlXlXlXgXgXlXlXlXlXlXlXlXlXlXlXlXlXlXlXlXlX",
"lXlXlXlXlXlXlXlXlXlXlXlXlXlXlXlXkXkXlXlXlXdXlXjXh h . @ 0.5.f.D.> : r.H.c.F.S.b.# # jXjXjXlXgXgXlXlXlXlXlXlXlXlXlXlXlXlXlXlXlXlX",
"lXlXlXlXlXlXlXlXlXlXlXlXlXlXlXlXkXkXkXkXlXjXg b wXwX@ : J.S.f.p.W.XX* * m.b.J.R.*X>X@ o lXlXjXlXlXlXlXlXlXlXlXlXlXlXlXlXlXlXlXlX",
"lXlXlXlXlXlXlXlXlXlXlXlXlXlXlXlXkXkXkXkXjXaXW y wX:X# : c.D.h.d./.XX@ # Z.C.R.R.*X1X.   jXlXlXlXlXlXlXlXlXlXlXlXlXlXlXlXlXlXlXlX",
"lXlXlXlXlXlXlXlXlXlXlXlXlXlXlXlXkXkXlXlXlXlX. @ # : 6.8.K.D.h.d.u.v.W.|.$ @ 1X*X1X1X    lXlXlXkXlXlXlXlXlXlXlXlXlXlXlXlXlXlXlXlX",
"lXlXlXlXlXlXlXlXlXlXlXlXlXlXlXlXlXkXlXlXdXgX# # : > w.2.g.r.p.d.y.F./.+X# # %X7X1X$XX   lXgXlXlXlXlXlXlXlXlXlXlXlXlXlXlXlXlXlXlX",
"lXlXlXlXlXlXlXlXlXlXlXlXlXlXlXlXlXlXlXgX  o M.A.7.w.,.2.L.G.h.a.h.i.d.y.+X+X# . + . uXgXgXgXkXkXlXlXlXlXlXlXlXlXlXlXlXlXlXlXlXlX",
"lXlXlXlXlXlXlXlXlXlXlXlXlXlXlXlXlXgXlXgX. # N.C.5.e.2.3.j.r.a.s.h.a.l.p./.+X. .     gXlXlXkXkXlXlXlXlXlXlXlXlXlXlXlXlXlXlXlXlXlX",
"lXlXlXlXlXlXlXlXlXlXlXlXlXlXlXlXgXlX    % . C.x.S.f.d.l.a.a.z.s.s.p.p.k.W.oX. . gXgXlXlXlXlXkXlXlXlXlXlXlXlXlXlXlXlXlXlXlXlXlXlX",
"lXlXlXlXlXlXlXlXlXlXlXlXlXlXlXlXgXuX  X . < v.P.k.l.i.a.h.h.h.i.p.p.k.v.@X{.$ + fXkXkXkXlXkXlXlXlXlXlXlXlXlXlXlXlXlXlXlXlXlXlXlX",
"lXlXlXlXlXlXlXlXlXlXlXlXlXlXlXgX. . V.V.+XW./.T.T.I.l.s.s.s.r.d.F.F.v.m.# # @ . X + sXlXlXkXkXlXlXlXlXlXlXlXlXlXlXlXlXlXlXlXlXlX",
"lXlXlXlXlXlXlXlXlXlXlXlXlXlXlXlX$ . V.V.XX+X/./.!.I.l.s.l.k.k.v.y.x.C.N.: # # # @ . aXlXlXhXfXzXlXlXlXlXlXlXlXlXlXlXlXlXlXlXlXlX",
"lXlXlXlXlXlXlXlXlXlXlXlXlXlXlXlXrXuXX . @ @ x.H.K.K.Q.~.!.E.^.E.. @ < @ @ # A ^ &.#.+ o lXzXkXkXlXlXlXlXlXlXlXlXlXlXlXlXlXlXlXlX",
"lXlXlXlXlXlXlXlXlXlXlXlXlXlXlXlXlXlX    . . B.n.n.x.@X#XOX#XOXOX  . . . @ , ^ o.@.o.o   gXfXfXkXlXlXlXlXlXlXlXlXlXlXlXlXlXlXlXlX",
"lXlXlXlXlXlXlXlXlXlXlXlXlXlXlXlXhXlXlXrX% . . @ # @ @ @ . .     gXdX$ * x o.o.&.* @ jXlXgXfXkXzXlXlXlXlXlXlXlXlXlXlXlXlXlXlXlXlX",
"lXlXlXlXlXlXlXlXlXlXlXlXlXlXlXlXlXhXlXlX. . @ @ @ @ @ @ # . O ; lXhX. o o.o.:.#.@ . lXgXkXlXlXlXlXlXlXlXlXlXlXlXlXlXlXlXlXlXlXlX",
"lXlXlXlXlXlXlXlXlXlXlXlXlXlXlXlXlXlXjXjX. # ^ ( =.=.J R # , yXlXlXlXjXlX  . . . lXgXlXlXlXlXlXlXlXlXlXlXlXlXlXlXlXlXlXlXlXlXlXlX",
"lXlXlXlXlXlXlXlXlXlXlXlXlXlXlXlXlXkXlXjXo @ H J =.=.` R # . yXgXlXjXlXsXO     + lXlXlXlXlXlXjXlXlXlXlXlXlXlXlXlXlXlXlXlXlXlXlXlX",
"lXlXlXlXlXlXlXlXlXlXlXlXlXlXlXlXlXlXgXlXgXyX# # R ( _ +.# X gXgXlXjXdXgXgXgXgXgXkXlXlXlXlXjXlXlXlXlXlXlXlXlXlXlXlXlXlXlXlXlXlXlX",
"lXlXlXlXlXlXlXlXlXlXlXlXlXlXlXlXlXgXfXlXlXgX$   P ] O.+.. . gXlXlXlXlXlXlXkXlXkXgXlXlXlXlXlXlXjXlXlXlXlXlXlXlXlXlXlXlXlXlXlXlXlX",
"lXlXlXlXlXlXlXlXlXlXlXlXlXlXlXlXlXkXkXhXlXgXfXlX+ O +   lXlXsXlXlXgXsXlXlXgXkXlXlXlXlXlXlXlXlXlXlXlXlXlXlXlXlXlXlXlXlXlXlXlXlXlX",
"lXlXlXlXlXlXlXlXlXlXlXlXlXlXlXlXlXkXlXkXkXfXkXkX+     O sXlXkXhXlXlXlXlXlXkXlXlXlXlXlXlXlXlXlXlXlXlXlXlXlXlXlXlXlXlXlXlXlXlXlXlX",
"lXlXlXlXlXlXlXlXlXlXlXlXlXlXlXlXjXjXhXhXkXlXkXlXlXgXkXlXsXlXlXkXgXlXhXlXlXlXkXlXjXlXlXlXlXlXlXkXlXlXlXlXlXlXlXlXlXlXlXlXlXlXlXlX",
"lXlXlXlXlXlXlXlXlXlXlXlXlXlXlXlXjXlXlXlXlXlXgXgXgXlXlXdXlXfXgXgXlXkXlXhXlXhXlXjXlXlXlXlXlXlXlXgXlXlXlXlXlXlXlXlXlXlXlXlXlXlXlXlX"
};
