/* XPM */
static char *tile001[] = {
/* columns rows colors chars-per-pixel */
"64 64 244 2 ",
"   c #030201",
".  c #0B0100",
"X  c #030A00",
"o  c #00030A",
"O  c #0B0A0A",
"+  c #0B0708",
"@  c #130200",
"#  c #1B0100",
"$  c #140A03",
"%  c #190906",
"&  c #1A1408",
"*  c #040516",
"=  c #1C1311",
"-  c #1C1918",
";  c #0A140D",
":  c #230100",
">  c #2A0200",
",  c #230C04",
"<  c #2B0C03",
"1  c #240E0D",
"2  c #2C1105",
"3  c #25130D",
"4  c #2C150C",
"5  c #29190A",
"6  c #34160C",
"7  c #3A1C0C",
"8  c #351808",
"9  c #221513",
"0  c #2B1512",
"q  c #241914",
"w  c #2C1A13",
"e  c #241B1A",
"r  c #2A1E1B",
"t  c #2C1418",
"y  c #321612",
"u  c #341B14",
"i  c #3B1E13",
"p  c #331B1B",
"a  c #391C1A",
"s  c #2C211D",
"d  c #2A281D",
"f  c #33221C",
"g  c #3C2519",
"h  c #36311E",
"j  c #000124",
"k  c #2C2323",
"l  c #29282B",
"z  c #312523",
"x  c #3C2A23",
"c  c #3B2D2A",
"v  c #372925",
"b  c #3C312C",
"n  c #39332A",
"m  c #2B3239",
"M  c #3D3432",
"N  c #313334",
"B  c #252733",
"V  c #441F0D",
"C  c #442A1E",
"Z  c #472517",
"A  c #53371A",
"S  c #4E290C",
"D  c #432C24",
"F  c #4B2E26",
"G  c #442D2B",
"H  c #492E2B",
"J  c #422628",
"K  c #453225",
"L  c #4A3126",
"P  c #44322C",
"I  c #4B332B",
"U  c #4B382B",
"Y  c #483C29",
"T  c #53342D",
"R  c #573726",
"E  c #4A2F31",
"W  c #443432",
"Q  c #4A3332",
"!  c #443933",
"~  c #4C3933",
"^  c #4C3E3B",
"/  c #423D3A",
"(  c #513432",
")  c #533B34",
"_  c #583B34",
"`  c #673E38",
"'  c #3D423E",
"]  c #5B411C",
"[  c #5A4224",
"{  c #55433B",
"}  c #5B443C",
"|  c #5A4438",
" . c #4A422F",
".. c #624427",
"X. c #61453B",
"o. c #373D4B",
"O. c #4B3848",
"+. c #593E4F",
"@. c #493966",
"#. c #4B4747",
"$. c #5D4641",
"%. c #5D4A43",
"&. c #574846",
"*. c #525257",
"=. c #614741",
"-. c #624A43",
";. c #674D47",
":. c #744B42",
">. c #665351",
",. c #716655",
"<. c #4D5072",
"1. c #6B5477",
"2. c #5C6A6C",
"3. c #676D69",
"4. c #6A6B77",
"5. c #717174",
"6. c #905E26",
"7. c #976B39",
"8. c #8E6E34",
"9. c #AD7237",
"0. c #976D46",
"q. c #977842",
"w. c #987653",
"e. c #8B7145",
"r. c #A5724B",
"t. c #857664",
"y. c #BD853A",
"u. c #A88D3E",
"i. c #C78E3A",
"p. c #C7903D",
"a. c #948045",
"s. c #AF8947",
"d. c #B48949",
"f. c #B79345",
"g. c #A98956",
"h. c #B58B53",
"j. c #B68657",
"k. c #BB9956",
"l. c #AE9050",
"z. c #998C75",
"x. c #9F8A6B",
"c. c #AB8C67",
"v. c #B68C60",
"b. c #AC9468",
"n. c #B99468",
"m. c #AB9379",
"M. c #B99877",
"N. c #A88F70",
"B. c #C78B44",
"V. c #C2934E",
"C. c #CB974A",
"Z. c #C68E57",
"A. c #C49759",
"S. c #D29850",
"D. c #E3B658",
"F. c #C8976C",
"G. c #C29978",
"H. c #D39B6E",
"J. c #C9A27E",
"K. c #D3B377",
"L. c #E3B96D",
"P. c #E8BA77",
"I. c #F2B767",
"U. c #DCC375",
"Y. c #E9C775",
"T. c #F8C97B",
"R. c #F9CB6D",
"E. c #595496",
"W. c #665A87",
"Q. c #6C5892",
"!. c #676899",
"~. c #726685",
"^. c #695DA7",
"/. c #6763B0",
"(. c #8B989B",
"). c #949898",
"_. c #8F958A",
"`. c #A99A84",
"'. c #BB9B84",
"]. c #B69888",
"[. c #B89C93",
"{. c #A88C80",
"}. c #96A098",
"|. c #BDA28B",
" X c #BDA393",
".X c #BBA298",
"XX c #949DA1",
"oX c #8E96A1",
"OX c #9FA4A2",
"+X c #C39C84",
"@X c #C89E86",
"#X c #C3A384",
"$X c #CAA482",
"%X c #C4A28B",
"&X c #CCA78A",
"*X c #D2BC8D",
"=X c #C4A799",
"-X c #DABB95",
";X c #D3B894",
":X c #D1A686",
">X c #E8BE96",
",X c #E5BEA1",
"<X c #D9C297",
"1X c #D9CB94",
"2X c #E7C78D",
"3X c #D9C3A5",
"4X c #DECBB7",
"5X c #EBC9AE",
"6X c #EBC7A6",
"7X c #F3C9AC",
"8X c #FCCEAE",
"9X c #F5D1A9",
"0X c #EBCAB8",
"qX c #F4CDB3",
"wX c #FCCDB4",
"eX c #F7CBB8",
"rX c #E8D1B7",
"tX c #F4D2BB",
"yX c #FCD3BB",
"uX c #F8D5B7",
"iX c #DED1C3",
"pX c #FBCEC3",
"aX c #EAD9C8",
"sX c #F5D5C3",
"dX c #FAD7C5",
"fX c #EFD4D2",
"gX c #F9E4CA",
"hX c #FCF7CC",
"jX c #FFEEDA",
"kX c #FFF5DA",
"lX c #ECE8E7",
"zX c #F7ECEB",
"xX c #FDF2ED",
"cX c #FEFBED",
"vX c #FCF7E6",
"bX c #F8EDF3",
"nX c #F6F5F5",
"mX c #FDF5F4",
"MX c #FDFBF5",
"NX c #FBF6FB",
"BX c #F6FDFC",
"VX c #FFFEFE",
"CX c #F5F8F9",
"ZX c #E0F3ED",
/* pixels */
"VXVXVXVXVXVXVXVXVXVXVXVXVXVXVXVXVXVXVXVXVXVXVXVXVXVXVXVXVXVXVXVXCXNXMXmXVXVXNXVXVXNXVXNXVXVXBXBXVXVXVXVXVXVXVXVXVXVXVXVXVXVXVXVX",
"VXVXVXVXVXVXVXVXVXVXVXVXVXVXVXVXVXVXVXVXVXVXVXVXVXNXVXCXVXnXVXVXVXVXVXVXNXNXNXmXNXNXNXlXVXBXMXBXVXVXVXVXVXVXVXVXVXVXVXVXVXVXVXVX",
"VXVXVXVXVXVXVXVXVXVXVXVXVXVXVXVXVXVXVXVXVXVXVXVXVXVX- e VXVXVXMXMXmXVXmXs e f e = k e k NXVXVXVXVXVXVXVXVXVXVXVXVXVXVXVXVXVXVXVX",
"VXVXVXVXVXVXVXVXVXVXVXVXVXVXVXVXVXVXVXVXVXVXVXVXVXlXl - NXmXVXMXMXVXMXmXr r r z k k = e mXVXVXBXVXVXVXVXVXVXVXVXVXVXVXVXVXVXVXVX",
"VXVXVXVXVXVXVXVXVXVXVXVXVXVXVXVXVXVXVXVXVXVXMXVXk k #./ z k mXVXs q w r ^ &.&.O.&./ =   VXVXVXVXVXVXVXVXVXVXVXVXVXVXVXVXVXVXVXVX",
"VXVXVXVXVXVXVXVXVXVXVXVXVXVXVXVXVXVXVXVXVXVXVXVX- e #.^ z = NXMX3 w q h { &.%.%.&.#.  + nXVXCXVXVXVXVXVXVXVXVXVXVXVXVXVXVXVXVXVX",
"VXVXVXVXVXVXVXVXVXVXVXVXVXVXVXVXVXVXVXVXVXVXVXVXs s ! ^ ~ ^ q 3 K U { { %.{ ^ ! % . VXVXVXBXVXNXVXVXVXVXVXVXVXVXVXVXVXVXVXVXVXVX",
"VXVXVXVXVXVXVXVXVXVXVXVXVXVXVXVXVXVXVXVXVXNXMXVXk 9 n c %.%.f 4 U U } %.-.{ ~ c . @ NXNXVXnXVXVXVXVXVXVXVXVXVXVXVXVXVXVXVXVXVXVX",
"VXVXVXVXVXVXVXVXVXVXVXVXVXBXVXVXnXVXVXNXe q e r W P 0 0 Q I w 4 } } X.| i 3 . @ r t e e NXVXVXNXVXVXBXVXVXVXVXVXVXVXVXVXVXVXVXVX",
"VXVXVXVXVXVXVXVXNXVXBXNXVXVXVXVXVXVXxXMXe s q q c b f w D x 0 y } | X. .g 4 @ . 0 q k e mXnXVXVXVXVXVXVXNXNXNXCXVXVXVXVXVXVXVXVX",
"VXVXVXVXVXVXVXVXVXVXVXVXNXBXVXNXq 9 e 9 P c P G %.%.%.} ) I H D I F ) [ | -.%.} G P v W 9 r = e NXVXCXNXVXVXVXVXVXVXVXVXVXVXVXVX",
"VXVXVXVXVXVXVXVXBXnXVXnXVXVXnXVXr q q f c Q ! P %.} %.{ I x H D L C U U | } -.%.I ! Q c z q q e VXNXVXVXnXVXnXVXVXVXVXVXVXVXVXVX",
"VXVXVXVXVXVXVXVXVXVXVXVXVXVX+   q w f P x ~ { } ;.} ;.;._ $.>.X.X._ X.` =.-.-.%.{ { ~ x P f q q   + VXVXVXVXVXVXVXVXVXVXVXVXVXVX",
"VXVXVXVXVXVXVXVXVXVXVXVXnXNXX . f p G ~ x b } } &.~ } %.$.-.>.$.-.X.;.X.X.$.} } } { P x U b g s . o nXnXVXVXVXVXVXVXVXVXVXVXVXVX",
"VXVXVXVXVXVXVXVXVXnXVXCXo O l n x D G x 1 , 4 p ~ ~ } %.$.$.=.$.-.=.-.X.} $.~ T s 5 % , x I D v n l ;   CXVXnXVXVXVXVXVXVXVXVXVX",
"VXVXVXVXVXVXVXVXVXNXVXVX  O N M P H I i , # < 0 D I } -.-.$.=.=.;.=.=.-.} X.I K 4 , @ , f U P b M N O   VXVXVXVXVXVXVXVXVXVXVXVX",
"VXVXVXVXVXVXMXVXVXVXCXVXBXVXVXNX. # 1 y F F F H L U D D ) D H E E E J ) D K U K K K I I t 1 @ . VXVXVXVXVXCXVXVXVXVXVXVXVXVXVXVX",
"VXVXVXVXVXVXVXVXMXCXCXMXnXVXnXVX. # 1 a F F T F D U C I H H ( ( ( Q H I I g U x L I D J p 9 @   VXnXVXnXMXCXBXBXVXVXMXVXMXVXVXMX",
"VXVXVXVXVXVXVXVXVXVXnXVXVXVXO   W G W J H J H F L I I I I D y < < y D F K P Q P I I G G G P b ! . O VXCXVXCXVXVXVXVXVXVXVXVXVXVX",
"VXVXVXVXVXMXVXVXVXMXVXnXMXNX. . W G G W E H ( H G ~ x D C C i i a V C D K K ( W E W Q G P b n M .   VXNXnXVXMXMXVXVXMXVXVXVXVXMX",
"VXVXVXVXVXVXVXVXVXMXVXVX- e k 9 c b G W E J p t P D x D g 7 [.].'.'.7 g D D J E t p J E P b n x q s r e VXMXVXVXVXVXVXVXVXVXVXVX",
"VXVXVXVXVXVXVXVXVXVXMXVX- = 9 9 W Q W Q E J p p Q I I C 8 < '.%X%XM.< 8 Z F I Q t p J E ~ K Y K q - = - MXVXVXVXVXVXVXVXVXVXVXVX",
"VXVXVXVXVXVXVXVXMXmXMXNX$ $ M n b K D x p J x E w y w 8 ].'.5XqXqX7XG.'.V < 6 6 F J J y D D K D c n $ . MXmXmXMXVXVXVXVXVXVXVXVX",
"VXVXVXVXVXVXVXVXVXVXNXVX  $ v P P U I H 0 y J E y 4 2 7 ].&X8X7X7XeX:XM.V > 6 6 R J 6 6 F U I I P v $ . VXMXVXMXVXVXVXVXVXVXVXVX",
"VXVXVXVXVXVXVXVXNXVX. + b / n ! Y K K K # @ ( F 6 6 dXsXuXuX9X8XwXyXwXyXyX5X&X+XR V > # F _ F J ! c ! n $ . VXMXVXVXVXVXVXVXVXVX",
"VXVXVXVXVXVXVXVXVXVX  . b v c b K C L L @ # H T 2 6 sX5XyX8X8X8XyXwXyXwX6X,X&X+XS A : : C i ( E P b c b .   MXVXVXVXVXVXVXVXVXVX",
"VXVXVXVXVXVXVXVXVXVXVXMXVXVX= f 5 7 ].=XR F i <  X X|.;X6X8X8XwXwXeXwXwX&X#XG.M.G.+XR Z =X.Xt t s = MXVXVXVXMXVXVXVXVXVXVXVXVXVX",
"VXVXVXVXVXVXVXVXVXnXMXVXMXNXn & 5 4 .X{.L C < g %X=X].+XqXyX8XwXyXeXeX,X&Xn.$X-XM.@XZ V =X].y t = b VXNXMXMXnXVXVXVXVXVXVXVXVXVX",
"NXVXVXVXVXVXVXVXMXVXnXVXVXmXzXVXw w [..Xi 4  X`.jXkXR R rX7XyXwXeXyXtXuXA ..gXgX+X[.V i [.[.y t NXlXmXVXVXnXMXMXVXVXMXVXVXVXVXVX",
"VXVXVXVXVXVXVXMXVXMXVXBXVXVXVXVXf % [.[.2 u .X].vXgX[ A rXtXyXeXtXyXtXrX..R jXcX[.`.2 < [.[.i 3 VXVXVXVXVXVXVXVXVXVXVXVXVXVXVXVX",
"VXVXVXVXMXVXVXVXBXCXVXVXVXVXVXmXxXMXI x % @ 4XaXvXvX@ @ sXsXeXtXqXtX0XsX@ @ vXxXfXfX# @ G ~ vXcXmXVXVXVXVXBXBXBXVXMXVXVXVXMXVXMX",
"VXVXVXVXVXVXVXVXVXnXVXMXVXnXVXVXNXMXP ~ . % iXaXkXgX$ # 0XdXdXeXtXuXtXtX@ @ xXxXfXfX@ @ W G mXVXVXVXVXBXBXVXnXVXVXVXVXMXVXVXVXVX",
"VXVXVXVXVXVXVXVXVXVXVXVXVXVXVXVXVXVXxXVX& s = q rXtXpX0XdXeX8XyXtXtXyX7XyXsXrXfXd d & q NXVXNXNXVXVXVXVXVXVXVXVXVXVXVXVXVXVXVXVX",
"VXVXVXVXVXVXVXVXVXVXVXVXVXVXVXVXVXVXNXxXv w 9 5 gX5XsXeXpXpX8X9X5XtX7XyXwXdX4XiXq & 5 f bXNXVXVXVXVXVXVXVXVXVXVXVXVXVXVXVXVXVXVX",
"VXVXVXVXVXVXVXVXVXVXVXVXVXVXVXVXBXVX  %   . @ . . .  X'.pXpXJ.J.:X$XyXwX+X+X@ $ + $ vXvXVXCXVXVXVXVXVXVXVXVXVXVXVXVXVXVXVXVXVXVX",
"VXVXVXVXVXVXVXVXVXVXVXVXVXVXVXVXBXMX. . # @ : # @ % %X%XfX0XM.n.M.G.eXtX+X@X@ . . . cXmXnXVXBXBXVXVXVXVXVXVXVXVXVXVXVXVXVXVXVXVX",
"VXVXVXVXVXVXVXVXVXVXVXVXVXVXVXVX  .  X#Xr.r.r.j.k.l.# @ @ : R ..[ [ @ $ # # @ @ mXNXVXVXVXMXmXVXVXVXVXVXVXVXVXVXVXVXVXVXVXVXVXVX",
"VXVXVXVXVXVXVXVXVXVXVXVXVXVXVXVXO . M.n.7.9.H.Z.d.k.: > : : ..] ] [ @ $ # @ < @ mXmXVXVXNXVXMXMXVXVXVXVXVXVXVXVXVXVXVXVXVXVXVXVX",
"VXVXVXVXVXVXVXVXVXVXVXVXVXVXVXVX  . %XG.H.:X: > 7.8.h.h.r.0.G.M.J.M.a.8.8.q.0.w.@ @ VXBXBXBXVXVXVXVXVXVXVXVXVXVXVXVXVXVXVXVXVXVX",
"VXVXVXVXVXVXVXVXVXVXVXVXVXVXVXVXX . |.M.@X'.# @ a.8.V.V.7.r.&X'.|.J.,.a.8.q.7.0.# @ NXBXBXBXVXVXVXVXVXVXVXVXVXVXVXVXVXVXVXVXVXVX",
"VXVXVXVXVXVXVXVXVXVXVXVXVXVXVXVXVXBX. @ . . VXCX  $ u.C.P.>X) O.O.T 6X1X@ @ n.j.s.b.  & VXNXcXMXVXVXVXVXVXVXVXVXVXVXVXVXVXVXVXVX",
"VXVXVXVXVXVXVXVXVXVXVXVXVXVXVXVXBXBX+ % +   BXZXX . f.i.P.-X*.@.@.O.3XK.$ @ j.Z.V.l.$   mXVXvXMXVXVXVXVXVXVXVXVXVXVXVXVXVXVXVXVX",
"VXVXVXVXVXVXVXVXVXVXVXVXVXVXVXVXBXVXNXzXVXVXBXBX  @ V.p.T.-X4.E.Q.~.3X1Xk.h.: > V.h.. X NXNXVXNXVXVXVXVXVXVXVXVXVXVXVXVXVXVXVXVX",
"VXVXVXVXVXVXVXVXVXVXVXVXVXVXVXVXMXBXNXVXNXVXCXCX% > f.i.P.-X~.E.Q.1.3XK.f.f.: > d.v.@ @ NXbXVXVXVXVXVXVXVXVXVXVXVXVXVXVXVXVXVXVX",
"VXVXVXVXVXVXVXVXVXVXVXVXVXVXVXMXcXnXVXzXVXbX@ $ g.d.R.D.V.c.1.!.^.~.b.s.Y.Y.V.Z.< @ # @ NXVXVXBXVXVXVXVXVXVXVXVXVXVXVXVXVXVXVXVX",
"VXVXVXVXVXVXVXVXVXVXVXVXVXVXVXVXMXMXNXVXNXmX# # A.B.D.R.g.m.4.E.E.1.N.k.U.L.A.v.# : # : NXNXBXBXVXVXVXVXVXVXVXVXVXVXVXVXVXVXVXVX",
"VXVXVXVXVXVXVXVXVXVXVXVXVXVXVXVXMXBXVXCX. : j.H.d.C.U.U..   E./.^.E.@ # u.A., : sXsX@X[..   BXBXVXVXVXVXVXVXVXVXVXVXVXVXVXVXVXVX",
"VXVXVXVXVXVXVXVXVXVXVXVXVXVXVXVXBXCXVXMX# : Z.B.B.k.K.1X  o !.E.E.Q.  @ k.f.: @ sXtX%X`.. + CXBXVXVXVXVXVXVXVXVXVXVXVXVXVXVXVXVX",
"VXVXVXVXVXVXVXVXVXVXVXVXVXVXVXVXX     # j.B.B.p.P.2X8 h ' o.j j j * *.) N.n.# # 5XuX0XaX.   CXVXVXVXVXVXVXVXVXVXVXVXVXVXVXVXVXVX",
"VXVXVXVXVXVXVXVXVXVXVXVXVXVXVXVX    $ : C.y.i.i.>X*XY  .o.<.* j o   O.$.z.N.: # uX9XsXrX$ O VXBXVXVXVXVXVXVXVXVXVXVXVXVXVXVXVXVX",
"VXVXVXVXVXVXVXVXVXVXVXVXVXVXVXVX  @ c.k.9.C.I.T.Y.<X    (.(.~.4.B #.,.3.@ # c.b.% # @ @ vXMXCXVXVXVXVXVXVXVXVXVXVXVXVXVXVXVXVXVX",
"VXVXVXVXVXVXVXVXVXVXVXVXVXVXVXVX. @ N.j.S.B.T.L.2X<X, X }.(.5.4.m B 3.,.. @ b.b.# # @ @ cXVXVXVXVXVXVXVXVXVXVXVXVXVXVXVXVXVXVXVX",
"VXVXVXVXVXVXVXVXVXVXVXVXVXVXVXVXbXmX# : 6.6.s.k.hXhXX X _.}.4.5.o   }.`.. $ 3X;XM.m.,.,..   VXVXVXVXVXVXVXVXVXVXVXVXVXVXVXVXVXVX",
"VXVXVXVXVXVXVXVXVXVXVXVXVXVXVXVXNXzX@ @ e.7.n.g.kXkX; X (._.3.3.o o _.z.  . <X<Xx.z.t.t..   VXVXVXVXVXVXVXVXVXVXVXVXVXVXVXVXVXVX",
"VXVXVXVXVXVXVXVXVXVXVXVXVXVXVXVXCXVXmXvX@ @ . $   X *.*.XXXX(.OXX o ' N !  .. @ . , @ . MXmXVXVXVXVXVXVXVXVXVXVXVXVXVXVXVXVXVXVX",
"VXVXVXVXVXVXVXVXVXVXVXVXVXVXVXVXVXCXVXVX  . .   X   2.2.(.XX_.).  ; l N h h   @ . . @ . VXmXVXNXVXVXVXVXVXVXVXVXVXVXVXVXVXVXVXVX",
"VXVXVXVXVXVXVXVXVXVXVXVXVXVXVXVXVXBXVXVXVXVXVXVX  * B o.*.*.c c N m BXVXMXcXMXMXcXMXMXMXVXVXVXVXVXVXVXVXVXVXVXVXVXVXVXVXVXVXVXVX",
"VXVXVXVXVXVXVXVXVXVXVXVXVXVXVXVXBXBXBXVXVXVXVXVX;   l l 1.>.E ( l m BXVXnXVXMXVXVXNXMXVXVXVXVXVXVXVXVXVXVXVXVXVXVXVXVXVXVXVXVXVX",
"VXVXVXVXVXVXVXVXVXVXVXVXVXVXVXVXVXVXVXVXVXMXVXMXbXNX+ 1 X.:.X.:.O o VXBXNXVXVXVXVXVXVXVXVXVXVXVXVXVXVXVXVXVXVXVXVXVXVXVXVXVXVXVX",
"VXVXVXVXVXVXVXVXVXVXVXVXVXVXVXVXVXVXVXVXMXMXMXVXVXNX@ # R :.X.:.. o VXVXVXVXVXVXVXVXVXVXVXVXVXVXVXVXVXVXVXVXVXVXVXVXVXVXVXVXVXVX",
"VXVXVXVXVXVXVXVXVXVXVXVXVXVXVXVXVXBXMXMXMXVXVXVXVXMX@ # T T R ` .   VXVXVXVXVXVXVXVXVXVXVXVXVXVXVXVXVXVXVXVXVXVXVXVXVXVXVXVXVXVX",
"VXVXVXVXVXVXVXVXVXVXVXVXVXVXVXVXVXVXMXMXVXVXVXVXNXxX@ % I I X.F . + nXNXVXNXVXVXVXVXVXVXVXMXVXVXVXVXVXVXVXVXVXVXVXVXVXVXVXVXVXVX",
"VXVXVXVXVXVXVXVXVXVXVXVXVXVXVXVXVXVXBXVXVXVXVXBXVXVXVXlX. . % @ VXzXVXMXVXVXVXCXVXVXVXVXMXMXMXVXVXVXVXVXVXVXVXVXVXVXVXVXVXVXVXVX",
"VXVXVXVXVXVXVXVXVXVXVXVXVXVXVXVXVXVXBXVXBXVXVXBXBXBXBXVX  . .   VXMXMXVXVXVXNXVXVXVXVXMXVXVXMXVXVXVXVXVXVXVXVXVXVXVXVXVXVXVXVXVX"
};
