/* XPM */
static char *tile008[] = {
/* columns rows colors chars-per-pixel */
"64 64 235 2 ",
"   c #040101",
".  c #0C0101",
"X  c #0D0800",
"o  c #03010A",
"O  c #0B0108",
"+  c #050C0A",
"@  c #130101",
"#  c #1A0100",
"$  c #140A02",
"%  c #1C0C01",
"&  c #1A050A",
"*  c #140B0A",
"=  c #16090A",
"-  c #181007",
";  c #020113",
":  c #00021B",
">  c #090816",
",  c #131010",
"<  c #1D1414",
"1  c #1A191A",
"2  c #150716",
"3  c #230200",
"4  c #2B0200",
"5  c #240B01",
"6  c #2B0E00",
"7  c #2C130E",
"8  c #291808",
"9  c #32150A",
"0  c #381A08",
"q  c #231514",
"w  c #2B1513",
"e  c #251A15",
"r  c #2C1A15",
"t  c #251B1B",
"y  c #2B1D1A",
"u  c #271718",
"i  c #311A15",
"p  c #341E1B",
"a  c #391D1A",
"s  c #351811",
"d  c #1D211B",
"f  c #2D211E",
"g  c #2A2614",
"h  c #35221D",
"j  c #3B231D",
"k  c #3E2A1E",
"l  c #372918",
"z  c #3B3013",
"x  c #040226",
"c  c #080626",
"v  c #15173E",
"b  c #2B1F21",
"n  c #331F20",
"m  c #2D2322",
"M  c #342423",
"N  c #3C2623",
"B  c #342B22",
"V  c #3C2A25",
"C  c #34272A",
"Z  c #342B2A",
"A  c #3C2C2B",
"S  c #3F2629",
"D  c #3D332D",
"F  c #343224",
"G  c #372C35",
"H  c #3C3031",
"J  c #4C2302",
"K  c #582A0B",
"L  c #442B1D",
"P  c #44251B",
"I  c #4E3419",
"U  c #64340C",
"Y  c #412724",
"T  c #442B25",
"R  c #4A2E25",
"E  c #442D2A",
"W  c #4A2E2A",
"Q  c #463123",
"!  c #4B3226",
"~  c #44312C",
"^  c #4B332D",
"/  c #4D3A2C",
"(  c #51352C",
")  c #593B2B",
"_  c #443431",
"`  c #4C3532",
"'  c #4C3A34",
"]  c #473938",
"[  c #513633",
"{  c #523933",
"}  c #523E3C",
"|  c #5A3F3B",
" . c #5E3636",
".. c #492E34",
"X. c #5B402F",
"o. c #54423D",
"O. c #5C433D",
"+. c #5C493B",
"@. c #6C482E",
"#. c #6A4735",
"$. c #714A3A",
"%. c #795535",
"&. c #3E354D",
"*. c #353559",
"=. c #38396E",
"-. c #3E3B73",
";. c #5C3D46",
":. c #463B5F",
">. c #413972",
",. c #524242",
"<. c #5C4640",
"1. c #5F4943",
"2. c #5E4D4B",
"3. c #624641",
"4. c #634A44",
"5. c #644D4A",
"6. c #6A4D48",
"7. c #7A5845",
"8. c #6A5759",
"9. c #6A564A",
"0. c #7C6259",
"q. c #56547B",
"w. c #4F4875",
"e. c #66556E",
"r. c #8F5A39",
"t. c #AD7A39",
"y. c #8D6757",
"u. c #8F6443",
"i. c #B7893A",
"p. c #BA9439",
"a. c #C28F35",
"s. c #C4993B",
"d. c #C6822D",
"f. c #9D9358",
"g. c #BC8B45",
"h. c #B7874A",
"j. c #AD944C",
"k. c #BA9546",
"l. c #AA8552",
"z. c #B68B5B",
"x. c #A89656",
"c. c #BA9457",
"v. c #9C8176",
"b. c #A88A6A",
"n. c #B59665",
"m. c #B69B76",
"M. c #A99173",
"N. c #C68C47",
"B. c #C69249",
"V. c #D19340",
"C. c #C69755",
"Z. c #CD8E52",
"A. c #D5A155",
"S. c #C8967E",
"D. c #C08E73",
"F. c #DABB6A",
"G. c #C5A777",
"H. c #CFAE73",
"J. c #E9BA6A",
"K. c #E7BB77",
"L. c #D5C377",
"P. c #E8C57E",
"I. c #EFCC75",
"U. c #5A5489",
"Y. c #6A5E98",
"T. c #62538A",
"R. c #5F6389",
"E. c #656493",
"W. c #6E618C",
"Q. c #978C91",
"!. c #8D8195",
"~. c #BA9988",
"^. c #A39192",
"/. c #BBA395",
"(. c #BCABA3",
"). c #C69984",
"_. c #CAA68E",
"`. c #D8B881",
"'. c #C3A496",
"]. c #CFB990",
"[. c #E2BD83",
"{. c #E7BF9C",
"}. c #CBBBA2",
"|. c #DFBBA1",
" X c #DAC68A",
".X c #CEC791",
"XX c #D0D09C",
"oX c #D7C19C",
"OX c #E7C685",
"+X c #E7C99B",
"@X c #ECD09E",
"#X c #F2CC90",
"$X c #D0CBA1",
"%X c #E9CAAA",
"&X c #F5CEAA",
"*X c #F9D4AE",
"=X c #E8C9B4",
"-X c #EBCEBC",
";X c #F4C7B2",
":X c #F2CEB4",
">X c #FFCFB9",
",X c #EDD2BE",
"<X c #EBD5B6",
"1X c #F1D2BB",
"2X c #FBD6BC",
"3X c #F8D6B4",
"4X c #EDD5AF",
"5X c #E8CDC2",
"6X c #EDD5C4",
"7X c #ECD5CA",
"8X c #EBD5C9",
"9X c #F1D5C4",
"0X c #F8D9C3",
"qX c #F0D4CA",
"wX c #FADAC5",
"eX c #F4D9D0",
"rX c #FDEFDE",
"tX c #F5F8DD",
"yX c #FFEDE1",
"uX c #F6ECEA",
"iX c #FEEEEF",
"pX c #FBF3EC",
"aX c #FDFBED",
"sX c #FAF7E8",
"dX c #EEEFF1",
"fX c #FDEDF0",
"gX c #F4F4F4",
"hX c #FCF5F5",
"jX c #F6FDF5",
"kX c #FDFDF4",
"lX c #F5F5FA",
"zX c #FCF6FC",
"xX c #F5FDFE",
"cX c #FFFEFE",
"vX c #EEEFE5",
/* pixels */
"cXcXcXxXcXcXcXcXcXcXcXcXcXcXcXcXcXcXcXhXcXcXzXcXcXlXzXcXcXcXzXcXcXxXcXlXcXcXcXcXcXcXcXcXcXcXcXcXcXcXcXcXcXcXcXcXcXcXcXcXcXcXcXcX",
"cXcXcXcXcXcXcXcXcXxXcXcXcXcXcXcXjXcXcXcXcXcXcXcXcXhXcXzXcXcXzXcXcXcXlXcXhXcXcXcXcXcXcXcXcXcXcXcXcXcXcXcXcXcXcXcXcXcXcXcXcXcXcXcX",
"cXcXcXcXcXcXcXcXcXcXcXcXcXcXcXcXcXxXlXcXcXcXhXfXzXcXcXcXcXkXcXcXcXcXcXhXcXcXlXcXcXcXcXcXcXcXcXcXcXcXcXcXcXcXcXcXcXcXcXcXcXcXcXcX",
"cXcXcXcXcXcXcXcXcXcXcXcXcXcXcXcXcXlXcXcXcXcXcXcXhXzXhXcXhXcXhXcXzXkXcXcXzXkXcXcXcXcXcXcXcXcXcXcXcXcXcXcXcXcXcXcXcXcXcXcXcXcXcXcX",
"cXcXcXcXcXcXcXcXcXcXcXcXcXcXcXcXcXcXjXcXhXcXb m H A t Z Z f cXkXcXkXcXcXzXkXcXcXcXcXcXcXcXcXcXcXcXcXcXcXcXcXcXcXcXcXcXcXcXcXcXcX",
"cXcXcXcXcXcXcXcXcXcXcXxXxXcXcXcXcXlXcXcXcXcXb m C M Z Z M y pXcXkXcXhXcXhXcXkXzXcXcXcXcXcXcXcXcXcXcXcXcXcXcXcXcXcXcXcXcXcXcXcXcX",
"cXcXcXcXcXcXcXcXcXcXcXcXcXcXcXcXcXcXcXzXzXcX. @ ;.2.,.2.,.o.B Z kXcXhXuXZ C M Z zXcXcXcXcXcXcXcXcXcXcXcXcXcXcXcXcXcXcXcXcXcXcXcX",
"cXcXcXcXcXcXcXcXcXcXcXcXcXcXcXcXcXcXcXcXkXzX. . ,.2.2.<.2.o.j h kXkXcXkXy M C C cXcXcXcXcXcXcXcXcXcXcXcXcXcXcXcXcXcXcXcXcXcXcXcX",
"cXcXcXcXcXcXcXcXcXcXcXcXkXcXcXcXcXcXcXhXy M N n . @ _ { o.+.<.<.M N y m 2.2.m M kXcXcXzXcXcXcXcXcXcXcXcXcXcXcXcXcXcXcXcXcXcXcXcX",
"cXcXcXcXcXcXcXcXlXxXcXlXcXcXcXcXhXkXhXvX_ y M N @ # N ^ 1.1.2.1.h N N N } ;.M M zXkXuXcXhXcXlXcXcXcXcXcXcXcXcXcXcXcXcXcXcXcXcXcX",
"cXcXcXcXcXcXcXcXcXcXcXcXcXhXcXzX  . Z ] _ A ` E E T @ # i r O.+.i B o.o.} ` n p n M . O cXxXcXcXcXcXcXcXcXcXcXcXcXcXcXcXcXcXcXcX",
"cXcXcXcXcXcXcXcXcXhXcXdXcXcXzXkX. $ q h S E E ^ W E @ # Y V 5.O.h N <.<.W E N n M n . . hXjXcXxXcXcXcXcXcXcXcXcXcXcXcXcXcXcXcXcX",
"cXcXcXcXcXcXcXcXcXcXcXcXzXzX. . D D ~ ~ ^ [ ;.3.3.#.E Y W Y ^ ^ Q k ' W i j Y ..E ] H C O   cXcXcXcXcXcXcXcXcXcXcXcXcXcXcXcXcXcX",
"cXxXcXxXcXcXcXcXcXzXcXcXcXcX  . ~ ~ ' V ` W 3.3.3.[ ( ..^ ` ^ E ^ Y { ^ a T W ..Y H A C   , dXcXcXcXcXcXcXcXcXcXcXcXcXcXcXcXcXcX",
"xXxXcXxXcXcXcXcXcXzXcXzXb C G A ~ / ~ ` | 4.3.3.6.6.| | ^ T ^ A T T O.1.#.;...E S n & * jXcXcXcXcXcXcXcXcXcXcXcXcXcXcXcXcXcXcXcX",
"cXcXcXcXcXcXcXcXcXcXzXcXC C ] A V ^ T ^ | 1. .6.3.3.3.O.^ ^ E ^ ! Q #.1.5.3.^ W S u @ O cXcXlXcXcXcXcXcXcXcXcXcXcXcXcXcXcXcXcXcX",
"cXcXcXcXcXcXcXcXcXcXxXcXzXzXm u w w E { E ^ <.<.3.<.O.O.4.4.#.<.+.+.+.{ [ ` Y E u w . . < e kXcXcXcXcXcXcXcXcXcXcXcXcXcXcXcXcXcX",
"cXcXcXcXcXcXcXxXlXcXhXcXcXhXu y w i N E V ^ O.6.3.<.3.O.O.O.4.5.+.X.+.9.Y ` ` ..p y & & < , cXcXcXcXcXcXcXcXcXcXcXcXcXcXcXcXcXcX",
"cXcXcXcXcXcXcXxXcXzXcXcX. . A E E ^ ` ^ ^ E Y ^ T [ | 3.3.#.O.O.Q / ! k ^ E j ` S S u , * . cXcXcXcXcXcXcXcXcXcXcXcXcXcXcXcXcXcX",
"cXcXcXcXcXcXcXcXdXcXcXkX. @ C ` E ` Y Y ` ^ V E Y [ 3.6.6.4.3.O./ / T { T ^ [ Y E S m e O   hXcXcXcXcXcXcXcXcXcXcXcXcXcXcXcXcXcX",
"cXcXcXcXcXcXxXcXcXlX. X M ~ ' A ^ E w w T ^ E [ W Y W Y Y R W ! T Q Q T R W T W n p u q + . cXcXcXcXcXcXcXcXcXcXcXcXcXcXcXcXcXcX",
"cXcXcXcXcXcXcXcXhXhX* - Z Z ~ ^ E Y a i Y ^ T E W W W W W W ^ ^ ^ Q ^ ! ( ! ( ^ w w u <     cXcXcXcXcXcXcXcXcXcXcXcXcXcXcXcXcXcX",
"cXcXcXcXcXcXcXcXcXcX, t D ^ ~ / w r Y ` ` ` [ W 7 a T ( ( W T T ! ^ -X7X9 9 ! P s r r q .   cXcXcXcXcXcXcXcXcXcXcXcXcXcXcXcXcXcX",
"cXcXcXcXcXcXcXcXkXcXB e A D D ^ w r E ` Y Y ( W 7 a W W W T E ^ Y T 7XeX9 s R ! 8 7 e <     cXxXcXcXcXcXcXcXcXcXcXcXcXcXcXcXcXcX",
"cXcXcXcXcXcXcXcX. . Z D y q r w ` V ` E W Y a s ..W W W E ~ W ^ T ^ 5XqX5XqX0 s 5X7X. . cXkXxXcXcXcXcXcXcXcXcXcXcXcXcXcXcXcXcXcX",
"cXcXcXcXcXcXcXcX  + Z Z y y y y A V ~ E E E i s Y Y W ..E E T Q ^ ^ 6X5XqX9X6 9 6X8X. . kXcXcXcXcXcXcXcXcXcXcXcXcXcXcXcXcXcXcXcX",
"cXkXcXkXcXcXcXcX    1 m kXcXhXhXy y ~ A n w w w i a W ` ^ ^ ^ ^ @ @ Q ( './.wX,X6X5X. . zXcXcXcXcXcXcXcXcXcXcXcXcXcXcXcXcXcXcXcX",
"cXcXcXcXcXcXcXcX    t 1 zXkXkXkXe y V A i i n p w w Y E V ~ N V @ # T Q M.~.=XwX,X-X# $ kXcXcXcXcXcXcXcXcXcXcXcXcXcXcXcXcXcXcXcX",
"kXcXcXcXcXcXcXcXcXcXcXcXcXcXkXcXpXkXf r ~ N N E 7 w ~ ^ ^ V % @ ~ A yXaX| ) wX=X9X6X8 e kXcXzXcXcXcXcXcXcXcXcXcXcXcXcXcXcXcXcXcX",
"cXkXkXcXcXcXcXcXcXcXcXcXcXhXcXcXcXkXq r A _ E ^ a p V N Q Z . . ' Q aXyXL ) =XwX1X6XL h kXzXcXcXcXcXcXcXcXcXcXcXcXcXcXcXcXcXcXcX",
"kXkXcXkXcXcXcXcXcXcXxXlXcXcXxXcXkXhXe e h p ~ E E N h r ^ D X . ^./.eXaX@ # 2X1X:X,XQ N kXzXcXcXcXcXcXcXcXcXcXcXcXcXcXcXcXcXcXcX",
"cXcXcXcXcXcXcXcXxXcXcXlXcXcXlXcXzXcXe e r y N W ^ N f < D _ . @ /./.rXrX3 # :X:X1X1X! T kXcXzXcXcXcXcXcXcXcXcXcXcXcXcXcXcXcXcXcX",
"cXcXcXcXcXcXcXcXcXcXcXcXcXcXcXcXcXcXkXaX% p W W / B d 1 O @ ).S._.).;X;X*X>X:X2X2X;Xm.}.uXcXcXcXcXcXcXcXcXcXcXcXcXcXcXcXcXcXcXcX",
"cXcXcXcXcXcXcXcXcXcXcXcXcXcXcXcXcXcXjXaXB w S  .l F d d > . ).S.S.D.2X2X*X&X:X;X;X2X].}.uXcXlXcXcXcXcXcXcXcXcXcXcXcXcXcXcXcXcXcX",
"cXcXcXcXcXcXcXcXcXcXcXcXcXcXcXcXxXcXjXjXcXkXzXzXX $ F D y N s P 7.7.~.S.3X&X_._.R 3.yXrXkXpXcXzXcXcXcXcXcXcXcXcXcXcXcXcXcXcXcXcX",
"cXcXcXcXcXcXcXcXcXcXcXcXcXcXcXcXhXcXcXxXcXcXzXcX  $ l F h a a j 9.0.~.'.2X:Xm.~.A ..kXkXsXkXcXcXcXcXcXcXcXcXcXcXcXcXcXcXcXcXcXcX",
"cXcXcXcXcXcXcXcXcXcXcXcXcXcXcXcXcXgXxXcXxXxXcXzX  . g g $ % T L     h j 6 J l a zXzXcXcXaXpXzXzXcXcXcXcXcXcXcXcXcXcXcXcXcXcXcXcX",
"cXcXcXcXcXcXcXcXcXcXcXcXcXcXcXcXzXcXcXxXxXlXxXcX. . g < $ # L ( . - < y T j a y zXcXcXcXkXzXcXzXcXcXcXcXcXcXcXcXcXcXcXcXcXcXcXcX",
"cXcXcXcXcXcXcXcXcXcXcXcXcXcXcXcXcXcXjXcXcXcXzXcXkXaXF F X $ 7.7.. . Q.Q.. @ uXcXcXxXcXzXzXcXzXcXcXcXcXcXcXcXcXcXcXcXcXcXcXcXcXcX",
"cXcXcXcXcXcXcXcXcXcXcXcXcXcXcXcXcXcXcXkXcXcXcXcXcXkXg g $ 5 $.u.# . Q.!.2 O cXzXcXxXcXcXzXhXcXcXcXcXcXcXcXcXcXcXcXcXcXcXcXcXcXcX",
"cXcXcXcXcXcXcXcXcXcXcXcXcXcXcXcXcXcXcXkXkXkXcXcXcXkX. 5 b.b.# # n.n.8.e.:.&.> o cXcXcXcXkXcXcXxXcXcXcXcXcXcXcXcXcXcXcXcXcXcXcXcX",
"cXcXcXcXcXcXcXcXcXcXcXcXcXcXcXcXcXcXcXkXcXcXcXcXkXpX# # G.n.# # c.c.y.e.:.*.>   cXcXcXkXkXcXxXxXcXcXcXcXcXcXcXcXcXcXcXcXcXcXcXcX",
"cXcXcXcXcXcXcXcXcXcXcXcXcXcXcXcXkXkXcXcXcXcXcXcX. 6 l.C.I.H.5 @ N.N.y.(.W.U.c + hXkXzXhXcXxXxXxXcXcXcXcXcXcXcXcXcXcXcXcXcXcXcXcX",
"cXcXcXcXcXcXcXcXcXcXcXcXcXcXcXcXaXkXcXcXxXxXcXcX# # C.g.K. XX @ C.Z.b.v.q.U.v + cXpXkXzXcXxXxXxXcXcXcXcXcXcXcXcXcXcXcXcXcXcXcXcX",
"cXcXcXcXcXcXcXcXcXcXcXcXcXcXcXcXkXkXcXcXcXxXcXcX7.u.g.i.OX Xg I K.J.C.n.e.E.-.*.  X kXhXcXlXcXcXcXcXcXcXcXcXcXcXcXcXcXcXcXcXcXcX",
"cXcXcXcXcXcXcXcXcXcXcXcXcXcXcXcXcXkXcXcXcXxXcXhXy.r.Z.A.F. Xz 8 [.J.B.n.8.q.-.-.>   kXkXcXcXcXzXcXcXcXcXcXcXcXcXcXcXcXcXcXcXcXcX",
"cXcXcXcXcXcXcXcXcXcXcXcXcXcXcXcXcXcXcXcXcXcXcXkX@ 3 h.B.J. X. - [.J.s.j.I &.-.=.: o cXkXcXcXzXcXcXcXcXcXcXcXcXcXcXcXcXcXcXcXcXcX",
"cXcXcXcXcXcXcXcXcXcXcXcXcXcXcXcXxXxXcXcXcXkXkXcX. # h.B.I.OX. . [.K.s.k.z G -.-.x o jXjXcXcXcXzXcXcXcXcXcXcXcXcXcXcXcXcXcXcXcXcX",
"cXcXcXcXcXcXcXcXcXcXcXcXcXcXcXcXxXcXjXkXsXkXhXcX. # h.i.C.c.# @ c.p.I.I.@ 2 U.Y.c o cXaXcXcXcXcXcXcXcXcXcXcXcXcXcXcXcXcXcXcXcXcX",
"cXcXcXcXcXcXcXcXcXcXcXcXcXcXcXcXxXcXsXaXkXkXcXhX@ 3 h.B.h.z.3 3 z.k.L.L.% O Y.U.x o cXjXjXjXcXcXcXcXcXcXcXcXcXcXcXcXcXcXcXcXcXcX",
"cXcXcXcXcXcXcXcXcXcXcXcXcXcXcXcXcXzXcXcXkXkX# # y.r.U J H.n.3X%X3 @ .X.X  ; E.E.:   jXkXcXcXcXlXcXcXcXcXcXcXcXcXcXcXcXcXcXcXcXcX",
"cXcXcXcXcXcXcXcXcXcXcXcXcXcXcXcXcXzXcXzXcXhX# 4 r.r.K K G.m.3X4X@ . .XXX  o R.q.; + jXaXcXlXcXcXcXcXcXcXcXcXcXcXcXcXcXcXcXcXcXcX",
"cXcXcXcXcXcXcXcXcXcXcXcXcXcXcXcXzXcXhXcX@ # z.Z.N.Z.4 # 1X<X4X<X3 3 x.f.X o c x cXgXcXjXcXcXcXcXcXcXcXcXcXcXcXcXcXcXcXcXcXcXcXcX",
"cXcXcXcXcXcXcXcXcXcXcXcXcXcXcXcXkXcXcXkX@ 6 t.V.d.N.4 # 2X6X6X,X# 3 j.x.. . ; ; lXcXcXaXkXcXcXcXcXcXcXcXcXcXcXcXcXcXcXcXcXcXcXcX",
"cXcXcXcXcXcXcXcXcXcXcXcXcXcXcXcXsXsXX X M.l.g.a.d.a.k.z.@ 5 @ # {.[.#X X. @ zXzXcXcXkXcXkXcXcXlXcXcXcXcXcXcXcXcXcXcXcXcXcXcXcXcX",
"cXcXcXcXcXcXcXcXcXcXcXcXcXcXcXkXaXtXX . b.m.c.k.a.B.i.c.# # % @ |.+X X.X% . cXcXkXcXkXkXkXcXcXcXcXcXcXcXcXcXcXcXcXcXcXcXcXcXcXcX",
"cXcXcXcXcXcXcXcXcXcXcXcXcXcXcXcXjXkXkXkX@ # @ %  XF.P.P.OX`.@XoXyXhX  X aXcXxXxXcXkXcXcXkXcXcXcXcXcXcXcXcXcXcXcXcXcXcXcXcXcXcXcX",
"cXcXcXcXcXcXcXcXcXcXcXcXcXcXcXcXxXlXcXfX& . X X $X.X@X`.`.#XH.oXhXcX    xXxXcXxXjXjXkXcXcXcXcXcXcXcXcXcXcXcXcXcXcXcXcXcXcXcXcXcX",
"cXcXcXcXcXcXcXcXcXcXcXcXcXcXcXcXcXcXzXkXkXkXaXaX    @ @ I K r.@.Y N .   kXxXxXjXcXcXcXcXcXcXcXcXcXcXcXcXcXcXcXcXcXcXcXcXcXcXcXcX",
"cXcXcXcXcXcXcXcXcXcXcXcXcXcXcXcXxXcXcXkXcXhXjXcX+   . . P ) $.$.( R 5 . kXkXpXjXcXcXcXcXcXkXcXcXcXcXcXcXcXcXcXcXcXcXcXcXcXcXcXcX",
"cXcXcXcXcXcXcXcXcXcXcXcXcXcXcXcXcXxXlXkXkXkXkXjXxXcXcXzX. @ .. .#.@.@.#.@ @ cXkXcXcXzXcXcXkXjXkXcXcXcXcXcXcXcXcXcXcXcXcXcXcXcXcX",
"cXcXcXcXcXcXcXcXcXcXcXcXcXcXcXcXcXcXcXcXkXaXkXcXcXxXlXcX  . ;.;.#.#.$.{ @ $ fXcXcXcXcXcXcXkXkXjXcXcXcXcXcXcXcXcXcXcXcXcXcXcXcXcX",
"cXcXcXcXcXcXcXcXcXcXcXcXcXcXcXcXcXkXjXkXcXcXzXcXcXcXjXjXjXkX@ . & & = O kXlXlXcXcXcXcXcXcXjXjXcXcXcXcXcXcXcXcXcXcXcXcXcXcXcXcXcX",
"cXcXcXcXcXcXcXcXcXcXcXcXcXcXcXcXkXkXcXkXkXhXzXcXlXxXjXjXcXhX  @ o O o o cXcXjXcXcXcXcXcXcXkXcXcXcXcXcXcXcXcXcXcXcXcXcXcXcXcXcXcX"
};
