/* XPM */
static char *tile000[] = {
/* columns rows colors chars-per-pixel */
"73 64 10 1 ",
"  c #958983",
". c #17617C",
"X c #2D2430",
"o c #50404F",
"O c #82DCAC",
"+ c #2DA5A6",
"@ c #B4EDBF",
"# c #131117",
"$ c #072851",
"% c white",
/* pixels */
"                                  .......................................",
"                                  .......................................",
"                                  .......................................",
"                                  .......................................",
"                                  .......................................",
"                                  .......................................",
"                                  .......................................",
"                                  .......................................",
"                                  .......................................",
"                                  .......................................",
"                                  .......................................",
"                                  .......................................",
"                               XXXooo....................................",
"                               XXXooo....................................",
"                               XXXooo....................................",
"                            XXX...OOOooo.................................",
"                            XXX...OOOooo.................................",
"                            XXX...OOOooo.................................",
"                         XXX...+++@@@OOOooo..............................",
"                         XXX...+++@@@OOOooo..............................",
"                         XXX...+++@@@OOOooo..............................",
"                      XXX...++++++@@@@@@OOOooo...........................",
"                      XXX...++++++@@@@@@OOOooo...........................",
"                      XXX...++++++@@@@@@OOOooo...........................",
"                   XXX...+++++++++@@@@@@@@@OOOooo........................",
"                   XXX...+++++++++@@@@@@@@@OOOooo........................",
"                   XXX...+++++++++@@@@@@@@@OOOooo........................",
"                XXX...++++++++++++@@@@@@@@@@@@OOOooo.....................",
"                XXX...++++++++++++@@@@@@@@@@@@OOOooo.....................",
"                XXX...++++++++++++@@@@@@@@@@@@OOOooo.....................",
"             XXX...+++++++++++++++@@@@@@@@@@@@@@@OOOooo..................",
"             XXX...+++++++++++++++@@@@@@@@@@@@@@@OOOooo..................",
"             XXX...+++++++++++++++@@@@@@@@@@@@@@@OOOooo..................",
"             ###$$$$$$$$$$$$$$$$$$+++++++++++++++...XXX..................",
"             ###$$$$$$$$$$$$$$$$$$+++++++++++++++...XXX..................",
"             ###$$$$$$$$$$$$$$$$$$+++++++++++++++...XXX..................",
"                ###$$$$$$$$$$$$$$$++++++++++++...XXX.....................",
"                ###$$$$$$$$$$$$$$$++++++++++++...XXX.....................",
"                ###$$$$$$$$$$$$$$$++++++++++++...XXX.....................",
"                   ###$$$$$$$$$$$$+++++++++...XXX........................",
"                   ###$$$$$$$$$$$$+++++++++...XXX........................",
"                   ###$$$$$$$$$$$$+++++++++...XXX........................",
"                      ###$$$$$$$$$++++++...XXX...........................",
"                      ###$$$$$$$$$++++++...XXX...........................",
"                      ###$$$$$$$$$++++++...XXX...........................",
"                         ###$$$$$$+++...XXX..............................",
"                         ###$$$$$$+++...XXX..............................",
"                         ###$$$$$$+++...XXX..............................",
"                            ###$$$...XXX.................................",
"                            ###$$$...XXX.................................",
"                            ###$$$...XXX.................................",
"                               ###XXX....................................",
"                               ###XXX....................................",
"                               ###XXX....................................",
"                                  .......................................",
"                                  .......................................",
"                                  .......................................",
"                                  .......................................",
"                                  .......................................",
"                                  .......................................",
"                                  .......................................",
"                                  .......................................",
"                                  .......................................",
"                                  ......................................."
};
