/* XPM */
static char *look_right[] = {
/* columns rows colors chars-per-pixel */
"64 64 14 1 ",
"  c black",
". c #010101",
"X c #2A2A2A",
"o c #680000",
"O c #5B2E2E",
"+ c gray29",
"@ c #505050",
"# c red",
"$ c #C73535",
"% c #FF5700",
"& c #A25050",
"* c #FFB100",
"= c #08F89F",
"- c None",
/* pixels */
"----------------------------------------------------------------",
"----------------------------------------------------------------",
"----------------------------------------------------------------",
"----------------------------------------------------------------",
"----------------------------XX%------*--------------------------",
"---------------------------.X.%X-----%--------------------------",
"---------------------------XX.*OO----X*-------------------------",
"--------------------------.X%X*XOO---X*-------------------------",
"--------------------------X%&XO*XX.-.X*-------------------------",
"------------------------X...&%OO**..X%--------------------------",
"-----------------------XX....%*OX%#O%X--------------------------",
"----------------------XXX..#.oX*%#XOX---------------------------",
"----------------------$X.$###.###XXX----------------------------",
"----------------------$XO.*##.=.###-----------------------------",
"-------------------XX%-%OO.%...oo.-XXX--------------------------",
"------------------XXX*#-*OX..#o###XXXXX-------------------------",
"------------------XXX*#.#*%X..#o#XXXXXX-------------------------",
"------------------$$%o#.##.oo..####XXXX-------------------------",
"-------------------#oo.####o#o.XoooXXX--------------------------",
"--------------------..######o.#o####XX--------------------------",
"-----------------#####.####..###XXoo#XXX------------------------",
"-----------------oo..##.##.#oo#######XXXX-------------%%--------",
"----------------#####.#.#..#ooo######XXXX------------X%%--------",
"---------------#&%**##o.....ooo#..o#XXXXX---oo-----XXX%---------",
"---------------&..--*#...--.#o..XX.o.XX-----oo---XXXX-----------",
"-------------------..%...---X..o##...----...oooXXXX-------------",
"----------------###......----...XX...........ooXX---------------",
"---------------#####...-----X..o###......oo..ooo----------------",
"---------------#####..-----X&..XXXX...ooooo...oo----------------",
"---------------####...----XXX&.......ooooo....oo----------------",
"---------------o##...----###XXX.&..&.#oo--..--oo----------------",
"---------------o....----#%###...XXXX.##--------o----------------",
"---------------.###---####%###..XXX..o##------------------------",
"---------------..##oo#########...X..Xo###-----------------------",
"----------&%oooo..ooo#.....###X.....X.###-----------------------",
"----------&%oooXX.ooo-o####..#X&X..XXXo.------------------------",
"-----------&&&-XXXX---#######.&&X..XXX.##-----------------------",
"--------------XXX.XX-########X&&....XX.###----------------------",
"--------------XXXX--##oooo##XX&&....XX.o#.----------------------",
"---------------X..X-#o....#XXX&X....XX...-----------------------",
"---------------.X-X-#.......XXX........-------------------------",
"----------------X-------.......-XX.....-------------------------",
"------------------------##...#.-..X..oo..o----------------------",
"-----------------------X######--..X..oo##o----------------------",
"----------------------XX######--XX...oo##o----------------------",
"----------------------X##....#-......oo..-----------------------",
"----------------------X#.###..-......o.o##o---------------------",
"-------------------+++X.######-.......oo##o---------------------",
"------------------+++++#######-.....-ooo##o---------------------",
"------------------+++++##XXX##-.....-ooo--o---------------------",
"------------------+++++#XXXXX#-.....-oo-------------------------",
"------------------++++++XX&X----...-----------------------------",
"----------------++++++++XX&X----...-----------------------------",
"------------------++++++o##.----..oo----------------------------",
"------------------++++++o##.++--..oo----------------------------",
"------------------+++++oo##o+++o.oooo---------------------------",
"-------------------++++XXXoo+++o.oo..---------------------------",
"---------------------+X&&&XX-++o.X..XXXX-@----------------------",
"----------------------X.X.XX--+..X......------------------------",
"----------------------------------------------------------------",
"----------------------------------------------------------------",
"----------------------------------------------------------------",
"----------------------------------------------------------------",
"----------------------------------------------------------------"
};
