/* XPM */
static char *walk_front_0[] = {
/* columns rows colors chars-per-pixel */
"64 64 13 1 ",
"  c black",
". c #010101",
"X c #2A2A2A",
"o c #680000",
"O c gray29",
"+ c red",
"@ c #C73535",
"# c #FF5700",
"$ c #A25050",
"% c #FFB100",
"& c #08F89F",
"* c #A4A4A4",
"= c None",
/* pixels */
"================================================================",
"================================================================",
"================================================================",
"===========================##========##=========================",
"===========================#%========%#=========================",
"===========================#%==++++==%#=========================",
"============================#%++++++%#==========================",
"============================o#%++++%#o==========================",
"===========================o+@#%%%%#@+o=========================",
"==========================+++..#$$#..+++========================",
"==========================+o.++.##.++.o+========================",
"=========================++o.+&o..o&+.o+========================",
"========================+++o.++o++o++.o+========================",
"=======================o++ooo+++oo+++oooo=======================",
"=======================++oo..o++..++o..o+=#XX===================",
"===================XX#=@oo..o.o*..*o.o..@@%XXX==================",
"==================XXX%@o+o..oo.o++o.oo...+%XXX==================",
"==================XXX%+++++.o++.++.++o.+.+o#@@==================",
"==================@@#o++++.++++ooo+++oo+++oo+===================",
"===================+oo+++++.++++++++++o++++o+++=================",
"====================++++++oo+++XXXo+++o+++o++o++================",
"===================+++...oXo+++++++++oo++o+...oo================",
"===================++.++++Xoo+++++++++Xoo+.+++++================",
"=====================++++++Xo+++++++oo...o++%%#$+===============",
"====================++%%%#+XoXX..XXooX=...+%..==$===============",
"====================+%....#XX..++++XX.==..#...o=================",
"====================+#.++.o..........o===X..$++o================",
"======================+$$+=..++++++..o===X.++$+o================",
"=====================+$++$=...XXXX...o===.++++$o================",
"=====================$++++=.$..XX..$.X===.oooo+=================",
"=====================+++++++X$XX$..+++#$o.o##o+=================",
"======================+++++++.....+++#+#o.o##o+=================",
"======================++++++++...+++++#++.oooo==================",
"=====================+XXXX++++..++++++++++======================",
"====================++.....+++X.+++.....+++=====================",
"====================+.XXXX+..+X$++.+++++.++=====================",
"===================+X++++++++.$$+.+++++++.+=====================",
"===================o+++++++++X$$$+++++++++======================",
"===================+++oooo++XX$$+++ooooo+++=====================",
"====================+o....+XXX$X++oXX...o++=====================",
"=======================.....XXX.+oXX.....o+=====================",
"========================.......==..+....++======================",
"=======================+....++.==..+++++++======================",
"=======================+++++++====.+++++++======================",
"======================X+++++++====++++++++======================",
"======================X+....++====++.....+======================",
"======================X.+++...====+.+++++X======================",
"===================OOOX+++++++=====+++++++======================",
"==================OOOOO+++++++=====+++++++======================",
"==================OOOOO++XXX++=====+XXXX++======================",
"==================OOOOO+XXXXX+=====+XXXX=+======================",
"==================OOOOOOXX$XO=======X$XX========================",
"==================OOOOOOXX$XO=======X$XX========================",
"==================OOOOOOo++.OO======.++o========================",
"==================OOOOOOo++.OOO=====.++o========================",
"==================OOOOooo++oOOOO====o++ooo======================",
"==================OOOXXXXoo.OOOOOO==ooXXXX======================",
"===================OXX$$$XX.===OOOOOXX$$$XX=====================",
"====================XXX.X.X.=====OOOXX.X.XX=====================",
"================================================================",
"================================================================",
"================================================================",
"================================================================",
"================================================================"
};
