/* XPM */
static char *tile002[] = {
/* columns rows colors chars-per-pixel */
"64 64 12 1 ",
"  c #0023FF",
". c #0066FF",
"X c #00A0FF",
"o c #00AAFF",
"O c #00C7D6",
"+ c #59F2FF",
"@ c #7AF4FF",
"# c #CCFAFF",
"$ c #CDFAFF",
"% c #CCFBFF",
"& c #F9FFFF",
"* c None",
/* pixels */
"****************************************************************",
"****************************************************************",
"****************************************************************",
"****************************************************************",
"****************************************************************",
"****************************************************************",
"****************************************************************",
"****************************************************************",
"****************************************************************",
"****************************************************************",
"****************************************************************",
"****************************************************************",
"****************************************************************",
"****************************************************************",
"*********************************%******************************",
"****************************************************************",
"**********************************%*****************************",
"****************************************************************",
"****************************************************************",
"**************************************%%************************",
"***********************************%%%%*************************",
"**********************************%%%%%*************************",
"********************************%%%%%%%o************************",
"*******************************%%%%%%%%%o***********************",
"**************************%**%%.%%%%O%%%o***********************",
"****************************%%%% OOO%%%%o***********************",
"*********************%*****%%%%oOOO%%%%%%o**********************",
"*********************%****%%%..OoOO%%%%%%%**********************",
"*********************%%**%%%%O.oooOO%%%%%***********************",
"*************************%%%OO.oooo%%%%%%***********************",
"************************%%%%O.ooooo%%O%%************************",
"************************%%%OOOooooo%%%%%************************",
"************************%%%oOOO.oo%%%%**************************",
"******************%****%%%%ooO.ooo%%%**o************************",
"***********************%%%%ooo .ooO%****************************",
"*******************%***%%%ooo....oO%*%**************************",
"*******************%.**%%Ooo..  ..OO***%************************",
"******************%%%%**OO%..  ...O%%.*%%%**********************",
"*****************%%.%%O*OO..   ...%%%o%%%%**********************",
"*****************%O%%Oo.OOO     ..O%.%OO%%%*********************",
"******************%%%o..%OO     ..O.. oOO%%*********************",
"******************%%o .. %O      O.  ...OO%*********************",
"****************%**oo..  .oo     .   ..%O%%*********************",
"*****************%%oo.     .         ..o%%%*********************",
"*****************%Oooo     .O       ..%%%%**********************",
"******************%%%o      .       ..O%%***********************",
"*******************%%OO     ..      oooO%***********************",
"********************%%O.     ..    .oooOO***********************",
"*********************%%.      .   .ooOO%%***********************",
"*********************%Ooo     ..  ..OOO%************************",
"********************%Ooooo     . ....OO*************************",
"*********************%ooo.     .....OO%*************************",
"***********************Oo..    ....OO***************************",
"***********************%Oo..  ....%%****************************",
"***********************%%*%o..o..%******************************",
"*************************&$%o.oO%*******************************",
"************************&$@X%%X@%&******************************",
"***********************&$@X++++X@%&*****************************",
"**********************&$@X+%%%%+X@%&****************************",
"***********************&$@X++++X@%&*****************************",
"************************&$@XXXX@%&******************************",
"*************************&$@@@@$&*******************************",
"**************************&$$$$&********************************",
"***************************&&&&*********************************"
};
