/* XPM */
static char *tile003[] = {
/* columns rows colors chars-per-pixel */
"64 64 12 1 ",
"  c #0023FF",
". c #0066FF",
"X c #00A0FF",
"o c #00AAFF",
"O c #00C7D6",
"+ c #59F2FF",
"@ c #7AF4FF",
"# c #CCFAFF",
"$ c #CDFAFF",
"% c #CCFBFF",
"& c #F9FFFF",
"* c None",
/* pixels */
"****************************************************************",
"****************************************************************",
"****************************************************************",
"****************************************************************",
"****************************************************************",
"****************************************************************",
"****************************************************************",
"****************************************************************",
"****************************************************************",
"****************************************************************",
"****************************************************************",
"****************************************************************",
"****************************************************************",
"**********************************%*****************************",
"****************************************************************",
"****************************************************************",
"**********************************************.*****************",
"****************************************************************",
"******************************%*************.*******************",
"******************************%%***********..*******************",
"*****************************%%%***********.********************",
"****************************%%%%%*******************************",
"****************************%%%%%*******************************",
"************************%**%%%%O%%******************************",
"**************************%%%%%O%%%*****************************",
"**************************%%%%OOO%%%****************************",
"*************************%%%.%OOO%%%%***************************",
"************************%%%%%.OOOO%%O%**************************",
"************************%%%%O...oOOO%%%*************************",
"************************%%%OOO..ooOO%%%*************************",
"*******************%****%%%OOO.oooO%%%%*************************",
"************************%%%OOOooooO%%%%*************************",
"*************************%OOoOo.ooo%%%**************************",
"******************O*****%%ooOO..ooo%%*%*************************",
"********************%%*%%o.oo...ooo%**O%************************",
"*******************%%o**%o.oo..oo o%***%%***********************",
"******************%%o.**O...oooooO.%%**%%%**********************",
"******************%oo%%*O....oooooOO%%O%o%%*********************",
"******************%oo%%%%..... ooOO%.%oo%%%*********************",
"*******************ooo..%O....   OOO..ooO%%%********************",
"*******************oo ... o...   .O....OO%%*********************",
"*******************o......Oo.    .O ...OOO**********************",
"*******************%.... .OOo    .  o...O***********************",
"*******************Oo..  ..O    ..   ...O***********************",
"******************%Ooo.   .o  ...    ..oo***********************",
"******************%%oo.    .o ..    .oooo%**********************",
"******************%OOoo      ...    .O%%%%**********************",
"******************%%OO..     ...   .ooooo%%*********************",
"********************%o...     ...   oooo%%**********************",
"*********************%...o     ...  ooo%%***********************",
"**********************%.o..     .. ..o%%************************",
"*********************%%o..       ....o%*************************",
"*********************%%%.         ..o***************************",
"***********************%%.       .oo%***************************",
"*************************%O.   O.oOO****************************",
"**************************&Oo OOoO******************************",
"*************************&$@X%%$O*******************************",
"************************&$@X++X@%&******************************",
"***********************&$@X+%%+X@%&*****************************",
"************************&$@X++X@%&******************************",
"*************************&$@XX@$&*******************************",
"**************************&$@@$&********************************",
"***************************&%%&*********************************",
"****************************&&**********************************"
};
