/* XPM */
static char *tile001[] = {
/* columns rows colors chars-per-pixel */
"64 64 13 1 ",
"  c #0023FF",
". c #0066FF",
"X c #00A0FF",
"o c #00AAFF",
"O c #00C7D6",
"+ c #59F2FF",
"@ c #7AF4FF",
"# c #CCFAFF",
"$ c #CDFAFF",
"% c #CCFBFF",
"& c #CDFBFF",
"* c #F9FFFF",
"= c None",
/* pixels */
"================================================================",
"================================================================",
"================================================================",
"================================================================",
"================================================================",
"================================================================",
"================================================================",
"================================================================",
"================================================================",
"================================================================",
"================================================================",
"================================================================",
"================================================================",
"================================================================",
"================================================================",
"================================================================",
"================================================================",
"===================================%============================",
"===================================%============================",
"===================================%%===========================",
"====================================%===========================",
"================================================================",
"================================%===============================",
"===============================%%%==============================",
"========================%=====%%O%%=============================",
"=============================%%OOO%%============================",
"============================%%OoOO%%%===========================",
"============================%O. oO%%%%==o=======================",
"==========================%=OOO.oOO%%%%=o=======================",
"====================%======OOOo.oOOO%%%==o======================",
"===================%%%=====OOo..oOOO%%%=o=======================",
"====================%=====OOoo.ooOOOO%%=========================",
"===================%======OOo.ooOOOO%%==========================",
"=========================%Ooooo.oOO%%===========================",
"========================%%.ooo .oo%%=%===%======================",
"====================%==%%o.ooo.o.o%%=O==%%======================",
"=================O=%%%=%%...o..oooO%OO=%%=======================",
"===================%%%==O... oo oO%OO%=O%=======================",
"==================%.o%%=O.. ..ooo%OOoo%%O=======================",
"==================%OOO%%OO   .o.%OOooo%%.%======================",
"==================%%.oO%%O    o.. Oooo%%oO%=====================",
"===================%..oo%O.    OO  o.oo.OO%%====================",
"===================%...ooO..    ..  o..oOO%%====================",
"==================%%.....o.     ...  ..oO%%%====================",
"==================%Oo.....o     ..   .oO%%%=====================",
"===================Oo.....     ..    oo%%%======================",
"===================%Ooo..     ..    .oo%%%======================",
"===================%%Oo..    ..    .oo%%%=======================",
"===================%%O%O.    .    .ooO%=========================",
"====================%%O%..        .oO%==========================",
"====================%OOOoo       ..O%%%=========================",
"=====================%Oooo.     ..OO%%%=========================",
"=====================%%%ooo     .OOO============================",
"======================%%oooo.  .oOO%%===========================",
"=======================%%%oooo.o%%%%%===========================",
"========================%=%%ooo%%%=%============================",
"==========================*$@%%X%%*=============================",
"=========================*$@X+++X@%*============================",
"========================*$@X+%%%+X@%*===========================",
"=========================*$@X+++X@%*============================",
"==========================*$@XXX@%*=============================",
"===========================*$@@@$*==============================",
"============================*$$$*===============================",
"=============================***================================"
};
