/* XPM */
static char *tile000[] = {
/* columns rows colors chars-per-pixel */
"64 64 12 1 ",
"  c #0023FF",
". c #0066FF",
"X c #00A0FF",
"o c #00AAFF",
"O c #00C7D6",
"+ c #59F2FF",
"@ c #7AF4FF",
"# c #CCFAFF",
"$ c #CDFAFF",
"% c #CCFBFF",
"& c #F9FFFF",
"* c None",
/* pixels */
"****************************************************************",
"****************************************************************",
"****************************************************************",
"****************************************************************",
"****************************************************************",
"****************************************************************",
"****************************************************************",
"****************************************************************",
"****************************************************************",
"****************************************************************",
"****************************************************************",
"****************************************************************",
"****************************************************************",
"****************************************************************",
"****************************************************************",
"****************************************************************",
"****************************************************************",
"****************************************************************",
"****************************************************************",
"**********************************%*****************************",
"*********************************%%*****************************",
"**********************************%*****************************",
"*****************************%**********************************",
"*****************************%%*********************************",
"*****************************%%%%*******************************",
"*************************%***%O%%%******************************",
"*****************************%OO%%%*****************************",
"*****************************%O O%%%****************************",
"*****************************%OOoO%%%***************************",
"****************************%OOo.O%%%%**************************",
"**********************%***%%OOo..OO%%%**************************",
"*********************%%**%%OOoo.ooOO%%**************************",
"*********************%%**%OOooooooOO%%**************************",
"********************%%***%Oooo.oooOO%%**%***********************",
"*************************%o..oooooOO%%*%************************",
"*********************%**%o..ooo.ooOOO%**%***********************",
"********************%%**%...oooo.oOOO%**%%**********************",
"*******************%%%**%...ooo.oOOOO%*%%%**********************",
"*******************%O%%*%. ..o..oOOOO%%%%%**********************",
"*******************%OO%%%O....oooOOO%%%O%%**********************",
"*******************%OoOOOo.  .ooOOOOO%OO%O%*********************",
"*******************o.oooooo   ..oOOOOO%O %%*********************",
"******************%o..ooooo.   ...OOOOO.O%%*********************",
"******************%o...ooo..    ...ooOooO%**********************",
"******************%%o...o...    ...ooo.O%%**********************",
"*******************%O......     . ..o..O%%**********************",
"*******************%%Oo...     .  ..oo.O%***********************",
"*******************%%%Oo.     .   ..ooOO%***********************",
"********************%%OOo     .    oooO%************************",
"*******************%%O%OO.    ..   ooO%%%***********************",
"********************%%%%oo.    .  .ooO%%************************",
"**********************%Ooo..  .. .ooo%%*************************",
"**********************%%ooo. .. .ooo****************************",
"***********************%%ooo....ooo%****************************",
"*************************%ooo..ooo*%****************************",
"**************************&oo.oo%*******************************",
"*************************&$@o%o@%&******************************",
"************************&$@XOOOX@%&*****************************",
"***********************&$@X+%%%+X@%&****************************",
"************************&$@X+++X@%&*****************************",
"*************************&$@oXX@%&******************************",
"**************************&$@@@$&*******************************",
"***************************&$$$&********************************",
"****************************&&&*********************************"
};
